<svg width="256" height="256" viewBox="0 0 256 256" fill="none" xmlns="http://www.w3.org/2000/svg">
<path d="M18.5003 123.043C17.3253 123.043 16.251 122.305 15.8481 121.197C15.7474 120.962 7.1529 98.1996 2.2849 90.3773C1.44559 89.0344 1.84844 87.2885 3.19134 86.4492C4.53424 85.6099 6.27999 86.0128 7.1193 87.3557C10.5437 92.8616 15.4788 104.713 18.5003 112.3C28.2027 87.7921 38.3752 66.4401 38.4759 66.2051C39.1474 64.7951 40.8596 64.1908 42.2696 64.8622C43.6796 65.5337 44.284 67.2458 43.6125 68.6558C43.4782 68.9244 31.4593 94.1708 21.1526 121.163C20.7161 122.271 19.6754 123.01 18.5003 123.01V123.043Z" fill="#66CCB9"/>
<path d="M160.982 150.64C160.982 150.64 145.639 170.044 118.009 172.327C98.0671 173.972 81.3144 153.93 62.0103 119.115L80.3744 107.197C80.3744 107.197 95.6498 128.515 111.093 129.623C128.853 130.899 141.946 115.624 141.946 115.624L160.982 150.606V150.64Z" fill="#DDDCFC"/>
<path d="M66.979 120.492L62.0103 119.149C81.3144 153.963 97.7313 174.644 118.546 172.462C146.546 169.507 161.015 150.673 161.015 150.673L157.087 142.112C157.087 142.112 145.572 159.301 117.472 158.764C87.9953 158.193 67.0125 120.525 67.0125 120.525L66.979 120.492Z" fill="#9597CF"/>
<path d="M62.8832 114.751C60.936 112.837 57.5116 112.233 57.5116 112.233C59.4588 109.95 61.3052 109.883 61.3052 109.883C61.3052 109.883 57.478 104.981 67.6504 101.255C74.4321 98.7704 80.3743 107.231 80.3743 107.231C80.3743 107.231 84.3359 113.039 87.7267 116.597C87.7267 116.597 87.4581 119.216 91.6547 124.588C91.6547 124.588 84.5373 122.506 80.7772 120.559C80.7772 120.559 81.4823 128.113 82.2544 131.772C82.2544 131.772 77.2186 128.65 69.329 121.969C69.329 121.969 68.0197 125.528 68.0197 129.724C68.0197 129.724 64.696 123.547 61.9766 119.149C60.9023 117.907 57.9144 118.209 57.9144 118.209C59.7273 115.087 62.8832 114.784 62.8832 114.784V114.751Z" fill="#57539F"/>
<path d="M115.726 173.1C106.762 173.1 98.1006 168.769 89.2711 159.872C80.8444 151.378 71.9813 138.553 61.3724 119.451C61.2046 119.115 61.3052 118.712 61.6409 118.544C61.9767 118.377 62.3796 118.477 62.5475 118.813C84.2017 157.824 100.216 173.133 117.908 171.689C144.934 169.44 160.277 150.438 160.411 150.237C160.646 149.935 161.049 149.901 161.351 150.136C161.653 150.371 161.687 150.774 161.452 151.076C161.284 151.277 157.457 156.078 150.171 161.181C143.457 165.915 132.412 171.824 117.975 172.999C117.203 173.066 116.431 173.1 115.659 173.1H115.726Z" fill="#191935"/>
<path d="M61.9766 119.787C61.7752 119.787 61.6073 119.72 61.473 119.552C60.768 118.746 58.653 118.746 57.9815 118.847C57.7465 118.847 57.478 118.746 57.3437 118.544C57.2094 118.343 57.2094 118.074 57.3437 117.839C58.5187 115.792 60.2309 114.851 61.4059 114.449C59.6265 113.307 57.4108 112.904 57.4108 112.904C57.1758 112.871 56.9744 112.703 56.9072 112.468C56.8401 112.233 56.8736 111.998 57.0415 111.796C59.1565 109.346 61.2044 109.211 61.3052 109.211C61.6745 109.211 61.9766 109.48 62.0102 109.849C62.0102 110.219 61.7417 110.521 61.3724 110.554C61.3388 110.554 60.2309 110.655 58.8544 111.864C60.0966 112.233 62.0438 112.971 63.3867 114.281C63.5881 114.449 63.6217 114.751 63.5546 114.986C63.4539 115.221 63.2524 115.389 62.9838 115.422C62.8831 115.422 60.8688 115.657 59.2573 117.47C60.3316 117.537 61.7416 117.772 62.5138 118.679C62.7488 118.947 62.7152 119.384 62.4467 119.619C62.3124 119.719 62.1781 119.787 62.0102 119.787H61.9766Z" fill="#191935"/>
<path d="M119.621 170.783C108.676 175.08 100.618 174.443 100.618 174.443C100.618 174.443 103.136 172.831 106.427 170.414" fill="#9597CF"/>
<path d="M101.928 175.148C101.122 175.148 100.619 175.114 100.551 175.114C100.249 175.114 100.014 174.879 99.9471 174.61C99.8799 174.342 99.9806 174.04 100.249 173.872C100.249 173.872 102.801 172.26 106.024 169.877C106.326 169.642 106.729 169.709 106.964 170.011C107.199 170.313 107.132 170.716 106.829 170.951C105.252 172.093 103.875 173.066 102.834 173.771C105.923 173.67 112 173.066 119.385 170.145C119.721 170.011 120.124 170.179 120.258 170.515C120.393 170.85 120.225 171.253 119.889 171.387C111.429 174.711 104.714 175.114 101.961 175.114L101.928 175.148Z" fill="#191935"/>
<path d="M61.3052 109.849C56.2358 105.552 51.3678 101.221 53.1472 92.3916C53.1472 92.3916 65.0653 85.3077 66.3747 75.3367C66.3747 75.3367 76.2786 78.3918 79.5687 86.2477C80.7437 89.0342 81.2137 100.113 80.408 107.163C80.408 107.163 78.7293 106.727 76.95 105.653C76.95 105.653 75.5063 106.626 73.8949 108.943C73.8949 108.943 70.7055 108.137 68.3219 106.055C68.3219 106.055 67.919 108.338 67.4155 110.856C67.4155 110.856 63.9239 108.439 62.0103 106.828C62.0103 106.828 61.5738 108.137 61.3388 109.816L61.3052 109.849Z" fill="#DDDCFC"/>
<path d="M61.3052 110.521C61.1373 110.521 61.0031 110.454 60.8688 110.353C56.0344 106.291 50.5957 101.691 52.4757 92.2572C52.5093 92.0558 52.6435 91.9215 52.7778 91.8208C52.8785 91.7537 64.4274 84.8043 65.6696 75.2697C65.6696 75.0683 65.8039 74.9003 65.9718 74.7995C66.1397 74.6988 66.3411 74.6654 66.5425 74.7325C66.9454 74.8668 76.7821 77.9554 80.1393 86.0463C81.3815 89.0007 81.8516 100.315 81.0123 107.298C80.9787 107.667 80.6429 107.936 80.2736 107.902C79.9043 107.868 79.6358 107.533 79.6694 107.163C80.5087 99.9118 79.9379 89.1014 78.8972 86.5835C76.2785 80.3055 69.1612 77.1832 66.8782 76.3103C66.1397 80.2719 63.6553 84.3678 59.7273 88.1615C57.0751 90.713 54.5571 92.358 53.7514 92.8616C52.1735 101.322 57.0415 105.418 61.7416 109.379C62.0102 109.614 62.0774 110.051 61.8088 110.319C61.6745 110.487 61.4731 110.554 61.3052 110.554V110.521Z" fill="#7481BA"/>
<path d="M65.7368 82.6889C61.4059 80.0367 60.8688 78.1232 60.8688 78.1232C56.3701 78.1232 53.0464 74.9673 53.0128 73.3558C53.0128 71.7444 60.2308 69.0586 63.8231 70.0322C69.2954 71.5094 73.0555 74.2958 73.0555 74.2958C76.4127 77.3509 77.9907 82.0175 79.535 86.2812" fill="#DDDCFC"/>
<path d="M79.535 86.9528C79.2664 86.9528 78.9979 86.785 78.8972 86.5164L78.6286 85.7777C77.1514 81.749 75.6407 77.6196 72.6191 74.8331C72.2834 74.5981 68.6911 72.0466 63.6552 70.6701C61.3387 70.0323 57.0079 71.1065 54.725 72.483C53.9529 72.953 53.7178 73.2888 53.6842 73.3559C53.6842 74.3967 56.538 77.4182 60.8688 77.4182C61.1709 77.4182 61.4395 77.6197 61.5066 77.9218C61.5066 77.9218 62.111 79.6676 66.0725 82.0848C66.3747 82.2862 66.4754 82.6891 66.3075 82.9913C66.1061 83.2934 65.7032 83.3941 65.4011 83.2262C62.0774 81.2118 60.8687 79.5333 60.4659 78.7611C58.4851 78.6604 56.5379 77.9889 54.9264 76.881C53.3821 75.8067 52.4085 74.4639 52.4085 73.3895C52.4085 72.8524 52.7107 72.3488 53.3821 71.8452C55.3629 70.3008 60.8688 68.5216 64.0582 69.3945C69.564 70.8716 73.3577 73.658 73.5256 73.7923C73.6934 73.9266 73.5591 73.7923 73.5927 73.8259C76.8828 76.8139 78.4607 81.1448 79.9715 85.3414L80.2401 86.0798C80.3744 86.4156 80.1729 86.8185 79.8372 86.9528C79.7701 86.9528 79.6693 86.9864 79.6021 86.9864L79.535 86.9528Z" fill="#7481BA"/>
<path d="M53.0464 73.356C53.0464 71.7445 59.3244 68.7901 63.8567 70.0323C63.8567 70.0323 60.0294 74.3296 60.9023 78.1233C55.8329 78.3247 53.08 74.9674 53.0464 73.356Z" fill="#3F3E77"/>
<path d="M113.175 130.362C112.47 130.362 111.765 130.362 111.026 130.295C102.7 129.691 94.2734 124.957 87.2232 117C82.758 111.964 79.8372 107.6 79.8036 107.566C79.6022 107.264 79.6693 106.828 79.9715 106.626C80.2736 106.425 80.7101 106.492 80.9115 106.794C80.9115 106.828 83.8323 111.125 88.2303 116.094C95.0455 123.782 103.17 128.348 111.127 128.952C128.316 130.194 141.308 115.355 141.409 115.187C141.644 114.919 142.08 114.885 142.349 115.12C142.618 115.355 142.651 115.792 142.416 116.06C142.282 116.194 129.927 130.362 113.141 130.362H113.175Z" fill="#7481BA"/>
<path d="M87.7267 117.235C87.5253 117.235 87.3574 117.168 87.2232 117C82.758 111.964 79.8372 107.6 79.8036 107.566C79.6022 107.264 79.6693 106.828 79.9715 106.626C80.2736 106.425 80.7101 106.492 80.9115 106.794C80.9115 106.828 83.8323 111.125 88.2303 116.094C88.4653 116.362 88.4653 116.799 88.1631 117.034C88.0288 117.134 87.861 117.202 87.7267 117.202V117.235Z" fill="#191935"/>
<path d="M60.4659 78.7948C57.0751 78.7948 54.9936 77.3176 54.02 76.4111C52.9792 75.4375 52.3749 74.2961 52.3414 73.3896C52.3414 72.7853 52.7107 72.181 53.4829 71.5767C55.4972 69.9988 60.2644 68.3873 63.991 69.3609C64.3603 69.4616 64.5618 69.8309 64.461 70.2002C64.3603 70.5695 63.991 70.7709 63.6217 70.6702C60.4324 69.7973 56.3365 71.2073 54.5572 72.4495C53.8522 72.9531 53.6507 73.2889 53.6507 73.356C53.6507 73.7924 54.0536 74.6318 54.8929 75.4376C55.7322 76.2433 57.6458 77.5526 60.8016 77.4519C61.1709 77.4519 61.4731 77.7205 61.5067 78.0898C61.5067 78.459 61.2381 78.7612 60.8688 78.7948C60.7345 78.7948 60.5666 78.7948 60.4324 78.7948H60.4659Z" fill="#191935"/>
<path d="M45.0226 72.8188L41.3968 69.361C40.4568 68.4545 41.4304 66.8766 42.6725 67.3802L47.3391 69.2267L45.0226 72.8525V72.8188Z" fill="#25A088"/>
<path d="M45.0226 73.4902C44.8547 73.4902 44.6869 73.423 44.5526 73.2887L40.9267 69.8308C40.2553 69.1929 40.1546 68.2529 40.6581 67.4808C41.1617 66.7086 42.0683 66.4064 42.9076 66.7421L47.5741 68.5886C47.7755 68.6557 47.9098 68.8237 47.977 68.9915C48.0441 69.1594 48.0105 69.3944 47.9098 69.5623L45.5934 73.1881C45.4926 73.3559 45.2912 73.4566 45.1233 73.4902H45.0562H45.0226ZM42.2025 67.9507C41.9675 67.9507 41.8332 68.1187 41.7661 68.2194C41.6989 68.3201 41.5646 68.6223 41.8332 68.8909L44.8547 71.778L46.2983 69.5287L42.404 67.9843C42.3368 67.9843 42.2697 67.9507 42.2025 67.9507Z" fill="#20564C"/>
<path d="M48.212 68.7901L50.092 69.1931C51.6364 69.5288 53.1135 70.133 54.4229 70.9724L97.0934 98.2668L92.2926 105.787L49.6221 78.4925C48.2792 77.6532 47.1376 76.5789 46.1976 75.3032L45.0226 73.759C44.2168 72.7182 44.9219 71.1402 45.3248 70.4352C45.9962 69.2937 46.9026 68.488 48.212 68.7901Z" fill="#66CCB9"/>
<path d="M92.3261 106.458C92.1918 106.458 92.0575 106.425 91.9568 106.358L49.2863 79.0633C47.8763 78.1568 46.6676 77.0489 45.6605 75.706L44.4854 74.1616C43.3104 72.6173 44.4855 70.5022 44.754 70.0994C45.7276 68.4879 46.9362 67.8165 48.3463 68.1186L50.2263 68.5215C51.8377 68.8573 53.3821 69.4952 54.7922 70.4016L97.4627 97.6959C97.7649 97.8974 97.8655 98.3002 97.6641 98.6359L92.8632 106.156C92.7625 106.291 92.6283 106.425 92.4269 106.458C92.3933 106.458 92.3261 106.458 92.2925 106.458H92.3261ZM47.7419 69.4279C47.2719 69.4279 46.6341 69.6629 45.9291 70.8044C45.5598 71.4423 45.0562 72.6509 45.5933 73.3559L46.7684 74.9003C47.6748 76.1089 48.7827 77.1161 50.0249 77.9218L92.1247 104.847L96.2205 98.468L54.1207 71.5431C52.845 70.7373 51.4685 70.1666 49.9913 69.8644L48.1113 69.4615C48.0106 69.4615 47.8763 69.4279 47.7755 69.4279H47.7419Z" fill="#20564C"/>
<path d="M96.2533 103.177C97.582 101.1 97.9499 98.9621 97.0752 98.4027C96.2004 97.8433 94.4142 99.0739 93.0856 101.151C91.757 103.229 91.3891 105.367 92.2638 105.926C93.1386 106.485 94.9247 105.255 96.2533 103.177Z" fill="#25A088"/>
<path d="M92.7961 106.593C92.4939 106.593 92.1918 106.525 91.9233 106.358C90.5132 105.451 91.151 102.799 92.5275 100.65C93.904 98.5016 96.0191 96.7895 97.4627 97.696C98.8728 98.6024 98.2349 101.255 96.8584 103.403C95.7505 105.149 94.139 106.593 92.7961 106.593ZM93.7025 101.389C92.3596 103.504 92.3932 105.048 92.6954 105.25C92.9975 105.451 94.4076 104.813 95.7505 102.698C97.0934 100.583 97.0598 99.0388 96.7577 98.8374C96.4555 98.636 95.0454 99.2739 93.7025 101.389Z" fill="#20564C"/>
<path d="M74.197 85.9792C74.197 85.9792 74.197 85.9792 74.2305 85.9456C75.4391 84.5356 77.4871 84.267 79.065 85.2406L94.6091 95.178C93.199 96.2859 91.7553 97.8974 90.446 99.8446L74.7341 89.8064C73.4248 88.9671 73.1898 87.1879 74.197 86.0128V85.9792Z" fill="#66CCB9"/>
<path d="M90.4461 100.516C90.3118 100.516 90.2111 100.483 90.0769 100.415L74.3649 90.3772C73.5928 89.8737 73.0556 89.0679 72.9213 88.1614C72.787 87.2214 73.0556 86.2813 73.6599 85.5763H73.6935C75.1035 83.8977 77.5543 83.5283 79.4008 84.7034L94.9449 94.6408C95.1127 94.7416 95.247 94.943 95.247 95.178C95.247 95.3795 95.1798 95.6145 94.9784 95.7488C93.5683 96.8567 92.1919 98.401 90.9833 100.248C90.849 100.449 90.6476 100.55 90.4126 100.55L90.4461 100.516ZM74.7007 86.4156C74.3314 86.8185 74.1971 87.3892 74.2642 87.9264C74.3314 88.4635 74.6335 88.9336 75.1035 89.2022L90.2782 98.9046C91.2854 97.4946 92.3598 96.2524 93.5012 95.2453L78.7294 85.8114C77.4536 85.0056 75.7414 85.2405 74.7678 86.382H74.7342L74.7007 86.4156Z" fill="#20564C"/>
<path d="M53.08 94.8085C50.5285 87.2547 45.2912 81.2453 46.8691 78.3916C48.212 75.9409 54.1543 78.0223 57.1759 81.7153C59.3245 84.3675 61.1374 87.3891 61.8424 88.967" fill="#DDDCFC"/>
<path d="M53.08 95.4802C52.8114 95.4802 52.5429 95.3123 52.4422 95.0102C51.435 92.0222 49.9913 89.3029 48.7156 86.8521C46.7348 83.0585 45.157 80.0704 46.2649 78.0225C46.7013 77.2168 47.5406 76.7467 48.6485 76.646C51.3343 76.411 55.3966 78.4926 57.6795 81.2791C59.761 83.8306 61.641 86.9193 62.4468 88.665C62.6146 89.0007 62.4468 89.4036 62.111 89.5379C61.7753 89.7058 61.3724 89.5379 61.2381 89.2022C60.6338 87.8593 58.8881 84.8377 56.6723 82.0848C54.4565 79.399 50.8307 77.754 48.8163 77.9555C48.1785 78.0226 47.7085 78.2575 47.507 78.6603C46.7349 80.0368 48.2456 82.8905 49.9578 86.2141C51.2336 88.6649 52.7107 91.4851 53.7515 94.5402C53.8857 94.8759 53.6843 95.2788 53.3486 95.3795C53.2815 95.3795 53.2144 95.4131 53.1472 95.4131L53.08 95.4802Z" fill="#7481BA"/>
<path d="M57.1423 81.7155C54.4565 77.7875 48.212 75.9746 46.8691 78.3918C45.7612 80.4062 47.8092 84.1328 50.2936 88.6986C51.9722 85.2407 54.5908 83.0584 57.1423 81.7155Z" fill="#3F3E77"/>
<path d="M50.2935 89.3698C50.0585 89.3698 49.8235 89.2356 49.6892 89.0341L49.5549 88.7991C47.0034 84.0989 44.9891 80.406 46.2648 78.0895C46.7348 77.2166 47.7084 76.7129 49.0178 76.6458C51.6028 76.5115 55.5644 78.2572 57.6795 81.3459C57.8809 81.6481 57.8137 82.0846 57.5116 82.286C57.2094 82.4875 56.773 82.4203 56.5715 82.1182C54.7251 79.4324 51.2335 77.8879 49.0513 77.9887C48.4805 77.9887 47.742 78.1566 47.4399 78.7609C46.5334 80.4396 48.4805 84.0318 50.7299 88.1948L50.8642 88.4297C51.0321 88.7654 50.9314 89.1684 50.5956 89.3362C50.4949 89.4034 50.3942 89.4033 50.2599 89.4033L50.2935 89.3698Z" fill="#191935"/>
<path d="M166.253 98.5688C214.395 147.517 215.201 203.785 215.201 203.785C169.711 212.547 122.138 201.871 122.138 201.871C121.064 163.196 147.553 136.841 138.958 99.4082" fill="#DDDCFC"/>
<path d="M185.221 207.075C150.977 208.351 122.138 201.871 122.138 201.871C121.601 169.306 137.011 152.184 140.637 119.182C166.689 137.714 183.173 184.011 185.187 207.075H185.221Z" fill="#8B8BD1"/>
<path d="M122.138 201.871C121.601 180.653 130.296 159.167 130.296 159.167C161.855 171.992 170.684 207.176 170.684 207.176C143.188 206.605 122.138 201.871 122.138 201.871Z" fill="#5B56A4"/>
<path d="M122.138 202.543C121.769 202.543 121.467 202.24 121.467 201.905C120.997 184.38 126.1 169.373 131.069 154.836C137.179 136.909 142.987 119.988 138.287 99.5761C138.22 99.2068 138.421 98.8711 138.79 98.7704C139.16 98.7032 139.495 98.9047 139.596 99.2739C144.363 120.055 138.522 137.177 132.344 155.273C127.409 169.675 122.34 184.581 122.81 201.871C122.81 202.24 122.541 202.543 122.172 202.576L122.138 202.543Z" fill="#191935"/>
<path d="M215.201 204.456C214.832 204.456 214.53 204.154 214.53 203.785C214.53 203.65 214.261 189.55 208.117 169.675C202.477 151.345 190.525 124.218 165.749 99.0388C165.48 98.7702 165.48 98.3338 165.749 98.0988C166.018 97.8303 166.454 97.8303 166.689 98.0988C191.667 123.48 203.686 150.841 209.393 169.339C215.57 189.382 215.839 203.65 215.839 203.785C215.839 204.154 215.537 204.456 215.168 204.456H215.201Z" fill="#7481BA"/>
<path d="M187.504 200.528C187.504 200.528 179.077 187.066 179.95 175.215L199.859 175.315C208.856 175.987 208.319 179.781 209.83 182.433C213.422 188.778 192.64 206.37 187.504 200.495V200.528Z" fill="#DDDCFC"/>
<path d="M209.83 183.138C209.561 183.138 209.326 183.003 209.225 182.735C209.024 182.265 208.822 181.795 208.654 181.325C207.782 178.874 206.976 176.524 199.825 176.02C199.456 176.02 199.187 175.685 199.221 175.315C199.221 174.946 199.556 174.678 199.926 174.711C207.345 175.248 208.822 177.733 209.93 180.922C210.098 181.392 210.232 181.828 210.434 182.231C210.602 182.567 210.434 182.97 210.098 183.138C209.997 183.171 209.897 183.205 209.83 183.205V183.138Z" fill="#7481BA"/>
<path d="M204.693 192.034C206.372 193.579 208.151 194.385 209.93 194.888C214.429 196.164 217.92 196.097 218.827 194.754C219.7 193.445 218.458 190.02 215.1 187.402C215.1 187.402 210.535 183.608 209.494 182.03" fill="#DDDCFC"/>
<path d="M215.503 196.466C213.925 196.466 211.945 196.164 209.729 195.526C207.547 194.922 205.801 193.948 204.223 192.538C203.954 192.303 203.921 191.867 204.189 191.598C204.424 191.33 204.861 191.296 205.129 191.565C206.539 192.84 208.117 193.713 210.065 194.25C214.832 195.593 217.618 195.257 218.223 194.385C218.793 193.545 217.853 190.457 214.63 187.905C214.429 187.737 209.964 184.011 208.89 182.366C208.688 182.064 208.789 181.627 209.091 181.426C209.393 181.224 209.83 181.325 210.031 181.627C210.837 182.869 214.261 185.824 215.503 186.864C218.424 189.147 220.741 193.109 219.364 195.123C218.76 196.03 217.417 196.466 215.503 196.466Z" fill="#7481BA"/>
<path d="M218.793 194.754C217.887 196.097 214.362 196.332 209.897 194.888C213.59 192.404 215.067 187.402 215.067 187.402C218.424 190.02 219.666 193.478 218.793 194.754Z" fill="#3F3E77"/>
<path d="M215.369 196.533C213.758 196.533 211.81 196.197 209.695 195.492C209.36 195.392 209.158 194.989 209.259 194.653C209.36 194.284 209.762 194.116 210.098 194.217C214.731 195.727 217.652 195.19 218.223 194.351C218.793 193.512 217.853 190.423 214.63 187.872C214.328 187.637 214.295 187.234 214.53 186.931C214.765 186.629 215.168 186.596 215.47 186.831C218.391 189.114 220.707 193.109 219.331 195.09C218.693 196.03 217.249 196.5 215.335 196.5L215.369 196.533Z" fill="#191935"/>
<path d="M199.691 197.305C201.101 199.387 203.451 202.14 205.7 203.415C209.561 205.598 213.086 206.706 214.227 205.665C215.335 204.658 214.63 200.864 212.146 197.675C212.146 197.675 206.875 192.169 205.7 188.106" fill="#DDDCFC"/>
<path d="M212.885 206.706C210.501 206.706 207.009 204.926 205.364 203.986C202.511 202.375 199.892 198.749 199.153 197.674C198.952 197.372 199.019 196.936 199.321 196.734C199.623 196.533 200.06 196.6 200.261 196.902C200.966 197.91 203.451 201.334 206.036 202.811C210.199 205.161 213.086 205.766 213.791 205.161C214.463 204.557 214.026 201.166 211.642 198.111C211.206 197.641 206.237 192.37 205.062 188.308C204.962 187.938 205.163 187.569 205.532 187.468C205.902 187.368 206.271 187.569 206.372 187.938C207.479 191.799 212.582 197.171 212.65 197.204C212.65 197.204 212.65 197.205 212.683 197.238C215.268 200.528 216.208 204.758 214.698 206.135C214.261 206.538 213.623 206.706 212.918 206.706H212.885Z" fill="#7481BA"/>
<path d="M214.227 205.665C213.086 206.706 209.46 205.766 205.7 203.415C208.688 201.603 212.146 197.675 212.146 197.675C214.63 200.864 215.335 204.658 214.227 205.665Z" fill="#3F3E77"/>
<path d="M212.75 206.739C210.702 206.739 207.815 205.53 205.331 203.953C205.029 203.751 204.928 203.348 205.129 203.013C205.331 202.71 205.734 202.61 206.069 202.811C210.031 205.296 213.12 205.732 213.791 205.128C214.463 204.523 214.026 201.099 211.642 198.044C211.407 197.742 211.475 197.339 211.743 197.104C212.045 196.869 212.448 196.936 212.683 197.204C215.268 200.495 216.208 204.725 214.698 206.101C214.228 206.504 213.59 206.706 212.784 206.706L212.75 206.739Z" fill="#191935"/>
<path d="M194.386 200.159C195.561 201.838 199.187 205.766 202.41 207.075C206.506 208.753 210.132 209.425 211.139 208.25C212.112 207.142 210.937 203.416 208.084 200.595C208.084 200.595 203.35 196.03 202.209 193.713" fill="#DDDCFC"/>
<path d="M209.225 209.526C206.875 209.526 203.753 208.351 202.141 207.713C198.717 206.303 194.99 202.207 193.849 200.562C193.648 200.26 193.715 199.823 194.017 199.622C194.319 199.42 194.756 199.488 194.957 199.79C196.166 201.502 199.691 205.262 202.679 206.471C207.11 208.283 210.031 208.552 210.669 207.813C211.273 207.108 210.4 203.785 207.647 201.065C207.446 200.898 202.813 196.399 201.638 194.015C201.47 193.679 201.638 193.277 201.94 193.109C202.276 192.941 202.679 193.109 202.846 193.411C203.921 195.593 208.554 200.058 208.587 200.092C211.542 203.046 213.019 207.142 211.676 208.686C211.172 209.291 210.3 209.492 209.259 209.492L209.225 209.526Z" fill="#7481BA"/>
<path d="M211.139 208.25C210.132 209.425 206.439 208.921 202.41 207.075C206.137 204.557 208.084 200.595 208.084 200.595C210.971 203.449 212.112 207.142 211.139 208.25Z" fill="#3F3E77"/>
<path d="M209.057 209.559C207.077 209.559 204.458 208.754 202.108 207.679C201.772 207.511 201.638 207.108 201.772 206.773C201.94 206.437 202.309 206.303 202.679 206.437C206.942 208.384 210.031 208.485 210.635 207.78C211.24 207.075 210.367 203.751 207.614 201.032C207.345 200.763 207.345 200.36 207.614 200.092C207.882 199.823 208.285 199.823 208.554 200.092C211.508 203.046 212.985 207.108 211.642 208.686C211.105 209.291 210.199 209.559 209.057 209.559Z" fill="#191935"/>
<path d="M187.504 200.528C188.477 202.341 191.6 206.706 194.588 208.384C198.448 210.567 201.974 211.674 203.115 210.634C204.223 209.626 203.518 205.833 201.034 202.643C201.034 202.643 196.535 196.936 195.662 195.358" fill="#DDDCFC"/>
<path d="M201.772 211.708C199.389 211.708 195.897 209.928 194.252 208.988C191.029 207.176 187.84 202.643 186.9 200.864C186.732 200.528 186.832 200.125 187.168 199.958C187.504 199.79 187.907 199.89 188.075 200.226C189.082 202.106 192.103 206.236 194.923 207.813C199.086 210.164 201.974 210.768 202.679 210.13C203.35 209.526 202.914 206.101 200.53 203.046C200.362 202.811 195.964 197.272 195.091 195.694C194.923 195.358 195.024 194.955 195.36 194.787C195.696 194.62 196.098 194.72 196.266 195.056C197.072 196.567 201.537 202.173 201.571 202.24C204.156 205.53 205.096 209.761 203.585 211.137C203.149 211.54 202.511 211.708 201.806 211.708H201.772Z" fill="#7481BA"/>
<path d="M203.115 210.634C201.974 211.674 198.348 210.734 194.588 208.384C198.616 207.008 201.034 202.643 201.034 202.643C203.518 205.833 204.223 209.626 203.115 210.634Z" fill="#3F3E77"/>
<path d="M201.671 211.742C199.623 211.742 196.736 210.533 194.252 208.955C193.95 208.753 193.849 208.351 194.05 208.015C194.252 207.679 194.655 207.612 194.991 207.813C198.952 210.298 202.041 210.734 202.712 210.13C203.384 209.526 202.947 206.101 200.564 203.046C200.329 202.744 200.396 202.341 200.664 202.106C200.966 201.871 201.369 201.938 201.604 202.207C204.189 205.497 205.129 209.727 203.619 211.104C203.149 211.506 202.511 211.708 201.705 211.708L201.671 211.742Z" fill="#191935"/>
<path d="M187.504 201.2C187.269 201.2 187.068 201.099 186.933 200.898C186.833 200.763 184.785 197.44 182.77 192.572C180.924 188.073 178.809 181.426 179.279 175.181C179.279 174.812 179.614 174.543 179.984 174.577C180.353 174.577 180.622 174.913 180.588 175.282C179.749 186.764 187.974 200.058 188.041 200.192C188.242 200.495 188.142 200.931 187.84 201.133C187.739 201.2 187.605 201.233 187.47 201.233L187.504 201.2Z" fill="#7481BA"/>
<path d="M203.786 182.466C202.175 179.579 198.717 179.68 195.998 181.258C196.468 183.574 196.77 187.502 194.487 191.027C198.683 193.176 206.808 187.804 203.786 182.466Z" fill="#F7F5FE"/>
<path d="M194.722 191.43C194.621 191.43 194.52 191.43 194.42 191.363C194.084 191.195 193.95 190.792 194.118 190.456C194.118 190.423 196.199 186.159 194.991 181.09C194.89 180.72 195.125 180.351 195.494 180.284C195.863 180.183 196.233 180.418 196.3 180.788C197.643 186.327 195.427 190.859 195.326 191.061C195.192 191.296 194.957 191.43 194.722 191.43Z" fill="#7481BA"/>
<path d="M174.981 110.084C174.981 110.084 236.956 106.358 241.119 138.621C245.45 172.092 202.847 176.893 202.847 176.893L179.917 175.215C180.017 168.097 182.065 161.786 194.286 151.983C188.511 151.714 183.71 151.143 183.71 151.143" fill="#DDDCFC"/>
<path d="M204.424 176.759C204.424 176.759 245.954 161.148 234.371 125.024C250.452 145.167 238.568 172.663 204.424 176.759Z" fill="#9597CF"/>
<path d="M179.95 175.92C179.581 175.92 179.279 175.584 179.312 175.215C179.447 170.582 180.353 167.124 182.367 163.666C184.382 160.174 187.638 156.649 192.506 152.62C187.034 152.453 183.811 151.848 183.643 151.815C183.274 151.748 183.039 151.378 183.106 151.042C183.173 150.673 183.542 150.438 183.878 150.505C183.912 150.505 187.873 151.244 194.319 151.345C194.588 151.345 194.856 151.546 194.957 151.815C195.058 152.083 194.957 152.385 194.722 152.553C183.14 161.752 180.823 167.627 180.588 175.282C180.588 175.651 180.286 175.92 179.917 175.92H179.95Z" fill="#7481BA"/>
<path d="M204.424 177.431C204.089 177.431 203.787 177.162 203.753 176.826C203.719 176.457 203.988 176.121 204.357 176.088C205.197 175.987 224.702 173.838 234.908 160.913C239.709 154.836 241.589 147.35 240.481 138.688C239.541 131.537 235.58 125.595 228.697 121.096C223.124 117.437 215.604 114.684 206.405 112.904C190.66 109.849 175.183 110.722 175.049 110.756C174.679 110.756 174.344 110.487 174.344 110.118C174.344 109.749 174.612 109.446 174.981 109.413C175.149 109.413 190.727 108.506 206.64 111.595C216.04 113.408 223.695 116.228 229.436 119.988C236.688 124.722 240.851 130.966 241.824 138.554C242.999 147.585 241.018 155.407 235.982 161.786C225.407 175.148 205.364 177.363 204.492 177.464C204.492 177.464 204.458 177.464 204.424 177.464V177.431Z" fill="#7481BA"/>
<path d="M204.424 177.43C204.089 177.43 203.786 177.162 203.753 176.826C203.719 176.457 203.988 176.121 204.357 176.087C205.197 175.987 224.702 173.838 234.908 160.913C239.709 154.836 241.589 147.35 240.481 138.688C239.843 133.853 237.829 129.59 234.505 125.93C234.27 125.662 234.27 125.225 234.539 124.99C234.807 124.755 235.244 124.755 235.479 125.024C239.004 128.851 241.153 133.417 241.79 138.52C242.965 147.551 240.985 155.373 235.949 161.752C225.374 175.114 205.331 177.33 204.458 177.43C204.458 177.43 204.424 177.43 204.391 177.43H204.424Z" fill="#191935"/>
<path d="M239.743 149.129C240.783 160.006 236.755 166.788 236.755 166.788C236.755 166.788 236.285 162.994 235.21 158.898" fill="#9597CF"/>
<path d="M236.788 167.459C236.755 167.459 236.688 167.459 236.654 167.459C236.385 167.392 236.15 167.157 236.117 166.889C236.117 166.855 235.613 163.061 234.572 159.1C234.472 158.731 234.707 158.361 235.042 158.294C235.412 158.193 235.781 158.428 235.848 158.764C236.419 160.913 236.822 163.028 237.057 164.539C238.131 161.819 239.743 156.414 239.038 149.23C239.004 148.86 239.273 148.525 239.642 148.491C240.011 148.457 240.347 148.726 240.381 149.095C241.455 160.074 237.493 166.889 237.325 167.157C237.191 167.359 236.99 167.493 236.755 167.493L236.788 167.459Z" fill="#191935"/>
<path d="M197.374 133.585C178.003 121.465 168.905 119.451 135.702 104.142L166.152 96.2859C182.334 107.331 186.564 122.137 197.374 133.618V133.585Z" fill="#8588D1"/>
<path d="M146.881 101.087C158.8 108.674 173.068 112.569 188.175 120.928C192.909 127.441 197.374 133.618 197.374 133.618C178.003 121.499 168.905 119.484 135.702 104.175L146.881 101.12V101.087Z" fill="#49488A"/>
<path d="M197.374 134.256C197.24 134.256 197.139 134.256 197.005 134.156C192.909 131.604 171.859 118.679 161.082 116.027C160.713 115.926 160.512 115.59 160.579 115.221C160.646 114.852 161.015 114.65 161.385 114.717C170.449 116.933 186.53 126.233 194.151 130.866C190.996 126.938 188.645 123.278 186.362 119.72C181.528 112.233 176.962 105.149 165.615 96.3532C165.313 96.1181 165.279 95.7153 165.48 95.4132C165.682 95.111 166.118 95.0773 166.42 95.2788C177.969 104.243 182.569 111.394 187.47 118.981C190.324 123.412 193.278 128.012 197.811 133.115C198.046 133.35 198.046 133.753 197.811 133.988C197.676 134.156 197.475 134.223 197.307 134.223L197.374 134.256Z" fill="#191935"/>
<g opacity="0.2">
<path d="M149.433 51.0639C152.991 53.2462 153.898 56.3683 153.898 56.3683C149.399 60.6992 140.2 64.9629 140.2 64.9629C134.527 59.4906 135.165 58.9871 135.165 58.9871C140.57 53.8505 144.565 51.7018 146.613 50.8961C147.553 50.5268 148.593 50.5604 149.433 51.0976V51.0639Z" fill="#DEF5FF"/>
</g>
<path d="M140.2 65.6343C140.033 65.6343 139.865 65.5671 139.73 65.4328C134.426 60.2962 134.46 59.3562 134.46 59.0205C134.46 58.819 134.56 58.6177 134.695 58.4834C140.234 53.2126 144.363 51.0639 146.344 50.2582C147.486 49.7882 148.761 49.8888 149.769 50.4931C153.495 52.776 154.469 56.0325 154.536 56.1668C154.603 56.4018 154.536 56.6704 154.368 56.8383C149.836 61.2027 140.872 65.3992 140.503 65.5671C140.402 65.6007 140.301 65.6343 140.234 65.6343H140.2ZM135.903 59.1883C136.138 59.6583 137.045 60.9342 140.335 64.1235C142.114 63.2507 149.198 59.7256 153.126 56.1334C152.756 55.2941 151.682 53.179 149.097 51.6011C148.459 51.1982 147.62 51.1311 146.881 51.4332C145.035 52.2054 141.14 54.2197 135.903 59.1549V59.1883ZM135.635 59.457C135.635 59.457 135.635 59.457 135.601 59.4906C135.601 59.4906 135.601 59.4906 135.635 59.457Z" fill="#191935"/>
<path d="M151.145 109.547C151.145 109.547 139.999 109.245 131.438 101.792C118.11 90.2094 113.577 65.3322 77.3528 43.4766C60.8352 33.5056 48.6485 34.647 48.7827 31.659C48.9842 27.1939 66.8783 27.4289 96.6906 33.707C126.503 39.985 157.524 59.7928 163.365 71.6774C169.207 83.562 169.442 99.1396 169.442 99.1396" fill="#8588D1"/>
<path d="M70.1012 40.2871L68.0533 36.1578C108.374 44.2488 124.186 93.3988 124.186 93.3988C100.484 52.6419 76.9836 42.9729 70.1012 40.2871Z" fill="#49488A"/>
<path d="M73.257 41.5628C58.2166 35.3183 48.6484 34.4119 48.7827 31.659C48.8835 29.2753 54.02 28.2347 63.286 28.7383C68.0533 31.9612 71.5113 37.9034 73.2906 41.5628H73.257Z" fill="#49488A"/>
<path d="M164.91 77.1832C164.641 77.1832 164.406 77.0154 164.272 76.7468C161.552 69.8981 154.435 62.5793 143.658 55.5626C134.359 49.486 122.34 43.6445 109.817 39.1793C84.1679 29.9805 53.3821 28.8389 49.1184 32.1962C48.8163 32.4312 48.4134 32.3641 48.1784 32.0955C47.9434 31.7934 48.0105 31.3904 48.2791 31.1554C53.3821 27.1603 85.2759 28.9733 110.254 37.9371C122.843 42.4694 134.963 48.3445 144.363 54.4882C155.509 61.7734 162.627 69.1258 165.48 76.3103C165.615 76.646 165.48 77.0489 165.111 77.1832C165.044 77.1832 164.943 77.2168 164.876 77.2168L164.91 77.1832Z" fill="#DCE5EA"/>
<path d="M150.742 110.219C148.728 110.219 139.865 109.749 130.968 102.296C126.234 98.3004 122.608 92.6602 118.412 86.1472C110.455 73.7254 100.518 58.282 76.9835 44.0808C67.449 38.34 59.5594 36.3592 54.3221 35.0499C50.2599 34.0427 48.0105 33.472 48.1112 31.659C48.1112 31.1555 48.3462 30.417 49.1855 29.7791C53.3821 26.5226 71.6455 27.7983 96.8584 33.1028C126.704 39.4144 157.994 59.222 164.003 71.4424C169.845 83.327 170.147 99.039 170.147 99.2068C170.147 99.5761 169.845 99.8783 169.476 99.8783C169.106 99.8783 168.804 99.5761 168.804 99.2068C168.804 99.039 168.502 83.6292 162.795 72.0132C159.941 66.2051 150.944 58.4499 138.723 51.1983C125.294 43.2752 110.354 37.2992 96.5898 34.3784C84.0673 31.7262 73.0219 30.0476 64.696 29.4768C54.3221 28.7718 51.0656 30.0141 50.0249 30.7863C49.6891 31.0549 49.4877 31.3569 49.4877 31.659C49.4877 32.3641 51.8713 32.9684 54.6914 33.6734C59.6937 34.9156 68.0197 37.0308 77.7221 42.8724C101.559 57.2414 111.563 72.8524 119.587 85.3749C123.716 91.8208 127.275 97.3603 131.874 101.221C136.81 105.384 141.778 107.231 145.068 108.036C148.661 108.909 151.078 108.809 151.111 108.809C151.481 108.809 151.783 109.077 151.816 109.446C151.816 109.816 151.548 110.118 151.179 110.151C151.145 110.151 150.977 110.151 150.776 110.151L150.742 110.219Z" fill="#191935"/>
<path d="M165.111 83.495C165.111 83.495 178.708 86.0465 180.655 88.3294C181.259 89.0344 181.024 94.6074 178.674 97.8303C176.224 101.221 171.591 102.262 170.483 101.624C168.569 100.583 166.185 96.4874 166.185 96.4874" fill="#D2D2FB"/>
<path d="M178.54 89.4372C178.439 89.4372 178.339 89.4373 178.271 89.3701C178.238 89.3701 173.672 87.2886 165.783 85.5093C165.413 85.4422 165.178 85.0727 165.279 84.7034C165.346 84.3341 165.715 84.0991 166.085 84.1998C174.108 86.0128 178.674 88.0607 178.842 88.1279C179.178 88.2957 179.312 88.6651 179.178 89.0008C179.077 89.2358 178.809 89.4036 178.574 89.4036L178.54 89.4372Z" fill="white"/>
<path d="M171.423 102.463C170.885 102.463 170.449 102.396 170.18 102.228C168.133 101.12 165.715 97.0245 165.615 96.8567C165.413 96.5209 165.548 96.118 165.85 95.9501C166.185 95.7487 166.588 95.8831 166.756 96.1852C167.394 97.2931 169.375 100.281 170.818 101.053C171.624 101.49 175.888 100.583 178.137 97.4275C180.286 94.4731 180.487 89.4707 180.118 88.7321C178.775 87.2213 170.147 85.1064 164.977 84.1663C164.607 84.0992 164.373 83.7634 164.44 83.3941C164.507 83.0248 164.876 82.7897 165.212 82.8569C166.622 83.1255 179.111 85.5091 181.125 87.8928C182.032 88.9671 181.595 94.9095 179.178 98.2332C177.063 101.154 173.471 102.463 171.356 102.463H171.423Z" fill="#49488A"/>
<path d="M171.993 87.8928C177.264 88.4971 178.104 92.7608 178.104 92.7608C176.526 91.9551 174.847 91.7537 174.847 91.7537C175.418 94.1373 174.579 96.521 174.579 96.521C174.579 96.521 173.336 95.2789 172.698 94.406C172.698 94.406 171.591 95.1445 170.449 95.6145C170.449 95.6145 167.931 90.713 167.495 89.0008C167.495 89.0008 169.744 87.6243 171.993 87.8928Z" fill="#6A6DB8"/>
<path d="M180.924 90.8136C180.789 90.8136 180.689 90.8137 180.588 90.713C173.806 86.6171 166.555 89.5043 166.488 89.5043C166.152 89.6386 165.749 89.5043 165.615 89.135C165.48 88.7993 165.615 88.3964 165.984 88.2621C166.32 88.1278 173.907 85.1064 181.293 89.5379C181.595 89.7394 181.696 90.1421 181.528 90.4443C181.394 90.6457 181.192 90.78 180.957 90.78L180.924 90.8136Z" fill="#49488A"/>
<path d="M158.43 61.1356H158.363C157.994 61.102 157.725 60.7662 157.759 60.3969C157.893 59.1212 157.49 58.6513 157.02 58.1477C156.953 58.0805 156.886 58.0134 156.819 57.9462C156.181 57.2076 155.375 56.9726 153.932 57.0397C153.562 57.0397 153.26 56.7712 153.227 56.4019C153.227 56.0326 153.495 55.7304 153.864 55.6968C155.174 55.6297 156.651 55.6968 157.826 57.0397C157.893 57.1068 157.927 57.174 157.994 57.2076C158.564 57.8119 159.303 58.6176 159.102 60.5312C159.068 60.8669 158.766 61.1356 158.43 61.1356Z" fill="#191935"/>
<path d="M169.006 56.5697C168.67 56.5697 168.368 56.3012 168.334 55.9655C168.166 53.5483 167.26 51.9031 165.85 51.3324C164.742 50.896 163.399 51.1982 162.425 52.0711C162.157 52.3061 161.72 52.306 161.485 52.0375C161.25 51.7689 161.25 51.3325 161.519 51.0975C162.895 49.8553 164.742 49.4525 166.353 50.0903C167.461 50.5268 169.375 51.8696 169.677 55.8647C169.677 56.234 169.442 56.5697 169.073 56.5697C169.073 56.5697 169.039 56.5697 169.006 56.5697Z" fill="#191935"/>
<path d="M157.826 46.4644C157.591 46.4644 157.356 46.3301 157.222 46.0951C156.752 45.2222 156.147 44.6851 155.375 44.4501C153.663 43.98 151.682 45.1887 151.649 45.1887C151.346 45.3902 150.91 45.2894 150.709 44.9873C150.507 44.6851 150.608 44.2487 150.91 44.0473C151.011 43.9801 153.394 42.5365 155.677 43.1408C156.819 43.4765 157.725 44.2486 158.363 45.4572C158.531 45.793 158.397 46.1959 158.061 46.3638C157.96 46.4309 157.859 46.4308 157.759 46.4308L157.826 46.4644Z" fill="#191935"/>
<path d="M61.5737 33.6732C59.4587 33.4718 58.1158 32.4982 57.0079 31.8603C56.3701 31.491 55.7657 32.4311 56.7729 32.9347C58.9551 34.0426 61.6073 33.6732 61.6073 33.6732H61.5737Z" fill="black"/>
<path d="M60.5331 34.412C59.4923 34.412 57.8808 34.2777 56.4372 33.5391C55.9 33.2705 55.5643 32.8006 55.5307 32.297C55.5307 31.8606 55.7321 31.4912 56.1014 31.2562C56.4707 31.0212 56.9408 31.0212 57.3101 31.2562C57.4779 31.357 57.6458 31.4576 57.8137 31.5584C58.8208 32.1627 59.9288 32.834 61.6074 33.0019C61.9431 33.0019 62.2117 33.3041 62.2117 33.6734C62.2117 34.0091 61.9766 34.3112 61.6409 34.3448C61.6073 34.3448 61.1709 34.412 60.4995 34.412H60.5331Z" fill="black"/>
<path d="M157.49 70.3008C154.2 67.85 148.56 77.754 153.898 79.9698C159.236 82.1856 160.982 72.9195 157.49 70.3008Z" fill="#1A1A21"/>
<path d="M156.382 81.5476C156.349 81.5476 156.315 81.5476 156.248 81.5476C156.013 81.4805 150.876 80.1712 148.996 74.9339C148.896 74.6654 149.03 74.3967 149.299 74.2959C149.567 74.1952 149.836 74.3296 149.936 74.5982C151.615 79.2984 156.416 80.5405 156.483 80.574C156.752 80.6412 156.919 80.9097 156.852 81.1783C156.785 81.4133 156.584 81.5476 156.349 81.5476H156.382Z" fill="#191935"/>
<path d="M156.651 72.2146C155.543 71.8453 155.039 75.8069 156.282 76.2769C157.524 76.7469 157.927 72.6174 156.651 72.2146Z" fill="white"/>
<path d="M133.654 94.3388C130.196 94.3388 126.033 93.4323 121.433 90.5786C121.131 90.3772 121.031 89.9744 121.232 89.6387C121.433 89.3365 121.836 89.2358 122.172 89.4372C134.124 96.8567 142.517 90.6123 142.886 90.3773C143.188 90.1423 143.591 90.2094 143.826 90.5116C144.061 90.8137 143.994 91.2165 143.692 91.4515C143.625 91.4851 139.764 94.3724 133.654 94.3724V94.3388Z" fill="#191935"/>
<path d="M145.908 93.8015C145.84 93.8015 145.74 93.8014 145.673 93.7679C144.263 93.1971 141.644 91.2164 141.778 87.7248C141.778 87.3555 142.114 87.0534 142.483 87.087C142.853 87.087 143.155 87.4228 143.121 87.792C142.987 91.2164 146.076 92.4923 146.176 92.5594C146.512 92.6937 146.68 93.0964 146.546 93.4321C146.445 93.7007 146.176 93.8351 145.941 93.8351L145.908 93.8015Z" fill="#191935"/>
<g opacity="0.2">
<path d="M158.43 60.4642C163.936 64.6272 166.152 70.7709 167.058 74.6989C167.562 76.9482 166.756 79.2983 164.943 80.7755C162.56 82.6891 159.773 84.6027 157.524 86.0799C154.972 87.7585 151.548 87.2885 149.601 84.9385C147.116 81.9169 145.572 78.3583 144.699 75.706C143.927 73.3896 144.632 70.8381 146.445 69.2266C153.159 63.3515 158.43 60.4978 158.43 60.4978V60.4642Z" fill="#DEF5FF"/>
</g>
<path d="M154.166 87.7586C152.253 87.7586 150.373 86.9192 149.063 85.3749C146.478 82.2191 144.901 78.4927 144.028 75.9076C143.155 73.3225 143.927 70.5025 145.975 68.7231C152.656 62.8479 157.893 60.0278 158.094 59.8935C158.329 59.7592 158.598 59.7928 158.833 59.9607C164.372 64.1572 166.723 70.2339 167.696 74.5983C168.267 77.0827 167.327 79.7347 165.346 81.3462C162.862 83.327 159.907 85.3415 157.893 86.6844C156.752 87.4565 155.442 87.7922 154.166 87.7922V87.7586ZM158.363 61.27C157.054 62.0421 152.421 64.8287 146.848 69.7303C145.203 71.1739 144.598 73.4232 145.27 75.5047C146.109 77.989 147.586 81.5477 150.071 84.5356C151.783 86.6171 154.838 87.0535 157.121 85.5428C159.135 84.2334 162.022 82.2192 164.473 80.272C166.085 78.9963 166.823 76.8812 166.353 74.9004C165.447 70.8382 163.298 65.2651 158.329 61.3036L158.363 61.27Z" fill="#191935"/>
</svg>
