<svg width="256" height="256" viewBox="0 0 256 256" fill="none" xmlns="http://www.w3.org/2000/svg">
<path d="M206.128 153.334C222.533 175.619 228.994 207.619 228.994 207.619C228.994 207.619 202.695 219.067 155.719 216.435C155.719 216.435 166.504 177.769 164.434 160.362" fill="#8588D1"/>
<path d="M206.242 213.727C198.49 199.319 186.595 179.828 173.045 166.822L165.078 165.044C164.902 167.752 164.616 170.589 164.258 173.492C162.465 192.224 155.714 216.435 155.714 216.435C176.959 217.627 193.975 215.939 206.242 213.731V213.727Z" fill="#DDDCFC"/>
<path d="M155.719 216.435C155.719 216.435 166.504 177.769 164.434 160.362" stroke="#7481BA" stroke-width="1.90708" stroke-linecap="round" stroke-linejoin="round"/>
<path d="M206.128 153.334C222.534 175.619 228.994 207.619 228.994 207.619" stroke="#191935" stroke-width="1.90708" stroke-linecap="round" stroke-linejoin="round"/>
<path opacity="0.16" d="M190.332 108.055C190.008 106.878 182.542 100.008 178.757 98.601C174.976 97.1946 163.657 111.197 163.791 112.899C163.934 114.692 171.777 122.563 172.702 123.05C173.626 123.536 191.296 111.555 190.332 108.055Z" fill="#DEF5FF"/>
<path d="M190.332 108.055C190.008 106.878 182.542 100.008 178.757 98.601C174.976 97.1946 163.657 111.197 163.791 112.899C163.934 114.692 171.777 122.563 172.702 123.05C173.626 123.536 191.296 111.555 190.332 108.055Z" stroke="black" stroke-width="1.90708" stroke-linecap="round" stroke-linejoin="round"/>
<path d="M158.05 147.46C154.174 153.372 142.808 162.207 143.166 166.555C153.593 171.852 163.371 165.039 173.088 152.285L158.05 147.46Z" fill="#894E71"/>
<path d="M158.05 147.46C154.174 153.372 145.097 159.394 143.166 166.555" stroke="#191935" stroke-width="1.90708" stroke-linecap="round" stroke-linejoin="round"/>
<path d="M206.752 182.136C206.752 182.136 218.276 163.747 215.411 150.421C212.636 137.525 206.252 130.082 195.167 118.84C157.302 80.441 103.413 48.6548 74.3964 41.1266C68.3319 39.5532 61.5999 42.5903 75.0687 54.1424C98.4685 74.2096 122.874 111.841 138.241 144.667C138.241 144.667 151.633 158.059 169.622 155.189C169.622 155.189 154.775 166.755 143.161 166.555C143.161 166.555 151.514 172.524 181.932 181.716C192.697 184.968 206.748 182.136 206.748 182.136H206.752Z" fill="#8588D1"/>
<path d="M92.3563 46.7192C96.7569 56.1068 94.416 63.9258 92.4469 69.4945C92.4469 69.4945 80.4228 58.1617 75.0782 53.5799C61.6047 42.0278 68.3462 37.8561 74.4107 39.4294C79.2976 40.6976 85.4146 44.2734 92.3611 46.7192H92.3563Z" fill="#49488A"/>
<path d="M199.444 124.809C155.485 74.9819 88.852 44.2684 75.3642 40.2445C75.3642 40.2445 68.0458 39.1575 67.0065 42.4376C80.4275 43.9395 111.06 57.2366 145.139 80.9749C164.93 94.7631 180.225 110.106 199.444 124.809Z" fill="#DCE5EA" stroke="#DCE5EA" stroke-width="1.90708" stroke-linecap="round" stroke-linejoin="round"/>
<path d="M159.033 162.412C165.011 166.803 175.157 168.076 175.109 178.751C144.691 169.559 143.409 167.07 143.409 167.07C145.917 166.879 155.199 164.233 159.033 162.412Z" fill="#49488A"/>
<path d="M99.6318 79.0441C135.127 101.486 141.673 140.314 154.141 154.254C145.297 150.96 138.88 144.366 138.88 144.366C127.866 116.9 103.436 84.5222 99.6318 79.0393V79.0441Z" fill="#49488A"/>
<path d="M206.509 181.621C206.509 181.621 217.222 164.891 215.673 152.176C214.243 140.442 205.87 129.162 194.919 118.325C156.844 80.6269 106.311 49.4843 77.71 40.6831C61.8908 35.8153 65.8289 46.2804 76.5324 55.0244C98.2922 72.8031 123.27 111.03 138.636 143.851C138.636 143.851 150.899 159.008 169.622 155.189C169.622 155.189 157.292 166.741 143.161 166.555C143.161 166.555 148.639 170.655 175.1 178.746" stroke="#191935" stroke-width="1.90708" stroke-linecap="round" stroke-linejoin="round"/>
<path d="M201.703 135.293C197.627 131.188 187.562 143.341 194.561 147.556C201.56 151.77 206.037 139.661 201.703 135.293Z" fill="#1A1A21"/>
<path d="M204.464 142.693C204.798 131.217 198.728 129.305 193.846 132.147" stroke="#191935" stroke-width="1.43031" stroke-linecap="round" stroke-linejoin="round"/>
<path d="M189.927 142.059C192.302 147.632 198.576 149.516 198.576 149.516" stroke="#191935" stroke-width="1.43031" stroke-linecap="round" stroke-linejoin="round"/>
<path d="M217.442 127.208C218.5 120.375 216.912 118.44 213.503 118.688" stroke="#191935" stroke-width="2.86062" stroke-linecap="round" stroke-linejoin="round"/>
<path d="M185.15 96.8229C187.748 96.6513 192.035 97.0517 192.149 101.405" stroke="#191935" stroke-width="2.86062" stroke-linecap="round" stroke-linejoin="round"/>
<path opacity="0.16" d="M200.621 117.229C212.116 123.751 215.735 136.671 216.803 142.407C217.127 144.161 216.588 145.94 215.353 147.112C211.573 150.688 204.259 156.281 201.022 158.526C198.123 160.538 194.213 160.176 191.572 157.635C184.778 151.098 181.841 143.389 180.587 138.378C179.801 135.246 180.716 131.97 182.962 129.858C192.645 120.776 200.626 117.229 200.626 117.229H200.621Z" fill="#DEF5FF"/>
<path d="M200.831 117.305C212.326 123.827 215.945 136.748 217.012 142.483C217.337 144.238 216.798 146.016 215.563 147.189C211.782 150.765 204.469 156.357 201.231 158.603C198.333 160.615 194.423 160.252 191.782 157.711C184.988 151.175 182.051 143.465 180.797 138.454C180.01 135.322 180.926 132.047 183.171 129.935C192.855 120.852 200.836 117.305 200.836 117.305H200.831Z" stroke="black" stroke-width="1.90708" stroke-linecap="round" stroke-linejoin="round"/>
<path d="M200.831 117.305C200.831 117.305 201.913 114.096 201.274 113.028C200.636 111.96 196.011 107.707 194.747 107.459C193.484 107.216 190.328 108.055 190.328 108.055" stroke="black" stroke-width="1.90708" stroke-linecap="round" stroke-linejoin="round"/>
<path d="M211.959 160.429C211.959 160.429 226.505 171.604 227.425 175.461C227.716 176.677 224.083 183.113 219.396 185.516C214.443 188.058 208.383 186.498 207.425 185.092C205.794 182.708 205.413 176.439 205.413 176.439" fill="#D2D2FB"/>
<path d="M212.111 162.517C220.555 169.497 224.703 174.713 224.703 174.713" stroke="white" stroke-width="1.90708" stroke-linecap="round" stroke-linejoin="round"/>
<path d="M211.959 160.429C211.959 160.429 226.505 171.604 227.425 175.461C227.716 176.677 224.083 183.113 219.396 185.516C214.443 188.058 208.383 186.498 207.425 185.092C205.794 182.708 205.413 176.439 205.413 176.439" stroke="#49488A" stroke-width="1.90708" stroke-linecap="round" stroke-linejoin="round"/>
<path d="M217.446 169.759C223.32 173.65 221.766 179.171 221.766 179.171C220.364 177.283 218.519 176.038 218.519 176.038C217.756 179.209 215.349 181.535 215.349 181.535C215.349 181.535 214.61 179.323 214.376 177.898C214.376 177.898 212.612 178.107 210.991 177.979C210.991 177.979 210.967 170.665 211.463 168.372C211.463 168.372 214.967 168.11 217.446 169.754V169.759Z" fill="#6A6DB8"/>
<path d="M210.052 167.48C210.052 167.48 220.808 168.353 226.677 177.769" stroke="#49488A" stroke-width="1.90708" stroke-linecap="round" stroke-linejoin="round"/>
<path d="M199.563 136.919C198.585 135.708 194.948 139.284 195.982 140.676C197.017 142.068 200.669 138.287 199.563 136.919Z" fill="white"/>
<path d="M80.4323 50.7097C77.3333 49.513 75.76 47.4915 74.3488 46.0612C73.5526 45.2507 72.2462 46.3902 73.5287 47.5725C76.3083 50.1233 80.4323 50.7097 80.4323 50.7097Z" fill="black" stroke="black" stroke-width="1.90708" stroke-linecap="round" stroke-linejoin="round"/>
<path d="M140.543 217.164C134.126 204.978 129.239 191.538 124.343 182.756C111.284 159.337 88.914 171.49 87.746 183.609C87.3884 187.304 87.1166 197.488 89.0094 210.971C100.209 213.741 119.032 217.346 140.543 217.169V217.164Z" fill="#9597CF"/>
<path d="M140.543 217.164C134.126 204.978 129.239 191.538 124.343 182.756C118.278 171.881 95.9607 175.29 87.6793 177.712C89.0238 189.502 89.9344 198.775 100.69 213.503C117.005 217.169 130.326 217.255 140.548 217.169L140.543 217.164Z" fill="#DDDCFC"/>
<path d="M140.543 217.164C134.126 204.978 129.239 191.538 124.343 182.756C120.328 175.552 115.427 171.714 110.54 170.207C99.5317 166.808 88.5565 175.218 87.746 183.609C87.3884 187.304 87.1119 197.483 89.0047 210.971" stroke="#191935" stroke-width="1.90708" stroke-linecap="round" stroke-linejoin="round"/>
<path d="M140.543 217.164C134.126 204.978 129.239 191.538 124.343 182.756C120.328 175.552 115.427 171.714 110.54 170.207" stroke="#7481BA" stroke-width="1.90708" stroke-linecap="round" stroke-linejoin="round"/>
<path d="M120.729 169.158C118.44 154.159 88.9141 155.609 90.7019 169.697C92.7234 185.655 122.593 181.373 120.729 169.158Z" fill="#F7F5FE"/>
<path d="M115.585 184.682C112.748 191.581 110.035 197.636 110.035 197.636C110.655 193.779 108.748 191.586 108.748 191.586C106.24 196.225 102.059 200.244 102.059 200.244C94.0489 194.875 91.5506 194.38 91.5506 194.38C78.2011 184.625 76.5324 172.053 76.8852 159.48C76.8852 159.48 112.552 149.025 118.517 157.254C127.528 169.688 121.511 180.324 121.511 180.324C120.386 184.897 117.811 189.917 117.811 189.917C117.163 186.508 115.589 184.677 115.589 184.677L115.585 184.682Z" fill="#DDDCFC"/>
<path d="M108.39 171.957C102.221 158.088 81.3573 168.348 85.4575 179.566C90.9785 194.68 113.415 183.252 108.39 171.957Z" fill="#F7F5FE"/>
<path d="M123.189 175.638C122.994 178.045 122.116 181.392 122.116 181.392" stroke="#7481BA" stroke-width="1.90708" stroke-linecap="round" stroke-linejoin="round"/>
<path d="M89.9343 193.24C77.1426 183.528 76.7469 166.961 75.9602 159.947" stroke="#7481BA" stroke-width="1.90708" stroke-linecap="round" stroke-linejoin="round"/>
<path d="M100.628 154.627C100.314 149.511 100.7 139.847 101.21 135.131C102.368 124.466 111.217 124.323 113.797 133.949C115.742 141.21 117.663 153.115 118.707 161.749" fill="#DDDCFC"/>
<path d="M100.628 154.627C100.314 149.511 100.7 139.847 101.21 135.131C102.368 124.466 111.217 124.323 113.797 133.949C115.742 141.21 117.663 153.115 118.707 161.749" stroke="#7481BA" stroke-width="1.90708" stroke-linecap="round" stroke-linejoin="round"/>
<path d="M106.226 123.274C103.951 123.636 102.025 128.609 101.21 135.131C108.114 136.848 113.797 133.949 113.797 133.949C112.462 128.113 108.39 122.926 106.226 123.269V123.274Z" fill="#3F3E77"/>
<path d="M113.797 133.949C111.89 126.316 108.347 122.721 106.226 123.269C103.074 124.085 101.405 129.882 101.21 135.127" stroke="#191935" stroke-width="1.90708" stroke-linecap="round" stroke-linejoin="round"/>
<path d="M85.0236 161.735C85.0236 161.735 85.0761 163.881 84.995 165.368C84.6565 171.337 81.7006 176.238 79.5122 176.262C77.2142 176.291 74.139 171.728 72.2462 165.44C70.9017 160.982 70.9256 154.04 78.7017 151.775C85.6339 149.759 90.516 156.658 90.516 156.658" fill="#DDDCFC"/>
<path d="M85.0236 161.735C85.0236 161.735 85.0761 163.881 84.995 165.368C84.6565 171.337 81.7006 176.238 79.5122 176.262C77.2142 176.291 74.139 171.728 72.2462 165.44C70.9017 160.982 70.9256 154.04 78.7017 151.775C85.6339 149.759 90.516 156.658 90.516 156.658" stroke="#7481BA" stroke-width="1.90708" stroke-linecap="round" stroke-linejoin="round"/>
<path d="M79.5074 176.262C77.2093 176.291 74.1342 171.728 72.2414 165.44C78.735 162.588 84.9902 165.368 84.9902 165.368C84.6517 171.337 81.6957 176.238 79.5074 176.262Z" fill="#3F3E77"/>
<path d="M84.995 165.368C84.6565 171.337 81.7006 176.239 79.5122 176.262C77.2142 176.291 74.139 171.728 72.2462 165.44" stroke="#191935" stroke-width="1.90708" stroke-linecap="round" stroke-linejoin="round"/>
<path d="M95.9559 159.103C95.9559 159.103 96.5233 163.389 96.3707 166.074C96.0275 172.052 93.0572 176.968 90.8593 176.996C88.5565 177.025 85.4765 172.458 83.5838 166.164C82.2441 161.702 80.2988 150.722 90.0631 148.748C96.6091 147.422 100.624 154.631 100.624 154.631" fill="#DDDCFC"/>
<path d="M95.9559 159.103C95.9559 159.103 96.5233 163.389 96.3707 166.074C96.0275 172.052 93.0572 176.968 90.8593 176.996C88.5565 177.025 85.4765 172.458 83.5838 166.164C82.2441 161.702 80.2988 150.722 90.0631 148.748C96.6091 147.422 100.624 154.631 100.624 154.631" stroke="#7481BA" stroke-width="1.90708" stroke-linecap="round" stroke-linejoin="round"/>
<path d="M90.8593 176.997C88.5565 177.025 85.4766 172.458 83.5838 166.164C90.1012 163.299 96.3708 166.078 96.3708 166.078C96.0275 172.057 93.0572 176.973 90.8593 177.001V176.997Z" fill="#3F3E77"/>
<path d="M96.3708 166.074C96.0275 172.052 93.0572 176.968 90.8593 176.997C88.5565 177.025 85.4766 172.458 83.5838 166.164" stroke="#191935" stroke-width="1.90708" stroke-linecap="round" stroke-linejoin="round"/>
<path d="M123.189 175.638C124.586 163.986 121.773 160.582 118.598 158.879C113.644 156.219 107.465 160.481 104.862 161.707C99.422 164.272 94.9118 166.341 94.5495 167.986C94.0679 170.15 100.514 174.351 108.199 173.483C110.064 173.273 111.999 172.763 113.925 171.852" fill="#DDDCFC"/>
<path d="M123.189 175.638C124.586 163.986 121.773 160.582 118.598 158.879C113.644 156.219 107.465 160.481 104.862 161.707C99.422 164.272 94.9118 166.341 94.5495 167.986C94.0679 170.15 100.514 174.351 108.199 173.483C110.064 173.273 111.999 172.763 113.925 171.852" stroke="#7481BA" stroke-width="1.90708" stroke-linecap="round" stroke-linejoin="round"/>
<path d="M94.5542 167.99C94.9786 166.069 100.323 164.572 104.848 161.664C108.857 165.301 108.566 170.932 108.199 173.416C100.428 174.66 94.0632 170.226 94.559 167.99H94.5542Z" fill="#3F3E77"/>
<path d="M108.195 173.416C100.423 174.66 94.0584 170.226 94.5542 167.99C94.9786 166.069 99.5889 164.205 104.848 161.664" stroke="#191935" stroke-width="1.90708" stroke-linecap="round" stroke-linejoin="round"/>
</svg>
