<svg width="256" height="256" viewBox="0 0 256 256" fill="none" xmlns="http://www.w3.org/2000/svg">
<path d="M158.274 110.214C158.943 107.51 155.56 104.145 151.659 101.954C149.318 100.638 147.258 101.615 144.468 98.178C144.858 114.031 158.278 110.211 158.278 110.211L158.274 110.214Z" fill="#894E71" stroke="#191935" stroke-width="1.81563" stroke-linecap="round" stroke-linejoin="round"/>
<path d="M156.926 145.288C167.687 167.735 181.819 169.288 192.7 186.96C192.7 186.96 185.847 189.274 178.524 189.971C178.524 189.971 150.761 181.135 156.93 145.288H156.926Z" fill="#DDDCFC"/>
<path d="M156.926 145.288C167.687 167.735 181.819 169.288 192.7 186.96" stroke="#7481BA" stroke-width="1.81563" stroke-linecap="round" stroke-linejoin="round"/>
<path d="M124.843 109.259C102.248 140.181 104.878 184.175 104.878 184.175C141.436 195.074 178.52 189.971 178.52 189.971C169.827 162.224 151.294 154.095 154.614 118.729" fill="#DDDCFC"/>
<path d="M178.52 189.971C171.869 168.741 159.458 158.998 155.484 139.755C145.859 153.781 122.468 154.35 107.259 153.027C104.063 170.495 104.881 184.175 104.881 184.175C141.44 195.074 178.524 189.971 178.524 189.971H178.52Z" fill="#5B56A4"/>
<path d="M167.53 166.703C160.356 154.565 153.519 143.83 154.282 123.756C131.154 137.393 120.949 169.518 120.251 187.889C129.383 189.621 138.207 190.506 146.111 190.904C156.908 187.109 167.559 180.023 167.533 166.707L167.53 166.703Z" fill="#8B8BD1"/>
<path d="M178.52 189.971C169.827 162.224 151.294 154.095 154.614 118.729" stroke="#191935" stroke-width="1.81563" stroke-linecap="round" stroke-linejoin="round"/>
<path d="M124.843 109.259C102.248 140.181 104.878 184.175 104.878 184.175" stroke="#191935" stroke-width="1.81563" stroke-linecap="round" stroke-linejoin="round"/>
<path d="M115.781 125.663C106.781 146.105 101.711 146.593 94.2999 131.907L77.3557 182.21C111.77 198.756 123.005 186.438 132.418 141.701" fill="#DDDCFC"/>
<path d="M115.781 125.663C106.781 146.105 101.711 146.593 94.2999 131.907L77.3557 182.21C111.77 198.756 123.005 186.438 132.418 141.701" stroke="#7481BA" stroke-width="1.81563" stroke-linecap="round" stroke-linejoin="round"/>
<path d="M107.372 132.629C121.037 126.931 129.832 127.668 152.595 121.551L123.097 112.343C119.477 119.524 111.496 124.343 107.376 132.629H107.372Z" fill="#8588D1"/>
<path d="M141.469 118.077C133.057 121.689 122.319 122.371 111.785 126.089C110.119 128.068 108.578 130.201 107.372 132.628C121.037 126.931 129.832 127.667 152.595 121.551L141.469 118.077Z" fill="#49488A"/>
<path d="M123.097 112.343C119.477 119.524 111.496 124.343 107.376 132.629C111.105 131.076 122.582 127.099 129.521 126.687" stroke="#191935" stroke-width="1.81563" stroke-linecap="round" stroke-linejoin="round"/>
<path d="M93.6315 133.897L77.3594 182.214C106.459 197.126 121.957 189.971 129.079 154.35C117.19 178.999 98.6464 178.867 98.6464 178.867C98.6464 178.867 102.003 171.854 99.5121 164.108C99.5121 164.108 103.435 149.502 93.6315 133.893V133.897Z" fill="#9597CF"/>
<path d="M77.3557 182.214C111.77 198.759 123.005 186.442 132.418 141.705" stroke="#191935" stroke-width="1.81563" stroke-linecap="round" stroke-linejoin="round"/>
<path opacity="0.16" d="M140.249 77.7069C137.48 79.1649 136.655 81.4432 136.655 81.4432C139.814 84.8915 146.487 88.5184 146.487 88.5184C150.991 84.7019 150.545 84.2937 150.545 84.2937C146.758 80.1929 143.854 78.414 142.371 77.6923C141.699 77.3642 140.906 77.3569 140.245 77.7069H140.249Z" fill="#DEF5FF"/>
<path d="M140.249 77.7069C137.48 79.1649 136.655 81.4432 136.655 81.4432C139.814 84.8915 146.487 88.5184 146.487 88.5184C150.991 84.7019 150.545 84.2937 150.545 84.2937C146.758 80.1929 143.854 78.414 142.371 77.6923C141.699 77.3642 140.906 77.3569 140.245 77.7069H140.249Z" stroke="#191935" stroke-width="1.81563" stroke-linecap="round" stroke-linejoin="round"/>
<path d="M152.595 121.551C158.216 114.29 158.274 110.214 158.274 110.214C146.414 110.284 145.436 100.121 145.436 100.121C153.862 106.445 160.952 105.29 160.952 105.29C172.793 90.7856 188.185 78.2645 202.054 72.9753C216.898 67.3144 226.376 67.2633 226.434 64.8101C226.518 61.1395 211.799 60.3849 186.961 63.9754C162.124 67.5659 135.614 82.1539 130.175 91.5912C124.74 101.032 123.736 113.801 123.736 113.801" fill="#8588D1"/>
<path d="M155.316 104.867C158.738 105.651 160.952 105.29 160.952 105.29C172.793 90.7857 188.185 78.2646 202.054 72.9754C203.339 72.4833 204.585 72.0386 205.787 71.6267C179.452 78.8624 165.108 93.7638 155.316 104.863V104.867Z" fill="#49488A"/>
<path d="M152.595 121.551C158.216 114.29 158.274 110.215 158.274 110.215C155.579 110.229 153.453 109.715 151.765 108.913C147.908 113.291 144.749 116.648 141.651 118.001C141.356 118.128 141.06 118.252 140.76 118.373L152.595 121.547V121.551Z" fill="#49488A"/>
<path d="M205.787 71.6301C218.468 67.2924 226.38 67.0518 226.431 64.8136C226.475 62.8562 222.318 61.7298 214.673 61.646C210.586 64.0263 207.438 68.7322 205.787 71.6301Z" fill="#49488A"/>
<path d="M226.434 64.8139C222.873 61.6426 197.316 61.6426 175.843 67.8175C156.083 73.5003 135.048 83.6667 128.247 95.4734" stroke="#DCE5EA" stroke-width="1.81563" stroke-linecap="round" stroke-linejoin="round"/>
<path d="M152.595 121.551C158.216 114.29 158.274 110.214 158.274 110.214C146.999 110.375 145.436 100.121 145.436 100.121C153.354 106.409 160.952 105.29 160.952 105.29C172.793 90.7856 188.185 78.2645 202.054 72.9753C216.898 67.3144 226.376 67.2633 226.434 64.8101C226.518 61.1395 211.799 60.3849 186.961 63.9754C162.124 67.5659 135.614 82.1539 130.175 91.5912C124.74 101.032 123.736 113.801 123.736 113.801" stroke="#191935" stroke-width="1.81563" stroke-linecap="round" stroke-linejoin="round"/>
<path d="M130.398 98.6153C130.398 98.6153 119.006 98.4477 117.07 99.9677C116.46 100.449 115.748 104.973 117.103 107.943C118.535 111.085 122.085 112.657 123.093 112.343C124.806 111.811 127.41 108.913 127.41 108.913" fill="#D2D2FB"/>
<path d="M129.518 99.5703C122.717 99.7125 118.684 100.649 118.684 100.649" stroke="white" stroke-width="1.81563" stroke-linecap="round" stroke-linejoin="round"/>
<path d="M130.398 98.6153C130.398 98.6153 119.006 98.4477 117.07 99.9677C116.46 100.449 115.748 104.973 117.103 107.943C118.535 111.085 122.085 112.657 123.093 112.343C124.806 111.811 127.41 108.913 127.41 108.913" stroke="#49488A" stroke-width="1.81563" stroke-linecap="round" stroke-linejoin="round"/>
<path d="M124.13 101.032C119.769 100.664 118.399 103.944 118.399 103.944C119.809 103.565 121.19 103.671 121.19 103.671C120.339 105.505 120.613 107.564 120.613 107.564C120.613 107.564 121.825 106.773 122.487 106.172C122.487 106.172 123.265 106.952 124.101 107.513C124.101 107.513 126.935 103.97 127.575 102.665C127.575 102.665 125.971 101.189 124.13 101.032Z" fill="#6A6DB8"/>
<path d="M128.608 102.771C128.608 102.771 123.034 99.0564 116.548 101.371" stroke="#49488A" stroke-width="1.81563" stroke-linecap="round" stroke-linejoin="round"/>
<path opacity="0.16" d="M133.075 84.2937C128.751 87.1369 126.793 91.6314 125.942 94.5111C125.449 96.177 125.957 97.974 127.242 99.1405C128.933 100.671 130.939 102.25 132.527 103.453C134.354 104.831 136.947 104.648 138.518 102.986C140.527 100.861 141.845 98.2656 142.634 96.3228C143.321 94.6278 142.926 92.6922 141.63 91.4018C136.892 86.6922 133.072 84.2973 133.072 84.2973L133.075 84.2937Z" fill="#DEF5FF"/>
<path d="M133.075 84.2937C128.751 87.1369 126.793 91.6314 125.942 94.5111C125.449 96.177 125.957 97.974 127.242 99.1405C128.933 100.671 130.939 102.25 132.527 103.453C134.354 104.831 136.947 104.648 138.518 102.986C140.527 100.861 141.845 98.2656 142.634 96.3228C143.321 94.6278 142.926 92.6922 141.63 91.4018C136.892 86.6922 133.072 84.2973 133.072 84.2973L133.075 84.2937Z" stroke="#191935" stroke-width="1.81563" stroke-linecap="round" stroke-linejoin="round"/>
<path d="M133.075 84.2936C133.01 82.9413 133.623 82.5403 134.047 82.1174C134.756 81.4176 135.592 81.3119 136.659 81.4394" stroke="#191935" stroke-width="1.81563" stroke-linecap="round" stroke-linejoin="round"/>
<path d="M127.038 85.2486C125.719 78.6035 128.732 78.578 131.435 81.2863" stroke="#191935" stroke-width="1.81563" stroke-linecap="round" stroke-linejoin="round"/>
<path d="M134.489 73.1504C135.391 69.9536 139.098 71.3314 139.098 71.3314" stroke="#191935" stroke-width="1.81563" stroke-linecap="round" stroke-linejoin="round"/>
<path d="M215.802 65.7942C217.562 65.7396 218.706 65.0105 219.663 64.5439C220.203 64.2815 220.656 65.0798 219.809 65.4406C217.971 66.2244 215.806 65.7942 215.806 65.7942H215.802Z" fill="black" stroke="black" stroke-width="1.81563" stroke-linecap="round" stroke-linejoin="round"/>
<path d="M108.516 186.661C99.9212 191.265 95.4833 194.965 95.4833 194.965C95.4833 194.965 95.918 190.321 99.9285 187.146" fill="#9597CF"/>
<path d="M108.516 186.661C99.9212 191.265 95.4833 194.965 95.4833 194.965C95.4833 194.965 95.918 190.321 99.9285 187.146" stroke="#191935" stroke-width="1.81563" stroke-linecap="round" stroke-linejoin="round"/>
<path d="M133.517 91.7698C135.643 89.5645 141.056 96.1622 137.382 98.4478C133.707 100.733 131.256 94.1136 133.517 91.7698Z" fill="#1A1A21"/>
<path d="M132.443 95.4734C132.297 91.7116 134.153 90.3629 136.936 90.567" stroke="#191935" stroke-width="1.36172" stroke-linecap="round" stroke-linejoin="round"/>
<path d="M140.497 94.6494C138.992 98.3602 135.139 99.1403 135.139 99.1403" stroke="#191935" stroke-width="1.36172" stroke-linecap="round" stroke-linejoin="round"/>
<path d="M134.832 93.2278C135.314 92.4805 137.462 94.5765 136.958 95.4331C136.454 96.2897 134.292 94.0735 134.832 93.2278Z" fill="white"/>
<path d="M145.403 98.8013C145.439 100.7 144.278 101.706 144.278 101.706" stroke="#191935" stroke-width="1.81563" stroke-linecap="round" stroke-linejoin="round"/>
<path d="M171.354 166.612C177.289 169.31 187.801 170.688 187.801 170.688C183.4 172.842 180.325 173.476 180.325 173.476" fill="#DDDCFC"/>
<path d="M171.354 166.612C177.289 169.31 187.801 170.688 187.801 170.688C183.4 172.842 180.325 173.476 180.325 173.476" stroke="#7481BA" stroke-width="1.81563" stroke-linecap="round" stroke-linejoin="round"/>
<path d="M176.084 171.468C188.353 173.509 192.736 181.124 192.736 181.124C192.736 181.124 187.696 178.569 183.108 178.248" fill="#DDDCFC"/>
<path d="M176.084 171.468C188.353 173.509 192.736 181.124 192.736 181.124C192.736 181.124 187.696 178.569 183.108 178.248" stroke="#7481BA" stroke-width="1.81563" stroke-linecap="round" stroke-linejoin="round"/>
<path d="M65.8612 128.951C65.8612 128.951 60.2874 116.393 60.1741 103.106C60.039 87.3227 71.6285 77.2001 75.566 78.8076C79.3062 80.3349 78.7912 91.347 81.4429 98.178C86.3118 110.721 93.9821 118.179 96.5426 133.379C99.1797 149.028 93.3502 161.633 93.3502 161.633C93.3502 161.633 94.9172 175.463 83.3349 183.858C71.7527 192.253 41.7799 195.092 41.2795 154.35C41.0348 134.466 65.8575 128.951 65.8575 128.951H65.8612Z" fill="#DDDCFC" stroke="#7481BA" stroke-width="1.81563" stroke-linecap="round" stroke-linejoin="round"/>
<path d="M75.566 78.8076C71.6285 77.2001 60.039 87.3227 60.1741 103.106C69.258 96.3263 81.4466 98.1817 81.4466 98.1817C78.7948 91.3506 79.3098 80.3386 75.5696 78.8113L75.566 78.8076Z" fill="#3F3E77"/>
<path d="M75.566 78.8076C66.851 80.4407 61.0763 93.443 61.7155 103.835C62.3547 114.228 64.9772 123.756 64.9772 123.756" stroke="white" stroke-width="1.81563" stroke-linecap="round" stroke-linejoin="round"/>
<path d="M88.569 164.968C88.1307 164.105 86.7245 162.993 84.8325 162.712C88.2221 160.284 91.1587 157.212 91.3413 155.05C91.4984 153.195 89.0512 150.687 86.9765 149.199C88.2367 148.452 89.358 147.443 89.4018 146.159C89.5333 142.332 80.8037 131.189 67.3624 124.117C66.5734 123.702 65.2293 123.085 63.498 122.462C64.7435 126.432 65.8575 128.954 65.8575 128.954C65.8575 128.954 41.0385 134.473 41.2795 154.354C41.6959 188.239 61.7301 191.385 74.8574 187.711C84.1787 179.042 89.3653 166.536 88.5654 164.968H88.569Z" fill="#9597CF"/>
<path d="M76.1577 187.445C68.9403 189.84 59.7212 189.923 52.5732 184.463" stroke="#191935" stroke-width="1.81563" stroke-linecap="round" stroke-linejoin="round"/>
<path d="M82.8528 141.038C82.966 137.426 75.292 126.902 63.476 120.228C59.9258 118.223 43.4783 111.195 34.6574 123.931C29.2334 131.765 32.3892 141.038 32.3892 141.038C32.3892 141.038 24.4997 154.616 35.1286 165.337C35.1286 165.337 31.2314 188.472 52.7485 188.239C74.2657 188.006 83.2217 161.112 82.1259 158.801C81.0302 156.49 70.6862 155.163 59.3304 161.378L57.7489 145.055C67.9869 146.272 82.7286 145.164 82.8601 141.042L82.8528 141.038Z" fill="#DDDCFC" stroke="#7481BA" stroke-width="1.81563" stroke-linecap="round" stroke-linejoin="round"/>
<path d="M82.8528 141.038C82.966 137.426 75.292 126.902 63.476 120.228C59.9258 118.223 43.4783 111.195 34.6574 123.931C29.2334 131.765 32.3892 141.038 32.3892 141.038C32.3892 141.038 24.4997 154.616 35.1286 165.337C35.1286 165.337 31.2314 188.472 52.7485 188.239C74.2657 188.006 83.2217 161.112 82.1259 158.801C81.0302 156.49 70.6862 155.163 59.3304 161.378L57.7489 145.055C67.9869 146.272 82.7286 145.164 82.8601 141.042L82.8528 141.038Z" fill="#DDDCFC" stroke="#7481BA" stroke-width="1.81563" stroke-linecap="round" stroke-linejoin="round"/>
<path d="M59.2537 118.358C41.5389 114.57 29.1969 123.979 33.5946 140.79C33.5946 140.79 28.8134 149.287 31.5674 160.499" stroke="white" stroke-width="1.81563" stroke-linecap="round" stroke-linejoin="round"/>
<path d="M82.8528 141.038C82.966 137.426 75.292 126.902 63.476 120.228C59.9258 118.223 43.4783 111.195 34.6574 123.931C29.2334 131.765 32.3892 141.038 32.3892 141.038C32.3892 141.038 24.4997 154.616 35.1286 165.337C35.1286 165.337 31.2314 188.472 52.7485 188.239C74.2657 188.006 83.2217 161.112 82.1259 158.801C81.0302 156.49 70.6862 155.163 59.3304 161.378L57.7489 145.055C67.9869 146.272 82.7286 145.164 82.8601 141.042L82.8528 141.038Z" stroke="#7481BA" stroke-width="1.81563" stroke-linecap="round" stroke-linejoin="round"/>
<path d="M82.1187 158.797C81.2968 157.062 75.2665 155.885 67.5121 158.028L69.6525 161.309C72.9471 166.857 74.1232 172.383 74.5177 176.225C80.3216 168.646 82.7177 160.058 82.1187 158.797Z" fill="#3F3E77"/>
<path d="M74.5177 176.228C80.3216 168.65 82.7177 160.062 82.1187 158.801C81.2968 157.066 75.2665 155.888 67.5121 158.032" stroke="#191935" stroke-width="1.81563" stroke-linecap="round" stroke-linejoin="round"/>
<path d="M71.3546 125.663C71.161 130.256 70.0616 138.701 64.9772 145.507C73.7762 145.627 82.7469 144.246 82.8492 141.034C82.9368 138.308 78.5793 131.641 71.3509 125.663H71.3546Z" fill="#3F3E77"/>
<path d="M64.9772 145.511C73.7762 145.631 82.7469 144.249 82.8492 141.038C82.9368 138.311 78.5793 131.644 71.3509 125.666" stroke="#191935" stroke-width="1.81563" stroke-linecap="round" stroke-linejoin="round"/>
<path d="M48.1098 140.794C72.2458 138.118 84.9238 144.807 84.5586 149.433C84.1933 154.055 73.4658 162.085 50.9149 167.196" fill="#DDDCFC"/>
<path d="M48.1098 140.794C72.2458 138.118 84.9238 144.807 84.5586 149.433C84.1933 154.055 73.4658 162.085 50.9149 167.196" stroke="#7481BA" stroke-width="1.81563" stroke-linecap="round" stroke-linejoin="round"/>
<path d="M69.6525 161.309C79.4852 157.084 84.3138 152.506 84.5585 149.433C84.8033 146.331 79.1674 142.303 68.1513 140.794C72.3043 148.543 70.5437 157.846 69.6562 161.312L69.6525 161.309Z" fill="#3F3E77"/>
<path d="M69.6525 161.309C79.4852 157.084 84.3138 152.506 84.5585 149.433C84.8033 146.331 79.1674 142.303 68.1513 140.794" stroke="#191935" stroke-width="1.81563" stroke-linecap="round" stroke-linejoin="round"/>
<path d="M81.4429 98.1817C78.7912 91.3507 79.3062 80.3386 75.566 78.8113C71.6285 77.2038 60.039 87.3264 60.1741 103.11" stroke="#191935" stroke-width="1.81563" stroke-linecap="round" stroke-linejoin="round"/>
</svg>
