<svg width="256" height="256" viewBox="0 0 256 256" fill="none" xmlns="http://www.w3.org/2000/svg">
<path d="M183.482 143.888C173.648 130.582 159.464 140.671 157.49 142.17C157.527 140.781 158.294 122.247 141.186 121.845C131.462 121.735 125.613 131.386 124.37 140.562C120.641 165.201 133.546 189.219 133.436 188.268C132.559 188.78 160.78 184.247 177.743 168.381C184.615 162.203 189.148 151.785 183.482 143.852V143.888Z" fill="#FF7196"/>
<path d="M143.197 121.954C142.539 121.881 141.881 121.844 141.186 121.808C131.462 121.698 125.613 131.349 124.37 140.525C120.641 165.164 133.546 189.182 133.436 188.231C132.376 190.132 122.615 130.984 143.197 121.918V121.954Z" fill="#DD507B"/>
<g opacity="0.5">
<path d="M133.399 189.767C133.144 189.767 133.034 189.73 132.888 189.694C132.376 189.511 132.01 189.036 131.937 188.487C131.864 187.939 132.157 187.391 132.632 187.098C132.924 186.915 133.253 186.842 133.582 186.879C136.507 186.404 160.305 180.116 174.964 166.7C181.069 161.253 185.42 152.406 180.557 145.826C178.072 142.536 175.111 140.671 171.674 140.379C164.144 139.684 156.759 146.411 156.43 146.703C155.955 147.142 155.297 147.215 154.749 146.923C154.2 146.63 153.908 146.009 154.017 145.387C154.456 142.792 154.31 133.726 148.315 125.976C147.803 125.354 147.949 124.404 148.57 123.928C149.192 123.417 150.142 123.563 150.618 124.184C155.626 130.655 156.942 137.93 157.052 142.426C160.269 140.123 165.935 136.869 171.93 137.418C176.207 137.82 179.899 140.05 182.897 144.035C188.856 152.077 183.957 162.532 176.902 168.82C168.494 176.533 157.344 181.834 149.448 184.905C144.805 186.733 140.894 187.939 138.444 188.634C135.191 189.548 133.948 189.767 133.399 189.767Z" fill="white"/>
</g>
<path d="M133.436 189.036C133.363 189.036 133.29 189.036 133.253 189.036C133.253 189.036 133.217 189.036 133.18 189.036C132.997 188.962 132.851 188.816 132.778 188.67C131.754 187.244 128.903 181.139 126.637 173.535C124.224 165.42 121.738 153.1 123.675 140.488C124.955 131.13 130.914 121.15 141.04 121.15C151.166 121.15 141.15 121.15 141.223 121.15C146.194 121.26 150.142 122.868 153.03 125.939C157.417 130.582 158.148 137.381 158.221 140.781C161.036 138.88 167.032 135.626 173.356 136.54C177.523 137.162 181.142 139.501 184.067 143.486C189.843 151.565 185.493 162.422 178.218 168.966C162.791 183.369 137.238 188.962 133.546 189.072C133.509 189.072 133.473 189.072 133.4 189.072L133.436 189.036ZM141.04 122.576C131.791 122.576 126.308 131.934 125.101 140.671C121.775 162.715 132.047 184.758 133.802 187.573C137.092 187.244 161.914 182.163 177.267 167.833C184.067 161.728 188.198 151.675 182.897 144.29C180.192 140.635 176.902 138.478 173.137 137.929C166.264 136.942 159.757 141.329 157.929 142.718C157.71 142.901 157.417 142.901 157.161 142.791C156.905 142.645 156.759 142.389 156.759 142.133C156.832 139.794 156.686 131.898 151.97 126.889C149.375 124.111 145.719 122.685 141.186 122.576C141.15 122.576 141.076 122.576 141.04 122.576Z" fill="#960052"/>
<path d="M146.158 197.882C144.074 190.936 140.784 181.358 135.776 170.538L111.356 163.994C111.356 163.994 114.902 180.042 112.379 200.441C124.772 200.112 136.141 199.125 146.121 197.919L146.158 197.882Z" fill="#DDDCFC"/>
<path d="M112.562 199.82C112.562 199.82 112.526 199.82 112.489 199.82C112.087 199.783 111.794 199.418 111.831 199.015C114.024 179.604 110.698 164.287 110.661 164.14C110.588 163.885 110.661 163.629 110.881 163.446C111.063 163.263 111.319 163.19 111.575 163.263L135.995 169.807C136.214 169.88 136.36 170.026 136.47 170.209C140.674 179.275 144.184 188.524 146.889 197.663C146.998 198.065 146.779 198.467 146.414 198.577C146.011 198.686 145.609 198.467 145.5 198.102C142.831 189.109 139.395 180.079 135.3 171.159L112.343 164.981C113.074 168.966 115.158 182.601 113.33 199.198C113.293 199.564 112.964 199.856 112.599 199.856L112.562 199.82Z" fill="#7481BA"/>
<path d="M115.779 167.43C118.228 172.073 123.2 174.961 123.2 174.961C122.506 172.293 123.675 170.647 123.675 170.647C125.759 173.718 128.976 176.241 128.976 176.241C132.12 173.097 135.483 172.914 135.483 172.914C135.483 172.914 145.098 163.848 144.586 149.993C144.586 149.993 116.51 144.29 112.891 150.468C107.444 159.827 111.356 163.958 111.356 163.958C112.452 167.101 114.573 171.269 114.573 171.269C114.792 168.82 115.779 167.43 115.779 167.43Z" fill="#DDDCFC"/>
<path d="M118.96 158.072C122.323 147.909 137.677 153.685 135.556 161.837C132.741 172.804 116.218 166.37 118.96 158.072Z" fill="#F7F5FE"/>
<path d="M110.88 164.871C110.588 164.871 110.296 164.688 110.186 164.396C110.186 164.286 109.309 162.02 109.016 160.302C108.943 159.899 109.199 159.534 109.601 159.461C110.003 159.388 110.369 159.644 110.442 160.046C110.734 161.654 111.539 163.848 111.575 163.884C111.721 164.25 111.538 164.688 111.136 164.835C111.063 164.835 110.954 164.871 110.88 164.871Z" fill="#7481BA"/>
<path d="M135.666 173.608C135.483 173.608 135.264 173.535 135.118 173.389C134.825 173.097 134.862 172.621 135.154 172.366C142.758 165.31 143.818 157.597 143.891 151.638C143.891 151.236 144.257 150.907 144.622 150.907C145.025 150.907 145.354 151.236 145.354 151.638C145.28 157.889 144.147 166.005 136.141 173.426C135.995 173.572 135.812 173.608 135.629 173.608H135.666Z" fill="#7481BA"/>
<path d="M125.393 148.53C125.393 148.53 125.393 149.188 125.028 151.053C124.26 155.184 121.738 158.364 120.202 158.181C118.594 157.999 116.839 154.526 116.108 149.956C115.56 146.703 116.62 142.023 122.249 140.744C127.111 139.647 132.705 144.765 132.997 150.907" fill="#DDDCFC"/>
<path d="M120.312 158.913C120.239 158.913 120.166 158.913 120.093 158.913C117.79 158.657 116.035 154.27 115.34 150.066C114.682 145.972 116.474 141.292 122.03 140.013C124.26 139.501 126.71 140.159 128.866 141.804C131.718 143.961 133.473 147.361 133.655 150.87C133.655 151.272 133.363 151.601 132.961 151.638C132.559 151.638 132.23 151.345 132.193 150.943C132.047 147.909 130.438 144.875 127.989 142.974C126.161 141.585 124.151 141.036 122.359 141.439C117.424 142.572 116.254 146.666 116.766 149.81C117.57 154.599 119.289 157.304 120.239 157.45C121.153 157.56 123.529 154.855 124.26 150.907C124.589 149.152 124.626 148.494 124.626 148.494C124.626 148.092 124.991 147.799 125.394 147.799C125.796 147.799 126.125 148.165 126.088 148.567C126.088 148.64 126.088 149.335 125.686 151.199C124.918 155.367 122.359 158.949 120.239 158.949L120.312 158.913Z" fill="#7481BA"/>
<path d="M120.202 158.181C118.594 157.999 116.839 154.526 116.108 149.956C120.933 148.53 125.064 151.053 125.064 151.053C124.297 155.184 121.774 158.364 120.239 158.181H120.202Z" fill="#3F3E77"/>
<path d="M120.312 158.913C120.239 158.913 120.166 158.913 120.093 158.913C117.79 158.657 116.035 154.27 115.34 150.066C115.267 149.664 115.56 149.298 115.925 149.225C116.327 149.152 116.693 149.445 116.766 149.81C117.57 154.599 119.289 157.304 120.239 157.45C121.153 157.56 123.529 154.855 124.26 150.907C124.333 150.505 124.699 150.249 125.101 150.322C125.503 150.395 125.759 150.761 125.686 151.163C124.918 155.33 122.359 158.913 120.239 158.913H120.312Z" fill="#191935"/>
<path d="M134.24 148.494C134.24 148.494 134.167 151.528 133.801 153.393C132.924 157.523 130.329 160.631 128.83 160.411C127.221 160.192 125.54 156.683 124.918 152.113C124.443 148.86 124.26 141 131.279 140.671C135.995 140.451 138.005 145.898 138.005 145.898" fill="#DDDCFC"/>
<path d="M128.976 161.179C128.903 161.179 128.793 161.179 128.72 161.179C126.417 160.85 124.772 156.463 124.151 152.259C123.858 150.285 123.493 145.423 125.978 142.389C127.221 140.89 128.976 140.086 131.169 139.976C133.326 139.867 135.3 140.817 136.909 142.755C138.079 144.18 138.627 145.606 138.627 145.643C138.773 146.008 138.59 146.447 138.188 146.593C137.823 146.739 137.384 146.556 137.238 146.154C137.238 146.118 135.337 141.219 131.206 141.402C129.415 141.475 128.026 142.133 127.075 143.303C124.882 145.935 125.357 150.651 125.576 152.04C126.271 156.865 127.952 159.607 128.866 159.717C129.817 159.863 132.193 157.194 133.034 153.246C133.399 151.492 133.473 148.53 133.473 148.494C133.473 148.092 133.802 147.763 134.204 147.763C134.606 147.763 134.935 148.092 134.935 148.494C134.935 148.604 134.862 151.638 134.46 153.539C133.582 157.633 130.987 161.143 128.903 161.143L128.976 161.179Z" fill="#7481BA"/>
<path d="M128.83 160.411C127.221 160.192 125.54 156.683 124.918 152.113C129.744 150.797 133.838 153.393 133.838 153.393C132.961 157.523 130.365 160.631 128.866 160.411H128.83Z" fill="#3F3E77"/>
<path d="M128.976 161.179C128.903 161.179 128.793 161.179 128.72 161.179C126.417 160.85 124.772 156.463 124.151 152.259C124.078 151.857 124.37 151.491 124.772 151.418C125.174 151.345 125.54 151.638 125.613 152.04C126.307 156.865 127.989 159.607 128.903 159.717C129.853 159.863 132.23 157.194 133.07 153.246C133.144 152.844 133.546 152.588 133.948 152.698C134.35 152.771 134.606 153.173 134.496 153.575C133.619 157.67 131.023 161.179 128.94 161.179H128.976Z" fill="#191935"/>
<path d="M141.844 152.515C141.844 152.515 141.369 153.941 140.93 154.892C139.248 158.767 136.068 161.252 134.642 160.741C133.217 160.229 132.193 156.427 132.522 151.821C132.851 147.215 134.46 143.961 140.162 144.4C145.244 144.766 144.695 151.638 144.695 151.638" fill="#DDDCFC"/>
<path d="M135.044 161.545C134.825 161.545 134.606 161.545 134.386 161.435C132.193 160.631 131.498 156.025 131.754 151.784C131.827 150.505 132.266 147.324 134.569 145.314C135.995 144.071 137.896 143.522 140.162 143.669C141.588 143.778 142.794 144.363 143.672 145.387C145.646 147.726 145.39 151.528 145.353 151.711C145.353 152.113 144.988 152.406 144.549 152.369C144.147 152.369 143.855 151.967 143.891 151.565C143.891 151.565 144.147 148.165 142.538 146.301C141.917 145.569 141.113 145.167 140.053 145.094C138.188 144.948 136.689 145.387 135.52 146.374C133.619 148.019 133.253 150.761 133.18 151.821C132.851 156.683 133.948 159.68 134.825 160.009C135.702 160.338 138.59 158.255 140.199 154.562C140.601 153.648 141.076 152.223 141.076 152.223C141.222 151.857 141.625 151.638 141.99 151.784C142.356 151.93 142.575 152.332 142.429 152.698C142.429 152.771 141.917 154.16 141.478 155.147C139.906 158.73 136.982 161.508 134.935 161.508L135.044 161.545Z" fill="#7481BA"/>
<path d="M134.606 160.74C133.07 160.192 132.157 156.427 132.486 151.821C137.494 151.528 140.93 154.928 140.93 154.928C139.248 158.803 136.068 161.289 134.642 160.777L134.606 160.74Z" fill="#3F3E77"/>
<path d="M135.044 161.545C134.825 161.545 134.606 161.545 134.386 161.435C132.193 160.631 131.498 156.025 131.754 151.784C131.754 151.382 132.12 151.09 132.522 151.09C132.924 151.09 133.217 151.455 133.217 151.857C132.888 156.719 133.984 159.717 134.862 160.046C135.739 160.375 138.627 158.291 140.235 154.599C140.382 154.234 140.82 154.051 141.186 154.234C141.551 154.38 141.734 154.818 141.551 155.184C139.98 158.767 137.055 161.545 135.008 161.545H135.044Z" fill="#191935"/>
<path d="M109.747 160.156C107.956 153.978 108.322 150.614 109.82 148.604C112.124 145.496 116.51 145.898 118.375 145.935C122.25 146.081 124.845 146.264 125.467 147.214C126.308 148.494 124.114 152.881 119.325 154.453C118.155 154.855 116.876 155.038 115.487 155.001" fill="#DDDCFC"/>
<path d="M109.747 160.887C109.418 160.887 109.126 160.667 109.053 160.375C107.371 154.526 107.408 150.651 109.235 148.202C111.612 144.985 115.925 145.167 118.009 145.241H118.375C123.054 145.423 125.284 145.679 126.051 146.886C126.417 147.471 126.454 148.311 126.051 149.298C125.32 151.419 122.981 154.051 119.471 155.221C118.155 155.659 116.766 155.842 115.377 155.805C114.975 155.805 114.646 155.44 114.682 155.038C114.682 154.636 115.048 154.307 115.45 154.343C116.656 154.38 117.863 154.197 119.033 153.831C122.067 152.808 124.077 150.578 124.699 148.823C124.955 148.129 124.882 147.763 124.808 147.69C124.297 146.922 120.422 146.813 118.301 146.739H117.936C115.962 146.63 112.306 146.484 110.405 149.079C108.906 151.09 108.943 154.672 110.442 159.973C110.551 160.375 110.332 160.777 109.93 160.887C109.857 160.887 109.784 160.887 109.711 160.887H109.747Z" fill="#7481BA"/>
<path d="M125.43 147.288C124.699 146.154 121.774 146.556 118.338 145.971C116.839 149.444 118.411 152.99 119.252 154.489C124.187 153.1 126.271 148.604 125.43 147.288Z" fill="#3F3E77"/>
<path d="M119.252 155.257C118.96 155.257 118.667 155.074 118.557 154.745C118.448 154.379 118.631 153.941 119.033 153.831C122.067 152.807 124.078 150.577 124.699 148.823C124.955 148.128 124.882 147.763 124.809 147.689C124.297 146.922 120.422 146.812 118.302 146.739C117.899 146.739 117.57 146.373 117.607 145.971C117.644 145.569 117.973 145.24 118.375 145.277C123.054 145.423 125.284 145.715 126.052 146.922C126.417 147.507 126.454 148.347 126.052 149.335C125.32 151.455 122.981 154.087 119.471 155.257C119.398 155.257 119.325 155.293 119.252 155.293V155.257Z" fill="#191935"/>
<path d="M65.9158 132.848C54.5467 128.79 50.0868 140.708 49.5019 142.426C48.9535 141.549 41.8615 130.07 31.3698 136.796C25.4476 140.708 25.8497 148.933 28.8474 155.001C36.6339 171.415 54.2542 180.664 53.8155 180.152C53.4865 180.81 68.6941 166.553 72.496 150.03C74.141 143.486 72.6056 135.334 65.9523 132.885L65.9158 132.848Z" fill="#FF7196"/>
<path d="M32.6493 136.029C32.2471 136.248 31.8085 136.504 31.3698 136.76C25.4476 140.671 25.8497 148.896 28.8474 154.965C36.6339 171.379 54.2542 180.627 53.8155 180.116C53.9252 181.724 23.9122 149.92 32.6493 136.029Z" fill="#DD507B"/>
<g opacity="0.5">
<path d="M53.8155 180.847C53.5962 180.847 53.3769 180.737 53.2306 180.591C53.0479 180.372 53.0113 180.079 53.121 179.823C53.1941 179.677 53.3037 179.531 53.45 179.458C54.4736 178.398 66.8297 165.018 70.3757 150.139C71.8745 144.217 70.8509 136.906 65.0384 134.822C62.1139 133.799 59.4452 133.908 57.1787 135.151C52.207 137.856 50.4523 145.095 50.3792 145.424C50.3061 145.716 50.0502 145.935 49.7578 145.972C49.4653 145.972 49.1363 145.826 49.0266 145.533C48.8804 145.204 45.4441 137.893 37.5844 135.298C37.2188 135.188 36.9995 134.749 37.1091 134.384C37.2188 134.018 37.6575 133.799 38.0231 133.908C44.2742 135.955 47.9299 140.818 49.4653 143.34C50.3426 140.744 52.4264 136.065 56.4841 133.835C59.1528 132.373 62.187 132.227 65.5502 133.397C72.2401 135.773 73.483 143.888 71.8379 150.432C69.937 158.474 65.3674 166.188 61.858 171.269C58.8604 175.619 54.7295 180.628 53.9983 180.774C53.9252 180.774 53.8886 180.774 53.8155 180.774V180.847Z" fill="white"/>
</g>
<path d="M53.8156 180.847C53.6694 180.847 53.5597 180.847 53.4501 180.737C52.0609 180.189 47.7838 177.557 43.5432 174.084C38.7543 170.136 32.2107 163.702 28.1895 155.257C25.0821 148.969 24.6435 140.306 30.9678 136.138C34.0751 134.164 37.1824 133.506 40.2165 134.164C44.6033 135.151 47.7838 138.697 49.3192 140.817C50.3427 138.441 52.6458 134.274 56.7036 132.3C59.5185 130.947 62.6989 130.874 66.1717 132.117C73.0809 134.676 74.9088 143.12 73.1541 150.139C69.7543 164.908 56.923 178.544 54.364 180.554C54.2543 180.664 54.1446 180.737 53.9984 180.81C53.9984 180.81 53.9984 180.81 53.9619 180.81C53.9253 180.81 53.8522 180.81 53.7791 180.81L53.8156 180.847ZM37.877 135.407C35.8663 135.407 33.8192 136.065 31.7354 137.381C26.1423 141.073 26.6541 148.896 29.4689 154.636C36.2685 168.966 51.0739 178.069 53.6694 179.312C55.7897 177.484 68.3652 164.433 71.7284 149.847C73.3369 143.45 71.7284 135.809 65.66 133.543C62.5892 132.446 59.7744 132.482 57.3251 133.689C52.8286 135.846 50.7083 141.11 50.1965 142.682C50.0869 142.938 49.8675 143.121 49.5751 143.157C49.2826 143.157 49.0267 143.047 48.8805 142.828C47.9666 141.402 44.713 136.723 39.8876 135.663C39.2296 135.517 38.5715 135.444 37.877 135.444V135.407Z" fill="#960052"/>
<path d="M179.899 166.115C173.465 160.595 167.507 167.248 166.702 168.235C166.556 167.54 164.802 158.182 156.211 159.937C151.312 160.997 149.521 166.48 149.96 171.233C150.91 183.991 160.122 194.519 159.976 194.044C159.61 194.41 173.173 188.889 179.863 179.019C182.605 175.144 183.665 169.405 179.899 166.115Z" fill="#FF7196"/>
<path d="M157.234 159.791C156.905 159.791 156.576 159.864 156.211 159.973C151.312 161.033 149.521 166.517 149.96 171.269C150.91 184.028 160.122 194.556 159.976 194.081C159.647 195.141 147.985 166.7 157.271 159.791H157.234Z" fill="#DD507B"/>
<g opacity="0.5">
<path d="M159.83 194.775C159.83 194.775 159.83 194.775 159.793 194.775C159.537 194.738 159.281 194.556 159.208 194.3C159.135 194.044 159.208 193.751 159.391 193.532C159.501 193.422 159.684 193.349 159.83 193.313C161.219 192.764 172.296 186.988 177.998 178.727C180.411 175.363 181.544 170.502 178.364 167.833C176.756 166.48 175.037 165.895 173.319 166.151C169.517 166.663 166.629 170.794 166.52 170.977C166.337 171.233 166.008 171.342 165.715 171.269C165.423 171.196 165.204 170.903 165.167 170.611C165.167 170.392 164.765 164.872 160.378 161.289C160.049 161.033 160.013 160.558 160.268 160.266C160.524 159.937 161 159.9 161.292 160.156C164.655 162.898 165.898 166.626 166.373 168.783C167.689 167.284 170.102 165.091 173.136 164.689C175.293 164.397 177.377 165.091 179.314 166.736C183.189 170.026 181.947 175.729 179.168 179.604C175.878 184.356 170.98 188.195 167.434 190.608C165.204 192.106 160.671 194.812 159.83 194.812V194.775Z" fill="white"/>
</g>
<path d="M159.939 194.812C159.939 194.812 159.939 194.812 159.903 194.812C159.903 194.812 159.903 194.812 159.866 194.812C159.647 194.812 159.464 194.666 159.355 194.483C157.49 192.618 150.106 182.675 149.265 171.306C148.826 166.334 150.764 160.412 156.101 159.242C158.697 158.73 160.963 159.096 162.827 160.339C165.35 162.021 166.556 164.945 167.105 166.773C168.457 165.42 170.943 163.519 173.977 163.263C176.244 163.081 178.401 163.848 180.411 165.603C184.396 169.112 183.445 175.254 180.484 179.495C177.048 184.612 171.82 188.487 168.018 190.827C164.948 192.765 161.548 194.41 160.305 194.775C160.195 194.812 160.086 194.848 159.976 194.848L159.939 194.812ZM158.258 160.449C157.636 160.449 157.015 160.522 156.357 160.668C151.897 161.655 150.289 166.809 150.691 171.196C151.495 182.017 158.587 191.522 160.159 193.276C162.352 192.435 173.539 187.098 179.241 178.654C181.837 174.925 182.751 169.661 179.424 166.7C177.743 165.237 175.915 164.579 174.087 164.726C170.687 164.982 168.018 167.87 167.287 168.747C167.105 168.966 166.812 169.039 166.556 168.966C166.3 168.893 166.081 168.674 166.008 168.418C165.789 167.285 164.838 163.446 162.023 161.582C160.963 160.851 159.72 160.522 158.294 160.522L158.258 160.449Z" fill="#960052"/>
<path d="M190.757 141.622C189.112 137.345 184.615 139.026 183.957 139.246C184.067 138.88 185.639 134.018 181.106 132.629C178.51 131.898 176.28 134.018 175.257 136.394C172.442 142.682 174.123 150.03 174.16 149.774C173.904 149.847 181.727 150.688 187.43 147.727C189.733 146.594 191.671 144.144 190.757 141.622Z" fill="#FF7196"/>
<path d="M181.618 132.848C181.435 132.775 181.289 132.702 181.106 132.665C178.51 131.934 176.28 134.054 175.257 136.43C172.442 142.718 174.123 150.066 174.16 149.81C173.721 150.249 175.476 133.762 181.618 132.885V132.848Z" fill="#DD507B"/>
<g opacity="0.5">
<path d="M175.33 150.542C174.562 150.542 173.904 150.505 173.721 150.359C173.502 150.213 173.392 149.92 173.429 149.628C173.465 149.372 173.685 149.116 173.941 149.043C174.087 149.006 174.233 149.006 174.379 149.043C175.33 149.116 181.837 149.189 186.48 146.813C188.344 145.899 190.026 144.035 189.295 142.17C188.892 141.183 188.344 140.562 187.54 140.269C185.748 139.611 183.445 140.744 183.372 140.817C183.08 140.964 182.751 140.927 182.532 140.708C182.312 140.489 182.239 140.16 182.385 139.867C182.385 139.867 183.592 137.162 182.495 134.493C182.349 134.128 182.495 133.689 182.897 133.543C183.263 133.396 183.701 133.543 183.848 133.945C184.652 135.846 184.469 137.71 184.213 138.953C185.273 138.624 186.736 138.405 188.088 138.953C189.294 139.392 190.172 140.306 190.684 141.695C191.744 144.437 189.623 146.996 187.174 148.202C184.359 149.628 180.996 150.213 178.693 150.432C178.693 150.432 176.829 150.615 175.366 150.615L175.33 150.542Z" fill="white"/>
</g>
<path d="M176.865 150.651C175.695 150.651 174.782 150.578 174.233 150.505C174.05 150.505 173.868 150.505 173.721 150.395C173.539 150.249 173.429 150.066 173.429 149.847C172.917 148.092 172.149 141.585 174.599 136.138C175.695 133.543 178.291 131.093 181.325 131.971C182.787 132.409 183.811 133.214 184.432 134.383C185.127 135.7 185.127 137.162 184.944 138.222C186.004 138.003 187.467 137.856 188.819 138.441C190.026 138.953 190.903 139.94 191.451 141.366C192.512 144.217 190.391 147.069 187.759 148.385C184.286 150.212 179.826 150.688 176.865 150.688V150.651ZM174.745 149.152C176.427 149.335 182.495 149.481 187.065 147.105C189.112 146.082 190.793 143.961 190.026 141.914C189.624 140.89 189.002 140.159 188.161 139.794C186.553 139.099 184.542 139.794 184.177 139.977C183.921 140.086 183.628 140.013 183.409 139.83C183.19 139.648 183.116 139.355 183.19 139.063C183.372 138.478 183.884 136.54 183.08 135.041C182.641 134.237 181.91 133.689 180.85 133.36C178.693 132.738 176.756 134.639 175.878 136.686C173.648 141.658 174.379 147.507 174.708 149.116L174.745 149.152Z" fill="#960052"/>
<path d="M205.27 112.413C200.481 110.001 197.849 114.972 197.483 115.703C197.3 115.301 194.815 109.818 189.806 112.194C186.955 113.583 186.699 117.239 187.65 120.054C190.135 127.73 197.41 132.812 197.227 132.556C197.045 132.848 204.575 127.401 207.171 120.346C208.267 117.531 208.048 113.876 205.27 112.413Z" fill="#FF7196"/>
<path d="M190.391 111.938C190.208 112.011 189.989 112.084 189.806 112.194C186.955 113.583 186.699 117.239 187.65 120.053C190.135 127.73 197.41 132.812 197.227 132.556C197.227 133.25 185.749 117.531 190.391 111.901V111.938Z" fill="#DD507B"/>
<g opacity="0.5">
<path d="M197.191 133.323C196.935 133.323 196.716 133.214 196.569 132.994C196.423 132.775 196.423 132.446 196.569 132.227C196.642 132.08 196.752 132.007 196.898 131.934C197.776 131.313 203.552 126.122 205.745 120.382C206.659 118.043 206.659 115.081 204.466 113.948C203.332 113.4 202.309 113.29 201.322 113.692C199.165 114.533 198.068 117.385 198.032 117.531C197.922 117.823 197.629 118.006 197.337 118.006C197.008 118.006 196.752 117.787 196.679 117.494C196.679 117.494 195.582 114.131 192.475 112.669C192.109 112.486 191.963 112.047 192.146 111.682C192.329 111.316 192.767 111.17 193.133 111.353C195.399 112.413 196.716 114.277 197.447 115.557C198.105 114.424 199.238 112.998 200.883 112.34C202.236 111.791 203.698 111.901 205.197 112.669C208.231 114.204 208.341 118.006 207.171 120.931C204.758 127.291 198.105 133.25 197.337 133.36C197.337 133.36 197.3 133.36 197.264 133.36L197.191 133.323Z" fill="white"/>
</g>
<path d="M197.227 133.324C197.008 133.324 196.825 133.251 196.679 133.068C194.961 131.971 189.185 127.109 186.955 120.273C185.895 117.166 186.224 113.108 189.477 111.499C191.049 110.768 192.585 110.622 193.974 111.134C195.655 111.755 196.789 113.108 197.483 114.205C198.178 113.181 199.384 111.828 201.066 111.28C202.491 110.805 203.99 110.951 205.562 111.755C208.669 113.4 209.035 117.458 207.829 120.602C205.562 126.707 199.53 131.935 197.739 133.068C197.629 133.177 197.483 133.251 197.3 133.287C197.3 133.287 197.264 133.287 197.227 133.287V133.324ZM192.219 112.34C191.561 112.34 190.83 112.523 190.099 112.852C187.649 114.058 187.467 117.312 188.344 119.834C190.391 126.085 195.728 130.655 197.227 131.715C198.726 130.655 204.356 125.903 206.476 120.09C207.463 117.531 207.28 114.278 204.904 113.071C203.698 112.45 202.564 112.34 201.541 112.669C199.53 113.327 198.324 115.594 198.105 116.032C197.995 116.288 197.702 116.435 197.447 116.435C197.154 116.435 196.898 116.252 196.789 115.996C196.496 115.338 195.399 113.217 193.462 112.523C193.06 112.377 192.621 112.304 192.182 112.304L192.219 112.34Z" fill="#960052"/>
<path d="M116.949 200.185C114.865 179.567 119.618 162.203 126.965 154.234L99.5114 133.725C62.443 155.111 42.5196 182.858 36.1953 194.336C65.2578 200.076 93.0409 201.209 116.912 200.185H116.949Z" fill="#DDDCFC"/>
<path d="M116.839 200.185C115.998 194.19 114.682 184.612 117.826 172.402C110.698 175.546 97.2447 183.845 86.3508 200.185C97.0254 200.624 107.261 200.587 116.839 200.185Z" fill="#8B8BD1"/>
<path d="M36.2685 195.068C36.1589 195.068 36.0126 195.068 35.903 194.995C35.5374 194.812 35.4277 194.373 35.6105 194.007C37.6942 190.206 43.8358 179.97 55.8263 167.248C68.3287 153.942 82.9148 142.463 99.1459 133.068C99.5115 132.848 99.9501 132.994 100.133 133.323C100.352 133.689 100.206 134.128 99.8771 134.311C83.7556 143.596 69.2792 155.002 56.8865 168.199C45.0421 180.811 38.9737 190.9 36.89 194.666C36.7438 194.921 36.5244 195.031 36.232 195.031L36.2685 195.068Z" fill="#191935"/>
<path d="M109.016 146.593C94.9054 153.283 71.1801 163.007 53.4136 171.159C48.6247 175.473 40.436 178.983 40.436 178.983C51.6224 177.849 64.0516 175.473 71.8747 172.256C81.0139 168.454 91.0669 167.138 101.668 163.007C112.27 158.876 122.944 157.926 122.944 157.926C124.224 156.61 125.576 155.367 127.002 154.234L113.951 142.536L109.053 146.63L109.016 146.593Z" fill="#49488A"/>
<path d="M40.4359 179.714C40.1069 179.714 39.8145 179.494 39.7414 179.165C39.6682 178.8 39.8145 178.434 40.1435 178.325C40.2166 178.325 48.2956 174.815 52.9383 170.648C53.2307 170.392 53.706 170.392 53.9619 170.721C54.2178 171.013 54.2177 171.488 53.9253 171.744C51.2201 174.157 47.5279 176.314 44.713 177.776C72.0208 174.194 85.8758 165.201 86.4607 164.799C86.7897 164.579 87.2284 164.689 87.4477 165.055C87.6671 165.384 87.5574 165.822 87.2284 166.041C86.5704 166.48 71.0338 176.606 40.4725 179.787C40.4725 179.787 40.4359 179.787 40.3993 179.787L40.4359 179.714Z" fill="#191935"/>
<path d="M53.4136 171.159C76.4808 141.695 99.548 133.689 99.548 133.689L126.527 147.142C67.9265 173.499 53.4136 171.123 53.4136 171.123V171.159Z" fill="#8588D1"/>
<path d="M53.4136 171.891C53.2673 171.891 53.0845 171.854 52.9749 171.744C52.6458 171.489 52.6093 171.05 52.8652 170.721C65.331 154.782 77.285 145.387 85.1081 140.342C93.6258 134.822 99.1093 133.104 99.3287 133.031C99.7308 132.921 100.133 133.141 100.243 133.506C100.352 133.872 100.133 134.31 99.7673 134.42C99.548 134.493 77.5775 141.512 53.9985 171.635C53.8522 171.818 53.6329 171.927 53.4136 171.927V171.891Z" fill="#191935"/>
<path d="M116.583 199.418C116.218 199.418 115.889 199.162 115.852 198.759C113.805 181.87 118.338 162.495 126.454 153.685C126.709 153.393 127.185 153.356 127.477 153.649C127.77 153.905 127.806 154.38 127.514 154.672C119.691 163.19 115.304 182.053 117.314 198.577C117.351 198.979 117.095 199.344 116.693 199.381H116.62L116.583 199.418Z" fill="#191935"/>
<g opacity="0.2">
<path d="M125.686 94.756C122.396 96.9129 121.263 100.13 121.263 100.13L132.339 120.858C136.909 120.529 141.844 112.011 141.844 112.011L133.692 97.9365C131.754 94.5733 128.099 93.1111 125.649 94.7196L125.686 94.756Z" fill="#DEF5FF"/>
</g>
<path d="M132.34 121.589C132.084 121.589 131.828 121.443 131.682 121.187L120.605 100.459C120.495 100.276 120.495 100.057 120.568 99.8741C120.605 99.7279 121.811 96.4013 125.284 94.1348C126.417 93.4037 127.807 93.1843 129.269 93.5133C131.279 93.9885 133.144 95.4874 134.35 97.5711L142.502 111.645C142.648 111.865 142.648 112.157 142.502 112.377C142.283 112.742 137.311 121.223 132.413 121.589H132.376H132.34ZM122.067 100.093L132.742 120.09C135.922 119.432 139.578 114.424 141.003 112.048L133.071 98.3388C132.047 96.5841 130.512 95.3411 128.903 94.9756C127.843 94.7197 126.856 94.866 126.088 95.4143C123.602 97.0594 122.433 99.3258 122.067 100.13V100.093Z" fill="#191935"/>
<path d="M113.659 141.439C113.513 141.439 113.366 141.366 113.257 141.256C113.037 141.037 113.074 140.671 113.293 140.488C113.33 140.488 117.095 136.979 116.912 132.336C116.912 132.044 117.132 131.788 117.424 131.751C117.717 131.751 117.973 131.971 118.009 132.263C118.228 137.418 114.207 141.11 114.024 141.256C113.915 141.366 113.805 141.402 113.659 141.402V141.439Z" fill="#191935"/>
<path d="M92.3828 152.077C90.8108 146.959 89.3851 140.16 90.7743 134.639C93.1505 125.208 101.12 116.909 111.173 109.196C146.084 82.4 201.102 73.6265 225.595 75.6371C239.158 76.7338 232.87 82.071 221.976 85.2514C136.031 110.183 149.448 166.042 105.397 159.315" fill="#8588D1"/>
<path d="M209.949 85.0322L210.168 89.0898C167.105 105.54 151.093 130.655 151.093 130.655C164.765 104.407 196.971 87.3718 209.949 84.9956V85.0322Z" fill="#49488A"/>
<path d="M212.581 75.7469C206.366 81.5594 205.599 86.5312 205.416 91.3932C205.416 91.3932 218.028 86.4214 223.511 84.5205C237.293 79.8047 233.601 76.2588 228.483 75.6373C224.352 75.1255 218.613 76.0028 212.581 75.7469Z" fill="#49488A"/>
<path d="M106.055 113.29C144.622 79.6217 216.346 75.0522 227.862 76.0757C227.862 76.0757 231.371 76.4413 233.163 78.9637C222.415 76.0026 147.218 81.3764 106.055 113.29Z" fill="#DCE5EA"/>
<path d="M106.055 113.656C105.946 113.656 105.836 113.62 105.763 113.51C105.653 113.364 105.653 113.144 105.799 112.998C126.308 95.0854 155.845 85.8731 177.012 81.3035C190.391 78.4155 201.98 77.0263 209.364 76.3318C218.796 75.491 225.266 75.4545 227.898 75.6738C228.045 75.6738 231.591 76.0759 233.455 78.7079C233.528 78.8176 233.528 79.0005 233.455 79.1467C233.382 79.2564 233.199 79.3294 233.053 79.2929C227.752 77.8306 206.184 78.4522 181.069 83.3873C141.369 91.1739 118.484 104.078 106.275 113.547C106.201 113.583 106.128 113.62 106.055 113.62V113.656ZM224.06 76.3318C215.286 76.3318 197.045 77.7575 177.158 82.0712C159.757 85.8366 136.653 92.7458 117.644 105.102C131.133 97.1691 151.422 88.5417 180.923 82.7292C204.685 78.0499 225.339 77.2458 232.139 78.4156C230.384 76.7705 227.825 76.478 227.789 76.478C226.875 76.4048 225.595 76.3684 224.023 76.3684L224.06 76.3318Z" fill="#DCE5EA"/>
<path d="M112.197 160.558C110.04 160.558 107.737 160.375 105.251 160.01C104.849 159.936 104.593 159.571 104.629 159.169C104.666 158.767 105.068 158.511 105.47 158.547C125.174 161.545 132.632 152.004 143.964 137.6C156.942 121.077 174.708 98.4849 221.72 84.4837C229.36 82.2172 232.651 79.6215 232.541 78.4883C232.541 78.2324 232.029 76.8432 225.522 76.2949C209.291 74.9788 187.467 78.5249 172.442 82.2537C155.48 86.4943 131.133 94.683 111.575 109.708C99.877 118.701 93.4796 126.633 91.4689 134.749C90.5916 138.222 90.7744 142.645 91.9807 147.873C92.0904 148.275 91.8345 148.677 91.4324 148.75C91.0303 148.86 90.6281 148.604 90.555 148.202C89.2755 142.718 89.0928 138.076 90.0432 134.383C92.1635 125.939 98.7437 117.714 110.698 108.538C130.438 93.3669 154.968 85.1052 172.076 80.8281C191.378 76.0026 211.886 73.6994 225.632 74.8326C231.079 75.2713 233.82 76.4046 234.003 78.3055C234.369 81.9246 225.047 84.9954 222.159 85.8362C175.586 99.6912 157.965 122.1 145.134 138.478C135.264 151.017 127.806 160.521 112.233 160.521L112.197 160.558Z" fill="#191935"/>
<path d="M220.514 81.3036C223.256 81.3036 225.047 80.2799 226.582 79.6219C228.118 78.9639 228.081 80.4994 226.765 81.0112C223.877 82.1079 220.55 81.3036 220.55 81.3036H220.514Z" fill="black"/>
<path d="M223.219 82.3268C221.611 82.3268 220.404 82.0344 220.331 82.0344C219.965 81.9613 219.746 81.5957 219.783 81.2301C219.819 80.8645 220.148 80.5722 220.514 80.5722C220.55 80.5722 220.587 80.5722 220.623 80.5722C222.744 80.5722 224.243 79.8775 225.595 79.2561C225.851 79.1464 226.07 79.0368 226.29 78.9271C226.765 78.7078 227.313 78.7808 227.715 79.0733C228.118 79.3658 228.3 79.841 228.227 80.3528C228.154 80.9377 227.679 81.413 227.021 81.7054C225.741 82.1807 224.425 82.3268 223.256 82.3268H223.219Z" fill="black"/>
<path d="M115.304 107.295C114.975 107.295 114.682 107.076 114.609 106.747C114.427 106.089 113.586 102.835 113.769 101.665C113.988 100.203 116.839 97.6804 117.973 97.6804C119.106 97.6804 121.116 99.1062 121.701 99.5448C122.03 99.8007 122.103 100.24 121.848 100.569C121.592 100.898 121.153 100.971 120.824 100.715C119.8 99.9836 118.448 99.1792 117.973 99.1427C117.314 99.3255 115.304 101.19 115.194 101.848C115.085 102.506 115.596 104.882 115.998 106.344C116.108 106.747 115.852 107.149 115.487 107.222C115.414 107.222 115.377 107.222 115.304 107.222V107.295Z" fill="#191935"/>
<path d="M98.9996 111.792C98.7072 111.792 98.4147 111.682 98.1954 111.426C97.7933 110.987 97.8298 110.293 98.2685 109.891C98.4513 109.745 102.509 105.87 101.339 98.8507C101.23 98.2658 101.632 97.6809 102.253 97.5712C102.838 97.4616 103.423 97.8637 103.533 98.4851C104.922 106.747 99.9866 111.317 99.8038 111.499C99.5845 111.682 99.3286 111.792 99.0727 111.792H98.9996Z" fill="#191935"/>
<path d="M93.8087 130.07C93.8087 130.07 79.6978 134.054 77.87 136.65C77.2851 137.454 78.0894 143.34 80.8677 146.52C83.7922 149.884 88.7639 150.505 89.8971 149.737C91.7981 148.458 93.9549 143.888 93.9549 143.888" fill="#D2D2FB"/>
<path d="M80.0999 137.637C79.844 137.637 79.5881 137.491 79.4784 137.271C79.2956 136.906 79.4053 136.467 79.7344 136.284C79.9171 136.175 84.5232 133.579 92.8581 130.874C93.2237 130.764 93.6624 130.947 93.7721 131.349C93.8817 131.751 93.699 132.153 93.2968 132.263C85.1447 134.895 80.502 137.527 80.4655 137.527C80.3558 137.6 80.2096 137.637 80.0999 137.637Z" fill="white"/>
<path d="M88.4348 150.761C86.1683 150.761 82.6223 149.664 80.3193 146.995C77.4678 143.705 76.4077 137.491 77.285 136.248C79.2225 133.506 92.1636 129.777 93.6259 129.375C94.028 129.265 94.4301 129.485 94.5398 129.887C94.6495 130.289 94.4301 130.691 94.028 130.801C88.6907 132.3 79.7709 135.334 78.4914 137.089C78.1624 137.893 78.8935 143.157 81.416 146.082C84.1211 149.152 88.6907 149.701 89.495 149.189C90.9207 148.238 92.7119 144.875 93.2969 143.632C93.4796 143.267 93.9183 143.12 94.2839 143.267C94.6494 143.413 94.7957 143.888 94.6494 144.254C94.5763 144.436 92.3829 149.006 90.3358 150.395C89.9337 150.651 89.2756 150.797 88.4714 150.797L88.4348 150.761Z" fill="#49488A"/>
<path d="M86.9723 135.37C81.4523 136.54 80.9771 141.073 80.9771 141.073C82.5855 140.086 84.3037 139.721 84.3037 139.721C83.9382 142.316 85.0349 144.729 85.0349 144.729C85.0349 144.729 86.2412 143.303 86.8261 142.316C86.8261 142.316 88.0691 143.011 89.312 143.376C89.312 143.376 91.5054 137.929 91.7978 136.102C91.7978 136.102 89.2754 134.859 86.9358 135.37H86.9723Z" fill="#6A6DB8"/>
<path d="M77.7239 139.319C77.5046 139.319 77.2852 139.209 77.139 139.026C76.8831 138.697 76.9562 138.258 77.2852 138.002C84.6331 132.592 93.0046 135.078 93.3336 135.151C93.7357 135.261 93.9185 135.663 93.8088 136.065C93.6992 136.467 93.297 136.65 92.8949 136.54C92.8218 136.54 84.889 134.164 78.126 139.172C77.9798 139.282 77.8336 139.319 77.6873 139.319H77.7239Z" fill="#49488A"/>
<g opacity="0.2">
<path d="M115.304 106.564C107.773 107.478 100.608 113.254 97.2451 117.714C95.7828 119.688 95.7097 122.576 97.0623 125.025L103.35 136.394C105.214 139.721 109.163 141.256 112.124 139.757C117.936 136.796 122.689 133.141 124.955 129.631C126.271 127.584 126.235 124.732 124.772 122.356L115.268 106.564H115.304Z" fill="#DEF5FF"/>
</g>
<path d="M109.674 141.037C107.006 141.037 104.264 139.428 102.728 136.723L96.4407 125.317C94.9053 122.612 95.015 119.432 96.66 117.202C100.316 112.34 107.664 106.674 115.194 105.796C115.487 105.796 115.743 105.906 115.925 106.162L125.43 121.954C127.002 124.55 127.075 127.73 125.576 129.997C123.273 133.543 118.631 137.198 112.489 140.342C111.612 140.781 110.625 141 109.674 141V141.037ZM114.938 107.332C108.285 108.319 101.339 113.437 97.8664 118.116C96.5504 119.871 96.5138 122.429 97.7567 124.623L104.044 136.029C105.726 139.063 109.235 140.415 111.868 139.063C117.717 136.065 122.286 132.482 124.406 129.192C125.576 127.365 125.503 124.806 124.224 122.685L114.938 107.295V107.332Z" fill="#191935"/>
<path d="M106.165 128.864C106.165 128.864 106.165 128.864 106.129 128.864C105.726 128.864 105.397 128.498 105.434 128.096C105.69 122.978 107.116 119.615 109.601 118.043C112.38 116.288 115.414 117.567 115.524 117.604C115.889 117.75 116.072 118.189 115.926 118.554C115.779 118.92 115.341 119.103 114.975 118.957C114.975 118.957 112.489 117.933 110.369 119.286C108.358 120.565 107.152 123.636 106.896 128.169C106.896 128.571 106.567 128.864 106.165 128.864Z" fill="#191935"/>
<path d="M134.423 141.805C132.339 141.805 130.95 141.476 130.804 141.476C130.402 141.403 130.182 141 130.255 140.598C130.365 140.196 130.731 139.977 131.133 140.05C131.206 140.05 138.298 141.622 144.293 137.308C144.622 137.089 145.061 137.162 145.317 137.491C145.536 137.82 145.463 138.259 145.134 138.515C141.369 141.256 137.274 141.841 134.423 141.841V141.805Z" fill="#191935"/>
<path d="M121.153 140.708C121.153 140.708 110.515 136.285 99.7673 142.865C99.7673 142.865 111.465 149.811 121.153 140.708Z" fill="#8588D1"/>
<path d="M99.7674 143.596C99.5115 143.596 99.2922 143.486 99.146 143.23C98.9267 142.901 99.0363 142.426 99.4019 142.243C110.369 135.553 121.007 139.867 121.446 140.05C121.811 140.196 121.994 140.634 121.848 141C121.701 141.366 121.263 141.548 120.897 141.402C120.788 141.366 110.442 137.198 100.17 143.523C100.06 143.596 99.9137 143.632 99.804 143.632L99.7674 143.596Z" fill="#191935"/>
<path d="M117.497 95.5603C113.988 95.5603 111.721 94.2443 111.575 94.1712C111.063 93.8787 110.881 93.1841 111.173 92.6723C111.465 92.1605 112.16 91.9777 112.672 92.2702C112.818 92.3433 116.364 94.3174 121.409 92.7089C121.994 92.5261 122.615 92.8551 122.798 93.4035C122.981 93.9884 122.652 94.6098 122.103 94.7925C120.422 95.3409 118.886 95.5237 117.497 95.5237V95.5603Z" fill="#191935"/>
<path d="M134.496 199.089C135.666 191.631 136.36 181.834 133.728 175.108C133.29 178.288 131.206 179.567 131.206 179.567C131.718 173.207 130.146 170.538 130.146 170.538C128.281 173.426 125.649 174.742 125.649 174.742C125.393 173.572 100.096 180.481 100.096 180.481C100.096 180.481 100.498 189.401 97.1716 200.515C110.624 200.734 123.2 200.149 134.459 199.125L134.496 199.089Z" fill="#57539F"/>
<path d="M97.2083 201.209C97.1352 201.209 97.0621 201.209 96.989 201.209C96.5868 201.099 96.3675 200.697 96.5137 200.295C99.7307 189.438 99.4017 180.591 99.4017 180.518C99.4017 180.189 99.621 179.86 99.95 179.787C100.023 179.787 106.055 178.105 112.233 176.57C122.579 174.011 124.918 173.792 125.686 173.938C126.417 173.499 128.245 172.293 129.597 170.172C129.744 169.953 129.963 169.844 130.219 169.844C130.475 169.844 130.694 169.99 130.84 170.209C130.913 170.319 132.193 172.585 132.083 177.703C132.485 177.082 132.888 176.204 133.07 175.071C133.107 174.742 133.363 174.486 133.728 174.449C134.057 174.413 134.386 174.596 134.496 174.925C137.201 181.871 136.434 192.033 135.3 199.308C135.227 199.71 134.862 199.966 134.459 199.93C134.057 199.856 133.801 199.491 133.838 199.089C134.825 192.728 135.556 184.174 133.838 177.667C132.997 179.458 131.718 180.225 131.645 180.299C131.425 180.445 131.096 180.445 130.877 180.299C130.658 180.152 130.511 179.896 130.548 179.604C130.84 175.875 130.402 173.426 130.036 172.147C128.208 174.413 126.161 175.437 126.051 175.473C125.832 175.583 125.613 175.583 125.393 175.473C125.357 175.473 125.32 175.437 125.284 175.4C123.529 175.254 111.648 178.178 100.901 181.103C100.901 183.296 100.791 191.192 97.9394 200.77C97.8298 201.099 97.5373 201.282 97.2448 201.282L97.2083 201.209Z" fill="#191935"/>
<path d="M96.4773 156.025C105.287 142.645 111.831 146.849 111.831 146.849C109.674 167.76 96.4773 156.025 96.4773 156.025Z" fill="#DDDCFC"/>
<path d="M112.964 154.307C112.964 154.307 113.659 155.915 114.207 156.976C116.473 161.253 120.275 163.885 121.92 163.19C123.565 162.496 124.37 158.036 123.675 152.771C123.163 149.043 119.764 144.254 114.317 144.839C108.87 145.424 103.532 152.479 103.532 152.479" fill="#DDDCFC"/>
<path d="M121.299 164.031C118.996 164.031 115.596 161.179 113.549 157.304C112.964 156.208 112.306 154.636 112.27 154.563C112.123 154.197 112.27 153.758 112.672 153.612C113.037 153.466 113.476 153.612 113.622 154.014C113.622 154.014 114.28 155.586 114.829 156.646C117.059 160.887 120.531 162.971 121.592 162.532C122.761 162.02 123.602 158.182 122.908 152.881C122.469 149.627 119.435 145.058 114.353 145.57C108.651 146.191 104.154 152.808 104.118 152.881C103.898 153.21 103.423 153.32 103.094 153.1C102.765 152.881 102.655 152.406 102.875 152.077C103.057 151.784 107.81 144.802 114.171 144.107C120.239 143.449 123.822 148.823 124.333 152.662C124.991 157.487 124.553 162.788 122.177 163.848C121.884 163.958 121.592 164.031 121.263 164.031H121.299Z" fill="#7481BA"/>
<path d="M121.921 163.19C123.639 162.422 124.37 158.035 123.675 152.771C117.936 152.844 114.244 157.012 114.244 157.012C116.51 161.289 120.312 163.921 121.957 163.226L121.921 163.19Z" fill="#3F3E77"/>
<path d="M121.299 164.031C118.996 164.031 115.596 161.179 113.549 157.304C113.366 156.939 113.513 156.5 113.842 156.318C114.207 156.135 114.646 156.281 114.829 156.61C117.059 160.85 120.531 162.934 121.592 162.496C122.761 161.984 123.602 158.145 122.908 152.845C122.871 152.443 123.127 152.077 123.529 152.04C123.931 152.004 124.297 152.26 124.333 152.662C124.991 157.487 124.553 162.788 122.176 163.848C121.884 163.958 121.592 164.031 121.263 164.031H121.299Z" fill="#191935"/>
<path d="M100.133 180.445C102.582 183.37 105.726 186.148 105.726 186.148C107.005 184.466 107.554 181.249 107.554 181.249C112.452 184.795 116.071 184.978 116.071 184.978C113.988 182.565 114.39 180.262 114.39 180.262C118.082 182.382 122.213 182.748 122.213 182.748C123.894 177.886 125.613 175.108 125.613 175.108C126.38 161.984 118.192 157.524 118.192 157.524C118.192 157.524 117.972 152.772 116.291 151.858C114.39 150.798 109.71 152.406 104.008 155.184C98.3047 157.963 101.558 148.824 97.537 151.2C91.9804 154.526 89.1656 158.767 88.8366 162.057C88.0689 169.624 100.169 180.445 100.169 180.445H100.133Z" fill="#DDDCFC"/>
<path d="M99.5845 181.249C99.4018 181.249 99.219 181.176 99.0727 181.03C98.5975 180.554 87.3746 169.332 88.1058 161.984C88.6175 156.902 95.8192 149.92 101.851 148.641C102.253 148.568 102.619 148.823 102.728 149.225C102.802 149.628 102.546 149.993 102.143 150.103C96.2579 151.309 89.9701 158.036 89.568 162.13C88.91 168.747 99.9867 179.86 100.096 179.97C100.389 180.262 100.389 180.701 100.096 180.993C99.9501 181.139 99.7673 181.212 99.5845 181.212V181.249Z" fill="#7481BA"/>
<path d="M125.686 175.437C125.613 175.437 125.576 175.437 125.503 175.437C125.101 175.327 124.882 174.962 124.955 174.559C125.064 174.157 127.258 164.397 117.753 158.146C117.497 157.963 117.351 157.634 117.461 157.341C117.461 157.268 118.082 155.038 116.364 153.064C116.108 152.772 116.145 152.296 116.437 152.04C116.73 151.785 117.205 151.821 117.461 152.114C119.179 154.088 119.106 156.245 118.96 157.195C128.866 164.031 126.417 174.815 126.381 174.925C126.307 175.254 126.015 175.473 125.686 175.473V175.437Z" fill="#7481BA"/>
<path d="M98.0125 154.453C97.8662 154.453 97.72 154.417 97.6103 154.344C97.2813 154.124 97.1716 153.649 97.391 153.32C97.5738 153.028 102.326 146.045 108.687 145.351C109.272 145.278 109.857 145.278 110.442 145.351C110.844 145.351 111.136 145.753 111.1 146.155C111.1 146.557 110.698 146.85 110.295 146.813C109.82 146.776 109.308 146.776 108.833 146.813C103.13 147.434 98.6339 154.051 98.5974 154.124C98.4511 154.344 98.2318 154.453 97.9759 154.453H98.0125Z" fill="#7481BA"/>
<path d="M69.0231 172.037C62.2236 164.396 54.0715 171.379 52.9382 172.402C52.9016 171.525 52.3167 160.119 41.7884 160.814C35.7931 161.289 32.7224 167.54 32.4665 173.28C31.516 188.67 40.8014 202.744 40.6917 202.159C40.1799 202.525 57.2884 198.174 66.8663 187.463C70.7778 183.259 72.9712 176.606 69.0231 172.073V172.037Z" fill="#FF7196"/>
<path d="M42.995 160.777C42.5929 160.777 42.1907 160.777 41.7521 160.777C35.7568 161.253 32.686 167.504 32.4301 173.243C31.4796 188.633 40.765 202.708 40.6554 202.123C40.107 203.366 30.8216 167.504 42.995 160.741V160.777Z" fill="#DD507B"/>
<g opacity="0.5">
<path d="M40.5822 202.89C40.5457 202.89 40.5091 202.89 40.4726 202.89C40.2167 202.817 39.9973 202.598 39.9608 202.305C39.9242 202.05 40.0339 201.757 40.2533 201.574C40.3995 201.465 40.5822 201.428 40.7285 201.428C42.4466 200.989 56.8865 195.762 65.1849 186.659C68.6943 182.894 70.8877 177.118 67.4879 173.28C65.7332 171.342 63.7591 170.355 61.6023 170.355C56.8499 170.355 52.6459 174.961 52.4631 175.144C52.2438 175.363 51.9148 175.436 51.6224 175.327C51.3299 175.217 51.1471 174.925 51.1836 174.596C51.1836 174.303 51.6589 167.504 46.9065 162.422C46.6141 162.13 46.6506 161.655 46.9431 161.399C47.2355 161.106 47.7108 161.143 47.9667 161.435C51.6589 165.42 52.4631 170.355 52.6094 172.951C54.3641 171.379 57.7638 168.893 61.5657 168.893C64.1613 168.893 66.5009 170.063 68.548 172.292C72.5693 176.825 70.1931 183.442 66.245 187.646C61.5292 192.837 54.949 196.712 50.3063 199.015C46.7238 200.807 41.6424 202.89 40.6188 202.89H40.5822Z" fill="white"/>
</g>
<path d="M40.6554 202.891C40.6188 202.891 40.5457 202.891 40.5091 202.891C40.5091 202.891 40.4726 202.891 40.436 202.891C40.2532 202.817 40.0704 202.708 39.9608 202.525C38.1695 200.295 30.8216 187.098 31.6624 173.28C31.9183 167.321 35.1719 160.631 41.6424 160.119C44.7862 159.9 47.3818 160.704 49.3924 162.459C52.2073 164.945 53.1212 168.747 53.4502 171.013C55.2415 169.661 58.5681 167.613 62.3334 167.833C65.002 167.979 67.4148 169.258 69.4985 171.598C73.6294 176.387 71.5092 183.479 67.3051 187.975C62.37 193.495 55.4973 197.261 50.6353 199.454C46.4313 201.319 42.2273 202.708 40.8016 202.891C40.7285 202.891 40.6553 202.891 40.5822 202.891H40.6554ZM42.666 161.508C42.3735 161.508 42.1176 161.508 41.8252 161.508C36.232 161.947 33.4537 167.906 33.1978 173.28C32.357 187.062 39.778 199.418 41.0209 201.355C43.6164 200.77 57.9101 196.31 66.3181 186.915C70.0834 182.857 72.0209 176.606 68.4749 172.475C66.6471 170.428 64.5999 169.332 62.3334 169.185C58.166 168.966 54.4738 171.964 53.4502 172.914C53.2308 173.097 52.9384 173.17 52.6825 173.06C52.4266 172.951 52.2438 172.695 52.2438 172.439C52.1707 171.013 51.6589 166.261 48.5516 163.519C47.0162 162.166 45.0787 161.508 42.7391 161.508H42.666Z" fill="#960052"/>
<path d="M89.6046 186.769C85.035 185.526 83.6458 190.351 83.463 191.009C83.2072 190.68 80.0998 186.403 76.1883 189.364C73.9949 191.083 74.397 194.299 75.7496 196.566C79.2956 202.781 86.4973 205.851 86.3145 205.669C86.2048 205.925 91.7249 199.893 92.7119 193.276C93.1506 190.644 92.3098 187.5 89.6046 186.732V186.769Z" fill="#FF7196"/>
<path d="M76.6635 189.036C76.5173 189.145 76.3345 189.255 76.1883 189.365C73.9949 191.083 74.397 194.3 75.7496 196.566C79.2956 202.781 86.4973 205.852 86.3145 205.669C86.4242 206.29 73.6659 194.738 76.6635 189.036Z" fill="#DD507B"/>
<g opacity="0.5">
<path d="M86.3144 206.437C86.1316 206.437 85.9123 206.364 85.8026 206.217C85.6198 206.035 85.5467 205.705 85.6198 205.45C85.6564 205.303 85.7661 205.194 85.8757 205.084C86.5337 204.353 90.5915 198.833 91.4689 193.349C91.8345 191.156 91.2861 188.56 89.239 188.012C88.1788 187.72 87.2649 187.829 86.5338 188.341C84.8522 189.438 84.4135 192.143 84.3769 192.253C84.3404 192.545 84.0845 192.801 83.792 192.874C83.4996 192.947 83.1706 192.801 83.0243 192.509C83.0243 192.509 81.4889 189.803 78.5279 189.072C78.1257 188.962 77.9064 188.597 77.9795 188.195C78.0526 187.793 78.4548 187.573 78.8569 187.646C80.9772 188.158 82.476 189.474 83.3533 190.498C83.7554 189.401 84.45 187.975 85.7295 187.135C86.8262 186.404 88.1423 186.221 89.6045 186.623C92.5656 187.427 93.4064 190.79 92.9312 193.605C92.4194 196.895 90.8475 200.112 89.6045 202.232C89.6045 202.269 87.2649 206.181 86.5703 206.4C86.4972 206.4 86.4241 206.4 86.351 206.4L86.3144 206.437Z" fill="white"/>
</g>
<path d="M86.3146 206.437C86.1683 206.437 86.0587 206.4 85.949 206.327C84.1943 205.705 78.2355 202.379 75.1282 196.968C73.6294 194.446 73.1907 190.827 75.7497 188.816C76.9926 187.866 78.3086 187.5 79.6612 187.683C81.1966 187.902 82.403 188.816 83.2073 189.62C83.6459 188.597 84.4502 187.281 85.7662 186.513C86.936 185.819 88.2886 185.709 89.824 186.111C92.8582 186.989 93.9549 190.461 93.4431 193.459C92.6023 199.125 88.3617 204.682 86.9726 206.108C86.8994 206.254 86.7532 206.363 86.5704 206.437C86.4973 206.437 86.4242 206.437 86.3511 206.437H86.3146ZM78.9666 189.072C78.1624 189.072 77.3947 189.365 76.5905 189.95C74.7261 191.412 75.1648 194.19 76.3346 196.201C79.1494 201.136 84.5233 204.133 86.0952 204.828C87.2284 203.549 91.1766 198.467 91.9442 193.167C92.3464 190.79 91.5787 188.085 89.3853 187.464C88.252 187.171 87.265 187.244 86.4608 187.72C84.8888 188.634 84.2674 190.754 84.1577 191.193C84.0846 191.448 83.8653 191.668 83.5728 191.741C83.2804 191.814 83.0245 191.668 82.8417 191.448C82.4761 190.937 81.1601 189.328 79.4054 189.072C79.2591 189.072 79.1129 189.072 78.9666 189.072Z" fill="#960052"/>
<path d="M89.2757 98.4848C84.5234 91.7218 77.3217 96.5838 76.3347 97.3149C76.3712 96.6203 76.9562 87.4081 68.4385 86.9695C63.5764 86.7867 60.5422 91.539 59.8111 96.1086C57.6543 108.355 63.7958 120.492 63.7592 120.017C63.3205 120.273 77.4314 118.335 86.0953 110.622C89.6047 107.624 91.9809 102.469 89.2392 98.4482L89.2757 98.4848Z" fill="#FF7196"/>
<path d="M69.4255 87.0791C69.0965 87.0425 68.7675 87.0061 68.4385 87.0061C63.5764 86.8233 60.5422 91.5757 59.8111 96.1452C57.6543 108.392 63.7958 120.528 63.7592 120.053C63.2108 121.004 59.0434 91.3562 69.4255 87.0791Z" fill="#DD507B"/>
<g opacity="0.5">
<path d="M63.7224 120.784C63.6127 120.784 63.5396 120.784 63.5031 120.784C63.2472 120.675 63.0644 120.419 63.0278 120.163C63.0278 119.87 63.1375 119.614 63.3934 119.468C63.5396 119.395 63.7224 119.359 63.8687 119.359C65.3309 119.139 77.2849 116.324 84.7425 109.781C87.8498 107.149 90.1163 102.762 87.7767 99.4352C86.5703 97.7536 85.108 96.803 83.4264 96.6203C79.6977 96.1816 75.8958 99.4717 75.7495 99.5814C75.5302 99.8007 75.1646 99.8373 74.9087 99.6546C74.6528 99.5083 74.5066 99.1793 74.5432 98.8868C74.5797 98.6675 75.5668 93.2937 72.2767 88.8338C72.0208 88.5048 72.0939 88.066 72.4229 87.8101C72.7519 87.5542 73.1906 87.6274 73.4465 87.9564C75.9689 91.3562 76.2248 95.2312 76.1517 97.4246C77.7967 96.3279 80.6116 94.7924 83.5727 95.158C85.693 95.4139 87.5208 96.5471 88.9465 98.5943C91.8344 102.689 89.2755 107.843 85.6564 110.877C81.3793 114.643 75.7495 117.129 71.7649 118.591C69.0962 119.578 64.8557 120.821 63.6859 120.821L63.7224 120.784Z" fill="white"/>
</g>
<path d="M63.7589 120.784C63.6858 120.784 63.6127 120.784 63.5396 120.784C63.5396 120.784 63.5396 120.784 63.503 120.784C63.2837 120.711 63.1374 120.528 63.0643 120.309C61.7483 118.079 57.1787 106.929 59.1162 96.0353C59.8839 91.2098 63.1374 86.092 68.4747 86.2748C71.0702 86.3844 73.1174 87.2983 74.5796 88.9067C76.5537 91.1001 76.9924 94.0979 77.0655 95.9989C78.674 95.0484 81.4523 93.842 84.3768 94.3538C86.5337 94.7194 88.398 95.9988 89.8969 98.0825C92.8214 102.36 90.4452 107.916 86.6068 111.206C82.1103 115.191 76.2613 117.604 72.1304 118.92C69.023 119.907 65.2212 120.748 63.9051 120.784C63.8686 120.784 63.832 120.784 63.7589 120.784ZM68.1822 87.737C63.8685 87.737 61.1999 92.1238 60.5419 96.2547C58.641 107.112 63.2837 117.458 64.1976 119.322C66.5738 119.066 78.1622 116.763 85.6563 110.11C89.0195 107.258 91.1033 102.469 88.6905 98.9234C87.4476 97.1321 85.9122 96.1085 84.1575 95.7795C80.904 95.2311 77.6869 97.2783 76.773 97.9363C76.5537 98.0825 76.2247 98.1191 76.0054 97.9729C75.7495 97.8267 75.6032 97.5708 75.6398 97.2784C75.7129 96.1451 75.7129 92.3431 73.5195 89.8938C72.3132 88.5778 70.595 87.8467 68.4381 87.737C68.365 87.737 68.2919 87.737 68.2188 87.737H68.1822Z" fill="#960052"/>
<path d="M131.316 59.8812C125.796 58.7114 124.48 64.4509 124.297 65.2917C124.004 64.9262 120.02 60.0275 115.56 63.7929C113.037 65.9497 113.732 69.715 115.487 72.3471C120.093 79.4756 128.793 82.6927 128.537 82.4733C128.428 82.8023 134.606 75.3082 135.373 67.4119C135.739 64.2681 134.533 60.6124 131.316 59.8812Z" fill="#FF7196"/>
<path d="M116.108 63.3537C115.925 63.4634 115.743 63.6097 115.56 63.7559C113.037 65.9127 113.732 69.678 115.487 72.3101C120.093 79.4386 128.793 82.6557 128.537 82.4364C128.684 83.1675 112.891 70.2629 116.108 63.3171V63.3537Z" fill="#DD507B"/>
<g opacity="0.5">
<path d="M128.574 83.2407C128.391 83.2407 128.208 83.1676 128.062 83.0579C127.843 82.8751 127.77 82.5827 127.843 82.3268C127.879 82.1805 127.989 82.0343 128.099 81.9612C128.793 81.0839 133.363 74.1748 134.057 67.6311C134.386 64.9625 133.546 61.8551 130.987 61.3067C129.671 61.0143 128.574 61.2336 127.697 61.8551C125.723 63.3173 125.357 66.6076 125.32 66.7538C125.32 67.0463 125.065 67.302 124.772 67.3752C124.48 67.4483 124.151 67.3021 124.004 67.0462C124.004 67.0462 121.994 63.8657 118.375 63.1711C117.973 63.098 117.717 62.696 117.79 62.3304C117.863 61.9283 118.265 61.6724 118.631 61.7455C121.263 62.2573 123.127 63.8291 124.224 64.9624C124.589 63.6098 125.357 61.7821 126.856 60.6854C128.099 59.7715 129.598 59.5155 131.316 59.881C134.789 60.6122 135.958 64.5238 135.556 67.8139C134.825 74.7962 129.634 82.9482 128.866 83.2407C128.793 83.2407 128.684 83.2773 128.611 83.2773L128.574 83.2407Z" fill="white"/>
</g>
<path d="M128.574 83.2406C128.428 83.2406 128.281 83.2042 128.172 83.131C126.161 82.5096 118.996 79.1098 114.902 72.749C113.001 69.8976 112.27 65.6936 115.121 63.2443C116.51 62.0745 118.009 61.526 119.581 61.6722C121.482 61.855 123.017 62.9152 123.968 63.8656C124.406 62.6227 125.247 60.9046 126.819 59.881C128.135 59.0402 129.707 58.7843 131.462 59.1865C135.044 60.0273 136.507 64.0119 136.068 67.5213C135.41 74.3574 130.658 81.3031 129.159 82.8751C129.086 83.0213 128.939 83.1311 128.793 83.1676C128.72 83.1676 128.61 83.2042 128.537 83.2042L128.574 83.2406ZM119.069 63.1345C118.046 63.1345 117.022 63.5368 116.035 64.3776C113.842 66.242 114.536 69.6416 116.108 71.9813C119.983 78.0131 126.746 81.0473 128.355 81.6688C129.561 80.2065 134.021 73.8822 134.679 67.3751C135.008 64.4871 133.911 61.2336 131.206 60.6121C129.817 60.3197 128.647 60.5024 127.66 61.1239C125.796 62.3303 125.174 64.9625 125.064 65.4743C124.991 65.7667 124.809 65.9495 124.516 66.0226C124.26 66.0957 123.968 66.0225 123.785 65.7666C123.31 65.1817 121.592 63.3173 119.471 63.1345C119.362 63.1345 119.252 63.1345 119.106 63.1345H119.069Z" fill="#960052"/>
<path d="M134.496 199.089C135.666 191.631 136.36 181.834 133.728 175.108C133.29 178.288 131.206 179.567 131.206 179.567C131.718 173.207 130.146 170.538 130.146 170.538C128.281 173.426 125.649 174.742 125.649 174.742C125.393 173.572 100.096 180.481 100.096 180.481C100.096 180.481 100.498 189.401 97.1716 200.515C110.624 200.734 123.2 200.149 134.459 199.125L134.496 199.089Z" fill="#57539F"/>
<path d="M97.2083 201.209C97.1352 201.209 97.0621 201.209 96.989 201.209C96.5868 201.099 96.3675 200.697 96.5137 200.295C99.7307 189.438 99.4017 180.591 99.4017 180.518C99.4017 180.189 99.621 179.86 99.95 179.787C100.023 179.787 106.055 178.105 112.233 176.57C122.579 174.011 124.918 173.792 125.686 173.938C126.417 173.499 128.245 172.293 129.597 170.172C129.744 169.953 129.963 169.844 130.219 169.844C130.475 169.844 130.694 169.99 130.84 170.209C130.913 170.319 132.193 172.585 132.083 177.703C132.485 177.082 132.888 176.204 133.07 175.071C133.107 174.742 133.363 174.486 133.728 174.449C134.057 174.413 134.386 174.596 134.496 174.925C137.201 181.871 136.434 192.033 135.3 199.308C135.227 199.71 134.862 199.966 134.459 199.93C134.057 199.856 133.801 199.491 133.838 199.089C134.825 192.728 135.556 184.174 133.838 177.667C132.997 179.458 131.718 180.225 131.645 180.299C131.425 180.445 131.096 180.445 130.877 180.299C130.658 180.152 130.511 179.896 130.548 179.604C130.84 175.875 130.402 173.426 130.036 172.147C128.208 174.413 126.161 175.437 126.051 175.473C125.832 175.583 125.613 175.583 125.393 175.473C125.357 175.473 125.32 175.437 125.284 175.4C123.529 175.254 111.648 178.178 100.901 181.103C100.901 183.296 100.791 191.192 97.9394 200.77C97.8298 201.099 97.5373 201.282 97.2448 201.282L97.2083 201.209Z" fill="#191935"/>
<path d="M96.4773 156.025C105.287 142.645 111.831 146.849 111.831 146.849C109.674 167.76 96.4773 156.025 96.4773 156.025Z" fill="#DDDCFC"/>
<path d="M112.964 154.307C112.964 154.307 113.659 155.915 114.207 156.976C116.473 161.253 120.275 163.885 121.92 163.19C123.565 162.496 124.37 158.036 123.675 152.771C123.163 149.043 119.764 144.254 114.317 144.839C108.87 145.424 103.532 152.479 103.532 152.479" fill="#DDDCFC"/>
<path d="M121.299 164.031C118.996 164.031 115.596 161.179 113.549 157.304C112.964 156.208 112.306 154.636 112.27 154.563C112.123 154.197 112.27 153.758 112.672 153.612C113.037 153.466 113.476 153.612 113.622 154.014C113.622 154.014 114.28 155.586 114.829 156.646C117.059 160.887 120.531 162.971 121.592 162.532C122.761 162.02 123.602 158.182 122.908 152.881C122.469 149.627 119.435 145.058 114.353 145.57C108.651 146.191 104.154 152.808 104.118 152.881C103.898 153.21 103.423 153.32 103.094 153.1C102.765 152.881 102.655 152.406 102.875 152.077C103.057 151.784 107.81 144.802 114.171 144.107C120.239 143.449 123.822 148.823 124.333 152.662C124.991 157.487 124.553 162.788 122.177 163.848C121.884 163.958 121.592 164.031 121.263 164.031H121.299Z" fill="#7481BA"/>
<path d="M121.921 163.19C123.639 162.422 124.37 158.035 123.675 152.771C117.936 152.844 114.244 157.012 114.244 157.012C116.51 161.289 120.312 163.921 121.957 163.226L121.921 163.19Z" fill="#3F3E77"/>
<path d="M121.299 164.031C118.996 164.031 115.596 161.179 113.549 157.304C113.366 156.939 113.513 156.5 113.842 156.318C114.207 156.135 114.646 156.281 114.829 156.61C117.059 160.85 120.531 162.934 121.592 162.496C122.761 161.984 123.602 158.145 122.908 152.845C122.871 152.443 123.127 152.077 123.529 152.04C123.931 152.004 124.297 152.26 124.333 152.662C124.991 157.487 124.553 162.788 122.176 163.848C121.884 163.958 121.592 164.031 121.263 164.031H121.299Z" fill="#191935"/>
<path d="M100.133 180.445C102.582 183.37 105.726 186.148 105.726 186.148C107.005 184.466 107.554 181.249 107.554 181.249C112.452 184.795 116.071 184.978 116.071 184.978C113.988 182.565 114.39 180.262 114.39 180.262C118.082 182.382 122.213 182.748 122.213 182.748C123.894 177.886 125.613 175.108 125.613 175.108C126.38 161.984 118.192 157.524 118.192 157.524C118.192 157.524 117.972 152.772 116.291 151.858C114.39 150.798 109.71 152.406 104.008 155.184C98.3047 157.963 101.558 148.824 97.537 151.2C91.9804 154.526 89.1656 158.767 88.8366 162.057C88.0689 169.624 100.169 180.445 100.169 180.445H100.133Z" fill="#DDDCFC"/>
<path d="M99.5845 181.249C99.4018 181.249 99.219 181.176 99.0727 181.03C98.5975 180.554 87.3746 169.332 88.1058 161.984C88.6175 156.902 95.8192 149.92 101.851 148.641C102.253 148.568 102.619 148.823 102.728 149.225C102.802 149.628 102.546 149.993 102.143 150.103C96.2579 151.309 89.9701 158.036 89.568 162.13C88.91 168.747 99.9867 179.86 100.096 179.97C100.389 180.262 100.389 180.701 100.096 180.993C99.9501 181.139 99.7673 181.212 99.5845 181.212V181.249Z" fill="#7481BA"/>
<path d="M125.686 175.437C125.613 175.437 125.576 175.437 125.503 175.437C125.101 175.327 124.882 174.962 124.955 174.559C125.064 174.157 127.258 164.397 117.753 158.146C117.497 157.963 117.351 157.634 117.461 157.341C117.461 157.268 118.082 155.038 116.364 153.064C116.108 152.772 116.145 152.296 116.437 152.04C116.73 151.785 117.205 151.821 117.461 152.114C119.179 154.088 119.106 156.245 118.96 157.195C128.866 164.031 126.417 174.815 126.381 174.925C126.307 175.254 126.015 175.473 125.686 175.473V175.437Z" fill="#7481BA"/>
<path d="M98.0125 154.453C97.8662 154.453 97.72 154.417 97.6103 154.344C97.2813 154.124 97.1716 153.649 97.391 153.32C97.5738 153.028 102.326 146.045 108.687 145.351C109.272 145.278 109.857 145.278 110.442 145.351C110.844 145.351 111.136 145.753 111.1 146.155C111.1 146.557 110.698 146.85 110.295 146.813C109.82 146.776 109.308 146.776 108.833 146.813C103.13 147.434 98.6339 154.051 98.5974 154.124C98.4511 154.344 98.2318 154.453 97.9759 154.453H98.0125Z" fill="#7481BA"/>
</svg>
