<svg width="256" height="256" viewBox="0 0 256 256" fill="none" xmlns="http://www.w3.org/2000/svg">
<path d="M34.2549 85.8268C33.4163 85.8268 32.6077 85.5273 31.9488 84.8984C30.6311 83.6405 30.6311 81.544 31.8889 80.2263L42.6706 69.1451C43.9284 67.8274 46.0248 67.8273 47.3426 69.0852C48.6603 70.343 48.6604 72.4395 47.4025 73.7573L36.6209 84.8384C35.962 85.4973 35.1234 85.8268 34.2549 85.8268Z" fill="#66CCB9"/>
<path d="M61.808 101.879C60.9695 101.879 60.1609 101.58 59.502 100.951L37.3397 79.3878C36.0219 78.1299 36.0219 76.0335 37.2798 74.7157C38.5377 73.3979 40.634 73.3979 41.9518 74.6557L64.1141 96.2191C65.4319 97.4769 65.4319 99.5734 64.1741 100.891C63.5152 101.55 62.6766 101.879 61.808 101.879Z" fill="#66CCB9"/>
<path d="M64.2639 78.4893C63.1259 78.4893 61.9878 77.8903 61.3889 76.8122C60.4904 75.2249 61.0594 73.2183 62.6467 72.3198L76.7228 64.4133C78.3101 63.5148 80.3166 64.0838 81.2151 65.6711C82.1136 67.2584 81.5446 69.2649 79.9573 70.1634L65.8812 78.0699C65.3721 78.3694 64.803 78.4893 64.2639 78.4893Z" fill="#66CCB9"/>
<path d="M71.8411 91.9664C70.7031 91.9664 69.5651 91.3674 68.9661 90.2892L53.8118 63.3351C52.9134 61.7478 53.4824 59.7412 55.0697 58.8427C56.657 57.9443 58.6636 58.5132 59.562 60.1005L74.7163 87.0547C75.6147 88.642 75.0457 90.6485 73.4584 91.547C72.9493 91.8465 72.3802 91.9664 71.8411 91.9664Z" fill="#66CCB9"/>
<path d="M85.9172 84.0598C84.7791 84.0598 83.6411 83.4609 83.0421 82.3827L67.8879 55.4286C66.9894 53.8413 67.5584 51.8347 69.1457 50.9362C70.733 50.0378 72.7396 50.6067 73.6381 52.194L88.7923 79.1482C89.6908 80.7355 89.1218 82.742 87.5345 83.6405C87.0254 83.94 86.4563 84.0598 85.9172 84.0598Z" fill="#66CCB9"/>
<path d="M136.471 76.9019C135.303 76.9019 134.165 76.273 133.566 75.1649L117.004 44.4671C116.136 42.8798 116.735 40.8732 118.352 40.0047C119.939 39.1362 121.946 39.7352 122.814 41.3524L139.376 72.0502C140.245 73.6375 139.646 75.6441 138.029 76.5126C137.519 76.7821 136.98 76.9019 136.471 76.9019Z" fill="#66CCB9"/>
<path d="M120.298 77.1418C118.502 77.1418 117.034 75.7041 117.004 73.8772L116.585 42.9699C116.585 41.143 118.022 39.6455 119.819 39.6455C119.819 39.6455 119.849 39.6455 119.879 39.6455C121.676 39.6455 123.144 41.083 123.174 42.9099L123.593 73.8174C123.593 75.6443 122.155 77.1418 120.358 77.1418C120.358 77.1418 120.328 77.1418 120.298 77.1418Z" fill="#66CCB9"/>
<path d="M136.441 76.9018C134.644 76.9018 133.177 75.4643 133.147 73.6374L132.727 42.73C132.727 40.9031 134.165 39.4057 135.962 39.4057C137.759 39.3758 139.286 40.8432 139.286 42.6402L139.706 73.5476C139.706 75.3745 138.268 76.8719 136.471 76.8719C136.471 76.8719 136.441 76.8719 136.411 76.8719L136.441 76.9018Z" fill="#66CCB9"/>
<path d="M95.1413 75.2248C93.584 75.2248 92.1764 74.0868 91.9068 72.4995C91.5774 70.7026 92.7754 68.9954 94.5723 68.6959L107.63 66.3898C109.427 66.0903 111.134 67.2584 111.434 69.0554C111.763 70.8523 110.565 72.5593 108.768 72.8588L95.7103 75.1649C95.5306 75.1949 95.321 75.2248 95.1413 75.2248Z" fill="#66CCB9"/>
<path d="M94.6621 81.2445C94.5723 81.2445 94.4825 81.2445 94.3926 81.2445C92.5657 81.0948 91.248 79.5075 91.3977 77.6806L94.0631 45.8148C94.2129 43.988 95.8002 42.6702 97.6271 42.8199C99.454 42.9697 100.772 44.557 100.622 46.3838L97.9565 78.2496C97.8068 79.9567 96.3692 81.2745 94.6921 81.2745L94.6621 81.2445Z" fill="#66CCB9"/>
<path d="M110.745 78.3997C109.487 78.3997 108.319 77.681 107.75 76.483L94.3328 47.4324C93.584 45.7852 94.3028 43.8086 95.95 43.0598C97.5972 42.3111 99.5739 43.0298 100.323 44.677L113.74 73.7276C114.488 75.3748 113.77 77.3515 112.122 78.1002C111.673 78.3099 111.194 78.3997 110.745 78.3997Z" fill="#66CCB9"/>
<path d="M149.709 68.157C148.66 68.157 147.642 67.6778 147.013 66.7494C145.965 65.2519 146.354 63.2154 147.822 62.1672L168.996 47.4023C170.493 46.354 172.53 46.7434 173.578 48.2109C174.626 49.7084 174.237 51.7449 172.769 52.7931L151.595 67.5581C151.026 67.9474 150.367 68.157 149.709 68.157Z" fill="#66CCB9"/>
<path d="M146.654 78.5192C146.354 78.5192 146.025 78.4893 145.725 78.3994C143.988 77.8903 142.97 76.0635 143.479 74.2965L152.194 44.617C152.703 42.8799 154.53 41.8617 156.297 42.3708C158.034 42.8799 159.053 44.7067 158.543 46.4737L149.828 76.1533C149.409 77.5908 148.091 78.5192 146.684 78.5192H146.654Z" fill="#66CCB9"/>
<path d="M162.347 83.1314C160.82 83.1314 159.442 82.0532 159.113 80.4958L154.92 59.6214C154.56 57.8245 155.728 56.0873 157.495 55.7579C159.292 55.3985 161.029 56.5665 161.359 58.3335L165.552 79.2081C165.911 81.005 164.743 82.742 162.976 83.0715C162.766 83.1014 162.527 83.1314 162.317 83.1314H162.347Z" fill="#66CCB9"/>
<path d="M179.897 92.206C177.921 92.206 175.824 91.607 173.847 90.3491C171.541 88.8816 169.864 86.7853 169.116 84.4493C168.277 81.8437 168.666 79.0584 170.194 76.6625C171.152 75.1351 173.189 74.656 174.746 75.6443C176.273 76.6027 176.753 78.6391 175.764 80.1965C175.285 80.9452 175.165 81.6939 175.405 82.4726C175.674 83.3411 176.393 84.1498 177.381 84.7787C177.921 85.1082 180.676 86.6955 182.203 84.2995C183.461 82.3229 182.293 79.0584 180.856 75.8538C178.819 71.3016 176.902 66.0306 179.957 61.2088C181.484 58.8129 183.82 57.2855 186.546 56.9261C188.972 56.5967 191.577 57.2256 193.913 58.6931C199.005 61.9276 200.562 67.6777 197.567 72.3797C196.609 73.9071 194.572 74.3864 193.015 73.3981C191.487 72.4397 191.008 70.4031 191.997 68.8458C192.476 68.0971 192.596 67.3483 192.356 66.5696C192.086 65.7011 191.368 64.8926 190.379 64.2636C189.391 63.6347 188.343 63.3352 187.444 63.455C186.666 63.5748 186.037 63.994 185.558 64.7427C184.509 66.3899 184.869 68.6661 186.905 73.1884C188.253 76.2432 191.098 82.6223 187.804 87.8335C185.977 90.7086 183.072 92.236 179.927 92.236L179.897 92.206Z" fill="#66CCB9"/>
<path d="M113.68 141.053C113.68 141.053 88.7025 190.559 120.089 219.25C130.481 218.531 140.604 217.453 150.338 216.075C142.221 205.563 118.711 172.829 113.65 141.083L113.68 141.053Z" fill="#DDDCFC"/>
<path d="M150.367 216.644C150.188 216.644 150.008 216.555 149.888 216.405C145.845 211.134 137.909 200.292 130.361 186.785C121.077 170.193 115.267 154.829 113.111 141.113C113.051 140.783 113.29 140.484 113.62 140.424C113.949 140.364 114.249 140.604 114.309 140.933C119.4 172.859 143.569 206.192 150.877 215.656C151.086 215.926 151.026 216.285 150.757 216.495C150.637 216.584 150.517 216.614 150.397 216.614L150.367 216.644Z" fill="#7481BA"/>
<path d="M134.405 114.847L102.149 92.3557C86.7555 99.6333 64.743 117.902 51.9847 136.231C41.5325 151.265 29.6727 174.775 25.5098 216.045C45.0964 218.831 66.1207 220.358 87.9835 220.358C109.846 220.358 118.771 219.579 133.326 218.112C127.846 194.572 114.638 178.998 114.189 153.332C113.949 138.837 121.826 123.143 134.375 114.847H134.405Z" fill="#DDDCFC"/>
<path d="M79.6576 220.268C82.4429 220.328 85.2281 220.358 88.0133 220.358C103.617 220.358 118.801 219.579 133.356 218.112C130.511 205.953 125.629 195.92 121.496 185.527C121.496 185.527 100.951 189.81 79.6576 220.268Z" fill="#5B56A4"/>
<path d="M46.7137 218.501C58.8132 219.609 71.3618 220.238 84.2099 220.328C101.7 190.678 121.497 185.527 121.497 185.527C117.633 175.794 114.429 165.731 114.219 153.332C114.039 143.329 117.753 132.757 124.192 124.431C90.9485 147.402 59.5619 184.449 46.7137 218.501Z" fill="#8B8BD1"/>
<path d="M133.356 218.711C133.087 218.711 132.847 218.531 132.787 218.261C130.631 209.037 127.277 200.981 124.012 193.164C118.831 180.765 113.919 169.025 113.65 153.332C113.38 138.267 121.616 122.574 134.105 114.338C134.375 114.158 134.764 114.218 134.944 114.518C135.123 114.787 135.063 115.177 134.764 115.356C122.605 123.383 114.578 138.657 114.848 153.332C115.117 168.786 119.969 180.406 125.12 192.715C128.415 200.561 131.799 208.708 133.955 218.022C134.045 218.351 133.836 218.681 133.506 218.741C133.446 218.741 133.416 218.741 133.356 218.741V218.711Z" fill="#191935"/>
<path d="M25.5397 216.644C25.5397 216.644 25.5097 216.644 25.4798 216.644C25.1503 216.614 24.9108 216.314 24.9408 215.985C26.8276 197.327 30.4813 180.555 35.8422 166.09C39.9452 155.009 45.0665 145.155 51.5055 135.901C65.1324 116.285 87.6541 98.5249 101.91 91.8163C102.209 91.6666 102.569 91.8163 102.718 92.1158C102.868 92.4153 102.718 92.7746 102.419 92.9243C88.3129 99.573 66.0308 117.153 52.4939 136.62C46.1147 145.784 41.0533 155.578 36.9803 166.539C31.6493 180.885 27.9956 197.566 26.1387 216.135C26.1088 216.434 25.8392 216.674 25.5397 216.674V216.644Z" fill="#191935"/>
<path d="M43.2097 142.191C43.03 142.191 42.8803 142.131 42.7605 141.981C42.5808 141.742 42.5808 141.412 42.7605 141.202C43.06 140.843 50.4873 132.248 55.6985 128.324C55.968 128.115 56.3274 128.175 56.5371 128.444C56.7467 128.714 56.6868 129.073 56.4172 129.283C53.0929 131.798 48.7503 136.381 46.0848 139.286C53.2726 135.572 61.0593 133.775 67.4984 132.278C70.1638 131.649 72.6796 131.08 74.8659 130.421C83.3414 127.905 90.649 124.641 90.7089 124.611C91.0084 124.461 91.3678 124.611 91.4876 124.91C91.6373 125.21 91.4876 125.569 91.1881 125.689C91.1282 125.719 83.7607 129.013 75.1953 131.559C72.979 132.218 70.4334 132.817 67.768 133.416C60.4604 135.123 51.3858 137.219 43.5391 142.071C43.4493 142.131 43.3295 142.161 43.2097 142.161V142.191Z" fill="#191935"/>
<path d="M111.164 105.563C96.1596 111.254 74.9257 121.886 56.0279 128.804C50.8167 132.727 43.2097 141.592 43.2097 141.592C53.9914 134.913 66.7796 133.685 75.0156 130.99C84.6891 127.845 91.2779 124.611 102.479 121.227C113.68 117.842 130.002 118.232 130.002 118.232C131.41 117.004 132.877 115.866 134.434 114.847L116.495 101.85L111.194 105.563H111.164Z" fill="#49488A"/>
<path d="M56.028 128.804C74.237 106.312 102.149 92.3259 102.149 92.3259L129.164 107.181C66.9594 129.463 55.998 128.774 55.998 128.774L56.028 128.804Z" fill="#8588D1"/>
<path d="M56.0278 129.403C55.9081 129.403 55.7584 129.373 55.6386 129.283C55.369 129.073 55.3391 128.684 55.5487 128.444C73.608 106.102 101.61 91.9664 101.88 91.8167C102.179 91.6669 102.539 91.8166 102.688 92.0862C102.838 92.3857 102.689 92.745 102.419 92.8947C102.149 93.0445 74.3866 107.061 56.4771 129.193C56.3573 129.343 56.1776 129.403 55.9979 129.403H56.0278Z" fill="#191935"/>
<path d="M96.4892 89.7202C96.2196 89.7202 96.01 89.5404 95.9202 89.3008C95.8303 88.9714 96.01 88.6419 96.3095 88.5521C96.4293 88.5221 99.4841 87.5938 107.121 87.4141C107.451 87.4141 107.72 87.6836 107.72 88.013C107.72 88.3425 107.48 88.612 107.121 88.612C99.6638 88.7917 96.6689 89.6902 96.6389 89.6902C96.579 89.6902 96.5191 89.6902 96.4592 89.6902L96.4892 89.7202Z" fill="white"/>
<path d="M99.514 89.4805C94.9617 89.6003 94.8419 93.3439 94.8419 93.3439C96.4891 92.655 98.1962 92.5653 98.1962 92.5653C97.4475 94.9313 98.1063 97.417 98.1063 97.417C98.1063 97.417 99.4541 96.249 100.173 95.4105C100.173 95.4105 101.251 96.249 102.359 96.818C102.359 96.818 104.635 92.655 105.204 90.948C105.204 90.948 101.79 89.4206 99.5439 89.4805H99.514Z" fill="#6A6DB8"/>
<path d="M106.462 92.0863C106.342 92.0863 106.223 92.0564 106.103 91.9666C106.013 91.9067 100.323 87.9533 92.7456 90.5589C92.4461 90.6787 92.0867 90.499 91.9969 90.1995C91.8771 89.9 92.0568 89.5406 92.3563 89.4507C100.532 86.6056 106.552 90.8285 106.822 91.0081C107.091 91.1878 107.151 91.5771 106.971 91.8467C106.852 91.9964 106.672 92.0863 106.492 92.0863H106.462Z" fill="#49488A"/>
<g opacity="0.2">
<path d="M146.474 87.2645C147.253 86.6955 155.189 86.2163 158.184 87.2346C161.179 88.2528 161.149 102.359 160.221 103.317C159.262 104.336 150.577 105.264 149.798 105.084C148.99 104.934 144.168 88.9117 146.474 87.2645Z" fill="#DEF5FF"/>
</g>
<path d="M150.008 105.683C149.858 105.683 149.739 105.683 149.679 105.683C149.349 105.623 148.99 105.533 147.852 102.089C147.163 99.9928 146.504 97.5369 146.025 95.3507C144.438 87.9832 145.695 87.0847 146.115 86.7852C147.163 86.0365 155.339 85.6472 158.364 86.6654C159.322 86.9949 160.041 88.1629 160.55 90.2593C161.568 94.3923 161.628 102.718 160.64 103.736C159.502 104.934 151.805 105.713 149.978 105.713L150.008 105.683ZM150.098 104.515C151.565 104.545 158.963 103.646 159.801 102.928C160.34 101.939 160.52 93.2842 159.083 89.3609C158.633 88.1629 158.214 87.8633 158.004 87.8034C155.099 86.8151 147.582 87.3843 146.834 87.7736C146.774 87.8036 146.594 88.0131 146.504 88.7019C146.025 92.5653 149.229 103.107 150.098 104.515Z" fill="black"/>
<path d="M96.8784 94.4224C96.8784 94.4224 107.9 83.4311 117.903 82.4727C127.127 81.6042 137.16 86.1266 147.283 92.7154C182.503 115.566 203.557 162.616 207.989 185.647C210.445 198.376 202.628 194.422 196.729 185.348C157.765 125.42 123.833 153.901 101.491 112.841" fill="#8588D1"/>
<path d="M115.746 130.032C134.285 143.898 162.287 138.926 189.631 175.315L194.722 174.835C170.254 136.56 145.336 142.67 115.746 130.002V130.032Z" fill="#49488A"/>
<path d="M204.515 173.727C197.567 169.505 191.278 170.673 186.785 171.721C186.785 171.721 194.602 182.053 197.717 186.606C205.563 198.076 209.397 193.194 208.678 188.343C208.109 184.419 205.833 179.358 204.515 173.727Z" fill="#49488A"/>
<path d="M142.161 89.8401C187.654 115.177 206.162 176.632 208.139 187.504C208.139 187.504 208.349 192.595 205.713 193.134C205.713 182.562 197.867 154.38 180.436 130.062C169.415 114.698 156.657 102.119 142.191 89.8701L142.161 89.8401Z" fill="#DCE5EA"/>
<path d="M205.683 193.733C205.533 193.733 205.414 193.674 205.294 193.584C205.144 193.464 205.084 193.314 205.084 193.134C205.084 188.552 203.467 179.238 199.005 166.959C195.68 157.795 189.66 144.018 179.897 130.421C170.104 116.764 158.334 104.395 141.742 90.3492C141.502 90.1396 141.472 89.8102 141.622 89.5407C141.772 89.2712 142.131 89.2112 142.401 89.361C152.943 95.231 162.826 103.497 171.781 113.919C179.178 122.515 185.947 132.577 191.937 143.868C202.838 164.413 207.78 182.652 208.678 187.444C208.678 187.444 208.678 187.504 208.678 187.534C208.678 187.773 208.888 193.134 205.773 193.763C205.743 193.763 205.683 193.763 205.653 193.763L205.683 193.733ZM148.001 94.1228C161.838 106.342 172.14 117.513 180.885 129.702C190.739 143.449 196.788 157.315 200.143 166.54C203.737 176.423 206.043 186.126 206.282 192.206C207.39 191.248 207.57 188.702 207.54 187.594C206.642 182.802 201.73 164.773 190.948 144.407C184.988 133.206 178.28 123.203 170.942 114.668C163.844 106.402 156.147 99.5137 148.031 94.1228H148.001Z" fill="#DCE5EA"/>
<path d="M206.133 194.362C203.198 194.362 199.065 190.08 196.189 185.677C175.195 153.392 155.788 146.953 138.657 141.263C123.952 136.381 111.284 132.158 100.922 113.141C100.772 112.841 100.862 112.482 101.161 112.332C101.461 112.182 101.82 112.272 101.97 112.572C112.093 131.2 124.581 135.333 139.017 140.125C156.327 145.875 175.944 152.404 197.178 185.048C201.011 190.918 204.994 193.763 206.642 193.104C207.9 192.595 208.169 189.93 207.36 185.797C205.384 175.524 199.424 157.944 188.642 139.466C180.436 125.42 166.54 105.983 146.923 93.2844C135.093 85.6174 125.899 82.383 117.903 83.1317C108.229 84.0302 97.3576 94.7818 97.2678 94.9016C97.0282 95.1412 96.6688 95.1412 96.4292 94.9016C96.1896 94.662 96.1896 94.3027 96.4292 94.0631C96.8784 93.6139 107.72 82.892 117.813 81.9636C126.079 81.1849 135.543 84.4793 147.582 92.296C167.379 105.144 181.395 124.731 189.661 138.897C200.532 157.495 206.522 175.225 208.528 185.617C209.487 190.589 208.978 193.494 207.061 194.243C206.761 194.362 206.432 194.422 206.073 194.422L206.133 194.362Z" fill="#191935"/>
<path d="M125.3 103.467C123.623 103.467 121.706 102.958 119.61 101.46C119.34 101.281 119.28 100.891 119.46 100.622C119.64 100.352 120.029 100.292 120.299 100.472C127.037 105.294 131.739 98.9146 131.949 98.645C132.128 98.3755 132.518 98.3156 132.787 98.4953C133.057 98.675 133.117 99.0643 132.937 99.3338C132.877 99.4237 131.53 101.28 129.223 102.478C128.175 103.018 126.857 103.467 125.3 103.467Z" fill="#191935"/>
<path d="M120.059 86.1265C119.939 86.1265 119.789 86.0964 119.699 86.0065C119.43 85.7969 119.4 85.4376 119.61 85.168C123.473 80.1965 128.445 79.2381 128.654 79.2082C128.984 79.1483 129.283 79.358 129.343 79.6874C129.403 80.0168 129.193 80.3163 128.864 80.3762C128.804 80.3762 124.132 81.3046 120.538 85.8868C120.418 86.0365 120.239 86.1265 120.059 86.1265Z" fill="#191935"/>
<g opacity="0.2">
<path d="M135.513 87.6837C125.3 85.9766 116.705 92.0563 113.23 95.0212C112.152 95.9197 111.613 97.2674 111.793 98.6151C112.332 102.658 113.41 106.821 114.249 109.786C115.027 112.452 117.573 114.159 120.448 113.919C127.816 113.29 133.416 110.056 136.651 107.63C138.687 106.102 139.735 103.676 139.406 101.281C137.998 90.9781 135.513 87.7137 135.513 87.7137V87.6837Z" fill="#DEF5FF"/>
</g>
<path d="M154.47 81.8136C154.321 81.8136 154.171 81.7538 154.051 81.634C151.535 79.0884 146.863 78.5192 146.803 78.5192C146.474 78.4893 146.234 78.1899 146.294 77.8604C146.324 77.531 146.624 77.2913 146.953 77.3512C147.163 77.3512 152.075 77.9802 154.89 80.8254C155.129 81.065 155.129 81.4243 154.89 81.6639C154.77 81.7837 154.62 81.8436 154.47 81.8436V81.8136Z" fill="#191935"/>
<path d="M119.909 114.548C117.004 114.548 114.489 112.721 113.68 109.966C112.841 107.121 111.733 102.838 111.194 98.7051C110.985 97.1777 111.613 95.6503 112.841 94.602C116.166 91.7569 125.061 85.3778 135.603 87.1448C135.752 87.1448 135.902 87.2645 135.992 87.3843C136.112 87.534 138.598 90.8884 140.005 101.221C140.365 103.826 139.227 106.492 137.01 108.139C133.566 110.715 127.906 113.919 120.508 114.548C120.299 114.548 120.119 114.548 119.909 114.548ZM131.949 88.0133C123.413 88.0133 116.435 93.1046 113.62 95.5005C112.692 96.2792 112.242 97.4173 112.392 98.5554C112.931 102.628 114.009 106.821 114.848 109.666C115.537 112.062 117.843 113.59 120.418 113.35C127.546 112.751 132.997 109.666 136.321 107.181C138.178 105.773 139.137 103.557 138.837 101.371C137.669 92.7153 135.692 89.0914 135.183 88.2828C134.105 88.1031 133.027 88.0432 131.979 88.0432L131.949 88.0133Z" fill="black"/>
<path d="M135.513 88.283C135.453 88.283 135.363 88.283 135.303 88.2531C135.004 88.1333 134.824 87.8039 134.944 87.4745C135.183 86.8156 136.052 84.6892 137.13 84.2999C138.028 83.9704 143.18 83.5512 144.348 84.1801C145.336 84.7192 146.774 86.6658 146.953 86.9053C147.133 87.1749 147.103 87.5344 146.833 87.744C146.564 87.9537 146.205 87.8938 145.995 87.6242C145.456 86.8755 144.348 85.5576 143.809 85.2581C143.15 84.9287 138.448 85.1384 137.579 85.4679C137.19 85.6176 136.471 86.8755 136.082 87.9237C135.992 88.1633 135.752 88.313 135.513 88.313V88.283Z" fill="black"/>
<path d="M109.847 89.271C109.847 89.271 97.777 81.4541 94.6923 81.8135C93.7039 81.9333 89.9304 86.3059 89.3913 90.379C88.8223 94.6917 91.5476 98.7648 92.8354 99.0942C95.0217 99.6632 99.7536 98.3155 99.7536 98.3155" fill="#D2D2FB"/>
<path d="M108.259 90.2892C108.169 90.2892 108.049 90.2891 107.96 90.1992C100.742 85.8866 95.8002 84.1795 95.7703 84.1496C95.4708 84.0298 95.291 83.7004 95.4108 83.4009C95.5306 83.1014 95.86 82.9216 96.1595 83.0414C96.3692 83.1013 101.251 84.8084 108.588 89.181C108.858 89.3607 108.978 89.7201 108.798 89.9897C108.678 90.1694 108.499 90.2892 108.289 90.2892H108.259Z" fill="white"/>
<path d="M94.153 99.843C93.6139 99.843 93.1048 99.7831 92.6555 99.6933C91.0083 99.244 88.1332 94.9015 88.7621 90.3193C89.3312 86.1264 93.1647 81.3944 94.6022 81.2446C94.6921 81.2446 94.752 81.2446 94.8418 81.2446C98.3459 81.2446 108.918 88.0132 110.146 88.8218C110.415 89.0015 110.505 89.3608 110.325 89.6603C110.146 89.9598 109.786 90.0198 109.487 89.8401C104.695 86.7553 96.8185 82.233 94.722 82.4726C93.9733 82.6822 90.4393 86.6954 89.9302 90.5288C89.3911 94.6319 91.9966 98.3455 92.955 98.5851C94.6022 99.0343 98.2859 98.1659 99.5438 97.8065C99.8732 97.7167 100.203 97.8964 100.293 98.2258C100.382 98.5552 100.203 98.8847 99.8733 98.9745C99.7235 99.0344 96.5489 99.9328 94.1231 99.9328L94.153 99.843Z" fill="#49488A"/>
<path d="M101.521 87.6536C97.1181 84.3293 93.4344 86.9348 93.4344 86.9348C95.2014 87.4739 96.609 88.5222 96.609 88.5222C94.4826 89.9298 93.3745 92.2957 93.3745 92.2957C93.3745 92.2957 95.2013 92.2658 96.3095 92.0562C96.3095 92.0562 96.609 93.4038 97.148 94.5719C97.148 94.5719 102.569 92.6551 104.126 91.6967C104.126 91.6967 103.407 89.0313 101.521 87.6536Z" fill="#6A6DB8"/>
<path d="M105.144 93.1344C104.905 93.1344 104.695 93.0145 104.605 92.7749C104.575 92.6851 101.131 85.3177 93.0451 83.5507C92.7156 83.4908 92.506 83.1614 92.5958 82.8319C92.6557 82.5025 92.9851 82.2928 93.3146 82.3827C102 84.2695 105.564 91.9663 105.714 92.2957C105.863 92.5952 105.714 92.9546 105.414 93.0744C105.324 93.1044 105.264 93.1344 105.174 93.1344H105.144Z" fill="#49488A"/>
<path d="M200.412 182.682C201.071 185.198 202.509 186.605 203.527 187.803C204.096 188.492 203.078 189.421 202.269 188.312C200.532 185.917 200.412 182.682 200.412 182.682Z" fill="black"/>
<path d="M203.078 189.421C202.598 189.421 202.149 189.151 201.79 188.672C199.963 186.156 199.813 182.832 199.813 182.682C199.813 182.383 200.023 182.113 200.322 182.083C200.622 182.053 200.921 182.233 200.981 182.532C201.52 184.539 202.569 185.797 203.497 186.875C203.647 187.055 203.826 187.264 203.976 187.444C204.276 187.803 204.366 188.283 204.186 188.702C204.036 189.091 203.647 189.391 203.227 189.451C203.167 189.451 203.138 189.451 203.078 189.451V189.421ZM202.359 187.354C202.479 187.564 202.599 187.773 202.748 187.953C202.928 188.193 203.048 188.223 203.078 188.223C203.078 188.223 203.078 188.223 203.048 188.193C202.898 188.013 202.748 187.833 202.599 187.654C202.509 187.564 202.449 187.474 202.359 187.384V187.354Z" fill="black"/>
<path d="M124.911 136.052C124.791 136.052 124.671 136.022 124.551 135.932C122.245 134.255 120.478 131.32 119.28 127.247C118.412 124.252 118.202 121.736 118.202 121.646C118.202 121.317 118.412 121.017 118.741 120.987C119.071 120.987 119.37 121.197 119.4 121.526C119.4 121.616 120.239 131.29 125.24 134.944C125.51 135.123 125.569 135.513 125.36 135.782C125.24 135.932 125.06 136.022 124.881 136.022L124.911 136.052Z" fill="#191935"/>
<path d="M130.391 188.133C136.411 193.015 146.384 197.717 146.384 197.717C140.574 198.585 136.861 198.166 136.861 198.166" fill="#DDDCFC"/>
<path d="M139.256 198.884C137.759 198.884 136.89 198.794 136.801 198.794C136.471 198.764 136.231 198.465 136.261 198.136C136.291 197.806 136.591 197.566 136.92 197.596C136.95 197.596 139.825 197.896 144.348 197.387C141.173 195.8 134.494 192.235 130.002 188.612C129.733 188.402 129.703 188.013 129.912 187.773C130.122 187.504 130.511 187.474 130.751 187.683C136.651 192.475 146.534 197.117 146.624 197.177C146.863 197.297 147.013 197.537 146.953 197.806C146.923 198.076 146.714 198.285 146.444 198.315C143.389 198.764 140.904 198.884 139.196 198.884H139.256Z" fill="#7481BA"/>
<path d="M132.308 195.171C146.384 199.963 150.068 209.816 150.068 209.816C150.068 209.816 144.617 205.803 139.256 204.545" fill="#DDDCFC"/>
<path d="M150.098 210.445C149.978 210.445 149.858 210.415 149.738 210.325C149.678 210.295 144.318 206.372 139.166 205.144C138.837 205.054 138.657 204.755 138.717 204.425C138.807 204.096 139.106 203.916 139.436 203.976C142.91 204.814 146.414 206.731 148.481 208.049C146.594 204.964 141.922 199.094 132.128 195.74C131.829 195.62 131.649 195.291 131.769 194.991C131.889 194.692 132.218 194.512 132.518 194.632C146.714 199.484 150.487 209.247 150.637 209.636C150.727 209.876 150.637 210.175 150.427 210.325C150.307 210.415 150.188 210.445 150.068 210.445H150.098Z" fill="#7481BA"/>
<path d="M53.3625 137.429C33.8357 154.799 10.9546 187.384 26.8875 208.258C45.1265 232.187 94.5724 193.284 94.5724 193.284L88.8221 172.439L83.8206 154.619C73.4882 139.315 53.3925 137.429 53.3925 137.429H53.3625Z" fill="#DDDCFC"/>
<path d="M78.8492 190.738C47.4626 210.894 27.3068 198.615 22.9642 181.813C20.4185 191.307 21.0176 200.562 26.8876 208.258C42.8504 229.163 82.5928 202.089 92.3561 194.931L78.8492 190.768V190.738Z" fill="#9597CF"/>
<path d="M43.9286 216.614C42.6707 216.614 41.4428 216.554 40.2748 216.405C34.4647 215.656 29.7926 213.05 26.4084 208.618C19.1907 199.154 19.1607 186.246 26.2886 171.271C31.7693 159.771 41.7423 146.953 52.9732 136.98C53.2128 136.77 53.6021 136.77 53.8118 137.04C54.0214 137.279 54.0214 137.669 53.7519 137.878C42.6408 147.731 32.7875 160.43 27.3667 171.781C22.515 181.903 18.5917 196.399 27.3667 207.899C30.5413 212.062 34.9439 214.548 40.4245 215.237C41.5327 215.386 42.7007 215.446 43.8687 215.446C65.1924 215.446 93.8836 193.044 94.1831 192.805C94.4526 192.595 94.812 192.655 95.0217 192.895C95.2313 193.164 95.1714 193.524 94.9318 193.733C94.842 193.793 86.7258 200.172 76.004 206.102C63.3955 213.08 52.6138 216.614 43.9286 216.614Z" fill="#7481BA"/>
<path d="M43.9285 216.614C42.6706 216.614 41.4427 216.554 40.2747 216.404C34.4646 215.656 29.7925 213.05 26.4083 208.618C20.7779 201.25 19.4901 191.996 22.5449 181.094C22.6348 180.765 22.9642 180.585 23.2936 180.675C23.6231 180.765 23.8027 181.094 23.7129 181.424C20.7779 191.936 22.0058 200.861 27.3667 207.899C30.5413 212.062 34.9438 214.548 40.4245 215.236C41.5326 215.386 42.7006 215.446 43.8686 215.446C65.1923 215.446 93.8835 193.044 94.183 192.805C94.4526 192.595 94.812 192.655 95.0216 192.894C95.2312 193.164 95.1713 193.523 94.9317 193.733C94.8419 193.793 86.7257 200.172 76.004 206.102C63.3954 213.08 52.6137 216.614 43.9285 216.614Z" fill="#191935"/>
<path d="M25.0907 175.225C18.9811 182.233 18.9211 188.552 18.9211 188.552C18.9211 188.552 23.0242 183.88 26.9475 181.274" fill="#DDDCFC"/>
<path d="M18.9211 189.151C18.8612 189.151 18.7714 189.151 18.7115 189.121C18.4719 189.031 18.3221 188.792 18.3221 188.552C18.3221 188.283 18.442 181.933 24.6414 174.835C24.8511 174.596 25.2403 174.566 25.4799 174.775C25.7195 174.985 25.7495 175.374 25.5399 175.614C21.5866 180.166 20.2089 184.449 19.7597 186.755C21.2871 185.168 23.9825 182.532 26.618 180.765C26.8876 180.586 27.2769 180.645 27.4566 180.945C27.6363 181.214 27.5764 181.604 27.2769 181.784C23.4434 184.299 19.4003 188.911 19.3704 188.941C19.2506 189.061 19.1008 189.151 18.9211 189.151Z" fill="#7481BA"/>
<path d="M31.1701 166C21.6164 172.439 18.7712 180.286 18.7712 180.286C18.7712 180.286 22.1854 178.13 26.2285 176.243" fill="#DDDCFC"/>
<path d="M18.7713 180.885C18.6515 180.885 18.5018 180.855 18.382 180.765C18.1723 180.616 18.1125 180.346 18.2023 180.106C18.3221 179.777 21.2271 172.02 30.8408 165.521C31.1103 165.341 31.4997 165.401 31.6794 165.671C31.8591 165.94 31.7992 166.33 31.5296 166.51C24.9109 170.972 21.5566 176.153 20.1789 178.789C21.5865 177.98 23.7129 176.812 26.019 175.734C26.3185 175.584 26.6778 175.734 26.8276 176.033C26.9773 176.333 26.8276 176.692 26.5281 176.842C22.5748 178.669 19.1606 180.825 19.1307 180.855C19.0408 180.915 18.9211 180.945 18.8013 180.945L18.7713 180.885Z" fill="#7481BA"/>
<path d="M73.7279 180.975C73.7279 180.975 69.9543 186.336 67.9777 194.213C67.9777 194.213 75.7345 192.386 78.8492 190.738C78.8492 190.738 77.8908 192.895 78.1005 197.776C78.1005 197.776 82.8623 197.806 88.2232 197.776C89.1217 197.088 93.9135 193.763 94.5425 193.254C96.0399 192.026 99.4242 192.955 99.4242 192.955C97.9567 189.001 94.3627 188.043 94.3627 188.043C96.9683 186.216 101.041 186.186 101.041 186.186C99.2444 183.191 97.148 182.712 97.148 182.712C97.148 182.712 98.0165 181.754 98.945 180.795C98.945 180.795 91.9968 154.65 84.3898 154.53C76.9924 159.202 71.0923 164.563 71.0923 164.563C71.0923 164.563 64.9229 175.854 64.7432 184.359C64.7432 184.359 69.1756 180.436 73.7279 181.005V180.975Z" fill="#57539F"/>
<path d="M62.1075 171.81C61.9278 171.81 61.7481 171.721 61.6284 171.571C61.4487 171.301 61.5086 170.942 61.7781 170.732C61.838 170.702 66.9593 167.019 70.7328 164.054C71.0024 163.844 71.3618 163.904 71.5714 164.144C71.7811 164.413 71.7211 164.772 71.4816 164.982C67.6481 167.977 62.5268 171.631 62.4669 171.691C62.3471 171.781 62.2273 171.81 62.1075 171.81Z" fill="#7481BA"/>
<path d="M88.1933 198.435C88.0136 198.435 87.8039 198.345 87.6841 198.166C87.5044 197.896 87.5643 197.507 87.8339 197.327C91.7273 194.692 94.1231 192.775 94.1531 192.775C95.2912 191.846 97.148 191.936 98.3759 192.116C96.8785 189.361 94.3029 188.642 94.1831 188.612C93.9734 188.552 93.7937 188.372 93.7637 188.133C93.7338 187.893 93.8236 187.684 94.0033 187.534C95.9201 186.186 98.5257 185.767 99.9632 185.617C98.4957 183.64 97.0282 183.281 96.9982 183.281C96.7886 183.221 96.6389 183.071 96.549 182.862C96.4891 182.652 96.5491 182.442 96.6689 182.293C96.6689 182.293 97.5673 181.334 98.4658 180.376C98.7054 180.136 99.0647 180.136 99.3043 180.376C99.5439 180.616 99.5439 180.975 99.3043 181.215C98.8551 181.694 98.4358 182.143 98.1063 182.502C98.9749 182.952 100.293 183.91 101.491 185.887C101.61 186.066 101.61 186.306 101.491 186.486C101.401 186.665 101.191 186.785 100.981 186.785C100.952 186.785 98.0165 186.815 95.6505 187.953C96.9383 188.612 98.8851 189.99 99.9333 192.745C100.023 192.955 99.9632 193.194 99.8135 193.374C99.6638 193.554 99.4242 193.613 99.2145 193.554C98.346 193.314 95.9201 192.895 94.8719 193.733C94.842 193.733 92.3861 195.68 88.4927 198.345C88.4029 198.405 88.2831 198.435 88.1633 198.435H88.1933Z" fill="#191935"/>
<path d="M71.0923 165.132C70.9425 165.132 70.7628 165.072 70.643 164.922C70.4334 164.683 70.4334 164.293 70.673 164.084C70.7329 164.024 76.7227 158.663 84.0602 153.991C84.3298 153.811 84.7191 153.901 84.8988 154.17C85.0785 154.44 84.9886 154.829 84.7191 155.009C77.4714 159.591 71.5415 164.922 71.4816 164.952C71.3618 165.042 71.2121 165.102 71.0923 165.102V165.132Z" fill="#191935"/>
<path d="M108.019 177.98C104.426 179.507 98.4358 181.184 93.2247 180.735C93.2247 180.735 90.5591 178.609 88.313 177.411C88.313 177.411 90.1998 173.158 93.1048 171.301C93.1048 171.301 89.6008 170.373 84.5693 171.331C84.5693 171.331 87.3246 167.078 91.9068 166.39C91.9068 166.39 87.6841 164.802 84.2998 165.401C84.2998 165.401 87.2348 160.729 89.6308 157.944C89.6308 157.944 85.0485 159.95 83.1617 160.31C83.1617 160.31 83.9704 156.716 84.9587 154.739C86.9353 150.816 100.382 148.869 106.252 149.139C106.252 149.139 115.567 165.401 107.989 178.01L108.019 177.98Z" fill="#DDDCFC"/>
<path d="M95.0514 181.394C94.4225 181.394 93.7936 181.394 93.1946 181.304C92.8651 181.304 92.6255 180.975 92.6555 180.646C92.6854 180.316 92.9849 180.077 93.3143 180.107C98.2859 180.556 104.066 178.998 107.81 177.411C108.109 177.291 108.469 177.411 108.588 177.741C108.708 178.04 108.588 178.399 108.259 178.519C104.845 179.987 99.7534 181.394 95.0514 181.394Z" fill="#7481BA"/>
<path d="M109.517 163.635C110.086 163.185 110.805 162.616 111.523 162.137C114.159 158.693 117.543 156.716 118.861 157.375C120.748 158.304 120.897 165.042 118.502 169.684C115.836 174.836 107.989 177.98 107.989 177.98" fill="#DDDCFC"/>
<path d="M108.02 178.579C107.78 178.579 107.57 178.429 107.451 178.19C107.331 177.89 107.451 177.531 107.78 177.411C107.87 177.381 115.447 174.296 117.993 169.414C119.76 165.97 120.059 161.358 119.31 159.052C119.131 158.453 118.861 158.034 118.592 157.914C117.813 157.525 114.698 158.962 112.003 162.496C111.973 162.556 111.913 162.586 111.853 162.646C111.254 163.035 110.565 163.545 109.876 164.114C109.607 164.323 109.247 164.293 109.038 164.024C108.828 163.754 108.858 163.395 109.128 163.185C109.816 162.616 110.475 162.137 111.104 161.718C113.77 158.244 117.424 156.027 119.131 156.866C119.7 157.165 120.149 157.764 120.448 158.693C121.287 161.268 120.988 166.21 119.041 169.954C116.315 175.225 108.529 178.399 108.229 178.519C108.169 178.519 108.079 178.549 108.02 178.549V178.579Z" fill="#7481BA"/>
<path d="M118.531 169.684C120.927 165.072 120.748 158.334 118.891 157.375C117.573 156.716 114.159 158.693 111.553 162.137C111.553 162.137 117.723 162.706 118.531 169.684Z" fill="#3F3E77"/>
<path d="M118.532 170.283C118.442 170.283 118.352 170.283 118.262 170.223C117.962 170.073 117.843 169.714 117.992 169.414C119.759 165.97 120.059 161.358 119.31 159.052C119.131 158.453 118.861 158.034 118.591 157.914C117.813 157.525 114.698 158.962 112.003 162.496C111.793 162.766 111.434 162.826 111.164 162.616C110.895 162.406 110.865 162.047 111.044 161.777C113.74 158.243 117.423 155.997 119.131 156.836C119.7 157.135 120.149 157.734 120.448 158.663C121.287 161.238 120.987 166.18 119.041 169.923C118.921 170.133 118.711 170.253 118.502 170.253L118.532 170.283Z" fill="#191935"/>
<path d="M105.983 157.525C105.983 157.525 108.618 155.937 111.494 154.32C113.47 151.565 117.244 148.121 118.472 148.959C120.209 150.127 121.047 159.172 117.423 162.915C115.716 164.682 109.547 167.857 109.547 167.857" fill="#DDDCFC"/>
<path d="M109.517 168.456C109.307 168.456 109.097 168.336 108.978 168.127C108.828 167.827 108.948 167.468 109.247 167.318C109.307 167.288 115.357 164.143 116.974 162.496C119.16 160.25 119.55 155.997 119.25 153.032C119.011 150.816 118.442 149.678 118.112 149.468C117.543 149.079 114.219 151.565 111.973 154.71C111.913 154.769 111.853 154.829 111.763 154.889C108.948 156.446 106.282 158.064 106.282 158.064C106.013 158.243 105.623 158.154 105.474 157.854C105.294 157.585 105.384 157.195 105.683 157.045C105.683 157.045 108.289 155.458 111.104 153.901C112.122 152.493 113.59 150.966 114.908 149.858C116.735 148.36 117.992 147.911 118.831 148.48C119.999 149.259 120.358 151.834 120.478 152.913C120.808 156.147 120.328 160.789 117.873 163.335C116.106 165.132 110.086 168.276 109.846 168.396C109.756 168.456 109.667 168.456 109.577 168.456H109.517Z" fill="#7481BA"/>
<path d="M117.394 162.885C121.017 159.142 120.179 150.127 118.442 148.929C117.244 148.12 113.44 151.565 111.464 154.29C111.464 154.29 116.824 155.817 117.364 162.855L117.394 162.885Z" fill="#3F3E77"/>
<path d="M117.393 163.485C117.244 163.485 117.094 163.425 116.974 163.305C116.735 163.065 116.735 162.706 116.974 162.466C119.16 160.22 119.55 155.967 119.25 153.002C119.011 150.786 118.442 149.648 118.112 149.438C118.022 149.379 117.304 149.379 115.626 150.756C114.339 151.804 112.931 153.302 111.973 154.68C111.793 154.949 111.404 155.009 111.134 154.829C110.865 154.65 110.805 154.26 110.984 153.991C112.033 152.553 113.5 150.966 114.878 149.858C116.705 148.36 117.962 147.911 118.801 148.48C119.969 149.259 120.328 151.834 120.448 152.913C120.778 156.147 120.299 160.789 117.843 163.335C117.723 163.455 117.573 163.515 117.423 163.515L117.393 163.485Z" fill="#191935"/>
<path d="M105.773 160.19C108.678 158.903 114.788 155.458 116.495 153.272C118.891 150.247 118.412 144.018 117.423 143.119C116.525 142.311 112.302 143.988 108.948 148.091C108.948 148.091 103.767 148.271 98.9749 150.487" fill="#DDDCFC"/>
<path d="M105.773 160.789C105.534 160.789 105.324 160.669 105.234 160.43C105.084 160.13 105.234 159.771 105.534 159.651C108.349 158.393 114.399 154.979 116.046 152.913C118.352 150.008 117.693 144.168 117.064 143.599C116.585 143.269 112.811 144.377 109.457 148.48C109.337 148.6 109.187 148.69 109.008 148.69C108.948 148.69 103.886 148.87 99.2743 151.026C98.9748 151.176 98.6155 151.026 98.4657 150.726C98.316 150.427 98.4657 150.068 98.7652 149.918C103.048 147.911 107.54 147.522 108.708 147.462C111.404 144.257 114.668 142.43 116.555 142.311C117.124 142.281 117.573 142.371 117.873 142.64C119.19 143.838 119.52 150.397 117.004 153.602C115.147 155.968 108.858 159.442 106.043 160.7C105.953 160.729 105.893 160.759 105.803 160.759L105.773 160.789Z" fill="#7481BA"/>
<path d="M116.495 153.302C118.891 150.277 118.412 144.048 117.423 143.149C116.525 142.341 112.302 144.018 108.948 148.121C108.948 148.121 113.949 148.75 116.465 153.302H116.495Z" fill="#3F3E77"/>
<path d="M116.495 153.901C116.375 153.901 116.226 153.871 116.136 153.781C115.866 153.572 115.836 153.212 116.046 152.943C118.352 150.037 117.693 144.197 117.064 143.628C116.585 143.299 112.811 144.407 109.457 148.51C109.247 148.78 108.858 148.81 108.618 148.6C108.349 148.39 108.319 148.001 108.529 147.761C111.254 144.437 114.638 142.55 116.555 142.401C117.124 142.371 117.573 142.46 117.873 142.73C119.19 143.928 119.52 150.487 117.004 153.691C116.884 153.841 116.705 153.931 116.525 153.931L116.495 153.901Z" fill="#191935"/>
<path d="M100.323 152.253C100.323 152.253 103.557 149.109 104.485 147.821C107.121 144.317 107.99 138.896 107.061 137.848C105.534 136.141 101.97 137.608 98.4358 140.304C98.4358 140.304 88.4029 147.072 84.3597 154.53" fill="#DDDCFC"/>
<path d="M84.3896 155.129C84.2998 155.129 84.21 155.129 84.0902 155.069C83.7907 154.919 83.7008 154.56 83.8506 154.261C85.5576 151.116 88.4927 147.732 92.5358 144.198C95.4109 141.682 97.8667 140.005 98.1063 139.855C102.449 136.501 105.863 135.632 107.51 137.459C108.738 138.837 107.63 144.617 104.965 148.211C104.006 149.499 100.862 152.583 100.742 152.703C100.502 152.943 100.113 152.943 99.9032 152.703C99.6636 152.464 99.6636 152.074 99.9032 151.865C99.9331 151.835 103.108 148.72 104.006 147.492C106.552 144.108 107.241 138.987 106.612 138.268C105.504 137.01 102.419 137.998 98.8251 140.813C98.8251 140.813 98.825 140.813 98.7951 140.813C98.7052 140.873 88.852 147.582 84.9287 154.83C84.8089 155.039 84.6292 155.129 84.3896 155.129Z" fill="#7481BA"/>
<path d="M98.4658 140.304C101.551 138.298 105.414 136.231 107.091 137.848C108.469 139.166 107.151 144.317 104.516 147.821C103.318 142.67 98.4658 140.304 98.4658 140.304Z" fill="#3F3E77"/>
<path d="M104.515 148.42C104.396 148.42 104.276 148.39 104.156 148.3C103.886 148.091 103.826 147.731 104.036 147.462C105.234 145.875 106.192 143.868 106.672 141.921C107.181 139.855 106.971 138.627 106.642 138.238C105.474 136.86 102.269 137.908 98.8849 140.783C98.6453 140.993 98.256 140.963 98.0463 140.723C97.8367 140.484 97.8666 140.095 98.1062 139.885C102.179 136.471 105.893 135.512 107.57 137.489C109.038 139.226 107.78 144.527 105.024 148.211C104.905 148.36 104.725 148.45 104.545 148.45L104.515 148.42Z" fill="#191935"/>
</svg>
