<svg width="256" height="256" viewBox="0 0 256 256" fill="none" xmlns="http://www.w3.org/2000/svg">
<g opacity="0.2">
<path d="M127.747 243.865C170.307 243.865 204.809 240.606 204.809 236.586C204.809 232.566 170.307 229.308 127.747 229.308C85.1875 229.308 50.6859 232.566 50.6859 236.586C50.6859 240.606 85.1875 243.865 127.747 243.865Z" fill="#6D6FBF"/>
</g>
<path d="M84.218 118.488C70.0575 106.14 52.8383 145.11 28.8221 139.105C-0.631772 131.742 -3.80371 87.7312 11.348 68.0197C12.0277 74.9018 17.5786 83.3697 17.5786 83.3697C21.8551 80.1411 28.3973 78.9233 28.3973 78.9233C26.3298 80.5943 24.9138 84.5592 24.9138 84.5592C24.9138 84.5592 33.4951 82.0103 43.719 84.361C43.719 84.361 45.5598 88.949 47.0325 94.0184L53.1215 92.8856C52.1869 97.4736 51.5355 104.214 53.1215 110.671C53.1215 110.671 73.0878 115.797 74.3339 82.6617L84.218 118.459V118.488Z" fill="#6D6FBF"/>
<path d="M84.2179 118.488L74.4471 83.0865C74.4188 83.0865 74.3621 83.1431 74.3338 83.1715C73.9373 92.2342 72.1248 98.3798 69.7175 102.543C70.4821 109.991 71.8133 112.597 71.8133 112.597C56.6332 124.209 35.3358 119.394 35.3358 119.394C37.7148 123.925 45.5314 125.54 45.5314 125.54C27.3493 131.289 7.04309 122.396 4.86237 81.104C-1.73642 102.798 4.80573 133.13 28.7936 139.134C52.8382 145.138 70.029 106.168 84.1895 118.516L84.2179 118.488Z" fill="#49488A"/>
<path d="M33.9482 140.295C32.2206 140.295 30.4647 140.097 28.6805 139.643C17.607 136.868 9.16726 128.57 4.86247 116.25C-0.801729 99.994 1.74718 79.5462 10.8949 67.6797C11.0365 67.5098 11.2631 67.4248 11.4896 67.4814C11.7162 67.5381 11.8861 67.7364 11.8861 67.9629C12.4525 73.6838 16.5308 80.6507 17.7203 82.5765C22.0534 79.5745 28.0008 78.4133 28.2557 78.385C28.5105 78.3284 28.7654 78.47 28.8787 78.6966C28.992 78.9231 28.9354 79.2063 28.7088 79.3763C27.406 80.4241 26.3581 82.4916 25.82 83.7377C28.4822 83.143 35.5624 81.9252 43.8039 83.8227C43.9738 83.851 44.1437 83.9926 44.2004 84.1625C44.2004 84.2192 45.928 88.5239 47.4007 93.3952L52.9799 92.3473C53.1782 92.319 53.3481 92.3473 53.4897 92.5172C53.6313 92.6588 53.6879 92.8571 53.6313 93.027C52.725 97.2469 52.0169 103.647 53.5746 110.218C54.8774 110.444 59.9469 111.067 64.5915 107.584C70.1991 103.392 73.286 95.0095 73.7675 82.6899C73.7675 82.3783 74.0507 82.1517 74.3623 82.1517C74.6738 82.1517 74.9287 82.435 74.9003 82.7465C74.4189 95.4343 71.162 104.129 65.2712 108.519C59.4371 112.852 53.2348 111.351 52.9799 111.266C52.7817 111.209 52.6117 111.067 52.5834 110.841C50.9691 104.355 51.5355 98.0398 52.3851 93.6217L47.1457 94.613C46.8625 94.6696 46.5793 94.4997 46.4944 94.2165C45.2482 89.9117 43.7189 85.9468 43.2941 84.8706C33.4384 82.6899 25.1403 85.0971 25.0554 85.1254C24.8571 85.1821 24.6305 85.1254 24.4889 84.9838C24.3473 84.8422 24.2907 84.6157 24.3757 84.3891C24.4323 84.2475 25.3103 81.8119 26.7263 79.9144C24.5173 80.5091 20.7223 81.7552 17.9468 83.851C17.8335 83.9359 17.6636 83.9926 17.522 83.9643C17.3804 83.9643 17.2388 83.851 17.1538 83.7094C16.9273 83.3695 12.2259 76.091 11.0365 69.4922C2.76673 81.2455 0.614321 100.475 5.99531 115.91C10.1585 127.862 18.315 135.905 29.0203 138.567C40.9718 141.569 51.309 133.073 60.4 125.596C64.8464 121.943 69.0379 118.516 73.0028 116.732C77.5059 114.721 81.3292 115.174 84.6428 118.063C84.8694 118.261 84.8977 118.629 84.6994 118.856C84.5012 119.082 84.133 119.111 83.9064 118.912C77.3076 113.163 69.8026 119.337 61.108 126.446C53.1215 132.988 44.257 140.295 34.0048 140.295H33.9482Z" fill="#191935"/>
<path d="M192.432 81.217C197.445 75.6661 199.399 75.6945 204.384 75.5528C211.124 75.128 215.457 87.2212 209.906 91.1861C204.922 94.7262 198.493 95.2077 198.493 95.2077C190.733 95.8591 185.834 86.5131 192.432 81.2454V81.217Z" fill="#DDDCFC"/>
<path d="M209.907 91.1578C204.922 94.698 198.493 95.1794 198.493 95.1794L209.907 91.1578Z" fill="#DDDCFC"/>
<path d="M198.493 95.7458C198.21 95.7458 197.955 95.5193 197.927 95.2077C197.927 94.8962 198.125 94.613 198.436 94.613C198.493 94.613 204.78 94.1032 209.567 90.7046C209.822 90.5347 210.161 90.5914 210.36 90.8463C210.53 91.1011 210.473 91.441 210.218 91.6393C205.177 95.236 198.776 95.7458 198.522 95.7458C198.522 95.7458 198.521 95.7458 198.493 95.7458Z" fill="#7481BA"/>
<path d="M192.433 81.2171C197.446 75.6662 199.4 75.6945 204.384 75.5529L192.433 81.2171Z" fill="#DDDCFC"/>
<path d="M192.433 81.7834C192.291 81.7834 192.149 81.7268 192.064 81.6418C191.838 81.4436 191.809 81.0755 192.036 80.8489C197.134 75.1847 199.371 75.128 204.214 74.9864H204.412C204.724 74.9864 204.979 75.213 205.007 75.5245C205.007 75.8361 204.78 76.0909 204.469 76.1192H204.271C199.456 76.2608 197.672 76.3175 192.886 81.6135C192.772 81.7268 192.631 81.8118 192.461 81.8118L192.433 81.7834Z" fill="#7481BA"/>
<path d="M204.809 75.6378C205.46 74.4483 206.055 73.8819 206.055 73.8819C206.196 69.6055 209.708 69.2939 211.011 73.0323C211.011 73.0323 211.493 74.7033 211.549 75.4679C211.691 77.2238 208.519 80.2258 208.519 80.2258" fill="#DDDCFC"/>
<path d="M208.519 80.8206C208.377 80.8206 208.207 80.7639 208.122 80.6506C207.896 80.4241 207.924 80.0559 208.122 79.8577C209.284 78.7532 211.068 76.629 210.983 75.5528C210.926 74.9864 210.586 73.712 210.473 73.2305C209.878 71.5596 208.887 70.9365 208.151 71.0498C207.273 71.1914 206.678 72.3243 206.621 73.9386C206.621 74.0802 206.565 74.2218 206.451 74.3351C206.451 74.3351 205.913 74.8732 205.319 75.9494C205.177 76.2326 204.837 76.3176 204.554 76.176C204.271 76.0344 204.186 75.6945 204.327 75.4112C204.809 74.5333 205.262 73.9669 205.517 73.6837C205.658 71.1915 206.876 70.1153 208.009 69.9453C209.482 69.7188 210.869 70.8799 211.577 72.8907C211.577 72.8907 211.577 72.8907 211.577 72.919C211.577 73.004 212.087 74.6749 212.144 75.4962C212.286 77.4504 209.284 80.3958 208.944 80.7073C208.83 80.8206 208.689 80.8772 208.547 80.8772L208.519 80.8206Z" fill="#7481BA"/>
<path d="M207.103 69.039C206.197 69.2373 206.168 71.2764 206.055 73.9103C208.859 74.3918 211.011 73.0607 211.011 73.0607C210.303 70.795 207.952 68.8408 207.103 69.039Z" fill="#3F3E77"/>
<path d="M206.027 74.4483C205.715 74.4483 205.46 74.2218 205.46 73.9102C205.375 71.6162 205.29 69.039 206.905 68.5009C207.301 68.3593 207.811 68.4442 208.349 68.6991C209.397 69.2089 210.756 70.5683 211.521 72.8623C211.606 73.1455 211.464 73.4854 211.153 73.5703C210.869 73.6836 210.53 73.5137 210.445 73.2022C209.793 71.2481 208.632 70.0869 207.839 69.6904C207.499 69.5204 207.301 69.5204 207.244 69.5488C206.423 69.832 206.508 72.1543 206.565 73.8535C206.565 74.1651 206.338 74.42 206.027 74.4483Z" fill="#191935"/>
<path d="M206.168 80.4241C207.443 78.2151 210.19 75.7511 210.19 75.7511C212.455 71.9278 215.826 73.4004 215.146 77.4787C215.146 77.4787 214.749 79.2629 214.41 79.9993C213.645 81.6702 210.246 84.2191 210.246 84.2191" fill="#DDDCFC"/>
<path d="M210.246 84.7856C210.077 84.7856 209.907 84.7006 209.793 84.559C209.595 84.3041 209.652 83.9643 209.907 83.766C210.813 83.0863 213.333 81.0189 213.9 79.7444C214.155 79.2063 214.466 77.847 214.58 77.3655C214.891 75.5246 214.268 74.4484 213.56 74.1652C212.682 73.8537 211.549 74.5617 210.671 76.0344C210.643 76.0911 210.615 76.1194 210.558 76.176C210.558 76.176 207.867 78.5833 206.65 80.7074C206.48 80.9906 206.14 81.0756 205.885 80.9056C205.602 80.764 205.517 80.3959 205.687 80.141C206.905 78.0169 209.312 75.7795 209.765 75.383C211.153 73.089 212.852 72.6925 213.957 73.1173C215.401 73.6554 216.081 75.383 215.712 77.5637C215.712 77.5637 215.712 77.5638 215.712 77.5921C215.712 77.677 215.288 79.4329 214.948 80.1976C214.155 81.9818 210.756 84.5307 210.615 84.644C210.501 84.7289 210.388 84.7572 210.275 84.7572L210.246 84.7856Z" fill="#7481BA"/>
<path d="M213.588 71.8711C212.654 71.6162 211.606 73.4571 210.19 75.7794C212.484 77.6203 215.146 77.5071 215.146 77.5071C215.656 75.0714 214.466 72.126 213.588 71.8711Z" fill="#3F3E77"/>
<path d="M215.118 78.0735C215.089 78.0735 215.061 78.0735 215.004 78.0735C214.693 78.0169 214.495 77.7337 214.551 77.4221C214.948 75.2981 214.466 73.6554 213.928 72.8908C213.702 72.5509 213.503 72.466 213.447 72.466C212.541 72.296 211.436 74.4767 210.643 76.0627C210.501 76.3459 210.162 76.4593 209.878 76.3176C209.595 76.176 209.482 75.8361 209.623 75.5529C210.7 73.4288 211.889 71.0216 213.645 71.3331C214.07 71.4181 214.495 71.7296 214.863 72.2394C215.543 73.2306 216.109 75.1564 215.656 77.6204C215.599 77.9036 215.373 78.0735 215.09 78.0735H215.118Z" fill="#191935"/>
<path d="M206.876 86.2015C208.292 84.4173 211.153 82.4066 211.153 82.4066C214.098 79.093 217.128 81.1604 215.684 85.0403C215.684 85.0403 214.948 86.7113 214.495 87.3627C213.447 88.8637 209.878 91.1861 209.878 91.1861" fill="#DDDCFC"/>
<path d="M209.906 91.7242C209.708 91.7242 209.538 91.6392 209.425 91.4693C209.255 91.2144 209.34 90.8462 209.595 90.6763C209.623 90.6763 213.078 88.4106 214.07 87.0229C214.41 86.5414 215.004 85.267 215.203 84.8139C215.854 83.058 215.457 81.8968 214.778 81.472C213.985 80.9905 212.739 81.4719 211.606 82.7747C211.577 82.803 211.549 82.8314 211.521 82.8597C211.521 82.8597 208.689 84.8422 207.358 86.5414C207.159 86.7963 206.819 86.8246 206.565 86.6264C206.31 86.4281 206.281 86.0883 206.48 85.8334C207.839 84.1058 210.416 82.265 210.841 81.9534C212.654 79.9426 214.381 79.886 215.401 80.4808C216.703 81.2737 217.043 83.1146 216.279 85.182C216.279 85.182 216.279 85.182 216.279 85.2103C216.25 85.267 215.514 86.938 215.033 87.646C213.928 89.2036 210.416 91.4976 210.246 91.6109C210.161 91.6676 210.048 91.6958 209.935 91.6958L209.906 91.7242Z" fill="#7481BA"/>
<path d="M215.231 79.2063C214.381 78.7815 212.993 80.3958 211.153 82.4066C213.078 84.6439 215.684 85.0404 215.684 85.0404C216.619 82.7464 216.052 79.6311 215.231 79.2346V79.2063Z" fill="#3F3E77"/>
<path d="M215.712 85.6067C215.656 85.6067 215.571 85.6068 215.514 85.5785C215.231 85.4652 215.089 85.1253 215.202 84.8421C215.995 82.8313 215.826 81.1321 215.457 80.2825C215.287 79.9143 215.118 79.7727 215.089 79.7727C214.24 79.4328 212.739 81.3586 211.662 82.7746C211.464 83.0295 211.124 83.0579 210.869 82.888C210.614 82.6897 210.586 82.3499 210.756 82.095C212.2 80.2258 213.843 78.0734 215.486 78.7248C215.882 78.8664 216.25 79.2629 216.505 79.8576C216.987 80.9622 217.185 82.9729 216.279 85.2953C216.194 85.5218 215.967 85.6634 215.741 85.6634L215.712 85.6067Z" fill="#191935"/>
<path d="M204.158 87.1079C209.765 83.5111 203.138 75.4396 197.644 78.4133C192.433 81.2171 199.598 90.0533 204.158 87.1079Z" fill="#F7F5FE"/>
<path d="M202.713 91.9508C202.713 91.9508 205.913 90.4498 207.188 89.0904C209.34 86.7681 210.501 83.9643 210.246 83.143C209.907 82.0384 205.064 82.0385 202.43 85.7202C202.43 85.7202 200.844 86.1733 199.909 87.5327" fill="#DDDCFC"/>
<path d="M202.713 92.5172C202.515 92.5172 202.288 92.4039 202.203 92.2056C202.062 91.9224 202.203 91.5826 202.487 91.441C202.515 91.441 205.602 89.9683 206.791 88.6939C208.944 86.3715 209.878 83.8226 209.708 83.3129C209.652 83.2562 209.255 83.0579 208.462 83.0579C206.876 83.0579 204.469 83.8509 202.883 86.0316C202.798 86.1449 202.713 86.2016 202.571 86.2582C202.571 86.2582 201.155 86.6831 200.362 87.8442C200.193 88.0991 199.824 88.1558 199.569 87.9858C199.315 87.8159 199.258 87.4477 199.428 87.1928C200.277 85.975 201.552 85.4086 202.062 85.2387C204.214 82.3783 207.528 81.7269 209.255 81.9818C210.077 82.1234 210.615 82.4632 210.756 82.9447C211.153 84.1625 209.652 87.2211 207.584 89.4585C206.253 90.8746 203.081 92.4039 202.94 92.4606C202.855 92.4889 202.77 92.5172 202.685 92.5172H202.713Z" fill="#7481BA"/>
<path d="M208.264 87.7877C206.027 87.0797 204.695 85.0405 204.129 83.9927C206.735 82.0951 209.963 82.2651 210.246 83.143C210.473 83.8227 209.737 85.8052 208.264 87.7877Z" fill="#3F3E77"/>
<path d="M208.264 88.3541C208.151 88.3541 208.038 88.3257 207.924 88.2408C207.669 88.0425 207.613 87.7027 207.811 87.4478C209.284 85.4653 209.822 83.6811 209.709 83.3129C209.454 82.9731 206.876 82.6899 204.469 84.4458C204.214 84.644 203.874 84.5873 203.676 84.3325C203.478 84.0776 203.534 83.7378 203.789 83.5395C205.857 82.0385 208.434 81.6703 209.765 82.1235C210.445 82.35 210.671 82.7182 210.756 82.9731C211.096 84.0493 209.992 86.3999 208.689 88.1275C208.576 88.2691 208.406 88.3541 208.236 88.3541H208.264Z" fill="#191935"/>
<path d="M138.821 148.055C165.329 98.04 200.901 94.8114 200.901 94.8114L193.141 80.4526C193.141 80.4526 154.029 81.3872 124.377 110.983" fill="#DDDCFC"/>
<path d="M124.519 146.469L138.849 148.055C165.386 98.0398 200.929 94.8112 200.929 94.8112C178.81 94.3581 155.389 109.963 149.724 116.618C149.724 116.618 150.234 114.183 150.744 113.05C150.744 113.05 135.876 120.187 124.547 146.469H124.519Z" fill="#9597CF"/>
<path d="M124.377 111.549C124.235 111.549 124.094 111.492 123.981 111.379C123.754 111.153 123.754 110.813 123.981 110.586C139.387 95.2079 157.371 87.7028 169.719 84.0777C183.115 80.1694 193.027 79.8862 193.112 79.8862C193.424 79.8862 193.679 80.1411 193.679 80.4526C193.679 80.7641 193.452 81.019 193.112 81.019C193.027 81.019 183.228 81.3022 169.974 85.1822C157.739 88.7506 139.982 96.1991 124.745 111.379C124.632 111.492 124.49 111.549 124.349 111.549H124.377Z" fill="#7481BA"/>
<path d="M138.821 148.621C138.736 148.621 138.651 148.621 138.566 148.565C138.283 148.423 138.198 148.083 138.339 147.8C144.4 136.358 151.48 126.418 159.325 118.261C165.613 111.747 172.41 106.338 179.546 102.203C185.89 98.5213 191.356 96.5672 194.811 95.576C198.578 94.4998 200.787 94.2732 200.901 94.2732C201.212 94.2732 201.495 94.4715 201.523 94.783C201.552 95.0945 201.325 95.3777 201.014 95.406C201.014 95.406 198.776 95.6326 195.095 96.6805C191.696 97.6717 186.344 99.5976 180.085 103.223C169.039 109.623 153.01 122.651 139.387 148.338C139.274 148.536 139.076 148.65 138.877 148.65L138.821 148.621Z" fill="#191935"/>
<path d="M125.255 90.3933C125.255 90.3933 166.151 88.2975 149.243 48.11L136.98 49.696C136.98 49.696 115.711 51.0837 111.321 64.961C108.574 73.6555 125.227 90.3933 125.227 90.3933H125.255Z" fill="#5B56A4"/>
<path d="M153.18 68.4728C132.902 79.3197 123.471 62.8936 120.186 54.6805C116.277 56.9462 112.822 60.2314 111.321 64.961C108.574 73.6556 125.227 90.3933 125.227 90.3933C125.227 90.3933 150.971 89.0622 153.18 68.4728Z" fill="#333476"/>
<path d="M125.255 90.9597C125.113 90.9597 124.972 90.903 124.859 90.7897C124.179 90.11 107.979 73.7121 110.811 64.791C112.652 58.9569 117.778 54.3689 125.623 51.5935C131.401 49.5543 136.555 49.1579 136.952 49.1295C137.433 49.0729 149.186 47.5435 149.186 47.5435C149.441 47.5152 149.696 47.6568 149.781 47.8834C155.02 60.3163 155.275 70.4269 150.602 77.932C143.211 89.7702 126.048 90.8747 125.312 90.9313C125.312 90.9313 125.312 90.9313 125.283 90.9313L125.255 90.9597ZM137.037 50.234C136.838 50.2624 116.079 51.7917 111.888 65.1309C109.424 72.9192 123.697 87.9576 125.482 89.7985C127.719 89.6285 142.927 88.0992 149.639 77.3372C154.086 70.2287 153.831 60.5996 148.903 48.7047L137.603 50.1491C137.376 50.1774 137.207 50.2057 137.037 50.2057V50.234Z" fill="#191935"/>
<path d="M134.403 53.1794C134.403 53.1794 132.958 48.9596 135.536 46.2692C140.209 41.4263 144.853 42.6158 151.282 35.8187L156.918 36.2718L158.872 38.2826C157.711 39.2739 151.452 50.4606 149.385 51.282" fill="#5B56A4"/>
<path d="M134.403 53.7458C134.176 53.7458 133.95 53.6042 133.865 53.3493C133.808 53.1511 132.335 48.7614 135.139 45.8726C137.348 43.5786 139.161 42.7573 141.285 41.7944C143.749 40.6898 146.553 39.4154 150.886 35.3938C150.999 35.2806 151.169 35.2239 151.31 35.2522L156.946 35.7053C157.088 35.7053 157.201 35.762 157.314 35.8753L159.269 37.886C159.382 37.9993 159.439 38.1409 159.439 38.3109C159.439 38.4808 159.354 38.6224 159.24 38.7074C158.872 39.0189 157.626 40.9731 156.408 42.8706C153.265 47.7701 150.942 51.2536 149.583 51.7917C149.3 51.905 148.96 51.7633 148.847 51.4801C148.733 51.1969 148.875 50.8571 149.158 50.7438C150.291 50.319 153.52 45.2778 155.445 42.2758C156.691 40.3216 157.541 38.9906 158.107 38.3109L156.663 36.8382L151.48 36.4417C147.119 40.4916 144.258 41.7661 141.738 42.8989C139.727 43.8052 138 44.5699 135.932 46.7222C133.638 49.1295 134.913 53.0095 134.913 53.0378C135.026 53.321 134.856 53.6608 134.544 53.7458C134.488 53.7458 134.431 53.7742 134.374 53.7742L134.403 53.7458Z" fill="#0C0C1C"/>
<path d="M156.861 40.0102C156.861 40.0102 159.637 38.6508 160.458 37.263C161.308 35.8753 160.401 29.1632 159.58 28.9933C158.759 28.8234 155.927 31.7121 153.689 35.1673" fill="#5B56A4"/>
<path d="M159.58 28.9933C160.118 29.1066 160.685 31.8821 160.798 34.2611C159.609 34.4027 157.399 34.3177 155.672 32.4768C157.371 30.3527 158.985 28.8801 159.609 29.0217L159.58 28.9933Z" fill="#232355"/>
<path d="M156.861 40.5766C156.663 40.5766 156.465 40.4634 156.351 40.2651C156.21 39.9819 156.351 39.6421 156.606 39.5005C157.343 39.1323 159.353 37.9995 159.977 36.9516C160.656 35.8471 159.976 30.551 159.382 29.5598C158.674 29.843 156.436 31.9387 154.142 35.4505C153.972 35.7054 153.633 35.7904 153.349 35.6204C153.094 35.4505 153.01 35.1107 153.179 34.8275C154.341 33.0433 158.051 28.0587 159.665 28.3986C160.09 28.4835 160.316 28.9084 160.458 29.2199C161.166 30.8342 161.817 36.0736 160.939 37.518C160.033 39.019 157.201 40.4351 157.088 40.4917C157.003 40.52 156.918 40.5483 156.833 40.5483L156.861 40.5766Z" fill="#0C0C1C"/>
<path d="M155.813 38.9622C155.813 38.9622 159.212 35.3655 159.297 34.3459C159.382 33.3264 157.768 26.7843 155.87 26.8975C154.709 26.9825 153.378 30.6076 152.641 34.2327L150.546 36.6966" fill="#5B56A4"/>
<path d="M155.757 27.0675C157.003 26.9826 158.079 29.1916 158.702 31.7405C157.768 32.2503 155.417 33.2132 153.123 31.6839C153.859 28.7668 154.85 27.1242 155.757 27.0675Z" fill="#232355"/>
<path d="M156.238 39.0756C156.097 39.0756 155.955 39.0189 155.842 38.934C155.615 38.7074 155.615 38.3675 155.842 38.141C157.201 36.6966 158.674 34.8274 158.702 34.3176C158.759 33.6096 157.683 29.0783 156.352 27.7472C156.238 27.6339 156.04 27.464 155.87 27.464C155.417 27.4923 154.143 29.6163 153.151 34.3459C153.151 34.4309 153.095 34.5159 153.038 34.6008L150.942 37.0647C150.744 37.2913 150.376 37.3196 150.149 37.1214C149.923 36.9231 149.894 36.5549 150.093 36.3284L152.075 33.9778C153.52 27.2091 155.162 26.3594 155.813 26.3311C156.267 26.3028 156.748 26.501 157.173 26.9258C158.844 28.5684 159.92 33.468 159.863 34.3743C159.807 35.5354 157.428 38.1126 156.691 38.9056C156.578 39.0189 156.437 39.0756 156.267 39.0756H156.238Z" fill="#0C0C1C"/>
<path d="M151.933 66.0372C155.813 61.6475 157.088 56.663 157.088 56.663C157.088 56.663 155.445 58.872 152.103 61.3643" fill="#5B56A4"/>
<path d="M151.933 66.6036C151.792 66.6036 151.679 66.547 151.565 66.462C151.339 66.2638 151.31 65.8956 151.509 65.669C153.519 63.4033 154.822 60.9394 155.587 59.1268C154.794 59.9198 153.746 60.8544 152.415 61.8173C152.16 62.0156 151.82 61.959 151.622 61.7041C151.424 61.4492 151.48 61.1093 151.735 60.9111C154.964 58.4755 156.606 56.3231 156.606 56.2947C156.776 56.0682 157.06 56.0116 157.314 56.1249C157.569 56.2381 157.683 56.5214 157.626 56.7763C157.569 56.9745 156.267 61.959 152.33 66.3771C152.217 66.4903 152.075 66.5753 151.905 66.5753L151.933 66.6036Z" fill="#191935"/>
<path d="M146.666 71.673C156.323 67.6514 158.844 63.2617 158.844 63.2617C158.844 63.2617 154.341 64.3945 150.319 63.9697" fill="#5B56A4"/>
<path d="M146.666 72.2394C146.439 72.2394 146.241 72.0978 146.156 71.8996C146.043 71.6164 146.156 71.2765 146.467 71.1632C152.868 68.501 156.068 65.6973 157.456 64.1679C155.757 64.4794 152.925 64.8477 150.263 64.5645C149.951 64.5361 149.724 64.2529 149.753 63.9413C149.781 63.6298 150.064 63.4033 150.376 63.4316C154.256 63.8564 158.646 62.7519 158.702 62.7519C158.929 62.6952 159.155 62.7519 159.297 62.9501C159.439 63.12 159.439 63.375 159.325 63.5732C159.212 63.7715 156.606 68.1612 146.864 72.2111C146.779 72.2394 146.722 72.2678 146.637 72.2678L146.666 72.2394Z" fill="#191935"/>
<path d="M156.267 119.082C161.959 117.1 171.73 116.732 171.73 116.732C167.878 114.381 165.103 113.532 165.103 113.532" fill="#9597CF"/>
<path d="M156.267 119.649C156.04 119.649 155.814 119.507 155.729 119.281C155.615 118.997 155.785 118.658 156.068 118.573C160.288 117.1 166.632 116.505 169.776 116.307C166.887 114.721 164.933 114.098 164.905 114.098C164.593 114.013 164.423 113.701 164.536 113.39C164.621 113.078 164.933 112.937 165.244 113.022C165.358 113.05 168.133 113.928 172.013 116.279C172.24 116.42 172.325 116.675 172.268 116.902C172.211 117.157 171.985 117.326 171.73 117.326C171.645 117.326 161.988 117.723 156.437 119.649C156.38 119.649 156.323 119.677 156.238 119.677L156.267 119.649Z" fill="#191935"/>
<path d="M161.478 114.863C172.919 114.041 177.592 107.414 177.592 107.414C177.592 107.414 172.749 109.34 168.501 109.227" fill="#9597CF"/>
<path d="M161.478 115.429C161.194 115.429 160.939 115.202 160.911 114.891C160.911 114.579 161.109 114.296 161.449 114.296C167.198 113.871 171.163 111.945 173.486 110.388C174.392 109.765 175.128 109.17 175.695 108.66C173.854 109.198 171.078 109.85 168.53 109.793C168.218 109.793 167.963 109.538 167.963 109.227C167.963 108.915 168.218 108.66 168.53 108.66C172.608 108.745 177.337 106.904 177.394 106.876C177.621 106.791 177.904 106.876 178.045 107.046C178.187 107.244 178.215 107.527 178.045 107.726C177.847 108.009 173.089 114.579 161.506 115.429C161.506 115.429 161.506 115.429 161.478 115.429Z" fill="#191935"/>
<path d="M137.122 170.457C99.1147 162.838 85.9171 134.914 75.5517 103.279C67.6501 79.0931 72.0682 59.8631 89.0325 54.1139C105.997 48.3648 129.362 62.9784 136.215 84.5024C145.561 113.928 124.264 145.732 150.772 157.174" fill="#DDDCFC"/>
<path d="M72.3799 90.1667C69.746 72.3245 75.2403 58.7587 89.0043 54.114C105.969 48.3649 128.54 63.2617 136.187 84.5025C140.888 97.6151 138.708 111.011 137.178 122.566L111.803 126.701C97.3307 104.469 79.4035 105.29 72.3799 90.1667Z" fill="#5B56A4"/>
<path d="M72.3798 90.1668C95.688 89.3738 125.085 91.4695 138.198 118.006C136.498 129.816 135.111 139.445 141.398 151.312C107.413 131.176 76.458 107.074 72.3798 90.1668Z" fill="#8B8BD1"/>
<path d="M71.9266 77.8471C72.9745 66.1788 78.6388 57.5976 89.0326 54.0858C101.72 49.781 121.63 57.7108 132.93 77.224C121.035 63.5733 91.3832 62.4687 71.9266 77.8471Z" fill="#8B8BD1"/>
<path d="M137.122 171.023C137.093 171.023 137.037 171.023 137.008 171.023C119.421 167.483 105.855 159.383 95.5181 146.242C85.7191 133.781 79.885 118.318 75.0137 103.478C71.0488 91.3279 70.1425 80.3394 72.4082 71.6448C74.7588 62.667 80.423 56.4364 88.8343 53.576C95.9429 51.1687 104.468 52.1599 112.794 56.3797C124.037 62.0723 132.987 72.5227 136.725 84.3326C140.492 96.1707 139.331 108.547 138.283 119.451C137.518 127.664 136.782 135.424 138.198 141.824C139.784 148.876 143.834 153.577 150.942 156.636C151.226 156.749 151.367 157.089 151.226 157.372C151.112 157.656 150.772 157.797 150.489 157.656C134.176 150.632 135.564 136.103 137.15 119.309C138.17 108.49 139.331 96.2557 135.649 84.6158C131.967 73.0608 123.244 62.8653 112.284 57.3427C104.213 53.2645 96.0279 52.3015 89.2025 54.6239C81.1877 57.3427 75.7501 63.3184 73.5127 71.8997C71.3037 80.3676 72.1816 91.158 76.0899 103.081C80.9045 117.836 86.7103 133.186 96.3961 145.506C106.563 158.449 119.903 166.407 137.207 169.89C137.518 169.947 137.716 170.258 137.66 170.57C137.603 170.853 137.377 171.023 137.093 171.023H137.122Z" fill="#191935"/>
<path d="M142.361 165.189C133.27 164.368 118.543 160.261 107.073 160.488C103.505 159.468 97.6422 156.353 97.6422 156.353C104.722 157.684 113.7 156.664 118.628 156.863C124.406 157.089 128.54 157.854 135.196 157.967C141.851 158.08 150.716 155.362 150.716 155.362C151.679 155.815 152.642 156.211 153.661 156.523L145.845 166.407L142.361 165.189Z" fill="#49488A"/>
<path d="M107.101 160.488C121.404 168.673 139.501 173.827 139.501 173.827L152.019 161.507C114.522 158.902 107.13 160.488 107.13 160.488H107.101Z" fill="#8588D1"/>
<path d="M139.501 174.394C139.444 174.394 139.387 174.394 139.359 174.394C139.189 174.337 121.064 169.126 106.903 161.026C103.306 159.978 97.6705 156.976 97.4156 156.863C97.1607 156.721 97.0475 156.438 97.1607 156.183C97.2457 155.928 97.5289 155.758 97.8121 155.815C102.882 156.75 108.914 156.551 113.785 156.41C115.683 156.353 117.325 156.296 118.713 156.325C123.811 156.381 128.37 157.061 128.427 157.061C128.739 157.118 128.937 157.401 128.909 157.712C128.852 158.024 128.569 158.222 128.257 158.194C128.201 158.194 123.726 157.514 118.713 157.458C117.354 157.458 115.711 157.486 113.842 157.543C109.962 157.656 105.374 157.826 101.041 157.401C102.995 158.336 105.487 159.44 107.328 159.978C107.385 159.978 107.413 160.006 107.47 160.035C121.545 168.078 139.557 173.289 139.727 173.317C140.039 173.402 140.209 173.714 140.124 174.025C140.067 174.28 139.812 174.45 139.586 174.45L139.501 174.394Z" fill="#191935"/>
<path d="M130.948 225.654C131.174 227.863 133.355 231.319 132.42 234.264C131.486 237.209 126.898 236.048 124.774 236.19C122.649 236.331 116.9 239.418 112.709 235.142C112.709 235.142 109.537 233.329 106.96 232.848C104.382 232.366 101.097 231.743 101.012 231.488C100.927 231.234 102.881 228.826 105.487 228.005C105.487 228.005 110.386 225.909 116.334 225.994" fill="#DDDCFC"/>
<g opacity="0.2">
<path d="M163.29 183.201C163.715 183.541 168.303 183.994 170.059 183.484C171.815 182.975 172.098 174.818 171.588 174.223C171.078 173.629 166.066 172.892 165.613 172.977C165.159 173.062 162.016 182.21 163.318 183.201H163.29Z" fill="#DEF5FF"/>
</g>
<path d="M167.567 184.277C165.613 184.277 163.375 184.023 162.922 183.654C162.441 183.286 161.988 182.352 162.979 178.5C163.29 177.225 163.743 175.809 164.168 174.62C164.933 172.524 165.188 172.468 165.471 172.439C165.896 172.383 171.192 172.977 171.985 173.884C172.636 174.62 172.353 179.548 171.702 181.87C171.333 183.145 170.852 183.853 170.201 184.051C169.606 184.221 168.615 184.306 167.567 184.306V184.277ZM163.63 182.748C164.31 183.003 168.36 183.399 169.889 182.946C169.889 182.946 170.087 182.89 170.314 182.38C171.277 180.312 171.362 175.413 171.107 174.592C170.512 174.223 166.887 173.6 165.839 173.544C165.556 174.11 164.848 175.894 164.253 178.075C163.347 181.304 163.489 182.521 163.602 182.748H163.63Z" fill="black"/>
<path d="M135.366 164.056C135.366 164.056 137.207 173.714 142.276 177.254C147.176 180.681 151.594 181.19 158.73 181.502C183.143 182.578 211.493 167.398 221.575 158.307C223.671 156.41 224.18 152.983 216.477 155.305C173.939 168.276 166.745 142.759 143.72 156.551C139.359 159.157 135.366 164.056 135.366 164.056Z" fill="#8588D1"/>
<path d="M191.668 160.261C184.616 160.261 178.64 158.505 172.806 156.778C164.706 154.399 157.031 152.133 147.572 155.418C147.289 155.532 146.949 155.362 146.864 155.079C146.779 154.795 146.921 154.456 147.204 154.371C157.031 150.972 164.848 153.294 173.118 155.73C181.217 158.109 189.572 160.573 200.787 158.166C201.099 158.109 201.382 158.307 201.467 158.59C201.524 158.902 201.325 159.185 201.042 159.27C197.7 160.006 194.585 160.29 191.668 160.29V160.261Z" fill="#DCE5EA"/>
<path d="M217.072 162.555C205.772 169.522 161.478 188.497 138.311 172.383C139.331 174.28 140.633 176.093 142.276 177.254C147.176 180.681 151.594 181.106 158.73 181.502C179.093 182.607 212.314 168.163 217.043 162.555H217.072Z" fill="#49488A"/>
<path d="M215.004 163.688C210.36 163.008 207.981 160.176 206.366 158.052C206.366 158.052 213.645 156.325 216.704 155.447C224.435 153.238 224.322 156.806 222.226 158.732C220.527 160.261 217.638 161.677 215.004 163.716V163.688Z" fill="#49488A"/>
<path d="M160.911 182.182C160.26 182.182 159.637 182.182 158.985 182.153C150.631 181.899 145.023 180.313 141.313 177.197C136.782 173.374 135.139 164.651 135.082 164.255C135.026 163.943 135.224 163.66 135.536 163.603C135.847 163.546 136.13 163.745 136.187 164.056C136.187 164.141 137.801 172.751 142.049 176.319C145.561 179.265 150.942 180.766 159.042 181.021C172.523 181.445 186.004 177.226 194.953 173.629C206.791 168.842 215.967 163.065 220.612 159.242C222.679 157.542 223.161 156.466 222.934 156.041C222.538 155.277 219.762 155.107 215.995 156.211C193.735 162.612 181.444 158.76 171.56 155.673C162.412 152.813 155.19 150.547 143.55 157.656C143.296 157.826 142.927 157.741 142.757 157.457C142.587 157.203 142.672 156.834 142.956 156.664C155.02 149.273 162.469 151.595 171.9 154.569C181.642 157.627 193.735 161.422 215.684 155.107C218.913 154.172 223.019 153.719 223.954 155.503C224.548 156.664 223.699 158.165 221.348 160.091C216.647 163.971 207.358 169.834 195.406 174.677C186.797 178.16 173.967 182.182 160.968 182.182H160.911Z" fill="#191935"/>
<path d="M160.883 185.269C159.722 185.269 158.164 185.042 157.768 184.901C157.088 184.617 156.606 183.399 156.437 182.89C156.352 182.607 156.493 182.267 156.805 182.182C157.116 182.068 157.428 182.238 157.513 182.55C157.711 183.145 158.051 183.768 158.192 183.881C158.646 184.051 161.166 184.277 161.619 184.136C161.846 184.023 162.441 183.399 162.837 182.89C163.035 182.635 163.375 182.607 163.63 182.805C163.885 183.003 163.913 183.343 163.715 183.598C163.545 183.796 162.695 184.872 162.072 185.184C161.846 185.297 161.393 185.354 160.855 185.354L160.883 185.269Z" fill="black"/>
<path d="M140.69 169.975C140.69 169.975 132.704 172.269 131.061 171.561C130.551 171.335 129.164 168.276 129.56 165.925C129.957 163.433 132.166 161.649 132.93 161.677C134.233 161.734 136.64 163.263 136.64 163.263" fill="#D2D2FB"/>
<path d="M132.052 171.363C131.741 171.363 131.486 171.136 131.486 170.825C131.486 170.513 131.712 170.258 132.024 170.23C132.052 170.23 135.054 170.117 139.727 168.927C140.039 168.842 140.35 169.041 140.407 169.352C140.492 169.664 140.294 169.975 139.982 170.032C135.167 171.221 132.165 171.363 132.024 171.363H132.052Z" fill="white"/>
<path d="M132.024 172.269C131.514 172.269 131.117 172.213 130.834 172.099C129.9 171.703 128.597 168.248 128.993 165.869C129.248 164.254 130.155 163.065 130.693 162.498C131.316 161.819 132.25 161.111 132.958 161.139C134.374 161.196 136.697 162.668 136.952 162.81C137.206 162.98 137.291 163.32 137.121 163.603C136.952 163.858 136.612 163.943 136.329 163.773C135.705 163.376 133.865 162.3 132.93 162.272C132.505 162.272 130.494 163.773 130.126 166.039C129.786 168.134 130.976 170.712 131.344 171.08C132.449 171.476 137.376 170.372 140.577 169.437C140.888 169.352 141.2 169.522 141.285 169.834C141.37 170.145 141.2 170.457 140.888 170.542C139.727 170.882 134.686 172.298 132.052 172.298L132.024 172.269Z" fill="#49488A"/>
<path d="M135.819 169.494C132.817 170.598 131.231 168.531 131.231 168.531C132.307 168.531 133.241 168.191 133.241 168.191C132.279 167.058 132.08 165.557 132.08 165.557C132.08 165.557 133.072 165.869 133.666 166.18C133.666 166.18 134.063 165.472 134.544 164.934C134.544 164.934 137.206 166.888 137.914 167.681C137.914 167.681 137.065 169.041 135.79 169.494H135.819Z" fill="#6A6DB8"/>
<path d="M131.174 171.278C130.919 171.278 130.636 171.278 130.381 171.25C130.07 171.25 129.843 170.967 129.871 170.627C129.871 170.315 130.155 170.089 130.494 170.117C135.167 170.485 138.226 167.058 138.254 167.002C138.453 166.775 138.821 166.747 139.047 166.945C139.274 167.143 139.302 167.511 139.104 167.738C138.962 167.879 135.989 171.25 131.202 171.25L131.174 171.278Z" fill="#49488A"/>
<path d="M216.449 158.194C217.667 157.316 218.828 157.231 219.734 157.061C220.244 156.948 220.131 156.183 219.366 156.381C217.695 156.806 216.449 158.222 216.449 158.222V158.194Z" fill="black"/>
<path d="M216.449 158.76C216.307 158.76 216.137 158.704 216.024 158.562C215.826 158.335 215.826 158.024 216.024 157.797C216.08 157.741 217.411 156.24 219.224 155.786C219.677 155.673 220.102 155.787 220.357 156.041C220.583 156.296 220.668 156.636 220.555 156.948C220.442 157.259 220.187 157.514 219.819 157.571C219.677 157.571 219.536 157.627 219.394 157.656C218.601 157.797 217.695 157.967 216.76 158.619C216.647 158.675 216.534 158.732 216.42 158.732L216.449 158.76Z" fill="black"/>
<path d="M147.402 174.139C147.289 174.139 147.147 174.082 147.062 173.969C146.921 173.77 146.949 173.515 147.147 173.374C147.289 173.261 150.829 170.57 155.134 172.524C155.36 172.609 155.445 172.864 155.36 173.091C155.275 173.317 155.02 173.402 154.794 173.317C150.971 171.59 147.827 173.969 147.685 174.082C147.6 174.139 147.515 174.167 147.43 174.167L147.402 174.139Z" fill="#191935"/>
<path d="M154.369 159.298C154.199 159.298 154.029 159.242 153.944 159.1C153.746 158.845 153.774 158.505 154.029 158.307C154.284 158.109 160.43 153.181 169.861 153.946C170.172 153.946 170.399 154.257 170.37 154.569C170.37 154.88 170.059 155.107 169.747 155.078C160.77 154.342 154.765 159.157 154.709 159.185C154.596 159.27 154.482 159.327 154.341 159.327L154.369 159.298Z" fill="#191935"/>
<path d="M152.811 188.072C151.112 188.072 149.611 187.336 149.554 187.279C149.271 187.138 149.158 186.798 149.299 186.515C149.441 186.232 149.781 186.118 150.064 186.26C150.064 186.26 152.245 187.336 154.029 186.741C154.312 186.628 154.652 186.798 154.737 187.081C154.85 187.364 154.68 187.704 154.397 187.789C153.859 187.959 153.321 188.044 152.811 188.044V188.072Z" fill="#191935"/>
<path d="M163.092 188.044C162.809 188.044 162.582 187.846 162.526 187.563C162.469 187.251 162.696 186.968 162.979 186.911C162.979 186.911 164.65 186.628 166.179 185.835C166.462 185.694 166.802 185.807 166.944 186.09C167.085 186.373 166.972 186.713 166.689 186.855C164.99 187.733 163.205 188.044 163.149 188.044C163.092 188.044 163.092 188.044 163.064 188.044H163.092Z" fill="#191935"/>
<g opacity="0.2">
<path d="M156.975 182.692C151.027 183.456 146.213 179.774 144.258 177.99C143.664 177.452 143.38 176.659 143.494 175.894C143.89 173.572 144.57 170.882 145.136 169.182C145.646 167.653 147.147 166.719 148.79 166.945C153.038 167.455 156.182 169.466 158.022 170.938C159.155 171.873 159.722 173.289 159.495 174.677C158.476 180.596 156.975 182.72 156.975 182.72V182.692Z" fill="#DEF5FF"/>
</g>
<path d="M155.36 183.371C149.894 183.371 145.561 179.973 143.862 178.415C143.126 177.735 142.757 176.744 142.927 175.809C143.352 173.289 144.06 170.598 144.598 169.012C145.193 167.228 146.949 166.152 148.875 166.379C153.208 166.917 156.436 168.899 158.391 170.485C159.693 171.533 160.316 173.176 160.062 174.762C159.014 180.737 157.513 182.946 157.456 183.031C157.371 183.173 157.229 183.258 157.06 183.258C156.493 183.343 155.927 183.371 155.389 183.371H155.36ZM148.365 167.483C147.147 167.483 146.071 168.219 145.674 169.381C145.165 170.91 144.485 173.544 144.06 176.008C143.975 176.574 144.173 177.169 144.627 177.594C146.354 179.18 150.97 182.805 156.606 182.182C156.975 181.53 158.079 179.265 158.9 174.563C159.099 173.374 158.617 172.156 157.654 171.363C155.813 169.862 152.783 167.993 148.733 167.511C148.62 167.511 148.478 167.511 148.365 167.511V167.483Z" fill="black"/>
<path d="M124.717 233.471C121.828 232.904 119.591 233.952 119.591 233.952C119.591 233.952 118.968 228.826 118.515 225.966L116.362 226.022C114.72 225.994 113.134 226.136 111.718 226.362L111.944 228.515C109.905 227.977 107.356 227.948 105.374 228.062C102.796 228.911 100.956 231.234 101.041 231.488C101.126 231.743 104.382 232.366 106.988 232.848C109.565 233.329 112.737 235.142 112.737 235.142C116.929 239.447 122.678 236.36 124.802 236.19C126.926 236.048 131.967 237.039 132.562 233.754C130.749 234.575 126.898 233.867 124.745 233.443L124.717 233.471Z" fill="#9597CF"/>
<path d="M118.231 238.002C116.249 238.002 114.182 237.464 112.341 235.623C111.888 235.369 109.084 233.839 106.846 233.443C100.644 232.31 100.587 232.112 100.474 231.687C100.248 230.865 102.768 228.317 105.317 227.524C105.77 227.325 110.556 225.4 116.362 225.484C116.674 225.484 116.929 225.739 116.929 226.051C116.929 226.362 116.674 226.617 116.362 226.617C110.641 226.504 105.799 228.543 105.742 228.571C105.742 228.571 105.714 228.571 105.685 228.571C103.901 229.11 102.428 230.497 101.834 231.234C102.457 231.404 103.873 231.715 107.073 232.31C109.735 232.791 112.879 234.576 112.992 234.66C113.049 234.66 113.077 234.717 113.105 234.745C116.164 237.861 120.129 236.785 122.763 236.077C123.527 235.878 124.207 235.68 124.717 235.652C125.255 235.623 125.906 235.652 126.586 235.68C129.248 235.822 131.316 235.822 131.882 234.094C132.449 232.338 131.741 230.271 131.117 228.458C130.778 227.467 130.466 226.532 130.381 225.711C130.353 225.4 130.579 225.116 130.891 225.088C131.202 225.06 131.486 225.286 131.514 225.598C131.599 226.277 131.882 227.155 132.194 228.09C132.873 230.072 133.638 232.31 132.958 234.434C132.109 237.124 128.88 236.926 126.53 236.813C125.878 236.785 125.255 236.728 124.802 236.785C124.405 236.813 123.782 236.983 123.046 237.181C121.743 237.521 120.044 238.002 118.231 238.002Z" fill="#7481BA"/>
<path d="M118.232 238.002C116.249 238.002 114.182 237.464 112.341 235.624C111.888 235.369 109.084 233.839 106.846 233.443C106.535 233.386 106.337 233.103 106.393 232.791C106.45 232.48 106.733 232.282 107.045 232.338C109.707 232.82 112.851 234.604 112.964 234.689C113.02 234.689 113.049 234.746 113.077 234.774C116.136 237.889 120.101 236.813 122.735 236.105C123.499 235.907 124.179 235.708 124.689 235.68C125.198 235.652 125.822 235.68 126.558 235.737C129.192 235.907 131.401 235.935 131.826 234.151C131.911 233.839 132.194 233.669 132.505 233.726C132.817 233.811 132.987 234.094 132.93 234.406C132.25 237.238 128.795 237.011 126.501 236.841C125.85 236.785 125.227 236.756 124.802 236.785C124.405 236.813 123.782 236.983 123.046 237.181C121.743 237.521 120.044 238.002 118.232 238.002Z" fill="#191935"/>
<path d="M87.928 128.938C99.4263 161.309 112.057 228.345 112.057 228.345L130.919 225.683C130.919 225.683 127.521 191.924 126.983 148.31" fill="#DDDCFC"/>
<path d="M90.9299 137.973C108.092 177.282 117.07 216.563 118.741 227.382L112.086 228.317C102.881 177.48 90.9299 137.944 90.9299 137.944V137.973Z" fill="#9597CF"/>
<path d="M130.948 226.221C130.664 226.221 130.41 225.994 130.381 225.711C130.353 225.371 126.954 191.414 126.445 148.281C126.445 147.97 126.699 147.715 127.011 147.715C127.323 147.715 127.577 147.97 127.577 148.281C128.116 191.358 131.486 225.258 131.514 225.598C131.542 225.909 131.316 226.192 131.004 226.221C131.004 226.221 130.976 226.221 130.948 226.221Z" fill="#7481BA"/>
<path d="M112.086 228.911C111.831 228.911 111.576 228.713 111.519 228.458C111.491 228.288 108.319 211.466 103.76 190.905C99.568 171.929 93.3374 145.818 87.39 129.136C87.2767 128.853 87.4466 128.513 87.7298 128.4C88.013 128.287 88.3529 128.457 88.4662 128.74C94.4136 145.478 100.673 171.646 104.864 190.65C109.424 211.239 112.596 228.062 112.624 228.232C112.681 228.543 112.482 228.826 112.171 228.883C112.143 228.883 112.114 228.883 112.058 228.883L112.086 228.911Z" fill="#191935"/>
<path d="M105.487 228.6C105.26 228.6 105.034 228.458 104.949 228.232C104.836 227.948 105.005 227.608 105.289 227.523C106.705 227.042 108.064 227.127 108.97 227.297C109.282 227.354 109.48 227.637 109.424 227.948C109.367 228.26 109.084 228.458 108.772 228.401C108.007 228.26 106.846 228.175 105.657 228.6C105.6 228.6 105.544 228.628 105.459 228.628L105.487 228.6Z" fill="#191935"/>
<path d="M106.422 232.791C103.816 232.423 101.097 231.743 101.012 231.517C100.927 231.262 102.881 228.855 105.487 228.033C104.722 231.12 106.422 232.791 106.422 232.791Z" fill="#3F3E77"/>
<path d="M106.422 233.358C106.422 233.358 106.365 233.358 106.337 233.358C105.091 233.188 103.759 232.933 102.627 232.65C100.701 232.197 100.559 231.998 100.446 231.659C100.219 230.809 102.74 228.26 105.317 227.495C105.629 227.41 105.94 227.58 106.025 227.863C106.11 228.175 105.94 228.487 105.657 228.571C103.873 229.11 102.372 230.526 101.805 231.234C102.627 231.489 104.411 231.885 106.507 232.197C106.818 232.253 107.016 232.536 106.988 232.848C106.96 233.131 106.705 233.329 106.422 233.329V233.358Z" fill="#191935"/>
<path d="M103.986 179.916C101.182 190.14 104.666 197.079 104.666 197.079C104.666 197.079 105.713 191.329 107.583 187.449" fill="#9597CF"/>
<path d="M104.666 197.645C104.467 197.645 104.269 197.532 104.156 197.333C104.014 197.05 100.587 190.083 103.448 179.774C103.533 179.463 103.844 179.293 104.156 179.378C104.467 179.463 104.637 179.774 104.552 180.086C102.655 186.996 103.703 192.434 104.552 195.068C105.034 193.029 105.883 189.743 107.101 187.223C107.243 186.94 107.583 186.826 107.866 186.968C108.149 187.11 108.262 187.449 108.121 187.733C106.308 191.471 105.26 197.164 105.26 197.22C105.204 197.447 105.034 197.645 104.779 197.673C104.779 197.673 104.722 197.673 104.694 197.673L104.666 197.645Z" fill="#191935"/>
<path d="M73.5975 88.5524C52.4984 72.2678 65.7809 52.8679 65.7809 52.8679L76.0331 44.9663C76.0331 44.9663 105.487 50.3757 103.731 84.729" fill="#5B56A4"/>
<path d="M103.731 84.7291C103.759 83.9644 103.788 83.2281 103.788 82.5201C92.6576 82.2085 67.4236 78.2152 63.0905 58.5605C60.7115 65.5274 59.5503 77.7338 73.5692 88.5524C93.6488 92.6023 103.703 84.7291 103.703 84.7291H103.731Z" fill="#333476"/>
<path d="M73.5976 89.1189C73.4843 89.1189 73.3426 89.0905 73.2576 89.0056C67.1403 84.276 60.0601 76.2045 61.2212 64.5646C61.9009 57.6259 65.1862 52.783 65.3278 52.5564C65.3561 52.4998 65.4128 52.4715 65.4411 52.4148L75.6933 44.5133C75.8066 44.4283 75.9765 44.3717 76.1464 44.4C76.458 44.4566 83.7364 45.8444 90.9016 51.5086C97.5288 56.748 105.232 66.7452 104.297 84.7574C104.297 85.0689 104.014 85.3239 103.703 85.2956C103.391 85.2956 103.136 85.0123 103.165 84.7008C103.561 76.9691 102.372 70.1155 99.6529 64.2814C97.4722 59.6367 94.3002 55.6435 90.222 52.4432C83.9913 47.487 77.4775 45.8727 76.1747 45.5895L66.2057 53.2645C65.8092 53.8875 62.9488 58.4756 62.3258 64.7062C61.4478 73.6273 65.3561 81.4722 73.9374 88.0993C74.1923 88.2976 74.2206 88.6374 74.0506 88.8923C73.9374 89.0339 73.7675 89.1189 73.5976 89.1189Z" fill="#191935"/>
<path d="M76.4297 46.9771C76.4297 46.9771 76.6279 41.936 73.4842 39.1322C69.4627 35.5638 61.023 32.3635 58.1909 31.0041L49.0715 37.6029L48.6467 40.4917C50.3743 40.6616 64.3366 54.1424 66.8288 54.369" fill="#5B56A4"/>
<path d="M66.8006 54.9637C66.8006 54.9637 66.7722 54.9637 66.7439 54.9637C64.9031 54.7938 58.7008 49.696 51.9887 44.0035C50.2611 42.5308 48.8734 41.3696 48.307 40.9448C48.0521 40.7465 47.9954 40.4067 48.1937 40.1518C48.3919 39.8969 48.7318 39.8403 48.9867 40.0385C49.5814 40.4917 50.9691 41.6528 52.725 43.1255C56.7749 46.5523 65.2146 53.661 66.8572 53.8026C67.1688 53.8309 67.3954 54.1141 67.367 54.4256C67.367 54.7088 67.0838 54.9354 66.8006 54.9354V54.9637Z" fill="#0C0C1C"/>
<path d="M76.4297 47.5435C76.1182 47.5435 75.8633 47.2603 75.8916 46.9488C75.8916 46.8921 76.0332 42.1342 73.1161 39.557C70.0291 36.8099 64.3083 34.3176 60.5133 32.6467C59.4654 32.1935 58.5875 31.7971 57.9644 31.4855C57.6812 31.3439 57.5679 31.0041 57.7095 30.7209C57.8511 30.4377 58.191 30.3243 58.4742 30.466C59.0689 30.7492 59.9752 31.1457 60.9948 31.5988C64.8464 33.2981 70.6806 35.8469 73.8808 38.679C77.1944 41.5961 77.0244 46.7505 77.0244 46.9488C77.0244 47.2603 76.7696 47.4869 76.458 47.4869L76.4297 47.5435Z" fill="#0C0C1C"/>
<path d="M50.4025 36.1019C50.4025 36.1019 47.797 34.9691 47.3155 34.8275C45.3614 34.2328 43.4355 33.9778 42.954 34.6575C42.4443 35.3656 42.9541 36.8666 44.9082 38.4525C46.0127 39.3588 48.6182 40.52 48.6182 40.52" fill="#5B56A4"/>
<path d="M47.3155 34.7992C45.3614 34.2044 43.4355 33.9495 42.954 34.6292C42.4443 35.3372 42.9541 36.8383 44.9082 38.4243C46.5508 37.5463 47.1173 35.8754 47.3155 34.7992Z" fill="#232355"/>
<path d="M48.6186 41.0581C48.5336 41.0581 48.4487 41.058 48.3921 41.0014C48.2788 40.9447 45.7016 39.7836 44.5688 38.849C42.5296 37.1781 41.7083 35.3938 42.5013 34.2893C43.266 33.2414 45.6449 33.6946 47.4858 34.261C47.9955 34.4026 50.3745 35.4505 50.6294 35.5638C50.9126 35.677 51.0542 36.0169 50.9126 36.3001C50.7994 36.5833 50.4595 36.725 50.1763 36.5833C49.1567 36.1302 47.4858 35.4221 47.1459 35.3372C44.682 34.5725 43.5492 34.7425 43.4076 34.9407C43.1244 35.3089 43.5209 36.555 45.2768 37.9711C46.2963 38.8207 48.8169 39.9535 48.8452 39.9819C49.1284 40.1235 49.27 40.435 49.1284 40.7182C49.0434 40.9164 48.8169 41.0581 48.6186 41.0581Z" fill="#0C0C1C"/>
<path d="M52.4984 39.9535C52.4984 39.9535 49.9495 38.5375 49.3831 37.5746C48.8167 36.6117 46.7775 28.2287 48.6467 27.3224C50.5159 26.3878 58.4175 37.3764 58.4175 37.3764" fill="#5B56A4"/>
<path d="M48.6467 27.3224C47.4005 27.9454 47.882 31.797 48.5334 34.6291C49.6663 34.6291 52.3851 34.2326 53.8294 31.5138C51.7337 29.0782 49.5246 26.8976 48.6467 27.3224Z" fill="#232355"/>
<path d="M52.4986 40.52C52.4136 40.52 52.3003 40.52 52.2154 40.4634C51.9322 40.3217 49.4965 38.9623 48.8735 37.8861C48.3354 36.9798 46.721 30.5793 47.4857 28.0021C47.6556 27.4357 47.9672 27.0392 48.3637 26.8409C48.9301 26.5577 50.2612 25.9063 56.9166 34.4876C57.1149 34.7425 57.0582 35.0823 56.8033 35.2806C56.5485 35.4788 56.2086 35.4222 56.0103 35.1673C50.2045 27.6623 48.9018 27.8322 48.8451 27.8605C48.7602 27.9171 48.6469 28.0871 48.5619 28.3419C47.9105 30.4943 49.3832 36.555 49.8364 37.3197C50.1762 37.9144 51.7905 38.9623 52.7251 39.4721C53.0083 39.6137 53.0933 39.9536 52.9517 40.2368C52.8384 40.435 52.6684 40.52 52.4419 40.52H52.4986Z" fill="#0C0C1C"/>
<path d="M57.7379 38.2543C57.7379 38.2543 54.8208 36.3851 54.0278 34.7141C53.2631 33.0432 55.104 25.6514 56.0669 25.5382C57.0298 25.4532 59.8053 29.05 61.901 33.1848" fill="#5B56A4"/>
<path d="M60.0602 29.9846C58.4176 27.379 56.775 25.5098 56.0669 25.5665C55.4722 25.6231 54.5093 28.5686 54.0845 31.1458C56.3785 31.6839 58.9274 30.5793 60.0602 29.9846Z" fill="#232355"/>
<path d="M57.7378 38.8207C57.6245 38.8207 57.5395 38.7923 57.4262 38.7357C57.3129 38.6507 54.3392 36.7533 53.5179 34.969C52.7249 33.2698 54.1409 27.4639 55.0755 25.793C55.2455 25.4815 55.557 25.0566 56.0101 25C56.0101 25 56.0668 25 56.0951 25C57.7661 25 60.8247 29.8429 62.4107 32.9866C62.5523 33.2698 62.439 33.6096 62.1558 33.7512C61.8726 33.8928 61.5327 33.7795 61.3911 33.4963C59.1821 29.1349 56.8881 26.501 56.1801 26.1612C55.4438 27.0675 53.9144 33.1281 54.5375 34.4875C55.1039 35.7337 57.2563 37.2913 58.021 37.7728C58.2759 37.9427 58.3608 38.2826 58.1909 38.5658C58.0776 38.7357 57.9077 38.8207 57.7094 38.8207H57.7378Z" fill="#0C0C1C"/>
<path d="M126.048 83.5678C125.453 78.8666 123.811 75.9212 123.811 75.9212C123.811 75.9212 123.301 80.934 122.253 84.7007" fill="#5B56A4"/>
<path d="M122.253 85.2388C122.196 85.2388 122.14 85.2388 122.111 85.2388C121.8 85.1538 121.63 84.8423 121.715 84.5308C122.734 80.8773 123.244 75.8928 123.244 75.8645C123.244 75.6096 123.442 75.4113 123.697 75.3547C123.924 75.2981 124.179 75.4113 124.292 75.6379C124.349 75.7512 125.963 78.7532 126.586 83.4828C126.614 83.7944 126.416 84.0776 126.105 84.1059C125.793 84.1343 125.51 83.936 125.482 83.6244C125.17 81.2455 124.604 79.3197 124.122 78.0169C123.867 79.8295 123.442 82.52 122.819 84.814C122.763 85.0689 122.536 85.2388 122.281 85.2388H122.253Z" fill="#191935"/>
<path d="M123.329 90.3649C123.584 83.3697 120.271 79.4331 120.271 79.4331C120.271 79.4331 120.894 82.8599 120.271 85.6353" fill="#5B56A4"/>
<path d="M123.329 90.9314C123.018 90.9314 122.763 90.6482 122.791 90.3367C122.933 86.57 121.97 83.7095 121.12 81.9253C121.177 83.0865 121.12 84.4742 120.865 85.7486C120.809 86.0602 120.497 86.2584 120.186 86.1734C119.874 86.1168 119.676 85.8053 119.761 85.4938C120.327 82.8882 119.761 79.5463 119.761 79.518C119.704 79.2631 119.846 79.0082 120.072 78.895C120.299 78.7817 120.582 78.8383 120.752 79.0366C120.894 79.2065 124.207 83.1998 123.952 90.3367C123.952 90.6482 123.697 90.8748 123.386 90.8748L123.329 90.9314Z" fill="#191935"/>
</svg>
