<svg width="256" height="256" viewBox="0 0 256 256" fill="none" xmlns="http://www.w3.org/2000/svg">
<path d="M210.251 198.528C209.922 198.528 209.627 198.265 209.594 197.937C209.594 197.707 207.099 174.133 198.135 148.359C192.882 133.222 186.447 120.319 179.059 109.977C169.833 97.0732 158.998 88.1426 146.916 83.4146C146.587 83.2833 146.423 82.8893 146.554 82.5609C146.686 82.2326 147.08 82.0684 147.408 82.1998C159.753 87.0262 170.752 96.121 180.143 109.221C187.629 119.695 194.097 132.73 199.416 147.965C208.412 173.903 210.907 197.575 210.907 197.805C210.94 198.166 210.678 198.495 210.316 198.528C210.316 198.528 210.284 198.528 210.251 198.528Z" fill="#191935"/>
<path d="M210.251 197.871C210.251 197.871 200.696 103.705 147.178 82.7908L112.277 104.264C112.277 104.264 130.499 150 119.237 204.996C119.237 204.996 176.301 208.542 210.284 197.838L210.251 197.871Z" fill="#DDDCFC"/>
<path d="M110.241 101.867L109.913 102.064C109.913 102.064 130.466 150 119.204 204.996C119.204 204.996 180.438 209.953 210.251 197.838C185.199 173.016 143.993 120.943 110.241 101.834V101.867Z" fill="#8B8BD1"/>
<path d="M119.237 205.685C119.204 205.685 119.139 205.685 119.106 205.685C118.745 205.62 118.515 205.258 118.58 204.897C124.359 176.595 121.535 150.197 118.154 133.058C114.476 114.475 109.387 102.458 109.322 102.359C109.19 102.031 109.322 101.637 109.65 101.506C109.978 101.374 110.372 101.506 110.504 101.834C110.569 101.965 115.724 114.114 119.401 132.796C122.816 150.066 125.672 176.628 119.828 205.16C119.763 205.455 119.5 205.685 119.172 205.685H119.237Z" fill="#191935"/>
<path d="M170.194 186.412C233.037 236.548 261.963 143.992 169.735 99.4043L163.726 138.213C189.435 151.084 200.171 163.856 200.171 163.856C200.171 163.856 182.572 146.093 151.841 134.175" fill="#DDDCFC"/>
<path d="M169.045 183.162L170.194 186.445C216.85 223.645 244.824 182.242 218.393 140.183C232.413 174.756 209.233 196.459 170.556 177.285L168.159 180.601L169.078 183.195L169.045 183.162Z" fill="#8B8BD1"/>
<path d="M203.553 201.548C200.86 201.548 198.07 201.187 195.18 200.497C187.169 198.527 178.6 193.996 169.767 186.937C169.472 186.708 169.439 186.314 169.669 186.018C169.899 185.723 170.293 185.69 170.588 185.92C179.256 192.847 187.629 197.313 195.476 199.217C202.436 200.924 208.904 200.465 214.191 197.936C222.793 193.799 227.915 184.179 227.948 172.162C227.948 160.375 223.154 147.373 214.42 135.455C204.177 121.501 188.614 109.254 169.472 99.9952C169.144 99.8311 169.012 99.437 169.176 99.1087C169.341 98.7804 169.735 98.6491 170.063 98.8132C189.402 108.171 205.129 120.582 215.504 134.7C224.402 146.815 229.327 160.113 229.294 172.162C229.294 184.672 223.876 194.752 214.814 199.118C211.465 200.727 207.69 201.548 203.618 201.548H203.553Z" fill="#191935"/>
<path d="M126.132 87.0592C142.614 91.623 166.221 100.751 186.972 106.234C192.718 111.126 200.827 115.591 200.827 115.591C188.055 114.967 175.907 112.965 166.911 110.929C156.338 108.532 149.148 105.314 136.901 102.852C124.687 100.357 107.384 102.425 107.384 102.425C105.776 101.243 104.101 100.192 102.361 99.2731L120.124 83.7102L126.132 87.1248V87.0592Z" fill="#49488A"/>
<path d="M200.827 116.215C200.827 116.215 200.828 116.215 200.795 116.215C169.242 114.146 150.133 106.759 149.312 106.431C148.984 106.299 148.82 105.938 148.951 105.577C149.082 105.249 149.444 105.052 149.772 105.183C150.56 105.478 168.388 112.373 198.037 114.672C195.246 112.997 190.584 110.042 186.545 106.693C186.282 106.464 186.217 106.037 186.447 105.774C186.676 105.511 187.103 105.446 187.366 105.675C193.44 110.732 201.057 114.902 201.123 114.934C201.386 115.066 201.517 115.394 201.451 115.69C201.386 115.985 201.123 116.149 200.827 116.149V116.215Z" fill="#191935"/>
<path d="M186.939 106.234C165.368 84.1698 134.34 72.12 134.34 72.12L106.925 92.181C175.185 109.648 186.972 106.201 186.972 106.201L186.939 106.234Z" fill="#8588D1"/>
<path d="M186.939 106.89C186.775 106.89 186.611 106.825 186.479 106.693C165.269 84.9906 134.406 72.8752 134.11 72.7438C133.782 72.6125 133.618 72.2185 133.749 71.8902C133.881 71.5618 134.275 71.3976 134.603 71.529C134.898 71.6603 166.024 83.8743 187.431 105.774C187.694 106.037 187.694 106.463 187.431 106.693C187.3 106.825 187.136 106.89 186.972 106.89H186.939Z" fill="#191935"/>
<path d="M106.531 88.7008C104.462 88.7008 101.015 88.274 98.257 85.8772C98.06 85.713 98.0271 85.3847 98.2241 85.1877C98.3883 84.9907 98.7167 84.9578 98.9137 85.1548C102.689 88.4381 108.14 87.6501 108.205 87.6173C108.468 87.5845 108.731 87.7486 108.764 88.0113C108.796 88.274 108.632 88.5366 108.37 88.5695C108.304 88.5695 107.614 88.7008 106.564 88.7008H106.531Z" fill="#191935"/>
<path opacity="0.2" d="M74.4856 71.1679C73.5663 70.6097 64.6686 70.6754 61.3852 72.0216C58.1019 73.3677 59.2183 89.1276 60.3346 90.1455C61.4838 91.1961 71.2352 91.5901 72.1217 91.3275C73.0082 91.0976 77.178 72.8096 74.4856 71.1679Z" fill="#DEF5FF"/>
<path d="M70.6442 92.0497C67.4922 92.0497 61.0897 91.6886 59.9077 90.6379C58.7257 89.5544 58.1676 80.2626 58.9884 75.5675C59.4152 73.2035 60.1048 71.8245 61.1554 71.3977C64.4387 70.0187 73.5992 69.8217 74.8468 70.6097C75.3393 70.9052 76.784 71.8245 75.602 80.1641C75.2408 82.6594 74.6826 85.4503 74.0916 87.8471C73.1066 91.7871 72.6798 91.9184 72.3187 92.0169C72.1217 92.0826 71.4978 92.0826 70.6442 92.0826V92.0497ZM60.8271 89.6857C61.8121 90.4409 70.1845 90.9006 71.8262 90.7364C72.6798 89.0947 75.4378 77.0778 74.617 72.7767C74.4857 72.1528 74.3215 71.8245 74.1902 71.726C73.3037 71.332 64.8983 71.2992 61.6807 72.6125C61.4509 72.711 60.9913 73.0722 60.5973 74.484C59.3168 78.9821 60.1376 88.6351 60.8271 89.6857Z" fill="black"/>
<path d="M137.985 77.2748C137.985 77.2748 126.723 63.9774 115.659 61.9745C105.447 60.1359 93.8245 64.2401 81.9061 70.6097C40.4378 92.7721 13.252 143.401 6.48837 168.781C2.7454 182.8 11.7745 178.992 19.0963 169.339C63.5195 110.797 100.588 136.867 131.681 95.4644" fill="#8588D1"/>
<path d="M24.1196 154.892L26.5492 160.211C44.6403 139.592 61.2539 132.205 76.7512 127.181C55.7051 130.891 36.9574 138.936 24.1196 154.892Z" fill="#49488A"/>
<path d="M11.3148 155.746C19.3917 151.576 26.3195 153.349 31.2773 154.893C31.2773 154.893 21.7558 165.826 17.9143 170.652C8.2285 182.866 4.35412 177.088 5.53612 171.703C6.48828 167.369 9.41046 161.886 11.3148 155.713V155.746Z" fill="#49488A"/>
<path d="M87.9146 67.8846C34.7577 91.8528 9.27912 158.898 6.19281 170.849C6.19281 170.849 5.47054 176.661 8.39269 177.449C9.27919 165.563 30.0297 103.213 87.9146 67.8846Z" fill="#DCE5EA"/>
<path d="M8.39261 178.106C8.32694 178.106 8.26127 178.106 8.22844 178.106C4.81379 177.153 5.50323 171.046 5.53606 170.784C5.53606 170.784 5.53606 170.718 5.53606 170.685C6.88222 165.432 13.8757 145.437 27.6984 123.537C35.2829 111.487 43.6882 100.849 52.6516 91.9514C63.5194 81.1493 75.3065 72.8425 87.6189 67.2937C87.9473 67.1624 88.3084 67.2937 88.4726 67.5892C88.6368 67.8847 88.5383 68.2787 88.2428 68.4429C57.4781 87.2234 38.1394 113.227 27.3373 131.778C14.4339 153.908 9.44327 172.13 9.04927 177.482C9.04927 177.679 8.91792 177.843 8.78659 177.974C8.68809 178.04 8.55677 178.106 8.39261 178.106Z" fill="#DCE5EA"/>
<path d="M8.09697 178.631C7.60447 178.631 7.17767 178.532 6.81651 178.368C4.74802 177.35 4.45251 174.067 5.89716 168.617C8.95065 157.158 17.0604 137.885 30.6862 118.119C41.0615 103.049 58.3317 82.4954 81.6432 70.0188C95.8271 62.4343 106.695 59.6764 115.823 61.318C126.986 63.3208 138.051 76.2899 138.51 76.8481C138.74 77.1108 138.707 77.5376 138.445 77.7674C138.182 77.9972 137.755 77.9644 137.525 77.7018C137.427 77.5704 126.296 64.5357 115.593 62.6313C106.761 61.0553 96.1884 63.7805 82.2671 71.2008C59.2182 83.546 42.0793 103.935 31.7697 118.875C18.2424 138.476 10.1983 157.585 7.17762 168.945C5.9628 173.509 6.06136 176.497 7.40752 177.153C9.18051 178.04 13.8756 175.183 18.6364 168.912C42.8345 137.031 65.2595 130.071 85.0579 123.931C101.639 118.776 117.267 113.917 131.188 95.0377C131.418 94.7422 131.812 94.6765 132.108 94.9063C132.403 95.1362 132.469 95.5301 132.239 95.8256C118.055 115.066 102.23 119.958 85.4519 125.178C75.405 128.298 64.9968 131.515 54.0634 137.951C41.6196 145.24 30.3907 155.615 19.6871 169.733C14.8934 176.037 10.6908 178.631 8.12983 178.631H8.09697Z" fill="#191935"/>
<path d="M107.483 89.0947C107.844 83.2504 103.707 78.3583 97.4031 78.1613C90.9021 77.9643 88.2755 83.1848 87.783 87.6829C87.783 87.6829 97.3702 95.6285 107.483 89.0947Z" fill="white"/>
<path d="M98.3556 79.2777C91.5919 79.2448 90.0816 91.1304 98.257 91.0319C105.874 90.9334 104.43 79.3433 98.3556 79.2777Z" fill="#1A1A21"/>
<path d="M99.0775 92.1484C92.5437 92.1484 87.5531 88.1099 87.4874 88.0442C87.2904 87.8801 87.2576 87.5518 87.4218 87.3548C87.5859 87.1578 87.9142 87.1249 88.1112 87.2891C88.2097 87.3547 97.5672 94.9064 107.22 88.6681C107.45 88.5367 107.745 88.6024 107.91 88.7994C108.041 89.0293 107.975 89.3247 107.778 89.4889C104.758 91.4261 101.803 92.1156 99.0775 92.1156V92.1484Z" fill="#191935"/>
<path d="M105.677 82.1014C105.546 82.1014 105.415 82.0358 105.316 81.9373C103.051 79.4091 99.7344 78.2271 96.2541 78.6211C93.9229 78.8838 91.8873 79.7703 90.3113 81.1164C90.1143 81.2806 89.786 81.2806 89.6218 81.0507C89.4576 80.8537 89.4576 80.5254 89.6875 80.3613C91.3948 78.8838 93.6274 77.9316 96.1556 77.6361C99.9642 77.1765 103.576 78.4898 106.071 81.2478C106.268 81.4448 106.235 81.7731 106.038 81.9373C105.94 82.0358 105.841 82.0686 105.71 82.0686L105.677 82.1014Z" fill="#191935"/>
<path d="M104.397 99.6671C96.6481 99.6671 90.4098 97.0405 86.437 94.7422C83.7775 93.199 82.1359 90.4082 82.1687 87.486C82.3329 75.7974 84.664 71.7261 84.7625 71.562C84.861 71.4306 84.9923 71.2993 85.1565 71.2665C96.6481 67.8847 107.385 73.7946 111.456 76.4869C112.966 77.4719 113.853 79.1136 113.82 80.8209C113.754 85.4832 113.13 90.4082 112.572 93.6915C112.014 97.0733 109.158 99.5358 105.612 99.6671C105.185 99.6671 104.758 99.6671 104.364 99.6671H104.397ZM85.7803 72.4484C85.3207 73.4334 83.6462 77.7018 83.482 87.5189C83.4492 89.9814 84.8282 92.3453 87.0937 93.6258C91.0993 95.9242 97.5674 98.6493 105.612 98.3538C108.501 98.2553 110.865 96.2525 111.325 93.4945C111.85 90.244 112.507 85.4175 112.539 80.8209C112.539 79.5404 111.883 78.3256 110.734 77.6032C106.826 75.0423 96.6481 69.4278 85.8131 72.4813L85.7803 72.4484Z" fill="black"/>
<path d="M85.3204 72.5468C85.0249 72.5468 84.7623 72.3498 84.6966 72.0543C84.3355 70.741 83.6788 69.4277 83.3833 69.2963C82.5625 68.9352 77.9987 68.6068 77.342 68.968C76.7839 69.2963 75.6347 70.741 75.0765 71.5618C74.8795 71.8573 74.4526 71.923 74.1571 71.726C73.8616 71.529 73.796 71.1022 73.993 70.8067C74.1571 70.5768 75.7004 68.377 76.6854 67.8188C77.8674 67.1294 83.0222 67.7204 83.9087 68.1144C84.9921 68.6069 85.7472 71.0037 85.9771 71.726C86.0756 72.0872 85.8786 72.4483 85.5174 72.5468C85.4518 72.5468 85.3861 72.5468 85.3204 72.5468Z" fill="black"/>
<path d="M121.24 74.4184C121.24 74.4184 133.158 63.5835 136.606 63.3865C137.689 63.3208 142.713 67.4578 144.059 71.8903C145.471 76.5526 143.205 81.5432 141.826 82.1671C139.528 83.2177 134.045 82.5611 134.045 82.5611" fill="#D2D2FB"/>
<path d="M123.046 75.272C122.849 75.272 122.684 75.2063 122.553 75.0422C122.323 74.7795 122.356 74.3527 122.619 74.1228C129.908 67.9502 134.997 65.1594 135.227 65.0609C135.555 64.8967 135.949 64.9952 136.113 65.3236C136.277 65.6519 136.179 66.0459 135.851 66.2101C135.785 66.2101 130.663 69.0337 123.472 75.1078C123.341 75.2063 123.21 75.272 123.046 75.272Z" fill="white"/>
<path d="M137.558 83.3818C135.719 83.3818 134.111 83.1847 133.979 83.1847C133.618 83.1519 133.355 82.8236 133.388 82.4624C133.421 82.1013 133.749 81.8386 134.111 81.8714C135.588 82.0356 139.791 82.2983 141.564 81.5103C142.582 81.0506 144.781 76.4868 143.435 72.0215C142.155 67.8517 137.525 64.0759 136.639 63.9774C134.275 64.1087 126.395 70.544 121.7 74.8452C121.437 75.075 121.01 75.075 120.78 74.8123C120.55 74.5496 120.55 74.1228 120.813 73.893C122.061 72.7767 132.994 62.8939 136.606 62.6969C136.606 62.6969 136.606 62.6969 136.672 62.6969C138.346 62.6969 143.37 67.195 144.716 71.6603C146.226 76.6181 143.895 81.9371 142.122 82.7251C140.973 83.2504 139.2 83.3818 137.591 83.3818H137.558Z" fill="#49488A"/>
<path d="M130.138 71.1021C134.406 66.6368 138.937 68.8366 138.937 68.8366C137.099 69.756 135.72 71.1678 135.72 71.1678C138.346 72.3169 139.988 74.7466 139.988 74.7466C139.988 74.7466 137.952 75.0421 136.705 75.0093C136.705 75.0093 136.606 76.5524 136.245 77.9314C136.245 77.9314 129.908 76.8151 128.037 76.0271C128.037 76.0271 128.365 72.9736 130.171 71.0693L130.138 71.1021Z" fill="#6A6DB8"/>
<path d="M127.018 77.8001C126.953 77.8001 126.92 77.8001 126.854 77.8001C126.493 77.7016 126.296 77.3405 126.395 77.0121C126.493 76.6181 128.989 67.4905 138.247 63.8132C138.576 63.6819 138.97 63.8132 139.101 64.1744C139.232 64.5027 139.101 64.8967 138.74 65.028C130.138 68.4755 127.708 77.2748 127.675 77.3405C127.609 77.636 127.347 77.833 127.051 77.833L127.018 77.8001Z" fill="#49488A"/>
<path d="M98.7165 80.8537C97.7971 79.7702 93.8572 82.6267 94.8422 83.8415C95.8271 85.0563 99.7671 82.0685 98.7165 80.8537Z" fill="white"/>
<path d="M15.2218 166.056C14.2696 168.814 12.5624 170.258 11.3476 171.539C10.1327 172.819 11.7087 173.377 12.6937 172.195C14.8278 169.667 15.2218 166.023 15.2218 166.023V166.056Z" fill="black"/>
<path d="M11.8072 173.377C11.7087 173.377 11.643 173.377 11.5445 173.377C11.0849 173.279 10.6909 172.951 10.5595 172.491C10.3954 172.031 10.5595 171.506 10.8879 171.112C11.052 170.915 11.249 170.718 11.446 170.521C12.5623 169.372 13.8429 168.059 14.598 165.859C14.6965 165.53 15.0249 165.366 15.3532 165.432C15.6815 165.498 15.9113 165.793 15.8785 166.154C15.8785 166.318 15.4517 170.029 13.219 172.655C12.825 173.148 12.2997 173.41 11.8401 173.41L11.8072 173.377ZM12.7593 171.014C12.628 171.145 12.4967 171.276 12.3653 171.44C12.1683 171.637 12.0042 171.834 11.8072 171.998C11.7744 172.031 11.7743 172.064 11.7743 172.064C11.84 172.064 11.9713 172.064 12.2012 171.802C12.3982 171.539 12.5952 171.309 12.7922 171.014H12.7593Z" fill="black"/>
<path d="M86.6994 124.752C86.4367 124.752 86.2068 124.62 86.1083 124.358C85.9442 124.029 86.1083 123.635 86.4367 123.504C86.5352 123.471 97.3701 118.579 103.838 112.833C104.101 112.603 104.528 112.603 104.758 112.899C104.987 113.194 104.987 113.588 104.692 113.818C98.0596 119.695 87.4216 124.522 86.962 124.719C86.8635 124.752 86.7979 124.784 86.6994 124.784V124.752Z" fill="#191935"/>
<path d="M154.96 175.249L151.808 134.175C165.86 138.246 178.107 152.594 182.014 162.346C182.014 162.346 175.71 158.668 170.293 156.928C170.293 156.928 176.892 165.301 178.698 175.873C178.698 175.873 175.612 173.936 171.442 171.145C171.442 171.145 172.985 176.234 170.162 186.445C170.162 186.445 164.514 181.487 155.781 183.589C155.781 183.589 159.162 179.058 162.117 177.153C162.117 177.153 156.273 178.04 154.796 179.058C154.796 179.058 153.876 176.661 154.96 175.249Z" fill="#57539F"/>
<path d="M170.194 187.069C170.03 187.069 169.899 187.003 169.767 186.905C169.702 186.839 164.251 182.21 155.978 184.212C155.715 184.278 155.419 184.18 155.288 183.95C155.124 183.72 155.157 183.424 155.288 183.195C155.387 183.063 157.422 180.371 159.72 178.27C157.947 178.631 155.912 179.123 155.222 179.616C155.058 179.714 154.861 179.747 154.664 179.714C154.467 179.649 154.303 179.517 154.237 179.32C154.205 179.222 153.187 176.529 154.5 174.888C154.73 174.592 155.124 174.559 155.419 174.789C155.715 175.019 155.748 175.413 155.518 175.709C154.992 176.365 155.091 177.449 155.255 178.171C157.356 177.317 161.526 176.661 162.052 176.562C162.347 176.529 162.643 176.694 162.774 176.989C162.872 177.285 162.774 177.613 162.511 177.777C160.705 178.959 158.67 181.225 157.455 182.669C165.401 181.487 170.424 185.788 170.654 185.985C170.917 186.215 170.949 186.642 170.72 186.905C170.588 187.069 170.424 187.135 170.227 187.135L170.194 187.069Z" fill="#191935"/>
<path d="M226.93 169.273C230.64 181.257 227.619 190.615 227.619 190.615C227.619 190.615 226.208 186.478 224.041 182.242" fill="#8B8BD1"/>
<path d="M227.587 191.272C227.291 191.272 227.061 191.107 226.963 190.845C226.963 190.812 225.518 186.675 223.417 182.571C223.253 182.242 223.384 181.848 223.712 181.684C224.041 181.52 224.435 181.652 224.599 181.98C225.814 184.377 226.831 186.773 227.455 188.382C228.112 185.033 228.867 177.876 226.306 169.503C226.208 169.142 226.405 168.781 226.733 168.682C227.061 168.584 227.455 168.781 227.554 169.109C231.264 181.126 228.342 190.451 228.21 190.845C228.112 191.107 227.882 191.304 227.587 191.304V191.272Z" fill="#191935"/>
<path d="M226.372 162.608C234.055 175.249 233.07 185.887 233.07 185.887C233.07 185.887 229.589 180.24 225.42 175.479" fill="#8B8BD1"/>
<path d="M233.07 186.544C232.84 186.544 232.643 186.412 232.512 186.215C232.479 186.15 228.998 180.535 224.927 175.906C224.697 175.643 224.73 175.216 224.993 174.986C225.255 174.757 225.682 174.789 225.912 175.052C228.637 178.138 231.067 181.619 232.446 183.72C232.413 182.571 232.282 180.962 231.953 179.058C231.297 175.249 229.721 169.372 225.814 162.969C225.617 162.674 225.715 162.247 226.043 162.083C226.339 161.886 226.766 161.984 226.93 162.313C234.646 174.986 233.759 185.559 233.726 186.018C233.726 186.314 233.497 186.544 233.234 186.609C233.168 186.609 233.135 186.609 233.07 186.609V186.544Z" fill="#191935"/>
<path d="M200.138 164.512C199.974 164.512 199.81 164.447 199.679 164.316C199.514 164.151 181.784 146.487 151.578 134.799C151.25 134.667 151.086 134.273 151.217 133.945C151.348 133.617 151.742 133.452 152.07 133.584C182.572 145.404 200.434 163.232 200.631 163.396C200.893 163.659 200.893 164.086 200.631 164.316C200.499 164.447 200.335 164.512 200.171 164.512H200.138Z" fill="#7481BA"/>
<path d="M64.7342 109.254C55.2782 86.9277 65.7192 61.1866 88.0129 51.7306C110.307 42.2747 136.081 52.7156 145.537 75.0093L142.319 67.4248C132.863 45.0983 107.089 34.6902 84.7953 44.1462C62.4687 53.6021 52.0606 79.3761 61.5165 101.67L64.7342 109.254Z" fill="#FFD366"/>
<path d="M64.7341 109.911C64.4715 109.911 64.2416 109.747 64.1431 109.517L60.9256 101.933C56.2961 90.9663 56.1976 78.8836 60.6629 67.8517C65.1282 56.8198 73.632 48.1847 84.5654 43.5552C95.5317 38.9257 107.614 38.8272 118.646 43.2925C129.678 47.7578 138.313 56.2616 142.943 67.1951L146.16 74.7795C146.292 75.1078 146.16 75.5018 145.799 75.6332C145.471 75.7645 145.077 75.6332 144.946 75.272C140.447 64.6341 132.075 56.393 121.371 52.059C110.668 47.725 98.9134 47.8235 88.2755 52.3216C77.6376 56.8198 69.3965 65.1922 65.0625 75.8958C60.7285 86.5994 60.827 98.3537 65.3252 108.992C65.4565 109.32 65.3251 109.714 64.964 109.845C64.8655 109.878 64.7999 109.911 64.7014 109.911H64.7341ZM101.934 41.2897C96.2212 41.2897 90.5082 42.4389 85.0579 44.7372C74.42 49.2353 66.1788 57.6078 61.8448 68.3114C57.872 78.0957 57.6094 88.7664 61.0569 98.6492C59.9077 90.8678 60.827 82.8893 63.8477 75.4362C68.313 64.4042 76.8168 55.7691 87.7502 51.1396C98.7165 46.5102 110.799 46.4117 121.831 50.877C129.317 53.8976 135.687 58.7898 140.447 65.0281C135.719 55.7035 127.905 48.4802 118.121 44.5074C112.868 42.3732 107.384 41.3225 101.901 41.3225L101.934 41.2897Z" fill="#996614"/>
<path d="M104.167 133.682C128.411 133.682 148.065 114.028 148.065 89.7842C148.065 65.54 128.411 45.8862 104.167 45.8862C79.923 45.8862 60.2693 65.54 60.2693 89.7842C60.2693 114.028 79.923 133.682 104.167 133.682Z" fill="#8588D1"/>
<path d="M136.409 99.1088C136.77 79.7372 122.422 64.1415 101.573 64.4041C80.0674 64.6668 72.089 82.3311 71.104 97.1716C71.104 97.1716 103.937 122.059 136.409 99.1088Z" fill="white"/>
<path d="M104.824 67.983C82.4315 68.8039 79.1154 108.302 106.104 106.792C131.222 105.413 124.885 67.2607 104.824 67.983Z" fill="#1A1A21"/>
<path d="M106.531 109.451C100.884 109.451 95.7288 108.565 91.4277 107.383C79.1809 104.034 70.8084 97.7627 70.7099 97.6971C70.4144 97.4672 70.3488 97.0732 70.5786 96.7777C70.8085 96.4822 71.2025 96.4165 71.498 96.6464C71.5637 96.712 79.772 102.852 91.7889 106.135C98.8152 108.039 105.776 108.631 112.441 107.843C120.781 106.858 128.693 103.738 136.015 98.5835C136.311 98.3865 136.737 98.4522 136.934 98.7477C137.131 99.0432 137.066 99.4372 136.77 99.6671C126.264 107.12 115.691 109.484 106.498 109.484L106.531 109.451Z" fill="#191935"/>
<path d="M127.676 75.5019C127.511 75.5019 127.347 75.4363 127.249 75.3378C119.172 67.9831 109.979 64.4371 100.687 65.0938C93.4307 65.6191 86.273 68.6726 81.0525 73.5319C80.7899 73.7946 80.3631 73.7617 80.1333 73.4991C79.8706 73.2364 79.9034 72.8096 80.1661 72.5798C85.5835 67.5563 93.0366 64.3386 100.588 63.8133C110.241 63.1238 119.763 66.7683 128.135 74.3856C128.398 74.6154 128.431 75.0422 128.168 75.3049C128.037 75.4362 127.873 75.5347 127.676 75.5347V75.5019Z" fill="#191935"/>
<path d="M106.301 73.1379C103.149 69.7233 90.5084 79.7045 93.8902 83.6117C97.272 87.5188 109.88 77.0122 106.301 73.1379Z" fill="white"/>
<path opacity="0.4" d="M89.622 55.5066C110.898 46.4774 135.326 55.5394 145.734 75.7646C145.373 74.7139 144.979 73.6961 144.552 72.6454C135.096 50.3189 109.322 39.9108 87.0282 49.3667C64.7016 58.8227 54.2935 84.5967 63.7494 106.89C64.1763 107.908 64.6688 108.926 65.1613 109.911C57.8723 88.3725 68.3461 64.5028 89.622 55.5066Z" fill="white"/>
<path d="M117.497 121.665C116.939 121.665 116.447 121.337 116.25 120.779C116.02 120.089 116.381 119.334 117.07 119.104C124.031 116.675 129.908 112.177 134.144 106.102C138.313 100.061 140.48 93.002 140.316 85.6802C140.316 84.9578 140.874 84.3668 141.597 84.334C142.319 84.334 142.91 84.8922 142.91 85.6145C143.074 93.4944 140.743 101.079 136.245 107.58C131.714 114.114 125.377 118.973 117.891 121.567C117.76 121.632 117.596 121.632 117.464 121.632L117.497 121.665Z" fill="white"/>
<path d="M142.352 67.4249C151.808 89.7515 141.367 115.493 119.073 124.949C96.7464 134.405 71.0053 123.964 61.5493 101.67L64.7013 109.09C74.1573 131.417 99.5045 141.234 121.831 131.778C144.158 122.322 154.96 97.139 145.504 74.8452L142.352 67.4249Z" fill="#FFD366"/>
<path d="M104.331 136.046C98.8479 136.046 93.3648 135.028 88.1772 132.96C77.2766 128.659 68.7071 120.254 64.0776 109.353L60.9585 101.965C60.8271 101.637 60.9585 101.243 61.3197 101.112C61.648 100.98 62.0419 101.112 62.1733 101.473C69.1339 117.922 85.1894 127.838 102.033 127.838C107.647 127.838 113.36 126.722 118.843 124.423C140.776 115.132 151.085 89.7187 141.794 67.7862C141.662 67.4578 141.794 67.0638 142.155 66.9325C142.483 66.8011 142.877 66.9325 143.009 67.2937L146.128 74.6811C150.757 85.5817 150.79 97.5986 146.193 108.499C141.662 119.301 133.093 127.838 122.094 132.5C116.348 134.93 110.339 136.145 104.364 136.145L104.331 136.046ZM66.6386 111.75C71.3338 120.91 79.0496 127.969 88.6697 131.745C99.2091 135.915 110.898 135.718 121.568 131.187C132.239 126.656 140.579 118.382 144.979 107.875C149.017 98.2881 149.345 87.8144 146.029 78.0301C148.918 97.5986 138.379 117.463 119.336 125.54C108.37 130.169 96.2869 130.268 85.255 125.802C77.8019 122.782 71.4323 117.922 66.6715 111.717L66.6386 111.75Z" fill="#996614"/>
<path d="M124.852 128.724C125.673 135.619 128.463 141.89 133.027 147.242C129.711 148.588 126.395 149.935 123.079 151.281C122.652 144.254 120.255 137.819 116.052 132.27C115.264 131.351 116.873 129.709 119.697 128.593C122.521 127.444 124.786 127.51 124.885 128.724H124.852Z" fill="#FFD366"/>
<path d="M123.046 151.937C122.915 151.937 122.816 151.905 122.685 151.839C122.521 151.74 122.39 151.543 122.39 151.314C121.963 144.419 119.632 138.148 115.495 132.697C115.199 132.336 115.101 131.844 115.199 131.351C115.495 130.169 117.038 128.921 119.402 127.969C121.733 127.017 123.736 126.853 124.754 127.477C125.18 127.739 125.443 128.166 125.476 128.626C126.297 135.422 128.989 141.529 133.487 146.783C133.618 146.947 133.684 147.144 133.618 147.374C133.553 147.603 133.421 147.735 133.224 147.833L123.276 151.872C123.21 151.872 123.112 151.905 123.013 151.905L123.046 151.937ZM123.178 128.429C122.455 128.429 121.339 128.626 119.927 129.184C117.662 130.103 116.644 131.154 116.512 131.647C116.512 131.778 116.512 131.811 116.512 131.844C120.617 137.261 123.013 143.467 123.604 150.296L131.911 146.947C127.577 141.628 124.983 135.521 124.163 128.757C124.163 128.757 124.163 128.757 124.163 128.724C124.163 128.692 124.162 128.626 124.064 128.56C123.9 128.462 123.604 128.396 123.145 128.396L123.178 128.429Z" fill="#996614"/>
<path d="M116.512 142.285C115.954 141.004 118.909 138.509 123.079 136.736C127.248 134.963 131.09 134.569 131.418 135.718L153.121 186.938L138.28 193.701L116.479 142.285H116.512Z" fill="#603526"/>
<path d="M138.281 194.391C138.215 194.391 138.117 194.391 138.051 194.358C137.887 194.292 137.755 194.161 137.69 193.997L115.888 142.58C115.626 141.923 115.691 140.84 117.596 139.231C118.876 138.147 120.748 137.064 122.816 136.177C126.395 134.667 129.875 134.076 131.287 134.733C131.78 134.963 131.977 135.291 132.042 135.521L153.745 186.708C153.876 187.036 153.745 187.43 153.417 187.561L138.576 194.325C138.478 194.358 138.412 194.391 138.314 194.391H138.281ZM117.103 142.055L138.642 192.847L152.3 186.642L130.828 136.013C130.828 136.013 130.828 135.98 130.828 135.948C130.631 135.718 128.07 135.39 123.374 137.392C121.404 138.213 119.664 139.231 118.482 140.249C117.333 141.201 117.07 141.89 117.136 142.087L117.103 142.055Z" fill="#201C18"/>
<path d="M146.331 190.47C150.504 188.698 153.72 186.87 153.515 186.386C153.309 185.902 149.76 186.946 145.587 188.717C141.414 190.488 138.198 192.317 138.403 192.801C138.609 193.285 142.158 192.241 146.331 190.47Z" fill="#603526"/>
<path d="M138.675 194.489C138.149 194.489 137.854 194.325 137.69 193.964C137.394 193.274 137.952 192.683 139.922 191.567C141.301 190.779 143.173 189.86 145.241 189.006C147.277 188.152 149.247 187.43 150.79 186.97C152.957 186.346 153.778 186.346 154.073 187.036C154.369 187.725 153.811 188.316 151.841 189.433C150.462 190.221 148.59 191.14 146.522 191.994C144.486 192.847 142.516 193.57 140.973 194.029C139.922 194.325 139.2 194.489 138.675 194.489ZM145.734 190.254C143.402 191.239 141.597 192.158 140.382 192.847C141.695 192.453 143.632 191.797 145.964 190.812C148.295 189.827 150.1 188.907 151.315 188.218C150.002 188.612 148.065 189.269 145.734 190.254Z" fill="#201C18"/>
<path d="M152.793 178.861C157.061 176.267 161.888 171.604 161.888 171.604C158.079 169.273 156.831 167.369 156.831 167.369C156.831 167.369 159.392 163.856 164.12 160.014C161.855 157.814 159.589 152.266 159.589 152.266C163.726 149.147 164.088 146.487 164.088 146.487C158.67 139.461 150.889 134.207 150.889 134.207C140.579 131.482 128.595 136.309 113.459 148.227C108.074 152.463 113.557 164.808 117.629 162.017C112.868 166.482 121.142 179.747 125.607 176.825C122.521 179.747 130.631 189.761 136.311 186.97C139.364 185.46 143.83 182.833 143.83 182.833C143.83 182.833 147.966 181.783 152.793 178.893V178.861Z" fill="#DDDCFC"/>
<path d="M134.176 188.087C133.06 188.087 131.878 187.758 130.663 187.134C128.89 186.215 127.183 184.672 125.935 182.899C124.622 180.995 124.063 179.222 124.326 177.843C122.652 177.908 120.714 176.694 118.909 174.428C117.365 172.458 116.216 170.028 115.757 167.763C115.396 165.891 115.494 164.315 116.085 163.035C115.133 162.936 114.181 162.378 113.294 161.328C110.766 158.274 109.387 151.313 112.966 147.702C123.834 136.867 140.973 130.629 151.939 133.518C152.3 133.616 152.497 133.978 152.398 134.306C152.3 134.667 151.939 134.864 151.61 134.766C141.038 131.975 124.457 138.049 113.885 148.588C110.897 151.576 112.047 157.716 114.279 160.441C115.002 161.295 116.085 162.148 117.234 161.393C117.53 161.196 117.891 161.262 118.121 161.525C118.35 161.787 118.318 162.181 118.055 162.411C116.151 164.217 116.315 168.978 119.926 173.574C121.371 175.413 123.637 177.219 125.213 176.201C125.508 176.004 125.869 176.07 126.099 176.332C126.296 176.595 126.296 176.989 126.033 177.219C125.147 178.04 125.541 180.01 126.986 182.111C129.153 185.23 133.027 187.758 135.982 186.281C138.97 184.803 143.402 182.209 143.468 182.177C143.533 182.177 143.566 182.111 143.632 182.111C143.665 182.111 147.769 181.06 152.398 178.237C153.318 177.678 154.336 176.989 155.419 176.168C155.715 175.938 156.109 176.004 156.338 176.3C156.568 176.595 156.503 176.989 156.207 177.219C155.091 178.073 154.04 178.795 153.088 179.353C148.59 182.078 144.715 183.162 144.059 183.359C143.435 183.72 139.397 186.084 136.573 187.463C135.818 187.824 134.997 188.021 134.143 188.021L134.176 188.087Z" fill="#7481BA"/>
<path d="M117.661 162.641C117.497 162.641 117.3 162.575 117.169 162.411C116.939 162.148 116.939 161.722 117.234 161.492C119.073 159.85 122.455 157.749 122.586 157.65C122.882 157.453 123.308 157.552 123.505 157.847C123.702 158.143 123.604 158.57 123.308 158.767C123.276 158.767 119.894 160.901 118.121 162.477C117.989 162.575 117.825 162.641 117.694 162.641H117.661Z" fill="#7481BA"/>
<path d="M125.64 177.449C125.475 177.449 125.278 177.383 125.147 177.252C124.884 176.989 124.917 176.562 125.18 176.333C127.807 173.903 130.86 171.309 130.893 171.276C131.156 171.046 131.582 171.079 131.812 171.342C132.042 171.605 132.009 172.031 131.747 172.261C131.747 172.261 128.693 174.855 126.066 177.285C125.935 177.416 125.771 177.449 125.607 177.449H125.64Z" fill="#7481BA"/>
</svg>
