<svg width="256" height="256" viewBox="0 0 256 256" fill="none" xmlns="http://www.w3.org/2000/svg">
<path d="M159.926 216.012C141.453 139.256 112.959 84.8589 112.959 84.8589L91.0776 96.8221C91.0776 96.8221 105.222 151.696 107.506 212.467C118.344 214.239 129.728 215.432 141.555 215.978H159.926V216.012Z" fill="#DDDCFC"/>
<path d="M159.926 216.012C147.043 162.501 129.285 119.828 119.708 98.9353C131.33 138.199 139.442 184.723 144.145 216.012H159.926Z" fill="#9597CF"/>
<path d="M159.551 215.16C159.244 215.16 158.972 214.955 158.903 214.648C140.635 139.665 112.652 85.745 112.346 85.1997C112.175 84.8589 112.312 84.4499 112.618 84.2794C112.959 84.109 113.368 84.2454 113.539 84.5521C113.811 85.0974 141.896 139.154 160.199 214.307C160.301 214.682 160.062 215.057 159.687 215.125C159.619 215.125 159.585 215.125 159.517 215.125L159.551 215.16Z" fill="#7481BA"/>
<path d="M107.506 213.183C107.131 213.183 106.824 212.91 106.824 212.535C104.575 152.548 90.5664 97.6061 90.396 97.0267C90.2937 96.6518 90.5323 96.2769 90.8731 96.2087C91.248 96.1064 91.623 96.345 91.6911 96.6859C91.8275 97.2312 105.904 152.31 108.153 212.467C108.153 212.842 107.881 213.149 107.506 213.183Z" fill="#7481BA"/>
<path d="M159.551 215.16C159.244 215.16 158.972 214.955 158.904 214.648C146.225 162.637 128.944 120.953 119.776 100.708C119.605 100.367 119.776 99.9578 120.117 99.8215C120.458 99.6511 120.867 99.8215 121.003 100.162C130.205 120.442 147.52 162.194 160.199 214.342C160.301 214.716 160.062 215.091 159.687 215.16C159.619 215.16 159.585 215.16 159.517 215.16H159.551Z" fill="#191935"/>
<path d="M109.517 89.6986C108.835 94.9134 105.188 99.3783 105.188 99.3783C104.915 96.6176 103.211 95.4587 103.211 95.4587C102.325 99.0716 100.212 102.582 100.212 102.582C96.122 100.708 92.9181 101.73 92.9181 101.73C92.9181 101.73 80.7163 96.5835 76.3195 83.3591C76.3195 83.3591 100.723 68.158 106.313 72.6911C114.731 79.5759 112.482 84.8588 112.482 84.8588C112.55 88.199 112.039 92.8684 112.039 92.8684C110.982 90.653 109.585 89.6986 109.585 89.6986H109.517Z" fill="#DDDCFC"/>
<path d="M103.245 81.9958C96.531 73.6113 84.1246 84.4157 88.9304 91.3346C95.4403 100.673 108.699 88.8125 103.245 81.9958Z" fill="#F7F5FE"/>
<path d="M112.959 85.5746C112.584 85.5746 112.277 85.2678 112.277 84.8929C112.277 84.8929 112.277 82.473 111.971 80.8711C111.903 80.4962 112.141 80.1553 112.516 80.0872C112.891 80.019 113.232 80.2576 113.3 80.6325C113.607 82.3708 113.607 84.7907 113.607 84.8929C113.607 85.2678 113.3 85.5746 112.925 85.5746H112.959Z" fill="#7481BA"/>
<path d="M92.7477 102.48C92.6455 102.48 92.5774 102.48 92.4751 102.412C82.3524 98.2537 78.4668 90.9939 76.2173 85.1657C76.081 84.8248 76.2514 84.4158 76.5922 84.2795C76.9331 84.1432 77.3421 84.3136 77.4784 84.6544C79.6598 90.2441 83.3749 97.163 92.9864 101.117C93.3272 101.253 93.4976 101.662 93.3612 102.003C93.259 102.275 92.9863 102.412 92.7137 102.412L92.7477 102.48Z" fill="#7481BA"/>
<path d="M93.8385 75.2815C93.8385 75.2815 94.0771 75.895 95.0655 77.531C97.2468 81.1438 100.723 83.257 102.121 82.5412C103.586 81.7914 103.995 77.94 103.109 73.3728C102.462 70.1349 99.8371 66.079 94.1111 66.8629C89.1691 67.5445 85.6926 74.3271 87.5672 80.1895" fill="#DDDCFC"/>
<path d="M101.473 83.3592C99.4281 83.3592 96.3946 81.0756 94.486 77.8718C93.4976 76.2017 93.2249 75.5541 93.1908 75.52C93.0545 75.1792 93.1908 74.7702 93.5657 74.6338C93.9066 74.4975 94.3155 74.6338 94.4519 75.0088C94.4519 75.0088 94.7245 75.6563 95.6448 77.156C97.792 80.7007 100.928 82.3708 101.814 81.9277C102.666 81.4846 103.382 78.3148 102.427 73.475C101.814 70.3053 99.2577 66.8288 94.1793 67.5104C92.3388 67.749 90.6005 68.976 89.3735 70.9528C87.7034 73.5773 87.2603 77.0197 88.1806 79.9508C88.2828 80.3258 88.1124 80.7007 87.7375 80.8029C87.3625 80.9052 86.9876 80.7348 86.8854 80.3598C85.8288 77.0538 86.3401 73.1683 88.2147 70.203C89.6803 67.8853 91.7252 66.4538 93.9747 66.1471C99.5985 65.3973 102.939 69.1464 103.723 73.2023C104.541 77.3946 104.438 82.064 102.393 83.1206C102.121 83.2569 101.78 83.3251 101.439 83.3251L101.473 83.3592Z" fill="#7481BA"/>
<path d="M102.121 82.5411C103.586 81.7913 103.995 77.9398 103.109 73.3727C98.0989 73.7476 95.0654 77.5308 95.0654 77.5308C97.2468 81.1437 100.723 83.2569 102.121 82.5411Z" fill="#3F3E77"/>
<path d="M101.473 83.3591C99.4281 83.3591 96.3947 81.0755 94.486 77.8717C94.2815 77.5649 94.3838 77.1219 94.7246 76.9514C95.0314 76.7469 95.4744 76.8492 95.6448 77.19C97.7921 80.7347 100.928 82.4048 101.814 81.9617C102.666 81.5186 103.382 78.3489 102.427 73.509C102.359 73.1341 102.598 72.7933 102.973 72.7251C103.348 72.6569 103.689 72.8955 103.757 73.2704C104.575 77.4627 104.472 82.1321 102.427 83.1887C102.155 83.325 101.814 83.3932 101.473 83.3932V83.3591Z" fill="#191935"/>
<path d="M85.488 78.3488C85.488 78.3488 86.6127 81.1777 87.6352 82.8137C89.8847 86.3925 93.4294 88.4034 94.7927 87.6877C96.2242 86.9037 96.5651 83.0182 95.5767 78.4852C94.8609 75.2472 92.3046 67.8171 85.5902 69.9302C78.8758 72.0434 81.0912 77.19 81.0912 77.19" fill="#DDDCFC"/>
<path d="M94.111 88.5057C92.066 88.5057 89.0326 86.2903 87.0558 83.1887C85.9992 81.5527 84.9086 78.7238 84.8745 78.6216C84.7382 78.2807 84.9085 77.8717 85.2494 77.7354C85.5902 77.5991 85.9992 77.7695 86.1356 78.1103C86.1356 78.1103 87.2263 80.9052 88.2147 82.4389C90.4301 85.9495 93.5998 87.5514 94.486 87.0742C95.3381 86.5971 95.9857 83.4273 94.9291 78.6216C94.6223 77.2582 93.4294 72.657 90.4301 70.9187C89.1009 70.1348 87.5671 70.0326 85.8289 70.5779C84.1929 71.0892 82.9999 72.3502 82.3523 74.293C81.8069 75.7927 81.807 77.1901 81.807 77.1901C81.807 77.565 81.5002 77.8717 81.1253 77.8717C80.7504 77.8717 80.4437 77.565 80.4437 77.1901C80.4437 77.1219 80.4437 75.5882 81.0572 73.884C81.8752 71.5322 83.3748 69.9303 85.4539 69.2827C87.5671 68.6011 89.4757 68.7715 91.1458 69.7258C94.5201 71.7027 95.8834 76.4062 96.2924 78.3148C97.2127 82.473 97.2127 87.1765 95.1677 88.2672C94.8609 88.4376 94.5201 88.5057 94.1793 88.5057H94.111Z" fill="#7481BA"/>
<path d="M94.7928 87.6877C96.2243 86.9038 96.5651 83.0183 95.5767 78.4852C90.5664 78.9624 87.6353 82.8138 87.6353 82.8138C89.8848 86.3926 93.4294 88.4035 94.7928 87.6877Z" fill="#3F3E77"/>
<path d="M94.1111 88.5057C92.0661 88.5057 89.0327 86.2903 87.0558 83.1887C86.8513 82.8819 86.9536 82.4389 87.2604 82.2344C87.5671 82.0299 88.0102 82.1321 88.2147 82.4389C90.4301 85.9494 93.5999 87.5514 94.486 87.0742C95.3381 86.597 95.9857 83.4273 94.9291 78.6215C94.861 78.2466 95.0655 77.9058 95.4404 77.8035C95.8153 77.7353 96.1561 77.9398 96.2584 78.3148C97.1786 82.4729 97.1786 87.1764 95.1336 88.2671C94.8268 88.4375 94.486 88.5057 94.1452 88.5057H94.1111Z" fill="#191935"/>
<path d="M79.7621 84.7907C79.7621 84.7907 80.7164 85.9495 81.4662 86.7334C84.3974 89.7669 88.2488 91.0279 89.4417 90.0395C90.6687 88.9829 90.2256 85.1315 88.3169 80.9052C86.9877 77.9059 83.7498 74.1908 78.535 76.5766C73.8997 78.6898 76.8309 84.9611 76.8309 84.9611" fill="#DDDCFC"/>
<path d="M88.2487 91.0279C86.2378 91.0279 83.2384 89.5623 80.9889 87.1764C80.2391 86.3925 79.2848 85.2678 79.2507 85.1996C79.0121 84.8929 79.0462 84.4839 79.353 84.2453C79.6597 84.0067 80.0687 84.0408 80.3072 84.3475C80.3072 84.3475 81.2616 85.5064 81.9774 86.2221C83.2725 87.5514 84.8744 88.642 86.3741 89.2214C87.7715 89.7668 88.7259 89.7327 89.0326 89.46C89.7825 88.8465 89.7484 85.5745 87.7374 81.1096C87.2943 80.0871 85.9651 77.6331 83.6134 76.7469C82.1819 76.2016 80.5799 76.3379 78.8758 77.1219C77.8873 77.5649 77.2739 78.2466 76.933 79.1669C76.0809 81.5186 77.4783 84.5861 77.5124 84.6202C77.6828 84.961 77.5124 85.37 77.1716 85.5404C76.8308 85.7109 76.4218 85.5404 76.2514 85.1996C76.1832 85.0633 74.5813 81.5527 75.6378 78.6897C76.115 77.4286 77.0012 76.4743 78.2964 75.8949C80.3414 74.9405 82.2841 74.8042 84.0905 75.4859C86.9535 76.5424 88.4532 79.4054 88.9985 80.5643C90.7368 84.4498 91.6911 89.0169 89.9529 90.5166C89.5439 90.8574 88.9985 91.0279 88.3168 91.0279H88.2487Z" fill="#7481BA"/>
<path d="M89.4416 90.0053C90.6686 88.9487 90.2255 85.0973 88.3168 80.871C83.5111 82.3366 81.4661 86.7333 81.4661 86.7333C84.3973 89.7667 88.2487 91.0278 89.4416 90.0394V90.0053Z" fill="#3F3E77"/>
<path d="M88.2487 91.0279C86.2378 91.0279 83.2384 89.5623 80.9889 87.1765C80.7163 86.9038 80.7503 86.4607 80.9889 86.2221C81.2616 85.9495 81.7047 85.9495 81.9433 86.2221C83.2384 87.5514 84.8404 88.6421 86.3401 89.2215C87.7375 89.7668 88.6918 89.7327 88.9985 89.4601C89.7484 88.8466 89.7143 85.5746 87.7034 81.1096C87.533 80.7688 87.7034 80.3598 88.0442 80.2235C88.3851 80.0531 88.794 80.2235 88.9304 80.5643C90.6686 84.4498 91.623 89.017 89.8847 90.5166C89.4757 90.8575 88.9304 91.0279 88.2487 91.0279Z" fill="#191935"/>
<path d="M112.652 80.7688C112.141 74.3271 110.642 71.2937 108.562 69.9303C105.325 67.8172 101.337 69.7258 99.5985 70.4416C95.9857 71.9413 93.6339 73.0319 93.3954 74.1567C93.0545 75.6223 96.6673 78.9965 101.712 78.8261C102.939 78.792 104.234 78.5193 105.495 78.0081" fill="#DDDCFC"/>
<path d="M112.652 81.4505C112.312 81.4505 112.005 81.1778 111.971 80.837C111.528 75.2814 110.301 71.9072 108.187 70.5438C105.427 68.7374 102.052 70.1689 100.212 70.9528L99.8712 71.0892C97.9284 71.9072 94.2815 73.4068 94.077 74.293C94.077 74.4293 94.1111 74.8043 94.5882 75.3496C95.8152 76.8152 98.4737 78.2467 101.712 78.1103C102.939 78.0763 104.132 77.8036 105.256 77.3264C105.597 77.1901 106.006 77.3264 106.142 77.7013C106.279 78.0422 106.143 78.4512 105.768 78.5875C104.472 79.0988 103.143 79.4055 101.746 79.4737C98.0307 79.61 94.9631 77.9399 93.5316 76.2358C92.85 75.4178 92.5773 74.6679 92.7137 73.9863C93.0204 72.6229 94.9972 71.6004 99.3258 69.794L99.6666 69.6577C101.575 68.8397 105.563 67.1696 108.903 69.3509C111.425 71.021 112.857 74.5998 113.3 80.7007C113.3 81.0756 113.061 81.4164 112.686 81.4164C112.686 81.4164 112.652 81.4164 112.618 81.4164L112.652 81.4505Z" fill="#7481BA"/>
<path d="M93.3954 74.1226C93.7021 72.8274 96.5992 72.1457 99.5985 70.3734C102.223 73.1001 101.984 77.0197 101.746 78.7238C96.5992 79.1669 93.0886 75.6563 93.4294 74.1226H93.3954Z" fill="#3F3E77"/>
<path d="M101.303 79.4737C97.792 79.4737 94.8609 77.8718 93.4976 76.2017C92.8159 75.3837 92.5432 74.6338 92.6795 73.9522C92.9863 72.5888 94.9632 71.5663 99.2917 69.7599C99.6326 69.6236 100.042 69.7599 100.178 70.1348C100.314 70.4757 100.178 70.8847 99.803 71.021C97.8602 71.839 94.2133 73.3387 94.0088 74.2248C94.0088 74.3612 94.0429 74.7361 94.5201 75.2814C95.7471 76.747 98.4055 78.1785 101.643 78.0422C102.018 78.0422 102.325 78.3148 102.359 78.6898C102.359 79.0647 102.087 79.3714 101.712 79.4055C101.575 79.4055 101.439 79.4055 101.303 79.4055V79.4737Z" fill="#191935"/>
<path d="M186.17 214.921C152.939 171.908 147.963 165.33 147.963 165.33L121.003 174.294C127.274 188.643 130.001 203.912 131.194 215.364C139.306 216.012 147.69 216.352 156.211 216.352C164.732 216.352 176.49 215.841 186.17 214.921Z" fill="#8B8BD1"/>
<path d="M147.963 165.33L120.594 173.135C120.594 173.135 124.786 182.405 126.967 191.506C136.238 198.527 144.895 207.866 151.337 216.318C152.973 216.318 154.575 216.352 156.211 216.352C166.47 216.352 176.491 215.841 186.17 214.921C152.939 171.908 147.963 165.33 147.963 165.33Z" fill="#DDDCFC"/>
<path d="M131.228 216.046C130.887 216.046 130.58 215.773 130.546 215.432C128.944 199.754 125.366 185.643 119.98 173.407C119.844 173.067 119.98 172.658 120.321 172.521C120.662 172.385 121.071 172.521 121.207 172.862C126.661 185.2 130.239 199.481 131.875 215.296C131.909 215.671 131.637 216.012 131.262 216.046C131.262 216.046 131.228 216.046 131.194 216.046H131.228Z" fill="#191935"/>
<path d="M142.305 174.975L137.499 169.215L120.628 173.135C122.025 174.737 123.355 176.441 124.616 178.213C124.616 178.213 138.215 186.155 148.951 193.892C159.687 201.628 165.857 207.389 175.127 214.273C175.741 214.751 176.388 215.194 177.07 215.671C180.921 215.432 184.705 215.091 188.454 214.682C172.162 201.254 155.018 185.2 142.339 174.941L142.305 174.975Z" fill="#49488A"/>
<path d="M175.093 214.955C174.957 214.955 174.82 214.921 174.684 214.819C170.628 211.785 167.22 209.025 163.641 206.127C159.176 202.515 154.575 198.765 148.542 194.437C148.235 194.232 148.167 193.789 148.372 193.483C148.576 193.176 149.019 193.108 149.326 193.312C155.393 197.675 159.994 201.424 164.493 205.037C168.072 207.934 171.446 210.695 175.502 213.694C175.809 213.933 175.877 214.342 175.638 214.648C175.502 214.819 175.298 214.921 175.093 214.921V214.955Z" fill="#191935"/>
<path d="M186.136 214.921C187.942 214.75 189.749 214.546 191.555 214.341C176.116 187.211 153.007 165.296 153.007 165.296L124.104 169.556C158.972 196.823 177.104 209.263 186.17 214.921H186.136Z" fill="#8588D1"/>
<path d="M189.169 211.001C188.931 211.001 188.726 210.899 188.59 210.661C173.491 185.78 152.734 165.977 152.53 165.773C152.257 165.5 152.257 165.091 152.53 164.819C152.803 164.546 153.212 164.546 153.484 164.819C153.689 165.023 174.582 184.962 189.783 209.979C189.987 210.286 189.885 210.729 189.544 210.899C189.442 210.967 189.306 211.001 189.204 211.001H189.169Z" fill="#191935"/>
<path opacity="0.2" d="M134.193 122.76C136.102 126.304 135.659 129.474 135.659 129.474L116.572 139.733C112.686 136.904 112.175 127.463 112.175 127.463L125.672 120.851C128.91 119.283 132.727 120.135 134.159 122.76H134.193Z" fill="#DEF5FF"/>
<path d="M116.572 140.415C116.436 140.415 116.299 140.381 116.163 140.278C112.073 137.313 111.528 127.872 111.494 127.497C111.494 127.224 111.63 126.952 111.868 126.85L125.366 120.237C128.944 118.499 133.171 119.488 134.772 122.453C136.783 126.168 136.34 129.44 136.306 129.576C136.306 129.781 136.136 129.985 135.965 130.087L116.879 140.347C116.776 140.415 116.674 140.415 116.572 140.415ZM112.891 127.838C113.027 129.644 113.811 136.393 116.64 138.881L135.011 128.997C135.045 128.145 135.011 125.691 133.614 123.032C132.353 120.749 128.876 119.999 126.013 121.396L112.925 127.804L112.891 127.838Z" fill="#191935"/>
<path d="M123.491 135.677L181.807 105.752L154.507 163.728L123.491 135.677Z" fill="#66CCB9"/>
<path d="M154.507 164.409C154.336 164.409 154.166 164.341 154.064 164.239L123.048 136.188C122.877 136.052 122.809 135.813 122.843 135.609C122.877 135.404 123.014 135.2 123.218 135.098L181.501 105.207C181.774 105.07 182.08 105.104 182.285 105.309C182.489 105.513 182.557 105.82 182.421 106.093L155.12 164.069C155.018 164.273 154.848 164.409 154.643 164.443C154.609 164.443 154.541 164.443 154.507 164.443V164.409ZM124.684 135.813L154.268 162.603L180.308 107.286L124.684 135.813Z" fill="#20564C"/>
<path d="M126.695 135.779C126.456 135.779 126.218 135.643 126.081 135.405C125.911 135.064 126.081 134.655 126.388 134.484C126.797 134.28 166.027 114.648 177.036 108.615C177.377 108.445 177.786 108.547 177.956 108.888C178.127 109.229 178.024 109.638 177.684 109.808C166.641 115.841 127.377 135.507 126.968 135.677C126.865 135.711 126.763 135.745 126.661 135.745L126.695 135.779Z" fill="#DDEDE8"/>
<path d="M163.824 125.928C166.145 124.679 167.064 121.879 165.877 119.675C164.69 117.471 161.847 116.697 159.526 117.946C157.206 119.195 156.287 121.995 157.474 124.199C158.661 126.404 161.504 127.178 163.824 125.928Z" fill="#FCEE70"/>
<path d="M149.019 138.813C151.655 138.813 153.791 136.676 153.791 134.041C153.791 131.406 151.655 129.269 149.019 129.269C146.384 129.269 144.248 131.406 144.248 134.041C144.248 136.676 146.384 138.813 149.019 138.813Z" fill="#FCEE70"/>
<path d="M150.621 155.036C153.257 155.036 155.393 152.9 155.393 150.265C155.393 147.629 153.257 145.493 150.621 145.493C147.986 145.493 145.85 147.629 145.85 150.265C145.85 152.9 147.986 155.036 150.621 155.036Z" fill="#FCEE70"/>
<path d="M175.57 113.148C173.321 114.511 172.571 117.443 173.968 119.726C174.207 120.101 174.48 120.442 174.752 120.715L178.604 112.5C177.581 112.364 176.491 112.569 175.57 113.148Z" fill="#FCEE70"/>
<path d="M174.752 121.396C174.65 121.396 174.548 121.396 174.446 121.328C174.105 121.158 173.968 120.749 174.105 120.408L177.956 112.194C178.127 111.853 178.536 111.716 178.876 111.853C179.217 112.023 179.354 112.432 179.217 112.773L175.366 120.987C175.264 121.226 174.991 121.362 174.752 121.362V121.396Z" fill="#FFA41F"/>
<path d="M165.856 133.7C163.675 132.439 160.846 133.291 159.551 135.575C158.222 137.858 158.938 140.721 161.119 141.982C162.21 142.596 163.471 142.698 164.595 142.357L167.697 135.745C167.322 134.893 166.709 134.177 165.856 133.666V133.7Z" fill="#FCEE70"/>
<path d="M164.561 143.073C164.459 143.073 164.357 143.073 164.255 143.005C163.914 142.835 163.777 142.426 163.914 142.085L167.015 135.473C167.186 135.132 167.595 134.995 167.936 135.132C168.276 135.302 168.413 135.711 168.276 136.052L165.175 142.664C165.073 142.903 164.8 143.039 164.561 143.039V143.073Z" fill="#FFA41F"/>
<path d="M133.102 164C132.966 164 132.796 163.932 132.693 163.83C132.557 163.66 129.421 159.842 130.274 155.241C130.308 154.968 130.58 154.764 130.853 154.832C131.126 154.9 131.33 155.139 131.262 155.411C130.512 159.57 133.409 163.148 133.443 163.182C133.614 163.387 133.58 163.728 133.375 163.898C133.273 163.966 133.171 164 133.034 164H133.102Z" fill="#191935"/>
<path d="M150.792 176.27C152.871 171.874 155.018 165.943 154.473 160.831C153.552 152.071 147.486 143.585 139.476 135.37C111.63 106.809 67.4237 97.2653 45.7126 92.1868C33.7153 89.392 36.1693 98.5604 44.7242 104.286C112.073 149.515 97.792 181.383 138.181 181.076" fill="#8588D1"/>
<path d="M55.1197 107.456L53.3474 110.285C65.7196 119.317 89.3394 141.676 98.167 155.105C97.1445 138.37 65.6855 113.046 55.1197 107.422V107.456Z" fill="#49488A"/>
<path d="M56.892 95.9019C60.6412 102.65 58.4599 109.978 57.2669 114.205C57.2669 114.205 47.7577 106.4 43.5313 103.298C32.9314 95.4248 38.5892 90.5849 43.1564 91.437C46.8374 92.1187 51.575 94.4704 56.858 95.936L56.892 95.9019Z" fill="#49488A"/>
<path d="M143.498 139.733C113.266 104.559 53.8245 94.2658 43.5995 91.9822C43.5995 91.9822 40.4638 91.3346 38.2484 93.0047C48.3371 93.4137 110.71 105.752 143.498 139.699V139.733Z" fill="#DCE5EA"/>
<path d="M143.736 139.494C131.705 125.52 113.709 113.83 90.2597 104.729C71.4116 97.4356 53.8927 93.7887 46.4284 92.2208C45.3037 91.9823 44.3834 91.7778 43.6677 91.6414C43.5313 91.6414 40.3616 90.9598 38.0099 92.7321C37.9076 92.8343 37.8394 92.9707 37.8735 93.107C37.9076 93.2433 38.044 93.3456 38.1803 93.3456C43.4973 93.5501 61.9022 96.9584 82.1818 104.116C100.416 110.558 125.809 121.976 143.191 139.972C143.259 140.04 143.362 140.074 143.43 140.074C143.498 140.074 143.6 140.074 143.668 139.972C143.805 139.835 143.805 139.631 143.668 139.494H143.736Z" fill="#DCE5EA"/>
<path d="M137.602 181.758C116.845 181.758 110.505 173.101 100.076 158.854C90.2256 145.391 76.7287 126.986 44.3154 104.866C38.9302 101.185 35.8286 96.2086 37.1238 93.2434C37.8054 91.6755 39.8846 90.1418 45.8492 91.5392L47.86 92.0164C70.5255 97.2652 112.755 107.047 139.919 134.893C149.463 144.675 154.302 152.923 155.12 160.763C155.495 164.205 154.711 168.363 152.871 173.101C152.735 173.442 152.326 173.612 151.985 173.476C151.644 173.339 151.473 172.93 151.61 172.589C153.382 168.056 154.098 164.103 153.791 160.865C153.007 153.332 148.304 145.357 138.965 135.813C112.073 108.24 70.1165 98.5263 47.5874 93.3115L45.5765 92.8344C41.6569 91.9141 39.0665 92.255 38.3849 93.7546C37.4987 95.7315 39.8505 100.094 45.0993 103.707C77.7171 125.963 91.2822 144.471 101.2 158.002C111.732 172.385 117.595 180.36 137.602 180.36C157.608 180.36 137.976 180.36 138.181 180.36C138.556 180.36 138.863 180.667 138.863 181.042C138.863 181.417 138.556 181.724 138.181 181.724C137.976 181.724 137.806 181.724 137.602 181.724V181.758Z" fill="#191935"/>
<path d="M94.2132 145.629C91.9978 140.721 97.6897 139.188 100.859 142.392L94.2132 145.629Z" fill="#8588D1"/>
<path d="M94.2133 146.311C93.9406 146.311 93.702 146.175 93.5998 145.902C92.6113 143.721 92.9522 141.812 94.486 140.756C96.3946 139.426 99.3939 139.938 101.371 141.88C101.643 142.153 101.643 142.562 101.371 142.835C101.098 143.107 100.689 143.107 100.416 142.835C98.7463 141.165 96.4628 141.028 95.2699 141.846C94.3156 142.528 94.1452 143.755 94.8609 145.323C95.0313 145.664 94.8609 146.073 94.5201 146.209C94.4178 146.243 94.3496 146.277 94.2474 146.277L94.2133 146.311Z" fill="#191935"/>
<path d="M94.1111 149.549C90.8391 152.003 91.5548 156.707 100.178 155.309L94.1111 149.549Z" fill="#8588D1"/>
<path d="M97.3149 156.263C93.3953 156.263 92.2024 154.627 91.8616 153.809C91.214 152.276 91.9297 150.367 93.702 149.038C94.0088 148.799 94.4178 148.867 94.6564 149.174C94.895 149.481 94.8268 149.89 94.5201 150.128C93.2931 151.049 92.7136 152.344 93.1226 153.264C93.5998 154.389 95.6789 155.377 100.076 154.662C100.451 154.593 100.791 154.866 100.86 155.241C100.928 155.616 100.655 155.957 100.28 156.025C99.1554 156.195 98.167 156.298 97.3149 156.298V156.263Z" fill="#191935"/>
<path d="M48.2689 99.4807C45.9171 98.7649 44.622 97.3334 43.4972 96.345C42.8496 95.7997 41.9635 96.6858 42.9519 97.5038C45.1333 99.2421 48.2348 99.4807 48.2348 99.4807H48.2689Z" fill="black"/>
<path d="M48.2689 100.162C48.2689 100.162 48.2689 100.162 48.2349 100.162C48.0985 100.162 44.8947 99.8896 42.577 98.0491C42.0316 97.6401 41.7931 97.0607 41.8953 96.5494C41.9635 96.1064 42.2703 95.7314 42.7134 95.5951C43.1564 95.4247 43.6335 95.5269 44.0085 95.8678C44.1789 96.0041 44.3493 96.1745 44.5197 96.3449C45.5081 97.2652 46.633 98.2877 48.5075 98.8671C48.8484 98.9694 49.0528 99.3102 48.9847 99.651C48.9165 99.9919 48.6438 100.196 48.303 100.196L48.2689 100.162Z" fill="black"/>
<path d="M137.976 138.54C137.806 138.54 137.601 138.472 137.465 138.336C137.192 138.063 137.226 137.62 137.465 137.381C138.453 136.427 139.953 134.859 140.158 134.28C140.362 133.7 139.374 130.906 138.862 130.497C138.453 130.258 136.852 130.122 135.59 130.156C135.216 130.156 134.909 129.883 134.875 129.508C134.875 129.133 135.147 128.826 135.522 128.792C136.033 128.792 138.59 128.758 139.578 129.338C140.498 129.917 141.862 133.496 141.419 134.723C141.044 135.779 138.794 137.927 138.351 138.336C138.215 138.472 138.044 138.506 137.874 138.506L137.976 138.54Z" fill="#191935"/>
<path d="M156.859 148.97C156.279 148.97 155.836 148.492 155.836 147.947C155.836 147.709 155.734 142.392 149.019 141.778C148.474 141.71 148.031 141.233 148.099 140.653C148.167 140.074 148.644 139.665 149.224 139.733C156.109 140.347 157.915 145.391 157.881 147.947C157.881 148.527 157.438 148.97 156.859 148.97Z" fill="#191935"/>
<path d="M153.348 160.967C153.348 160.967 165.516 166.386 166.811 168.943C167.22 169.761 165.754 174.907 162.857 177.395C159.79 180.02 155.257 179.951 154.336 179.133C152.769 177.736 151.439 173.373 151.439 173.373" fill="#D2D2FB"/>
<path d="M164.766 169.556C164.629 169.556 164.459 169.522 164.357 169.42C164.323 169.42 160.505 166.454 153.518 163.046C153.177 162.876 153.041 162.467 153.212 162.126C153.382 161.785 153.791 161.649 154.132 161.819C161.255 165.295 165.038 168.227 165.209 168.363C165.516 168.602 165.55 169.011 165.311 169.317C165.175 169.488 164.97 169.59 164.766 169.59V169.556Z" fill="white"/>
<path d="M156.62 180.326C155.359 180.326 154.336 180.054 153.859 179.645C152.223 178.145 150.928 174.055 150.792 173.578C150.689 173.203 150.894 172.828 151.235 172.726C151.61 172.623 151.985 172.828 152.087 173.169C152.428 174.328 153.621 177.566 154.779 178.622C155.291 179.099 159.449 179.406 162.38 176.884C165.004 174.634 166.334 169.999 166.163 169.215C165.243 167.477 157.642 163.625 153.041 161.58C152.7 161.444 152.53 161.035 152.7 160.694C152.837 160.353 153.246 160.183 153.586 160.353C154.848 160.933 165.993 165.943 167.39 168.636C168.072 169.999 166.095 175.486 163.266 177.906C161.255 179.645 158.597 180.326 156.586 180.326H156.62Z" fill="#49488A"/>
<path d="M158.801 166.625C163.607 168.363 163.437 172.521 163.437 172.521C162.141 171.431 160.608 170.851 160.608 170.851C160.608 173.203 159.312 175.282 159.312 175.282C159.312 175.282 158.426 173.85 158.017 172.896C158.017 172.896 156.824 173.339 155.631 173.544C155.631 173.544 154.37 168.397 154.336 166.693C154.336 166.693 156.756 165.909 158.801 166.659V166.625Z" fill="#6A6DB8"/>
<path d="M166.674 171.396C166.504 171.396 166.334 171.328 166.197 171.192C160.778 165.875 153.382 166.932 153.314 166.932C152.939 167 152.598 166.727 152.53 166.352C152.462 165.977 152.734 165.636 153.109 165.568C153.45 165.5 161.255 164.375 167.152 170.204C167.424 170.476 167.424 170.885 167.152 171.158C167.015 171.294 166.845 171.362 166.674 171.362V171.396Z" fill="#49488A"/>
<path d="M141.521 160.081C141.214 160.081 140.907 159.842 140.839 159.535C139.612 153.06 135.079 150.128 132.114 148.867C133.307 150.572 134.636 153.469 135.011 158.377C135.011 158.752 134.772 159.092 134.398 159.092C134.023 159.092 133.682 158.854 133.682 158.479C133.034 149.719 129.353 147.981 129.319 147.981C129.012 147.845 128.842 147.504 128.944 147.163C129.046 146.822 129.387 146.618 129.728 146.686C129.83 146.686 140.26 148.697 142.237 159.297C142.305 159.672 142.066 160.013 141.691 160.081C141.657 160.081 141.623 160.081 141.555 160.081H141.521Z" fill="#191935"/>
<path opacity="0.2" d="M137.976 137.858C144.18 142.732 147.895 151.321 148.815 156.672C149.224 159.058 147.997 161.376 145.679 162.535L135.011 168.056C131.875 169.658 127.717 168.67 125.809 165.841C122.025 160.251 119.503 154.73 119.094 150.708C118.856 148.356 120.185 146.107 122.537 145.05L138.01 137.824L137.976 137.858Z" fill="#DEF5FF"/>
<path d="M131.739 169.522C129.183 169.522 126.661 168.329 125.229 166.216C121.241 160.319 118.821 154.832 118.412 150.776C118.14 148.118 119.639 145.63 122.23 144.437L137.704 137.211C137.942 137.109 138.215 137.143 138.419 137.279C144.588 142.153 148.508 150.674 149.496 156.536C149.974 159.229 148.576 161.819 145.986 163.148L135.318 168.67C134.193 169.249 132.966 169.522 131.739 169.522ZM137.874 138.642L122.775 145.664C120.696 146.618 119.503 148.561 119.742 150.64C120.151 154.423 122.537 159.808 126.354 165.466C128.092 168.022 131.841 168.943 134.704 167.477L145.372 161.955C147.417 160.899 148.508 158.888 148.167 156.809C147.179 151.151 143.361 143.141 137.908 138.677L137.874 138.642Z" fill="#191935"/>
<path d="M97.6898 145.527C97.6898 145.527 88.1806 141.744 86.8173 141.301C85.4539 140.858 83.5112 147.64 86.6469 148.765C88.7259 149.515 98.1329 151.764 98.1329 151.764" fill="white"/>
<path d="M98.167 152.446C98.0989 152.446 98.0648 152.446 97.9966 152.446C97.6217 152.344 88.5555 150.162 86.4423 149.413C84.1587 148.595 83.852 145.391 84.7381 142.8C85.2835 141.164 86.1356 140.381 87.0218 140.653C88.3851 141.096 97.5535 144.743 97.9285 144.88C98.2693 145.016 98.4397 145.425 98.3033 145.766C98.167 146.107 97.758 146.277 97.4172 146.141C97.315 146.107 88.3169 142.528 86.6809 141.948C86.2719 142.255 85.5221 143.993 85.6243 145.834C85.6584 146.686 85.9311 147.743 86.8854 148.083C88.9304 148.799 98.2011 151.049 98.3033 151.083C98.6782 151.185 98.8827 151.526 98.8146 151.901C98.7464 152.207 98.4738 152.412 98.167 152.412V152.446Z" fill="#CED3DB"/>
<path d="M86.8172 141.301C39.5436 122.078 8.97084 111.512 6.03967 113.318C2.35867 115.602 12.5837 132.985 16.9805 133.291C30.3752 134.212 73.5929 146.073 86.6468 148.765C89.0326 149.242 89.203 142.289 86.8172 141.301Z" fill="#FCEE70"/>
<path d="M86.9194 149.481C86.7831 149.481 86.6808 149.481 86.5445 149.447C82.2841 148.561 74.8198 146.72 66.1968 144.607C48.2689 140.176 25.9444 134.621 16.9804 134.007C14.5946 133.837 11.5952 130.019 10.0274 127.77C7.57338 124.225 5.59654 120.271 4.91487 117.374C4.33546 115.023 4.60817 113.455 5.73292 112.773C6.41459 112.364 8.22098 111.239 30.0684 118.806C44.2471 123.714 63.9813 131.28 87.1239 140.687C89.2371 141.539 89.6461 145.357 88.9985 147.538C88.6236 148.799 87.8737 149.481 86.9535 149.481H86.9194ZM7.16441 113.796C6.78949 113.796 6.55092 113.83 6.41459 113.932C5.86926 114.273 5.80106 115.398 6.21006 117.034C7.67564 122.964 14.2537 132.439 17.0486 132.61C26.1148 133.257 48.5075 138.779 66.5035 143.244C75.1266 145.391 82.5567 147.231 86.7831 148.083C87.2262 148.186 87.4989 147.504 87.6011 147.095C88.2487 144.982 87.4988 142.323 86.5445 141.914C31.6362 119.59 11.3566 113.762 7.13029 113.762L7.16441 113.796Z" fill="#E89437"/>
<path d="M7.50516 115.363C8.59583 114.102 18.5141 129.747 17.1848 130.701C15.8556 131.655 6.619 116.386 7.50516 115.363Z" fill="#FFA41F"/>
<path d="M17.0486 131.451C16.3669 131.451 15.6511 130.701 15.3103 130.326C13.6061 128.486 11.2203 124.736 9.68654 122.078C6.10779 115.909 6.68724 115.261 6.99399 114.92C7.23257 114.648 7.57342 114.545 7.94834 114.648C10.0274 115.193 17.3894 126.918 17.9347 129.917C18.071 130.565 17.9347 131.008 17.5939 131.246C17.4234 131.383 17.2531 131.417 17.0486 131.417V131.451ZM8.45959 116.693C8.97084 117.988 10.1296 120.237 11.9701 123.237C14.0492 126.645 15.583 128.622 16.4351 129.508C15.4466 126.713 10.7091 119.113 8.45959 116.693Z" fill="#FFA41F"/>
<path d="M97.1445 142.766C96.8037 146.55 99.0191 148.799 99.0191 148.799C99.0191 148.799 96.3265 149.345 95.6108 152.821C95.6108 152.821 100.894 156.229 102.973 151.117C105.052 146.004 97.1445 142.766 97.1445 142.766Z" fill="#8588D1"/>
<path d="M100.076 150.435C99.9393 150.435 99.803 150.401 99.6666 150.299C98.4056 149.413 96.8377 147.606 96.4287 144.232C96.3946 143.857 96.6673 143.516 97.0422 143.482C97.4172 143.448 97.758 143.721 97.7921 144.096C98.1329 146.993 99.4281 148.492 100.451 149.208C100.757 149.413 100.825 149.856 100.621 150.162C100.485 150.333 100.28 150.435 100.076 150.435Z" fill="#191935"/>
<path d="M95.8153 152.889C95.7471 152.889 95.713 152.889 95.6448 152.889C95.2699 152.787 95.0655 152.412 95.1677 152.071C95.1677 151.935 95.9857 149.004 98.8146 148.186C99.1895 148.083 99.5644 148.288 99.6667 148.663C99.7689 149.038 99.5645 149.413 99.1896 149.515C97.0764 150.128 96.4629 152.412 96.4629 152.446C96.3947 152.753 96.122 152.957 95.8153 152.957V152.889Z" fill="#191935"/>
<path d="M124.411 180.906C122.912 180.906 121.685 180.735 120.935 180.463C120.594 180.326 120.389 179.951 120.526 179.611C120.662 179.27 121.037 179.065 121.378 179.202C123.73 180.02 129.762 179.747 135.897 176.611C141.657 173.646 149.428 167.238 153.587 153.366C153.689 152.992 154.064 152.787 154.439 152.923C154.814 153.026 155.018 153.401 154.882 153.775C150.587 168.09 142.509 174.771 136.511 177.838C131.91 180.19 127.513 180.974 124.411 180.974V180.906Z" fill="#CED3DB"/>
<path d="M138.59 124.941C138.351 124.941 138.079 124.839 137.874 124.668C137.465 124.259 137.465 123.646 137.874 123.237C138.079 123.032 138.59 122.317 138.453 121.737C138.317 121.26 137.704 120.817 136.647 120.442C136.102 120.272 135.829 119.692 135.999 119.147C136.17 118.601 136.749 118.329 137.295 118.499C139.067 119.113 140.158 120.033 140.43 121.226C140.873 122.964 139.476 124.464 139.34 124.634C139.135 124.839 138.862 124.941 138.59 124.941Z" fill="#191935"/>
<path d="M190.942 105.036C190.942 105.036 159.551 154.798 149.837 216.284C151.951 216.318 154.064 216.352 156.211 216.352C172.435 216.352 188.079 215.125 202.667 212.842C200.622 149.89 226.764 111.512 226.764 111.512L190.942 105.036Z" fill="#DDDCFC"/>
<path d="M215.175 127.565C198.577 156.809 192.578 191.574 190.431 214.478C194.589 214.001 198.645 213.455 202.666 212.842C201.542 178.315 208.904 151.185 215.789 133.734L215.209 127.565H215.175Z" fill="#9597CF"/>
<path d="M149.837 216.966C149.803 216.966 149.769 216.966 149.735 216.966C149.36 216.898 149.122 216.557 149.156 216.182C154.166 184.348 165.107 155.718 173.389 137.313C182.387 117.374 190.26 104.798 190.362 104.661C190.567 104.355 190.976 104.252 191.317 104.457C191.624 104.661 191.726 105.07 191.521 105.411C191.453 105.548 183.58 118.056 174.65 137.927C166.402 156.264 155.529 184.723 150.519 216.421C150.451 216.762 150.178 217 149.837 217V216.966Z" fill="#7481BA"/>
<path d="M194.486 103.707C196.736 98.2196 199.19 96.6517 199.19 96.6517C199.497 99.8556 201.167 102.037 201.167 102.037C201.883 101.151 226.797 111.512 226.797 111.512C226.797 111.512 219.504 124.362 216.709 132.235C214.562 134.246 209.074 142.323 208.12 146.822C208.12 146.822 204.814 141.437 202.939 135.473C202.939 135.473 199.667 141.096 197.622 149.311C197.622 149.311 190.703 140.074 190.022 128.758C190.022 128.758 188.249 130.803 186.647 135.848C186.647 135.848 184.705 106.604 194.282 98.9353C193.328 101.764 194.521 103.707 194.521 103.707H194.486Z" fill="#57539F"/>
<path d="M189.272 108.24C189.204 108.24 189.135 108.24 189.067 108.24C188.692 108.138 188.488 107.763 188.59 107.388C189.749 103.298 191.521 100.299 193.805 98.4582C194.043 98.2537 194.384 98.2537 194.623 98.4582C194.861 98.6286 194.964 98.9354 194.861 99.2421C194.521 100.265 194.487 101.151 194.555 101.867C196.634 97.572 198.679 96.2087 198.781 96.1405C198.986 96.0042 199.224 96.0042 199.463 96.1065C199.667 96.2087 199.838 96.4132 199.838 96.6518C200.11 99.583 201.644 101.696 201.678 101.696C201.917 102.003 201.849 102.412 201.542 102.65C201.235 102.889 200.826 102.821 200.587 102.514C200.519 102.446 199.258 100.674 198.679 98.0492C197.827 98.9695 196.429 100.776 195.1 104.014C194.998 104.252 194.793 104.423 194.521 104.423C194.282 104.423 194.009 104.321 193.873 104.116C193.839 104.048 193.123 102.855 193.157 101.014C191.794 102.685 190.703 104.934 189.885 107.797C189.783 108.104 189.51 108.308 189.238 108.308L189.272 108.24Z" fill="#191935"/>
<path d="M202.666 213.524C202.292 213.524 201.985 213.217 201.985 212.876C200.928 180.258 207.575 154.321 213.301 138.336C219.538 120.987 226.116 111.205 226.184 111.137C226.389 110.83 226.832 110.762 227.138 110.967C227.445 111.171 227.513 111.614 227.309 111.921C227.241 112.023 220.731 121.669 214.562 138.881C208.87 154.764 202.292 180.463 203.314 212.842C203.314 213.217 203.041 213.524 202.666 213.558V213.524Z" fill="#191935"/>
<path d="M200.928 193.039C203.894 184.859 207.984 177.429 207.984 177.429C207.984 177.429 202.905 179.134 199.599 183.598" fill="#9597CF"/>
<path d="M200.928 193.721C200.86 193.721 200.758 193.721 200.69 193.687C200.349 193.551 200.144 193.176 200.281 192.801C202.394 187.007 205.086 181.485 206.45 178.827C204.746 179.679 202.087 181.349 200.11 184.007C199.872 184.314 199.463 184.382 199.156 184.144C198.849 183.905 198.781 183.496 199.02 183.189C202.428 178.588 207.54 176.85 207.745 176.748C208.018 176.645 208.29 176.748 208.495 176.952C208.665 177.157 208.699 177.463 208.563 177.702C208.529 177.77 204.473 185.2 201.576 193.244C201.474 193.517 201.201 193.687 200.928 193.687V193.721Z" fill="#191935"/>
<path d="M95.304 125.214C95.304 125.214 102.087 126.372 107.37 123.237L113.232 129.644C106.142 134.177 98.4397 133.325 98.4397 133.325L95.304 125.214Z" fill="#FDA9FF"/>
<path d="M165.141 102.787C165.141 102.787 158.869 96.9926 152.257 97.163L151.371 88.5399C160.13 88.5399 166.095 93.4138 166.095 93.4138L165.141 102.821V102.787Z" fill="#FDA9FF"/>
<path d="M226.968 134.791C226.968 134.791 235.421 133.734 239.579 128.554L246.736 133.428C241.078 140.142 233.512 141.574 233.512 141.574L226.934 134.791H226.968Z" fill="#FCEE70"/>
<path d="M190.022 158.07C182.08 164 185.011 175.964 185.011 175.964L194.146 178.077C194.146 178.077 189.135 169.283 197.009 164.035L190.022 158.07Z" fill="#3EBAA2"/>
<path d="M169.469 95.6293C176.252 88.3696 169.469 79.8828 169.469 79.8828L160.096 79.4056C160.096 79.4056 166.572 87.1767 159.756 93.7207L169.435 95.5952L169.469 95.6293Z" fill="#FCEE70"/>
<path d="M59.6187 98.1515C65.1061 106.4 74.9221 101.798 74.9221 101.798L77.5465 92.8004C77.5465 92.8004 68.4804 97.3334 63.6746 89.1534L59.6187 98.1515Z" fill="#EF7843"/>
<path d="M163.539 193.687C168.413 202.31 178.536 198.459 178.536 198.459L181.808 189.665C181.808 189.665 172.435 193.517 168.242 185.03L163.539 193.687Z" fill="#FCEE70"/>
<path d="M120.083 108.717C124.957 117.34 135.079 113.489 135.079 113.489L138.351 104.695C138.351 104.695 128.978 108.547 124.786 100.06L120.083 108.717Z" fill="#FCEE70"/>
<path d="M198.031 190.79C193.191 199.447 201.78 206.093 201.78 206.093L210.983 204.321C210.983 204.321 202.837 198.322 207.915 190.313L198.065 190.79H198.031Z" fill="#FDA9FF"/>
<path d="M38.2485 158.377C44.6221 165.977 53.8587 160.319 53.8587 160.319L55.4606 151.083C55.4606 151.083 46.9397 156.57 41.2819 148.97L38.2144 158.343L38.2485 158.377Z" fill="#FDA9FF"/>
<path d="M118.106 81.1096C122.332 89.3578 131.023 88.6761 131.023 88.6761L138.283 82.3026C138.283 82.3026 130.103 82.6093 125.127 76.7129L118.106 81.1096Z" fill="#3EBAA2"/>
<path d="M229.354 129.27C237.227 134.143 244.316 129.099 244.316 129.099L247.247 119.897C247.247 119.897 240.397 124.396 233.103 121.908L229.354 129.304V129.27Z" fill="#EF7843"/>
<path d="M138.045 204.866C147.758 202.685 149.667 192.596 149.667 192.596L145.338 183.939C145.338 183.939 143.566 191.949 136.613 195.255L138.045 204.866Z" fill="#3EBAA2"/>
<path d="M66.0605 178.724C75.1948 182.712 82.6931 175.759 82.6931 175.759L84.3632 166.25C84.3632 166.25 78.1941 171.635 70.6276 170.169L66.0605 178.758V178.724Z" fill="#3EBAA2"/>
<path d="M40.7365 181.144C31.7385 183.292 30.307 191.881 30.307 191.881L34.772 200.47C34.772 200.47 36.4079 192.426 43.3268 189.018L40.7365 181.144Z" fill="#FCEE70"/>
<path d="M87.1239 202.106C95.6107 205.787 101.916 199.788 101.916 199.788L103.484 190.245C103.484 190.245 97.3489 195.698 89.7824 194.266L87.1239 202.106Z" fill="#EF7843"/>
<path d="M233.307 87.1425C226.252 72.3844 219.027 75.7586 219.027 75.7586C218.311 97.2311 233.307 87.1425 233.307 87.1425Z" fill="#DDDCFC"/>
<path d="M216.811 83.1547C216.811 83.1547 215.891 84.6884 215.175 85.6768C212.312 89.6987 208.052 91.8459 206.518 90.8916C204.984 89.9372 204.746 85.336 206.211 80.0872C207.234 76.3721 211.358 72.0094 216.777 73.3387C222.878 74.8383 226.627 82.5752 226.627 82.5752" fill="#DDDCFC"/>
<path d="M207.472 91.8118C206.961 91.8118 206.552 91.7095 206.177 91.471C204.541 90.4825 203.723 86.5289 205.564 79.9167C206.62 76.1334 210.949 71.2254 216.948 72.691C223.287 74.2589 227.104 81.9617 227.241 82.2685C227.411 82.6093 227.241 83.0183 226.934 83.1887C226.593 83.3591 226.184 83.1887 226.014 82.882C225.98 82.8138 222.333 75.4177 216.607 74.0203C211.494 72.7592 207.779 77.0196 206.859 80.2575C205.393 85.5405 205.734 89.5964 206.859 90.3121C207.881 90.9256 211.767 89.2896 214.596 85.2678C215.277 84.2794 216.198 82.7797 216.198 82.7797C216.402 82.473 216.811 82.3366 217.118 82.5411C217.425 82.7456 217.561 83.1546 217.357 83.4614C217.322 83.5295 216.436 85.0292 215.686 86.0517C213.267 89.426 209.756 91.7777 207.404 91.7777L207.472 91.8118Z" fill="#7481BA"/>
<path d="M206.518 90.8916C204.882 89.9032 204.746 85.336 206.211 80.0872C212.039 80.9392 215.175 85.6768 215.175 85.6768C212.312 89.6987 208.052 91.8459 206.518 90.8916Z" fill="#3F3E77"/>
<path d="M207.472 91.8118C206.961 91.8118 206.552 91.7096 206.177 91.471C204.541 90.4826 203.723 86.5289 205.564 79.9167C205.666 79.5418 206.041 79.3373 206.416 79.4396C206.791 79.5418 206.995 79.9167 206.893 80.2916C205.427 85.5746 205.768 89.6305 206.893 90.3462C207.915 90.9597 211.801 89.3237 214.63 85.3019C214.834 84.9951 215.277 84.927 215.584 85.1315C215.891 85.336 215.959 85.7791 215.755 86.0858C213.335 89.4601 209.824 91.8118 207.472 91.8118Z" fill="#191935"/>
<path d="M226.218 111.376C223.321 114 219.776 116.386 219.776 116.386C218.72 114.511 218.618 111.171 218.618 111.171C213.164 114.102 209.483 113.796 209.483 113.796C211.903 111.648 211.835 109.228 211.835 109.228C207.779 110.899 203.553 110.66 203.553 110.66C202.53 105.513 201.167 102.446 201.167 102.446C202.189 89.0511 211.119 85.6768 211.119 85.6768C211.119 85.6768 212.005 80.9052 213.812 80.2235C215.857 79.4396 220.39 81.6891 225.775 85.3019C228.638 87.2106 229.115 79.1669 232.864 82.1662C236.614 85.1656 240.295 90.9938 240.192 94.3681C239.92 102.139 226.184 111.41 226.184 111.41L226.218 111.376Z" fill="#DDDCFC"/>
<path d="M226.763 112.194C226.559 112.194 226.354 112.091 226.218 111.921C225.98 111.614 226.048 111.205 226.354 110.967C226.491 110.864 239.272 101.151 239.511 94.3C239.681 90.0736 234.194 82.3708 228.399 80.2917C228.059 80.1554 227.854 79.7805 227.99 79.4056C228.127 79.0647 228.502 78.8602 228.877 78.9966C235.284 81.2801 241.079 89.5624 240.908 94.3341C240.635 101.832 227.752 111.614 227.207 112.057C227.07 112.16 226.934 112.194 226.798 112.194H226.763Z" fill="#7481BA"/>
<path d="M201.133 102.718C200.792 102.718 200.485 102.446 200.451 102.105C200.451 102.003 199.463 90.7893 210.404 85.2337C210.404 84.2453 210.608 82.064 212.619 80.2916C212.892 80.053 213.335 80.0871 213.573 80.3598C213.812 80.6325 213.778 81.0755 213.505 81.3141C211.46 83.0865 211.767 85.4382 211.767 85.5405C211.801 85.8472 211.665 86.1199 211.392 86.2562C200.86 91.3006 201.746 101.526 201.78 101.969C201.815 102.344 201.542 102.684 201.167 102.718C201.167 102.718 201.133 102.718 201.099 102.718H201.133Z" fill="#7481BA"/>
<path d="M232.046 85.302C231.808 85.302 231.535 85.1656 231.433 84.9271C231.399 84.8589 227.752 77.4628 222.026 76.0654C221.515 75.9291 221.003 75.8609 220.526 75.8609C220.151 75.8609 219.844 75.5201 219.879 75.1451C219.879 74.7702 220.219 74.4976 220.594 74.4976C221.174 74.4976 221.787 74.5998 222.367 74.7702C228.706 76.3381 232.523 84.0409 232.66 84.3476C232.83 84.6885 232.66 85.0975 232.353 85.2679C232.251 85.302 232.149 85.3361 232.046 85.3361V85.302Z" fill="#7481BA"/>
</svg>
