<svg width="256" height="256" viewBox="0 0 256 256" fill="none" xmlns="http://www.w3.org/2000/svg">
<g clip-path="url(#clip0_1193_23353)">
<path d="M100.93 91.1466C54.9517 102.014 16.8686 128.644 22.3352 163.815C25.6967 185.428 47.3097 203.717 85.2896 200.15C118.895 196.99 133.889 166.802 129.294 146.848C124.699 126.895 106.04 120.434 90.1045 121.297C74.169 122.16 63.4609 130.247 63.3672 139.178C63.2547 149.713 78.2056 149.085 77.6899 152.174C77.2117 155.053 59.3024 152.263 59.3024 139.675C59.3024 120.486 85.7069 117.495 89.1997 117.171C107.015 115.535 129.13 124.007 133.949 145.69C138.385 165.634 124.357 200.726 86.1757 206.151C49.743 211.326 19.2409 195.822 13.7837 168.152C8.04994 139.052 22.7056 107.092 80.892 88.6899" fill="#B2727E"/>
<path d="M100.93 91.1466C54.9517 102.014 16.8686 128.644 22.3352 163.815C25.6967 185.428 47.3097 203.717 85.2896 200.15C118.895 196.99 133.889 166.802 129.294 146.848C124.699 126.895 106.04 120.434 90.1045 121.297C74.169 122.16 63.4609 130.247 63.3672 139.178C63.2547 149.713 78.2056 149.085 77.6899 152.174C77.2117 155.053 59.3024 152.263 59.3024 139.675C59.3024 120.486 85.7069 117.495 89.1997 117.171C107.015 115.535 129.13 124.007 133.949 145.69C138.385 165.634 124.357 200.726 86.1757 206.151C49.743 211.326 19.2409 195.822 13.7837 168.152C8.04994 139.052 22.7056 107.092 80.892 88.6899" stroke="#613A52" stroke-width="1.87532" stroke-linecap="round" stroke-linejoin="round"/>
<path d="M198.775 170.515C216.159 160.149 236.919 143.501 252.174 117.884C244.246 108.24 235.915 99.9934 228.634 94.6394L186.233 113.393C198.896 125.826 204.462 145.779 200.898 162.484C200.298 165.287 199.581 167.955 198.779 170.52L198.775 170.515Z" fill="#DDDCFC"/>
<path d="M198.775 170.515C206.618 165.841 215.146 159.882 223.548 152.399C216.285 144.387 207.232 135.929 195.891 126.787C201.461 137.87 203.355 150.951 200.894 162.479C200.294 165.283 199.576 167.95 198.775 170.515Z" fill="#8B8BD1"/>
<path d="M198.976 169.887C199.698 167.519 200.345 165.053 200.894 162.479C204.457 145.775 198.892 125.821 186.229 113.388" stroke="#191935" stroke-width="1.87532" stroke-linecap="round" stroke-linejoin="round"/>
<path d="M245.278 128.381C234.321 120.744 223.89 113.303 215.235 107.917L209.937 102.417L186.229 113.383C187.79 114.912 189.239 116.557 190.579 118.297C190.579 118.297 209.544 121.527 221.738 127.983C228.25 131.428 233.248 134.523 238.091 137.547C240.552 134.654 242.957 131.597 245.278 128.376V128.381Z" fill="#49488A"/>
<path d="M252.474 117.378C240.027 103.425 228.63 94.6394 228.63 94.6394L193.997 105.737C214.762 118.1 230.313 126.787 241.898 132.891C245.625 128.128 249.183 122.966 252.474 117.382V117.378Z" fill="#8588D1"/>
<path d="M252.596 117.509C240.102 103.482 228.63 94.6394 228.63 94.6394" stroke="#191935" stroke-width="1.87532" stroke-linecap="round" stroke-linejoin="round"/>
<path d="M198.592 89.3464C200.608 94.8693 206.59 97.0118 206.59 97.0118" stroke="#191935" stroke-width="1.40649" stroke-linecap="round" stroke-linejoin="round"/>
<path opacity="0.16" d="M191.883 59.3834C191.391 58.3051 183.191 52.8526 179.351 52.0837C175.511 51.3148 166.796 66.4534 167.185 68.0568C167.597 69.7539 176.308 76.1066 177.265 76.4301C178.221 76.7535 193.336 62.5855 191.883 59.3834Z" fill="#DEF5FF"/>
<path d="M191.883 59.3834C191.391 58.3051 183.191 52.8526 179.351 52.0837C175.511 51.3148 166.796 66.4534 167.185 68.0568C167.597 69.7539 176.308 76.1066 177.265 76.4301C178.221 76.7535 193.336 62.5855 191.883 59.3834Z" stroke="black" stroke-width="1.87532" stroke-linecap="round" stroke-linejoin="round"/>
<path d="M235.132 109.14C235.132 109.14 236.187 89.895 228.803 79.8948C221.991 70.6683 209.53 65.1454 195.104 61.226C144.93 47.5784 79.5232 70.026 54.8252 85.2957C41.1682 93.7441 50.9246 102.249 63.8408 98.634C133.889 79.0134 158.483 127.561 214.368 120.088" fill="#8588D1"/>
<path d="M68.5899 78.4507C78.2572 81.2355 82.2376 89.0415 85.0505 94.0393C85.0505 94.0393 68.74 97.2461 61.9747 98.2212C44.9328 100.683 46.78 90.3308 51.8011 86.9084C55.8518 84.147 62.3639 81.9669 68.5899 78.4507Z" fill="#49488A"/>
<path d="M202 63.5887C141.062 42.5148 64.5628 79.4445 53.0108 86.7301C53.0108 86.7301 48.2147 90.9496 49.9447 93.8001C59.6682 84.9017 128.647 48.0517 202 63.5887Z" fill="#DCE5EA" stroke="#DCE5EA" stroke-width="1.87532" stroke-linecap="round" stroke-linejoin="round"/>
<path d="M192.886 111.498C211.306 113.763 216.754 118.995 216.754 118.995L214.546 119.994C214.298 120.05 214.049 120.102 213.801 120.158C167.579 126.056 147.26 96.7022 98.5435 93.2798L84.4973 93.9174C121.666 78.7085 155.173 106.852 192.891 111.494L192.886 111.498Z" fill="#49488A"/>
<path d="M235.132 109.14C235.132 109.14 236.187 89.895 228.803 79.8948C221.991 70.6683 209.529 65.1454 195.104 61.226C144.929 47.5784 79.523 70.026 54.825 85.2957C41.168 93.7441 51.5198 101.531 64.5157 98.1979C136.861 79.6229 158.483 127.561 214.373 120.083" stroke="#191935" stroke-width="1.87532" stroke-linecap="round" stroke-linejoin="round"/>
<path d="M203.35 66.6504C215.357 71.1558 220.791 82.9844 222.685 88.3197C223.266 89.9512 223.018 91.7375 222.01 93.0502C218.93 97.0493 215.198 100.861 212.436 103.51C209.966 105.877 206.163 106.126 203.247 104.091C195.741 98.859 191.756 91.9156 189.792 87.3023C188.564 84.419 188.939 81.1419 190.776 78.779C198.676 68.6054 203.36 66.6551 203.36 66.6551L203.35 66.6504Z" stroke="black" stroke-width="1.87532" stroke-linecap="round" stroke-linejoin="round"/>
<path d="M203.35 66.6502C203.35 66.6502 203.899 63.4106 203.125 62.4823C202.352 61.554 197.274 58.1831 196.027 58.1409C194.78 58.0987 191.883 59.3833 191.883 59.3833" stroke="black" stroke-width="1.87532" stroke-linecap="round" stroke-linejoin="round"/>
<path d="M227.439 94.4565C227.439 94.4565 245.217 93.6314 248.316 95.9146C249.291 96.6366 250.632 103.678 248.663 108.395C246.581 113.378 241.115 116.018 239.525 115.577C236.825 114.827 232.615 110.425 232.615 110.425" fill="#D2D2FB"/>
<path d="M228.864 95.9099C239.493 95.7974 245.836 97.0632 245.836 97.0632" stroke="white" stroke-width="1.87532" stroke-linecap="round" stroke-linejoin="round"/>
<path d="M227.439 94.4565C227.439 94.4565 245.217 93.6314 248.316 95.9146C249.291 96.6366 250.632 103.678 248.663 108.395C246.581 113.378 241.115 116.018 239.525 115.577C236.825 114.827 232.615 110.425 232.615 110.425" stroke="#49488A" stroke-width="1.87532" stroke-linecap="round" stroke-linejoin="round"/>
<path d="M237.35 97.9352C244.139 97.1429 246.445 102.206 246.445 102.206C244.223 101.681 242.076 101.92 242.076 101.92C243.496 104.747 243.168 107.982 243.168 107.982C243.168 107.982 241.237 106.805 240.172 105.896C240.172 105.896 238.996 107.157 237.716 108.076C237.716 108.076 233.116 102.67 232.052 100.659C232.052 100.659 234.485 98.2728 237.355 97.9352H237.35Z" fill="#6A6DB8"/>
<path d="M230.444 100.875C230.444 100.875 238.963 94.7846 249.207 98.0899" stroke="#49488A" stroke-width="1.87532" stroke-linecap="round" stroke-linejoin="round"/>
<path d="M63.8924 89.7119C61.0419 91.2122 58.5571 91.0715 56.6115 91.1887C55.5097 91.2544 55.5097 92.9375 57.1881 92.7499C60.8263 92.3467 63.8877 89.7119 63.8877 89.7119H63.8924Z" fill="black" stroke="black" stroke-width="1.87532" stroke-linecap="round" stroke-linejoin="round"/>
<path d="M215.296 57.7659C223.055 60.6257 221.658 67.2972 221.658 67.2972" stroke="#191935" stroke-width="2.81298" stroke-linecap="round" stroke-linejoin="round"/>
<path d="M194.766 51.6288C201.93 48.5533 205.713 52.9134 205.713 52.9134" stroke="#191935" stroke-width="2.81298" stroke-linecap="round" stroke-linejoin="round"/>
<path d="M75.6599 146.633C76.2318 148.245 75.4911 149.746 74.0987 150.238C72.7062 150.73 71.1872 150.027 70.6199 148.414C70.0527 146.801 70.7887 145.301 72.1812 144.809C73.5736 144.317 75.0926 145.02 75.6599 146.633Z" fill="#232020" stroke="black" stroke-width="1.87532" stroke-linecap="round" stroke-linejoin="round"/>
<path d="M70.6809 146.154L67.9617 145.311" stroke="black" stroke-width="1.87532" stroke-linecap="round" stroke-linejoin="round"/>
<path d="M72.0827 150.13L70.4934 152.493" stroke="black" stroke-width="1.87532" stroke-linecap="round" stroke-linejoin="round"/>
<path d="M70.6153 148.409L68.168 149.277" stroke="black" stroke-width="1.87532" stroke-linecap="round" stroke-linejoin="round"/>
<path d="M74.197 144.912L75.7817 142.549" stroke="black" stroke-width="1.87532" stroke-linecap="round" stroke-linejoin="round"/>
<path d="M75.5989 148.888L78.3181 149.732" stroke="black" stroke-width="1.87532" stroke-linecap="round" stroke-linejoin="round"/>
<path d="M75.6599 146.633L78.1072 145.765" stroke="black" stroke-width="1.87532" stroke-linecap="round" stroke-linejoin="round"/>
<path d="M13.8074 88.4228L13.9386 86.585" stroke="black" stroke-width="1.87532" stroke-linecap="round" stroke-linejoin="round"/>
<path d="M11.4163 91.1887L9.61597 91.5872" stroke="black" stroke-width="1.87532" stroke-linecap="round" stroke-linejoin="round"/>
<path d="M12.3164 89.5479L11.3694 88.7322" stroke="black" stroke-width="1.87532" stroke-linecap="round" stroke-linejoin="round"/>
<path d="M15.5935 92.3797C14.6231 93.5049 13.1744 93.5893 12.2039 92.7548C11.2334 91.9156 11.1068 90.4716 12.0773 89.3464C13.0478 88.2212 14.4965 88.1368 15.467 88.9713C16.4374 89.8058 16.564 91.2545 15.5935 92.3797Z" fill="#232020" stroke="black" stroke-width="1.87532" stroke-linecap="round" stroke-linejoin="round"/>
<path d="M16.2593 90.5371L18.7253 90.7153" stroke="black" stroke-width="1.87532" stroke-linecap="round" stroke-linejoin="round"/>
<path d="M13.8682 93.3032L14.4026 95.7177" stroke="black" stroke-width="1.87532" stroke-linecap="round" stroke-linejoin="round"/>
<path d="M15.5935 92.3796L17.3 93.8518" stroke="black" stroke-width="1.87532" stroke-linecap="round" stroke-linejoin="round"/>
<path d="M161.437 159.08L162.651 158.485" stroke="black" stroke-width="1.87532" stroke-linecap="round" stroke-linejoin="round"/>
<path d="M161.69 158.953C162.342 160.29 161.854 161.654 160.701 162.217C159.548 162.779 158.169 162.324 157.518 160.993C156.866 159.661 157.354 158.292 158.507 157.73C159.66 157.167 161.039 157.622 161.69 158.953Z" fill="#232020" stroke="black" stroke-width="1.87532" stroke-linecap="round" stroke-linejoin="round"/>
<path d="M157.344 159.042L154.916 158.588" stroke="black" stroke-width="1.87532" stroke-linecap="round" stroke-linejoin="round"/>
<path d="M158.952 162.329L157.822 164.528" stroke="black" stroke-width="1.87532" stroke-linecap="round" stroke-linejoin="round"/>
<path d="M157.518 160.993L155.492 161.987" stroke="black" stroke-width="1.87532" stroke-linecap="round" stroke-linejoin="round"/>
<path d="M160.256 157.622L160.673 155.77" stroke="black" stroke-width="1.87532" stroke-linecap="round" stroke-linejoin="round"/>
<path d="M161.859 160.908L163.58 161.71" stroke="black" stroke-width="1.87532" stroke-linecap="round" stroke-linejoin="round"/>
<path d="M198.592 84.175C210.791 83.1858 213.712 92.5811 213.712 92.5811" stroke="#191935" stroke-width="1.87532" stroke-linecap="round" stroke-linejoin="round"/>
<path d="M88.5623 94.1706C98.1498 90.7763 102.252 86.0552 102.252 86.0552" stroke="#191935" stroke-width="1.87532" stroke-linecap="round" stroke-linejoin="round"/>
<path opacity="0.4" d="M13.4087 90.4247C14.8527 98.2823 28.5472 82.2577 13.4087 90.4247V90.4247Z" fill="#76ECFF"/>
<path opacity="0.4" d="M13.4088 90.4246C5.41053 105.08 21.7586 91.4701 13.4088 90.4246V90.4246Z" fill="#76ECFF"/>
<path opacity="0.4" d="M13.4087 90.4247C-1.05942 87.1194 13.3477 71.2074 13.4087 90.4247V90.4247Z" fill="#76ECFF"/>
<path opacity="0.4" d="M13.4088 90.4247C-3.88165 98.8121 4.08377 78.8774 13.4088 90.4247V90.4247Z" fill="#76ECFF"/>
<path opacity="0.4" d="M73.3955 147.223C85.7585 132.371 86.729 153.932 73.3955 147.223V147.223Z" fill="#76ECFF"/>
<path opacity="0.4" d="M73.3955 147.223C81.4219 164.804 88.023 144.251 73.3955 147.223V147.223Z" fill="#76ECFF"/>
<path opacity="0.4" d="M73.3955 147.223C54.9893 141.34 65.7583 160.046 73.3955 147.223V147.223Z" fill="#76ECFF"/>
<path opacity="0.4" d="M73.3954 147.223C59.4617 152.577 76.0771 166.361 73.3954 147.223V147.223Z" fill="#76ECFF"/>
<path opacity="0.4" d="M160.082 159.727C170.209 143.285 174.217 164.481 160.082 159.727V159.727Z" fill="#76ECFF"/>
<path opacity="0.4" d="M160.082 159.727C170.504 175.981 174.128 154.72 160.082 159.727V159.727Z" fill="#76ECFF"/>
<path opacity="0.4" d="M160.19 159.713C147.832 155.541 157.222 173.079 160.19 159.713V159.713Z" fill="#76ECFF"/>
<path opacity="0.4" d="M160.19 159.713C152.225 166.253 164.574 178.405 160.19 159.713V159.713Z" fill="#76ECFF"/>
</g>
<defs>
<clipPath id="clip0_1193_23353">
<rect width="256" height="256" fill="white"/>
</clipPath>
</defs>
</svg>
