<svg width="256" height="256" viewBox="0 0 256 256" fill="none" xmlns="http://www.w3.org/2000/svg">
<g clip-path="url(#clip0_884_63396)">
<path d="M89.1152 102.885C89.1152 102.885 159.233 77.0238 176.012 110.351C191.983 141.985 150.882 164.537 150.882 164.537C150.882 164.537 132.641 171.079 131.794 152.992C131.794 152.992 139.106 139.33 143.994 131.594C131.217 131.748 116.593 143.832 116.593 143.832" fill="#DBDAFB"/>
<path d="M89.1152 102.885L116.631 143.832C116.631 143.832 131.217 131.748 144.032 131.594C144.032 131.594 140.299 129.516 131.756 129.901C131.756 129.901 132.487 113.122 148.342 93.8798C122.173 90.7241 89.1537 102.924 89.1537 102.924L89.1152 102.885Z" fill="#9395CD"/>
<path d="M160.465 157.879C158.656 161.266 158.695 166.307 158.695 166.307C156.27 165.422 155.693 163.729 155.693 163.729C154.654 166.038 153.576 169.925 153.576 169.925C150.228 167.693 150.882 164.537 150.882 164.537L130.64 160.342L131.794 152.992C131.794 152.992 135.181 146.757 136.335 144.833C136.335 144.833 143.301 142.293 145.995 138.291C145.995 138.291 147.765 141.562 145.841 146.026C145.841 146.026 153.268 144.371 157.771 137.521C157.771 137.521 158.502 146.141 154.269 153.723C154.269 153.723 161.196 151.529 164.236 148.912C164.236 148.912 163.39 154.338 160.465 157.917V157.879Z" fill="#57539D"/>
<path d="M136.258 145.564C136.143 145.564 135.989 145.564 135.873 145.449C135.489 145.256 135.373 144.756 135.566 144.409C138.298 139.484 140.645 135.443 142.531 132.403C130.524 133.365 117.209 144.294 117.055 144.409C116.747 144.679 116.247 144.64 115.977 144.294C115.708 143.948 115.746 143.486 116.093 143.216C116.247 143.101 119.864 140.099 125.098 137.059C132.179 132.941 138.529 130.825 143.955 130.786C144.224 130.786 144.494 130.94 144.609 131.171C144.763 131.402 144.725 131.71 144.609 131.941C142.647 135.058 140.03 139.484 136.912 145.102C136.759 145.372 136.528 145.487 136.258 145.487V145.564Z" fill="#7480B8"/>
<path d="M116.593 144.602C116.362 144.602 116.17 144.525 116.016 144.333C115.746 143.986 115.785 143.524 116.131 143.255C116.285 143.14 119.903 140.138 125.136 137.098C132.217 132.98 138.567 130.863 143.994 130.825C144.417 130.825 144.763 131.171 144.763 131.594C144.763 132.018 144.417 132.364 143.994 132.364C131.64 132.518 117.247 144.333 117.093 144.448C116.939 144.564 116.785 144.64 116.593 144.64V144.602Z" fill="#191935"/>
<path d="M160.465 158.649C160.234 158.649 160.003 158.533 159.849 158.379C159.58 158.033 159.618 157.571 159.964 157.302C165.006 153.222 171.818 146.68 175.705 138.483C180.092 129.285 179.938 119.934 175.281 110.736C171.548 103.347 164.775 98.3441 155.115 95.9196C147.303 93.9569 137.605 93.6105 126.329 94.919C107.01 97.1895 89.5 103.578 89.3461 103.655C88.9612 103.809 88.4994 103.578 88.3455 103.193C88.1916 102.808 88.384 102.347 88.8073 102.193C88.9997 102.116 106.625 95.6886 126.137 93.3796C137.644 92.0327 147.496 92.3791 155.5 94.4187C165.622 96.9587 172.741 102.231 176.667 110.043C187.827 132.133 171.587 149.913 160.927 158.533C160.773 158.649 160.619 158.687 160.426 158.687L160.465 158.649Z" fill="#7480B8"/>
<path d="M131.794 153.723C131.679 153.723 131.563 153.723 131.409 153.646C131.024 153.453 130.909 152.991 131.101 152.607C131.255 152.337 134.527 146.334 135.643 144.409C135.873 144.025 136.335 143.909 136.682 144.14C137.066 144.371 137.182 144.833 136.951 145.179C135.835 147.065 132.487 153.261 132.448 153.338C132.294 153.607 132.064 153.723 131.756 153.723H131.794Z" fill="#191935"/>
<path d="M153.538 170.694C153.384 170.694 153.23 170.656 153.114 170.579C149.343 168.077 150.074 164.537 150.113 164.383C150.19 163.959 150.613 163.69 151.036 163.805C151.46 163.882 151.729 164.306 151.613 164.729C151.613 164.806 151.229 166.884 153.114 168.655C153.499 167.308 154.23 165.037 154.962 163.459C155.077 163.19 155.385 162.997 155.693 162.997C156.001 162.997 156.27 163.228 156.385 163.536C156.385 163.575 156.732 164.46 157.925 165.191C158.04 163.459 158.425 160.111 159.772 157.61C159.964 157.225 160.426 157.071 160.811 157.302C161.196 157.494 161.35 157.956 161.119 158.341C159.426 161.535 159.426 166.346 159.426 166.423C159.426 166.692 159.31 166.923 159.079 167.038C158.848 167.154 158.618 167.231 158.387 167.115C157.155 166.653 156.347 166.038 155.808 165.422C155 167.577 154.269 170.155 154.269 170.194C154.192 170.425 154.038 170.617 153.807 170.694C153.73 170.694 153.615 170.733 153.538 170.733V170.694Z" fill="#191935"/>
<path d="M121.981 181.778C130.139 195.209 136.682 191.322 136.682 191.322C135.335 170.771 121.981 181.778 121.981 181.778Z" fill="#DBDAFB"/>
<path d="M138.067 184.048C138.067 184.048 138.798 182.509 139.375 181.47C141.723 177.352 145.571 174.889 147.149 175.659C148.804 176.467 149.343 180.816 148.458 185.934C147.842 189.59 144.301 194.131 138.991 193.361C133.68 192.592 128.715 185.472 128.715 185.472" fill="#DBDAFB"/>
<path d="M140.222 194.247C139.799 194.247 139.376 194.247 138.914 194.17C132.641 193.285 128.254 186.242 128.1 185.934C127.869 185.588 127.984 185.087 128.369 184.856C128.715 184.626 129.216 184.741 129.447 185.126C129.485 185.203 133.641 191.861 139.183 192.63C144.109 193.323 147.226 189.013 147.765 185.819C148.689 180.392 147.842 176.852 146.88 176.351C145.918 175.89 142.377 177.891 140.107 181.855C139.529 182.855 138.837 184.356 138.837 184.356C138.644 184.741 138.183 184.895 137.798 184.741C137.413 184.549 137.259 184.087 137.413 183.702C137.413 183.625 138.144 182.124 138.76 181.085C141.184 176.852 145.379 173.927 147.534 174.966C149.882 176.082 150.113 181.354 149.266 186.088C148.65 189.552 145.418 194.247 140.222 194.247Z" fill="#7480B8"/>
<path d="M147.188 175.697C148.843 176.505 149.381 180.854 148.496 185.972C142.878 185.703 139.414 181.508 139.414 181.508C141.761 177.39 145.61 174.928 147.188 175.697Z" fill="#3F3E77"/>
<path d="M148.496 186.742C148.458 186.742 148.419 186.742 148.381 186.742C147.957 186.665 147.688 186.28 147.765 185.857C148.689 180.431 147.842 176.89 146.88 176.39C145.918 175.928 142.377 177.929 140.107 181.893C139.914 182.278 139.414 182.393 139.068 182.162C138.683 181.97 138.567 181.47 138.798 181.123C141.223 176.89 145.418 173.965 147.573 175.004C149.92 176.12 150.151 181.393 149.304 186.126C149.227 186.511 148.92 186.781 148.535 186.781L148.496 186.742Z" fill="#191935"/>
<path d="M126.445 157.994C128.946 155.224 132.102 152.607 132.102 152.607C133.295 154.3 133.718 157.494 133.718 157.494C138.644 154.184 142.185 154.146 142.185 154.146C140.068 156.417 140.376 158.726 140.376 158.726C144.071 156.763 148.15 156.57 148.15 156.57C149.612 161.381 151.19 164.19 151.19 164.19C151.498 177.082 143.262 181.162 143.262 181.162C143.262 181.162 142.878 185.78 141.223 186.627C139.568 187.473 134.796 185.857 129.293 182.932C123.789 180.007 126.676 189.09 122.827 186.588C117.517 183.125 114.9 178.853 114.707 175.659C114.245 168.231 126.445 158.071 126.445 158.071V157.994Z" fill="#DBDAFB"/>
<path d="M127.138 189.244C127.061 189.244 127.022 189.244 126.945 189.244C121.057 187.781 114.245 180.662 113.938 175.659C113.476 168.539 125.059 158.225 125.906 157.456C128.446 154.685 131.486 152.145 131.64 152.029C131.948 151.76 132.448 151.798 132.718 152.145C132.987 152.453 132.949 152.953 132.602 153.222C132.602 153.222 129.447 155.839 127.022 158.533C127.022 158.533 126.984 158.572 126.945 158.61C126.945 158.61 123.905 161.304 120.98 164.729C117.209 169.193 115.284 172.926 115.477 175.582C115.746 179.622 121.634 186.396 127.33 187.781C127.753 187.897 127.984 188.281 127.907 188.705C127.83 189.051 127.522 189.282 127.176 189.282L127.138 189.244Z" fill="#7480B8"/>
<path d="M141.877 186.704C141.685 186.704 141.492 186.627 141.338 186.511C141.03 186.203 141.03 185.742 141.338 185.434C143.07 183.586 142.57 181.431 142.57 181.316C142.493 181.008 142.647 180.662 142.916 180.469C152.422 174.697 150.613 165.114 150.536 164.691C150.459 164.267 150.728 163.883 151.152 163.767C151.575 163.69 151.96 163.959 152.075 164.383C152.075 164.498 154.115 175.12 144.186 181.508C144.263 182.509 144.225 184.587 142.493 186.473C142.339 186.627 142.146 186.704 141.915 186.704H141.877Z" fill="#7480B8"/>
<path d="M134.834 192.823C134.411 192.823 133.988 192.823 133.564 192.746C127.291 191.861 122.904 184.818 122.75 184.51C122.519 184.164 122.635 183.663 123.02 183.432C123.366 183.202 123.866 183.317 124.097 183.702C124.136 183.779 128.292 190.437 133.834 191.206C134.334 191.283 134.796 191.283 135.258 191.283C135.681 191.283 136.027 191.591 136.066 192.014C136.066 192.438 135.758 192.784 135.335 192.823C135.181 192.823 135.027 192.823 134.873 192.823H134.834Z" fill="#7480B8"/>
<path d="M148.65 89.1848L114.515 69.9042C38.2006 119.356 38.7394 176.159 36.7767 208.986C54.3255 210.718 73.4521 211.68 93.4639 211.68C113.476 211.68 132.833 210.718 150.497 208.947C142.724 170.425 121.057 160.996 123.289 127.669C125.098 101.192 148.65 89.1848 148.65 89.1848Z" fill="#DBDAFB"/>
<path d="M84.9974 211.603C87.7683 211.603 90.5776 211.68 93.4254 211.68C113.553 211.68 132.795 210.718 150.459 208.947C145.687 185.241 135.643 172.541 129.139 158.533C91.8476 180.854 85.0359 211.526 84.9974 211.603Z" fill="#57539D"/>
<path d="M65.9862 211.026C72.2206 211.295 78.5705 211.487 85.0359 211.564C85.0359 211.564 103.085 174.889 129.293 158.418C129.293 158.418 122.019 144.794 123.289 127.63C124.02 117.74 130.255 105.233 130.255 105.233C86.6137 133.249 83.7659 172.311 65.9862 210.987V211.026Z" fill="#8989CF"/>
<path d="M150.459 209.717C150.113 209.717 149.766 209.448 149.689 209.101C146.226 191.937 139.991 180.431 134.488 170.309C127.484 157.417 121.48 146.257 122.481 127.669C123.135 115.739 128.408 107.157 132.679 102.038C137.336 96.4966 141.8 93.8414 141.992 93.7259C142.339 93.495 142.839 93.6104 143.032 93.9952C143.224 94.38 143.147 94.8419 142.762 95.0344C142.57 95.1498 125.213 105.733 123.982 127.746C122.981 145.91 128.946 156.878 135.797 169.578C141.338 179.815 147.65 191.437 151.152 208.832C151.229 209.255 150.959 209.64 150.536 209.756C150.497 209.756 150.42 209.756 150.382 209.756L150.459 209.717Z" fill="#191935"/>
<path d="M36.7383 209.756C36.315 209.756 35.9686 209.409 35.9686 208.986C36.4304 177.237 42.7034 150.875 55.2107 128.4C69.4498 102.77 91.5782 82.1807 122.866 65.4016C123.251 65.2092 123.712 65.3246 123.905 65.7094C124.097 66.0942 123.982 66.5561 123.597 66.7486C92.5788 83.3737 70.6428 103.77 56.5576 129.131C44.1657 151.414 37.9313 177.544 37.508 208.986C37.508 209.409 37.1616 209.756 36.7383 209.756Z" fill="#191935"/>
<path d="M58.097 189.628C63.7541 183.548 72.4131 166.115 64.6008 157.302L39.74 161.458C26.1551 169.424 34.4292 181.085 34.4292 181.085" fill="#DBDAFB"/>
<path d="M34.4293 181.893C34.1984 181.893 33.9675 181.778 33.8135 181.585C33.6596 181.393 30.196 176.39 31.466 170.54C32.2741 166.692 34.9681 163.421 39.3937 160.842C39.7786 160.611 40.2404 160.765 40.4328 161.112C40.6637 161.496 40.5098 161.958 40.1634 162.151C36.1226 164.537 33.6981 167.462 32.9669 170.848C31.8508 176.005 35.045 180.623 35.0835 180.7C35.3144 181.047 35.2374 181.508 34.8911 181.778C34.7371 181.855 34.5832 181.932 34.4293 181.932V181.893Z" fill="#7480B8"/>
<path d="M33.0822 169.424C33.0822 169.424 28.3102 172.157 25.0775 178.16C22.6915 182.663 22.1528 185.549 23.4227 186.781C24.6542 187.974 28.695 188.205 32.1586 185.087C32.1586 185.087 34.6216 182.778 35.6222 180.777C35.6222 180.777 38.7779 178.083 40.1248 176.698" fill="#DBDAFB"/>
<path d="M26.1166 188.359C24.7312 188.359 23.5382 187.974 22.884 187.319C21.3061 185.78 21.8064 182.663 24.3849 177.775C27.656 171.656 32.4665 168.847 32.6589 168.732C33.0438 168.539 33.5056 168.655 33.698 169.001C33.8904 169.386 33.775 169.848 33.4286 170.04C33.3901 170.04 28.8105 172.734 25.7318 178.468C22.73 184.087 23.4612 185.742 23.923 186.165C24.7697 186.973 28.3487 187.358 31.5814 184.472C31.5814 184.472 33.9289 182.239 34.8525 180.392C34.891 180.315 34.968 180.2 35.0449 180.161C35.0449 180.161 38.1622 177.467 39.5091 176.12C39.817 175.813 40.2788 175.813 40.5867 176.12C40.8945 176.428 40.8945 176.89 40.5867 177.198C39.3552 178.468 36.7383 180.7 36.161 181.2C35.0834 183.279 32.7359 185.511 32.6204 185.626C30.4653 187.55 28.0408 188.359 26.0781 188.359H26.1166Z" fill="#7480B8"/>
<path d="M23.4227 186.781C22.1528 185.549 22.6915 182.663 25.0775 178.16C30.6192 179.969 32.1201 185.087 32.1201 185.087C28.6566 188.205 24.6157 187.974 23.3842 186.781H23.4227Z" fill="#3F3E77"/>
<path d="M26.1166 188.358C24.7312 188.358 23.5382 187.974 22.884 187.319C21.3061 185.78 21.8064 182.663 24.3849 177.775C24.5773 177.391 25.0391 177.275 25.4239 177.467C25.8088 177.66 25.9242 178.122 25.7318 178.507C22.8455 183.933 23.3458 185.665 23.923 186.203C24.7697 187.011 28.3487 187.396 31.5814 184.51C31.8892 184.241 32.3896 184.241 32.6589 184.587C32.9283 184.895 32.9283 185.395 32.582 185.665C30.4268 187.589 28.0023 188.358 26.0396 188.358H26.1166Z" fill="#191935"/>
<path d="M58.097 190.398C57.9045 190.398 57.7121 190.321 57.5582 190.206C57.2503 189.898 57.2118 189.436 57.5582 189.128C63.5232 182.74 71.22 165.922 64.062 157.84C63.7926 157.532 63.7926 157.032 64.1389 156.763C64.4468 156.493 64.9471 156.494 65.2165 156.84C73.6446 166.345 63.9465 184.548 58.6742 190.167C58.5203 190.321 58.3279 190.398 58.097 190.398Z" fill="#7480B8"/>
<path d="M50.708 169.232C46.5132 166.653 40.5482 167.5 39.1243 172.08C37.0461 178.699 45.2817 183.086 50.785 180.084C50.0923 177.352 49.515 173.273 50.708 169.232Z" fill="#F5F3FD"/>
<path d="M39.7785 185.395C41.3949 180.623 40.6252 175.851 38.9319 175.12C37.1231 174.389 33.2747 176.967 29.8111 181.316C27.3482 184.395 26.9633 191.63 33.0438 195.286C40.5097 199.788 48.9762 189.475 48.9762 189.475" fill="#DBDAFB"/>
<path d="M37.0847 197.171C35.5068 197.171 34.0059 196.748 32.6205 195.94C29.1184 193.823 27.8869 190.821 27.5406 188.666C27.0403 185.818 27.6945 182.74 29.2339 180.854C32.3896 176.89 36.7383 173.388 39.2398 174.427C41.5873 175.389 42.203 180.739 40.5097 185.665C40.3558 186.049 39.9324 186.28 39.5476 186.165C39.1628 186.011 38.9319 185.588 39.0473 185.203C40.6252 180.508 39.7401 176.351 38.624 175.89C37.3925 175.389 33.8905 177.506 30.3884 181.855C29.1184 183.433 28.5797 186.011 29.003 188.435C29.3493 190.283 30.3499 192.861 33.3901 194.67C40.2018 198.788 48.245 189.128 48.322 189.051C48.5914 188.705 49.0917 188.666 49.3996 188.936C49.7459 189.205 49.7844 189.705 49.515 190.013C49.438 190.129 47.2829 192.707 44.2042 194.747C41.7027 196.402 39.3167 197.21 37.0847 197.21V197.171Z" fill="#7480B8"/>
<path d="M38.9319 175.12C37.1231 174.389 33.2747 176.967 29.8112 181.316C34.968 179.815 39.7786 185.395 39.7786 185.395C41.3949 180.623 40.6252 175.851 38.9319 175.12Z" fill="#3F3E77"/>
<path d="M39.7786 186.165C39.7016 186.165 39.6246 186.165 39.5477 186.126C39.1628 185.972 38.932 185.549 39.0474 185.164C40.6253 180.469 39.7401 176.313 38.6241 175.851C37.3926 175.351 33.8905 177.467 30.3885 181.816C30.1191 182.163 29.6573 182.201 29.3109 181.932C28.9645 181.662 28.9261 181.2 29.1955 180.854C32.3512 176.89 36.6999 173.388 39.2014 174.427C41.5489 175.389 42.1646 180.739 40.4713 185.665C40.3558 185.972 40.048 186.203 39.7401 186.203L39.7786 186.165Z" fill="#191935"/>
<path d="M45.2817 185.126C46.975 180.123 46.1669 175.12 44.3966 174.389C42.5109 173.619 38.5085 176.313 34.8525 180.854C32.2741 184.048 31.8508 191.63 38.2006 195.44C46.0129 200.135 54.8258 189.397 54.8258 189.397" fill="#DBDAFB"/>
<path d="M42.4725 197.402C40.8176 197.402 39.2782 196.979 37.8158 196.094C34.1598 193.9 32.8899 190.744 32.5051 188.512C31.9663 185.549 32.659 182.355 34.2368 180.354C37.5465 176.236 42.0491 172.58 44.666 173.657C47.0905 174.658 47.7063 180.238 45.9745 185.357C45.8206 185.741 45.3972 185.972 45.0124 185.857C44.6276 185.703 44.3966 185.28 44.5121 184.895C46.2054 179.969 45.2048 175.582 44.0503 175.12C42.7418 174.581 39.0858 176.813 35.4298 181.354C34.1214 183.009 33.5441 185.703 34.0059 188.281C34.3523 190.206 35.4298 192.9 38.5855 194.824C45.7436 199.134 54.1331 189.051 54.2486 188.936C54.518 188.589 55.0182 188.551 55.3261 188.82C55.6725 189.09 55.711 189.59 55.4416 189.898C55.3646 190.013 53.1325 192.707 49.8614 194.862C47.283 196.594 44.743 197.441 42.4339 197.441L42.4725 197.402Z" fill="#7480B8"/>
<path d="M44.7815 174.004C42.8958 173.234 38.8934 175.928 35.2374 180.469C40.6252 178.891 45.6666 184.741 45.6666 184.741C47.3599 179.738 46.5518 174.735 44.7815 174.004Z" fill="#3F3E77"/>
<path d="M45.6666 185.511C45.5897 185.511 45.5127 185.511 45.4357 185.472C45.0509 185.318 44.82 184.895 44.9354 184.51C46.6287 179.584 45.6282 175.197 44.4736 174.735C43.1652 174.196 39.5092 176.428 35.8532 180.969C35.5838 181.316 35.122 181.354 34.7756 181.085C34.4293 180.816 34.3908 180.315 34.6602 180.007C37.9698 175.89 42.4724 172.234 45.0894 173.311C47.5139 174.312 48.1296 179.892 46.3978 185.01C46.2824 185.318 45.9745 185.549 45.6666 185.549V185.511Z" fill="#191935"/>
<path d="M49.7074 185.896C51.2083 181.508 50.4771 177.121 48.9377 176.467C47.2829 175.774 43.7424 178.16 40.5867 182.124C38.3161 184.933 37.9698 191.591 43.55 194.939C50.4001 199.057 58.1739 189.628 58.1739 189.628" fill="#DBDAFB"/>
<path d="M47.2059 196.787C45.7436 196.787 44.3581 196.402 43.0882 195.632C39.8555 193.669 38.7394 190.898 38.3931 188.897C37.9313 186.28 38.547 183.433 39.9324 181.662C42.8572 178.006 46.8596 174.774 49.2072 175.774C51.3623 176.698 51.978 181.624 50.4386 186.165C50.2847 186.55 49.8614 186.781 49.4765 186.665C49.0917 186.511 48.8608 186.088 48.9762 185.703C50.4001 181.47 49.592 177.622 48.6299 177.237C47.6678 176.813 44.5121 178.507 41.164 182.701C40.0479 184.125 39.5476 186.511 39.9324 188.705C40.2403 190.398 41.1639 192.707 43.9348 194.4C50.1307 198.133 57.4812 189.321 57.5582 189.244C57.8276 188.897 58.3279 188.859 58.6358 189.128C58.9821 189.398 59.0206 189.898 58.7512 190.206C58.6742 190.321 56.7115 192.669 53.8637 194.555C51.5547 196.055 49.3611 196.825 47.2829 196.825L47.2059 196.787Z" fill="#7480B8"/>
<path d="M48.8993 176.467C47.2444 175.774 43.7039 178.16 40.5482 182.124C45.5512 180.892 49.7074 185.896 49.7074 185.896C51.2083 181.508 50.4771 177.121 48.9377 176.467H48.8993Z" fill="#3F3E77"/>
<path d="M49.7074 186.665C49.6305 186.665 49.5535 186.665 49.4766 186.627C49.0917 186.473 48.8608 186.049 48.9762 185.665C50.4002 181.431 49.592 177.583 48.6299 177.198C47.6678 176.775 44.5121 178.468 41.164 182.663C40.8946 183.009 40.4328 183.048 40.0864 182.778C39.7401 182.509 39.7016 182.047 39.971 181.701C42.8958 178.045 46.8981 174.812 49.2457 175.813C51.4008 176.736 52.0165 181.662 50.4771 186.203C50.3617 186.511 50.0538 186.742 49.7459 186.742L49.7074 186.665Z" fill="#191935"/>
<path d="M52.5553 185.511C52.2859 185.511 52.055 185.357 51.9011 185.126C51.6702 184.779 46.7442 176.236 50.5541 168.424C50.7466 168.039 51.2084 167.885 51.5932 168.077C51.978 168.27 52.132 168.732 51.9396 169.116C48.5145 176.197 53.2096 184.279 53.248 184.356C53.4789 184.741 53.325 185.203 52.9786 185.395C52.8632 185.472 52.7092 185.511 52.5938 185.511H52.5553Z" fill="#7480B8"/>
<path d="M98.1205 99.4216C98.1205 99.4216 25.424 75.5999 7.29796 108.196C-11.5208 141.985 40.5867 166.73 40.5867 166.73C40.5867 166.73 56.6346 171.502 64.6393 157.34C64.6393 157.34 50.785 140.407 45.8975 132.633C58.6743 132.787 70.6428 140.369 70.6428 140.369" fill="#DBDAFB"/>
<path d="M38.9704 165.922C38.9704 165.922 4.87341 122.551 19.9207 96.4199C14.6099 99.0753 10.2227 102.885 7.25947 108.196C-9.59659 138.444 30.3499 161.419 38.9704 165.922Z" fill="#9395CD"/>
<path d="M64.6008 158.11C64.3699 158.11 64.139 157.994 64.0236 157.84C63.8696 157.687 50.0923 140.754 45.2048 133.057C45.0509 132.826 45.0509 132.518 45.2048 132.287C45.3587 132.056 45.5896 131.902 45.8975 131.902C58.7512 132.056 70.5274 139.445 71.0277 139.753C71.374 139.984 71.4895 140.446 71.2586 140.831C71.0276 141.177 70.5659 141.292 70.181 141.062C70.0656 140.985 59.1746 134.173 47.3214 133.519C52.7092 141.6 65.1011 156.763 65.2166 156.917C65.486 157.263 65.4474 157.725 65.1011 157.995C64.9472 158.11 64.7932 158.187 64.6008 158.187V158.11Z" fill="#7480B8"/>
<path d="M38.9703 166.692C38.8549 166.692 38.7395 166.692 38.624 166.615C31.8123 163.036 9.22211 149.99 3.64191 131.325C1.29438 123.474 2.29494 115.546 6.60517 107.811C10.8384 100.191 18.3813 94.9574 28.9644 92.3019C37.354 90.1853 47.6293 89.6851 59.5979 90.8011C79.879 92.6868 98.1974 98.6134 98.3898 98.6904C98.7747 98.8058 99.0056 99.2676 98.8902 99.6525C98.7747 100.037 98.3129 100.268 97.9281 100.153C97.7356 100.076 79.5711 94.1877 59.4439 92.3405C47.6678 91.2629 37.5464 91.7631 29.3493 93.8028C19.228 96.3427 12.0314 101.307 7.99059 108.542C3.87279 115.893 2.9492 123.397 5.1428 130.863C7.45185 138.598 13.109 146.257 21.9219 153.607C29.1184 159.611 36.5073 163.729 39.3552 165.229C39.74 165.422 39.894 165.884 39.6631 166.269C39.5091 166.538 39.2397 166.692 38.9703 166.692Z" fill="#7480B8"/>
<path d="M38.9703 166.692C38.8549 166.692 38.7395 166.692 38.624 166.615C31.8123 163.036 9.22211 149.99 3.64191 131.325C1.29438 123.474 2.29494 115.546 6.60517 107.811C9.453 102.693 13.8402 98.6133 19.5744 95.727C19.9592 95.5346 20.421 95.727 20.6134 96.0733C20.8058 96.4582 20.6134 96.9201 20.267 97.1125C14.8023 99.8449 10.646 103.732 7.95211 108.581C3.83431 115.931 2.91068 123.436 5.10428 130.901C7.41333 138.637 13.0705 146.295 21.8834 153.646C29.0799 159.649 36.4689 163.767 39.3167 165.268C39.7015 165.46 39.8555 165.922 39.6246 166.307C39.4706 166.576 39.2012 166.73 38.9319 166.73L38.9703 166.692Z" fill="#191935"/>
<path d="M125.791 78.1783C111.552 85.2209 101.7 87.5686 82.3036 92.1867C76.7234 95.4578 61.1758 101.461 61.1758 101.461C73.8755 99.8449 88.3456 105.271 110.551 98.5366C114.014 97.4975 114.553 96.189 118.71 94.4572C129.447 90.0315 145.571 88.877 145.571 88.877C146.841 87.5301 148.188 86.26 149.612 85.1055L130.678 74.0221L125.791 78.1783Z" fill="#494888"/>
<path d="M82.3035 92.1866C99.4675 72.8676 123.251 66.8254 123.251 66.8254L143.724 78.1014C84.4971 106.002 82.3035 92.1866 82.3035 92.1866Z" fill="#8386CF"/>
<path d="M86.8446 102.654C82.7653 102.654 78.9554 102.423 75.4533 102.231C70.027 101.923 65.2935 101.654 61.2526 102.231C60.8678 102.269 60.483 102.038 60.406 101.654C60.329 101.269 60.5214 100.884 60.9063 100.73C61.0602 100.691 77.416 95.3423 81.7262 91.6093C91.963 80.7183 102.623 74.3298 109.781 70.9048C117.555 67.1718 122.866 66.0559 123.058 66.0174C123.481 65.9404 123.866 66.2097 123.982 66.633C124.059 67.0563 123.789 67.4413 123.366 67.5567C123.174 67.5952 102.084 72.1747 82.8422 92.6483C82.8422 92.6483 82.8038 92.6869 82.7653 92.7253C79.8405 95.2653 72.0282 98.3824 66.7174 100.307C69.4113 100.307 72.3745 100.461 75.5302 100.653C85.1898 101.192 97.2353 101.884 110.589 97.6512C110.974 97.5358 111.436 97.7283 111.551 98.1516C111.667 98.575 111.474 98.9983 111.051 99.1137C102.315 101.885 94.1566 102.616 86.8061 102.616L86.8446 102.654Z" fill="#191935"/>
<g opacity="0.2">
<path d="M165.006 53.0481C165.737 52.4323 173.549 51.4317 176.59 52.2399C179.63 53.048 180.515 67.0178 179.63 68.0184C178.745 69.019 170.24 70.5584 169.432 70.443C168.623 70.3275 162.812 54.8183 165.006 53.0096V53.0481Z" fill="#DCF3FD"/>
</g>
<g opacity="0.2">
<path d="M165.006 53.0481C165.737 52.4323 173.549 51.4317 176.59 52.2399C179.63 53.048 180.515 67.0178 179.63 68.0184C178.745 69.019 170.24 70.5584 169.432 70.443C168.623 70.3275 162.812 54.8183 165.006 53.0096V53.0481Z" fill="#DCF3FD"/>
</g>
<path d="M169.432 71.2512C169.393 71.2512 169.355 71.2512 169.316 71.2512C168.893 71.2127 168.508 71.1358 167.123 67.7107C166.314 65.6711 165.506 63.285 164.891 61.1299C162.812 53.8564 164.044 52.8558 164.506 52.471C165.275 51.8552 168.777 51.4705 169.855 51.3935C171.279 51.278 174.781 51.0086 176.782 51.5474C177.821 51.8168 178.629 52.9712 179.322 55.0878C180.554 58.9362 181.285 67.3643 180.246 68.5958C179.053 70.0197 170.663 71.2897 169.432 71.2897V71.2512ZM165.468 53.664C165.468 53.7025 165.314 53.8949 165.275 54.4337C165.044 58.1667 168.739 68.0955 169.739 69.7118C170.432 69.6733 172.279 69.3654 174.319 68.9421C177.436 68.2879 178.706 67.7877 179.014 67.5568C179.476 66.2869 179.014 57.7048 177.321 54.2028C176.859 53.2022 176.474 53.0482 176.359 53.0097C173.626 52.2785 166.43 53.1637 165.468 53.664Z" fill="black"/>
<path d="M116.516 74.4454C116.516 74.4454 123.289 59.0133 133.103 55.0494C142.608 51.201 150.151 52.0476 162.235 54.2797C203.413 61.8611 241.435 99.7294 253.135 119.857C255.598 124.051 254.597 129.939 243.244 122.089C180.592 78.6785 160.811 122.089 127.599 90.2239C121.288 84.1819 116.516 74.4454 116.516 74.4454Z" fill="#8386CF"/>
<path d="M245.207 107.619C237.279 106.31 231.891 109.697 228.158 112.314C228.158 112.314 239.165 118.933 243.706 121.973C255.174 129.632 256.868 123.705 254.443 119.51C252.48 116.124 248.517 112.314 245.245 107.619H245.207Z" fill="#494888"/>
<path d="M156.886 53.4715C208.07 59.9753 247.747 109.697 253.596 118.933C253.596 118.933 255.559 123.397 253.327 124.86C249.402 115.123 231.93 92.225 206.915 76.2925C191.098 66.2097 174.742 59.398 156.924 53.433L156.886 53.4715Z" fill="#DAE3E8"/>
<path d="M253.327 125.668C253.25 125.668 253.173 125.668 253.096 125.668C252.865 125.591 252.711 125.437 252.596 125.206C250.903 121.011 246.015 113.084 237.433 103.462C231.045 96.3044 220.462 85.9138 206.492 76.9855C192.445 68.0571 177.09 61.0145 156.655 54.2028C156.27 54.0873 156.078 53.7026 156.155 53.3177C156.232 52.9329 156.616 52.6635 157.001 52.7405C184.248 56.204 207.8 71.9825 222.771 84.6438C240.396 99.5371 251.711 114.507 254.251 118.587C254.251 118.587 254.289 118.664 254.289 118.702C254.366 118.895 256.483 123.782 253.712 125.591C253.596 125.668 253.443 125.706 253.289 125.706L253.327 125.668ZM166.545 56.0499C182.555 61.8995 195.408 68.134 207.3 75.7154C231.122 90.8781 248.478 112.545 253.481 123.397C253.866 122.127 253.25 120.165 252.904 119.318C250.325 115.239 239.165 100.499 221.77 85.7983C208.801 74.8303 189.289 61.4762 166.584 56.0499H166.545Z" fill="#DAE3E8"/>
<path d="M171.202 102.116C186.98 100.653 205.761 99.3062 233.662 115.893L235.47 112.699C208.416 92.687 181.862 98.4596 171.202 102.116Z" fill="#494888"/>
<path d="M116.516 74.4454C116.516 74.4454 123.289 59.0133 133.103 55.0494C142.608 51.201 150.151 52.0476 162.235 54.2797C203.413 61.8611 241.435 99.7294 253.135 119.857C255.598 124.051 254.597 129.939 243.244 122.089C180.592 78.6785 160.811 122.089 127.599 90.2239C121.288 84.1819 116.516 74.4454 116.516 74.4454Z" fill="url(#paint0_radial_884_63396)"/>
<path d="M252.788 126.36C249.787 126.36 245.361 124.167 241.859 121.819C226.927 111.814 213.304 105.81 200.219 103.424C188.828 101.346 179.361 102.308 170.971 103.155C156.039 104.655 143.147 105.964 126.445 89.5696C126.137 89.2617 126.137 88.8 126.445 88.4921C126.753 88.1842 127.215 88.1842 127.522 88.4921C143.724 104.386 155.693 103.155 170.817 101.615C187.712 99.9219 208.724 97.7667 242.705 120.511C248.44 124.359 253.058 125.514 254.212 124.359C254.52 124.051 255.328 122.666 252.096 117.663C246.477 108.927 234.547 94.9959 217.806 81.9883C205.106 72.0979 185.172 59.398 162.466 54.9338C148.804 52.24 139.183 52.6633 132.179 56.2808C123.674 60.668 117.67 74.4839 117.593 74.6378C117.44 75.0226 116.978 75.2151 116.593 75.0226C116.208 74.8687 116.016 74.4069 116.17 74.022C116.439 73.4448 122.442 59.5519 131.448 54.8953C138.798 51.1239 148.727 50.6236 162.735 53.3945C185.71 57.8971 205.838 70.7509 218.691 80.7567C235.547 93.8798 247.631 107.965 253.327 116.816C256.059 121.088 256.714 123.974 255.213 125.437C254.597 126.014 253.75 126.283 252.711 126.283L252.788 126.36Z" fill="#191935"/>
<path d="M120.018 69.2115C119.903 69.2115 119.749 69.2116 119.633 69.0961C119.248 68.8652 119.133 68.4033 119.364 68.057C122.019 63.5543 126.291 57.6662 131.525 54.9724C138.875 51.2009 148.804 50.7006 162.812 53.4715C173.934 55.6651 185.402 60.0138 196.948 66.3637C197.333 66.5561 197.448 67.0563 197.256 67.4027C197.063 67.7875 196.563 67.9031 196.217 67.7106C184.787 61.3992 173.472 57.1275 162.504 54.9724C148.843 52.2785 139.222 52.7018 132.217 56.3193C127.291 58.8592 123.251 64.5164 120.672 68.8266C120.518 69.0575 120.287 69.2115 120.018 69.2115Z" fill="#7B160D"/>
<path d="M154.846 55.973C154.769 55.973 154.692 55.973 154.615 55.973C154.192 55.8576 153.961 55.4342 154.115 55.0109C154.384 54.1643 155.077 52.086 156.193 51.6242C157.117 51.2393 162.197 50.4697 163.467 51.0469C164.467 51.5087 165.545 52.5095 165.583 52.548C165.891 52.8558 165.891 53.3176 165.583 53.6254C165.275 53.9333 164.814 53.9333 164.506 53.6254C164.236 53.3945 163.467 52.7017 162.812 52.3939C162.12 52.1245 157.617 52.6248 156.809 53.0097C156.501 53.1636 155.924 54.3182 155.577 55.4343C155.462 55.7806 155.154 55.973 154.846 55.973Z" fill="black"/>
<path d="M127.676 66.5946C127.676 66.5946 115.208 59.706 112.167 60.2448C111.205 60.3987 107.742 64.9783 107.472 69.0576C107.203 73.3678 110.166 77.2161 111.475 77.4471C113.668 77.8704 118.248 76.2157 118.248 76.2157" fill="#D0D0FA"/>
<path d="M126.137 67.903C126.021 67.903 125.906 67.9029 125.791 67.826C118.363 64.0545 113.399 62.7076 113.36 62.6691C112.937 62.5537 112.706 62.1304 112.821 61.707C112.937 61.2837 113.36 61.0528 113.745 61.1683C113.937 61.2068 118.902 62.5921 126.483 66.4405C126.868 66.6329 127.022 67.0948 126.83 67.4797C126.676 67.749 126.406 67.903 126.137 67.903Z" fill="white"/>
<path d="M112.321 78.2938C111.975 78.2938 111.628 78.2938 111.359 78.2168C109.435 77.8319 106.433 73.4063 106.741 69.0191C107.01 64.7859 110.589 59.7445 112.052 59.4751C115.246 58.8979 126.753 65.2092 128.061 65.9404C128.446 66.1328 128.561 66.6332 128.369 66.9795C128.177 67.3644 127.676 67.4797 127.33 67.2873C122.635 64.6704 114.438 60.7066 112.36 61.0145C111.59 61.3993 108.511 65.4785 108.28 69.1345C108.011 73.2523 110.936 76.6005 111.667 76.7159C113.283 77.0238 116.824 75.9462 118.055 75.5229C118.44 75.369 118.902 75.5999 119.056 75.9848C119.21 76.3696 118.979 76.8315 118.594 76.9854C118.171 77.1393 114.784 78.3323 112.36 78.3323L112.321 78.2938Z" fill="#494888"/>
<path d="M119.325 65.5554C114.746 62.5921 111.282 65.4015 111.282 65.4015C113.052 65.8248 114.515 66.7484 114.515 66.7484C112.475 68.2878 111.59 70.7122 111.59 70.7122C111.59 70.7122 113.399 70.5583 114.476 70.2889C114.476 70.2889 114.861 71.5974 115.477 72.7135C115.477 72.7135 120.711 70.4814 122.173 69.4038C122.173 69.4038 121.288 66.8254 119.325 65.5554Z" fill="#6A6DB6"/>
<path d="M123.251 70.9049C122.981 70.9049 122.712 70.7509 122.558 70.4815C122.519 70.4046 118.671 63.4004 110.666 62.2074C110.243 62.1305 109.974 61.7457 110.012 61.3224C110.051 60.8991 110.474 60.6296 110.897 60.6681C119.71 61.9765 123.751 69.404 123.943 69.7118C124.136 70.0967 124.02 70.5586 123.635 70.751C123.52 70.828 123.405 70.828 123.289 70.828L123.251 70.9049Z" fill="#494888"/>
<path d="M244.707 117.355C246.246 119.433 248.093 120.164 249.44 120.934C250.21 121.358 249.633 122.589 248.478 121.858C245.977 120.318 244.668 117.355 244.668 117.355H244.707Z" fill="black"/>
<path d="M249.171 122.858C248.824 122.858 248.44 122.743 248.093 122.512C245.438 120.857 244.052 117.779 244.014 117.663C243.86 117.317 244.014 116.893 244.322 116.701C244.668 116.509 245.091 116.586 245.322 116.893C246.554 118.51 247.939 119.241 249.171 119.934C249.402 120.049 249.594 120.165 249.825 120.28C250.287 120.55 250.556 121.011 250.556 121.511C250.556 122.012 250.287 122.474 249.863 122.705C249.633 122.82 249.402 122.897 249.171 122.897V122.858Z" fill="black"/>
<path d="M166.276 103.616C166.083 103.616 165.93 103.539 165.776 103.424C162.735 100.768 157.848 99.1521 152.691 97.4203C148.843 96.1503 144.879 94.8419 141.338 92.9946C140.953 92.8022 140.799 92.3405 140.992 91.9557C141.184 91.5708 141.646 91.4169 142.031 91.6093C145.494 93.4181 149.381 94.688 153.191 95.958C158.502 97.7282 163.544 99.383 166.815 102.231C167.123 102.5 167.161 103.001 166.892 103.308C166.738 103.501 166.507 103.578 166.314 103.578L166.276 103.616Z" fill="#191935"/>
<path d="M148.612 49.5075C148.535 49.5075 148.458 49.5077 148.342 49.4692C143.609 47.8144 139.491 48.353 139.452 48.353C139.029 48.3915 138.644 48.1222 138.606 47.6989C138.567 47.2755 138.837 46.8906 139.26 46.8521C139.452 46.8521 143.763 46.2749 148.843 48.0452C149.227 48.1991 149.458 48.6224 149.304 49.0073C149.189 49.3152 148.881 49.5075 148.573 49.5075H148.612Z" fill="#191935"/>
<path d="M165.699 48.8149C165.391 48.8149 165.121 48.6224 165.006 48.353C164.852 47.9682 165.006 47.5065 165.429 47.3526C165.622 47.2756 170.432 45.2359 175.204 44.928C175.628 44.928 176.012 45.2358 176.012 45.6591C176.012 46.0825 175.705 46.4673 175.281 46.4673C170.779 46.7752 166.084 48.7379 166.007 48.7764C165.891 48.8149 165.814 48.8534 165.699 48.8534V48.8149Z" fill="#191935"/>
<path d="M155 68.5189C145.11 58.513 136.605 67.1334 136.605 67.1334C145.533 74.5224 155 68.5189 155 68.5189Z" fill="white"/>
<path d="M144.802 71.8283C147.076 71.8283 148.92 69.9849 148.92 67.7107C148.92 65.4365 147.076 63.5928 144.802 63.5928C142.528 63.5928 140.684 65.4365 140.684 67.7107C140.684 69.9849 142.528 71.8283 144.802 71.8283Z" fill="#191935"/>
<path d="M153.807 67.095C153.692 67.095 153.576 67.0949 153.461 67.0179C147.149 63.9392 139.452 63.0541 139.375 63.0156C138.952 62.9772 138.644 62.5924 138.683 62.1691C138.721 61.7458 139.106 61.4378 139.529 61.4763C139.837 61.4763 147.573 62.4384 154.115 65.5941C154.5 65.7866 154.654 66.2483 154.461 66.6331C154.346 66.9025 154.038 67.0565 153.769 67.0565L153.807 67.095Z" fill="#191935"/>
<path d="M146.61 72.3288C144.609 72.3288 142.3 71.9824 139.799 70.9048C139.414 70.7509 139.222 70.289 139.414 69.9042C139.568 69.5193 140.03 69.3269 140.415 69.5193C146.418 72.1363 151.729 69.9427 151.806 69.9042C152.191 69.7502 152.652 69.9042 152.806 70.3275C152.96 70.7124 152.806 71.1742 152.383 71.3282C152.229 71.4051 149.92 72.3673 146.572 72.3673L146.61 72.3288Z" fill="#191935"/>
<path d="M144.994 65.0169C145.494 64.3242 147.881 65.6711 147.342 66.4792C146.803 67.2874 144.417 65.7866 144.994 65.0169Z" fill="#ED797A"/>
<g opacity="0.2">
<path d="M154.846 55.2033C144.648 54.1642 136.528 60.7451 133.295 63.9008C132.294 64.8629 131.833 66.2483 132.102 67.5182C132.91 71.4821 134.219 75.5229 135.258 78.4092C136.181 80.9876 138.837 82.527 141.646 82.1037C148.881 81.0261 154.192 77.4472 157.271 74.8302C159.156 73.2139 160.08 70.7123 159.58 68.3648C157.54 58.2435 154.846 55.2033 154.846 55.2033Z" fill="#DCF3FD"/>
</g>
<path d="M140.684 82.9504C137.913 82.9504 135.45 81.2956 134.526 78.6786C133.526 75.9078 132.14 71.7515 131.332 67.6721C131.024 66.1328 131.563 64.478 132.756 63.3235C135.873 60.2833 144.301 53.3561 154.923 54.4336C155.116 54.4336 155.308 54.549 155.423 54.7029C155.539 54.8184 158.233 58.0511 160.311 68.2109C160.85 70.8278 159.849 73.5987 157.732 75.4075C154.461 78.1784 149.073 81.7573 141.723 82.8349C141.377 82.8733 141.03 82.9119 140.645 82.9119L140.684 82.9504ZM152.691 55.8574C143.686 55.8574 136.566 61.7456 133.795 64.4395C132.987 65.2477 132.602 66.3253 132.833 67.3644C133.641 71.3282 134.988 75.446 135.95 78.1399C136.759 80.372 139.029 81.6804 141.492 81.334C148.458 80.2949 153.615 76.9084 156.732 74.253C158.425 72.7906 159.233 70.597 158.81 68.5189C157.117 60.2833 155.039 56.8196 154.423 55.9345C153.846 55.896 153.268 55.8574 152.691 55.8574Z" fill="black"/>
<path d="M4.681 130.363C3.02618 144.525 8.45246 152.53 8.45246 152.53C8.45246 152.53 9.5685 143.101 12.3009 136.405" fill="#9395CD"/>
<path d="M8.45243 153.299C8.18304 153.299 7.95211 153.184 7.79817 152.953C7.56727 152.607 2.25647 144.525 3.91128 130.247C3.94977 129.824 4.33464 129.516 4.75796 129.555C5.18129 129.593 5.48913 129.978 5.45065 130.401C4.604 137.559 5.6431 143.063 6.68217 146.411C7.14398 147.912 7.60579 149.105 8.02911 150.028C8.52941 146.757 9.6839 140.792 11.6081 136.059C11.762 135.674 12.2238 135.481 12.6087 135.635C12.9935 135.789 13.186 136.251 13.0321 136.636C10.3766 143.178 9.2606 152.491 9.22211 152.568C9.22211 152.876 8.95272 153.145 8.64485 153.222C8.56788 153.222 8.5294 153.222 8.45243 153.222V153.299Z" fill="#191935"/>
<path d="M5.21977 118.279C-0.514366 129.401 0.871044 138.368 0.871044 138.368C0.871044 138.368 2.98767 134.519 5.87398 130.632" fill="#9395CD"/>
<path d="M0.909572 139.137C0.871088 139.137 0.832585 139.137 0.794101 139.137C0.486228 139.099 0.216848 138.829 0.178364 138.483C0.101396 138.098 -1.20707 129.17 4.60404 117.932C4.79646 117.548 5.25825 117.394 5.64309 117.586C6.02793 117.779 6.18188 118.24 5.98946 118.625C2.21801 125.976 1.60226 132.402 1.60226 135.751C2.52588 134.25 3.83437 132.21 5.33525 130.132C5.60464 129.785 6.06642 129.709 6.41278 129.978C6.75913 130.247 6.83611 130.709 6.56672 131.056C3.75738 134.866 1.64073 138.675 1.64073 138.714C1.4868 138.945 1.25591 139.099 0.986521 139.099L0.909572 139.137Z" fill="#191935"/>
</g>
<defs>
<radialGradient id="paint0_radial_884_63396" cx="0" cy="0" r="1" gradientUnits="userSpaceOnUse" gradientTransform="translate(150.71 80.463) rotate(13.8) scale(50.1833 35.1283)">
<stop offset="0.3" stop-color="#EA5656"/>
<stop offset="1" stop-color="#EA5656" stop-opacity="0"/>
</radialGradient>
<clipPath id="clip0_884_63396">
<rect width="256" height="256" fill="white"/>
</clipPath>
</defs>
</svg>
