<svg width="256" height="256" viewBox="0 0 256 256" fill="none" xmlns="http://www.w3.org/2000/svg">
<path d="M166.618 170.883C166.618 170.883 143.485 151.389 124.418 150.411L128.833 133.475C153.145 139.02 172.263 160.245 172.263 160.245C172.263 160.245 173.567 168.55 166.618 170.858V170.883Z" fill="#DDDCFC"/>
<path d="M164.184 170.507C165.112 171.184 165.589 172.564 165.589 172.564C166.417 171.611 166.316 170.181 166.316 170.181C166.316 170.181 174.194 167.571 172.263 160.245C172.263 160.245 171.234 159.493 170.03 157.937C170.03 157.937 165.463 156.031 163.933 154.575C163.933 154.575 163.481 156.382 163.807 158.138C163.807 158.138 162.428 156.131 160.496 153.622C160.496 153.622 159.718 161.274 161.499 165.213C161.499 165.213 160.496 165.514 158.639 164.912C158.639 164.912 160.245 166.718 161.976 168.475C162.352 169.052 163.055 172.765 163.055 172.765C164.234 171.812 164.159 170.482 164.159 170.482L164.184 170.507Z" fill="#57539F"/>
<path d="M166.617 170.883C166.617 170.883 143.485 151.389 124.418 150.411L128.833 133.475C153.145 139.02 172.263 160.245 172.263 160.245C172.263 160.245 173.567 168.55 166.617 170.858V170.883Z" fill="#DDDCFC"/>
<path d="M124.418 150.411C138.794 151.138 155.453 162.403 162.804 167.898L163.506 166.217C156.507 158.59 146.697 152.167 140.123 148.253C140.123 148.253 138.995 142.131 137.439 136.135C134.052 134.705 132.496 134.328 128.833 133.475L124.418 150.411Z" fill="#9597CF"/>
<path d="M164.184 170.507C165.112 171.184 165.589 172.564 165.589 172.564C166.417 171.611 166.316 170.181 166.316 170.181C166.316 170.181 174.194 167.571 172.263 160.245C172.263 160.245 171.234 159.493 170.03 157.937C170.03 157.937 165.463 156.031 163.933 154.575C163.933 154.575 163.481 156.382 163.807 158.138C163.807 158.138 162.428 156.131 160.496 153.622C160.496 153.622 159.718 161.274 161.499 165.213C161.499 165.213 160.496 165.514 158.639 164.912C158.639 164.912 160.245 166.718 161.976 168.475C162.352 169.052 163.055 172.765 163.055 172.765C164.234 171.812 164.159 170.482 164.159 170.482L164.184 170.507Z" fill="#57539F"/>
<path d="M166.291 168.148C167.019 168.725 168.173 167.998 168.173 167.998C167.119 166.969 166.944 165.213 166.944 165.213C167.822 164.862 168.173 164.285 168.173 164.285C167.872 163.106 168.273 162.052 168.273 162.052C169.252 162.779 169.904 162.905 169.904 162.905C169.528 161.751 170.13 160.572 170.13 160.572C171.008 160.747 172.237 160.271 172.237 160.271C173.291 161.249 174.219 161.5 175.399 162.253C179.839 167.596 173.642 171.234 173.642 171.234C171.585 170.984 168.248 173.041 167.32 171.786C166.116 170.13 166.266 168.148 166.266 168.148H166.291Z" fill="#DDDCFC"/>
<path d="M171.284 170.432C172.212 171.009 172.689 171.485 172.94 171.736C174.069 172.89 174.646 174.847 174.194 175.374C173.668 176.026 172.513 175.55 171.108 174.747C171.108 174.747 168.474 173.392 166.643 170.883" fill="#DDDCFC"/>
<path d="M173.467 176.202C172.564 176.202 171.51 175.575 170.832 175.198C170.607 175.073 168.048 173.693 166.191 171.209C166.015 170.983 166.066 170.682 166.291 170.507C166.517 170.331 166.818 170.381 166.994 170.607C168.75 172.965 171.259 174.295 171.284 174.32C173.015 175.324 173.567 175.274 173.743 175.073C173.918 174.797 173.542 173.141 172.513 172.087C172.363 171.937 171.886 171.46 170.958 170.858C170.732 170.707 170.657 170.406 170.807 170.155C170.958 169.905 171.259 169.854 171.51 170.005C172.539 170.657 173.065 171.184 173.241 171.385C174.395 172.564 175.223 174.822 174.546 175.7C174.245 176.077 173.868 176.202 173.442 176.202H173.467Z" fill="#7481BA"/>
<path d="M171.083 174.747C172.288 175.324 173.642 176.026 174.169 175.374C174.596 174.822 174.019 172.865 172.915 171.736C172.739 173.668 171.083 174.747 171.083 174.747Z" fill="#3F3E77"/>
<path d="M173.492 176.227C172.814 176.227 171.936 175.876 170.832 175.173C170.606 175.023 170.531 174.722 170.682 174.471C170.832 174.245 171.133 174.17 171.384 174.32C172.814 175.223 173.617 175.374 173.793 175.098C173.994 174.797 173.617 173.141 172.589 172.062C172.388 171.862 172.388 171.535 172.589 171.36C172.789 171.159 173.115 171.159 173.291 171.36C174.52 172.614 175.173 174.772 174.621 175.625C174.37 176.001 173.994 176.202 173.492 176.202V176.227Z" fill="#191935"/>
<path d="M175.424 162.754C175.348 162.754 175.248 162.754 175.173 162.679C174.771 162.453 174.445 162.278 174.144 162.127C173.417 161.751 172.89 161.5 171.911 160.622C171.71 160.446 171.685 160.12 171.861 159.919C172.037 159.718 172.363 159.693 172.564 159.869C173.442 160.647 173.893 160.873 174.571 161.224C174.872 161.374 175.198 161.55 175.624 161.801C175.875 161.926 175.951 162.253 175.8 162.478C175.7 162.629 175.549 162.729 175.373 162.729L175.424 162.754Z" fill="#7481BA"/>
<path d="M176.452 166.543C178.334 167.195 180.542 168.073 181.094 167.27C181.721 166.392 180.09 164.285 175.424 162.227" fill="#DDDCFC"/>
<path d="M180.291 168.098C179.363 168.098 178.108 167.647 176.804 167.195L176.302 167.019C176.051 166.919 175.9 166.643 176.001 166.392C176.101 166.141 176.377 165.991 176.628 166.091L177.13 166.267C178.183 166.643 180.416 167.421 180.692 167.019C180.743 166.969 180.743 166.869 180.692 166.718C180.467 165.89 178.886 164.335 175.198 162.729C174.947 162.629 174.822 162.328 174.947 162.077C175.047 161.826 175.348 161.701 175.599 161.826C178.986 163.306 181.244 165.063 181.646 166.468C181.796 167.019 181.646 167.396 181.495 167.622C181.219 167.998 180.793 168.148 180.266 168.148L180.291 168.098Z" fill="#7481BA"/>
<path d="M181.094 167.27C181.52 166.668 180.743 165.238 178.685 163.933C179.614 165.916 178.685 167.295 178.685 167.295C179.814 167.622 180.768 167.772 181.119 167.295L181.094 167.27Z" fill="#3F3E77"/>
<path d="M180.266 168.098C179.739 168.098 179.112 167.948 178.51 167.772C178.234 167.697 178.083 167.421 178.158 167.145C178.234 166.869 178.51 166.718 178.786 166.794C180.391 167.27 180.642 167.019 180.667 166.969C180.667 166.969 180.692 166.869 180.667 166.769C180.567 166.267 179.915 165.313 178.384 164.36C178.158 164.21 178.083 163.908 178.234 163.658C178.384 163.432 178.685 163.356 178.936 163.507C180.467 164.485 181.47 165.614 181.671 166.568C181.771 167.045 181.621 167.371 181.495 167.546C181.219 167.923 180.768 168.073 180.266 168.073V168.098Z" fill="#191935"/>
<path d="M175.022 169.102C177.657 169.503 181.42 169.604 181.746 168.349C181.997 167.371 179.262 166.066 175.499 165.012" fill="#DDDCFC"/>
<path d="M178.359 169.88C176.879 169.88 175.449 169.679 174.922 169.604C174.646 169.554 174.47 169.303 174.495 169.027C174.546 168.751 174.797 168.55 175.073 168.6C178.685 169.152 181.094 168.751 181.219 168.224C181.295 167.973 179.965 166.794 175.323 165.489C175.047 165.414 174.897 165.138 174.972 164.862C175.047 164.586 175.323 164.435 175.599 164.511C181.47 166.141 182.424 167.571 182.198 168.45C181.922 169.554 180.115 169.829 178.334 169.829L178.359 169.88Z" fill="#7481BA"/>
<path d="M181.721 168.374C181.897 167.647 180.467 166.744 178.184 165.891C179.012 167.346 178.309 169.378 178.309 169.378C180.04 169.378 181.546 169.127 181.721 168.374Z" fill="#3F3E77"/>
<path d="M178.384 169.88C178.384 169.88 178.334 169.88 178.309 169.88C178.033 169.88 177.807 169.654 177.807 169.378C177.807 169.102 178.033 168.876 178.309 168.876C178.309 168.876 178.359 168.876 178.384 168.876C180.517 168.876 181.194 168.475 181.244 168.249C181.269 168.148 180.818 167.421 178.033 166.367C177.782 166.267 177.631 165.991 177.732 165.715C177.832 165.439 178.108 165.313 178.384 165.414C181.219 166.467 182.474 167.471 182.223 168.475C181.997 169.403 180.743 169.854 178.384 169.854V169.88Z" fill="#191935"/>
<path d="M174.47 167.597C177.23 168.625 180.266 168.776 180.341 169.554C180.417 170.256 177.581 172.263 173.668 171.209C173.668 171.209 171.911 171.134 171.184 170.808C171.184 170.808 170.431 170.933 169.804 170.808" fill="#DDDCFC"/>
<path d="M175.875 172.012C175.173 172.012 174.395 171.912 173.592 171.711C173.266 171.711 171.911 171.611 171.133 171.335C170.857 171.36 170.255 171.435 169.728 171.335C169.452 171.285 169.277 171.034 169.327 170.758C169.377 170.482 169.628 170.306 169.904 170.356C170.431 170.457 171.083 170.356 171.108 170.356C171.209 170.356 171.309 170.356 171.384 170.382C171.911 170.607 173.216 170.708 173.693 170.733C173.718 170.733 173.768 170.733 173.793 170.733C177.08 171.611 179.413 170.206 179.789 169.629C179.488 169.453 178.535 169.227 177.757 169.052C176.728 168.826 175.474 168.525 174.27 168.073C174.019 167.973 173.868 167.697 173.968 167.421C174.069 167.17 174.345 167.02 174.621 167.12C175.75 167.546 176.929 167.822 177.983 168.048C179.714 168.45 180.743 168.675 180.818 169.478C180.868 169.83 180.642 170.231 180.191 170.632C179.488 171.235 177.958 172.012 175.875 172.012Z" fill="#7481BA"/>
<path d="M180.341 169.553C180.291 169.077 179.112 168.851 177.556 168.5C178.309 169.729 177.807 171.285 177.807 171.285C179.413 170.858 180.366 169.98 180.341 169.579V169.553Z" fill="#3F3E77"/>
<path d="M177.807 171.761C177.581 171.761 177.381 171.611 177.331 171.385C177.255 171.109 177.406 170.833 177.682 170.783C178.886 170.457 179.589 169.905 179.789 169.629C179.488 169.453 178.535 169.227 177.757 169.052L177.431 168.977C177.155 168.926 177.004 168.65 177.055 168.374C177.105 168.098 177.381 167.948 177.657 167.998L177.983 168.073C179.689 168.475 180.743 168.701 180.818 169.503C180.893 170.306 179.639 171.31 177.933 171.761C177.882 171.761 177.857 171.761 177.807 171.761Z" fill="#191935"/>
<path d="M163.08 173.292C163.03 173.292 162.955 173.292 162.904 173.267C162.729 173.217 162.628 173.066 162.578 172.89C162.252 171.209 161.8 169.227 161.6 168.801C160.069 167.245 158.664 165.69 158.313 165.313C141.955 154.023 130.841 151.264 124.393 150.937C124.117 150.937 123.891 150.687 123.916 150.411C123.916 150.135 124.167 149.909 124.443 149.934C131.041 150.26 142.356 153.07 158.94 164.511C158.965 164.511 158.991 164.561 159.016 164.586C159.292 164.912 160.772 166.543 162.352 168.149C162.352 168.149 162.403 168.199 162.428 168.224C162.729 168.675 163.13 170.457 163.381 171.686C163.707 171.084 163.682 170.557 163.682 170.532C163.682 170.331 163.782 170.156 163.933 170.055C164.109 169.955 164.309 169.98 164.46 170.105C164.962 170.482 165.338 171.009 165.589 171.485C165.714 171.134 165.739 170.808 165.765 170.582C165.765 170.407 165.89 170.231 166.066 170.156C166.241 170.08 166.442 170.105 166.592 170.231C166.818 170.407 166.919 170.507 166.919 170.507C167.119 170.683 167.169 171.009 166.969 171.209C166.893 171.31 166.768 171.36 166.643 171.385C166.517 171.887 166.316 172.439 165.915 172.89C165.79 173.016 165.614 173.091 165.438 173.066C165.263 173.041 165.112 172.915 165.062 172.74C165.062 172.74 164.861 172.138 164.46 171.586C164.284 172.087 163.983 172.69 163.356 173.191C163.256 173.267 163.155 173.292 163.03 173.292H163.08Z" fill="#191935"/>
<path d="M172.263 160.772C172.137 160.772 171.987 160.722 171.886 160.597C171.686 160.396 152.593 139.422 128.733 133.977C128.457 133.927 128.282 133.651 128.357 133.375C128.407 133.099 128.683 132.949 128.959 132.999C141.604 135.884 152.819 143.06 159.969 148.554C167.721 154.525 172.589 159.869 172.639 159.919C172.815 160.12 172.814 160.446 172.614 160.622C172.513 160.697 172.388 160.747 172.288 160.747L172.263 160.772Z" fill="#7481BA"/>
<path d="M123.64 104.422C126.626 84.8278 104.296 79.0824 104.296 79.0824L97.1711 79.6093C97.1711 79.6093 94.612 93.2326 101.286 102.164" fill="#5B56A4"/>
<path d="M123.64 104.422C124.267 100.358 123.791 96.8957 122.662 93.9603C115.737 93.7596 105.501 91.627 96.8199 82.4695C96.4686 86.9604 96.5189 95.7667 101.286 102.164L123.64 104.422Z" fill="#333476"/>
<path d="M123.64 104.924C123.615 104.924 123.59 104.924 123.565 104.924C123.289 104.874 123.113 104.623 123.138 104.347C124.343 96.4189 121.533 89.8456 114.784 84.8027C110.042 81.2651 104.924 79.7598 104.246 79.5842L97.5977 80.0859C97.2465 82.344 95.8416 94.0606 101.687 101.888C101.863 102.114 101.813 102.415 101.587 102.591C101.361 102.766 101.06 102.716 100.884 102.49C94.1605 93.4835 96.5691 80.111 96.6695 79.534C96.7197 79.3082 96.8952 79.1325 97.121 79.1325L104.246 78.6057C104.296 78.6057 104.347 78.6057 104.397 78.6057C104.623 78.6559 110.142 80.111 115.361 84.0249C120.228 87.6628 125.697 94.1609 124.117 104.523C124.067 104.774 123.866 104.949 123.615 104.949L123.64 104.924Z" fill="#0C0C1C"/>
<path d="M141.604 160.446C133.701 153.522 135.658 130.44 127.554 111.799C121.357 97.573 111.547 90.5732 101.486 94.8132C91.4258 99.0783 86.684 115.211 92.2789 127.805C99.931 145.016 119.751 158.891 131.669 167.948" fill="#DDDCFC"/>
<path d="M130.238 119.2C129.486 116.691 128.608 114.207 127.554 111.799C121.357 97.573 111.547 90.5732 101.486 94.8132C91.4258 99.0783 86.684 115.211 92.2789 127.805C98.7518 142.357 113.88 154.5 125.597 163.382C100.684 135.708 116.665 109.214 116.665 109.214C122.034 112.501 125.873 114.734 130.238 119.2Z" fill="#8B8BD1"/>
<path d="M110.293 101.512C110.293 101.512 113.78 100.508 123.364 104.046C117.368 95.1645 109.239 90.8492 101.487 94.8132C85.1034 103.193 89.2431 125.597 95.139 133.225C97.7483 116.39 110.293 101.487 110.293 101.487V101.512Z" fill="#5B56A4"/>
<path d="M131.669 168.424C131.568 168.424 131.468 168.399 131.367 168.324C130.414 167.597 129.411 166.844 128.382 166.066C116.665 157.26 98.9273 143.963 91.8271 127.981C88.7412 121.031 88.5906 112.576 91.4257 105.401C93.5331 100.057 97.0457 96.1179 101.311 94.3366C106.354 92.204 111.522 92.756 116.289 95.9423C120.855 99.0031 124.945 104.397 128.056 111.573C131.819 120.254 133.425 129.888 134.855 138.368C136.46 148.052 137.865 156.432 141.98 160.045C142.181 160.22 142.206 160.547 142.03 160.747C141.855 160.948 141.529 160.973 141.328 160.797C136.962 156.959 135.532 148.429 133.876 138.543C132.471 130.114 130.866 120.53 127.153 111.974C124.117 104.974 120.178 99.7307 115.762 96.7702C111.296 93.7846 106.454 93.2829 101.737 95.2649C97.723 96.9709 94.4114 100.684 92.4042 105.777C89.6695 112.702 89.82 120.856 92.8056 127.58C99.8054 143.31 117.393 156.507 129.059 165.263C130.113 166.041 131.116 166.794 132.07 167.521C132.296 167.697 132.346 167.998 132.17 168.224C132.07 168.349 131.919 168.424 131.769 168.424H131.669Z" fill="#191935"/>
<path d="M126.35 135.784C126.35 135.784 132.873 145.644 140.098 159.342C140.098 159.342 131.192 167.12 130.991 166.493C127.152 155.704 127.905 144.991 126.375 135.784H126.35Z" fill="#8588D1"/>
<path d="M130.991 166.994C130.791 166.994 130.59 166.869 130.515 166.668C127.981 159.543 127.454 152.593 126.927 145.869C126.651 142.357 126.4 139.045 125.873 135.859C125.823 135.633 125.973 135.407 126.174 135.307C126.4 135.232 126.651 135.307 126.776 135.508C126.852 135.608 133.4 145.543 140.55 159.091C140.676 159.342 140.575 159.643 140.349 159.769C140.099 159.894 139.798 159.794 139.672 159.568C134.403 149.557 129.436 141.529 127.203 138.017C127.529 140.525 127.73 143.11 127.93 145.794C128.432 152.443 128.984 159.342 131.468 166.342C131.568 166.593 131.418 166.894 131.167 166.994C131.117 166.994 131.067 167.019 130.991 167.019V166.994Z" fill="#191935"/>
<path opacity="0.2" d="M150.335 163.306C150.636 163.181 153.371 163.632 154.299 164.209C155.227 164.786 154.123 169.553 153.722 169.804C153.32 170.055 150.31 169.704 150.059 169.578C149.808 169.453 149.432 163.657 150.335 163.281V163.306Z" fill="#DEF5FF"/>
<path d="M152.869 170.406C151.69 170.406 150.059 170.156 149.833 170.055C149.557 169.93 149.432 169.754 149.331 168.449C149.256 167.672 149.231 166.769 149.256 165.991C149.306 163.532 149.733 163.005 150.134 162.855C150.761 162.604 153.722 163.281 154.55 163.808C154.951 164.059 155.127 164.586 155.152 165.439C155.152 166.844 154.575 169.88 153.998 170.256C153.797 170.381 153.371 170.432 152.869 170.432V170.406ZM150.435 169.177C151.087 169.303 152.894 169.478 153.421 169.403C153.571 169.102 153.847 168.199 154.023 167.019C154.299 165.364 154.098 164.736 154.023 164.636C153.27 164.184 151.087 163.783 150.535 163.783C150.134 164.46 150.234 168.174 150.435 169.177Z" fill="black"/>
<path d="M131.568 159.417C131.568 159.417 140.65 154.149 148.553 163.708C157.836 174.948 162.478 190.754 162.553 198.908C162.578 203.424 160.395 201.467 158.714 198.08C145.969 172.213 134.102 184.582 131.342 165.991" fill="#8588D1"/>
<path d="M162.127 194.617C160.019 192.736 157.811 192.736 156.206 192.811C156.206 192.811 158.213 196.825 158.991 198.581C160.947 202.997 162.553 201.567 162.628 199.861C162.679 198.481 162.227 196.624 162.127 194.617Z" fill="#49488A"/>
<path d="M161.248 201.943C161.148 201.943 161.023 201.893 160.972 201.818C160.897 201.743 160.872 201.617 160.897 201.517C161.75 196.9 160.395 189.926 156.808 180.166C154.801 174.747 151.113 169.227 147.851 164.36C147.424 163.733 147.023 163.105 146.597 162.503C146.496 162.353 146.521 162.127 146.672 162.002C146.822 161.876 147.048 161.901 147.174 162.027C160.145 175.123 162.854 196.022 162.854 199.585C162.854 199.585 162.854 199.61 162.854 199.635C162.829 199.861 162.478 201.943 161.274 201.968L161.248 201.943ZM161.549 194.442C161.901 196.8 161.976 198.882 161.775 200.639C161.926 200.312 162.051 199.886 162.101 199.51C162.101 198.657 161.951 196.85 161.549 194.442ZM150.786 167.396C153.396 171.385 155.955 175.65 157.51 179.89C158.79 183.402 159.793 186.564 160.521 189.399C158.965 182.926 156.03 174.571 150.786 167.396Z" fill="#DCE5EA"/>
<path d="M161.625 202.044C160.245 202.044 158.84 199.46 158.263 198.306C151.765 185.109 145.568 182.023 140.6 179.539C135.908 177.181 132.22 175.349 130.841 166.066C130.79 165.79 130.991 165.539 131.267 165.489C131.543 165.439 131.794 165.64 131.844 165.916C133.149 174.672 136.461 176.328 141.077 178.636C146.195 181.195 152.543 184.381 159.191 197.854C160.446 200.413 161.449 201.065 161.675 201.015C161.675 201.015 162.101 200.84 162.076 198.883C162.026 191.306 157.686 175.475 148.202 164.009C140.675 154.927 132.22 159.618 131.869 159.844C131.618 159.995 131.317 159.894 131.192 159.668C131.066 159.443 131.142 159.116 131.367 158.991C131.744 158.765 140.926 153.647 148.98 163.407C158.614 175.073 163.03 191.205 163.08 198.933C163.08 200.137 162.98 201.793 161.901 202.044C161.826 202.044 161.75 202.069 161.65 202.069L161.625 202.044Z" fill="#191935"/>
<path d="M142.783 165.414C144.364 165.464 144.464 169.428 142.256 169.202C140.048 168.976 141.127 165.338 142.783 165.414Z" fill="#1A1A21"/>
<path d="M142.055 169.604C141.002 169.604 140.149 169.202 140.098 169.177C139.923 169.077 139.848 168.851 139.923 168.675C139.998 168.5 140.249 168.425 140.425 168.5C140.425 168.5 141.88 169.202 143.21 168.625C143.41 168.55 143.611 168.625 143.711 168.826C143.812 169.027 143.711 169.227 143.511 169.328C143.009 169.553 142.507 169.629 142.03 169.629L142.055 169.604Z" fill="#191935"/>
<path d="M140.048 161.149C139.923 161.149 139.797 161.098 139.697 160.998C139.496 160.797 139.496 160.496 139.697 160.296C139.722 160.27 140.475 159.493 141.478 159.468C142.08 159.468 142.607 159.693 143.109 160.17C143.31 160.371 143.31 160.672 143.109 160.873C142.908 161.073 142.607 161.073 142.407 160.873C142.231 160.722 141.378 159.969 140.399 160.973C140.299 161.073 140.174 161.123 140.048 161.123V161.149Z" fill="#191935"/>
<path d="M151.313 160.848C151.188 160.848 151.088 160.797 150.987 160.722C150.962 160.697 150.209 160.07 149.482 160.546C149.256 160.697 148.93 160.647 148.779 160.421C148.629 160.195 148.679 159.869 148.905 159.719C149.984 158.966 151.163 159.568 151.639 159.969C151.84 160.145 151.865 160.471 151.69 160.672C151.589 160.797 151.464 160.848 151.313 160.848Z" fill="#191935"/>
<path opacity="0.2" d="M146.421 162.955C143.109 161.575 139.722 162.955 138.317 163.682C136.912 164.41 137.59 164.31 137.539 164.786C137.414 166.191 137.439 167.697 137.489 168.776C137.539 169.729 138.267 170.507 139.27 170.657C141.804 171.034 143.962 170.356 145.242 169.804C146.521 169.252 146.596 168.7 146.672 167.872C146.998 164.285 146.421 162.98 146.421 162.98V162.955Z" fill="#DEF5FF"/>
<path d="M140.776 171.234C140.274 171.234 139.747 171.209 139.22 171.134C137.991 170.958 137.088 169.98 137.013 168.776C136.962 167.722 136.912 166.192 137.063 164.711C137.113 164.084 137.514 163.532 138.091 163.206C139.471 162.478 143.084 160.998 146.622 162.453C146.747 162.503 146.822 162.604 146.898 162.704C146.923 162.754 147.525 164.159 147.199 167.847C147.098 168.876 146.446 169.754 145.468 170.206C144.364 170.708 142.733 171.209 140.776 171.209V171.234ZM143.41 162.88C141.303 162.88 139.446 163.683 138.568 164.134C138.292 164.285 138.091 164.536 138.066 164.837C137.941 166.242 137.966 167.722 138.016 168.751C138.066 169.478 138.618 170.055 139.346 170.156C141.729 170.507 143.762 169.905 145.041 169.328C145.693 169.052 146.12 168.475 146.17 167.797C146.421 165.138 146.145 163.783 146.02 163.331C145.141 163.005 144.238 162.855 143.385 162.855L143.41 162.88Z" fill="black"/>
<path d="M150.335 163.808C150.134 163.808 149.958 163.683 149.883 163.507C149.733 163.156 149.532 162.779 149.432 162.654C149.131 162.529 147.901 162.378 147.525 162.403C147.399 162.503 147.098 162.88 146.898 163.231C146.747 163.457 146.446 163.532 146.22 163.407C145.994 163.256 145.919 162.955 146.045 162.729C146.546 161.926 146.973 161.475 147.374 161.45C147.625 161.425 149.632 161.5 150.109 161.926C150.435 162.202 150.761 162.93 150.862 163.156C150.962 163.407 150.862 163.708 150.586 163.808C150.51 163.833 150.46 163.858 150.385 163.858L150.335 163.808Z" fill="black"/>
<path d="M137.289 159.217C137.289 159.217 135.332 154.625 134.378 154.124C134.077 153.973 132.145 154.475 131.192 155.554C130.238 156.632 130.188 158.389 130.489 158.74C131.016 159.342 132.622 159.869 132.622 159.869" fill="#D2D2FB"/>
<path d="M136.762 159.518C136.561 159.518 136.385 159.417 136.31 159.217C135.081 156.608 134.027 155.177 134.002 155.152C133.826 154.926 133.876 154.625 134.102 154.45C134.328 154.274 134.629 154.324 134.805 154.55C134.855 154.6 135.934 156.081 137.213 158.79C137.339 159.041 137.213 159.342 136.962 159.468C136.887 159.493 136.812 159.518 136.762 159.518Z" fill="white"/>
<path d="M132.622 160.346C132.572 160.346 132.522 160.346 132.471 160.346C132.296 160.295 130.69 159.744 130.113 159.066C129.586 158.464 129.712 156.482 130.816 155.227C131.794 154.124 133.977 153.346 134.629 153.697C135.658 154.249 137.289 157.937 137.765 159.041C137.866 159.292 137.765 159.593 137.489 159.693C137.238 159.794 136.937 159.693 136.837 159.417C135.959 157.36 134.729 154.977 134.203 154.6C133.826 154.6 132.346 155.027 131.568 155.88C130.765 156.783 130.74 158.138 130.866 158.414C131.167 158.74 132.17 159.166 132.773 159.367C133.049 159.442 133.174 159.743 133.099 159.994C133.023 160.195 132.823 160.346 132.622 160.346Z" fill="#49488A"/>
<path d="M135.206 157.135C134.579 155.328 133.023 155.353 133.023 155.353C133.425 155.855 133.625 156.432 133.625 156.432C132.747 156.432 131.97 156.884 131.97 156.884C131.97 156.884 132.496 157.235 132.873 157.385C132.873 157.385 132.697 157.837 132.622 158.264C132.622 158.264 134.554 158.765 135.181 158.79C135.181 158.79 135.482 157.887 135.231 157.109L135.206 157.135Z" fill="#6A6DB8"/>
<path d="M135.307 159.719C135.281 159.719 135.256 159.719 135.231 159.719C134.955 159.669 134.78 159.418 134.83 159.142C134.83 159.091 135.256 156.457 133.375 154.5C133.174 154.299 133.199 153.973 133.375 153.798C133.575 153.597 133.901 153.622 134.077 153.798C136.31 156.131 135.808 159.192 135.783 159.317C135.733 159.568 135.532 159.744 135.281 159.744L135.307 159.719Z" fill="#49488A"/>
<path d="M143.21 167.295C143.611 167.421 143.059 168.7 142.607 168.575C142.156 168.449 142.758 167.145 143.21 167.295Z" fill="white"/>
<path d="M160.145 197.402C160.22 198.306 160.621 198.883 160.872 199.359C161.123 199.836 160.621 199.886 160.42 199.46C159.969 198.531 160.145 197.427 160.145 197.427V197.402Z" fill="black"/>
<path d="M160.697 200.187C160.697 200.187 160.672 200.187 160.646 200.187C160.345 200.187 160.094 199.986 159.944 199.685C159.442 198.632 159.618 197.402 159.618 197.352C159.643 197.101 159.869 196.926 160.12 196.926C160.37 196.926 160.571 197.126 160.596 197.377C160.646 198.029 160.922 198.481 161.148 198.908C161.198 198.983 161.223 199.058 161.274 199.133C161.399 199.384 161.399 199.66 161.274 199.861C161.148 200.062 160.922 200.187 160.671 200.187H160.697Z" fill="black"/>
<path d="M116.665 109.189C114.156 78.0789 133.651 81.6917 136.536 60.0901C139.672 36.5566 105.952 31.7395 101.386 28.5532C101.16 33.1696 102.314 37.4097 102.314 37.4097C101.035 38.1623 99.6047 39.0404 99.6047 39.0404C99.7803 39.9186 102.364 41.9257 102.364 41.9257C99.1782 42.854 96.293 43.0797 96.293 43.0797C99.6048 48.5491 101.913 51.3089 101.913 51.3089C99.0528 49.904 98.2499 48.9757 98.2499 48.9757C98.2499 62.1474 116.465 62.6241 116.766 72.3837C116.991 79.5843 110.293 84.8781 109.289 96.8455C108.712 103.946 113.328 109.29 116.64 109.164L116.665 109.189Z" fill="#6D6FBF"/>
<path d="M102.314 37.4347C101.035 38.1874 99.6047 39.0655 99.6047 39.0655C99.7803 39.9436 102.364 41.9507 102.364 41.9507C99.1782 42.879 96.293 43.1048 96.293 43.1048C99.6048 48.5742 101.913 51.334 101.913 51.334C99.0528 49.9291 98.2499 49.0007 98.2499 49.0007C98.2499 62.1725 116.465 62.6492 116.766 72.4088C116.766 72.6848 116.766 72.9357 116.766 73.2117C118.296 61.7209 107.056 51.4344 107.056 51.4344C106.755 54.2945 106.655 57.7819 106.655 57.7819C106.655 57.7819 103.845 50.5312 103.468 45.1872H107.483C107.483 45.1872 106.153 43.2303 104.899 39.9185C104.899 39.9185 106.228 40.0942 108.386 39.9185C108.386 39.9185 105.526 36.7071 101.386 28.5782C101.16 33.1946 102.314 37.4347 102.314 37.4347Z" fill="#49488A"/>
<path d="M101.386 28.5784C105.952 31.7647 142.08 37.7861 134.98 66.5381C144.213 37.7108 105.952 31.7647 101.386 28.5784Z" fill="#DCE5EA"/>
<path d="M134.98 67.0397C134.93 67.0397 134.88 67.0397 134.855 67.0397C134.604 66.9644 134.428 66.6885 134.504 66.4376C140.224 43.3557 117.393 35.1515 106.404 31.2126C103.845 30.2843 101.988 29.632 101.11 29.0048C100.96 28.9044 100.884 28.7539 100.884 28.6033C100.884 28.503 100.909 28.4026 100.985 28.3273C101.135 28.1015 101.461 28.0514 101.687 28.2019C102.465 28.7539 104.472 29.4313 106.981 30.3094C112.877 32.3416 121.784 35.4025 128.407 40.9722C136.41 47.7212 138.794 56.402 135.457 66.7386C135.382 66.9394 135.181 67.0899 134.98 67.0899V67.0397Z" fill="#DCE5EA"/>
<path d="M116.665 109.691C116.414 109.691 116.189 109.49 116.164 109.239C114.708 91.1 120.68 84.5518 126.45 78.2294C130.74 73.5127 134.805 69.0468 136.034 60.0399C138.468 41.8002 118.146 35.0261 107.207 31.3882C104.848 30.6105 103.017 29.9832 101.838 29.4313C101.788 33.571 102.766 37.2841 102.766 37.3092C102.816 37.535 102.741 37.7608 102.54 37.8611C101.662 38.3629 100.734 38.94 100.232 39.2662C100.633 39.8181 101.687 40.7966 102.666 41.5493C102.816 41.6747 102.891 41.8503 102.841 42.0511C102.816 42.2267 102.666 42.3772 102.49 42.4274C100.257 43.0797 98.1998 43.3808 97.121 43.5313C100.157 48.4487 102.264 51.0078 102.264 51.0329C102.415 51.2085 102.415 51.4845 102.264 51.6601C102.114 51.8357 101.863 51.911 101.637 51.8107C100.257 51.1333 99.3539 50.5562 98.7518 50.1297C99.2787 56.2013 104.071 59.2872 108.712 62.2728C113.002 65.0326 117.067 67.6418 117.217 72.3837C117.318 75.871 115.888 78.8817 114.232 82.344C112.375 86.2328 110.268 90.6234 109.766 96.8956C109.766 97.1716 109.49 97.3723 109.214 97.3472C108.938 97.3472 108.737 97.0713 108.762 96.7953C109.289 90.3474 111.447 85.8564 113.329 81.8924C114.934 78.5304 116.314 75.6452 116.214 72.3837C116.088 68.1687 112.25 65.6849 108.16 63.0756C103.243 59.9144 97.698 56.3518 97.698 48.9505C97.698 41.5493 97.8235 48.5491 98.0242 48.4738C98.2249 48.3985 98.4507 48.4738 98.5761 48.6244C98.5761 48.6244 98.9525 49.0509 100.006 49.7032C99.0027 48.3233 97.5476 46.1907 95.7913 43.3055C95.691 43.155 95.691 42.9793 95.7913 42.8288C95.8666 42.6782 96.017 42.5779 96.1927 42.5528C96.2177 42.5528 98.526 42.3521 101.236 41.6747C100.357 40.9471 99.2034 39.8432 99.0529 39.1156C99.0027 38.9149 99.1031 38.7142 99.2787 38.5888C99.2787 38.5888 100.483 37.8361 101.662 37.1336C101.386 35.9795 100.634 32.3918 100.809 28.4779C100.809 28.3022 100.934 28.1266 101.085 28.0514C101.261 27.9761 101.436 27.9761 101.587 28.1015C102.465 28.7288 104.673 29.4564 107.458 30.3847C112.827 32.166 120.93 34.8756 127.203 39.4167C134.78 44.8861 138.041 51.8609 136.937 60.1152C135.683 69.4483 131.317 74.2151 127.102 78.8315C121.457 85.0034 115.637 91.4011 117.067 109.089C117.067 109.365 116.891 109.616 116.615 109.641C116.615 109.641 116.59 109.641 116.565 109.641L116.665 109.691Z" fill="#0C0C1C"/>
<path d="M109.013 102.666C111.321 85.6057 96.0672 79.785 96.0672 79.785L89.519 82.5448C89.519 82.5448 78.3293 97.9495 91.6265 114.709" fill="#5B56A4"/>
<path d="M91.6264 114.709C81.917 102.491 85.2539 90.9746 87.7628 85.6558C87.7628 105.024 102.239 106.128 109.239 100.032C109.214 100.885 109.139 101.763 109.013 102.666C102.967 112.426 91.6264 114.709 91.6264 114.709Z" fill="#333476"/>
<path d="M91.6264 115.211C91.4759 115.211 91.3253 115.135 91.2249 115.01C84.2251 106.204 84.0244 97.7738 85.0781 92.2291C86.2071 86.2328 88.9669 82.3942 89.0924 82.2437C89.1426 82.1684 89.2178 82.1182 89.293 82.0681L95.8413 79.3083C95.9667 79.2581 96.0922 79.2581 96.2176 79.3083C96.3682 79.3584 100.182 80.8387 103.744 84.4515C107.031 87.8134 110.719 93.6842 109.49 102.716C109.465 102.992 109.189 103.168 108.938 103.143C108.662 103.118 108.461 102.842 108.511 102.591C109.44 95.6913 107.608 89.8457 103.067 85.2042C100.081 82.1684 96.8448 80.663 96.0671 80.3369L89.845 82.9462C89.3934 83.6236 87.0602 87.2364 86.0817 92.48C84.6265 100.207 86.6337 107.584 92.0278 114.408C92.2035 114.634 92.1532 114.935 91.9525 115.11C91.8521 115.186 91.7519 115.211 91.6515 115.211H91.6264Z" fill="#0C0C1C"/>
<path d="M103.945 79.6093C103.945 79.6093 105.4 78.4302 104.723 76.0467C103.845 72.9859 99.3288 69.1221 98.3504 67.5415L91.7018 67.968L90.4976 70.1759C91.3004 70.8031 94.0602 78.38 98.0494 80.6129" fill="#5B56A4"/>
<path d="M94.286 68.9715C97.5225 74.5915 99.5798 78.1291 102.315 77.6775C105.049 77.2259 104.648 74.742 102.716 72.3084C100.809 69.8747 98.0494 67.0898 98.0494 67.0898L94.2609 68.9715H94.286Z" fill="#8B8BD1"/>
<path d="M98.0494 81.1148C97.9741 81.1148 97.8988 81.1148 97.7985 81.0646C93.8595 78.932 90.3469 70.9286 90.1964 70.5774C90.0961 70.3265 90.1964 70.0254 90.4473 69.9251C90.6982 69.8247 90.9993 69.9251 91.0996 70.1759C91.1247 70.2512 94.6372 78.2045 98.2751 80.1865C98.526 80.3119 98.6012 80.613 98.4758 80.8639C98.3754 81.0395 98.2249 81.1148 98.0242 81.1148H98.0494Z" fill="#0C0C1C"/>
<path d="M103.945 80.1112C103.795 80.1112 103.644 80.0359 103.544 79.9356C103.368 79.7098 103.393 79.4087 103.619 79.2331C103.669 79.1829 104.823 78.2044 104.221 76.1973C103.669 74.2654 101.436 71.8569 99.8306 70.1006C98.9525 69.1472 98.2501 68.3695 97.8988 67.8176C97.7483 67.5918 97.8236 67.2656 98.0494 67.1151C98.2752 66.9645 98.6013 67.0398 98.7518 67.2656C99.0529 67.7423 99.7554 68.5201 100.558 69.3982C102.34 71.33 104.547 73.7386 105.175 75.8962C105.952 78.5807 104.296 79.9356 104.246 79.9857C104.146 80.061 104.046 80.0861 103.92 80.0861L103.945 80.1112Z" fill="#0C0C1C"/>
<path d="M98.3503 67.5415C98.3503 67.5415 97.9239 66.6383 97.9239 66.3372C97.8988 65.133 97.7733 63.5775 97.2966 63.4269C96.8199 63.2764 95.9668 64.2799 95.44 65.6598C95.1389 66.4376 96.1174 68.2691 96.1174 68.2691" fill="#8B8BD1"/>
<path d="M97.924 66.3372C97.8989 65.133 97.7734 63.5775 97.2967 63.4269C96.795 63.2764 95.9669 64.2799 95.4401 65.6598C96.2429 66.4376 97.2967 66.4376 97.924 66.3372Z" fill="#232355"/>
<path d="M96.1174 68.7709C95.9418 68.7709 95.7663 68.6705 95.6659 68.4948C95.4903 68.1436 94.6121 66.4124 94.9633 65.4591C95.5404 63.9788 96.5188 62.624 97.4471 62.9251C97.9238 63.0756 98.3504 63.5774 98.4006 66.3121C98.4006 66.4376 98.6013 66.9143 98.7769 67.3157C98.9024 67.5666 98.7769 67.8676 98.526 67.9931C98.2751 68.1185 97.974 67.9931 97.8486 67.7422C97.6729 67.3658 97.3719 66.6884 97.3719 66.3372C97.3468 64.7315 97.1711 64.1294 97.0708 63.9287C96.8199 64.0792 96.2931 64.6813 95.8666 65.8103C95.7411 66.1616 96.0924 67.2153 96.5189 68.0182C96.6443 68.2691 96.5439 68.5701 96.3181 68.6956C96.2428 68.7457 96.1676 68.7457 96.0923 68.7457L96.1174 68.7709Z" fill="#0C0C1C"/>
<path d="M92.8809 69.4734C92.605 68.9967 92.2537 68.2942 92.2286 67.8677C92.2286 67.2154 93.483 62.2728 94.7124 62.323C95.5905 62.3481 96.3934 66.4878 96.7446 68.796" fill="#8B8BD1"/>
<path d="M94.7375 62.323C93.9095 62.2979 93.0816 64.4556 92.63 66.0864C93.2321 66.3874 94.7375 66.9645 96.2679 65.9359C95.8665 64.0793 95.3396 62.3231 94.7626 62.298L94.7375 62.323Z" fill="#232355"/>
<path d="M92.2538 68.3694C91.9778 68.3694 91.752 68.1436 91.752 67.8927C91.752 67.2404 92.6803 63.4018 93.8595 62.2477C94.1354 61.9717 94.4616 61.8211 94.7627 61.8462C95.2143 61.8462 96.0924 61.8964 97.121 67.692C97.1712 67.9679 96.9956 68.2188 96.7196 68.269C96.4436 68.3192 96.1928 68.1436 96.1426 67.8676C95.4401 63.8533 94.863 63.0003 94.7125 62.8498C94.5368 62.9501 94.0602 63.4519 93.4831 65.1078C93.0064 66.4375 92.7556 67.6669 92.7556 67.8676C92.7556 68.1436 92.5298 68.3694 92.2538 68.3694Z" fill="#0C0C1C"/>
<path d="M90.648 70.3765C90.4473 69.8747 90.2215 69.2976 90.1211 68.7959C89.8953 67.7421 91.5511 63.7279 92.078 63.8032C92.5798 63.8784 93.5834 66.588 94.2357 69.2475" fill="#5B56A4"/>
<path d="M93.6588 66.8641C93.0818 65.133 92.4293 63.8534 92.053 63.7782C91.7268 63.728 90.9742 65.2835 90.4976 66.7136C91.6266 67.3408 93.0316 67.0397 93.6588 66.8641Z" fill="#232355"/>
<path d="M90.6481 70.8784C90.4474 70.8784 90.2717 70.753 90.1964 70.5774C89.9204 69.9251 89.7449 69.348 89.6445 68.8964C89.3936 67.7674 90.7484 64.3804 91.5011 63.6026C91.7018 63.3768 91.9276 63.2764 92.1534 63.3266C93.433 63.5273 94.7376 68.6706 94.7878 68.8964C94.863 69.1724 94.6874 69.4484 94.4114 69.4985C94.1355 69.5738 93.8594 69.3982 93.8092 69.1222C93.2071 66.7388 92.4544 65.0578 92.0781 64.4807C91.501 65.3087 90.4724 68.0434 90.623 68.6957C90.6982 69.072 90.8739 69.5989 91.1248 70.2011C91.2251 70.4519 91.1247 70.753 90.8488 70.8533C90.7735 70.8784 90.7234 70.9036 90.6481 70.9036V70.8784Z" fill="#0C0C1C"/>
<path d="M95.8916 81.7169C95.8916 81.7169 97.3217 80.5126 96.5941 78.1291C95.6407 75.0934 91.0494 71.3301 90.0458 69.7745L83.4223 70.3515L82.2432 72.5845C85.6302 75.7457 86.3829 81.9176 89.0173 84.5018" fill="#5B56A4"/>
<path d="M95.6908 76.3227C94.0098 73.7386 90.8486 71.029 90.0458 69.7745L84.3757 71.5558C87.8631 76.1471 89.5691 82.9713 94.9883 80.9642C95.741 80.6882 97.4972 79.0825 95.7159 76.3227H95.6908Z" fill="#8B8BD1"/>
<path d="M88.9922 85.0034C88.8667 85.0034 88.7412 84.9532 88.6659 84.878C87.5369 83.8493 86.7843 82.0931 85.9312 80.086C84.9528 77.7778 83.8238 75.1685 81.8669 72.9105C81.6913 72.7098 81.7163 72.3836 81.917 72.208C82.1177 72.0324 82.4439 72.0575 82.6196 72.2582C84.6769 74.6416 85.8309 77.3262 86.8345 79.6846C87.6624 81.5913 88.3649 83.2472 89.3434 84.1253C89.5441 84.3009 89.5692 84.6271 89.3685 84.8278C89.2681 84.9282 89.1427 85.0034 88.9922 85.0034Z" fill="#0C0C1C"/>
<path d="M95.8917 82.2185C95.7411 82.2185 95.6157 82.1684 95.5153 82.0429C95.3397 81.8422 95.3647 81.516 95.5654 81.3404C95.6156 81.2902 96.7447 80.2867 96.1174 78.2796C95.5153 76.3477 93.2573 73.9894 91.6014 72.2833C90.6982 71.3299 89.9958 70.6023 89.6194 70.0503C89.4689 69.8245 89.5442 69.4984 89.77 69.3478C89.9958 69.1973 90.3219 69.2726 90.4724 69.4984C90.7735 69.9751 91.501 70.7278 92.329 71.5808C94.1354 73.4625 96.4185 75.8208 97.0959 77.9785C97.9238 80.6379 96.3182 82.0429 96.2429 82.0931C96.1425 82.1683 96.0422 82.2185 95.9168 82.2185H95.8917Z" fill="#0C0C1C"/>
<path d="M86.132 71.2797C85.9062 70.803 85.6553 70.2008 85.5298 69.699C85.2789 68.6453 87.0352 64.5809 87.562 64.6311C88.114 64.6813 89.2681 67.0898 89.9957 69.7492" fill="#8B8BD1"/>
<path d="M89.3433 67.6669C88.691 65.9608 87.9885 64.6813 87.5871 64.6562C87.2359 64.6311 86.433 66.2117 85.9312 67.6418C87.1355 68.2189 88.6409 67.8676 89.3433 67.6669Z" fill="#232355"/>
<path d="M86.132 71.7816C85.9313 71.7816 85.7556 71.6812 85.6803 71.4805C85.3793 70.8282 85.1786 70.2512 85.0531 69.8247C84.7771 68.6706 86.2072 65.3087 86.9097 64.5058C86.9849 64.4054 87.261 64.1043 87.6122 64.1545C88.9671 64.3051 90.4724 69.5738 90.4724 69.6239C90.5476 69.8999 90.3971 70.1759 90.1211 70.2512C89.8452 70.3264 89.5692 70.1759 89.4939 69.8999C88.8165 67.4663 87.9634 65.7853 87.5369 65.2585C86.9599 66.0362 85.8309 68.9215 85.9815 69.5738C86.0818 69.9501 86.2574 70.477 86.5333 71.054C86.6588 71.3049 86.5333 71.6059 86.2825 71.7314C86.2072 71.7565 86.132 71.7816 86.0818 71.7816H86.132Z" fill="#0C0C1C"/>
<path d="M83.8489 72.0575C83.8489 72.0575 82.7952 70.6777 82.745 70.0254C82.6697 69.373 83.5728 64.3552 84.8022 64.305C86.0316 64.2549 87.6623 72.0826 87.6623 72.0826" fill="#8B8BD1"/>
<path d="M84.8023 64.3301C83.9743 64.3552 83.3221 66.5631 82.9708 68.244C83.5981 68.4949 85.1285 68.9465 86.5836 67.8426C86.0317 66.0111 85.3793 64.305 84.8023 64.3301Z" fill="#232355"/>
<path d="M83.3722 71.882C83.1966 71.882 83.046 71.8068 82.9456 71.6562C82.494 70.9788 82.2682 70.4519 82.2181 70.0756C82.1428 69.4233 82.795 65.5345 83.899 64.28C84.1749 63.979 84.4509 63.8034 84.7771 63.8034C85.2287 63.8034 86.1068 63.7531 87.562 69.4734C87.6372 69.7494 87.4616 70.0254 87.2108 70.0756C86.9348 70.1509 86.6588 69.9752 86.6086 69.7243C85.6051 65.7603 84.9527 64.9825 84.8022 64.832C84.6517 64.9323 84.2001 65.4843 83.7485 67.1653C83.3722 68.5452 83.2217 69.7745 83.2467 69.9752C83.2467 70.0254 83.2968 70.3265 83.7986 71.1042C83.9492 71.33 83.8739 71.6562 83.6481 71.8067C83.5728 71.8569 83.4725 71.882 83.3722 71.882Z" fill="#0C0C1C"/>
<path d="M84.9025 72.3335C84.9025 72.3335 83.7987 70.7027 83.7485 70.4016C83.5729 69.1973 83.2466 67.6669 82.7699 67.5916C82.2932 67.5163 81.5657 68.5952 81.2145 70.0503C81.0138 70.8532 81.9923 72.208 81.9923 72.208" fill="#5B56A4"/>
<path d="M83.7485 70.4268C83.5729 69.2225 83.2466 67.6921 82.7699 67.6168C82.2681 67.5165 81.5657 68.6204 81.2145 70.0755C82.1177 70.7279 83.1464 70.6024 83.7485 70.4268Z" fill="#232355"/>
<path d="M82.218 73.0611C82.0675 73.0611 81.917 72.9859 81.8166 72.8604C81.5908 72.5593 80.4869 70.9286 80.7378 69.9501C81.1142 68.4197 81.917 66.9394 82.8704 67.115C83.3471 67.1903 83.8488 67.6419 84.2753 70.3515C84.3004 70.477 84.5513 70.9035 84.8022 71.3049C84.9527 71.5307 84.8774 71.8569 84.6516 72.0074C84.4258 72.1579 84.0997 72.0827 83.9492 71.8568C83.7234 71.5056 83.347 70.8784 83.2968 70.5272C83.0459 68.9466 82.7951 68.3695 82.6947 68.1939C82.4689 68.3695 82.0174 69.0469 81.7414 70.2261C81.6661 70.5773 82.1427 71.606 82.6696 72.3336C82.8201 72.5594 82.77 72.8605 82.5442 73.0361C82.4438 73.1113 82.3435 73.1364 82.2432 73.1364L82.218 73.0611Z" fill="#0C0C1C"/>
<path d="M91.7771 185.912C91.7771 185.912 93.6085 153.999 113.053 138.368L122.812 154.701C107.282 164.837 101.06 190.026 101.06 190.026C94.4365 192.209 91.8021 185.937 91.8021 185.937L91.7771 185.912Z" fill="#DDDCFC"/>
<path d="M111.924 139.296C93.5333 155.228 91.7771 185.912 91.7771 185.912C91.7771 185.912 92.9061 188.546 95.4902 189.825C95.5655 187.392 96.7698 162.529 111.924 139.296Z" fill="#9597CF"/>
<path d="M101.863 180.041C101.386 180.417 98.5761 185.259 98.5761 185.259C98.0493 183.528 98.5761 177.457 98.5761 177.457C96.9202 179.062 93.8845 183.378 93.8845 183.378C93.5082 182.6 92.2789 181.019 92.2789 181.019C91.9778 182.951 91.7269 185.485 91.7269 185.485C92.9562 191.632 101.085 189.7 101.085 189.7L101.436 188.295C101.436 188.295 102.164 189.148 103.318 189.474C101.838 185.661 101.863 180.066 101.863 180.066V180.041Z" fill="#57539F"/>
<path d="M137.891 178.034C137.765 178.034 137.665 177.983 137.565 177.908C135.281 175.976 135.984 172.188 136.009 172.037C136.059 171.761 136.335 171.586 136.586 171.636C136.862 171.686 137.038 171.962 136.987 172.213C136.987 172.238 136.36 175.6 138.192 177.13C138.392 177.306 138.443 177.632 138.242 177.833C138.142 177.958 137.991 178.008 137.866 178.008L137.891 178.034Z" fill="#191935"/>
<path d="M91.777 186.413C91.777 186.413 91.777 186.413 91.7519 186.413C91.4759 186.413 91.2752 186.162 91.2752 185.886C91.2752 185.811 91.777 177.732 94.6371 167.873C97.2966 158.74 102.59 146.145 112.726 137.991C112.952 137.816 113.253 137.841 113.429 138.067C113.604 138.293 113.579 138.594 113.354 138.769C107.884 143.185 100.357 151.866 95.6156 168.148C92.7805 177.908 92.2788 185.886 92.2788 185.962C92.2788 186.238 92.053 186.438 91.777 186.438V186.413Z" fill="#191935"/>
<path d="M96.2679 192.811C96.1174 193.714 95.465 196.65 95.465 197.227C95.5152 198.832 96.5439 200.589 97.2464 200.664C97.9489 200.739 98.551 199.56 98.9274 197.979C98.9274 197.979 99.3539 196.424 99.6549 194.166" fill="#DDDCFC"/>
<path d="M97.3215 201.165C97.2714 201.165 97.2463 201.165 97.1961 201.165C96.0922 201.065 95.0385 198.907 94.9632 197.252C94.9632 196.85 95.1639 195.796 95.465 194.241C95.5904 193.639 95.7159 193.037 95.7661 192.736C95.8163 192.46 96.0671 192.284 96.3431 192.309C96.6191 192.359 96.7947 192.61 96.7697 192.886C96.7195 193.212 96.594 193.789 96.4685 194.442C96.2678 195.42 95.9668 196.9 95.9919 197.226C96.042 198.707 96.9704 200.112 97.2965 200.187C97.5725 200.187 97.974 199.786 98.4256 197.879C98.4256 197.854 98.852 196.323 99.128 194.115C99.1531 193.839 99.4291 193.639 99.68 193.689C99.956 193.714 100.157 193.965 100.106 194.241C99.8054 196.524 99.3789 198.054 99.3789 198.13C99.128 199.183 98.6514 201.191 97.2965 201.191L97.3215 201.165Z" fill="#7481BA"/>
<path d="M98.9274 197.979C98.5009 199.259 98.0994 200.739 97.2464 200.664C96.5439 200.614 95.5403 198.832 95.465 197.227C96.9955 198.431 98.9023 197.979 98.9023 197.979H98.9274Z" fill="#3F3E77"/>
<path d="M97.3969 201.166C97.3216 201.166 97.2213 201.166 97.146 201.166C96.1424 200.965 95.0385 199.008 94.9632 197.252C94.9632 196.976 95.1639 196.75 95.4399 196.725C95.7158 196.725 95.9417 196.926 95.9668 197.202C96.0169 198.682 96.9954 200.087 97.3215 200.162C97.6477 200.212 98.0994 199.535 98.4004 197.879C98.4506 197.603 98.7265 197.427 98.9774 197.478C99.2534 197.528 99.4291 197.804 99.3789 198.055C98.9775 200.112 98.3001 201.166 97.3718 201.166H97.3969Z" fill="#191935"/>
<path d="M90.1712 188.947C91.0995 187.919 91.0494 186.714 91.777 185.485C91.777 185.485 93.0816 185.611 93.8844 185.209C93.8844 185.209 94.7876 186.413 94.7374 187.643C94.7374 187.643 95.9919 186.388 96.7194 184.732C96.7194 184.732 97.5223 186.815 97.723 188.496C97.723 188.496 98.9273 188.094 99.6549 186.689C99.6549 186.689 100.056 188.32 99.6549 189.951L100.809 190.026C101.261 193.589 96.9954 197.126 95.0887 197.904C95.0887 197.904 89.6694 194.116 90.1712 188.972V188.947Z" fill="#DDDCFC"/>
<path d="M99.6298 194.944C99.5796 194.944 99.5294 194.944 99.4793 194.944C99.2033 194.868 99.0528 194.592 99.1531 194.316C99.2284 194.091 99.3538 193.89 99.5044 193.639C99.9309 192.962 100.558 191.933 100.533 190.051C100.533 189.775 100.734 189.549 101.035 189.549C101.311 189.549 101.537 189.775 101.537 190.051C101.587 192.234 100.834 193.463 100.357 194.191C100.257 194.367 100.132 194.542 100.106 194.643C100.031 194.868 99.8305 194.994 99.6298 194.994V194.944Z" fill="#7481BA"/>
<path d="M90.1712 189.449C90.0458 189.449 89.9204 189.399 89.82 189.299C89.6193 189.098 89.6193 188.797 89.82 188.596C90.3469 188.069 90.4472 187.643 90.5978 187.066C90.7232 186.539 90.8738 185.962 91.3505 185.234C91.501 185.008 91.802 184.933 92.0529 185.084C92.2787 185.234 92.354 185.535 92.2035 185.786C91.8271 186.388 91.7017 186.865 91.5762 187.342C91.4257 187.969 91.2501 188.596 90.5226 189.324C90.4222 189.424 90.2967 189.474 90.1712 189.474V189.449Z" fill="#7481BA"/>
<path d="M90.9239 193.514C89.5942 194.893 88.1641 196.424 87.3613 195.997C86.4079 195.496 86.9097 192.886 90.1462 188.947" fill="#DDDCFC"/>
<path d="M87.6624 196.574C87.4868 196.574 87.3113 196.524 87.1356 196.449C86.9098 196.324 86.5837 196.048 86.4833 195.496C86.2073 194.065 87.4367 191.481 89.77 188.621C89.9456 188.395 90.2717 188.37 90.4724 188.546C90.6982 188.722 90.7233 189.048 90.5476 189.248C87.9886 192.359 87.2861 194.442 87.4617 195.295C87.4868 195.42 87.537 195.521 87.6123 195.546C88.0639 195.772 89.6696 194.091 90.4473 193.263L91.1749 193.965C89.8953 195.295 88.6911 196.574 87.6624 196.574Z" fill="#7481BA"/>
<path d="M87.3612 195.997C86.7089 195.646 86.7591 194.015 88.0136 191.933C88.0888 194.116 89.5439 194.919 89.5439 194.919C88.6909 195.721 87.8881 196.273 87.3863 195.997H87.3612Z" fill="#3F3E77"/>
<path d="M87.6623 196.574C87.4867 196.574 87.3112 196.524 87.1356 196.449C86.9349 196.349 86.6839 196.123 86.5333 195.646C86.2824 194.718 86.6588 193.238 87.5871 191.682C87.7377 191.456 88.0388 191.356 88.2646 191.506C88.5155 191.657 88.5907 191.958 88.4401 192.184C87.5118 193.739 87.3613 194.868 87.4868 195.37C87.5119 195.47 87.562 195.546 87.5871 195.546C87.6122 195.546 87.9634 195.696 89.1677 194.542C89.3684 194.341 89.6946 194.367 89.8702 194.542C90.071 194.743 90.0459 195.069 89.8702 195.245C89.1678 195.897 88.3899 196.549 87.6623 196.549V196.574Z" fill="#191935"/>
<path d="M93.3324 195.746C91.1747 197.302 87.863 199.133 87.035 198.18C86.3576 197.427 88.1891 194.994 91.0493 192.334" fill="#DDDCFC"/>
<path d="M87.7376 198.933C87.286 198.933 86.9097 198.807 86.6337 198.506C86.0316 197.804 86.2322 196.123 90.6729 191.958C90.8736 191.757 91.1999 191.782 91.3755 191.983C91.5762 192.184 91.5511 192.51 91.3504 192.685C87.8379 195.972 87.1856 197.628 87.3613 197.829C87.7125 198.23 90.0458 197.477 93.0063 195.32C93.2321 195.169 93.5331 195.219 93.7087 195.42C93.8593 195.646 93.8091 195.947 93.6084 196.123C92.8557 196.675 89.6694 198.908 87.7376 198.908V198.933Z" fill="#7481BA"/>
<path d="M87.0101 198.18C86.5084 197.628 87.3865 196.173 89.0173 194.366C88.942 196.047 90.5226 197.503 90.5226 197.503C88.9922 198.305 87.5369 198.757 87.0351 198.18H87.0101Z" fill="#3F3E77"/>
<path d="M87.7627 198.933C87.286 198.933 86.9096 198.782 86.6587 198.506C85.9813 197.729 86.6336 196.273 88.6658 194.015C88.8415 193.815 89.1677 193.79 89.3684 193.99C89.5691 194.166 89.5942 194.492 89.3935 194.693C87.3864 196.901 87.3362 197.754 87.3864 197.829C87.5369 198.005 88.3398 198.055 90.2716 197.051C90.5225 196.926 90.8235 197.026 90.949 197.252C91.0744 197.503 90.9741 197.804 90.7483 197.929C89.4688 198.607 88.4903 198.933 87.7376 198.933H87.7627Z" fill="#191935"/>
<path d="M92.9061 194.893C90.7986 196.951 88.0638 198.305 88.2896 199.033C88.5154 199.71 91.9024 200.413 95.0636 197.904C95.0636 197.904 96.6444 197.126 97.1712 196.549" fill="#DDDCFC"/>
<path d="M90.3218 200.162C89.7197 200.162 89.2179 200.087 88.8667 199.961C88.2896 199.786 87.9384 199.51 87.838 199.158C87.6122 198.406 88.4653 197.779 89.8702 196.725C90.7233 196.098 91.7017 195.37 92.5798 194.517C92.7805 194.316 93.1068 194.316 93.2824 194.517C93.4831 194.718 93.4831 195.044 93.2824 195.219C92.3541 196.123 91.3254 196.875 90.4724 197.503C89.8451 197.979 89.0423 198.556 88.8416 198.857C89.4186 199.234 92.1032 199.585 94.7877 197.452C94.8128 197.452 94.8379 197.402 94.8881 197.402C95.3146 197.202 96.4686 196.574 96.8449 196.148C97.0457 195.947 97.3468 195.947 97.5475 196.148C97.7482 196.348 97.7482 196.65 97.5475 196.85C96.9956 197.427 95.6407 198.13 95.3396 198.28C93.5081 199.71 91.6766 200.137 90.3218 200.137V200.162Z" fill="#7481BA"/>
<path d="M88.2896 199.033C88.139 198.581 89.1426 197.904 90.4221 196.951C90.2214 198.381 91.3003 199.61 91.3003 199.61C89.6695 199.861 88.4401 199.46 88.3147 199.058L88.2896 199.033Z" fill="#3F3E77"/>
<path d="M90.2967 200.162C89.0171 200.162 87.9885 199.786 87.8129 199.184C87.5871 198.431 88.4401 197.804 89.8451 196.75L90.1211 196.549C90.3469 196.374 90.648 196.424 90.8236 196.65C90.9992 196.875 90.949 197.176 90.7232 197.352L90.4472 197.553C89.82 198.029 89.0423 198.607 88.8165 198.882C89.0924 199.058 89.9706 199.284 91.1999 199.083C91.4759 199.033 91.7269 199.234 91.777 199.51C91.8272 199.786 91.6265 200.037 91.3505 200.087C90.9741 200.137 90.6228 200.162 90.2967 200.162Z" fill="#191935"/>
<path d="M102.415 185.56C102.365 185.56 102.314 185.56 102.264 185.56C101.988 185.485 101.863 185.209 101.938 184.933C103.519 179.865 109.665 162.679 122.536 154.274C122.762 154.124 123.088 154.199 123.239 154.425C123.389 154.651 123.314 154.977 123.088 155.127C110.493 163.356 104.472 180.266 102.917 185.259C102.841 185.485 102.641 185.61 102.44 185.61L102.415 185.56Z" fill="#7481BA"/>
<path d="M101.11 190.202C101.06 190.202 101.035 190.202 100.985 190.202C100.709 190.126 100.558 189.876 100.608 189.6L100.96 188.195C101.01 188.019 101.135 187.868 101.336 187.818C101.511 187.768 101.712 187.818 101.838 187.969C101.838 187.969 102.063 188.245 102.465 188.521C102.189 187.567 101.963 186.489 101.762 185.309C101.712 185.033 101.913 184.783 102.189 184.732C102.465 184.682 102.716 184.883 102.766 185.159C103.017 186.79 103.368 188.195 103.795 189.324C103.87 189.499 103.82 189.7 103.694 189.85C103.569 190.001 103.368 190.051 103.193 190.001C102.59 189.825 102.114 189.524 101.762 189.273L101.612 189.876C101.562 190.101 101.361 190.252 101.135 190.252L101.11 190.202Z" fill="#191935"/>
<path d="M100.433 155.479C95.3898 159.543 94.6622 164.21 94.6622 164.21C94.6622 164.21 97.2213 161.726 99.5295 160.471" fill="#9597CF"/>
<path d="M94.6623 164.711C94.587 164.711 94.5116 164.711 94.4364 164.661C94.2357 164.561 94.1354 164.36 94.1605 164.134C94.1856 163.934 94.9884 159.217 100.132 155.077C100.357 154.902 100.658 154.927 100.834 155.152C101.01 155.378 100.985 155.679 100.759 155.855C98.25 157.887 96.8701 160.07 96.1425 161.525C95.9418 161.926 95.7913 162.303 95.6658 162.629C96.6443 161.801 97.9991 160.722 99.3037 160.02C99.5546 159.894 99.8556 159.97 99.9811 160.22C100.107 160.471 100.031 160.772 99.7804 160.898C97.5726 162.102 95.0386 164.511 95.0135 164.536C94.9131 164.636 94.7877 164.686 94.6623 164.686V164.711Z" fill="#191935"/>
<path d="M145.141 141.102C148.754 141.78 154.675 141.102 154.675 141.102C152.568 142.884 150.962 143.636 150.962 143.636" fill="#DDDCFC"/>
<path d="M150.962 144.164C150.786 144.164 150.586 144.063 150.51 143.888C150.385 143.637 150.51 143.336 150.736 143.21C150.736 143.21 151.664 142.759 153.019 141.78C150.962 141.931 147.5 142.081 145.041 141.604C144.765 141.554 144.589 141.303 144.64 141.027C144.69 140.751 144.941 140.576 145.217 140.626C148.704 141.278 154.55 140.626 154.6 140.626C154.826 140.626 155.026 140.726 155.127 140.927C155.202 141.128 155.152 141.379 154.976 141.504C152.844 143.31 151.238 144.088 151.163 144.113C151.087 144.138 151.012 144.164 150.937 144.164H150.962Z" fill="#7481BA"/>
<path d="M148.679 143.185C155.654 142.633 159.091 146.221 159.091 146.221C159.091 146.221 155.98 145.493 153.446 145.945" fill="#DDDCFC"/>
<path d="M159.091 146.723C159.066 146.723 159.016 146.723 158.965 146.723C158.94 146.723 155.93 146.045 153.521 146.447C153.245 146.497 152.994 146.321 152.944 146.045C152.894 145.769 153.07 145.518 153.346 145.468C154.625 145.242 156.005 145.292 157.109 145.418C155.503 144.49 152.718 143.386 148.704 143.712C148.428 143.712 148.177 143.536 148.177 143.26C148.177 142.984 148.353 142.733 148.629 142.733C155.754 142.181 159.292 145.769 159.442 145.92C159.593 146.07 159.618 146.321 159.517 146.522C159.417 146.672 159.266 146.773 159.091 146.773V146.723Z" fill="#7481BA"/>
<path d="M85.3543 97.5731C83.3973 93.0069 84.5765 89.5697 84.5765 89.5697C84.5765 89.5697 85.028 92.0033 86.157 93.6592" fill="#333476"/>
<path d="M85.3543 98.0748C85.1536 98.0748 84.9779 97.9494 84.9026 97.7738C82.8955 93.1072 84.0748 89.5697 84.125 89.4191C84.2002 89.1933 84.4009 89.0679 84.6267 89.093C84.8525 89.093 85.0532 89.2686 85.0783 89.4944C85.0783 89.4944 85.5299 91.8277 86.5836 93.4083C86.7342 93.6341 86.684 93.9603 86.4331 94.1108C86.2073 94.2613 85.8812 94.2111 85.7306 93.9603C85.3041 93.333 84.978 92.6305 84.7271 91.9531C84.6769 93.3079 84.8775 95.2147 85.8058 97.3724C85.9062 97.6233 85.8058 97.9243 85.5298 98.0247C85.4546 98.0498 85.4044 98.0748 85.3292 98.0748H85.3543Z" fill="#0C0C1C"/>
<path d="M86.4833 102.942C83.3973 97.9995 82.7951 95.1895 82.7951 95.1895C82.7951 95.1895 84.9528 95.7414 86.157 96.8454" fill="#333476"/>
<path d="M86.4832 103.444C86.3076 103.444 86.157 103.368 86.0566 103.218C82.9707 98.2503 82.3184 95.4153 82.2933 95.2899C82.2682 95.1142 82.2933 94.9386 82.4439 94.8131C82.5693 94.6877 82.7449 94.6375 82.9205 94.6877C83.0209 94.6877 85.2288 95.2898 86.5083 96.469C86.709 96.6697 86.734 96.9708 86.5333 97.1715C86.3326 97.3722 86.0316 97.3973 85.8309 97.1966C85.2036 96.6195 84.2503 96.193 83.5729 95.9421C83.9743 97.1213 84.9276 99.4295 86.9348 102.666C87.0853 102.892 87.01 103.218 86.7842 103.369C86.7089 103.419 86.6087 103.444 86.5083 103.444H86.4832Z" fill="#0C0C1C"/>
<path d="M137.891 232C173.931 232 203.147 227.484 203.147 221.914C203.147 216.344 173.931 211.828 137.891 211.828C101.85 211.828 72.6341 216.344 72.6341 221.914C72.6341 227.484 101.85 232 137.891 232Z" fill="#9FD6FF"/>
</svg>
