<svg width="256" height="256" viewBox="0 0 256 256" fill="none" xmlns="http://www.w3.org/2000/svg">
<path d="M235.838 169.459C243.891 180.196 250.285 191.841 255.22 208.657C216.417 214.183 180.969 212.565 152.271 208.697C152.784 204.473 157.008 156.591 131.311 133.735L179.271 111.511C198.022 124.854 217.719 145.301 235.838 169.42V169.459Z" fill="#DDDCFC"/>
<path d="M152.311 208.736C152.627 206.052 154.087 185.92 148.679 165.591C149.034 165.157 149.271 164.92 149.271 164.92C170.035 179.091 187.482 211.696 187.6 211.894C175.008 211.341 163.166 210.196 152.35 208.736H152.311Z" fill="#8B8BD1"/>
<path d="M152.074 209.486H151.995C151.561 209.447 151.245 209.052 151.284 208.618C151.798 204.275 152.784 192.631 150.89 178.854C148.284 159.749 141.416 144.749 130.442 134.327C130.126 134.012 130.126 133.538 130.442 133.222C130.758 132.906 131.232 132.906 131.547 133.222C142.758 143.92 149.824 159.236 152.469 178.696C154.363 192.67 153.376 204.473 152.863 208.894C152.824 209.289 152.469 209.604 152.074 209.604V209.486Z" fill="#191935"/>
<path d="M255.22 209.447C254.864 209.447 254.548 209.21 254.47 208.894C248.943 190.025 236.627 169.381 218.864 149.17C204.259 132.512 188.588 119.13 178.798 112.183C178.443 111.946 178.364 111.433 178.601 111.077C178.837 110.722 179.351 110.643 179.706 110.88C189.574 117.906 205.325 131.367 220.048 148.104C238.206 168.788 250.285 189.078 255.97 208.42C256.088 208.854 255.851 209.289 255.417 209.407C255.338 209.407 255.259 209.407 255.18 209.407L255.22 209.447Z" fill="#191935"/>
<path d="M168.258 128.288C186.85 139.459 199.956 143.722 225.811 152.17C233.035 157.222 253.483 167.17 253.483 167.17C236.43 163.578 216.14 169.301 186.693 157.657C182.114 155.841 181.521 153.985 176.035 151.183C161.942 143.999 140.153 140.604 140.153 140.604C138.574 138.63 136.916 136.775 135.1 135.038L162.1 122.051L168.258 128.248V128.288Z" fill="#49488A"/>
<path d="M253.522 167.92C253.482 167.92 253.404 167.92 253.364 167.92C247.917 166.696 241.482 166.538 234.022 166.341C220.64 166.025 204.022 165.591 186.061 158.209C185.666 158.051 185.469 157.578 185.627 157.183C185.785 156.788 186.258 156.591 186.653 156.749C204.337 164.012 220.838 164.446 234.061 164.762C238.996 164.88 243.535 164.999 247.64 165.433C240.653 162.275 229.245 156.749 225.338 152.722C225.022 152.406 225.022 151.893 225.338 151.617C225.653 151.301 226.166 151.301 226.443 151.617C231.851 157.183 253.64 166.341 253.877 166.42C254.272 166.578 254.43 167.012 254.311 167.407C254.193 167.722 253.877 167.959 253.561 167.959L253.522 167.92Z" fill="#191935"/>
<path d="M225.851 152.13C201.495 125.564 179.311 111.511 179.311 111.511L143.903 126.117C221.311 170.644 225.851 152.13 225.851 152.13Z" fill="#8588D1"/>
<path d="M225.851 152.92C225.653 152.92 225.416 152.841 225.259 152.683C200.903 126.472 179.074 112.301 178.877 112.183C178.521 111.946 178.403 111.472 178.64 111.077C178.877 110.722 179.35 110.604 179.745 110.84C179.982 110.998 201.969 125.248 226.443 151.578C226.759 151.893 226.719 152.407 226.403 152.683C226.246 152.841 226.048 152.88 225.851 152.88V152.92Z" fill="#191935"/>
<path opacity="0.2" d="M114.495 89.2878C113.429 88.5772 102.692 88.143 98.6657 89.5641C94.6394 91.0246 95.113 110.091 96.3761 111.354C97.7182 112.696 109.442 113.683 110.547 113.446C111.613 113.209 117.692 91.4193 114.534 89.2483L114.495 89.2878Z" fill="#DEF5FF"/>
<path opacity="0.2" d="M114.495 89.2878C113.429 88.5772 102.692 88.143 98.6657 89.5641C94.6394 91.0246 95.113 110.091 96.3761 111.354C97.7182 112.696 109.442 113.683 110.547 113.446C111.613 113.209 117.692 91.4193 114.534 89.2483L114.495 89.2878Z" fill="#DEF5FF"/>
<path d="M109.995 114.314C107.152 114.314 97.3235 113.485 95.8234 111.985C94.4813 110.643 94.2841 99.393 95.5472 93.7877C96.1788 90.9455 97.1261 89.3666 98.3892 88.8929C102.455 87.4324 113.468 87.7087 114.929 88.6955C115.481 89.0903 117.218 90.235 115.284 100.222C114.732 103.182 113.903 106.538 113.034 109.38C111.613 114.077 111.1 114.196 110.666 114.275C110.547 114.275 110.311 114.275 109.955 114.275L109.995 114.314ZM96.9288 110.84C98.0736 111.827 108.139 112.814 110.113 112.735C111.218 110.84 115.245 96.4719 114.495 91.2218C114.376 90.4324 114.179 90.0376 114.021 89.9192C112.995 89.406 102.81 88.8534 98.9025 90.3139C98.6262 90.4323 98.0341 90.8271 97.4814 92.485C95.6656 97.8535 96.1393 109.498 96.9288 110.801V110.84Z" fill="black"/>
<path d="M183.653 111.235C183.653 111.235 172.6 91.0639 158.784 86.8402C144.969 82.6165 135.258 84.7876 119.113 89.2481C64.0468 104.406 16.8754 160.341 3.33582 189.078C0.493693 195.078 2.54623 202.933 17.0332 190.933C97.0865 124.538 129.06 181.183 170.429 133.972C178.285 125.012 183.653 111.235 183.653 111.235Z" fill="#8588D1"/>
<path d="M136.442 154.222C109.481 158.683 79.5601 145.538 29.8623 181.025L27.1781 175.065C69.7311 136.656 119.152 153.393 136.442 154.222Z" fill="#49488A"/>
<path d="M12.6911 171.473C23.3097 168.749 31.0071 172.696 36.4151 175.854C36.4151 175.854 22.2439 186.157 16.4412 190.815C1.75684 202.578 -1.24307 194.723 1.55959 188.723C3.84908 183.867 8.7439 178.223 12.6518 171.473H12.6911Z" fill="#49488A"/>
<path d="M126.297 87.4717C57.4942 102.353 9.4542 174.591 2.62519 187.854C2.62519 187.854 0.0594184 194.486 3.25681 196.183C7.44106 182.486 28.9149 149.012 61.0467 124.419C81.3364 108.867 102.771 97.656 126.297 87.4717Z" fill="#DCE5EA"/>
<path d="M3.25683 197.012C3.13841 197.012 2.98055 197.012 2.9016 196.933C-0.887903 194.92 1.79633 187.894 1.91475 187.617C1.91475 187.617 1.91475 187.578 1.91475 187.538C4.91478 181.696 18.4939 160.064 40.6783 137.762C52.8363 125.525 65.5863 115.143 78.4943 106.932C94.1655 96.985 110.192 90.156 126.14 86.7218C126.534 86.6428 126.929 86.8796 127.047 87.2348C127.166 87.5901 126.968 88.0244 126.613 88.1823C99.6129 99.8666 79.5602 111.235 61.5205 125.051C31.1255 148.341 8.58578 181.459 4.0068 196.42C3.92785 196.657 3.77007 196.815 3.53323 196.933C3.45428 196.973 3.33574 197.012 3.21732 197.012H3.25683Z" fill="#DCE5EA"/>
<path d="M3.8885 197.565C2.8227 197.565 1.91472 197.328 1.24366 196.736C-0.848461 194.999 -0.295786 191.091 2.86214 185.13C9.53325 172.499 24.2572 151.933 45.6126 132.117C61.8759 117.038 87.6918 97.2219 118.324 88.3797C136.995 83.0113 150.495 82.4587 160.877 86.7218C173.548 91.8929 183.337 110.011 183.772 110.761C183.969 111.156 183.851 111.63 183.456 111.827C183.061 112.025 182.587 111.906 182.39 111.511C182.39 111.472 179.864 106.854 175.916 101.682C172.285 96.9456 166.64 90.7482 160.285 88.1824C150.258 84.0771 137.074 84.6297 118.758 89.9192C88.4024 98.6824 62.7837 118.341 46.6783 133.301C25.4807 152.959 10.8754 173.367 4.24373 185.881C0.493694 192.986 1.59893 194.999 2.23051 195.552C3.96737 196.973 10.007 195.157 17.7439 188.96C37.0862 173.446 55.0864 163.538 72.8497 158.722C88.3235 154.499 101.468 154.696 113.074 154.854C133.916 155.17 150.377 155.367 170.587 131.801C170.864 131.485 171.377 131.446 171.693 131.722C172.008 131.999 172.048 132.512 171.771 132.827C151.087 156.986 133.442 156.709 113.034 156.433C101.547 156.275 88.5209 156.078 73.2444 160.262C55.718 165.038 37.8757 174.867 18.7308 190.223C13.6781 194.289 7.71748 197.644 3.8885 197.644V197.565Z" fill="#191935"/>
<path d="M129.298 90.3535C128.982 90.3535 128.705 90.1561 128.547 89.8403C127.995 88.4192 126.969 86.7219 126.455 86.5245C125.232 86.1298 118.876 85.9718 118.008 86.4455C117.258 86.8797 115.837 88.6955 115.126 89.7218C114.889 90.0771 114.376 90.1561 114.021 89.9192C113.666 89.6824 113.587 89.1692 113.824 88.8139C114.021 88.4981 115.955 85.8139 117.258 85.0639C118.798 84.1955 125.745 84.6297 126.969 85.0639C128.429 85.577 129.692 88.4193 130.008 89.2877C130.166 89.6824 130.008 90.1561 129.574 90.314C129.495 90.314 129.377 90.3535 129.298 90.3535Z" fill="black"/>
<path d="M171.298 97.064C171.298 97.064 190.719 96.7483 194.035 99.3535C195.061 100.182 196.285 107.919 193.995 112.972C191.548 118.341 185.509 121.025 183.772 120.512C180.851 119.604 176.39 114.669 176.39 114.669" fill="#D2D2FB"/>
<path d="M191.272 101.327C191.232 101.327 191.153 101.327 191.074 101.327C190.995 101.327 184.127 99.7482 172.758 99.5113C172.324 99.5113 171.969 99.1561 171.969 98.7219C171.969 98.2876 172.324 97.9324 172.758 97.9324C184.324 98.1692 191.114 99.7087 191.39 99.7876C191.824 99.8666 192.061 100.301 191.982 100.735C191.903 101.09 191.587 101.327 191.232 101.327H191.272Z" fill="white"/>
<path d="M184.245 121.38C183.969 121.38 183.732 121.38 183.495 121.301C180.416 120.354 175.956 115.42 175.758 115.222C175.482 114.906 175.482 114.393 175.837 114.117C176.153 113.841 176.666 113.841 176.942 114.196C178.127 115.538 181.719 119.13 183.969 119.841C185.232 120.235 190.916 117.867 193.245 112.735C195.416 107.919 194.232 100.814 193.522 100.025C192.298 99.0773 185.351 97.6956 171.298 97.893C170.864 97.893 170.508 97.5377 170.508 97.1035C170.508 96.6693 170.864 96.314 171.298 96.314C173.311 96.314 191.114 96.0772 194.548 98.8009C196.087 100.025 197.074 108.196 194.745 113.367C192.416 118.499 186.969 121.42 184.324 121.42L184.245 121.38Z" fill="#49488A"/>
<path d="M181.995 101.209C189.416 100.577 191.785 106.182 191.785 106.182C189.377 105.551 187.008 105.709 187.008 105.709C188.469 108.827 187.995 112.34 187.995 112.34C187.995 112.34 185.943 110.998 184.798 109.972C184.798 109.972 183.456 111.314 182.035 112.262C182.035 112.262 177.179 106.222 176.114 103.972C176.114 103.972 178.837 101.446 181.995 101.169V101.209Z" fill="#6A6DB8"/>
<path d="M174.337 104.959C174.1 104.959 173.824 104.84 173.666 104.604C173.429 104.248 173.508 103.735 173.864 103.498C174.258 103.222 183.811 96.9852 195.14 101.012C195.535 101.169 195.772 101.604 195.614 102.038C195.456 102.433 195.022 102.669 194.587 102.512C184.008 98.722 174.811 104.762 174.732 104.84C174.614 104.919 174.456 104.959 174.298 104.959H174.337Z" fill="#49488A"/>
<path d="M14.507 184.657C12.6517 187.657 10.2439 188.881 8.46758 190.065C7.48073 190.736 8.38867 192.315 9.88868 191.21C13.0861 188.802 14.507 184.657 14.507 184.657Z" fill="black"/>
<path d="M8.90182 192.394C8.66497 192.394 8.42802 192.354 8.19117 192.236C7.67801 191.999 7.32278 191.486 7.24383 190.933C7.20436 190.341 7.48064 189.789 7.9938 189.433C8.27012 189.275 8.54648 189.078 8.82279 188.881C10.4412 187.815 12.2965 186.631 13.7966 184.223C13.9939 183.868 14.4282 183.749 14.8229 183.907C15.1782 184.065 15.3756 184.499 15.2177 184.894C15.1387 185.091 13.678 189.315 10.3227 191.841C9.84904 192.196 9.33599 192.394 8.86231 192.394H8.90182ZM10.3227 189.828C10.1254 189.947 9.92799 190.104 9.73062 190.223C9.4543 190.42 9.17798 190.578 8.94114 190.736C8.90166 190.736 8.86231 190.815 8.86231 190.815C8.90178 190.815 9.09911 190.815 9.4149 190.618C9.7307 190.381 10.0464 190.104 10.3227 189.828Z" fill="black"/>
<path d="M119.389 156.433C119.034 156.433 118.718 156.196 118.639 155.841C118.521 155.407 118.758 154.972 119.192 154.854C130.126 151.736 146.232 142.578 146.39 142.499C146.784 142.301 147.258 142.42 147.455 142.775C147.653 143.17 147.534 143.643 147.179 143.841C147.021 143.92 130.797 153.157 119.666 156.354C119.587 156.354 119.508 156.354 119.429 156.354L119.389 156.433Z" fill="#191935"/>
<path d="M137.034 81.5509C136.679 81.5509 136.403 81.3141 136.284 80.9983C136.166 80.5641 136.403 80.1299 136.798 80.0114C142.205 78.3535 146.745 78.4325 146.942 78.4325C147.376 78.4325 147.732 78.7877 147.732 79.222C147.732 79.6562 147.376 80.0114 146.942 80.0114C146.508 80.0114 146.942 80.0114 146.824 80.0114C146.113 80.0114 141.969 80.0903 137.271 81.5114C137.192 81.5114 137.113 81.5114 137.034 81.5114V81.5509Z" fill="#191935"/>
<path d="M130.087 105.827C144.574 89.5638 158.548 106.38 158.548 106.38C139.995 111.867 130.087 105.827 130.087 105.827Z" fill="white"/>
<path d="M148.82 107.27C152.259 106.835 154.681 103.59 154.23 100.021C153.78 96.4526 150.626 93.9117 147.187 94.3462C143.748 94.7806 141.326 98.0259 141.777 101.595C142.227 105.163 145.381 107.704 148.82 107.27Z" fill="#191935"/>
<path d="M130.087 105.827C144.574 89.5638 158.548 106.38 158.548 106.38C153.653 77.8794 130.521 93.3533 130.087 105.827Z" fill="#8588D1"/>
<path d="M132.889 102.985C132.653 102.985 132.416 102.867 132.258 102.669C131.982 102.314 132.061 101.84 132.376 101.564C143.468 92.8797 154.798 101.327 154.916 101.406C155.271 101.682 155.311 102.156 155.074 102.511C154.798 102.867 154.324 102.906 153.969 102.669C153.534 102.353 143.468 94.8929 133.363 102.827C133.205 102.946 133.047 102.985 132.889 102.985Z" fill="#191935"/>
<path d="M143.942 110.288C138.455 110.288 134.587 108.906 134.35 108.827C133.955 108.669 133.718 108.235 133.876 107.801C134.034 107.406 134.468 107.169 134.903 107.327C134.982 107.327 143.192 110.209 152.429 107.485C152.863 107.367 153.297 107.604 153.416 107.998C153.534 108.433 153.298 108.867 152.903 108.985C149.705 109.933 146.666 110.248 143.982 110.248L143.942 110.288Z" fill="#191935"/>
<path d="M151.087 102.946C150.534 101.682 146.587 103.103 147.14 104.524C147.732 105.946 151.719 104.367 151.087 102.946Z" fill="white"/>
<path d="M112.324 82.0244C112.126 82.0244 111.929 81.9455 111.771 81.7876C111.731 81.7481 108.494 78.6297 104.784 78.8271C102.85 78.906 101.073 79.8928 99.5338 81.7481C99.2575 82.0639 98.7444 82.1428 98.4286 81.827C98.1128 81.5507 98.0338 81.0375 98.3496 80.7217C100.205 78.5507 102.337 77.3665 104.744 77.2481C109.166 77.0507 112.718 80.5244 112.876 80.6823C113.192 80.9981 113.192 81.4718 112.876 81.7876C112.718 81.9455 112.521 82.0244 112.324 82.0244Z" fill="#191935"/>
<path opacity="0.2" d="M129.297 89.5639C143.074 86.9586 154.837 94.9323 159.613 98.8008C161.074 99.985 161.863 101.801 161.666 103.577C161.074 109.064 159.732 114.748 158.666 118.775C157.719 122.367 154.284 124.775 150.416 124.538C140.429 123.906 132.81 119.683 128.35 116.525C125.587 114.551 124.047 111.275 124.442 107.998C126.06 94.0245 129.297 89.5639 129.297 89.5639Z" fill="#DEF5FF"/>
<path d="M150.969 125.367C150.771 125.367 150.574 125.367 150.377 125.367C140.35 124.735 132.613 120.59 127.876 117.196C124.837 115.025 123.218 111.472 123.653 107.959C125.271 93.9455 128.508 89.327 128.666 89.1297C128.784 88.9718 128.942 88.8533 129.14 88.8139C143.35 86.1296 155.548 94.4982 160.127 98.2482C161.824 99.6298 162.693 101.682 162.456 103.735C161.824 109.34 160.482 115.143 159.416 119.051C158.39 122.88 154.956 125.406 150.969 125.406V125.367ZM129.771 90.2745C129.1 91.3797 126.574 96.3535 125.192 108.117C124.837 111.077 126.218 114.077 128.784 115.893C133.324 119.169 140.784 123.156 150.455 123.788C153.969 123.985 157.008 121.893 157.877 118.617C158.903 114.788 160.245 109.064 160.837 103.538C160.995 101.998 160.364 100.459 159.061 99.4324C154.679 95.8798 143.113 87.906 129.732 90.2745H129.771Z" fill="black"/>
<path d="M246.575 210.552C246.18 210.552 245.864 210.275 245.785 209.881C244.167 199.696 236.825 181.736 236.746 181.538C236.588 181.144 236.746 180.67 237.18 180.512C237.575 180.354 238.048 180.512 238.206 180.946C238.522 181.696 245.706 199.262 247.364 209.644C247.443 210.078 247.127 210.473 246.693 210.552C246.654 210.552 246.614 210.552 246.575 210.552Z" fill="#7481BA"/>
<path d="M187.087 212.683C186.693 212.683 186.377 212.407 186.298 212.012C184.916 201.986 181.048 190.42 176.469 182.565C176.232 182.17 176.39 181.696 176.745 181.499C177.14 181.262 177.614 181.42 177.811 181.775C182.469 189.828 186.416 201.591 187.837 211.815C187.916 212.249 187.6 212.644 187.166 212.723C187.166 212.723 187.087 212.723 187.048 212.723L187.087 212.683Z" fill="#7481BA"/>
<path d="M202.68 59.8399C202.68 59.8399 202.64 59.8399 202.601 59.8399C202.166 59.8005 201.851 59.4057 201.89 58.9715L202.245 55.2609C202.285 54.8267 202.68 54.511 203.114 54.5505C203.548 54.5899 203.864 54.9846 203.824 55.4189L203.469 59.1294C203.43 59.5241 203.074 59.8399 202.68 59.8399Z" fill="black"/>
<path d="M193.995 66.0374C193.64 66.0374 193.285 65.7611 193.206 65.4058C193.127 64.9716 193.403 64.5769 193.837 64.4979L197.508 63.7874C197.943 63.7084 198.337 63.9848 198.416 64.419C198.495 64.8532 198.219 65.2479 197.785 65.3268L194.114 66.0374C194.074 66.0374 193.995 66.0374 193.956 66.0374H193.995Z" fill="black"/>
<path d="M199.6 62.0506C199.403 62.0506 199.206 61.9716 199.087 61.8532L197.232 60.1558C196.916 59.8795 196.877 59.3663 197.193 59.0505C197.469 58.7347 197.982 58.6952 198.298 59.011L200.153 60.7084C200.469 60.9847 200.508 61.4979 200.193 61.8137C200.035 61.9716 199.837 62.09 199.6 62.09V62.0506Z" fill="black"/>
<path d="M206.074 67.182C204.022 69.3926 201.101 69.5109 199.166 67.7346C197.232 65.9978 197.074 63.0372 199.127 60.8267C201.18 58.6161 204.101 58.4977 206.035 60.2741C207.969 62.0109 208.127 64.9715 206.074 67.182Z" fill="#232020"/>
<path d="M202.245 69.7479C200.943 69.7479 199.68 69.2741 198.614 68.3267C197.508 67.3004 196.877 65.9583 196.837 64.4978C196.837 62.9978 197.39 61.5372 198.495 60.3135C200.745 57.8661 204.18 57.5898 206.509 59.7214C208.838 61.853 208.877 65.2872 206.627 67.7346C205.403 69.0768 203.785 69.7873 202.245 69.7873V69.7479ZM202.917 59.8398C201.772 59.8398 200.627 60.353 199.68 61.3793C198.851 62.2872 198.416 63.3925 198.416 64.4583C198.416 65.4846 198.89 66.4715 199.68 67.182C201.338 68.7215 203.785 68.4847 205.443 66.6689C207.101 64.8531 207.101 62.4057 205.443 60.8662C204.693 60.1951 203.785 59.8398 202.877 59.8398H202.917Z" fill="black"/>
<path d="M212.509 64.7742C212.509 64.7742 212.469 64.7742 212.43 64.7742L207.456 64.261C207.022 64.2215 206.706 63.8268 206.745 63.3926C206.785 62.9584 207.18 62.6426 207.614 62.682L212.588 63.1952C213.022 63.2347 213.338 63.6294 213.298 64.0636C213.259 64.4584 212.903 64.7742 212.509 64.7742Z" fill="black"/>
<path d="M203.469 74.6823C203.114 74.6823 202.758 74.4059 202.68 74.0507L201.732 69.1164C201.653 68.6822 201.929 68.2875 202.364 68.2085C202.798 68.1296 203.193 68.4059 203.272 68.8401L204.219 73.7744C204.298 74.2086 204.022 74.6034 203.587 74.6823C203.548 74.6823 203.469 74.6823 203.43 74.6823H203.469Z" fill="black"/>
<path d="M209.43 71.0505C209.232 71.0505 209.035 70.9715 208.917 70.8531L205.561 67.7742C205.245 67.4979 205.206 66.9847 205.522 66.6689C205.798 66.3531 206.311 66.3136 206.627 66.6294L209.982 69.7084C210.298 69.9847 210.338 70.4979 210.022 70.8137C209.864 70.9716 209.667 71.09 209.43 71.09V71.0505Z" fill="black"/>
<path opacity="0.4" d="M201.732 63.1165C204.219 79.143 232.917 47.4453 201.732 63.1165V63.1165Z" fill="#76ECFF"/>
<path opacity="0.4" d="M201.732 63.1165C184.68 92.3667 218.588 65.7217 201.732 63.1165V63.1165Z" fill="#76ECFF"/>
<path opacity="0.4" d="M201.732 63.1163C172.6 55.5768 202.719 24.1555 201.732 63.1163V63.1163Z" fill="#76ECFF"/>
<path opacity="0.4" d="M201.732 63.1164C166.206 79.1428 183.495 39.1557 201.732 63.1164V63.1164Z" fill="#76ECFF"/>
<path d="M88.6392 111.235C81.2575 111.038 74.3101 108.946 69.06 105.432C64.0863 102.077 61.0074 97.6166 60.6126 93.235C59.9416 85.8139 66.7311 79.8533 78.7707 77.327C79.2049 77.248 79.5996 77.5243 79.718 77.9191C79.7969 78.3533 79.5206 78.748 79.1259 78.8664C62.981 82.2612 61.9153 89.9587 62.1916 93.1166C62.8626 100.735 73.2047 109.261 88.6785 109.696C89.1127 109.696 89.4681 110.09 89.4286 110.525C89.4286 110.959 89.0734 111.275 88.6392 111.275V111.235Z" fill="#ACB4D1"/>
<path d="M48.3757 81.9456C48.2968 81.9456 48.1783 81.9456 48.0993 81.9061C47.7046 81.7482 47.5071 81.3141 47.6256 80.8798C47.7045 80.7219 49.2835 76.5772 55.3625 72.314C65.3494 65.2876 79.6785 63.3929 89.9023 63.0376C90.3365 63.0376 90.6918 63.3534 90.7313 63.7876C90.7313 64.2218 90.4155 64.5771 89.9813 64.6166C80.0338 64.9718 66.0995 66.827 56.4284 73.5376C50.6652 77.5245 49.1257 81.393 49.1257 81.4324C49.0073 81.7482 48.6915 81.9456 48.3757 81.9456Z" fill="#ACB4D1"/>
<path d="M38.5861 107.288C38.3493 107.288 38.0729 107.169 37.9545 106.933C37.7966 106.735 34.5203 101.88 33.4545 95.2088C32.4676 89.0114 33.3757 80.0507 43.2442 72.5507C43.5994 72.2743 44.073 72.3533 44.3494 72.7086C44.6257 73.0639 44.5468 73.5375 44.1915 73.8138C36.8099 79.4191 33.6913 86.564 35.0334 94.9719C36.0203 101.288 39.2178 105.985 39.2572 106.025C39.4941 106.38 39.4151 106.893 39.0599 107.13C38.9415 107.209 38.7835 107.288 38.6256 107.288H38.5861Z" fill="#ACB4D1"/>
</svg>
