<svg width="256" height="256" viewBox="0 0 256 256" fill="none" xmlns="http://www.w3.org/2000/svg">
<path d="M228.322 129.249C228.322 129.249 230.474 139.394 239.821 147.972C248.029 131.954 249.29 112.585 236.9 90.6025C216.332 100.164 202.988 111.724 195.056 129.71C207.692 128.695 220.113 124.022 220.113 124.022C220.113 124.022 207.2 133.307 193.119 134.537C190.844 140.716 189.153 147.634 187.923 155.382C198.1 154.09 207.569 149.171 207.569 149.171C207.569 149.171 198.346 157.38 187.278 159.963C186.079 169.432 185.495 180.131 185.495 192.275C195.056 188.709 205.479 183.267 214.917 176.227C210.552 167.526 212.489 154.675 212.489 154.675C212.489 154.675 212.12 164.052 218.422 173.49C226.016 167.311 232.78 160.055 237.73 151.785C226.723 143.453 228.322 129.31 228.322 129.31V129.249Z" fill="#66CCB9"/>
<path opacity="0.3" d="M195.056 129.679C207.692 128.664 220.113 123.991 220.113 123.991C220.113 123.991 207.2 133.276 193.119 134.506C191.859 137.919 190.783 141.516 189.86 145.39C209.414 142.254 234.748 130.109 236.9 90.5718C216.332 100.133 202.988 111.693 195.056 129.679Z" fill="#205651"/>
<path d="M185.495 192.829C185.372 192.829 185.249 192.798 185.156 192.706C185.003 192.583 184.88 192.398 184.88 192.214C184.88 179.762 185.464 169.186 186.663 159.84C186.694 159.594 186.878 159.379 187.124 159.317C193.519 157.811 199.33 154.398 203.019 151.846C199.237 153.353 193.703 155.259 187.985 155.966C187.8 155.966 187.585 155.935 187.462 155.781C187.339 155.628 187.278 155.443 187.309 155.259C188.538 147.388 190.26 140.532 192.535 134.291C192.627 134.076 192.812 133.922 193.058 133.891C202.005 133.123 210.552 128.972 215.471 126.174C210.644 127.65 202.896 129.679 195.087 130.294C194.872 130.294 194.656 130.202 194.534 130.048C194.411 129.894 194.38 129.648 194.472 129.433C198.438 120.456 203.757 112.954 210.798 106.498C217.469 100.349 225.924 94.9683 236.623 89.9877C236.9 89.8647 237.269 89.9877 237.422 90.2337C243.356 100.748 246.461 111.263 246.677 121.44C246.861 130.601 244.74 139.61 240.343 148.187C240.251 148.372 240.097 148.464 239.913 148.526C239.728 148.556 239.544 148.526 239.39 148.372C233.487 142.93 230.413 136.966 228.937 133.184C229.275 137.888 230.997 145.851 238.099 151.2C238.345 151.385 238.406 151.723 238.253 152C233.579 159.809 227.031 167.188 218.791 173.859C218.668 173.982 218.484 174.013 218.299 173.982C218.115 173.982 217.961 173.859 217.869 173.706C214.948 169.309 213.442 164.943 212.642 161.5C212.642 165.835 213.196 171.4 215.409 175.827C215.532 176.104 215.471 176.411 215.225 176.596C206.309 183.267 196.071 188.832 185.648 192.737C185.587 192.737 185.495 192.767 185.433 192.767L185.495 192.829ZM187.8 160.424C186.663 169.371 186.109 179.516 186.079 191.322C195.948 187.541 205.602 182.253 214.118 175.95C210.029 167.218 211.781 155.013 211.843 154.49C211.904 154.183 212.181 153.937 212.519 153.968C212.857 153.968 213.103 154.275 213.073 154.613C213.073 154.705 212.827 163.529 218.514 172.507C226.201 166.142 232.38 159.225 236.869 151.846C226.17 143.361 227.646 129.279 227.676 129.156C227.707 128.849 227.953 128.634 228.261 128.603C228.568 128.603 228.814 128.788 228.906 129.095C228.906 129.187 231.028 138.718 239.605 146.927C248.337 129.341 247.322 110.648 236.592 91.3712C226.262 96.2289 218.084 101.455 211.628 107.42C204.956 113.538 199.852 120.609 196.009 129.003C208.061 127.834 219.744 123.499 219.867 123.438C220.144 123.315 220.482 123.438 220.636 123.715C220.79 123.991 220.697 124.33 220.451 124.514C220.328 124.606 207.477 133.737 193.55 135.09C191.428 140.932 189.83 147.327 188.631 154.644C198.254 153.23 207.17 148.649 207.262 148.587C207.539 148.433 207.877 148.526 208.061 148.772C208.246 149.018 208.184 149.387 207.969 149.571C207.6 149.909 198.715 157.688 187.831 160.393L187.8 160.424Z" fill="#20564C"/>
<path d="M77.7959 129.249C77.3347 98.012 95.2897 80.0263 116.872 80.7949L120.008 73.6006L119.947 64.7154C44.2842 54.4774 33.3389 118.365 38.1966 148.649" fill="#DDDCFC"/>
<path d="M38.2273 149.264C37.9199 149.264 37.6739 149.048 37.6125 148.741C35.9522 138.472 36.3827 126.297 38.7501 115.383C41.7631 101.609 47.789 89.7724 56.213 81.1332C70.8783 66.099 92.3381 60.3805 120.039 64.1006C120.377 64.1314 120.623 64.4695 120.562 64.777C120.531 65.1152 120.193 65.3611 119.885 65.2996C92.6148 61.6103 71.4931 67.2058 57.1046 81.9633C48.8343 90.4488 42.9006 102.07 39.9491 115.629C37.5817 126.42 37.182 138.411 38.8115 148.556C38.873 148.895 38.6271 149.202 38.2889 149.264C38.2582 149.264 38.2273 149.264 38.1966 149.264H38.2273Z" fill="#7481BA"/>
<path d="M77.7959 129.864C77.4577 129.864 77.181 129.587 77.181 129.249C76.9351 112.954 81.7927 99.0882 90.8624 90.2029C97.8107 83.3776 107.065 79.842 116.872 80.1802C117.211 80.1802 117.487 80.4876 117.457 80.8258C117.457 81.164 117.18 81.4407 116.811 81.4099C107.342 81.0717 98.4255 84.5152 91.6924 91.0945C82.8687 99.7338 78.1648 113.261 78.38 129.218C78.38 129.556 78.1033 129.833 77.7651 129.833L77.7959 129.864Z" fill="#7481BA"/>
<path d="M37.5817 143.545L53.2615 136.043C53.2615 136.043 44.653 88.5427 72.2003 70.3418C41.9475 85.0993 35.5218 120.732 37.5817 143.545Z" fill="#8B8BD1"/>
<path d="M37.5817 144.16C37.2743 144.16 36.9976 143.914 36.9668 143.607C35.7678 130.263 37.6432 115.721 42.1934 103.731C48.1579 87.9278 58.15 76.5216 71.9237 69.8192C72.2311 69.6655 72.6001 69.8192 72.7538 70.0959C72.9075 70.4034 72.7537 70.7723 72.477 70.926C58.9801 77.5054 49.2033 88.6965 43.3618 104.161C38.9038 115.998 37.0284 130.356 38.2274 143.514C38.2274 143.852 38.0123 144.16 37.6741 144.191C37.6741 144.191 37.6433 144.191 37.6125 144.191L37.5817 144.16Z" fill="#191935"/>
<path d="M130.123 83.7157L136.395 89.7417C141.437 94.9068 144.204 87.1899 143.559 85.1608C142.513 81.9326 136.703 76.1218 136.672 76.0911" fill="#DDDCFC"/>
<path d="M139.623 92.1398C138.609 92.1398 137.348 91.6478 135.934 90.2028L129.693 84.1769C129.447 83.9309 129.447 83.562 129.693 83.316C129.939 83.0701 130.308 83.0701 130.554 83.316L136.826 89.342C138.301 90.8792 139.623 91.2789 140.761 90.6025C142.452 89.5879 143.313 86.3905 143.005 85.3759C142.237 82.9471 138.271 78.5506 136.272 76.5829C136.149 76.4599 136.088 76.3062 136.088 76.1525C136.088 75.8143 136.365 75.5376 136.703 75.5376C137.041 75.5376 137.041 75.5991 137.133 75.7221C137.748 76.337 143.098 81.7788 144.143 85.007C144.666 86.575 143.559 90.3258 141.376 91.6478C140.915 91.9245 140.33 92.1398 139.654 92.1398H139.623Z" fill="#7481BA"/>
<path d="M143.221 94.63C141.868 95.3679 139.5 92.8775 136.365 89.7416C139.316 85.96 143.528 85.1606 143.528 85.1606C145.219 88.8193 144.512 93.9229 143.221 94.63Z" fill="#3F3E77"/>
<path d="M142.483 95.3985C140.3 95.3985 137.994 92.6315 135.903 90.1412C135.688 89.8952 135.719 89.4956 135.965 89.2803C136.211 89.0651 136.61 89.0959 136.826 89.3419C138.855 91.7399 141.376 94.7529 142.944 94.0458C143.128 93.9535 143.436 93.6461 143.682 93.0005C144.266 91.4632 144.389 88.6655 142.944 85.3758C142.821 85.0683 142.944 84.6994 143.251 84.5764C143.559 84.4227 143.928 84.5764 144.051 84.8839C145.649 88.5117 145.496 91.6784 144.819 93.4309C144.481 94.3225 143.989 94.9067 143.436 95.1526C143.128 95.3063 142.79 95.3678 142.452 95.3678L142.483 95.3985Z" fill="#191935"/>
<path d="M133.321 80.4569C137.779 81.7174 143.128 85.3761 143.128 85.3761C150.046 88.4813 149.831 79.8113 148.355 78.1203C144.051 73.1704 137.933 70.9568 137.933 70.9568" fill="#DDDCFC"/>
<path d="M145.803 86.6672C145.004 86.6672 144.051 86.4521 142.882 85.9294C142.851 85.9294 142.821 85.8986 142.79 85.8679C142.729 85.8371 137.441 82.24 133.167 81.041C132.829 80.9487 132.644 80.6105 132.736 80.2724C132.829 79.9342 133.167 79.7497 133.505 79.8419C137.809 81.0717 142.882 84.4229 143.436 84.8226C145.465 85.7142 146.91 85.5912 147.771 84.4536C149.031 82.7627 148.632 79.35 147.894 78.5199C143.805 73.8467 138.025 71.6331 137.748 71.5408C137.502 71.4486 137.318 71.2334 137.318 70.9567C137.318 70.68 137.594 70.3418 137.932 70.3418C138.271 70.3418 144.45 72.7091 148.816 77.7205C149.923 79.0118 150.353 83.0086 148.755 85.1915C148.201 85.9294 147.279 86.6672 145.803 86.6672Z" fill="#7481BA"/>
<path d="M151.706 87.4975C150.661 88.758 147.402 87.2208 143.128 85.3761C144.543 80.5492 148.355 78.1204 148.355 78.1204C151.429 81.0104 152.69 86.2985 151.706 87.4975Z" fill="#3F3E77"/>
<path d="M150.077 88.6965C148.017 88.6965 145.311 87.2514 142.852 85.8987C142.544 85.7449 142.452 85.376 142.606 85.0686C142.759 84.7611 143.128 84.6689 143.436 84.8226C146.357 86.3906 149.985 88.3583 151.276 87.0362C151.43 86.8825 151.614 86.4521 151.614 85.7142C151.614 83.9925 150.63 81.1948 147.925 78.5507C147.679 78.3047 147.679 77.9358 147.925 77.6898C148.171 77.4439 148.539 77.4439 148.785 77.6898C151.768 80.6106 152.813 83.7465 152.844 85.7142C152.844 86.698 152.598 87.4667 152.167 87.9278C151.614 88.4813 150.907 88.6965 150.107 88.6965H150.077Z" fill="#191935"/>
<path d="M119.947 64.7156C128.74 62.2868 137.195 66.4373 137.195 66.4373C138.885 79.7805 130.861 84.9456 130.861 84.9456C119.609 84.7611 116.134 80.7643 116.134 80.7643" fill="#DDDCFC"/>
<path d="M130.861 85.5911C119.547 85.3452 115.858 81.3791 115.704 81.1947C115.489 80.9487 115.489 80.549 115.735 80.3338C115.981 80.1186 116.38 80.1186 116.596 80.3645C116.626 80.3953 120.162 84.1154 130.861 84.3613C131.199 84.3613 131.476 84.638 131.476 84.9762C131.476 85.3144 131.199 85.5911 130.861 85.5911Z" fill="#7481BA"/>
<path d="M137.195 67.0521C137.102 67.0521 137.01 67.0521 136.918 66.9906C136.826 66.9598 128.555 62.963 120.101 65.2996C119.762 65.3918 119.424 65.2074 119.332 64.8692C119.24 64.531 119.424 64.1928 119.762 64.1006C128.678 61.641 137.102 65.6993 137.441 65.853C137.748 66.0068 137.871 66.3757 137.717 66.6831C137.625 66.8983 137.379 67.0213 137.164 67.0213L137.195 67.0521Z" fill="#7481BA"/>
<path d="M137.195 66.4373C137.195 66.4373 143.467 68.036 145.926 72.2172C149.8 78.8888 144.235 86.7288 141.56 86.7903C139.009 86.8517 139.132 79.6882 139.132 79.6882C139.132 79.6882 137.594 77.7513 137.533 75.7221C137.533 75.7221 136.641 75.4455 135.965 75.0765" fill="#DDDCFC"/>
<path d="M141.53 87.4359C141.007 87.4359 140.546 87.2207 140.146 86.8518C138.609 85.3146 138.517 81.041 138.517 79.9342C138.148 79.4116 137.164 77.9051 136.949 76.2141C136.61 76.0911 136.088 75.8759 135.657 75.63C135.35 75.4762 135.258 75.0765 135.442 74.7998C135.596 74.4924 135.995 74.4002 136.272 74.5846C136.887 74.9228 137.717 75.1688 137.717 75.1688C137.963 75.2303 138.148 75.4762 138.148 75.7529C138.209 77.5669 139.593 79.3501 139.593 79.3808C139.685 79.5038 139.716 79.6268 139.716 79.7805C139.716 81.1333 139.869 84.9149 140.976 86.0217C141.191 86.2369 141.407 86.2676 141.53 86.2676C142.36 86.2676 143.928 84.9456 145.127 82.8242C145.834 81.5329 147.955 77.0442 145.403 72.5862C143.128 68.6817 137.133 67.0829 137.072 67.0829C136.733 66.9907 136.549 66.6525 136.641 66.345C136.733 66.0376 137.072 65.8224 137.379 65.9146C137.656 65.9761 143.928 67.6363 146.479 72.0021C148.447 75.384 148.355 79.6575 146.234 83.4391C144.912 85.8372 143.036 87.4667 141.622 87.4974C141.622 87.4974 141.591 87.4974 141.56 87.4974L141.53 87.4359Z" fill="#7481BA"/>
<path d="M139.132 79.7189C139.132 79.7189 138.978 86.9132 141.56 86.821C143.282 86.7902 146.172 83.5313 147.033 79.4422C145.403 78.8581 142.052 78.0587 139.162 79.7189H139.132Z" fill="#3F3E77"/>
<path d="M141.53 87.4359C141.007 87.4359 140.546 87.2207 140.146 86.8518C138.486 85.1916 138.517 80.2724 138.517 79.719C138.517 79.3808 138.793 79.1041 139.132 79.1041C139.47 79.1041 139.746 79.3808 139.746 79.719C139.746 81.0717 139.9 84.8534 141.007 85.9602C141.222 86.1754 141.437 86.2061 141.56 86.2061C142.913 86.1754 145.649 83.1931 146.418 79.3193C146.479 78.9811 146.818 78.7659 147.156 78.8274C147.494 78.8889 147.709 79.2271 147.648 79.5652C146.756 83.931 143.651 87.3744 141.591 87.4359C141.591 87.4359 141.56 87.4359 141.53 87.4359Z" fill="#191935"/>
<path d="M72.4769 122.823C42.9927 133.553 15.753 144.375 0.626587 183.667C0.626587 183.667 27.5589 198.762 67.4348 191.169C66.9736 175.274 68.4802 154.244 87.0193 145.39" fill="#DDDCFC"/>
<path d="M84.5905 146.312C57.2277 146.312 41.1481 156.489 25.3146 152.584L37.3666 146.097C43.0236 139.425 52.3393 131.985 67.0352 129.033" fill="#8588D1"/>
<path d="M83.6066 145.359L76.3816 141.792C56.9202 139.794 50.8635 143.268 37.3973 146.127C37.3973 146.127 31.0639 149.356 25.3453 152.615C38.3504 156.242 64.1452 145.513 83.9756 146.373L83.6066 145.359Z" fill="#49488A"/>
<path d="M67.3427 189.201C67.0045 189.201 66.7278 188.924 66.7278 188.586C66.5434 174.013 68.3881 153.599 86.7427 144.836C87.0501 144.683 87.419 144.836 87.5727 145.113C87.7264 145.42 87.5727 145.789 87.296 145.943C69.5871 154.398 67.8039 174.321 67.9884 188.555C67.9884 188.894 67.7117 189.17 67.3735 189.17L67.3427 189.201Z" fill="#7481BA"/>
<path d="M0.595815 184.282C0.534326 184.282 0.442032 184.282 0.380542 184.251C0.073095 184.128 -0.0805085 183.759 0.0424704 183.451C7.02152 165.343 16.7983 152.184 30.7872 142.038C42.9006 133.276 56.7357 127.896 72.2618 122.239C72.5692 122.116 72.9382 122.3 73.0612 122.608C73.1842 122.915 72.9996 123.284 72.6922 123.407C57.2583 129.033 43.5155 134.383 31.525 143.053C17.7207 153.045 8.09753 166.019 1.21071 183.913C1.11848 184.159 0.872548 184.312 0.62659 184.312L0.595815 184.282Z" fill="#7481BA"/>
<path d="M33.0007 154.09C30.3567 154.09 27.7742 153.814 25.1916 153.199C24.9457 153.137 24.7612 152.922 24.7304 152.676C24.6997 152.43 24.8227 152.184 25.0379 152.061L36.9976 145.636C42.2549 139.487 51.6935 131.524 66.9429 128.449C67.2811 128.388 67.5887 128.603 67.6809 128.941C67.7424 129.279 67.5271 129.587 67.1889 129.679C52.2163 132.692 42.9621 140.501 37.8585 146.527C37.797 146.589 37.7355 146.619 37.674 146.681L27.0978 152.369C34.784 153.783 42.7776 152.03 51.9703 150.032C61.163 148.034 71.5546 145.728 84.6211 145.728C84.9593 145.728 85.236 146.004 85.236 146.343C85.236 146.681 84.9593 146.958 84.6211 146.958C71.7083 146.958 61.3782 149.233 52.247 151.231C45.3294 152.738 39.0575 154.121 33.0315 154.121L33.0007 154.09Z" fill="#191935"/>
<path d="M79.0257 119.318C79.0257 119.318 71.278 112.4 69.0336 112.308C68.3265 112.277 65.1291 114.983 64.299 117.842C63.4074 120.855 64.9138 124.083 65.8054 124.452C67.3119 125.098 70.8168 124.668 70.8168 124.668" fill="#D2D2FB"/>
<path d="M68.388 125.406C67.3734 125.406 66.2665 125.313 65.5594 125.006C64.3604 124.483 62.7616 120.948 63.7147 117.658C64.2374 115.844 65.5595 114.307 66.2974 113.569C66.6048 113.261 68.1421 111.693 69.0644 111.693C69.9868 111.693 69.0643 111.693 69.0951 111.693C71.4317 111.816 78.1341 117.689 79.4561 118.857C79.702 119.072 79.7328 119.472 79.5176 119.718C79.3024 119.964 78.9026 119.994 78.6567 119.779C75.7359 117.197 70.6017 113.046 69.0644 112.923C68.4188 113.108 65.6518 115.444 64.9139 117.996C64.0838 120.825 65.5902 123.653 66.0821 123.868C67.1889 124.36 69.8637 124.145 70.786 124.022C71.1242 123.991 71.4317 124.206 71.4625 124.545C71.4932 124.883 71.2779 125.19 70.9397 125.221C70.7245 125.221 69.6485 125.375 68.4188 125.375L68.388 125.406Z" fill="#49488A"/>
<path d="M63.0998 132.231C63.0998 132.231 70.6939 116.09 92.2767 115.137C118.194 113.999 162.221 131.923 177.962 141.577C186.663 146.927 180.299 148.772 171.782 147.972C122.283 143.361 98.118 155.044 70.786 145.789" fill="#8588D1"/>
<path d="M177.655 142.5C177.532 142.5 177.439 142.5 177.347 142.408C168.954 137.273 153.766 130.817 138.64 125.99C120.193 120.087 103.744 117.105 92.3381 117.627C74.4754 118.427 67.0044 127.404 65.129 130.14C64.9445 130.417 64.5449 130.479 64.2682 130.294C64.0837 130.171 63.9915 129.987 63.9915 129.771C63.9915 129.648 64.0222 129.525 64.0837 129.433C66.7892 125.498 74.9059 116.213 92.2459 115.444C118.471 114.276 162.559 131.924 177.931 141.331C178.116 141.454 178.239 141.639 178.239 141.854C178.239 141.977 178.239 142.069 178.147 142.162C178.024 142.346 177.839 142.469 177.624 142.469L177.655 142.5Z" fill="#DCE5EA"/>
<path d="M166.525 135.705C163.082 136.966 161.698 143.268 162.682 147.204C162.682 147.204 168.708 147.757 173.074 148.064C184.111 148.833 183.097 145.051 179.899 142.869C174.919 139.487 166.556 135.674 166.556 135.674L166.525 135.705Z" fill="#49488A"/>
<path d="M103.652 122.362C104.851 119.656 105.128 117.412 105.097 115.813C104.113 115.69 103.13 115.567 102.176 115.475C100.455 118.857 103.652 122.362 103.652 122.362Z" fill="white"/>
<path d="M105.466 115.721C104.575 115.475 103.099 115.26 102.976 115.536C102.545 116.459 102.853 117.842 103.775 118.426C104.236 118.703 104.728 118.795 105.19 118.672C105.313 117.904 105.466 116.705 105.466 115.721Z" fill="#191935"/>
<path d="M101.9 120.732C101.654 120.732 101.439 120.579 101.346 120.363C101.316 120.24 100.24 117.689 101.285 115.229C101.408 114.922 101.777 114.768 102.084 114.891C102.392 115.014 102.545 115.383 102.423 115.69C101.562 117.658 102.484 119.841 102.484 119.871C102.607 120.179 102.484 120.548 102.146 120.671C102.053 120.702 101.992 120.732 101.9 120.732Z" fill="#191935"/>
<path d="M103.714 117.596C103.314 117.596 103.068 116.459 103.498 116.428C103.929 116.428 104.144 117.566 103.714 117.596Z" fill="white"/>
<path d="M104.513 121.685C104.421 121.685 104.359 121.685 104.267 121.624C103.96 121.501 103.806 121.132 103.96 120.825C104.636 119.287 104.913 117.627 104.79 115.905C104.79 115.567 105.005 115.26 105.343 115.26C105.681 115.26 105.989 115.475 105.989 115.813C106.142 117.75 105.835 119.595 105.066 121.316C104.974 121.562 104.728 121.685 104.513 121.685Z" fill="#191935"/>
<path d="M95.4741 150.094C86.9578 150.094 78.9641 149.202 70.6323 146.373C70.3248 146.25 70.1404 145.912 70.2327 145.605C70.3557 145.297 70.6938 145.113 71.0013 145.205C85.5435 150.155 99.1941 149.079 116.442 147.726C131.63 146.558 148.878 145.205 171.813 147.357C177.655 147.911 181.067 147.111 181.436 146.035C181.529 145.728 181.559 144.529 177.593 142.1C168.831 136.72 153.582 129.987 138.701 124.883C125.481 120.363 106.696 115.106 92.2767 115.752C76.0742 116.459 67.8346 126.02 65.0676 130.109C64.8832 130.386 64.4834 130.448 64.2067 130.263C63.93 130.079 63.8685 129.679 64.053 129.402C66.943 125.16 75.4593 115.26 92.2152 114.491C100.301 114.122 114.966 115.444 139.101 123.684C154.074 128.818 169.446 135.613 178.239 141.024C181.682 143.145 183.097 144.898 182.605 146.373C181.652 149.233 174.027 148.772 171.69 148.556C148.816 146.435 131.661 147.757 116.503 148.925C108.91 149.509 101.992 150.063 95.4126 150.063L95.4741 150.094Z" fill="#191935"/>
<path d="M73.0613 136.504C73.0613 136.504 64.176 143.545 63.6533 145.912C63.1307 148.28 65.7747 150.616 68.6954 152.061C71.7699 153.598 75.49 152.584 76.0742 151.692C77.058 150.217 77.2424 146.343 77.2424 146.343" fill="#D2D2FB"/>
<path d="M65.3442 146.066C65.2212 146.066 65.0674 146.035 64.9752 145.943C64.6985 145.728 64.6678 145.359 64.8522 145.082C64.9445 144.959 67.4656 141.731 72.6 137.334C72.8459 137.119 73.2456 137.15 73.4608 137.396C73.676 137.642 73.6452 138.041 73.3992 138.257C68.3571 142.53 65.8361 145.789 65.8361 145.82C65.7132 145.974 65.5287 146.066 65.3442 146.066Z" fill="white"/>
<path d="M72.2926 153.445C71.0321 153.445 69.6485 153.199 68.4495 152.615C65.4365 151.108 62.8232 146.927 63.0692 145.789C63.6226 143.268 71.7699 136.75 72.6922 136.012C72.9689 135.797 73.3378 135.859 73.553 136.105C73.7682 136.381 73.7068 136.75 73.4608 136.966C70.1097 139.61 64.6679 144.406 64.2682 146.004C64.2989 146.712 66.328 150.155 68.9721 151.477C71.9236 152.922 75.244 151.815 75.5822 151.323C76.3201 150.217 76.5968 147.296 76.6582 146.281C76.6582 145.943 76.9657 145.697 77.3039 145.697C77.6421 145.697 77.9188 146.004 77.888 146.343C77.888 146.742 77.6728 150.432 76.6275 152C76.1048 152.799 74.3217 153.414 72.2926 153.414V153.445Z" fill="#49488A"/>
<path d="M69.7715 142.315C66.1743 144.775 67.1889 148.157 67.1889 148.157C68.0498 146.988 69.1566 146.189 69.1566 146.189C69.6485 148.126 71.155 149.54 71.155 149.54C71.155 149.54 71.5853 148.157 71.7083 147.296C71.7083 147.296 72.8152 147.419 73.799 147.296C73.799 147.296 73.7375 142.776 73.43 141.362C73.43 141.362 71.2779 141.239 69.7407 142.254L69.7715 142.315Z" fill="#6A6DB8"/>
<path d="M64.1453 147.972C64.0223 147.972 63.9301 147.972 63.8378 147.88C63.5611 147.696 63.4688 147.327 63.6226 147.05C67.2812 140.993 73.9836 140.286 74.2603 140.255C74.5985 140.225 74.9058 140.471 74.9366 140.809C74.9673 141.147 74.7214 141.454 74.3832 141.485C74.291 141.485 67.9883 142.192 64.6679 147.695C64.5449 147.88 64.3605 148.003 64.1453 148.003V147.972Z" fill="#49488A"/>
<path d="M91.5694 109.664C91.2312 109.664 90.9545 109.388 90.9545 109.049C90.9545 107.451 91.6617 106.221 92.83 105.76C94.3672 105.145 96.3349 105.883 98.2411 107.85C98.487 108.096 98.487 108.496 98.2411 108.711C97.9951 108.957 97.5954 108.957 97.3801 108.711C95.8737 107.174 94.3365 106.498 93.3219 106.897C92.6148 107.174 92.2151 107.973 92.2151 109.049C92.2151 109.388 91.9384 109.664 91.6002 109.664H91.5694Z" fill="#191935"/>
<path d="M84.5904 127.588C84.4367 127.588 84.2522 127.527 84.1292 127.404C83.8833 127.158 83.9139 126.758 84.1598 126.543C84.2521 126.451 86.5273 124.36 89.1713 123.438C89.4788 123.315 89.8477 123.499 89.9399 123.807C90.0629 124.114 89.8784 124.483 89.5709 124.575C87.1421 125.406 85.0208 127.404 84.99 127.404C84.867 127.527 84.7133 127.558 84.5596 127.558L84.5904 127.588Z" fill="#191935"/>
<path d="M100.332 131.247C89.694 131.309 88.4642 142.746 88.4642 142.746C97.8106 137.304 100.332 131.247 100.332 131.247Z" fill="white"/>
<path d="M99.3272 135.729C100.954 134.68 101.528 132.673 100.608 131.246C99.688 129.819 97.6234 129.512 95.9963 130.56C94.3692 131.609 93.7959 133.616 94.7157 135.043C95.6355 136.471 97.7002 136.778 99.3272 135.729Z" fill="#191935"/>
<path d="M100.332 131.247C105.773 140.563 92.7684 147.88 88.4642 142.746C97.8106 137.304 100.332 131.247 100.332 131.247Z" fill="#8588D1"/>
<path d="M89.325 138.964C89.2328 138.964 89.1712 138.964 89.079 138.903C88.7715 138.78 88.6178 138.411 88.7715 138.103C88.8023 138.042 89.571 136.289 91.139 134.445C93.2296 131.985 95.7814 130.54 98.4869 130.294C98.8251 130.263 99.1326 130.509 99.1634 130.848C99.1941 131.186 98.9481 131.493 98.6099 131.524C92.8299 132.077 89.9399 138.534 89.9092 138.595C89.8169 138.81 89.571 138.964 89.3558 138.964H89.325Z" fill="#191935"/>
<path d="M95.6586 135.09C94.9822 135.09 94.8592 132.846 95.6278 132.815C96.3964 132.753 96.4272 135.09 95.6586 135.09Z" fill="white"/>
<path d="M90.8931 142.377C90.6779 142.377 90.4626 142.254 90.3704 142.069C90.1859 141.762 90.309 141.393 90.5857 141.239C97.0113 137.457 99.8091 131.524 99.8091 131.493C99.9628 131.186 100.301 131.063 100.639 131.186C100.947 131.339 101.07 131.677 100.947 131.985C100.824 132.231 97.9952 138.318 91.2006 142.284C91.1083 142.346 90.9854 142.377 90.8931 142.377Z" fill="#191935"/>
<path opacity="0.2" d="M97.78 116.705C97.8722 115.967 100.824 111.939 102.361 111.171C103.898 110.433 109.248 119.011 109.248 120.087C109.248 121.193 105.528 125.559 105.159 125.836C104.79 126.113 97.4418 118.857 97.78 116.705Z" fill="#DEF5FF"/>
<path d="M105.159 126.451C105.005 126.451 104.82 126.389 104.636 126.297C103.468 125.59 96.7961 119.103 97.1651 116.612C97.288 115.844 98.8561 113.784 99.0405 113.569C99.7477 112.677 101.07 111.14 102.084 110.617C102.484 110.402 102.976 110.494 103.529 110.832C105.681 112.216 109.863 118.857 109.832 120.056C109.832 121.532 105.835 126.051 105.497 126.297C105.374 126.389 105.251 126.42 105.128 126.42L105.159 126.451ZM98.3949 116.797C98.3334 117.289 99.0711 118.795 101.377 121.439C102.914 123.192 104.421 124.606 105.066 125.098C105.989 124.114 108.602 120.824 108.633 120.087C108.571 119.718 107.526 117.719 106.019 115.506C103.99 112.554 102.883 111.816 102.607 111.786C101.254 112.493 98.5486 116.213 98.3949 116.828V116.797Z" fill="black"/>
<path d="M93.5987 123.592C93.322 123.592 93.1068 123.438 93.0145 123.161C92.8301 122.546 92.2151 120.517 92.4611 119.656C92.6455 119.011 94.5209 115.66 95.5355 115.475C96.2427 115.321 97.5032 115.906 98.0259 116.151C98.3333 116.305 98.4563 116.674 98.3025 116.982C98.1488 117.289 97.78 117.412 97.4725 117.258C96.8269 116.951 96.089 116.674 95.8123 116.674C95.3204 117.043 93.8139 119.38 93.6294 119.995C93.5372 120.333 93.8138 121.716 94.152 122.792C94.2442 123.131 94.0598 123.469 93.7524 123.561C93.6909 123.561 93.6294 123.561 93.5679 123.561L93.5987 123.592Z" fill="black"/>
<path opacity="0.2" d="M93.5987 122.977C88.6796 126.974 87.3576 135.275 87.0194 138.995C86.9271 140.132 87.2038 141.301 87.7572 142.069C89.5097 144.467 91.5081 146.681 92.9838 148.218C94.3058 149.571 96.0275 149.417 97.1344 147.849C99.9936 143.76 101.131 138.81 101.562 135.582C101.838 133.553 101.377 131.432 100.332 129.987C95.8738 123.899 93.5987 122.977 93.5987 122.977Z" fill="#DEF5FF"/>
<path d="M94.9514 149.755C94.0906 149.755 93.2605 149.356 92.5534 148.648C91.1391 147.173 89.0484 144.898 87.2652 142.438C86.6196 141.546 86.2815 140.224 86.4044 138.933C86.7426 135.397 88.0646 126.697 93.2297 122.515C93.4141 122.362 93.6294 122.331 93.8446 122.423C93.9368 122.454 96.3349 123.469 100.824 129.648C101.961 131.185 102.453 133.491 102.176 135.674C101.715 139.118 100.547 144.068 97.657 148.218C97.0114 149.14 96.1198 149.694 95.1975 149.786C95.136 149.786 95.0437 149.786 94.9822 149.786L94.9514 149.755ZM93.6908 123.714C89.1714 127.711 87.9417 135.736 87.6342 139.025C87.542 140.009 87.7879 141.024 88.2491 141.7C90.0016 144.098 92.0307 146.343 93.4142 147.788C93.9368 148.31 94.4903 148.556 95.0437 148.525C95.6279 148.464 96.1504 148.126 96.6116 147.48C99.3479 143.514 100.485 138.779 100.947 135.459C101.193 133.584 100.793 131.616 99.8398 130.325C96.4886 125.774 94.4287 124.176 93.6908 123.714Z" fill="black"/>
<path d="M171.998 145.42C173.904 146.005 175.226 145.82 176.302 145.789C176.917 145.789 177.347 146.558 176.394 146.558C174.334 146.558 171.998 145.42 171.998 145.42Z" fill="black"/>
<path d="M176.425 147.142C174.242 147.142 171.875 146.005 171.782 145.943C171.506 145.82 171.352 145.482 171.475 145.175C171.598 144.867 171.906 144.713 172.213 144.806C173.75 145.267 174.857 145.205 175.81 145.175C175.994 145.175 176.148 145.175 176.302 145.175C176.763 145.175 177.224 145.39 177.44 145.789C177.624 146.066 177.624 146.404 177.44 146.681C177.317 146.896 177.04 147.173 176.394 147.173L176.425 147.142Z" fill="black"/>
<path d="M173.381 139.979C175.226 140.716 176.117 141.424 176.948 141.946C177.409 142.254 178.208 142.223 177.44 141.762C175.81 140.778 173.35 139.979 173.35 139.979H173.381Z" fill="black"/>
<path d="M177.593 142.746C177.255 142.746 176.886 142.623 176.64 142.469C176.517 142.377 176.394 142.315 176.271 142.223C175.533 141.731 174.672 141.178 173.166 140.563C172.858 140.44 172.705 140.102 172.828 139.794C172.951 139.487 173.289 139.333 173.596 139.425C173.689 139.456 176.117 140.255 177.808 141.27C177.993 141.393 178.423 141.639 178.423 142.131C178.423 142.377 178.27 142.592 178.054 142.715C177.931 142.776 177.778 142.807 177.624 142.807L177.593 142.746Z" fill="black"/>
<path d="M47.666 95.3988C49.4492 83.8081 55.8134 77.1365 55.8134 77.1365C55.8134 77.1365 55.3214 81.2255 55.4136 85.6528" fill="#8B8BD1"/>
<path d="M47.6661 96.0137C47.6353 96.0137 47.6045 96.0137 47.5738 96.0137C47.2356 95.9522 47.0204 95.6448 47.0512 95.3066C48.8344 83.6543 55.0756 77.0135 55.3523 76.706C55.5367 76.5215 55.8134 76.46 56.0593 76.583C56.3053 76.706 56.4283 76.952 56.3976 77.1979C56.3976 77.2287 55.9057 81.287 55.9979 85.622C55.9979 85.9602 55.7212 86.2369 55.383 86.2369C55.0449 86.2369 54.7681 85.9602 54.7681 85.622C54.7067 83.1009 54.8603 80.6721 54.9833 79.0426C53.0771 81.5944 49.48 87.3129 48.2502 95.4295C48.1887 95.737 47.9428 95.9522 47.6353 95.9522L47.6661 96.0137Z" fill="#191935"/>
<path d="M45.4216 101.24C44.0995 87.4667 49.2954 78.8889 49.2954 78.8889C49.2954 78.8889 49.9104 85.0686 51.5091 90.7871" fill="#8B8BD1"/>
<path d="M45.4216 101.855C45.1142 101.855 44.8375 101.609 44.8067 101.302C43.4847 87.4666 48.5577 78.9195 48.7729 78.5506C48.8959 78.3354 49.1725 78.2124 49.4492 78.2739C49.6952 78.3354 49.9104 78.5506 49.9104 78.8273C49.9104 78.8888 50.556 85.0377 52.0933 90.6332C52.1855 90.9714 52.0011 91.3096 51.6629 91.4019C51.3247 91.4941 50.9865 91.3096 50.8943 90.9714C49.8797 87.2513 49.2341 83.316 48.9266 81.0102C48.4962 81.994 47.9427 83.4082 47.42 85.1299C46.4054 88.6041 45.3295 94.1996 46.0059 101.209C46.0366 101.548 45.7906 101.855 45.4524 101.886C45.4524 101.886 45.4217 101.886 45.391 101.886L45.4216 101.855Z" fill="#191935"/>
<path d="M251.78 166.942C251.749 166.942 251.688 166.942 251.657 166.942C251.319 166.88 251.104 166.542 251.196 166.204C252.764 158.763 250.489 154.183 248.275 149.725C246.8 146.742 245.385 143.914 245.385 140.501C245.385 137.088 246.031 135.275 246.738 131.985C249.136 121.224 252.426 106.497 237.299 91.0021C237.053 90.7562 237.053 90.3565 237.299 90.1413C237.545 89.8953 237.945 89.8953 238.16 90.1413C245.047 97.2125 248.859 104.745 249.782 113.169C250.581 120.363 249.105 126.943 247.906 132.262C247.199 135.49 246.584 138.257 246.584 140.501C246.584 142.745 247.906 146.343 249.351 149.202C251.534 153.598 254.025 158.61 252.364 166.48C252.303 166.757 252.057 166.972 251.749 166.972L251.78 166.942Z" fill="#2B5954"/>
<path d="M247.691 106.252C249.936 110.833 255.408 112.708 255.408 112.708C253.932 105.298 247.691 106.252 247.691 106.252Z" fill="#2A9B8B"/>
<path d="M255.377 113.323C255.316 113.323 255.254 113.323 255.193 113.292C254.947 113.2 249.474 111.294 247.138 106.528C247.045 106.344 247.045 106.159 247.138 105.975C247.23 105.79 247.384 105.667 247.599 105.667C249.935 105.299 254.732 106.282 255.992 112.585C256.023 112.8 255.962 113.015 255.808 113.169C255.685 113.261 255.562 113.323 255.408 113.323H255.377ZM248.706 106.836C250.304 109.418 252.979 110.956 254.486 111.663C253.225 107.604 250.243 106.897 248.706 106.836Z" fill="#2B5954"/>
<path d="M249.382 118.642C242.127 128.787 243.971 135.397 243.971 135.397C252.457 129.341 249.382 118.642 249.382 118.642Z" fill="#2A9B8B"/>
<path d="M243.971 136.012C243.91 136.012 243.848 136.012 243.756 135.982C243.571 135.92 243.418 135.767 243.356 135.582C243.264 135.305 241.512 128.603 248.86 118.304C248.982 118.119 249.228 118.027 249.474 118.058C249.72 118.088 249.905 118.273 249.966 118.488C249.997 118.611 253.041 129.679 244.309 135.89C244.217 135.951 244.063 136.012 243.94 136.012H243.971ZM249.075 120.21C246.062 124.76 244.955 128.48 244.586 130.847C244.34 132.385 244.371 133.553 244.432 134.291C249.874 129.802 249.536 123.069 249.075 120.21Z" fill="#2B5954"/>
<path d="M246.554 135.828C246.093 144.621 254.148 148.649 254.148 148.649C254.701 138.042 246.554 135.828 246.554 135.828Z" fill="#2A9B8B"/>
<path d="M254.117 149.264C254.025 149.264 253.933 149.264 253.84 149.202C253.748 149.171 245.447 144.898 245.908 135.797C245.908 135.613 246 135.428 246.154 135.336C246.308 135.213 246.492 135.182 246.677 135.244C246.769 135.244 255.254 137.734 254.701 148.679C254.701 148.895 254.578 149.079 254.394 149.171C254.301 149.233 254.178 149.264 254.086 149.264H254.117ZM247.138 136.72C247.23 142.776 251.627 146.343 253.533 147.603C253.533 140.225 248.983 137.519 247.138 136.72Z" fill="#2B5954"/>
<path d="M248.982 149.786C252.026 158.087 244.647 165.927 244.647 165.927C244.217 153.598 248.982 149.786 248.982 149.786Z" fill="#2A9B8B"/>
<path d="M244.647 166.542C244.586 166.542 244.494 166.542 244.432 166.511C244.186 166.419 244.033 166.204 244.033 165.958C243.602 153.476 248.398 149.479 248.583 149.325C248.737 149.202 248.952 149.171 249.136 149.202C249.321 149.264 249.474 149.386 249.536 149.571C250.827 153.137 250.458 157.165 248.49 161.223C247.015 164.267 245.17 166.265 245.078 166.327C244.955 166.45 244.801 166.511 244.617 166.511L244.647 166.542ZM248.706 150.985C247.537 152.461 245.262 156.365 245.232 164.205C246.984 161.838 250.182 156.55 248.706 150.985Z" fill="#2B5954"/>
<path d="M252.149 163.959C245.662 171.492 247.722 178.84 247.722 178.84C253.133 173.49 252.149 163.959 252.149 163.959Z" fill="#2A9B8B"/>
<path d="M247.722 179.486C247.66 179.486 247.63 179.486 247.568 179.486C247.353 179.424 247.199 179.27 247.138 179.055C247.046 178.748 245.078 171.277 251.688 163.591C251.842 163.406 252.118 163.345 252.334 163.406C252.58 163.468 252.733 163.683 252.764 163.929C252.764 164.021 253.01 166.419 252.58 169.524C251.996 173.644 250.458 177.057 248.153 179.332C248.03 179.455 247.876 179.516 247.722 179.516V179.486ZM251.596 165.651C249.167 168.94 248.368 172.107 248.122 174.259C247.968 175.612 248.029 176.749 248.122 177.518C251.196 173.736 251.627 168.325 251.627 165.651H251.596Z" fill="#2B5954"/>
<path d="M132.46 78.1509C128.279 96.7207 132.46 110.218 141.191 118.918C145.803 116.244 159.454 115.075 159.454 115.075C159.454 115.075 148.047 118.457 144.45 121.778C152.567 128.08 163.543 131.124 175.164 131.063C176.24 128.941 180.76 119.503 186.54 116.059C186.54 116.059 179.807 124.883 178.639 130.94C186.017 130.509 193.611 128.849 200.806 126.051C202.773 118.857 207.047 112.032 207.047 112.032C207.047 112.032 203.726 118.273 203.972 124.729C217.346 118.734 229.152 108.557 235.639 94.5378L237.73 90.5718C154.842 106.836 143.19 83.0393 132.46 78.1509Z" fill="#3ABAA4"/>
<path d="M174.795 131.677C162.774 131.677 151.891 128.357 144.051 122.27C143.897 122.147 143.835 121.993 143.805 121.808C143.774 121.624 143.866 121.44 143.989 121.317C145.988 119.472 150.2 117.658 153.705 116.367C149.462 116.951 144.02 117.965 141.468 119.441C141.222 119.595 140.915 119.533 140.73 119.349C130.984 109.664 127.91 95.368 131.814 78.0279C131.845 77.8435 131.968 77.6897 132.152 77.5975C132.306 77.5053 132.521 77.5053 132.675 77.5975C134.489 78.4276 136.334 79.7804 138.486 81.3484C143.928 85.3452 151.368 90.8177 166.125 93.677C183.681 97.0897 207.723 95.8291 237.607 89.9569C237.822 89.9262 238.068 90.0184 238.222 90.2028C238.375 90.3873 238.376 90.6333 238.283 90.8485L236.193 94.7838C230.105 107.943 218.76 118.765 204.249 125.283C204.064 125.375 203.849 125.344 203.665 125.252C203.48 125.16 203.388 124.944 203.388 124.76C203.327 123.007 203.511 121.255 203.818 119.656C202.927 121.685 202.066 123.93 201.42 126.236C201.359 126.42 201.236 126.574 201.051 126.635C193.919 129.433 186.171 131.155 178.7 131.585C178.515 131.585 178.331 131.524 178.208 131.37C178.085 131.216 178.024 131.032 178.054 130.847C178.762 127.158 181.375 122.608 183.435 119.441C180.944 122.054 178.423 125.959 175.872 131.032L175.718 131.37C175.626 131.585 175.41 131.708 175.164 131.708C175.041 131.708 174.918 131.708 174.795 131.708V131.677ZM145.434 121.747C152.997 127.342 163.358 130.417 174.795 130.417C178.639 122.762 182.482 117.75 186.232 115.506C186.478 115.352 186.817 115.414 187.001 115.629C187.185 115.844 187.216 116.182 187.001 116.397C186.94 116.49 180.883 124.422 179.407 130.263C186.417 129.771 193.58 128.142 200.283 125.559C202.281 118.488 206.463 111.724 206.493 111.663C206.678 111.386 207.047 111.294 207.323 111.447C207.6 111.601 207.723 111.97 207.569 112.278C207.539 112.339 204.649 117.842 204.556 123.745C218.391 117.32 229.214 106.867 235.055 94.2304L236.531 91.4019C207.077 97.0897 183.312 98.258 165.849 94.8761C150.815 91.9553 143.251 86.3905 137.717 82.3322C135.903 81.0102 134.335 79.8419 132.829 79.0425C129.324 95.4295 132.214 108.926 141.253 118.15C146.264 115.598 158.808 114.522 159.362 114.46C159.669 114.46 159.946 114.645 160.007 114.952C160.069 115.26 159.884 115.567 159.577 115.659C159.485 115.69 149.339 118.734 145.373 121.747H145.434Z" fill="#20564C"/>
<path d="M170.122 109.203C168.431 108.004 166.371 107.543 164.557 109.941C162.744 112.308 164.066 114.122 165.449 115.291C167.878 120.579 172.151 121.931 174.888 120.302C174.888 120.302 174.396 119.933 173.627 119.349C174.211 119.103 174.734 118.703 175.134 118.211C175.195 118.119 175.257 118.058 175.288 117.965C175.933 118.273 176.302 118.457 176.302 118.457C177.132 115.444 176.056 109.91 170.092 109.265L170.122 109.203Z" fill="#218E79"/>
<path d="M144.696 86.3291C153.243 92.0784 164.065 96.4134 169.169 98.4733C172.121 97.8276 180.637 96.7208 180.637 96.7208C180.637 96.7208 173.074 99.0267 172.52 99.9183C182.389 104.53 196.563 105.452 196.563 105.452C198.653 100.81 204.987 95.8907 204.987 95.8907C204.987 95.8907 200.314 99.3341 200.098 105.329C211.013 104.591 223.526 100.318 237.73 90.5412C180.391 101.794 157.148 93.8923 144.696 86.3291Z" fill="#75EADF"/>
<path d="M130.708 74.0618C132.03 75.5068 134.858 78.735 136.211 81.256C137.994 84.638 139.378 88.8193 138.025 89.7724C136.211 91.0329 131.538 88.6041 129.324 86.2367C127.418 84.1768 125.358 82.0861 124.067 80.7949" fill="#DDDCFC"/>
<path d="M136.672 90.7255C135.78 90.7255 134.704 90.4488 133.536 89.9261C131.784 89.1575 130 87.8969 128.832 86.6364C126.957 84.6072 124.958 82.5781 123.605 81.1946C123.36 80.9486 123.36 80.5797 123.605 80.3337C123.851 80.0878 124.22 80.0878 124.466 80.3337C125.819 81.6865 127.848 83.7464 129.724 85.8063C131.845 88.0814 136.211 90.2643 137.625 89.2497C138.363 88.727 137.748 85.4988 135.627 81.5328C134.305 79.0424 131.415 75.7528 130.216 74.4615C130 74.2155 130 73.8158 130.246 73.6006C130.492 73.3854 130.892 73.3854 131.107 73.6314C132.614 75.2609 135.35 78.3968 136.703 80.9486C137.379 82.2091 140.607 88.6348 138.301 90.2643C137.871 90.5717 137.287 90.7255 136.641 90.7255H136.672Z" fill="#7481BA"/>
<path d="M129.97 86.9131C132.368 89.0345 136.334 90.9407 137.994 89.7724C139.378 88.8193 137.994 84.638 136.18 81.2561C132.583 82.2092 130.677 84.884 129.97 86.9131Z" fill="#3F3E77"/>
<path d="M136.703 90.7255C135.811 90.7255 134.827 90.4488 134.059 90.1414C132.521 89.5265 130.861 88.5119 129.601 87.3743C129.355 87.1591 129.324 86.7594 129.539 86.5135C129.754 86.2675 130.154 86.2368 130.4 86.452C132.89 88.6964 136.487 90.0799 137.656 89.2805C138.394 88.7578 137.779 85.5296 135.657 81.5636C135.504 81.2561 135.627 80.8872 135.903 80.7335C136.211 80.5798 136.58 80.7027 136.733 80.9794C137.41 82.2399 140.638 88.6656 138.332 90.2951C137.84 90.6333 137.287 90.7562 136.672 90.7562L136.703 90.7255Z" fill="#191935"/>
<path d="M188.077 97.7353C175.257 97.7353 164.496 96.1673 155.58 93.0621C155.273 92.9391 155.088 92.6009 155.211 92.2935C155.334 91.986 155.672 91.8016 155.98 91.9246C173.965 98.1965 199.637 98.0735 234.471 91.5249C234.809 91.4634 235.117 91.6786 235.178 92.0168C235.24 92.355 235.024 92.6624 234.686 92.7239C216.823 96.0751 201.328 97.7661 188.046 97.7661L188.077 97.7353Z" fill="#DDEDE8"/>
<path d="M196.563 106.098C196.563 106.098 196.563 106.098 196.532 106.098C196.378 106.098 182.113 105.083 172.274 100.502C172.121 100.441 171.998 100.287 171.936 100.103C171.875 99.9183 171.936 99.7646 171.998 99.6109C172.244 99.2419 173.197 98.75 174.457 98.2274C172.428 98.5348 170.43 98.8422 169.292 99.0882C169.169 99.0882 169.046 99.0882 168.923 99.0882H168.892C163.697 96.9975 152.936 92.6625 144.327 86.8825C144.051 86.6981 143.958 86.3291 144.143 86.0524C144.327 85.7757 144.696 85.6835 144.973 85.8679C153.12 90.8178 162.467 93.7079 174.396 94.9376C190.875 96.6593 212.12 94.9991 237.546 89.9877C237.822 89.9263 238.13 90.08 238.222 90.3567C238.314 90.6334 238.222 90.9408 238.007 91.0946C224.848 100.164 212.089 105.176 200.068 106.006C199.883 106.006 199.729 105.944 199.606 105.821C199.483 105.698 199.422 105.545 199.422 105.36C199.484 103.731 199.852 102.316 200.344 101.056C199.022 102.501 197.793 104.161 197.055 105.76C196.962 105.975 196.747 106.129 196.501 106.129L196.563 106.098ZM173.812 99.8261C182.42 103.515 193.888 104.622 196.194 104.837C198.008 101.21 202.005 97.5817 203.757 96.106C195.148 96.8131 187.708 96.9668 181.252 96.6593C181.283 96.9668 181.098 97.2435 180.822 97.3357C178.177 98.1351 175.226 99.1804 173.812 99.8261ZM205.202 96.5364C204.464 97.1513 201.205 100.072 200.775 104.714C211.597 103.823 223.065 99.4571 234.871 91.771C223.864 93.8309 214.179 95.2144 205.602 95.983C205.602 96.1367 205.509 96.3212 205.356 96.4134C205.356 96.4134 205.294 96.4749 205.202 96.5364ZM157.671 92.847C162.282 95.0299 166.494 96.7516 169.231 97.8277C171.26 97.3972 175.349 96.8131 178.024 96.4441C169.661 95.86 163.051 94.5072 157.671 92.8162V92.847Z" fill="#20564C"/>
<g opacity="0.3">
<path d="M192.75 180.777C192.627 180.777 192.535 180.746 192.412 180.685C192.135 180.5 192.043 180.131 192.228 179.824C216.885 140.993 230.659 109.541 230.782 109.203C230.905 108.896 231.273 108.742 231.581 108.896C231.888 109.019 232.042 109.388 231.888 109.695C231.765 110.003 217.961 141.577 193.242 180.469C193.119 180.654 192.935 180.746 192.72 180.746L192.75 180.777Z" fill="#205653"/>
</g>
<path d="M165.111 112.431C164.65 112.431 163.973 112.308 163.112 111.878C162.098 112.339 160.96 111.97 160.807 111.878C160.499 111.755 160.315 111.417 160.438 111.109C160.561 110.802 160.899 110.617 161.206 110.74C161.483 110.832 162.282 110.986 162.774 110.679C162.959 110.556 163.205 110.556 163.389 110.648C164.158 111.048 165.142 111.294 165.357 111.171C165.603 110.925 165.972 110.925 166.218 111.171C166.464 111.417 166.464 111.786 166.218 112.032C166.064 112.185 165.726 112.431 165.111 112.431Z" fill="#380A21"/>
<path d="M165.633 119.81C165.388 119.81 165.172 119.687 165.08 119.441C164.465 118.088 165.295 115.998 165.511 115.444C165.511 114.522 164.988 113.507 164.988 113.477C164.834 113.169 164.926 112.8 165.234 112.646C165.664 112.401 166.156 111.97 166.156 111.97C166.402 111.755 166.802 111.786 167.017 112.032C167.232 112.278 167.202 112.677 166.956 112.892C166.956 112.892 166.648 113.138 166.31 113.415C166.525 113.938 166.802 114.799 166.74 115.629C166.74 115.69 166.74 115.782 166.679 115.844C166.31 116.643 165.849 118.211 166.187 118.918C166.341 119.226 166.187 119.595 165.88 119.749C165.787 119.779 165.695 119.81 165.633 119.81Z" fill="#380A21"/>
<path d="M173.535 122.147C173.473 122.147 173.412 122.147 173.35 122.147C173.012 122.054 172.828 121.716 172.951 121.378C173.105 120.855 173.289 119.656 172.828 119.195C172.459 118.98 170.86 117.965 170.86 116.612C170.86 116.274 171.137 115.998 171.475 115.998C171.813 115.998 172.09 116.274 172.09 116.612C172.09 117.166 173.012 117.873 173.473 118.15C173.504 118.15 173.535 118.18 173.566 118.211C174.826 119.257 174.211 121.47 174.119 121.716C174.027 121.993 173.781 122.147 173.535 122.147Z" fill="#380A21"/>
<path d="M168.585 108.311C168.493 108.311 168.37 108.311 168.278 108.219C167.97 108.065 167.878 107.696 168.032 107.389C168.062 107.143 167.54 106.282 166.956 105.667C166.802 105.514 166.74 105.268 166.802 105.052C166.956 104.499 166.556 103.761 166.402 103.546C166.187 103.269 166.248 102.9 166.525 102.685C166.802 102.47 167.171 102.531 167.386 102.808C167.478 102.931 168.155 103.915 168.032 105.022C169.538 106.682 169.292 107.604 169.108 107.942C168.985 108.158 168.8 108.25 168.585 108.25V108.311Z" fill="#380A21"/>
<path d="M169.661 108.865C169.569 108.865 169.507 108.865 169.415 108.803C169.108 108.68 168.954 108.311 169.108 108.004C169.108 108.004 169.354 107.42 169.477 106.897C169.538 106.559 169.876 106.344 170.215 106.436C170.215 106.436 171.352 106.651 172.244 106.344C172.705 105.944 174.457 104.53 175.933 104.745C176.271 104.776 176.517 105.114 176.456 105.452C176.394 105.79 176.087 106.036 175.749 105.975C174.949 105.883 173.627 106.774 172.951 107.358C172.889 107.42 172.828 107.451 172.766 107.481C171.998 107.789 171.106 107.789 170.522 107.727C170.399 108.158 170.245 108.496 170.245 108.496C170.153 108.742 169.907 108.865 169.692 108.865H169.661Z" fill="#380A21"/>
<path d="M177.901 113.169C177.501 113.169 177.132 113.077 176.763 112.862C176.732 112.862 176.702 112.831 176.671 112.8C176.302 112.431 175.349 111.755 174.795 111.939C174.457 112.032 174.119 111.878 174.027 111.54C173.935 111.202 174.088 110.863 174.426 110.771C175.718 110.371 177.163 111.57 177.47 111.878C178.024 112.185 179.13 111.663 179.592 111.355C179.868 111.171 180.268 111.232 180.452 111.509C180.637 111.786 180.575 112.185 180.299 112.37C180.145 112.493 179.038 113.2 177.931 113.2L177.901 113.169Z" fill="#380A21"/>
<path d="M174.469 116.833C175.517 115.412 175.114 113.336 173.57 112.198C172.026 111.059 169.924 111.288 168.876 112.71C167.828 114.131 168.231 116.206 169.775 117.345C171.32 118.484 173.421 118.254 174.469 116.833Z" fill="#AF0000"/>
<path d="M171.167 117.596C170.307 117.596 169.415 117.32 168.646 116.766C167.786 116.12 167.171 115.198 166.986 114.184C166.771 113.138 166.986 112.093 167.632 111.263C168.892 109.572 171.383 109.264 173.197 110.617C175.011 111.97 175.472 114.43 174.242 116.12C173.535 117.104 172.397 117.596 171.198 117.596H171.167ZM170.645 110.986C169.846 110.986 169.077 111.324 168.585 111.97C168.185 112.523 168.032 113.2 168.185 113.907C168.339 114.645 168.739 115.29 169.384 115.752C170.645 116.674 172.397 116.52 173.227 115.352C174.088 114.214 173.719 112.493 172.459 111.57C171.905 111.171 171.26 110.955 170.645 110.955V110.986Z" fill="#560000"/>
<path d="M165.91 113.323C164.803 112.37 163.696 110.832 165.172 108.834C166.648 106.836 168.277 107.205 169.661 108.219L165.91 113.292V113.323Z" fill="#DC4942"/>
<path d="M165.91 113.938C165.757 113.938 165.634 113.876 165.511 113.784C163.635 112.185 163.328 110.31 164.681 108.465C166.126 106.497 168.032 106.252 170.03 107.727C170.307 107.942 170.368 108.311 170.153 108.588L166.402 113.661C166.31 113.784 166.156 113.876 165.972 113.907H165.91V113.938ZM167.54 108.035C166.863 108.035 166.218 108.434 165.664 109.203C164.834 110.341 164.865 111.355 165.818 112.4L168.77 108.404C168.339 108.158 167.939 108.035 167.54 108.035Z" fill="#840909"/>
<path d="M165.91 113.323L166.74 111.57C165.664 111.171 165.142 110.402 165.049 108.926C163.481 110.955 164.803 112.339 165.91 113.292V113.323Z" fill="#AF0000"/>
<path d="M165.91 113.938C165.757 113.938 165.634 113.876 165.511 113.784C163.635 112.185 163.328 110.31 164.681 108.465C166.126 106.497 168.032 106.252 170.03 107.727C170.307 107.942 170.368 108.311 170.153 108.588L166.402 113.661C166.31 113.784 166.156 113.876 165.972 113.907H165.91V113.938ZM167.54 108.035C166.863 108.035 166.218 108.434 165.664 109.203C164.834 110.341 164.865 111.355 165.818 112.4L168.77 108.404C168.339 108.158 167.939 108.035 167.54 108.035Z" fill="#A00E2B"/>
<path d="M165.91 113.323C164.957 112.524 164.035 111.294 164.65 109.757L165.91 113.323Z" fill="#AA1136"/>
<path d="M165.91 113.938C165.757 113.938 165.633 113.876 165.51 113.784C163.574 112.155 163.666 110.556 164.096 109.511C164.219 109.203 164.588 109.049 164.896 109.172C165.203 109.295 165.357 109.664 165.234 109.972C164.834 110.956 165.203 111.909 166.31 112.862C166.556 113.077 166.587 113.477 166.371 113.723C166.248 113.876 166.064 113.938 165.91 113.938Z" fill="#560000"/>
<path d="M161.391 110.002C161.145 110.002 160.899 109.849 160.807 109.603C160.345 108.281 159.423 107.942 159.392 107.912C159.239 107.85 159.116 107.758 159.054 107.604C159.054 107.604 158.87 107.266 158.532 107.02C158.255 106.805 158.193 106.436 158.408 106.159C158.624 105.882 158.993 105.821 159.269 106.036C159.669 106.313 159.915 106.651 160.038 106.866C160.438 107.081 161.268 107.604 161.79 108.742C162.559 108.649 164.035 108.526 165.049 108.742C165.388 108.803 165.603 109.141 165.541 109.449C165.48 109.787 165.172 110.002 164.834 109.941C163.666 109.726 161.514 110.033 161.514 110.033C161.514 110.033 161.452 110.033 161.421 110.033L161.391 110.002Z" fill="#380A21"/>
<path d="M165.172 109.572C164.957 109.572 164.742 109.449 164.619 109.234C164.127 108.342 163.82 106.866 163.666 106.128C162.405 105.975 161.667 105.329 161.36 105.022C161.114 104.96 160.714 104.806 160.346 104.53C160.069 104.315 160.007 103.946 160.223 103.669C160.438 103.392 160.807 103.331 161.083 103.546C161.452 103.823 161.79 103.884 161.821 103.884C161.975 103.884 162.129 104.007 162.221 104.13C162.221 104.13 162.836 104.929 164.25 104.96C164.557 104.96 164.804 105.175 164.834 105.483C164.834 105.483 165.172 107.635 165.757 108.68C165.91 108.988 165.818 109.357 165.511 109.51C165.418 109.572 165.326 109.572 165.234 109.572H165.172Z" fill="#380A21"/>
<path d="M166.771 111.294C169.569 113.507 174.673 115.967 174.673 115.967C175.349 113.446 174.457 108.834 169.661 108.25C169.661 108.25 167.54 110.248 166.802 111.294H166.771Z" fill="#DC4942"/>
<path d="M174.672 116.582C174.58 116.582 174.488 116.582 174.396 116.52C174.18 116.428 169.231 113.999 166.402 111.786C166.156 111.57 166.095 111.201 166.279 110.955C167.048 109.879 169.138 107.912 169.231 107.85C169.354 107.727 169.538 107.666 169.723 107.697C171.69 107.912 173.289 108.834 174.273 110.31C175.625 112.278 175.656 114.706 175.257 116.182C175.195 116.367 175.072 116.52 174.918 116.582C174.826 116.613 174.765 116.643 174.672 116.643V116.582ZM167.632 111.171C169.753 112.708 172.797 114.337 174.181 115.045C174.304 113.784 174.088 112.216 173.227 110.955C172.459 109.818 171.321 109.142 169.815 108.896C169.354 109.326 168.278 110.371 167.601 111.171H167.632Z" fill="#840909"/>
<path d="M166.218 112.001C169.138 114.03 173.504 117.504 173.504 117.504C171.291 118.888 167.847 117.75 165.88 113.323C165.88 113.323 165.449 113.015 166.218 112.001Z" fill="#AF0000"/>
<path d="M171.537 118.703C171.075 118.703 170.583 118.642 170.122 118.488C168.185 117.904 166.494 116.182 165.357 113.692C165.265 113.599 165.203 113.415 165.142 113.2C165.08 112.739 165.265 112.247 165.695 111.632C165.879 111.355 166.248 111.294 166.525 111.509C169.446 113.538 173.812 117.012 173.842 117.043C173.996 117.166 174.088 117.35 174.058 117.566C174.058 117.75 173.935 117.934 173.781 118.057C173.104 118.488 172.305 118.703 171.506 118.703H171.537ZM166.402 112.985C166.402 113.015 166.464 113.046 166.464 113.108C167.447 115.321 168.892 116.828 170.491 117.32C171.137 117.504 171.752 117.535 172.336 117.381C171.045 116.366 168.493 114.368 166.433 112.892C166.433 112.923 166.433 112.954 166.433 112.985H166.402Z" fill="#560000"/>
<path d="M71.7084 190.707C70.6323 185.85 68.1113 172.814 69.8023 162.453L34.2921 158.733C30.2338 172.291 28.8195 183.329 29.3422 192.152C41.1174 193.966 55.7212 194.366 71.6777 190.707H71.7084Z" fill="#DDDCFC"/>
<path d="M42.009 175.827C42.009 175.827 38.9345 178.932 38.1659 182.837C38.1659 182.837 33.5849 175.335 33.9538 160.424C30.203 173.183 28.9117 183.667 29.4037 192.152C33.8002 192.829 38.5962 193.321 43.7306 193.444C41.9781 187.325 41.763 180.685 42.009 175.827Z" fill="#9597CF"/>
<path d="M71.739 191.322C71.4623 191.322 71.2164 191.138 71.1549 190.83C70.0173 185.757 67.5271 172.814 69.3718 161.777C69.4333 161.438 69.7406 161.223 70.0788 161.285C70.417 161.346 70.6323 161.654 70.5708 161.992C68.7568 172.814 71.2164 185.573 72.3539 190.554C72.4154 190.892 72.2309 191.199 71.8927 191.292C71.862 191.292 71.8005 191.292 71.7698 191.292L71.739 191.322Z" fill="#191935"/>
<path d="M29.2191 192.767C28.881 192.767 28.635 192.521 28.6042 192.183C28.0816 182.499 29.8648 170.969 33.9846 157.903C34.0768 157.565 34.4457 157.411 34.7532 157.503C35.0914 157.595 35.2451 157.964 35.1528 158.272C31.0945 171.185 29.3114 182.56 29.834 192.122C29.834 192.46 29.5881 192.737 29.2499 192.767C29.2499 192.767 29.2499 192.767 29.2191 192.767Z" fill="#191935"/>
</svg>
