<svg width="256" height="256" viewBox="0 0 256 256" fill="none" xmlns="http://www.w3.org/2000/svg">
<path d="M123.614 158.293L124.353 161.096L80.3953 165.328L103.185 157.225L123.614 158.293Z" fill="#8B8BD1"/>
<path d="M8.45569 172.589L202.848 152.287" stroke="#A6A6E8" stroke-width="1.88114" stroke-linecap="round" stroke-linejoin="round"/>
<path d="M190.16 151.822C188.058 132.314 139.284 123.976 110.15 108.96L95.67 148.478C113.174 155.391 192.539 173.944 190.155 151.817L190.16 151.822Z" fill="#BEBEF4"/>
<path d="M190.16 151.822C188.058 132.314 139.284 123.976 110.15 108.96L95.67 148.478C113.174 155.391 192.539 173.944 190.155 151.817L190.16 151.822Z" stroke="#7481BA" stroke-width="1.88114" stroke-linecap="round" stroke-linejoin="round"/>
<path d="M52.4886 116.733C44.2021 128.966 35.7041 143.653 30.0607 170.464L123.751 158.65C121.301 151.238 119.547 143.333 119.278 134.223C118.822 118.732 127.048 101.821 140.385 92.7913L108.335 71.7413C91.9549 79.7174 65.887 96.9627 52.4886 116.743V116.733Z" fill="#BEBEF4"/>
<path d="M66.155 166.231L124.019 159.534C121.569 152.123 119.551 143.333 119.283 134.219C118.968 123.524 122.791 112.158 129.573 103.171C88.8416 125.288 74.5778 144.546 66.155 166.231Z" fill="#7D7DC6"/>
<path d="M105.588 69.1266C89.2084 77.1026 65.887 96.9533 52.4885 116.734C44.489 128.542 35.784 144.984 30.1077 170.252" stroke="#191935" stroke-width="1.88114" stroke-linecap="round" stroke-linejoin="round"/>
<path d="M118.314 144.165C117.825 141 117.505 137.694 117.402 134.219C116.946 118.728 125.171 101.816 138.508 92.7866" stroke="#78EFC4" stroke-width="1.88114" stroke-linecap="round" stroke-linejoin="round"/>
<path d="M123.751 158.645C121.301 151.234 119.551 143.328 119.278 134.214C118.822 118.723 127.047 101.811 140.385 92.782" stroke="#191935" stroke-width="1.88114" stroke-linecap="round" stroke-linejoin="round"/>
<path d="M194.463 189.849C194.515 191.584 192.629 193.103 189.308 193.479L126.14 200.016C123.906 200.228 121.616 199.696 119.391 198.455C112.694 194.707 96.446 185.517 89.293 181.473C87.2237 180.302 85.7329 179.422 85.526 175.815C85.526 175.815 174.89 186.425 194.458 189.853L194.463 189.849Z" fill="#E3E8FF" stroke="#A6A6E8" stroke-width="1.88114" stroke-linecap="round" stroke-linejoin="round"/>
<path d="M194.124 190.065L125.289 197.256C124.268 197.364 121.31 196.254 118.686 194.782L88.771 177.993C86.1468 176.521 84.8441 175.237 85.8646 175.133L159.069 167.487C160.09 167.378 163.048 168.488 165.672 169.96L191.218 187.206C193.842 188.678 195.145 189.962 194.124 190.065Z" fill="#E3E8FF" stroke="#A6A6E8" stroke-width="1.88114" stroke-linecap="round" stroke-linejoin="round"/>
<path d="M126.525 193.235L111.048 184.69L170.111 178.52L185.584 187.065L126.525 193.235Z" fill="#49488A"/>
<path d="M128.562 179.601C128.28 179.512 119.321 174.56 119.316 174.56L142.764 172.109C143.047 172.199 151.86 177.414 151.864 177.414L128.562 179.601Z" fill="#E3E8FF" stroke="#A6A6E8" stroke-width="1.88114" stroke-linecap="round" stroke-linejoin="round"/>
<path d="M58.7433 109.976C28.0525 123.388 9.10942 145.195 12.5284 159.304L71.7984 154.323C71.7984 154.323 80.7291 136.932 94.7201 125.716" fill="#BEBEF4"/>
<path d="M58.7433 109.976C28.0525 123.388 9.10942 145.195 12.5284 159.304" stroke="#7481BA" stroke-width="1.88114" stroke-linecap="round" stroke-linejoin="round"/>
<path d="M115.384 83.1695C99.4135 89.4666 76.8351 101.092 56.7022 108.739C51.167 113.014 38.1542 117.213 38.1542 117.213C50.5979 116.597 68.243 113.827 77.0326 110.841C87.346 107.337 94.3626 103.796 106.303 100.024C118.244 96.2528 135.701 96.4644 135.701 96.4644C137.182 95.1288 138.743 93.8967 140.385 92.7868L121.009 79.125L115.38 83.1695H115.384Z" fill="#333372"/>
<path d="M56.7022 108.739C51.167 113.014 38.1542 117.213 38.1542 117.213C72.4568 115.473 93.9958 104.384 94.0005 104.379" stroke="#191935" stroke-width="1.88114" stroke-linecap="round" stroke-linejoin="round"/>
<path d="M56.7023 108.739C75.8853 84.4392 105.588 69.1267 105.588 69.1267L134.694 84.6837C68.4312 109.345 56.6976 108.739 56.6976 108.739H56.7023Z" fill="#696FBC"/>
<path d="M56.7023 108.739C75.8852 84.4392 105.588 69.1267 105.588 69.1267" stroke="#191935" stroke-width="1.88114" stroke-linecap="round" stroke-linejoin="round"/>
<path d="M19.6814 140.991C10.4497 148.732 11.2915 157.013 11.2915 157.013C11.2915 157.013 13.9298 152.762 18.1765 150.359" fill="#BEBEF4"/>
<path d="M19.6814 140.991C10.4497 148.732 11.2915 157.013 11.2915 157.013C11.2915 157.013 13.9298 152.762 18.1765 150.359" stroke="#7481BA" stroke-width="1.88114" stroke-linecap="round" stroke-linejoin="round"/>
<path d="M28.2688 131.242C13.6383 138.235 9.11414 149.235 9.11414 149.235C9.11414 149.235 16.8221 144.664 23.1663 142.957" fill="#BEBEF4"/>
<path d="M28.2688 131.242C13.6383 138.235 9.11414 149.235 9.11414 149.235C9.11414 149.235 16.8221 144.664 23.1663 142.957" stroke="#7481BA" stroke-width="1.88114" stroke-linecap="round" stroke-linejoin="round"/>
<path d="M12.5848 159.609C19.578 178.726 62.2893 176.131 84.2234 175.176L82.8783 139.439C82.8783 139.439 77.5641 139.27 56.1003 137.388" fill="#BEBEF4"/>
<path d="M78.3965 161.547C86.1468 168.493 89.3165 175.957 89.3165 175.957C89.3165 175.957 84.5337 175.152 80.1601 174.931" fill="#57539F"/>
<path d="M67.5282 175.486L84.2233 175.171L83.6778 169.932C87.4965 163.372 97.8381 150.735 94.8188 145.999C91.8843 141.395 89.0814 139.472 82.8266 139.133C75.6077 138.743 68.2383 138.113 68.2383 138.113C68.2383 138.113 63.2627 142.359 54.9246 146.329C54.9246 146.329 62.0541 151.394 65.7646 153.148C65.7646 153.148 58.3906 155.951 49.0836 157.357C49.0836 157.357 54.9904 163.09 63.1781 166.076C63.1781 166.076 58.9126 169.551 53.5372 170.191C53.5372 170.191 62.783 175.002 67.5282 175.491" fill="#333372"/>
<path d="M68.2525 137.854C64.7912 137.605 60.7515 137.346 56.0439 137.083" stroke="#7481BA" stroke-width="1.88114" stroke-linecap="round" stroke-linejoin="round"/>
<path d="M12.5284 159.304C17.7157 173.492 42.5797 175.721 64.0246 175.538" stroke="#7481BA" stroke-width="1.88114" stroke-linecap="round" stroke-linejoin="round"/>
<path d="M85.8365 169.97C88.249 173.436 89.3166 175.952 89.3166 175.952C89.3166 175.952 84.5385 175.124 80.1601 174.927C76.934 174.781 71.5116 175.585 64.0247 175.538" stroke="#191935" stroke-width="1.88114" stroke-linecap="round" stroke-linejoin="round"/>
<path d="M87.4589 139.853C87.4589 139.853 83.4803 138.954 68.2524 137.859" stroke="#191935" stroke-width="1.88114" stroke-linecap="round" stroke-linejoin="round"/>
<path d="M180.025 164.632C186.463 161.528 189.054 156.656 189.054 156.656C184.54 157.587 178.487 154.126 178.487 154.126C182.334 153.293 184.775 150.669 184.775 150.669C177.565 150.886 170.177 147.664 170.177 147.664C171.682 144.904 170.981 143.648 170.981 143.648C170.981 143.648 167.285 145.637 162.544 145.858C162.544 145.858 162.544 144.654 162.074 141.174C162.074 141.174 157.677 144.753 149.87 151.647C149.87 151.647 155.062 157.963 160.861 160.635C166.664 163.306 180.025 164.637 180.025 164.637V164.632Z" fill="#57539F"/>
<path d="M162.074 141.17C162.074 141.17 157.677 144.748 149.87 151.643" stroke="#191935" stroke-width="1.88114" stroke-linecap="round" stroke-linejoin="round"/>
<path d="M180.025 164.632C185.927 162.106 189.054 156.656 189.054 156.656L180.025 164.632Z" fill="#57539F"/>
<path d="M180.025 164.632C185.927 162.106 189.054 156.656 189.054 156.656" stroke="#191935" stroke-width="1.88114" stroke-linecap="round" stroke-linejoin="round"/>
<path d="M168.145 167.172C176.056 167.811 180.02 164.632 180.02 164.632C176.93 163.212 175.783 161.566 175.783 161.566C175.651 159.29 175.317 158.401 175.317 158.401C169.622 158.73 169.509 157.573 169.509 157.573L169.373 155.17C166.815 155.363 160.226 154.408 160.226 154.408C161.43 153.101 162.06 151.398 162.06 151.398C162.06 151.398 155.015 151.342 149.87 151.638C149.87 151.638 144.688 155.579 151.648 161.161C158.608 166.744 168.15 167.167 168.15 167.167L168.145 167.172Z" fill="#BEBEF4"/>
<path d="M168.145 167.172C176.056 167.811 180.02 164.632 180.02 164.632" stroke="#7481BA" stroke-width="1.88114" stroke-linecap="round" stroke-linejoin="round"/>
<path d="M149.871 151.643C149.871 151.643 143.014 150.679 137.516 152.405C133.18 153.769 129.089 156.905 129.615 158.975C130.114 160.926 136.994 162.389 139.985 161.975C139.985 161.975 145.939 162.299 150.068 160.95" fill="#BEBEF4"/>
<path d="M149.871 151.643C149.871 151.643 143.014 150.679 137.516 152.405C133.18 153.769 129.089 156.905 129.615 158.975C130.114 160.926 136.994 162.389 139.985 161.975C139.985 161.975 145.939 162.299 150.068 160.95" stroke="#7481BA" stroke-width="1.88114" stroke-linecap="round" stroke-linejoin="round"/>
<path d="M129.62 158.975C130.114 160.898 136.81 162.351 139.863 161.989C140.352 158.119 138.828 154.61 137.516 152.405C133.161 153.703 129.088 156.905 129.615 158.975H129.62Z" fill="#3F3E77"/>
<path d="M137.516 152.405C133.161 153.703 129.088 156.905 129.615 158.975C130.109 160.898 136.806 162.351 139.858 161.989" stroke="#191935" stroke-width="1.88114" stroke-linecap="round" stroke-linejoin="round"/>
<path d="M129.62 158.974C130.114 160.898 136.81 162.351 139.863 161.989" stroke="#85DDC0" stroke-width="1.88114" stroke-linecap="round" stroke-linejoin="round"/>
<path d="M150.867 155.269C150.867 155.269 144.424 157.771 142.661 162.031C141.104 165.794 142.703 173.821 145.158 173.93C147.472 174.033 150.834 169.025 152.56 165.29C152.56 165.29 156.421 163.753 158.904 161.1" fill="#BEBEF4"/>
<path d="M150.867 155.269C150.867 155.269 144.424 157.771 142.661 162.031C141.104 165.794 142.703 173.821 145.158 173.93C147.472 174.033 150.834 169.025 152.56 165.29C152.56 165.29 156.421 163.753 158.904 161.1" stroke="#7481BA" stroke-width="1.88114" stroke-linecap="round" stroke-linejoin="round"/>
<path d="M142.045 165.582C141.984 169.405 143.333 173.854 145.153 173.934C147.058 174.019 149.668 170.647 151.497 167.369C150.021 166.396 146.625 164.684 142.045 165.582Z" fill="#3F3E77"/>
<path d="M142.045 165.582C141.984 169.405 143.333 173.854 145.153 173.934C147.058 174.019 149.668 170.647 151.497 167.369" stroke="#85DDC0" stroke-width="1.88114" stroke-linecap="round" stroke-linejoin="round"/>
<path d="M158.716 159.694C154.333 161.223 152.49 163.09 152.099 164.759C151.709 166.429 152.175 175.665 155.297 175.91C158.42 176.154 161.054 168.935 161.054 168.935C164.778 169.025 168.145 167.172 168.145 167.172" fill="#BEBEF4"/>
<path d="M158.716 159.694C154.333 161.223 152.49 163.09 152.099 164.759C151.709 166.429 152.175 175.665 155.297 175.91C158.42 176.154 161.054 168.935 161.054 168.935C164.778 169.025 168.145 167.172 168.145 167.172" stroke="#7481BA" stroke-width="1.88114" stroke-linecap="round" stroke-linejoin="round"/>
<path d="M152.038 168.014C152.259 171.301 153.148 175.736 155.302 175.91C158.425 176.159 161.058 168.935 161.058 168.935C158.133 167.219 154.437 167.529 152.043 168.014H152.038Z" fill="#3F3E77"/>
<path d="M152.038 168.014C152.259 171.301 153.148 175.736 155.302 175.91C158.425 176.159 161.058 168.935 161.058 168.935" stroke="#191935" stroke-width="1.88114" stroke-linecap="round" stroke-linejoin="round"/>
<path d="M86.8993 143.45C82.5538 144.913 79.1302 149.174 79.1302 149.174C81.585 148.929 83.0429 150.143 83.0429 150.143C78.9656 151.756 75.7911 154.61 75.7911 154.61C80.1789 156.886 83.5461 160.78 83.5461 160.78C80.4893 163.541 79.5581 165.888 79.5581 165.888C81.7308 167.938 85.1122 171.479 85.1122 171.479C95.1104 170.148 95.9523 163.456 103.359 165.319C103.359 165.319 127.428 151.963 115.784 143.008C108.641 137.515 83.4427 141.202 83.4427 141.202C84.8018 142.552 86.904 143.45 86.904 143.45H86.8993Z" fill="#BEBEF4"/>
<path d="M85.1122 171.484C93.662 170.346 95.5149 165.29 100.505 165.008" stroke="#7481BA" stroke-width="1.88114" stroke-linecap="round" stroke-linejoin="round"/>
<path d="M111.509 140.864C100.749 139.035 83.438 141.207 83.438 141.207" stroke="#7481BA" stroke-width="1.88114" stroke-linecap="round" stroke-linejoin="round"/>
<path d="M111.387 151.041C114.971 150.006 117.872 150.307 118.658 150.429C121.893 150.947 126.06 153.087 127.598 151.709C129.601 149.907 126.417 140.892 118.813 139.66C115.751 139.166 111.486 139.745 107.037 141.593" fill="#BEBEF4"/>
<path d="M111.387 151.041C114.971 150.006 117.872 150.307 118.658 150.429C121.893 150.947 126.06 153.087 127.598 151.709C129.601 149.907 126.417 140.892 118.813 139.66C115.751 139.166 111.486 139.745 107.037 141.593" stroke="#7481BA" stroke-width="1.88114" stroke-linecap="round" stroke-linejoin="round"/>
<path d="M118.657 150.434C121.893 150.951 126.06 153.091 127.598 151.713C128.98 150.472 127.941 145.463 124.113 142.204C119.833 144.697 118.657 150.434 118.657 150.434Z" fill="#3F3E77"/>
<path d="M118.657 150.434C121.893 150.951 126.06 153.091 127.598 151.713C128.98 150.472 127.941 145.463 124.113 142.204" stroke="#191935" stroke-width="1.88114" stroke-linecap="round" stroke-linejoin="round"/>
<path d="M118.657 150.434C121.893 150.951 126.06 153.091 127.598 151.713C128.091 151.266 128.279 150.335 128.134 149.174" stroke="#85DDC0" stroke-width="1.88114" stroke-linecap="round" stroke-linejoin="round"/>
<path d="M109.487 158.824C112.563 159.967 115.554 166.335 118.084 165.935C120.393 165.568 122.735 158.09 118.479 152.372C116.541 149.771 112.577 146.917 107.865 147.697" fill="#BEBEF4"/>
<path d="M109.487 158.824C112.563 159.967 115.554 166.335 118.084 165.935C120.393 165.568 122.735 158.09 118.479 152.372C116.541 149.771 112.577 146.917 107.865 147.697" stroke="#7481BA" stroke-width="1.88114" stroke-linecap="round" stroke-linejoin="round"/>
<path d="M111.274 160.005C113.71 162.196 116.048 166.259 118.084 165.935C119.918 165.643 121.766 160.875 120.327 156.059C116.72 156.529 113.292 158.58 111.274 160.005Z" fill="#3F3E77"/>
<path d="M111.274 160.005C113.71 162.196 116.048 166.259 118.084 165.935C119.918 165.643 121.766 160.875 120.327 156.059" stroke="#191935" stroke-width="1.88114" stroke-linecap="round" stroke-linejoin="round"/>
<path d="M116.104 165.154C116.791 165.714 117.449 166.034 118.084 165.935C119.918 165.643 121.766 160.875 120.327 156.059" stroke="#85DDC0" stroke-width="1.88114" stroke-linecap="round" stroke-linejoin="round"/>
<path d="M97.9275 165.14C99.9873 165.643 103.416 165.098 103.416 165.098C106.802 166.001 108.57 169.448 110.254 168.959C112.445 168.324 114.895 161.721 111.368 157.314C110.63 156.393 107.103 153.007 101.52 154.065" fill="#BEBEF4"/>
<path d="M97.9275 165.14C99.9873 165.643 103.416 165.098 103.416 165.098C106.802 166.001 108.57 169.448 110.254 168.959C112.445 168.324 114.895 161.721 111.368 157.314C110.63 156.393 107.103 153.007 101.52 154.065" stroke="#7481BA" stroke-width="1.88114" stroke-linecap="round" stroke-linejoin="round"/>
<path d="M112.704 159.788C109.351 160.95 105.485 163.362 103.374 165.093C106.783 165.977 108.561 169.453 110.259 168.963C112.064 168.441 114.049 163.856 112.704 159.788Z" fill="#3F3E77"/>
<path d="M103.374 165.093C106.783 165.977 108.561 169.453 110.259 168.963C112.064 168.441 114.049 163.856 112.704 159.788" stroke="#191935" stroke-width="1.88114" stroke-linecap="round" stroke-linejoin="round"/>
<path d="M108.062 168.046C108.876 168.71 109.572 169.161 110.258 168.963C112.064 168.441 114.049 163.856 112.704 159.788" stroke="#85DDC0" stroke-width="1.88114" stroke-linecap="round" stroke-linejoin="round"/>
<path d="M224.119 152.282L209.799 115.628L66.155 162.746L127.24 195.826L224.119 152.282Z" fill="url(#paint0_linear_1604_4363)"/>
<path d="M195.018 189.98L129.272 196.325C127.269 196.513 126.436 195.511 127.405 194.081L151.122 159.304C152.095 157.879 154.503 156.571 156.506 156.383L222.252 150.039C224.256 149.851 225.088 150.853 224.119 152.282L200.403 187.06C199.429 188.485 197.021 189.792 195.018 189.98Z" fill="#E3E8FF"/>
<path d="M195.018 189.98L129.272 196.325C127.269 196.513 126.436 195.511 127.405 194.081L151.122 159.304C152.095 157.879 154.503 156.571 156.506 156.383L222.252 150.039C224.256 149.851 225.088 150.853 224.119 152.282L200.403 187.06C199.429 188.485 197.021 189.792 195.018 189.98Z" stroke="#A6A6E8" stroke-width="1.88114" stroke-linecap="round" stroke-linejoin="round"/>
<path d="M169.519 172.622C168.814 173.657 167.661 174.423 166.293 174.828C167.257 175.016 167.454 175.651 166.749 176.685L164.811 179.531C164.36 180.194 164.6 180.485 165.559 180.396L166.909 180.269L165.95 181.671L163.927 181.859C162.037 182.037 161.383 181.285 162.3 179.935L164.59 176.573C165.042 175.91 164.816 175.599 163.885 175.688L162.926 175.778L163.857 174.409L164.816 174.32C165.747 174.231 166.457 173.836 166.909 173.172L169.213 169.791C170.13 168.441 171.969 167.459 173.86 167.28L175.882 167.092L174.923 168.493L173.573 168.62C172.614 168.709 171.922 169.086 171.466 169.749L169.514 172.613L169.519 172.622Z" fill="#503CBC"/>
<path d="M194.336 171.559L195.295 171.47L194.364 172.839L193.405 172.928C192.474 173.017 191.764 173.408 191.312 174.075L189.022 177.438C188.105 178.788 186.266 179.771 184.347 179.949L182.353 180.137L183.313 178.736L184.634 178.614C185.593 178.524 186.285 178.148 186.741 177.485L188.678 174.64C189.384 173.605 190.564 172.839 191.905 172.434C190.964 172.246 190.743 171.611 191.448 170.576L193.4 167.712C193.852 167.049 193.612 166.758 192.652 166.847L191.331 166.969L192.29 165.568L194.284 165.38C196.203 165.201 196.857 165.954 195.935 167.299L193.631 170.68C193.179 171.343 193.405 171.653 194.336 171.564V171.559Z" fill="#503CBC"/>
<path d="M181.304 170.407C183.228 170.228 183.811 171.517 182.602 173.285C181.394 175.058 178.854 176.638 176.931 176.817C175.007 176.996 174.424 175.707 175.633 173.939C176.841 172.166 179.381 170.586 181.304 170.407Z" fill="#54525D"/>
<g opacity="0.7">
<path d="M174.749 170.793C174.885 170.694 174.955 170.642 175.021 170.605C175.318 170.426 175.666 170.341 175.896 170.384C175.948 170.393 175.995 170.412 176.084 170.454L177.1 170.906C177.194 170.948 177.241 170.967 177.269 170.99C177.401 171.103 177.335 171.315 177.1 171.522C177.048 171.569 176.982 171.616 176.841 171.715C176.705 171.813 176.634 171.865 176.569 171.903C176.272 172.081 175.924 172.166 175.694 172.124C175.642 172.114 175.595 172.096 175.506 172.053L174.49 171.602C174.396 171.559 174.349 171.541 174.321 171.517C174.189 171.404 174.255 171.193 174.49 170.986C174.542 170.939 174.607 170.892 174.749 170.793Z" fill="#54525D"/>
<path d="M171.993 174.09C171.95 174.137 171.913 174.188 171.842 174.296C171.772 174.405 171.734 174.456 171.715 174.499C171.626 174.701 171.743 174.837 172.007 174.847C172.063 174.847 172.139 174.842 172.289 174.828L173.328 174.729C173.479 174.715 173.554 174.71 173.625 174.696C173.94 174.63 174.274 174.452 174.466 174.24C174.509 174.193 174.546 174.141 174.617 174.033C174.687 173.925 174.725 173.873 174.744 173.831C174.833 173.629 174.716 173.492 174.452 173.483C174.396 173.483 174.321 173.488 174.17 173.502L173.131 173.6C172.98 173.615 172.905 173.619 172.835 173.633C172.519 173.699 172.186 173.878 171.993 174.09Z" fill="#54525D"/>
<path d="M183.778 172.984C183.736 173.031 183.698 173.083 183.628 173.191C183.557 173.299 183.519 173.351 183.501 173.394C183.411 173.596 183.529 173.732 183.792 173.742C183.849 173.742 183.924 173.737 184.074 173.723L185.114 173.624C185.264 173.61 185.339 173.605 185.41 173.591C185.725 173.525 186.059 173.346 186.252 173.135C186.294 173.088 186.332 173.036 186.402 172.928C186.473 172.82 186.51 172.768 186.529 172.726C186.619 172.523 186.501 172.387 186.238 172.378C186.181 172.378 186.106 172.382 185.955 172.397L184.916 172.495C184.766 172.509 184.69 172.514 184.62 172.528C184.305 172.594 183.971 172.773 183.778 172.984Z" fill="#54525D"/>
<path d="M181.384 175.51C181.248 175.609 181.177 175.66 181.126 175.703C180.895 175.91 180.825 176.121 180.956 176.234C180.985 176.258 181.032 176.281 181.126 176.319L182.141 176.77C182.236 176.813 182.283 176.831 182.33 176.841C182.555 176.883 182.903 176.798 183.204 176.62C183.27 176.582 183.341 176.53 183.477 176.432C183.613 176.333 183.684 176.281 183.736 176.239C183.966 176.032 184.037 175.82 183.905 175.707C183.877 175.684 183.83 175.66 183.736 175.623L182.72 175.171C182.626 175.129 182.579 175.11 182.532 175.101C182.306 175.058 181.958 175.143 181.657 175.322C181.591 175.359 181.521 175.411 181.384 175.51Z" fill="#54525D"/>
<path d="M170.046 177.692C170.032 177.607 170.027 177.565 170.036 177.523C170.074 177.335 170.304 177.109 170.62 176.954C170.69 176.921 170.77 176.888 170.939 176.822L172.75 176.107C172.915 176.041 172.999 176.008 173.07 175.99C173.394 175.895 173.662 175.924 173.742 176.065C173.761 176.098 173.766 176.14 173.78 176.225C173.794 176.309 173.799 176.352 173.789 176.394C173.752 176.582 173.521 176.808 173.206 176.963C173.136 176.996 173.056 177.029 172.886 177.095L171.076 177.81C170.911 177.875 170.826 177.908 170.756 177.927C170.431 178.021 170.163 177.993 170.083 177.852C170.065 177.819 170.06 177.777 170.046 177.692Z" fill="#54525D"/>
<path d="M184.446 170.84C184.437 170.882 184.446 170.925 184.455 171.009C184.469 171.094 184.474 171.136 184.493 171.169C184.573 171.31 184.841 171.338 185.165 171.244C185.236 171.226 185.321 171.193 185.485 171.127L187.296 170.412C187.46 170.346 187.545 170.313 187.616 170.28C187.931 170.125 188.161 169.899 188.199 169.711C188.208 169.669 188.199 169.627 188.189 169.542C188.175 169.457 188.171 169.415 188.152 169.382C188.072 169.241 187.804 169.213 187.479 169.307C187.409 169.326 187.324 169.358 187.159 169.424L185.349 170.139C185.184 170.205 185.1 170.238 185.029 170.271C184.714 170.426 184.484 170.652 184.446 170.84Z" fill="#54525D"/>
</g>
<path d="M141.184 86.9175C136.961 90.1766 131.332 88.9209 131.332 88.9209" stroke="#191935" stroke-width="1.41086" stroke-linecap="round" stroke-linejoin="round"/>
<path opacity="0.16" d="M160.866 67.1844C161.764 66.5965 170.699 66.3896 174.02 67.6593C177.34 68.9291 176.686 84.773 175.604 85.817C174.466 86.9175 164.703 87.5665 163.81 87.3502C162.916 87.1338 158.194 68.9385 160.866 67.1844Z" fill="#DEF5FF"/>
<path d="M160.866 67.1844C161.764 66.5965 170.699 66.3896 174.02 67.6593C177.34 68.9291 176.686 84.773 175.604 85.817C174.466 86.9175 164.703 87.5665 163.81 87.3502C162.916 87.1338 158.194 68.9385 160.866 67.1844Z" stroke="black" stroke-width="1.88114" stroke-linecap="round" stroke-linejoin="round"/>
<path d="M98.3835 82.0264C98.3835 82.0264 106.91 66.7515 117.421 62.66C127.123 58.8883 139.359 60.6942 152.325 64.6776C197.43 78.5463 233.934 123.176 245.475 146.865C251.856 159.967 242.234 157.94 233.153 149.832C178.134 100.701 148.243 133.325 108.998 100.49" fill="#696FBC"/>
<path d="M238.237 134.943C229.471 132.389 222.986 135.488 218.405 137.957C218.405 137.957 229.894 146.883 234.611 150.914C246.49 161.067 249.204 154.638 247.012 149.573C245.244 145.491 241.303 140.657 238.232 134.943H238.237Z" fill="#333372"/>
<path d="M145.887 63.1539C202.853 76.5382 240.842 137.661 246.171 148.849C246.171 148.849 248.108 155.071 245.395 156.421C242.253 144.88 209.691 86.8093 145.882 63.1586L145.887 63.1539Z" fill="#8588D1" stroke="#8588D1" stroke-width="1.88114" stroke-linecap="round" stroke-linejoin="round"/>
<path d="M207.207 129.154C168.479 107.873 144.156 125.471 111.349 100.49" stroke="#78EFC4" stroke-width="1.88114" stroke-linecap="round" stroke-linejoin="round"/>
<path d="M212.366 132.615C178.116 106.223 143.639 122.969 111.349 100.49" stroke="#78EFC4" stroke-width="1.88114" stroke-linecap="round" stroke-linejoin="round"/>
<path d="M98.3835 82.0264C98.3835 82.0264 106.91 66.7515 117.421 62.66C127.123 58.8883 139.359 60.6942 152.325 64.6776C197.43 78.5463 233.934 123.176 245.475 146.865C251.856 159.967 242.234 157.94 233.153 149.832C178.134 100.701 148.243 133.325 108.998 100.49" stroke="#191935" stroke-width="1.88114" stroke-linecap="round" stroke-linejoin="round"/>
<path d="M148.539 67.1984C148.539 67.1984 149.687 64.4472 150.731 64.1086C151.775 63.77 157.306 63.6477 158.284 64.2215C159.262 64.7952 160.861 67.1842 160.861 67.1842" stroke="black" stroke-width="1.88114" stroke-linecap="round" stroke-linejoin="round"/>
<path d="M113.752 72.6161C113.752 72.6161 100.514 63.3609 97.0291 63.6102C95.9286 63.6901 91.4891 68.4447 90.7132 73.0159C89.8949 77.8504 92.8059 82.525 94.2403 82.9577C96.6764 83.6913 102.042 82.3557 102.042 82.3557" fill="#A9A9E0"/>
<path d="M113.752 72.6161C113.752 72.6161 100.514 63.3609 97.0291 63.6102C95.9286 63.6901 91.4891 68.4447 90.7132 73.0159C89.8949 77.8504 92.8059 82.525 94.2403 82.9577C96.6764 83.6913 102.042 82.3557 102.042 82.3557" stroke="#373772" stroke-width="1.88114" stroke-linecap="round" stroke-linejoin="round"/>
<path d="M104.464 70.4763C99.6391 66.5776 95.4159 69.3429 95.4159 69.3429C97.3723 70.0201 98.9054 71.2429 98.9054 71.2429C96.4458 72.7243 95.129 75.3626 95.129 75.3626C95.129 75.3626 97.1795 75.3955 98.4398 75.2168C98.4398 75.2168 98.7314 76.7546 99.2675 78.0808C99.2675 78.0808 105.419 76.1668 107.211 75.1415C107.211 75.1415 106.505 72.1317 104.464 70.481V70.4763Z" fill="#5056A0"/>
<path d="M108.335 76.0822C108.335 76.0822 104.756 67.2784 95.2889 64.847" stroke="#373772" stroke-width="1.88114" stroke-linecap="round" stroke-linejoin="round"/>
<path d="M236.384 145.858C237.847 148.388 239.817 149.489 241.251 150.519C242.065 151.102 241.251 152.395 240.047 151.436C237.452 149.362 236.379 145.854 236.379 145.854L236.384 145.858Z" fill="black" stroke="black" stroke-width="1.88114" stroke-linecap="round" stroke-linejoin="round"/>
<path d="M130.321 106.223C130.321 106.223 140.432 113.719 154.996 118.036" stroke="#191935" stroke-width="1.88114" stroke-linecap="round" stroke-linejoin="round"/>
<path d="M141.814 58.4369C139.279 56.9743 135.386 57.9666 131.492 56.7203" stroke="#191935" stroke-width="2.82171" stroke-linecap="round" stroke-linejoin="round"/>
<path d="M161.148 56.316C158.213 56.7158 155.66 54.4349 152.993 58.1078" stroke="#191935" stroke-width="2.82171" stroke-linecap="round" stroke-linejoin="round"/>
<path d="M133.081 104.215C130.09 107.074 126.54 107.605 126.54 107.605" stroke="#191935" stroke-width="1.88114" stroke-linecap="round" stroke-linejoin="round"/>
<path d="M138.452 73.9188C128.218 72.0518 123.422 89.9085 136.082 90.8867C148.742 91.8649 147.938 75.6542 138.452 73.9188Z" fill="white"/>
<path d="M138.899 81.6172C132.206 80.8083 130.518 92.9323 138.066 93.2944C145.614 93.6565 145.106 82.3697 138.899 81.6172Z" fill="#1A1A21"/>
<path d="M132.663 75.3625C136.834 73.0205 141.805 75.259 141.805 75.259" stroke="#191935" stroke-width="1.41086" stroke-linecap="round" stroke-linejoin="round"/>
<path d="M130.725 89.1841C133.942 91.1781 139.844 91.418 143.912 88.2341C144.636 98.0302 131.383 98.6415 130.725 89.1841Z" fill="#696FBC"/>
<path d="M143.917 88.2341C139.844 91.418 133.947 91.1781 130.73 89.1841" stroke="#191935" stroke-width="1.41086" stroke-linecap="round" stroke-linejoin="round"/>
<path d="M148.539 67.1983C137.144 64.8328 127.24 71.271 123.2 74.4454C121.964 75.4142 121.286 76.905 121.427 78.4005C121.851 82.967 122.862 87.6981 123.699 91.0653C124.447 94.0798 127.24 96.1162 130.466 95.9704C138.762 95.5942 145.186 92.2034 148.93 89.6168C151.272 87.9991 152.57 85.3043 152.311 82.6002C151.187 70.9653 148.539 67.1983 148.539 67.1983Z" fill="url(#paint1_linear_1604_4363)"/>
<path d="M148.539 67.1983C137.144 64.8328 127.24 71.271 123.2 74.4454C121.964 75.4142 121.286 76.905 121.427 78.4005C121.851 82.967 122.862 87.6981 123.699 91.0653C124.447 94.0798 127.24 96.1162 130.466 95.9704C138.762 95.5942 145.186 92.2034 148.93 89.6168C151.272 87.999 152.57 85.3043 152.311 82.6002C151.187 70.9653 148.539 67.1983 148.539 67.1983Z" stroke="black" stroke-width="1.88114" stroke-linecap="round" stroke-linejoin="round"/>
<path d="M127.109 95.2792C128.11 95.773 129.262 96.0269 130.471 95.9705C138.767 95.5943 145.191 92.2035 148.934 89.6169" stroke="#85DDC0" stroke-width="1.88114" stroke-linecap="round" stroke-linejoin="round"/>
<path opacity="0.3" d="M154.87 70.2928C157.625 71.6661 158.491 73.8999 158.491 73.8999" stroke="#191935" stroke-width="1.41086" stroke-linecap="round" stroke-linejoin="round"/>
<path opacity="0.3" d="M158.726 70.2928C159.944 71.4874 162.493 73.1757 162.493 73.1757" stroke="#191935" stroke-width="1.41086" stroke-linecap="round" stroke-linejoin="round"/>
<path d="M138.673 83.4515C139.294 82.3839 142.496 84.6695 141.603 85.8311C140.789 86.8893 138.137 84.3779 138.673 83.4515Z" fill="white"/>
<defs>
<linearGradient id="paint0_linear_1604_4363" x1="158.632" y1="182.103" x2="143.315" y2="150.279" gradientUnits="userSpaceOnUse">
<stop stop-color="#85DDC0"/>
<stop offset="1" stop-color="#85DDC0" stop-opacity="0"/>
</linearGradient>
<linearGradient id="paint1_linear_1604_4363" x1="135.367" y1="89.8849" x2="138.165" y2="73.0111" gradientUnits="userSpaceOnUse">
<stop stop-color="#85DDC0" stop-opacity="0.5"/>
<stop offset="1" stop-color="#85DDC0" stop-opacity="0.1"/>
</linearGradient>
</defs>
</svg>
