<svg width="261" height="256" viewBox="0 0 261 256" fill="none" xmlns="http://www.w3.org/2000/svg">
<path d="M170.692 94.8583C182.017 111.903 198.808 122.937 208.617 116.849C218.425 110.761 224.376 119.898 222.305 124.677C220.235 129.455 203.394 160.139 166.989 159.759C126.673 159.336 152.979 68.1975 170.696 94.8618L170.692 94.8583Z" fill="#9597CF"/>
<path d="M204.069 137.345C204.069 137.345 217.86 130.45 223.549 122.48C220.913 119.874 213.168 114.02 208.613 116.849C198.808 122.941 182.014 111.903 170.689 94.8583C169.629 93.2621 168.537 92.092 167.431 91.2957C165.742 112.05 180.017 128.823 197.462 137.813C197.462 137.813 205.705 133.094 206.938 130.869C206.938 130.869 206.313 133.671 204.069 137.345Z" fill="#DDDCFC"/>
<path d="M170.692 94.8583C182.017 111.903 198.808 122.937 208.617 116.849C218.425 110.761 224.376 119.898 222.305 124.677C220.235 129.455 203.394 160.139 166.989 159.759C126.673 159.336 152.979 68.1975 170.696 94.8618L170.692 94.8583Z" stroke="#191935" stroke-width="1.40576" stroke-linecap="round" stroke-linejoin="round"/>
<path d="M170.692 94.8582C182.017 111.903 198.808 122.937 208.617 116.849" stroke="#7481BA" stroke-width="1.40576" stroke-linecap="round" stroke-linejoin="round"/>
<path d="M211.041 139.172C207.853 144.554 205.486 154.418 205.486 154.418C203.843 150.017 203.536 147.031 203.536 147.031" fill="#9597CF"/>
<path d="M211.041 139.172C207.853 144.554 205.486 154.418 205.486 154.418C203.843 150.017 203.536 147.031 203.536 147.031" stroke="#191935" stroke-width="1.40576" stroke-linecap="round" stroke-linejoin="round"/>
<path d="M205.638 143.636C202.454 155.106 194.681 158.529 194.681 158.529C194.681 158.529 197.642 153.985 198.405 149.65" fill="#9597CF"/>
<path d="M205.638 143.636C202.454 155.106 194.681 158.529 194.681 158.529C194.681 158.529 197.642 153.985 198.405 149.65" stroke="#191935" stroke-width="1.40576" stroke-linecap="round" stroke-linejoin="round"/>
<path d="M196.419 182.525C198.211 170.024 191.395 155.668 180.593 139.098H156.481C156.481 139.098 126.355 184.82 144.595 203.153C144.595 203.153 149.601 204.334 155.757 200.845C155.757 200.845 155.785 202.249 154.619 203.883C154.619 203.883 159.643 204.215 163.937 201.582C163.937 201.582 168.731 203.981 176.646 203.761C184.667 203.541 193.858 200.429 196.423 182.521L196.419 182.525Z" fill="#49488A"/>
<path d="M163.933 201.585C163.933 201.585 168.728 203.985 176.643 203.765C182.551 203.601 189.091 201.868 193.154 193.814C185.286 154.362 155.287 161.631 144.563 162.067C138.803 176.238 134.987 193.496 144.595 203.157C144.595 203.157 149.601 204.338 155.757 200.848C155.757 200.848 155.785 202.253 154.619 203.887C154.619 203.887 159.643 204.219 163.937 201.585H163.933Z" fill="#333476"/>
<path d="M196.419 182.525C198.211 170.024 191.395 155.668 180.593 139.098H156.481C156.481 139.098 126.355 184.82 144.595 203.153C144.595 203.153 149.601 204.334 155.757 200.845C155.757 200.845 155.785 202.249 154.619 203.883C154.619 203.883 159.643 204.215 163.937 201.582C163.937 201.582 168.731 203.981 176.646 203.761C184.667 203.541 193.858 200.429 196.423 182.521L196.419 182.525Z" stroke="#191935" stroke-width="1.40576" stroke-linecap="round" stroke-linejoin="round"/>
<path d="M161.898 200.062C161.898 200.062 162.52 204.785 165.975 207.135C169.431 209.486 182.855 209.318 186.197 208.983L193.034 203.153L193.32 200.038C184.469 199.944 161.894 200.062 161.894 200.062H161.898Z" fill="#333476"/>
<path d="M161.898 200.062C161.898 200.062 162.52 204.785 165.975 207.135C169.431 209.486 182.855 209.318 186.197 208.983L193.034 203.153L193.321 200.038C191.596 200.02 189.353 200.01 186.858 200.003" stroke="#191935" stroke-width="1.40576" stroke-linecap="round" stroke-linejoin="round"/>
<path d="M192.388 200.038C192.388 200.038 195.836 199.619 197.486 200.401C199.137 201.184 202.44 207.974 201.758 208.658C201.076 209.343 196.645 208.337 192.388 206.503" fill="#333476"/>
<path d="M195.872 207.813C198.808 208.763 201.267 209.154 201.762 208.658C202.189 208.229 201.052 205.399 199.734 203.157C197.624 204.205 196.37 206.65 195.872 207.816V207.813Z" fill="#232355"/>
<path d="M192.388 200.038C192.388 200.038 195.836 199.619 197.486 200.401C199.137 201.184 202.44 207.974 201.758 208.658C201.076 209.343 196.645 208.337 192.388 206.503" stroke="#0C0C1C" stroke-width="1.40576" stroke-linecap="round" stroke-linejoin="round"/>
<path d="M191.098 201.323C191.098 201.323 194.01 201.491 194.925 202.116C195.84 202.741 201.295 209.336 200.002 210.956C198.709 212.577 186.861 206.14 186.861 206.14" fill="#333476"/>
<path d="M200.002 210.953C200.857 209.881 198.755 206.629 196.971 204.373C195.953 204.879 193.674 206.353 193.529 209.409C196.469 210.698 199.394 211.711 200.002 210.95V210.953Z" fill="#232355"/>
<path d="M191.098 201.323C191.098 201.323 194.01 201.491 194.925 202.116C195.84 202.741 201.295 209.336 200.002 210.956C198.709 212.577 186.861 206.14 186.861 206.14" stroke="#0C0C1C" stroke-width="1.40576" stroke-linecap="round" stroke-linejoin="round"/>
<path d="M185.066 208.564C185.066 208.564 191.278 211.756 192.211 210.764C193.144 209.772 190.306 205.511 186.575 203.772" fill="#333476"/>
<path d="M187.307 209.622C189.186 210.447 191.649 211.362 192.211 210.764C192.808 210.129 191.861 208.159 190.126 206.364C188.381 207.031 187.621 208.613 187.307 209.622Z" fill="#232355"/>
<path d="M185.066 208.564C185.066 208.564 191.278 211.756 192.211 210.764C193.144 209.772 190.306 205.511 186.575 203.772" stroke="#0C0C1C" stroke-width="1.40576" stroke-linecap="round" stroke-linejoin="round"/>
<path d="M196.048 175.26C198.79 183.677 196.706 193.147 196.706 193.147C195.762 187.359 194.699 185.172 194.699 185.172" fill="#49488A"/>
<path d="M196.048 175.26C198.79 183.677 196.706 193.147 196.706 193.147C195.762 187.359 194.699 185.172 194.699 185.172" stroke="#191935" stroke-width="1.40576" stroke-linecap="round" stroke-linejoin="round"/>
<path d="M166.982 57.2334C156.622 61.2886 141.478 72.1792 132.387 83.4855C123.295 94.7918 112.638 113.562 109.642 151.295C107.352 180.129 117.497 200.206 138.019 202.018C158.541 203.831 179.766 181.337 182.515 155.826C185.264 130.314 171.268 118.868 172.3 97.1041C172.742 87.7433 178.547 77.9319 187.098 73.1013L166.982 57.2369V57.2334Z" fill="#DDDCFC"/>
<path d="M138.019 202.015C158.541 203.828 179.766 181.334 182.515 155.822C184.498 137.422 177.77 126.339 174.254 113.426L114.744 119.951C112.437 128.652 110.624 138.969 109.645 151.296C107.356 180.129 117.5 200.206 138.022 202.018L138.019 202.015Z" fill="#5B56A4"/>
<path d="M112.476 180.349C116.79 192.958 125.461 200.908 138.019 202.015C153.354 203.37 173.47 189.29 180.816 164.69C171.219 182.954 138.4 192.127 112.476 180.349Z" fill="#333476"/>
<path d="M131.793 156.811C158.039 151.449 167.113 136.978 175.696 118.187C173.583 111.746 171.919 105.124 172.3 97.1007C172.608 90.6389 175.466 83.9641 180.021 78.8611C143.312 100.625 146.432 130.108 131.793 156.814V156.811Z" fill="#8B8BD1"/>
<path d="M166.982 57.2334C156.622 61.2886 141.478 72.1792 132.387 83.4855C123.295 94.7918 112.638 113.562 109.642 151.295C107.352 180.129 117.497 200.206 138.019 202.018C158.541 203.831 179.766 181.337 182.515 155.826C185.264 130.314 171.268 118.868 172.3 97.1041C172.742 87.7433 178.547 77.9319 187.098 73.1013" stroke="#191935" stroke-width="1.40576" stroke-linecap="round" stroke-linejoin="round"/>
<path d="M87.763 169.277C65.9724 173.395 54.4958 156.164 35.2563 156.269C16.0168 156.374 4.64628 179.594 8.89699 194.621C13.1477 209.647 24.2038 217.114 24.2038 217.114C22.9282 214.268 24.1649 209.821 24.1649 209.821C24.1649 209.821 41.3232 215.392 65.0184 212.692C73.7353 213.216 76.4985 212.692 76.4985 212.692C74.1593 209.434 75.1169 202.605 75.1169 202.605C78.092 208.7 80.8552 210.59 80.8552 210.59C79.7916 200.083 81.2792 191.047 87.869 188.84C94.4589 186.632 107.427 195.878 107.427 195.878L111.889 144.198C111.889 144.198 100.664 166.835 87.763 169.277Z" fill="#6D6FBF"/>
<path d="M109.642 170.251C102.54 179.231 92.9678 182.874 92.9678 182.874C93.2151 178.997 92.671 176.933 92.671 176.933C84.6536 190.803 66.8734 196.028 66.8734 196.028C55.1036 197.488 49.7505 195.298 49.7505 195.298C51.0437 198.581 54.0188 200.282 54.0188 200.282C42.4151 198.393 32.5992 189.318 32.5992 189.318C32.5992 194.739 34.8959 200.282 34.8959 200.282C22.4477 196.22 11.0347 188.194 12.0488 172.022C12.0418 172.036 12.0347 172.05 12.0276 172.06C8.26099 179.322 6.97836 187.813 8.90408 194.621C13.1548 209.647 24.2109 217.114 24.2109 217.114C22.9353 214.268 24.172 209.821 24.172 209.821C24.172 209.821 41.3303 215.392 65.0254 212.692C73.7424 213.216 76.5055 212.692 76.5055 212.692C74.1664 209.434 75.124 202.605 75.124 202.605C78.0991 208.7 80.8623 210.59 80.8623 210.59C79.7987 200.083 81.2863 191.047 87.8761 188.84C94.4659 186.632 107.434 195.878 107.434 195.878L109.649 170.248L109.642 170.251Z" fill="#49488A"/>
<path d="M81.5725 169.909C61.8136 172.102 54.1425 158.609 34.9065 158.714C26.8327 158.76 18.2712 163.545 13.5399 169.42C18.2747 161.938 25.8221 156.322 35.2599 156.269C52.5913 156.175 63.6262 170.15 81.5725 169.909Z" fill="#DCE5EA" stroke="#DCE5EA" stroke-width="1.40576" stroke-linecap="round" stroke-linejoin="round"/>
<path d="M87.763 169.277C65.9724 173.395 54.4958 156.164 35.2563 156.269C16.0168 156.374 4.64628 179.594 8.89699 194.621C13.1477 209.647 24.2038 217.114 24.2038 217.114C22.9282 214.268 24.1649 209.821 24.1649 209.821C24.1649 209.821 41.3232 215.392 65.0184 212.692C73.7353 213.216 76.4985 212.692 76.4985 212.692C74.1593 209.434 75.1169 202.605 75.1169 202.605C78.092 208.7 80.8552 210.59 80.8552 210.59C79.7916 200.083 81.2792 191.047 87.869 188.84C94.4589 186.632 107.427 195.878 107.427 195.878L111.889 144.198C111.889 144.198 100.664 166.835 87.763 169.277Z" stroke="#191935" stroke-width="1.40576" stroke-linecap="round" stroke-linejoin="round"/>
<path d="M152.213 163.482C152.213 163.482 160.082 170.073 158.636 183.098C156.824 199.444 144.443 205.298 142.443 207.369C141.453 208.393 139.969 211.512 139.969 211.512L116.232 210.272C117.903 207.719 117.942 206.444 117.942 206.444C117.942 206.444 107.971 200.174 106.116 192.162C103.377 180.335 110.373 166.566 110.373 166.566" fill="#514F98"/>
<path d="M117.942 206.444C117.942 206.444 117.903 207.719 116.232 210.272L139.969 211.512C139.969 211.512 141.45 208.396 142.443 207.369C144.443 205.298 156.824 199.444 158.636 183.098C158.87 181.009 158.859 179.088 158.682 177.328C153.933 200.003 120.196 215.228 105.759 181.956C105.349 185.274 105.338 188.795 106.116 192.158C107.971 200.171 117.942 206.44 117.942 206.44V206.444Z" fill="#333476"/>
<path d="M152.213 163.482C152.213 163.482 160.082 170.073 158.636 183.098C156.824 199.444 144.443 205.298 142.443 207.369C141.453 208.393 139.969 211.512 139.969 211.512L116.232 210.272C117.903 207.719 117.942 206.444 117.942 206.444C117.942 206.444 107.971 200.174 106.116 192.162C103.377 180.335 110.373 166.566 110.373 166.566" stroke="#191935" stroke-width="1.40576" stroke-linecap="round" stroke-linejoin="round"/>
<path d="M116.232 210.272C116.232 210.272 120.32 206.559 128.765 206.748C137.21 206.936 139.969 211.512 139.969 211.512C139.969 211.512 136.574 217.656 130.093 217.076C129.009 216.978 128.616 211.232 128.616 211.232H126.91C126.91 211.232 127.041 216.266 124.973 216.947C122.906 217.628 117.15 213.863 116.235 210.275L116.232 210.272Z" fill="#49488A" stroke="#191935" stroke-width="1.40576" stroke-linecap="round" stroke-linejoin="round"/>
<path d="M119.207 214.449C121.246 216.196 123.751 217.348 124.974 216.943C127.044 216.262 126.91 211.229 126.91 211.229C126.91 211.229 121.38 210.81 119.203 214.449H119.207Z" fill="#232355"/>
<path d="M136.065 215.571C135.68 211.037 128.616 211.229 128.616 211.229C128.616 211.229 129.012 216.975 130.093 217.072C132.521 217.289 134.517 216.563 136.061 215.571H136.065Z" fill="#232355"/>
<path d="M116.232 210.272C116.232 210.272 120.32 206.559 128.765 206.748C137.21 206.936 139.969 211.512 139.969 211.512C139.969 211.512 136.574 217.656 130.093 217.076C129.009 216.978 128.616 211.232 128.616 211.232H126.91C126.91 211.232 127.041 216.266 124.973 216.947C122.906 217.628 117.15 213.863 116.235 210.275L116.232 210.272Z" stroke="#0C0C1C" stroke-width="1.40576" stroke-linecap="round" stroke-linejoin="round"/>
<path d="M132.528 209.898C132.528 209.898 129.8 217.268 127.701 217.268C125.602 217.268 123.062 210.223 123.062 210.223" fill="#49488A"/>
<path d="M123.843 212.162C124.758 214.247 126.32 217.268 127.698 217.268C129.076 217.268 130.666 214.208 131.641 212.032C130.422 211.306 127.161 209.821 123.843 212.158V212.162Z" fill="#232355"/>
<path d="M154.628 124.885L101.215 134.671C99.8678 134.918 98.9782 136.198 99.2278 137.529L105.033 168.49C105.282 169.821 106.577 170.701 107.924 170.454L161.337 160.668C162.684 160.421 163.573 159.142 163.324 157.81L157.519 126.85C157.269 125.518 155.975 124.639 154.628 124.885Z" stroke="#9A9AD8" stroke-width="1.40576" stroke-linecap="round" stroke-linejoin="round"/>
<path d="M154.768 125.55L102.105 135.198C100.767 135.443 99.8842 136.714 100.132 138.036L105.943 169.031C106.191 170.353 107.476 171.226 108.814 170.981L161.477 161.332C162.814 161.087 163.697 159.817 163.449 158.495L157.638 127.5C157.39 126.178 156.105 125.305 154.768 125.55Z" fill="#9DA2E0"/>
<path d="M106.578 135.965L101.356 136.922L101.596 145.826" stroke="white" stroke-width="1.40576" stroke-linecap="round" stroke-linejoin="round"/>
<path d="M161.615 148.683L155.831 126.943L151.803 127.68" stroke="white" stroke-width="1.40576" stroke-linecap="round" stroke-linejoin="round"/>
<path d="M154.768 125.55L102.105 135.198C100.767 135.443 99.8842 136.714 100.132 138.036L105.943 169.031C106.191 170.353 107.476 171.226 108.814 170.981L161.477 161.332C162.814 161.087 163.697 159.817 163.449 158.495L157.638 127.5C157.39 126.178 156.105 125.305 154.768 125.55Z" stroke="#49488A" stroke-width="1.40576" stroke-linecap="round" stroke-linejoin="round"/>
<path d="M158.636 97.4081C149.888 107.628 142.556 122.221 145.711 150.146C146.252 154.918 131.016 159.689 131.016 159.689C128.147 158.323 127.733 155.864 127.733 155.864C127.733 155.864 126.903 158.288 128.079 161.397C128.079 161.397 125.419 160.066 123.415 157.3C123.415 157.3 122.864 158.257 123.104 160.202C110.229 144.83 103.985 99.4724 144.188 71.8301L158.636 97.4081Z" fill="#DDDCFC"/>
<path d="M113.592 133.643C114.61 110.733 121.376 94.6907 133.274 80.8171" stroke="white" stroke-width="1.40576" stroke-linecap="round" stroke-linejoin="round"/>
<path d="M123.419 157.3C125.422 160.066 128.083 161.397 128.083 161.397C126.91 158.288 127.737 155.864 127.737 155.864C127.737 155.864 128.15 158.323 131.019 159.689C131.019 159.689 146.252 154.921 145.715 150.146C145.238 145.913 145.001 141.991 144.973 138.341C143.849 136.758 141.468 133.042 141.468 130.021C141.468 130.021 138.552 133.035 136.51 136.612C136.51 136.612 135.143 132.553 134.934 127.003C134.934 127.003 129.115 132.012 127.129 139.182C127.129 139.182 126.238 137.625 125.896 134.174C125.896 134.174 118.984 150.206 121.288 157.757C121.875 158.638 122.482 159.455 123.108 160.199C122.868 158.253 123.419 157.296 123.419 157.296V157.3Z" fill="#57539F"/>
<path d="M143.312 150.387C141.361 148.487 138.171 147.82 138.171 147.82C138.962 149.05 138.708 150.139 138.708 150.139C137.21 148.966 135.291 148.295 135.291 148.295C133.369 150.028 130.093 154.69 130.093 154.69C128.906 153.489 127.775 152.762 127.775 152.762C127.747 155.138 126.673 158.054 126.673 158.054C130.072 162.965 133.867 161.631 134.867 166.025C134.867 166.025 146.768 165.724 147.856 159.905C148.944 154.086 145.711 150.15 145.711 150.15C145.337 149.657 144.863 149.27 144.407 148.973C143.577 148.431 142.803 148.197 142.803 148.197C143.315 149.315 143.308 150.387 143.308 150.387H143.312Z" fill="#D8D6FB"/>
<path d="M127.602 159.661C127.701 160.206 127.853 160.786 128.083 161.397C128.083 161.397 125.422 160.066 123.419 157.3C123.419 157.3 122.868 158.257 123.108 160.202C110.232 144.83 103.988 99.4724 144.192 71.8301" stroke="#7481BA" stroke-width="1.40576" stroke-linecap="round" stroke-linejoin="round"/>
<path d="M158.636 97.408C149.888 107.628 142.556 122.221 145.711 150.146" stroke="#7481BA" stroke-width="1.40576" stroke-linecap="round" stroke-linejoin="round"/>
<path d="M126.673 158.051C130.072 162.961 133.867 161.627 134.867 166.021C134.867 166.021 146.768 165.721 147.856 159.902C148.944 154.083 145.711 150.146 145.711 150.146" stroke="#7481BA" stroke-width="1.40576" stroke-linecap="round" stroke-linejoin="round"/>
<path d="M146.807 153.486C149.054 156.385 154.365 154.446 155.202 155.407C156.039 156.367 152.88 161.428 146.941 159.829" fill="#D8D6FB"/>
<path d="M146.807 153.486C149.054 156.385 154.365 154.446 155.202 155.407C156.039 156.367 152.88 161.428 146.941 159.829" stroke="#7481BA" stroke-width="1.40576" stroke-linecap="round" stroke-linejoin="round"/>
<path d="M143.058 162.692C143.015 164.708 142.135 167.139 142.556 167.562C144.474 169.493 148.351 166.095 148.835 162.591C149.128 160.475 148.941 158.379 146.835 155.819" fill="#D8D6FB"/>
<path d="M143.058 162.692C143.015 164.708 142.135 167.139 142.556 167.562C144.474 169.493 148.351 166.095 148.835 162.591C149.128 160.475 148.941 158.379 146.835 155.819" stroke="#7481BA" stroke-width="1.40576" stroke-linecap="round" stroke-linejoin="round"/>
<path d="M139.499 163.479C139.718 165.403 138.411 167.509 138.718 168.176C139.849 170.642 143.792 169.675 145.358 166.496C146.206 164.778 146.676 161.938 144.99 159.661" fill="#D8D6FB"/>
<path d="M139.499 163.479C139.718 165.403 138.411 167.509 138.718 168.176C139.849 170.642 143.792 169.675 145.358 166.496C146.206 164.778 146.676 161.938 144.99 159.661" stroke="#7481BA" stroke-width="1.40576" stroke-linecap="round" stroke-linejoin="round"/>
<path d="M134.132 164.222C135.139 166.349 133.666 167.464 133.754 168.319C134.061 171.278 141.072 170.405 141.252 165.553C141.309 164.076 140.817 162.581 139.899 161.4" fill="#D8D6FB"/>
<path d="M134.132 164.222C135.139 166.349 133.666 167.464 133.754 168.319C134.061 171.278 141.072 170.405 141.252 165.553C141.309 164.076 140.817 162.581 139.899 161.4" stroke="#7481BA" stroke-width="1.40576" stroke-linecap="round" stroke-linejoin="round"/>
<path d="M134.708 166.605C134.425 166.43 132.093 166.888 131.892 167.013C131.691 167.139 133.623 169.207 134.182 169.273C135.079 169.381 135.945 167.37 134.708 166.605Z" fill="#3F3E77"/>
<path d="M134.708 166.605C134.425 166.43 132.093 166.888 131.892 167.013C131.691 167.139 133.623 169.207 134.182 169.273" stroke="#191935" stroke-width="1.40576" stroke-linecap="round" stroke-linejoin="round"/>
<path d="M155.202 155.403C154.7 154.827 152.58 155.295 150.481 155.134C149.775 157.107 150.916 158.973 151.506 159.755C154.418 158.753 155.789 156.077 155.202 155.406V155.403Z" fill="#3F3E77"/>
<path d="M151.502 159.755C154.414 158.753 155.785 156.077 155.198 155.407C154.697 154.83 152.577 155.298 150.478 155.138" stroke="#191935" stroke-width="1.40576" stroke-linecap="round" stroke-linejoin="round"/>
<path d="M172.3 66.1472C162.269 69.2069 147.958 75.1762 135.33 78.8576C131.758 81.1804 126.415 86.5803 126.415 86.5803C133.729 82.7172 142.128 82.4553 147.63 81.0616C154.082 79.4235 158.523 77.6142 165.979 75.8922C173.434 74.1703 184.07 75.0994 184.07 75.0994C185.035 74.3624 186.045 73.6917 187.098 73.098L175.918 63.9712L172.3 66.1507V66.1472Z" fill="#49488A"/>
<path d="M135.33 78.8576C131.758 81.1803 126.415 86.5803 126.415 86.5803C133.729 82.7172 142.093 82.3085 147.63 81.0616C153.368 79.7657 158.276 77.9495 158.276 77.9495" stroke="#191935" stroke-width="1.40576" stroke-linecap="round" stroke-linejoin="round"/>
<path d="M135.33 78.8575C148.156 65.0923 166.986 57.2334 166.986 57.2334L184.01 67.9494C142.457 79.7622 135.33 78.8575 135.33 78.8575Z" fill="#8588D1"/>
<path d="M135.33 78.8575C148.156 65.0923 166.986 57.2334 166.986 57.2334" stroke="#191935" stroke-width="1.40576" stroke-linecap="round" stroke-linejoin="round"/>
<path d="M171.509 53.6604C171.509 53.6604 162.951 53.1539 161.308 54.2471C160.788 54.5929 159.94 58.1556 160.845 60.6076C161.799 63.1993 164.541 64.6698 165.368 64.4812C166.77 64.1598 168.488 61.6904 168.488 61.6904" fill="#D2D2FB"/>
<path d="M170.424 54.6419C165.417 54.4358 163.421 54.9143 163.421 54.9143" stroke="white" stroke-width="1.40576" stroke-linecap="round" stroke-linejoin="round"/>
<path d="M171.509 53.6604C171.509 53.6604 162.951 53.1539 161.308 54.2471C160.788 54.5929 159.94 58.1556 160.845 60.6076C161.799 63.1993 164.541 64.6698 165.368 64.4812C166.77 64.1598 168.488 61.6904 168.488 61.6904" stroke="#49488A" stroke-width="1.40576" stroke-linecap="round" stroke-linejoin="round"/>
<path d="M165.364 55.2811C162.396 55.1623 162.145 57.5759 162.145 57.5759C163.255 57.2056 164.364 57.2231 164.364 57.2231C163.774 58.7285 164.096 60.3562 164.096 60.3562C164.096 60.3562 165.028 59.6646 165.527 59.1512C165.527 59.1512 166.191 59.7345 166.887 60.1431C166.887 60.1431 168.551 57.541 169 56.4722C169 56.4722 166.845 55.3405 165.361 55.2811H165.364Z" fill="#6A6DB8"/>
<path d="M169.823 56.8632C169.823 56.8632 166.138 53.8838 160.802 55.3369" stroke="#49488A" stroke-width="1.40576" stroke-linecap="round" stroke-linejoin="round"/>
<path d="M21.6597 207.981C32.6169 217.366 53.245 219.416 53.245 219.416C50.5879 217.104 47.9943 212.595 47.9943 212.595" fill="#49488A"/>
<path d="M21.6597 207.981C32.6169 217.366 53.245 219.416 53.245 219.416C50.5879 217.104 47.9943 212.595 47.9943 212.595" stroke="#191935" stroke-width="1.40576" stroke-linecap="round" stroke-linejoin="round"/>
<path d="M42.5635 210.53C58.8243 218.882 73.4421 216.056 73.4421 216.056C68.5518 212.692 67.4988 210.422 67.4988 210.422" fill="#49488A"/>
<path d="M42.5635 210.53C58.8243 218.882 73.4421 216.056 73.4421 216.056C68.5518 212.692 67.4988 210.422 67.4988 210.422" stroke="#191935" stroke-width="1.40576" stroke-linecap="round" stroke-linejoin="round"/>
<path d="M145.715 150.15C145.238 145.916 145.001 141.994 144.973 138.344" stroke="#191935" stroke-width="1.40576" stroke-linecap="round" stroke-linejoin="round"/>
<path d="M132.528 209.898C132.528 209.898 129.8 217.268 127.701 217.268C125.602 217.268 123.062 210.223 123.062 210.223" stroke="#0C0C1C" stroke-width="1.40576" stroke-linecap="round" stroke-linejoin="round"/>
<path d="M181.077 160.614C181.83 169.814 177.667 175.186 177.667 175.186C177.667 175.186 178.3 170.635 177.318 167.027" fill="#5B56A4"/>
<path d="M181.077 160.614C181.83 169.814 177.667 175.186 177.667 175.186C177.667 175.186 178.3 170.635 177.318 167.027" stroke="#191935" stroke-width="1.40576" stroke-linecap="round" stroke-linejoin="round"/>
<path d="M182.289 150.471C184.837 161.041 181.999 168.756 181.999 168.756C181.999 168.756 181.173 163.849 179.787 159.647" fill="#5B56A4"/>
<path d="M182.289 150.471C184.837 161.041 181.999 168.756 181.999 168.756C181.999 168.756 181.173 163.849 179.787 159.647" stroke="#191935" stroke-width="1.40576" stroke-linecap="round" stroke-linejoin="round"/>
<path d="M172.82 93.0386C171.689 88.952 172.3 85.2007 172.3 85.2007L172.82 93.0386Z" fill="#8B8BD1"/>
<path d="M172.82 93.0386C171.689 88.952 172.3 85.2007 172.3 85.2007" stroke="#191935" stroke-width="1.40576" stroke-linecap="round" stroke-linejoin="round"/>
<path d="M122.352 99.9438C113.303 108.012 112.391 116.797 112.391 116.797C112.391 116.797 116.97 111.917 121.172 109.361" fill="#DDDCFC"/>
<path d="M122.352 99.9438C113.303 108.012 112.391 116.797 112.391 116.797C112.391 116.797 116.97 111.917 121.172 109.361" stroke="#7481BA" stroke-width="1.40576" stroke-linecap="round" stroke-linejoin="round"/>
<path opacity="0.16" d="M196.391 48.4246C196.875 48.0334 202.037 47.3802 204.037 47.9076C206.037 48.4351 206.617 57.5479 206.055 58.208C205.461 58.9066 199.847 59.8636 199.317 59.7937C198.787 59.7239 194.949 49.5877 196.391 48.4246Z" fill="#DEF5FF"/>
<path d="M196.391 48.4246C196.875 48.0334 202.037 47.3802 204.037 47.9076C206.037 48.4351 206.617 57.5479 206.055 58.208C205.461 58.9066 199.847 59.8636 199.317 59.7937C198.787 59.7239 194.949 49.5877 196.391 48.4246Z" stroke="black" stroke-width="1.40576" stroke-linecap="round" stroke-linejoin="round"/>
<path d="M192.692 72.3018C191.299 75.6095 195.441 81.1037 193.494 82.1935C189.07 80.8208 185.158 74.9074 186.314 67.3699L192.695 72.3052L192.692 72.3018Z" fill="#894E71"/>
<path d="M192.692 72.3018C191.299 75.6095 195.441 81.1037 193.494 82.1935" stroke="#191935" stroke-width="1.40576" stroke-linecap="round" stroke-linejoin="round"/>
<path d="M163.947 61.7464C163.947 61.7464 168.431 51.6766 174.911 49.0849C181.183 46.5771 186.179 47.1359 194.144 48.5854C221.344 53.5348 246.438 78.2501 254.166 91.3866C255.781 94.132 255.212 97.8344 247.643 92.8361C234.495 84.153 217.934 76.9193 199.578 79.8183C199.578 79.8183 190.038 78.0126 186.073 69.6507C186.073 69.6507 185.635 77.6668 193.2 82.2424C193.2 82.2424 183.932 82.183 171.268 72.0398C166.788 68.4527 163.944 61.7499 163.944 61.7499L163.947 61.7464Z" fill="#8588D1"/>
<path d="M248.926 83.3774C243.679 82.5112 240.142 84.7221 237.665 86.4476C237.665 86.4476 244.923 90.7682 247.926 92.7521C255.495 97.7504 256.622 93.8908 255.007 91.1454C253.707 88.931 251.096 86.4371 248.926 83.3774Z" fill="#49488A"/>
<path d="M190.61 48.051C224.418 52.3053 250.618 84.7572 254.47 90.7928C254.47 90.7928 256.018 94.2193 254.541 95.1728C251.944 88.8264 240.152 73.3706 223.634 62.9689C213.2 56.3989 202.384 51.9316 190.61 48.051Z" fill="#DCE5EA" stroke="#DCE5EA" stroke-width="1.40576" stroke-linecap="round" stroke-linejoin="round"/>
<path d="M187.186 75.274C183.367 74.4671 180.028 70.1919 177.01 69.7029C173.993 69.2139 171.021 71.2188 171.159 71.3271C183.823 81.4703 193.204 82.2352 193.204 82.2352C188.342 79.7658 187.519 77.4011 187.186 75.274Z" fill="#49488A"/>
<path d="M231.782 83.6394C215.79 69.3746 200.44 77.1322 190.932 75.8713C194.879 78.6446 199.522 79.4584 199.522 79.4584C214.348 76.259 231.782 83.6394 231.782 83.6394Z" fill="#49488A"/>
<path d="M164.237 61.701C164.237 61.701 168.251 52.445 174.092 49.4726C179.48 46.7308 186.681 47.0346 194.434 48.54C221.401 53.7793 245.629 76.9473 253.929 89.7066C258.519 96.7656 252.806 96.2731 247.007 92.2389C235.22 84.0447 218.168 76.5176 199.811 79.4167C199.811 79.4167 189.847 78.5889 186.077 69.6472C186.077 69.6472 185.823 78.8963 193.494 82.1935C193.494 82.1935 184.971 82.6545 171.505 71.6381" stroke="#191935" stroke-width="1.40576" stroke-linecap="round" stroke-linejoin="round"/>
<path d="M181.512 55.1622C184.127 53.7756 187.148 61.3829 183.084 62.3889C179.021 63.3948 178.731 56.6397 181.512 55.1622Z" fill="#1A1A21"/>
<path d="M179.211 58.278C181.385 52.8676 184.632 53.1959 186.353 55.4977" stroke="#191935" stroke-width="1.05432" stroke-linecap="round" stroke-linejoin="round"/>
<path d="M186.187 60.9011C183.939 63.0213 180.6 62.6371 180.6 62.6371" stroke="#191935" stroke-width="1.05432" stroke-linecap="round" stroke-linejoin="round"/>
<path d="M179.091 48.6097C180.674 45.4732 181.915 45.1379 183.264 46.2416" stroke="#191935" stroke-width="1.40576" stroke-linecap="round" stroke-linejoin="round"/>
<path d="M201.893 45.2986C200.854 44.4673 198.946 43.374 197.603 45.1414" stroke="#191935" stroke-width="1.40576" stroke-linecap="round" stroke-linejoin="round"/>
<path opacity="0.16" d="M189.215 49.1686C182.469 48.4945 177.123 52.7767 174.975 54.834C174.318 55.4627 174.017 56.3569 174.187 57.2056C174.71 59.7938 175.583 62.4414 176.272 64.3205C176.887 66.0041 178.628 66.9995 180.491 66.7236C185.271 66.0111 188.787 63.6848 190.801 61.9803C192.059 60.915 192.649 59.2909 192.335 57.761C190.978 51.1665 189.218 49.1686 189.218 49.1686H189.215Z" fill="#DEF5FF"/>
<path d="M189.253 49.1686C182.508 48.4945 177.162 52.7767 175.014 54.834C174.357 55.4627 174.056 56.3569 174.226 57.2056C174.749 59.7938 175.622 62.4414 176.311 64.3205C176.925 66.0041 178.667 66.9995 180.529 66.7236C185.31 66.0111 188.826 63.6848 190.84 61.9803C192.098 60.915 192.688 59.2909 192.374 57.761C191.017 51.1665 189.257 49.1686 189.257 49.1686H189.253Z" stroke="black" stroke-width="1.40576" stroke-linecap="round" stroke-linejoin="round"/>
<path d="M189.254 49.1687C189.254 49.1687 189.752 47.5235 190.338 47.2686C190.925 47.0136 194.119 46.6119 194.72 46.8809C195.32 47.1498 196.391 48.4212 196.391 48.4212" stroke="black" stroke-width="1.40576" stroke-linecap="round" stroke-linejoin="round"/>
<path d="M171.321 56.6083C171.321 56.6083 163.092 52.099 161.089 52.4518C160.456 52.5636 158.17 55.5499 158 58.2185C157.817 61.0337 159.788 63.5381 160.647 63.6987C162.103 63.9747 165.127 62.8884 165.127 62.8884" fill="#D2D2FB"/>
<path d="M170.307 56.9575C165.297 54.4426 161.997 53.5659 161.997 53.5659" stroke="white" stroke-width="1.40576" stroke-linecap="round" stroke-linejoin="round"/>
<path d="M171.321 56.6083C171.321 56.6083 163.092 52.099 161.089 52.4518C160.456 52.5636 158.17 55.5499 158 58.2185C157.817 61.0337 159.788 63.5381 160.647 63.6987C162.103 63.9747 165.127 62.8884 165.127 62.8884" stroke="#49488A" stroke-width="1.40576" stroke-linecap="round" stroke-linejoin="round"/>
<path d="M165.813 55.941C162.781 53.9955 160.502 55.8327 160.502 55.8327C161.675 56.1017 162.64 56.7095 162.64 56.7095C161.304 57.7049 160.7 59.2941 160.7 59.2941C160.7 59.2941 161.891 59.1894 162.608 59.0112C162.608 59.0112 162.869 59.874 163.262 60.6005C163.262 60.6005 166.71 59.1335 167.682 58.4419C167.682 58.4419 167.092 56.7583 165.809 55.9375L165.813 55.941Z" fill="#6A6DB8"/>
<path d="M168.396 58.917C168.396 58.917 165.788 54.0899 160.159 53.2656" stroke="#49488A" stroke-width="1.40576" stroke-linecap="round" stroke-linejoin="round"/>
<path d="M182.222 56.4896C182.883 56.0495 184.134 58.3199 183.416 58.8403C182.699 59.3607 181.476 56.9891 182.222 56.4896Z" fill="white"/>
<path d="M248.601 89.7449C249.619 91.0931 250.838 91.5856 251.735 92.0781C252.244 92.3575 251.862 93.1504 251.103 92.6858C249.46 91.6764 248.597 89.7449 248.597 89.7449H248.601Z" fill="black" stroke="black" stroke-width="1.40576" stroke-linecap="round" stroke-linejoin="round"/>
<path d="M211.405 116.947C211.634 119.825 213.055 123.035 213.055 123.035C213.284 121.54 214.26 120.96 214.26 120.96C214.638 122.965 215.712 124.942 215.712 124.942C219.341 123.915 222.298 124.677 222.298 124.677C228.817 121.341 229.895 118.187 231.273 113.514C231.273 113.514 220.344 101.826 215.351 105.138C210.359 108.449 208.694 114.879 208.694 114.879C208.567 116.699 210.26 118.91 210.26 118.91C210.634 117.712 211.401 116.95 211.401 116.95L211.405 116.947Z" fill="#DDDCFC"/>
<path d="M209.412 112.927C208.744 115.243 208.557 116.989 208.557 116.989" stroke="#7481BA" stroke-width="1.40576" stroke-linecap="round" stroke-linejoin="round"/>
<path d="M222.341 124.712C228.722 122.05 230.372 116.413 231.566 113.79" stroke="#7481BA" stroke-width="1.40576" stroke-linecap="round" stroke-linejoin="round"/>
<path d="M220.503 108.676C221.941 106.025 224.143 102.99 226.277 100.821C227.913 99.158 230.05 98.4734 230.708 99.0218C231.397 99.5981 231.139 101.715 230.082 104.034C229.121 106.147 227.976 108.267 226.895 110.524" fill="#DDDCFC"/>
<path d="M220.503 108.676C221.941 106.025 224.143 102.99 226.277 100.821C227.913 99.158 230.05 98.4734 230.708 99.0218C231.397 99.5981 231.139 101.715 230.082 104.034C229.121 106.147 227.976 108.267 226.895 110.524" stroke="#7481BA" stroke-width="1.40576" stroke-linecap="round" stroke-linejoin="round"/>
<path d="M230.708 99.0218C231.397 99.5981 231.139 101.715 230.082 104.034C227.418 103.22 226.277 100.821 226.277 100.821C227.913 99.158 230.051 98.4734 230.708 99.0218Z" fill="#3F3E77"/>
<path d="M226.277 100.821C227.913 99.158 230.051 98.4734 230.708 99.0218C231.397 99.5981 231.139 101.715 230.082 104.034" stroke="#191935" stroke-width="1.40576" stroke-linecap="round" stroke-linejoin="round"/>
<path d="M231.312 114.369C231.312 114.369 234.026 111.093 234.775 109.905C236.287 107.506 237.707 101.61 231.764 106.207C230.34 107.307 228.068 109.319 226.524 111.114" fill="#DDDCFC"/>
<path d="M231.312 114.369C231.312 114.369 234.026 111.093 234.775 109.905C236.287 107.506 237.707 101.61 231.764 106.207C230.34 107.307 228.068 109.319 226.524 111.114" stroke="#7481BA" stroke-width="1.40576" stroke-linecap="round" stroke-linejoin="round"/>
<path d="M235.651 104.575C236.223 105.197 236.057 107.869 234.775 109.902C232.379 108.819 231.764 106.203 231.764 106.203C233.51 104.855 235.103 103.982 235.651 104.572V104.575Z" fill="#3F3E77"/>
<path d="M231.768 106.207C233.513 104.858 234.965 104.153 235.654 104.576C236.481 105.085 236.676 107.188 234.778 109.902" stroke="#191935" stroke-width="1.40576" stroke-linecap="round" stroke-linejoin="round"/>
<path d="M220.503 108.676C221.072 106.772 222.047 103.06 222.404 101.257C223.21 97.1846 219.917 96.1158 217.835 99.3746C216.443 101.554 214.786 105.078 213.624 108.054" fill="#DDDCFC"/>
<path d="M220.503 108.676C221.072 106.772 222.047 103.06 222.404 101.257C223.21 97.1846 219.917 96.1158 217.835 99.3746C216.443 101.554 214.786 105.078 213.624 108.054" stroke="#7481BA" stroke-width="1.40576" stroke-linecap="round" stroke-linejoin="round"/>
<path d="M222.461 96.4232C223.27 96.8179 222.856 98.7529 222.401 101.257C219.62 101.1 217.832 99.3746 217.832 99.3746C219.009 97.3732 221.69 96.046 222.461 96.4197V96.4232Z" fill="#3F3E77"/>
<path d="M217.835 99.3746C219.436 96.7725 221.733 95.9726 222.464 96.4197C223.549 97.0833 222.941 99.2943 222.404 101.254" stroke="#191935" stroke-width="1.40576" stroke-linecap="round" stroke-linejoin="round"/>
<path d="M209.412 112.927C210.072 108.753 208.458 102.364 209.398 101.502C210.249 100.719 214.804 103.374 214.56 108.246" fill="#DDDCFC"/>
<path d="M209.412 112.927C210.072 108.753 208.458 102.364 209.398 101.502C210.249 100.719 214.804 103.374 214.56 108.246" stroke="#7481BA" stroke-width="1.40576" stroke-linecap="round" stroke-linejoin="round"/>
<path d="M209.394 101.502C208.829 102.019 209.383 104.097 209.295 106.175C211.316 106.8 213.161 105.602 213.927 104.995C212.807 102.155 210.051 100.898 209.394 101.502Z" fill="#3F3E77"/>
<path d="M213.927 104.991C212.807 102.151 210.051 100.894 209.394 101.498C208.829 102.015 209.383 104.093 209.295 106.172" stroke="#191935" stroke-width="1.40576" stroke-linecap="round" stroke-linejoin="round"/>
<path d="M212.804 112.497C216.782 107.349 227.665 113.95 224.065 118.858C219.987 124.418 209.564 116.689 212.804 112.497Z" fill="#F7F5FE"/>
<path d="M243.446 108.271C242.46 117.757 235.965 124.512 235.965 124.512" stroke="#D1D6E8" stroke-width="1.40576" stroke-linecap="round" stroke-linejoin="round"/>
<path d="M247.855 105.256C247.855 112.986 245.774 117.338 245.774 117.338" stroke="#D1D6E8" stroke-width="1.40576" stroke-linecap="round" stroke-linejoin="round"/>
<path d="M212.189 93.4961C205.914 96.3567 203.483 102.008 203.483 102.008" stroke="#D1D6E8" stroke-width="1.40576" stroke-linecap="round" stroke-linejoin="round"/>
<path d="M202.564 95.5847C199.211 99.1579 198.094 103.835 198.094 103.835" stroke="#D1D6E8" stroke-width="1.40576" stroke-linecap="round" stroke-linejoin="round"/>
</svg>
