<svg width="256" height="256" viewBox="0 0 256 256" fill="none" xmlns="http://www.w3.org/2000/svg">
<path d="M34.9764 232.108L36.7361 251.851C36.7361 253.297 43.6545 254.454 52.1639 254.454C60.6733 254.454 67.5917 253.297 67.5917 251.851L69.3515 232.108H34.9764Z" fill="#C1654D"/>
<path d="M68.5801 240.689L69.3515 232.083H34.9764L35.7478 240.689C38.9539 241.388 45.1008 241.846 52.1639 241.846C59.2269 241.846 65.374 241.388 68.5801 240.689Z" fill="#B25340"/>
<path d="M41.6053 232.108H35.0002L36.7599 251.85C36.7599 252.694 39.1706 253.465 42.9311 253.923L41.6294 232.083L41.6053 232.108Z" fill="#B25340"/>
<path d="M52.1638 254.936C48.0175 254.936 44.1125 254.671 41.1715 254.164C36.8084 253.441 36.2538 252.501 36.2538 251.874L34.4941 232.132C34.4941 231.987 34.5182 231.866 34.6147 231.77C34.7111 231.674 34.8316 231.601 34.9763 231.601H69.3514C69.496 231.601 69.6166 231.649 69.713 231.77C69.8094 231.891 69.8576 232.011 69.8335 232.132L68.0737 251.874C68.0737 252.501 67.5193 253.441 63.1561 254.164C60.2152 254.671 56.31 254.936 52.1638 254.936ZM35.5066 232.59L37.2181 251.826C37.2181 251.826 37.2181 251.85 37.2181 251.874C37.2181 251.874 37.5074 252.622 41.5331 253.273C44.4017 253.731 48.1622 253.996 52.1638 253.996C56.1654 253.996 59.9259 253.731 62.7945 253.273C66.8202 252.622 67.1095 251.874 67.1095 251.874C67.1095 251.874 67.1095 251.874 67.1095 251.826L68.821 232.59H35.5066Z" fill="#562825"/>
<path d="M52.164 229.239C62.5351 229.239 70.9426 228.235 70.9426 226.997C70.9426 225.759 62.5351 224.755 52.164 224.755C41.7929 224.755 33.3854 225.759 33.3854 226.997C33.3854 228.235 41.7929 229.239 52.164 229.239Z" fill="#C1654D"/>
<path d="M52.164 229.721C47.1258 229.721 42.4011 229.48 38.8334 229.046C32.9033 228.347 32.9033 227.407 32.9033 226.973C32.9033 226.539 32.9033 225.623 38.8334 224.9C42.4011 224.466 47.1258 224.225 52.164 224.225C57.2021 224.225 61.927 224.466 65.4946 224.9C71.4247 225.599 71.4247 226.539 71.4247 226.973C71.4247 227.407 71.4247 228.323 65.4946 229.046C61.927 229.48 57.2021 229.721 52.164 229.721ZM33.9399 226.997C34.8801 227.744 41.6056 228.757 52.164 228.757C62.7224 228.757 69.448 227.744 70.3881 226.997C69.448 226.25 62.7224 225.237 52.164 225.237C41.6056 225.237 34.8801 226.25 33.9399 226.997Z" fill="#562825"/>
<path d="M37.8206 228.443C41.2678 228.926 46.4023 229.239 52.1637 229.239C57.925 229.239 63.0596 228.926 66.5067 228.443C63.0596 227.551 57.925 226.973 52.1637 226.973C46.4023 226.973 41.2678 227.551 37.8206 228.443Z" fill="#381912"/>
<path d="M52.164 229.239C41.7984 229.239 33.3854 228.226 33.3854 226.997V236.905C33.3854 238.158 41.7984 239.146 52.164 239.146C62.5295 239.146 70.9426 238.134 70.9426 236.905V226.997C70.9426 228.251 62.5295 229.239 52.164 229.239Z" fill="#C1654D"/>
<path d="M52.164 239.653C47.1258 239.653 42.4011 239.412 38.8334 238.978C32.9033 238.254 32.9033 237.338 32.9033 236.905V226.997C32.9033 226.732 33.1203 226.515 33.3854 226.515C33.6506 226.515 33.8435 226.708 33.8676 226.925C34.4943 227.672 41.2922 228.757 52.164 228.757C63.0358 228.757 69.8337 227.672 70.4605 226.925C70.4846 226.684 70.7016 226.515 70.9426 226.515C71.2078 226.515 71.4247 226.732 71.4247 226.997V236.905C71.4247 237.338 71.4247 238.254 65.4946 238.978C61.927 239.412 57.2021 239.653 52.164 239.653ZM33.8676 236.856C34.5184 237.604 41.3163 238.688 52.164 238.688C63.0117 238.688 69.8096 237.604 70.4605 236.856V228.034C69.665 228.371 68.1945 228.733 65.4946 229.07C61.927 229.504 57.2021 229.745 52.164 229.745C47.1258 229.745 42.4011 229.504 38.8334 229.07C36.1335 228.757 34.6631 228.371 33.8676 228.034V236.856Z" fill="#63342E"/>
<path d="M41.3645 228.829C36.5433 228.419 33.3854 227.744 33.3854 226.997V236.905C33.3854 237.676 36.5433 238.351 41.3645 238.737V228.829Z" fill="#B25340"/>
<path d="M33.3854 227.479C33.1203 227.479 32.9033 227.262 32.9033 226.997C32.9033 226.732 33.1203 226.515 33.3854 226.515C33.6506 226.515 33.8676 226.732 33.8676 226.997C33.8676 227.262 33.6506 227.479 33.3854 227.479Z" fill="#63342E"/>
<path d="M52.164 239.653C47.1258 239.653 42.4011 239.412 38.8334 238.978C32.9033 238.254 32.9033 237.338 32.9033 236.905V226.997C32.9033 226.732 33.1203 226.515 33.3854 226.515C33.6506 226.515 33.8435 226.708 33.8676 226.925C34.4943 227.672 41.2922 228.757 52.164 228.757C63.0358 228.757 69.8337 227.672 70.4605 226.925C70.4846 226.684 70.7016 226.515 70.9426 226.515C71.2078 226.515 71.4247 226.732 71.4247 226.997V236.905C71.4247 237.338 71.4247 238.254 65.4946 238.978C61.927 239.412 57.2021 239.653 52.164 239.653ZM33.8676 236.856C34.5184 237.604 41.3163 238.688 52.164 238.688C63.0117 238.688 69.8096 237.604 70.4605 236.856V228.034C69.665 228.371 68.1945 228.733 65.4946 229.07C61.927 229.504 57.2021 229.745 52.164 229.745C47.1258 229.745 42.4011 229.504 38.8334 229.07C36.1335 228.757 34.6631 228.371 33.8676 228.034V236.856Z" fill="#562825"/>
<path d="M202.947 154.968C181.131 166.346 199.5 201.855 199.741 224.08C205.357 223.574 210.878 222.947 216.277 222.224C216.615 217.499 218.061 214.558 219.917 213.715C219.917 213.715 224.16 212.485 230.162 224.153C230.162 224.153 233.634 219.5 232.694 210.605C232.694 210.605 237.708 212.534 239.54 217.065C239.54 217.065 244.481 208.677 245.325 199.589C245.325 199.589 251.858 203.446 254.582 205.88C261.331 167.937 228.813 141.445 202.923 154.944L202.947 154.968Z" fill="#6D6FBF"/>
<path d="M195.402 197.757C194.775 186.306 188.242 169.071 198.945 158.681C203.308 154.438 213.843 149.304 229.319 153.787C211.697 150.678 204.297 155.402 199.933 159.645C189.254 170.035 194.775 186.306 195.402 197.757Z" fill="#DCE5EA"/>
<path d="M195.402 198.239C195.136 198.239 194.944 198.046 194.919 197.781C194.775 195.105 194.293 192.116 193.786 188.958C192.123 178.424 190.243 166.467 198.584 158.343C201.283 155.716 205.381 153.594 209.817 152.51C215.843 151.039 222.424 151.304 229.415 153.329C229.656 153.402 229.801 153.643 229.753 153.908C229.704 154.173 229.463 154.318 229.198 154.269C211.89 151.232 204.634 155.716 200.247 160.007C192.027 167.986 193.594 179.557 194.968 189.753C195.353 192.598 195.715 195.274 195.86 197.757C195.86 197.757 195.86 197.781 195.86 197.805C195.86 198.07 195.667 198.263 195.402 198.287C195.402 198.287 195.402 198.287 195.377 198.287L195.402 198.239ZM206.9 154.414C203.887 155.547 201.187 157.162 199.259 159.018C196.318 161.863 194.727 165.238 193.931 168.902C194.895 165.43 196.631 162.152 199.572 159.308C201.066 157.837 203.357 155.885 206.876 154.414H206.9Z" fill="#DCE5EA"/>
<path d="M239.516 159.838C249.278 185.004 240.142 199.516 240.142 199.516C241.806 189.922 237.37 181.967 237.37 181.967C233.224 197.805 226.088 203.421 226.088 203.421C226.088 203.421 224.546 199.757 225.124 194.84C208.66 200.095 199.403 218.632 199.403 218.632C199.403 218.632 199.789 220.272 199.741 224.08C205.357 223.574 210.878 222.947 216.277 222.224C216.615 217.499 218.061 214.558 219.917 213.715C219.917 213.715 224.16 212.485 230.162 224.153C230.162 224.153 233.634 219.5 232.694 210.605C232.694 210.605 237.539 212.317 239.54 217.065C239.54 217.065 244.819 207.11 245.325 199.589C245.325 199.589 251.858 203.446 254.582 205.88C257.716 188.307 253.425 173.385 239.491 159.814L239.516 159.838Z" fill="#49488A"/>
<path d="M230.186 224.659C230.186 224.659 230.162 224.659 230.138 224.659C229.969 224.659 229.825 224.538 229.752 224.394C226.763 218.584 224.256 216.125 222.689 215.089C221.195 214.101 220.255 214.173 220.086 214.197C218.302 215.041 217.073 218.054 216.759 222.272C216.759 222.538 216.518 222.73 216.253 222.73C215.988 222.73 215.795 222.489 215.795 222.224C216.133 217.548 217.555 214.293 219.724 213.329C219.724 213.329 219.773 213.329 219.797 213.329C219.99 213.281 224.304 212.172 230.21 223.261C231.078 221.694 232.934 217.427 232.235 210.75C232.235 210.581 232.284 210.412 232.428 210.316C232.573 210.219 232.742 210.195 232.886 210.244C233.079 210.316 237.394 212.051 239.564 216.029C240.745 213.546 243.999 206.266 244.867 199.613C244.867 199.444 244.987 199.324 245.132 199.251C245.277 199.179 245.445 199.179 245.59 199.251C245.831 199.396 251.303 202.626 254.268 205.037C257.908 182.787 247.952 166.588 237.322 158.777C226.787 151.039 214.011 149.81 203.188 155.451C188.338 163.213 192.557 182.498 196.631 201.156C198.439 209.472 200.174 217.331 200.247 224.129C200.247 224.394 200.03 224.611 199.765 224.611C199.499 224.611 199.283 224.394 199.283 224.129C199.21 217.427 197.499 209.617 195.691 201.348C193.642 192.019 191.544 182.377 191.858 174.085C192.219 164.611 195.787 158.223 202.754 154.583C213.915 148.749 227.053 150.027 237.9 157.982C244.433 162.779 249.543 169.553 252.653 177.556C256.028 186.234 256.872 196.069 255.088 206.025C255.064 206.194 254.943 206.338 254.774 206.387C254.606 206.435 254.437 206.387 254.292 206.29C252.147 204.338 247.422 201.445 245.735 200.432C244.481 208.556 240.046 217.234 239.997 217.331C239.901 217.499 239.756 217.596 239.539 217.596C239.347 217.596 239.178 217.475 239.106 217.307C237.756 214.076 234.67 212.196 233.272 211.473C233.923 219.886 230.717 224.321 230.572 224.514C230.476 224.635 230.331 224.707 230.186 224.707V224.659Z" fill="#191935"/>
<path d="M8.38741 74.5748C1.22794 78.0702 13.6425 85.5671 13.6425 85.5671C20.1511 80.312 21.4528 75.0811 33.6504 76.1177C26.7561 75.0088 8.36328 74.5508 8.36328 74.5508L8.38741 74.5748Z" fill="#1E8773"/>
<path d="M13.6426 86.0738C13.5461 86.0738 13.4738 86.0738 13.4015 86.0015C13.0881 85.8087 5.51885 81.1803 5.68759 77.2751C5.73581 75.9975 6.57947 74.9368 8.17046 74.1654C8.24278 74.1413 8.31519 74.1172 8.38751 74.1172C8.58036 74.1172 26.8767 74.5752 33.7228 75.6841C33.988 75.7323 34.1568 75.9734 34.1326 76.2145C34.1085 76.4555 33.8674 76.6483 33.6023 76.6242C24.442 75.8287 21.6699 78.5768 17.8611 82.3615C16.6799 83.5186 15.4747 84.7238 13.9319 85.9532C13.8355 86.0256 13.739 86.0496 13.6184 86.0496L13.6426 86.0738ZM8.50804 75.0573C7.30274 75.6599 6.70004 76.4073 6.65183 77.2992C6.5313 79.9509 11.3766 83.5909 13.6184 84.989C14.9925 83.856 16.1013 82.7472 17.2102 81.6624C19.886 79.0108 22.1761 76.7448 26.5634 75.877C19.0664 75.3467 9.68914 75.0814 8.53205 75.0573H8.50804Z" fill="#20564C"/>
<path d="M50.7654 188.235C50.7654 163.598 13.9074 177.098 6.09711 143.036C27.5996 155.547 50.6691 147.568 53.1038 188.235H50.7654Z" fill="#3ABAA4"/>
<path d="M53.0797 188.717H50.7414C50.4762 188.717 50.2593 188.5 50.2593 188.235C50.2593 176.977 42.232 173.868 32.9271 170.3C22.0794 166.13 9.7854 161.405 5.61507 143.133C5.56686 142.94 5.63913 142.747 5.80787 142.626C5.95251 142.506 6.16951 142.506 6.33825 142.602C12.2201 146.025 18.1743 147.881 23.9356 149.689C38.9054 154.366 51.8021 158.416 53.586 188.187C53.586 188.331 53.5378 188.452 53.4654 188.548C53.369 188.645 53.2485 188.693 53.1038 188.693L53.0797 188.717ZM51.2235 187.753H52.5735C51.7298 174.663 48.6924 165.913 43.0516 160.248C37.8929 155.089 30.9745 152.92 23.6463 150.63C18.1501 148.918 12.4852 147.134 6.84438 144C11.1594 160.875 22.899 165.407 33.3128 169.384C42.8106 173.048 51.0307 176.206 51.2718 187.729L51.2235 187.753Z" fill="#20564C"/>
<path d="M51.4649 85.3261C51.4649 55.8686 28.1544 52.7589 30.9748 34.3179C43.992 43.8879 53.7308 51.6983 53.7308 85.3261H51.4649Z" fill="#3ABAA4"/>
<path d="M53.7308 85.8084H51.4648C51.1997 85.8084 50.9827 85.5914 50.9827 85.3263C50.9827 69.6815 44.4018 61.6302 38.5923 54.5189C33.53 48.3478 29.1668 42.9962 30.5168 34.2699C30.5409 34.1011 30.6615 33.9565 30.8061 33.9083C30.9507 33.836 31.1435 33.86 31.2641 33.9564C38.3753 39.1633 43.7028 43.4301 47.6561 50.5896C52.1399 58.6892 54.2129 69.7297 54.2129 85.3263C54.2129 100.923 53.9959 85.8084 53.7308 85.8084ZM51.947 84.8442H53.2487C53.2004 69.6574 51.1515 58.9062 46.8124 51.0477C43.076 44.2739 38.0137 40.1276 31.3605 35.21C30.4686 43.0685 34.5907 48.1067 39.3396 53.9162C45.1973 61.0757 51.8264 69.1753 51.947 84.8442Z" fill="#20564C"/>
<path d="M60.3841 189.826C71.9791 188.235 77.4512 199.058 77.4512 199.058C82.5617 194.743 83.6464 189.946 79.5725 186.716C79.5725 186.716 69.2792 183.582 60.3841 189.85V189.826Z" fill="#3ABAA4"/>
<path d="M77.4512 199.516C77.4271 199.516 77.3788 199.516 77.3547 199.516C77.21 199.492 77.0895 199.396 77.0172 199.251C76.969 199.155 71.5452 188.765 60.4324 190.283C60.2154 190.308 59.9984 190.187 59.9261 189.994C59.8538 189.777 59.9262 189.56 60.0949 189.416C69.0864 183.076 79.5966 186.185 79.7171 186.21C79.7654 186.21 79.8376 186.258 79.8858 186.282C81.5973 187.656 82.5375 189.367 82.5616 191.248C82.5857 193.875 80.8983 196.744 77.7887 199.371C77.6922 199.444 77.5957 199.492 77.4752 199.492L77.4512 199.516ZM62.65 189.175C67.6159 189.175 71.28 191.416 73.5701 193.465C75.7155 195.37 77.0173 197.347 77.5717 198.287C80.1752 195.973 81.5973 193.49 81.5732 191.296C81.5732 189.705 80.8019 188.307 79.3556 187.126C78.4154 186.861 70.0506 184.763 62.2884 189.175C62.409 189.175 62.5536 189.175 62.6742 189.175H62.65Z" fill="#20564C"/>
<path d="M54.0922 105.768C53.6101 88.7736 42.7383 75.2501 35.3619 73.8037C29.4801 72.6466 9.64084 73.0564 8.36322 74.575C19.6689 74.575 44.7873 80.6981 51.1513 105.768H54.0682H54.0922Z" fill="#3ABAA4"/>
<path d="M54.0922 106.25H51.1755C50.9585 106.25 50.7656 106.106 50.7174 105.889C47.9693 95.0412 41.4608 86.7245 31.4086 81.2043C23.1643 76.6723 14.1246 75.0572 8.38738 75.0572C2.65016 75.0572 8.02572 74.9609 7.9534 74.7922C7.88108 74.6234 7.90526 74.4306 8.02579 74.2859C8.96592 73.1529 16.0289 72.8155 20.151 72.719C25.5026 72.5744 32.3246 72.719 35.4825 73.3458C39.3876 74.1172 44.0642 78.0947 47.7283 83.7114C51.9227 90.1718 54.3574 98.0062 54.5985 105.768C54.5985 105.889 54.5502 106.034 54.4538 106.13C54.3574 106.226 54.2369 106.274 54.1163 106.274L54.0922 106.25ZM51.5611 105.286H53.6101C53.2967 97.8616 50.9344 90.3886 46.9328 84.2175C43.4133 78.7937 38.9537 74.985 35.3137 74.2618C30.1791 73.2493 17.1619 73.4903 11.4729 74.2135C17.2101 74.6956 24.8518 76.4555 31.8907 80.3365C41.9429 85.8568 48.7407 94.4626 51.5852 105.262L51.5611 105.286Z" fill="#20564C"/>
<path d="M54.1165 116.543C54.1165 83.6868 89.5041 80.071 85.8882 53.0723C69.7854 63.7271 52.1398 79.0826 52.1398 116.543H54.1165Z" fill="#3ABAA4"/>
<path d="M54.1164 117.026H52.1398C51.8746 117.026 51.6577 116.809 51.6577 116.544C51.6577 99.5006 55.2253 85.7602 62.5776 74.5028C69.2068 64.33 77.9572 57.7732 85.6229 52.6868C85.7676 52.5904 85.9363 52.5904 86.0809 52.6386C86.2256 52.7109 86.3462 52.8556 86.3703 53.0243C88.1782 66.5237 80.392 74.2858 72.1477 82.53C63.5178 91.1358 54.5985 100.055 54.5985 116.568C54.5985 133.08 54.3816 117.05 54.1164 117.05V117.026ZM52.6219 116.061H53.6343C53.7066 108.685 55.5869 102.128 59.3474 96.0293C62.7223 90.5332 67.1577 86.1218 71.4486 81.8309C79.3553 73.9242 86.8282 66.4755 85.5024 53.9163C78.0778 58.8821 69.737 65.2943 63.3731 75.0331C56.2136 86.0255 52.6942 99.4524 52.6219 116.061Z" fill="#20564C"/>
<path d="M26.3702 18.0222C22.5614 19.9507 25.7916 28.0021 25.7916 28.0021C29.0459 24.796 31.1914 20.6979 36.1813 20.0952C36.1813 20.0952 29.2629 16.5999 26.3943 18.0462L26.3702 18.0222Z" fill="#1E8773"/>
<path d="M25.7919 28.4841C25.7677 28.4841 25.7196 28.4841 25.6955 28.4841C25.5267 28.46 25.4062 28.3394 25.358 28.1948C25.2134 27.8573 22.0072 19.7095 26.1776 17.6123C29.239 16.0695 36.1092 19.5167 36.3985 19.6613C36.5913 19.7577 36.6878 19.9747 36.6637 20.1676C36.6155 20.3845 36.4467 20.5292 36.2538 20.5533C32.662 20.9872 30.613 23.3496 28.4194 25.8566C27.6962 26.6762 26.9489 27.5439 26.1534 28.3153C26.057 28.4118 25.9365 28.46 25.816 28.46L25.7919 28.4841ZM26.5874 18.456C23.8152 19.8542 25.3098 25.1816 25.9848 27.11C26.5633 26.5074 27.1178 25.8566 27.6722 25.2298C29.6007 23.0362 31.5773 20.7702 34.6388 19.9024C32.2523 18.8899 28.3712 17.5641 26.6114 18.456H26.5874Z" fill="#20564C"/>
<path d="M139.379 145.736L156.567 143.518C188.724 169.866 199.765 222.369 199.789 224.032C189.929 224.996 174.55 225.527 163.341 225.527C152.035 225.527 147.021 224.996 137.113 224.008C141.476 202.385 146.225 197.13 146.346 178.399C146.466 158.416 139.379 145.76 139.379 145.76V145.736Z" fill="#DDDCFC"/>
<path d="M145.623 193.056C143.839 202.071 140.102 209.231 137.113 224.008C147.021 224.996 152.035 225.527 163.341 225.527C174.646 225.527 168.764 225.502 171.705 225.43C165.51 219.669 154.47 208.267 145.623 193.032V193.056Z" fill="#5B56A4"/>
<path d="M164.281 225.527C168.041 225.527 172.236 225.454 176.502 225.334C167.198 204.53 166.04 186.644 145.719 168.178C145.719 168.178 146.876 172.517 146.611 178.375C146.177 188.235 145.623 194.357 143.525 201.131C148.443 211.425 154.012 219.934 164.305 225.527H164.281Z" fill="#8B8BD1"/>
<path d="M137.113 224.49C137.089 224.49 137.041 224.49 137.017 224.49C136.752 224.442 136.583 224.177 136.631 223.912C138.391 215.185 140.151 209.617 141.693 204.699C144.008 197.395 145.671 192.092 145.936 180.979C146.225 169.167 144.49 161.067 142.971 156.367C141.332 151.256 139.596 148.918 139.572 148.894C139.403 148.677 139.451 148.388 139.668 148.219C139.885 148.05 140.175 148.098 140.343 148.315C140.633 148.701 147.503 158.03 146.924 181.003C146.635 192.26 144.875 197.877 142.634 204.988C141.091 209.882 139.331 215.426 137.595 224.105C137.547 224.322 137.354 224.49 137.113 224.49Z" fill="#191935"/>
<path d="M199.789 224.514C199.572 224.514 199.355 224.345 199.307 224.128C199.283 223.984 196.438 209.93 189.688 192.983C185.759 183.1 181.275 174.205 176.382 166.563C170.283 157.017 163.509 149.4 156.278 143.904C156.061 143.735 156.012 143.446 156.181 143.229C156.35 143.012 156.639 142.988 156.856 143.132C188.821 167.383 200.271 223.55 200.271 224.032C200.271 224.514 200.078 224.49 199.837 224.514C199.837 224.514 199.813 224.514 199.789 224.514Z" fill="#191935"/>
<path d="M158.519 150.34C164.618 156.873 169.319 160.031 178.6 166.298C181.396 169.649 188.555 174.374 188.555 174.374C181.975 173 172.838 171.987 162.497 164.056C160.882 162.827 160.858 162.031 159.002 160.296C154.229 155.86 144.875 152.172 144.875 152.172L144.369 149.279L156.76 147.206L158.495 150.364L158.519 150.34Z" fill="#49488A"/>
<path d="M188.555 174.856C188.531 174.856 188.483 174.856 188.459 174.856C187.977 174.759 187.471 174.663 186.94 174.542C180.6 173.289 171.03 171.384 162.063 164.321C161.846 164.153 161.822 163.863 161.991 163.646C162.159 163.429 162.449 163.405 162.666 163.574C171.103 170.227 180.167 172.228 186.41 173.458C183.999 171.722 179.95 168.709 178.238 166.612C178.069 166.395 178.093 166.105 178.31 165.936C178.527 165.768 178.817 165.792 178.985 166.009C181.348 168.902 188.772 173.94 188.845 173.988C189.037 174.108 189.11 174.374 189.013 174.566C188.941 174.759 188.748 174.856 188.58 174.856H188.555Z" fill="#191935"/>
<path d="M178.6 166.298C169.102 154.39 162.256 143.663 162.256 143.663L149.118 146.748C174.719 173.12 178.6 166.298 178.6 166.298Z" fill="#8588D1"/>
<path d="M178.6 166.781C178.455 166.781 178.335 166.732 178.238 166.612C169.391 156.078 161.918 144.049 161.846 143.928C161.701 143.711 161.774 143.398 162.015 143.253C162.232 143.109 162.545 143.181 162.69 143.422C162.762 143.542 170.187 155.523 178.985 165.985C179.154 166.178 179.13 166.491 178.937 166.66C178.841 166.732 178.744 166.781 178.624 166.781H178.6Z" fill="#191935"/>
<path d="M130.436 141.132C128.748 138.239 139.09 139.107 144.634 141.903C151.046 145.133 133.762 146.845 130.436 141.132Z" fill="#894E71"/>
<path d="M140.609 145.35C136.679 145.35 131.738 144.313 130.026 141.373C129.544 140.529 129.881 139.974 130.122 139.709C131.834 137.901 140.367 139.203 144.851 141.469C145.309 141.686 146.659 142.385 146.515 143.397C146.418 144.169 145.502 144.747 143.815 145.061C142.923 145.23 141.814 145.326 140.609 145.326V145.35ZM133.594 139.806C132.196 139.806 131.183 139.999 130.822 140.36C130.773 140.432 130.653 140.529 130.87 140.89C132.702 144.048 139.644 144.916 143.646 144.121C145.165 143.831 145.55 143.397 145.574 143.277C145.574 143.277 145.598 142.915 144.417 142.337C141.091 140.649 136.511 139.83 133.594 139.83V139.806Z" fill="#191935"/>
<g opacity="0.2">
<path d="M153.674 123.414C153.626 122.883 150.974 119.34 149.48 118.424C147.961 117.508 142.007 122.594 141.91 123.342C141.838 124.113 144.562 128.115 144.899 128.404C145.261 128.693 153.794 124.981 153.65 123.39L153.674 123.414Z" fill="#DEF5FF"/>
</g>
<g opacity="0.2">
<path d="M154.108 123.197C154.06 122.667 151.408 119.123 149.913 118.207C148.395 117.291 142.441 122.377 142.344 123.125C142.272 123.896 144.996 127.898 145.333 128.187C145.695 128.476 154.228 124.764 154.084 123.173L154.108 123.197Z" fill="#DEF5FF"/>
</g>
<path d="M145.406 128.717C145.213 128.717 145.141 128.669 145.068 128.596C144.755 128.355 141.766 124.185 141.886 123.1C141.983 122.184 145.647 119.195 147.72 118.159C148.829 117.604 149.648 117.484 150.179 117.797C151.408 118.52 154.518 122.184 154.614 123.148C154.638 123.486 154.711 124.378 150.95 126.403C149.841 127.005 148.564 127.608 147.431 128.066C146.249 128.548 145.719 128.693 145.43 128.693L145.406 128.717ZM142.85 123.221C142.875 123.414 143.188 124.137 144.128 125.631C144.731 126.572 145.309 127.415 145.574 127.729C146.129 127.584 147.913 126.909 149.913 125.897C152.878 124.378 153.602 123.51 153.65 123.269C153.433 122.642 151.046 119.46 149.696 118.641C149.6 118.592 149.359 118.568 148.925 118.713C146.9 119.364 143.236 122.522 142.875 123.221H142.85Z" fill="black"/>
<path d="M156.205 126.62C141.525 108.42 115.707 96.5113 102.81 94.4141C100.11 93.9802 97.2418 95.6676 103.63 100.031C124.482 114.277 127.254 126.596 130.58 136.455C132.967 142.578 144.007 142.289 144.007 142.289C139.283 144.217 133.112 143.325 130.339 141.083C132.364 145.688 137.643 150.702 143.935 154.197C148.226 156.583 157.507 154.631 157.507 154.631C157.507 154.631 165.606 152.1 164.618 146.242C163.148 137.467 160.52 131.971 156.205 126.62Z" fill="#8588D1"/>
<path d="M110.838 96.1018C113.128 100.007 112.429 103.478 111.802 105.985C111.802 105.985 106.016 101.718 103.63 99.7658C97.29 94.6312 100.11 93.4501 102.81 93.884C104.98 94.2456 107.752 95.3062 110.862 96.0776L110.838 96.1018Z" fill="#49488A"/>
<path d="M157.965 129.103C138.921 105.816 109.247 95.6916 103.244 94.4863C103.244 94.4863 100.496 93.8837 100.159 95.33C104.257 94.1006 116.744 97.596 135.643 109.818C144.466 115.531 150.516 121.606 157.965 129.103Z" fill="#DCE5EA"/>
<path d="M157.965 129.585C157.844 129.585 157.724 129.537 157.627 129.44H157.603C150.082 121.871 144.152 115.917 135.378 110.228C117.25 98.4884 104.498 94.5108 100.303 95.7884C100.135 95.8366 99.966 95.7884 99.8454 95.692C99.7249 95.5715 99.6767 95.4028 99.7008 95.234C99.7972 94.8242 100.038 94.4867 100.376 94.2698C101.388 93.6189 103.148 93.9805 103.341 94.0287C109.632 95.2822 139.21 105.431 158.351 128.814C158.519 129.006 158.495 129.296 158.302 129.489C158.206 129.561 158.085 129.609 157.989 129.609L157.965 129.585Z" fill="#DCE5EA"/>
<path d="M137.788 143.615C135.86 143.711 131.448 142.385 130.364 141.107C132.437 145.446 137.86 150.437 143.911 154.197C142.874 149.665 137.957 143.904 137.764 143.615H137.788Z" fill="#49488A"/>
<path d="M136.679 141.493C131.882 136.021 130.291 119.171 115.418 109.432C125.639 119.46 127.905 128.717 130.556 136.455C132.171 140.794 136.655 141.469 136.655 141.469L136.679 141.493Z" fill="#49488A"/>
<path d="M157.868 128.5C157.796 128.5 157.7 128.5 157.627 128.428C157.386 128.307 157.314 127.994 157.435 127.777C157.748 127.222 157.989 126.571 157.941 126.379C157.772 125.921 156.253 123.944 155.868 123.751C155.578 123.63 154.686 123.655 154.156 123.679C153.891 123.679 153.65 123.51 153.65 123.245C153.65 122.98 153.819 122.739 154.084 122.739C154.349 122.739 155.651 122.642 156.229 122.883C156.952 123.172 158.664 125.559 158.857 126.065C159.098 126.716 158.543 127.825 158.278 128.259C158.182 128.428 158.037 128.5 157.868 128.5Z" fill="black"/>
<path d="M105.824 98.3195C104.425 97.9338 103.654 97.1143 103.003 96.5357C102.618 96.2223 102.111 96.7527 102.714 97.2348C104.016 98.2231 105.848 98.3195 105.848 98.3195H105.824Z" fill="black"/>
<path d="M105.824 98.8014C105.751 98.8014 103.847 98.6808 102.425 97.6202C102.087 97.355 101.918 97.0176 101.967 96.6801C102.015 96.3908 102.208 96.1497 102.473 96.0292C102.762 95.9327 103.076 95.981 103.317 96.1738C103.413 96.2461 103.509 96.3426 103.63 96.439C104.208 96.9452 104.884 97.5478 105.968 97.8371C106.209 97.9094 106.354 98.1264 106.306 98.3675C106.258 98.6085 106.065 98.7773 105.824 98.7773V98.8014Z" fill="black"/>
<path d="M148.395 155.812C148.395 155.812 148.371 155.812 148.346 155.812C141.018 155.041 132.075 145.977 130.002 141.348C129.905 141.131 130.002 140.866 130.195 140.746C130.388 140.625 130.677 140.649 130.821 140.842C131.738 141.927 137.065 143.566 141.452 142.698C137.885 142.385 131.737 141.204 130.291 136.841C130.05 136.093 129.809 135.322 129.544 134.55C126.675 125.535 123.108 114.301 104.016 100.802C101.388 98.946 98.6159 96.1738 99.3632 94.4382C99.8453 93.3293 101.509 93.0882 104.329 93.6667C118.214 96.5836 141.525 109.504 156.47 126.113C164.473 135.009 165.317 148.291 165.317 148.436C165.317 148.701 165.124 148.918 164.859 148.942C164.594 148.942 164.377 148.749 164.353 148.484C164.353 148.363 163.533 135.394 155.747 126.764C139.427 108.637 115.731 97.0416 104.112 94.631C101.557 94.1006 100.424 94.3899 100.231 94.8479C99.8694 95.6434 101.388 97.813 104.546 100.055C123.903 113.747 127.519 125.149 130.436 134.309C130.677 135.081 130.918 135.852 131.183 136.6C132.967 142.047 143.863 141.903 143.983 141.903C144.2 141.903 144.417 142.047 144.465 142.264C144.514 142.481 144.417 142.698 144.224 142.819C140.319 144.82 134.678 143.904 131.762 142.626C134.727 147.23 142.32 154.293 148.443 154.944C148.708 154.968 148.901 155.209 148.877 155.474C148.853 155.715 148.636 155.908 148.395 155.908V155.812Z" fill="#191935"/>
<path d="M159.098 122.859C159.098 122.859 159.074 122.859 159.05 122.859C158.784 122.835 158.592 122.594 158.616 122.329C158.616 122.208 158.809 119.774 155.651 118.906C155.385 118.833 155.241 118.568 155.313 118.303C155.385 118.038 155.651 117.893 155.916 117.966C159.869 119.05 159.58 122.377 159.58 122.425C159.556 122.666 159.339 122.859 159.098 122.859Z" fill="#191935"/>
<path d="M154.445 132.02C158.568 135.418 156.808 142.385 156.808 142.385C150.854 140.36 151.818 133.538 154.445 132.02Z" fill="white"/>
<path d="M152.445 132.719C151.263 133.152 150.612 134.478 151.022 135.683C151.408 136.889 152.686 137.54 153.891 137.106C155.072 136.672 155.723 135.346 155.313 134.141C154.928 132.935 153.65 132.285 152.445 132.719Z" fill="#191935"/>
<path d="M154.445 132.02C149.07 125.848 144.803 144.627 156.808 142.385C150.854 140.36 151.818 133.538 154.445 132.02Z" fill="#8588D1"/>
<path d="M154.638 134.743C155.024 134.478 154.301 133.249 153.867 133.538C153.433 133.827 154.204 135.057 154.638 134.743Z" fill="white"/>
<path d="M157.459 141.879C157.459 141.879 157.41 141.879 157.386 141.879C157.121 141.855 156.928 141.59 156.976 141.324C157.362 138.48 157.001 136.527 156.639 135.394C156.253 134.165 155.747 133.586 155.747 133.586C155.578 133.394 155.602 133.08 155.795 132.911C155.988 132.743 156.301 132.743 156.47 132.96C156.567 133.056 158.736 135.587 157.917 141.469C157.892 141.71 157.675 141.879 157.434 141.879H157.459Z" fill="#191935"/>
<path d="M164.522 136.696C164.425 136.696 164.329 136.672 164.256 136.6C164.039 136.455 163.991 136.142 164.136 135.925C164.136 135.925 164.907 134.768 164.642 133.635C164.497 133.008 164.039 132.502 163.316 132.092C163.075 131.972 163.003 131.658 163.123 131.441C163.244 131.2 163.557 131.128 163.774 131.248C164.763 131.803 165.365 132.526 165.582 133.418C165.944 134.961 164.98 136.407 164.931 136.455C164.835 136.6 164.69 136.672 164.546 136.672L164.522 136.696Z" fill="#191935"/>
<path d="M161.243 143.952C161.243 143.952 168.017 148.219 168.572 149.858C168.74 150.364 167.439 153.305 165.486 154.559C163.437 155.861 160.737 155.427 160.279 154.872C159.484 153.908 158.881 150.003 158.881 150.003" fill="#D2D2FB"/>
<path d="M167.342 150.099C167.222 150.099 167.101 150.051 167.005 149.954C167.005 149.954 164.98 147.857 161.123 145.23C160.906 145.085 160.833 144.772 161.002 144.555C161.147 144.338 161.46 144.29 161.677 144.434C165.631 147.11 167.631 149.183 167.728 149.28C167.921 149.472 167.897 149.786 167.728 149.954C167.631 150.051 167.511 150.099 167.39 150.099H167.342Z" fill="white"/>
<path d="M162.376 155.86C162.352 155.86 162.304 155.86 162.28 155.86C161.46 155.86 160.327 155.643 159.893 155.137C159.026 154.1 158.447 150.436 158.399 150.026C158.351 149.761 158.544 149.52 158.809 149.472C159.074 149.424 159.315 149.617 159.363 149.882C159.58 151.328 160.134 153.883 160.641 154.51C160.906 154.824 163.316 155.33 165.221 154.1C166.932 153.016 168.089 150.46 168.089 149.954C167.656 148.869 163.509 145.929 160.978 144.338C160.761 144.193 160.689 143.904 160.834 143.663C160.978 143.446 161.267 143.373 161.508 143.518C162.666 144.241 168.451 147.953 169.03 149.665C169.247 150.34 168.427 151.835 168.234 152.148C167.824 152.847 166.956 154.149 165.751 154.92C164.498 155.716 163.148 155.86 162.4 155.86H162.376Z" fill="#49488A"/>
<path d="M163.991 147.761C166.691 149.207 166.257 151.666 166.257 151.666C165.582 150.894 164.715 150.436 164.715 150.436C164.522 151.834 163.557 152.943 163.557 152.943C163.557 152.943 163.148 152.003 162.979 151.401C162.979 151.401 162.232 151.569 161.508 151.569C161.508 151.569 161.195 148.387 161.316 147.375C161.316 147.375 162.834 147.11 163.967 147.736L163.991 147.761Z" fill="#6A6DB8"/>
<path d="M168.331 151.353C168.186 151.353 168.041 151.28 167.945 151.16C165.245 147.592 160.858 147.568 160.713 147.568C160.448 147.568 160.231 147.351 160.231 147.086C160.231 146.821 160.448 146.604 160.713 146.604C160.906 146.604 165.703 146.604 168.74 150.581C168.909 150.798 168.861 151.087 168.644 151.256C168.547 151.328 168.451 151.353 168.355 151.353H168.331Z" fill="#49488A"/>
<g opacity="0.2">
<path d="M157.869 128.018C162.28 131.73 162.786 137.564 162.786 140.095C162.786 140.866 162.401 141.589 161.774 141.999C159.869 143.229 157.7 144.265 156.133 144.988C154.735 145.615 153.096 145.157 152.155 143.855C149.769 140.505 149.142 136.961 148.998 134.719C148.925 133.321 149.576 131.995 150.709 131.272C155.579 128.162 157.869 128.042 157.869 128.042V128.018Z" fill="#DEF5FF"/>
</g>
<path d="M154.855 145.736C153.674 145.736 152.541 145.157 151.794 144.121C149.383 140.722 148.684 137.13 148.539 134.743C148.443 133.152 149.19 131.658 150.468 130.838C155.385 127.704 157.748 127.536 157.868 127.536C157.989 127.536 158.109 127.56 158.206 127.656C162.81 131.537 163.292 137.66 163.292 140.119C163.292 141.059 162.834 141.927 162.063 142.433C160.11 143.687 157.892 144.771 156.374 145.446C155.892 145.663 155.385 145.76 154.879 145.76L154.855 145.736ZM157.724 128.524C157.097 128.62 154.903 129.151 150.974 131.658C149.986 132.285 149.407 133.442 149.504 134.671C149.648 136.961 150.275 140.336 152.565 143.566C153.36 144.675 154.759 145.085 155.94 144.554C157.434 143.88 159.604 142.843 161.508 141.614C161.99 141.3 162.28 140.746 162.28 140.119C162.28 137.829 161.846 132.164 157.7 128.548L157.724 128.524Z" fill="black"/>
<path d="M51.3682 201.662C47.2461 205.085 36.6636 210.557 34.0119 216.246C34.0119 216.246 21.9107 204.868 26.8765 198.528C31.8424 192.188 55.6109 198.118 51.3682 201.662Z" fill="#3ABAA4"/>
<path d="M34.0361 216.752C33.9156 216.752 33.7951 216.704 33.6987 216.632C33.1924 216.149 21.3322 204.892 26.515 198.263C27.7926 196.624 30.3237 195.611 33.8432 195.346C36.76 195.129 40.2313 195.394 43.6544 196.141C47.5355 196.985 51.8504 198.552 52.3325 200.432C52.429 200.842 52.4048 201.469 51.7058 202.047C50.4764 203.06 48.7648 204.217 46.764 205.543C42.1116 208.652 36.302 212.558 34.47 216.463C34.3977 216.607 34.2772 216.704 34.1325 216.728C33.9879 216.752 34.0602 216.728 34.0361 216.728V216.752ZM35.9163 196.19C31.4085 196.19 28.4435 197.323 27.2623 198.841C23.1643 204.096 31.7701 213.305 33.8915 215.45C36.0851 211.521 41.6777 207.76 46.2096 204.747C48.1863 203.421 49.8737 202.288 51.079 201.3C51.4647 200.963 51.4165 200.746 51.3924 200.649C51.1514 199.661 48.3551 198.118 43.4616 197.057C40.6171 196.455 38.11 196.19 35.9405 196.19H35.9163Z" fill="#20564C"/>
<path d="M73.787 134.093C73.787 134.093 56.0691 141.276 50.6694 174.277H54.4299C65.591 140.553 101.123 135.852 101.123 135.852C101.123 135.852 79.9581 131.104 73.787 134.093Z" fill="#1E8773"/>
<path d="M54.4298 174.76H50.6693C50.5246 174.76 50.4041 174.687 50.3077 174.591C50.2112 174.494 50.1872 174.35 50.2113 174.205C51.7541 164.731 55.394 151.377 63.9034 141.493C68.9175 135.66 73.2565 133.779 73.6181 133.659C79.8856 130.646 100.376 135.202 101.244 135.395C101.461 135.443 101.629 135.66 101.629 135.877C101.629 136.094 101.436 136.311 101.219 136.335C101.123 136.335 92.2761 137.564 82.1998 142.867C76.2939 145.977 71.1111 149.858 66.8203 154.39C61.4687 160.079 57.4671 166.805 54.936 174.422C54.8636 174.615 54.6949 174.76 54.478 174.76H54.4298ZM51.2478 173.795H54.0922C56.6716 166.178 60.6973 159.428 66.0971 153.715C70.4603 149.087 75.7395 145.157 81.7418 142C88.8049 138.287 95.2653 136.552 98.6402 135.828C92.9511 134.695 78.7527 132.212 74.0038 134.527C74.0038 134.527 74.0038 134.527 73.9797 134.527C73.9315 134.527 69.5442 136.383 64.5783 142.168C60.0223 147.472 54.0441 157.234 51.2478 173.795Z" fill="#20564C"/>
<path d="M73.787 134.093C80.8018 132.116 105.944 139.854 113.465 154.824C113.465 154.824 117.081 141.855 107.897 133.635C102.955 129.223 80.6572 130.694 73.787 134.069V134.093Z" fill="#3ABAA4"/>
<path d="M113.466 155.306C113.273 155.306 113.128 155.21 113.032 155.041C105.752 140.577 80.9947 132.55 73.9076 134.551C73.6665 134.623 73.4255 134.503 73.3291 134.262C73.2326 134.021 73.3291 133.755 73.5701 133.659C76.945 131.996 84.1768 130.718 91.5532 130.477C95.4584 130.332 104.932 130.357 108.234 133.297C113.104 137.637 114.406 143.301 114.623 147.303C114.864 151.594 113.996 154.848 113.948 154.969C113.899 155.162 113.731 155.306 113.538 155.33C113.538 155.33 113.514 155.33 113.49 155.33L113.466 155.306ZM77.3547 133.322C81.6938 133.514 87.8408 135.105 93.6262 137.661C99.0019 140.023 108.5 145.158 113.273 153.45C113.875 150.051 114.791 140.457 107.584 134.021C105.462 132.14 99.5081 131.176 91.6013 131.441C86.2739 131.634 81.067 132.333 77.3788 133.346L77.3547 133.322Z" fill="#20564C"/>
<path d="M113.465 155.306C113.417 155.306 113.393 155.306 113.345 155.306C113.08 155.234 112.935 154.968 113.007 154.727C113.031 154.607 116.069 142.241 106.957 134.647C104.932 132.96 99.0981 131.923 91.6976 131.923C84.297 131.923 91.4325 131.923 91.312 131.923C83.9596 131.947 77.1617 132.984 74.0038 134.551C73.7627 134.671 73.4735 134.551 73.353 134.334C73.2325 134.093 73.353 133.803 73.5699 133.683C76.8724 132.068 83.815 130.983 91.312 130.959C91.4566 130.959 91.577 130.959 91.6976 130.959C99.4115 130.959 105.342 132.068 107.559 133.924C112.573 138.118 114.044 143.615 114.381 147.496C114.743 151.69 113.972 154.848 113.923 154.993C113.875 155.21 113.682 155.354 113.465 155.354V155.306Z" fill="#DDEDE8"/>
<path d="M113.466 155.306C113.273 155.306 113.128 155.21 113.032 155.041C105.752 140.577 80.9947 132.55 73.9076 134.551C73.6665 134.623 73.4255 134.503 73.3291 134.262C73.2326 134.021 73.3291 133.755 73.5701 133.659C76.945 131.996 84.1768 130.718 91.5532 130.477C95.4584 130.332 104.932 130.357 108.234 133.297C113.104 137.637 114.406 143.301 114.623 147.303C114.864 151.594 113.996 154.848 113.948 154.969C113.899 155.162 113.731 155.306 113.538 155.33C113.538 155.33 113.514 155.33 113.49 155.33L113.466 155.306ZM77.3547 133.322C81.6938 133.514 87.8408 135.105 93.6262 137.661C99.0019 140.023 108.5 145.158 113.273 153.45C113.875 150.051 114.791 140.457 107.584 134.021C105.462 132.14 99.5081 131.176 91.6013 131.441C86.2739 131.634 81.067 132.333 77.3788 133.346L77.3547 133.322Z" fill="#20564C"/>
<path d="M54.261 71.7304C54.261 36.1982 44.2088 20.9632 41.2438 18.5767C38.2787 16.1902 27.1659 17.2268 26.3463 18.0223C33.6022 18.0223 47.222 31.377 51.4888 71.7304H54.2369H54.261Z" fill="#3ABAA4"/>
<path d="M54.2611 72.2125H51.5131C51.272 72.2125 51.055 72.0197 51.0309 71.7787C49.7292 59.4364 46.6918 42.1764 39.6529 29.9788C36.4468 24.4344 31.264 18.5045 26.3704 18.5045C21.4769 18.5045 26.0089 18.3839 25.9125 18.2152C25.8401 18.0223 25.8883 17.8294 26.033 17.6848C27.0695 16.6723 38.4475 15.7081 41.5572 18.2152C44.9803 20.9873 54.7432 36.7526 54.7432 71.7304C54.7432 106.708 54.5263 72.2125 54.2611 72.2125ZM51.9469 71.2483H53.779C53.7308 56.4472 51.8747 43.1889 48.4034 32.8715C45.5107 24.2898 42.2564 19.999 40.9305 18.9383C38.8092 17.2268 32.0836 17.4197 28.6605 17.9018C36.6878 20.3606 48.0658 35.4509 51.9228 71.2483H51.9469Z" fill="#20564C"/>
<path d="M49.7772 36.0537C49.5843 36.0537 49.3915 35.9332 49.3192 35.7404C46.5229 27.9301 41.9669 20.9392 40.4 19.7339C38.3992 18.1911 30.9023 18.1189 27.9131 18.6733C27.648 18.7215 27.4068 18.5527 27.3586 18.2876C27.3104 18.0224 27.4792 17.7814 27.7443 17.7332C30.6129 17.2029 38.6161 17.1065 41.0026 18.9867C42.8588 20.4331 47.463 27.713 50.2352 35.4269C50.3316 35.668 50.187 35.9573 49.946 36.0537C49.8977 36.0537 49.8254 36.0779 49.7772 36.0779V36.0537Z" fill="#DDEDE8"/>
<path d="M54.2611 72.2125H51.5131C51.272 72.2125 51.055 72.0197 51.0309 71.7787C49.7292 59.4364 46.6918 42.1764 39.6529 29.9788C36.4468 24.4344 31.264 18.5045 26.3704 18.5045C21.4769 18.5045 26.0089 18.3839 25.9125 18.2152C25.8401 18.0223 25.8883 17.8294 26.033 17.6848C27.0695 16.6723 38.4475 15.7081 41.5572 18.2152C44.9803 20.9873 54.7432 36.7526 54.7432 71.7304C54.7432 106.708 54.5263 72.2125 54.2611 72.2125ZM51.9469 71.2483H53.779C53.7308 56.4472 51.8747 43.1889 48.4034 32.8715C45.5107 24.2898 42.2564 19.999 40.9305 18.9383C38.8092 17.2268 32.0836 17.4197 28.6605 17.9018C36.6878 20.3606 48.0658 35.4509 51.9228 71.2483H51.9469Z" fill="#20564C"/>
<path d="M54.2611 71.7304C54.2611 36.8973 77.668 30.3405 63.566 1.50977C61.2519 17.1063 51.513 25.7844 51.513 71.7304C51.513 71.7304 49.681 151.304 49.681 177.845C49.681 204.386 48.4515 227.479 48.4515 227.479C48.4515 227.479 49.6087 227.937 52.1398 227.937C54.671 227.937 56.0691 227.479 56.0691 227.479C56.0691 227.479 54.7674 198.118 54.7674 177.652C54.7674 157.186 54.2852 71.7063 54.2852 71.7063L54.2611 71.7304Z" fill="#3ABAA4"/>
<path d="M52.1399 228.444C49.5364 228.444 48.3311 227.961 48.2829 227.937C48.0901 227.865 47.9695 227.672 47.9936 227.455C47.9936 227.214 49.223 203.422 49.223 177.845C49.223 152.269 51.0551 72.5019 51.0551 71.7064C51.0551 39.6214 55.7075 25.9051 59.4439 14.8646C61.0349 10.1639 62.409 6.11404 63.1081 1.41337C63.1322 1.19642 63.3009 1.05185 63.5178 1.00364C63.7348 0.979534 63.9276 1.07598 64.0241 1.26883C67.7364 8.86221 69.1346 15.419 68.3873 21.8794C67.7364 27.7131 65.374 32.9681 62.891 38.5366C59.0823 47.0942 54.7433 56.7848 54.7433 71.7064C54.7433 72.6707 55.2254 151.184 55.2254 177.652C55.2254 204.121 56.503 227.142 56.5271 227.455C56.5271 227.672 56.4066 227.865 56.1896 227.937C56.1414 227.937 54.6951 228.444 52.1157 228.444H52.1399ZM48.9578 227.142C49.44 227.262 50.4766 227.479 52.1399 227.479C53.8032 227.479 55.0084 227.262 55.5628 227.118C55.4182 223.598 54.2853 196.624 54.2853 177.676C54.2853 158.729 53.8032 72.5261 53.8032 71.7547C53.8032 56.6161 58.1664 46.829 62.0233 38.175C66.9409 27.1827 70.8461 18.4322 63.8071 3.10079C63.0357 7.24702 61.7822 10.9594 60.3599 15.202C56.6476 26.1703 52.0193 39.8143 52.0193 71.7547C52.0193 72.5502 50.1873 151.642 50.1873 177.869C50.1873 204.096 49.1266 224.008 48.982 227.142H48.9578Z" fill="#20564C"/>
<path d="M54.912 206.097C56.3584 197.732 67.4712 184.426 79.5724 186.692C79.5724 186.692 69.4961 182.931 60.384 189.826C53.779 194.816 50.6694 206.097 50.6694 206.097" fill="#3ABAA4"/>
<path d="M50.6692 206.579C50.621 206.579 50.5728 206.579 50.5487 206.579C50.2835 206.507 50.1389 206.242 50.2112 205.977C50.2353 205.856 51.0067 203.084 52.6218 199.637C54.1164 196.455 56.5993 192.092 60.0947 189.44C69.3032 182.473 79.6446 186.21 79.7411 186.258C79.9821 186.354 80.1026 186.595 80.0303 186.836C79.9579 187.078 79.7169 187.222 79.4759 187.174C74.0761 186.161 69.3514 188.452 66.3381 190.525C60.167 194.816 56.1413 201.662 55.3699 206.17C55.3217 206.435 55.0806 206.603 54.8154 206.555C54.5502 206.507 54.3816 206.266 54.4298 206.001C55.3699 200.48 60.1669 193.634 65.8077 189.705C68.5076 187.825 71.2798 186.644 74.052 186.162C70.3879 185.969 65.3739 186.619 60.6732 190.163C57.3466 192.694 54.9359 196.889 53.4896 199.974C51.9227 203.349 51.1513 206.145 51.1272 206.17C51.079 206.386 50.8862 206.531 50.6692 206.531V206.579Z" fill="#20564C"/>
<path d="M52.5495 79.1069C54.5262 56.0134 65.8079 43.7194 69.014 40.899C74.4619 38.3437 80.175 43.6952 78.0296 45.1898C78.0296 45.1898 58.576 61.5578 54.1405 79.1069" fill="#1E8773"/>
<path d="M54.1404 79.5889C54.0922 79.5889 54.0681 79.5889 54.0199 79.5889C53.7547 79.5166 53.6101 79.2515 53.6824 79.0104C55.9966 69.8502 62.4329 61.0515 67.3987 55.266C72.7744 49.0226 77.692 44.8763 77.7402 44.8281C77.7402 44.8281 77.7402 44.8281 77.7643 44.8039C78.1982 44.5147 78.0054 43.9844 77.7643 43.5746C76.776 41.8631 73.0154 39.6212 69.2789 41.3086C67.6156 42.8031 55.1287 54.6874 53.0074 79.155C53.0074 79.4201 52.7423 79.613 52.4771 79.5889C52.212 79.5889 52.0191 79.3237 52.0432 79.0586C54.1886 53.9401 67.2058 41.8149 68.6763 40.5131C68.7004 40.489 68.7486 40.465 68.7968 40.4409C73.1359 38.416 77.4027 41.0194 78.5839 43.0684C79.1624 44.0808 79.066 45.0209 78.3187 45.5513C78.0053 45.8164 73.2806 49.8663 68.0978 55.8687C63.1802 61.5577 56.8644 70.2358 54.5984 79.2032C54.5502 79.4202 54.3574 79.5648 54.1404 79.5648V79.5889Z" fill="#20564C"/>
<path d="M69.0139 40.899C71.8343 40.1999 73.2082 49.5289 77.716 55.5554C78.7767 50.4449 84.0318 44.4185 82.4649 40.6821C81.4766 38.3197 73.1119 37.7652 69.0139 40.899Z" fill="#66CCB9"/>
<path d="M156.036 179.918C156.036 179.918 167.969 192.284 162.304 198.938C158.929 202.891 148.998 200.721 138.078 198.552C130.412 197.033 136.631 212.461 136.631 212.461C138.198 214.631 141.983 214.896 141.983 214.896C141.983 214.896 139.813 215.402 137.523 217.547C137.523 217.547 140.151 217.065 141.284 217.981C141.284 217.981 140.44 218.68 139.259 219.645C140.56 220.32 176.768 226.732 186.555 214.1C194.775 203.518 183.951 181.871 183.951 181.871L156.036 179.918Z" fill="#DDDCFC"/>
<path d="M156.036 179.918C156.036 179.918 167.969 192.284 162.304 198.938C158.929 202.891 148.998 200.721 138.078 198.552C130.412 197.033 136.631 212.461 136.631 212.461C138.198 214.631 141.983 214.896 141.983 214.896C141.983 214.896 139.813 215.402 137.523 217.547C137.523 217.547 140.151 217.065 141.284 217.981C141.284 217.981 140.44 218.68 139.259 219.645C140.56 220.32 176.768 226.732 186.555 214.1C194.775 203.518 183.951 181.871 183.951 181.871L156.036 179.918Z" fill="#DDDCFC"/>
<path d="M189.64 202.915C188.435 206.242 186.217 209.882 182.191 213.16C171.344 222.007 141.308 217.982 141.308 217.982C141.308 217.982 140.464 218.681 139.283 219.645C140.585 220.32 176.792 226.732 186.579 214.1C188.965 211.039 189.737 207.037 189.64 202.915Z" fill="#9597CF"/>
<path d="M155.313 201.155C154.735 201.155 154.132 201.156 153.481 201.107C149.359 200.939 144.007 200.215 137.981 199.01C137.716 198.962 137.547 198.697 137.595 198.432C137.643 198.166 137.909 197.998 138.174 198.046C151.143 200.625 160.255 200.842 161.918 198.624C167.077 191.73 155.819 180.352 155.699 180.232C155.506 180.039 155.506 179.749 155.699 179.557C155.892 179.364 156.181 179.364 156.374 179.557C156.494 179.677 159.387 182.57 161.629 186.427C164.69 191.634 165.052 196.045 162.665 199.203C161.701 200.505 159.266 201.131 155.289 201.131L155.313 201.155Z" fill="#7481BA"/>
<path d="M138.078 198.552C130.412 197.033 136.631 212.461 136.631 212.461C138.198 214.631 141.983 214.896 141.983 214.896C141.983 214.896 139.813 215.402 137.523 217.547C137.523 217.547 140.151 217.065 141.284 217.981C141.284 217.981 140.44 218.68 139.259 219.645C140.753 219.886 142.537 220.103 142.537 220.103C147.503 218.946 151.191 218.03 151.191 218.03C148.274 217.547 146.997 216.631 146.997 216.631C153.216 215.065 157.772 209.761 157.772 209.761C153.047 209.303 149.672 207.809 149.672 207.809C152.83 206.025 155.554 203.397 155.554 203.397C153.433 203.277 151.022 201.613 149.504 200.384C145.767 199.974 141.934 199.347 138.053 198.576L138.078 198.552Z" fill="#57539F"/>
<path d="M139.283 220.127C139.138 220.127 139.018 220.079 138.921 219.958C138.752 219.741 138.776 219.452 138.993 219.283C139.596 218.801 140.102 218.367 140.464 218.078C139.548 217.789 138.198 217.933 137.643 218.03C137.427 218.078 137.234 217.958 137.137 217.765C137.041 217.572 137.089 217.331 137.234 217.186C138.319 216.15 139.379 215.499 140.223 215.065C138.921 214.752 137.234 214.077 136.27 212.727C136.125 212.51 136.173 212.22 136.39 212.052C136.607 211.907 136.896 211.955 137.065 212.172C138.487 214.125 142.031 214.39 142.055 214.39C142.296 214.39 142.489 214.583 142.513 214.824C142.513 215.065 142.368 215.282 142.151 215.33C142.151 215.33 140.753 215.668 139.09 216.897C139.958 216.897 140.994 217.017 141.669 217.572C141.79 217.668 141.862 217.789 141.862 217.958C141.862 218.126 141.79 218.247 141.693 218.343C141.693 218.343 140.85 219.042 139.668 220.007C139.572 220.079 139.476 220.127 139.355 220.127H139.283Z" fill="#191935"/>
<path d="M149.528 200.842H149.479C145.888 200.432 142.007 199.829 137.981 199.034C137.716 198.986 137.547 198.721 137.595 198.455C137.643 198.19 137.909 198.022 138.174 198.07C142.175 198.865 146.008 199.468 149.576 199.878C149.841 199.902 150.034 200.143 150.01 200.408C149.986 200.649 149.769 200.842 149.528 200.842Z" fill="#191935"/>
<path d="M160.207 222.321C159.917 222.321 159.628 222.321 159.339 222.321C149.214 222.224 139.909 220.513 139.066 220.079C138.825 219.958 138.728 219.669 138.849 219.428C138.969 219.187 139.259 219.09 139.5 219.211C140.994 219.91 175.586 226.057 186.217 213.787C194.148 204.627 183.638 182.305 183.541 182.088C183.421 181.847 183.541 181.557 183.758 181.437C183.999 181.316 184.289 181.437 184.409 181.654C184.433 181.702 187.157 187.463 188.845 194.285C191.111 203.566 190.484 210.316 186.964 214.39C181.348 220.874 169.512 222.297 160.231 222.297L160.207 222.321Z" fill="#191935"/>
<path d="M187.591 211.473C184.867 219.066 178.913 221.597 178.913 221.597C178.913 221.597 179.829 219.38 180.335 217.909" fill="#8B8BD1"/>
<path d="M178.889 222.079C178.768 222.079 178.648 222.031 178.551 221.935C178.407 221.79 178.359 221.597 178.455 221.404C178.455 221.404 179.371 219.187 179.877 217.74C179.974 217.499 180.239 217.355 180.504 217.451C180.745 217.547 180.89 217.813 180.793 218.078C180.528 218.825 180.166 219.789 179.853 220.536C181.685 219.403 185.229 216.631 187.133 211.328C187.23 211.087 187.495 210.942 187.76 211.039C188.001 211.135 188.146 211.4 188.049 211.666C185.277 219.379 179.347 221.959 179.082 222.055C179.009 222.079 178.961 222.103 178.889 222.103V222.079Z" fill="#191935"/>
<path d="M128.821 197.467C126.723 197.612 123.71 198.287 122.433 198.648C119.781 199.371 117.708 199.95 117.491 200.914C117.322 201.758 119.082 203.301 122.601 203.952C124.241 204.265 126.265 204.385 128.676 204.144" fill="#DDDCFC"/>
<path d="M126.169 204.771C124.867 204.771 123.638 204.675 122.481 204.458C119.516 203.904 117.853 202.771 117.25 201.903C116.936 201.445 116.937 201.059 116.985 200.842C117.25 199.564 119.347 198.986 122.264 198.19C123.445 197.877 126.555 197.154 128.773 197.009C129.038 197.009 129.279 197.202 129.279 197.467C129.279 197.732 129.11 197.974 128.821 197.974C126.699 198.118 123.662 198.817 122.505 199.131C120.311 199.733 118.045 200.336 117.901 201.035C117.901 201.083 117.901 201.204 118.021 201.372C118.503 202.096 120.119 203.06 122.626 203.518C124.409 203.855 126.41 203.904 128.556 203.711C128.821 203.687 129.062 203.879 129.086 204.145C129.11 204.41 128.917 204.651 128.652 204.675C127.784 204.771 126.941 204.795 126.121 204.795L126.169 204.771Z" fill="#7481BA"/>
<path d="M122.409 198.648C119.757 199.372 117.684 199.95 117.467 200.914C117.298 201.758 119.058 203.301 122.577 203.952C121.637 201.879 122.095 199.661 122.409 198.624V198.648Z" fill="#3F3E77"/>
<path d="M122.577 204.458C122.553 204.458 122.529 204.458 122.481 204.458C119.516 203.904 117.853 202.771 117.25 201.903C116.936 201.445 116.937 201.059 116.985 200.842C117.25 199.564 119.347 198.986 122.264 198.19C122.529 198.118 122.794 198.263 122.867 198.528C122.939 198.793 122.794 199.058 122.529 199.131C120.336 199.733 118.07 200.336 117.949 201.035C117.949 201.083 117.949 201.204 118.07 201.372C118.552 202.096 120.167 203.06 122.674 203.518C122.939 203.566 123.108 203.807 123.059 204.072C123.011 204.313 122.818 204.458 122.577 204.458Z" fill="#191935"/>
<path d="M119.901 201.565C122.216 200.721 124.602 200.456 125.181 201.131C125.735 201.806 122.288 206.049 122.288 206.049C119.926 204.819 119.901 201.565 119.901 201.565Z" fill="#49488A"/>
<path d="M122.288 206.531C122.192 206.531 122.071 206.507 121.975 206.435C121.758 206.266 121.734 205.953 121.902 205.76C123.252 204.096 124.675 201.999 124.747 201.396C124.337 201.131 122.553 201.107 120.07 202.023C119.829 202.12 119.54 201.975 119.444 201.734C119.347 201.493 119.492 201.204 119.733 201.107C121.975 200.288 124.723 199.854 125.542 200.794C125.735 201.035 126.362 201.758 122.674 206.338C122.577 206.459 122.433 206.507 122.288 206.507V206.531Z" fill="#191935"/>
<path d="M93.0715 237.773C93.2161 239.388 98.6882 240.256 105.293 239.677C111.898 239.098 117.153 237.315 117.009 235.699C117.009 235.699 115.659 220.127 115.08 213.474C114.911 211.497 113.61 210.027 111.681 209.545C109.343 208.99 105.414 208.918 102.666 209.159C99.9175 209.4 96.0366 210.123 93.8429 211.087C92.0109 211.883 90.9984 213.546 91.1671 215.523C91.7457 222.176 93.0956 237.748 93.0956 237.748L93.0715 237.773Z" fill="#FCEE70"/>
<path d="M111.657 209.568C109.319 209.014 105.39 208.942 102.642 209.183C99.8935 209.424 96.0125 210.147 93.8188 211.111C91.9868 211.907 90.9743 213.57 91.143 215.547C91.2877 217.162 96.7598 218.03 103.365 217.451C109.97 216.873 115.225 215.089 115.08 213.474C114.911 211.497 113.61 210.026 111.681 209.544L111.657 209.568Z" fill="#FFF5A9"/>
<path d="M101.292 240.352C96.6392 240.352 92.7581 239.58 92.5894 237.821C92.5894 237.7 91.9385 230.179 91.36 223.55L90.6609 215.595C90.4681 213.425 91.601 211.545 93.6259 210.653C95.9642 209.641 99.9176 208.918 102.593 208.676C105.269 208.435 109.295 208.46 111.778 209.062C113.923 209.593 115.369 211.256 115.562 213.401L117.491 235.627C117.684 237.869 111.537 239.604 105.341 240.135C103.991 240.255 102.618 240.303 101.292 240.303V240.352ZM93.5536 237.748C93.6501 238.761 98.2302 239.821 105.245 239.219C108.403 238.954 111.344 238.375 113.513 237.652C115.948 236.832 116.527 236.085 116.503 235.772C116.503 235.603 115.129 219.91 114.574 213.546C114.429 211.786 113.272 210.484 111.537 210.05C109.271 209.496 105.366 209.448 102.666 209.689C99.9658 209.93 96.1329 210.653 93.9875 211.569C92.3242 212.292 91.4323 213.763 91.601 215.523L93.5295 237.748H93.5536Z" fill="#E89437"/>
<path d="M107.116 210.933C110.138 210.907 112.584 210.475 112.58 209.969C112.575 209.463 110.122 209.075 107.1 209.101C104.078 209.128 101.632 209.559 101.636 210.065C101.64 210.571 104.094 210.96 107.116 210.933Z" fill="#191935"/>
<path d="M85.8879 225.31L82.0791 219.042C80.464 216.391 78.1981 214.775 76.583 213.884L71.2073 214.992L74.4616 216.463C76.4624 217.355 78.1498 218.849 79.2828 220.73L83.0916 226.997C85.5986 231.095 89.8894 233.578 94.5901 233.771C95.5543 233.819 96.3499 232.975 96.2535 232.011C96.1812 231.216 95.5302 230.565 94.7347 230.541C91.1188 230.396 87.7923 228.468 85.8638 225.31H85.8879Z" fill="#FCEE70"/>
<path d="M94.6867 234.253C94.6626 234.253 94.6384 234.253 94.6143 234.253C89.7208 234.06 85.2853 231.433 82.7301 227.238L78.9213 220.971C77.8124 219.163 76.2215 217.765 74.293 216.897L71.0387 215.426C70.8459 215.33 70.7253 215.137 70.7494 214.944C70.7735 214.751 70.9182 214.558 71.1351 214.534L76.5107 213.425C76.6312 213.401 76.7519 213.426 76.8483 213.474C78.5116 214.39 80.8499 216.077 82.5132 218.801L86.3219 225.069C88.1539 228.058 91.3118 229.938 94.7831 230.059C95.8197 230.107 96.6874 230.926 96.7838 231.987C96.8321 232.59 96.6151 233.192 96.2053 233.626C95.8196 234.036 95.2652 234.277 94.6867 234.277V234.253ZM72.7743 215.161L74.6787 216.029C76.776 216.969 78.5357 218.512 79.7169 220.489L83.5256 226.756C85.9121 230.685 90.0583 233.12 94.6143 233.313C94.9518 233.313 95.2411 233.192 95.4821 232.951C95.6991 232.71 95.8196 232.397 95.7955 232.059C95.7473 231.481 95.2893 231.047 94.7348 231.023C90.9261 230.878 87.479 228.829 85.4782 225.575L81.6695 219.307C80.1749 216.849 78.0776 215.282 76.5107 214.414L72.7743 215.185V215.161Z" fill="#E89437"/>
<path d="M129.978 212.124C129.279 204.096 124.723 195.515 111.561 196.648C104.185 197.298 96.3019 201.204 95.9885 212.075C95.9644 212.991 98.9294 212.895 98.9535 212.172C99.1463 206.314 102.015 200.432 111.802 199.588C121.83 198.721 126.314 204.289 127.013 212.365C127.808 221.525 123.228 226.057 116.262 227.31C116.358 228.347 116.43 229.335 116.527 230.275C123.903 229.022 131.014 224.177 129.978 212.124Z" fill="#FCEE70"/>
<path d="M116.527 230.758C116.43 230.758 116.31 230.733 116.237 230.661C116.141 230.589 116.069 230.444 116.045 230.324L115.779 227.359C115.779 227.118 115.924 226.876 116.165 226.852C123.638 225.527 127.23 220.537 126.531 212.437C126 206.266 123.011 199.131 111.85 200.095C106.354 200.577 99.7489 203.06 99.4355 212.22C99.4114 212.967 98.3508 213.281 97.3142 213.257C96.1812 213.208 95.4822 212.774 95.5063 212.099C95.6509 206.989 97.4348 202.963 100.81 200.191C104.233 197.371 108.523 196.479 111.513 196.214C117.66 195.683 122.457 197.178 125.783 200.649C129.11 204.144 130.171 208.821 130.436 212.124C130.918 217.789 129.689 222.32 126.748 225.623C124.361 228.275 120.842 230.083 116.575 230.806C116.551 230.806 116.527 230.806 116.503 230.806L116.527 230.758ZM116.792 227.72L116.961 229.721C122.36 228.66 130.605 224.972 129.496 212.172C129.231 209.014 128.242 204.578 125.084 201.3C121.975 198.046 117.443 196.648 111.585 197.154C108.716 197.395 104.642 198.263 101.412 200.914C98.2785 203.518 96.6151 207.254 96.4464 212.075C96.5187 212.148 96.7598 212.244 97.2178 212.268C97.8205 212.316 98.3025 212.172 98.4471 212.099C98.6641 206.676 101.147 200.071 111.73 199.155C121.059 198.335 126.651 203.036 127.447 212.365C127.832 216.872 126.965 220.488 124.867 223.14C123.035 225.478 120.287 227.021 116.72 227.72H116.792Z" fill="#E89437"/>
<path d="M139.717 214.101C139.717 214.101 134.413 217.403 131.328 217.041C126.965 216.511 126.507 214.245 126.507 214.245C123.349 213.377 122.119 209.882 122.119 209.882C117.684 209.183 115.731 203.47 119.901 201.59L121.902 204.145C124.192 203.229 125.639 203.687 125.639 203.687C127.591 202.289 128.242 201.903 128.242 201.903L128.893 197.226C136.149 197.033 137.933 198.745 137.933 198.745C137.933 198.745 136.993 199.444 136.028 200.649C136.028 200.649 137.282 202.554 138.294 203.807C138.294 203.807 137.113 204.482 136.438 205.205C136.438 205.205 138.246 205.905 139.066 206.17C139.066 206.17 137.644 208.291 136.462 209.737C136.462 209.737 137.113 212.389 139.717 214.125V214.101Z" fill="#DDDCFC"/>
<path d="M138.078 199.034C138.029 199.034 137.957 199.034 137.909 199.01C133.088 197.226 128.941 197.949 128.893 197.949C128.628 197.998 128.387 197.829 128.339 197.564C128.29 197.299 128.459 197.058 128.724 197.009C128.893 196.985 133.16 196.238 138.246 198.118C138.487 198.215 138.632 198.48 138.535 198.745C138.463 198.938 138.27 199.058 138.078 199.058V199.034Z" fill="#7481BA"/>
<path d="M131.834 217.572C131.641 217.572 131.448 217.572 131.28 217.548C127.519 217.089 126.434 215.354 126.145 214.655C123.445 213.763 122.143 211.159 121.782 210.316C119.106 209.761 117.443 207.544 117.178 205.567C116.912 203.638 117.877 201.975 119.709 201.155C119.95 201.035 120.239 201.155 120.335 201.396C120.456 201.638 120.335 201.927 120.094 202.023C118.624 202.698 117.901 203.928 118.118 205.446C118.335 207.134 119.829 209.038 122.192 209.424C122.36 209.448 122.505 209.568 122.577 209.737C122.577 209.761 123.783 213.016 126.651 213.811C126.82 213.859 126.965 214.004 126.989 214.173C126.989 214.245 127.495 216.125 131.4 216.583C134.293 216.921 139.427 213.739 139.476 213.715C139.692 213.57 140.006 213.642 140.15 213.859C140.295 214.076 140.223 214.39 140.006 214.534C139.789 214.655 135.088 217.572 131.858 217.572H131.834Z" fill="#7481BA"/>
<path d="M121.854 204.771C121.661 204.771 121.492 204.651 121.42 204.482C121.324 204.241 121.42 203.952 121.685 203.855C121.782 203.831 123.758 203.011 125.518 203.18C126.048 202.77 127.591 201.589 128.435 201.324C128.7 201.252 128.965 201.372 129.038 201.637C129.11 201.903 128.989 202.168 128.724 202.24C128.073 202.457 126.506 203.638 125.952 204.048C125.856 204.12 125.711 204.169 125.566 204.144C124.048 203.903 122.071 204.723 122.047 204.723C121.999 204.747 121.926 204.771 121.854 204.771Z" fill="#7481BA"/>
<path d="M128.387 214.92C127.784 214.92 127.133 214.872 126.434 214.727C126.169 214.679 126 214.414 126.048 214.173C126.097 213.908 126.338 213.739 126.603 213.787C129.544 214.341 131.448 213.329 131.472 213.329C131.713 213.208 132.003 213.281 132.123 213.522C132.244 213.763 132.171 214.052 131.93 214.173C131.858 214.221 130.532 214.92 128.387 214.92Z" fill="#7481BA"/>
<path d="M124.65 210.653C123.855 210.653 122.939 210.581 121.999 210.34C121.733 210.267 121.589 210.026 121.637 209.761C121.685 209.496 121.95 209.351 122.216 209.4C125.205 210.099 127.808 209.207 127.832 209.207C128.073 209.11 128.363 209.255 128.459 209.496C128.555 209.737 128.411 210.026 128.17 210.123C128.097 210.147 126.651 210.653 124.65 210.653Z" fill="#7481BA"/>
<path d="M74.278 214.903C75.8605 214.683 77.0973 214.174 77.0406 213.765C76.9838 213.356 75.655 213.203 74.0726 213.422C72.4902 213.642 71.2533 214.151 71.31 214.56C71.3668 214.969 72.6956 215.122 74.278 214.903Z" fill="#2F323F"/>
<path d="M72.6779 215.836C72.4127 215.836 72.1476 215.836 71.9065 215.788C71.0869 215.691 70.6289 215.402 70.5807 214.968C70.5084 214.51 70.87 214.124 71.6413 213.811C72.1958 213.57 72.943 213.401 73.7385 213.281C74.5099 213.184 77.0892 212.919 77.2339 214.052C77.4026 215.185 74.8475 215.619 74.0761 215.739C73.594 215.812 73.1117 215.836 72.6537 215.836H72.6779ZM71.81 214.799C72.2198 214.872 72.9671 214.92 73.9796 214.775C74.992 214.631 75.6911 214.39 76.0768 214.221C75.667 214.148 74.9197 214.1 73.9073 214.245C72.8948 214.39 72.1957 214.631 71.81 214.799Z" fill="#E89437"/>
<path d="M46.2097 174.47C45.6312 166.178 69.1345 165.816 69.8577 171.336C70.5809 176.784 63.2044 179.412 58.6724 184.691C56.069 180.979 46.499 178.472 46.2097 174.47Z" fill="#66CCB9"/>
<path d="M58.6724 185.173C58.5278 185.173 58.3832 185.101 58.3109 184.98C57.2502 183.462 54.8156 182.088 52.4773 180.762C49.1024 178.857 45.9446 177.05 45.7517 174.518C45.4384 170.083 51.1997 167.889 56.6958 167.335C59.8296 167.022 63.0598 167.19 65.5909 167.793C68.5077 168.492 70.1469 169.721 70.3638 171.288C70.8701 175.121 67.6882 177.628 64.2892 180.304C62.4813 181.726 60.6009 183.221 59.0582 185.005C58.9617 185.101 58.8412 185.173 58.6966 185.173H58.6724ZM46.6918 174.446C46.8365 176.447 49.922 178.207 52.9353 179.918C55.1289 181.172 57.419 182.449 58.6966 183.944C60.2153 182.281 61.975 180.882 63.6866 179.533C66.9891 176.929 69.8335 174.687 69.3996 171.409C69.0862 169.095 63.2044 167.624 56.7922 168.275C49.1024 169.071 46.5231 171.963 46.716 174.446H46.6918Z" fill="#20564C"/>
<path d="M69.9058 172.71C69.6647 172.71 69.4719 172.542 69.4237 172.301C69.3755 171.843 69.0621 171.433 68.5558 171.023C65.7836 168.926 57.9011 168.371 52.2603 169.167C51.9951 169.215 51.754 169.022 51.7058 168.757C51.6576 168.492 51.8505 168.251 52.1156 168.203C57.9252 167.383 66.073 167.913 69.1345 170.252C69.8818 170.806 70.2915 171.457 70.3879 172.18C70.412 172.445 70.2433 172.686 69.9782 172.71C69.9782 172.71 69.9299 172.71 69.9058 172.71Z" fill="#DDEDE8"/>
<path d="M58.6724 185.173C58.5278 185.173 58.3832 185.101 58.3109 184.98C57.2502 183.462 54.8156 182.088 52.4773 180.762C49.1024 178.857 45.9446 177.05 45.7517 174.518C45.4384 170.083 51.1997 167.889 56.6958 167.335C59.8296 167.022 63.0598 167.19 65.5909 167.793C68.5077 168.492 70.1469 169.721 70.3638 171.288C70.8701 175.121 67.6882 177.628 64.2892 180.304C62.4813 181.726 60.6009 183.221 59.0582 185.005C58.9617 185.101 58.8412 185.173 58.6966 185.173H58.6724ZM46.6918 174.446C46.8365 176.447 49.922 178.207 52.9353 179.918C55.1289 181.172 57.419 182.449 58.6966 183.944C60.2153 182.281 61.975 180.882 63.6866 179.533C66.9891 176.929 69.8335 174.687 69.3996 171.409C69.0862 169.095 63.2044 167.624 56.7922 168.275C49.1024 169.071 46.5231 171.963 46.716 174.446H46.6918Z" fill="#20564C"/>
<path d="M51.3682 140.095C54.5261 109.24 64.3372 97.066 69.5682 95.1134C76.0768 92.6787 82.4891 104.515 82.4891 104.515C71.5449 108.709 64.9158 115.507 53.8752 140.071" fill="#1E8773"/>
<path d="M53.8995 140.577C53.8272 140.577 53.7549 140.577 53.7067 140.529C53.4657 140.408 53.3451 140.143 53.4657 139.902C59.0101 127.56 63.4455 119.677 67.8569 114.374C71.8585 109.577 75.9324 106.612 81.8142 104.298C80.5366 102.152 75.0886 93.6186 69.7612 95.5953C64.9641 97.3792 55.0325 108.998 51.8747 140.167C51.8506 140.432 51.6094 140.625 51.3443 140.601C51.0791 140.577 50.8863 140.336 50.9104 140.071C52.2845 126.499 55.1771 114.928 59.2751 106.588C62.3125 100.368 66.1212 95.9328 69.4238 94.7034C72.2924 93.6427 75.5467 94.9927 78.8492 98.6327C81.2839 101.308 82.8749 104.225 82.9472 104.346C83.0196 104.466 83.0196 104.611 82.9714 104.731C82.9232 104.852 82.8267 104.973 82.6821 105.021C76.6797 107.311 72.6058 110.204 68.6042 115.025C64.241 120.28 59.8537 128.066 54.3334 140.336C54.2611 140.505 54.0683 140.625 53.8995 140.625V140.577Z" fill="#20564C"/>
<path d="M69.5925 95.1134C75.3779 95.1134 76.535 103.454 85.0444 115.531C85.0444 115.531 94.8073 105.286 91.9146 97.0419C89.0219 88.7976 69.6166 95.1134 69.6166 95.1134H69.5925Z" fill="#66CCB9"/>
<path d="M85.0204 116.013C85.0204 116.013 85.0204 116.013 84.9963 116.013C84.8517 116.013 84.7312 115.917 84.6347 115.82C81.501 111.361 79.3555 107.407 77.6199 104.225C74.703 98.8497 72.9433 95.6195 69.5685 95.6195C66.1937 95.6195 69.1346 95.4507 69.0864 95.2097C69.0382 94.9686 69.1828 94.7517 69.4238 94.6794C70.2434 94.4143 89.3354 88.2913 92.3245 96.8971C93.5539 100.417 92.7343 104.804 89.938 109.649C87.8649 113.241 85.4543 115.796 85.3579 115.893C85.2615 115.989 85.141 116.037 85.0204 116.037V116.013ZM71.6658 95.0169C74.2933 96.0534 75.9807 99.163 78.4636 103.743C80.1028 106.781 82.1518 110.541 85.0686 114.76C86.8524 112.735 93.8674 104.129 91.4327 97.2105C90.0345 93.2572 84.2973 92.992 79.7171 93.4741C76.5834 93.8116 73.546 94.5107 71.6658 95.0169Z" fill="#20564C"/>
<path d="M89.9621 108.95C89.8898 108.95 89.8174 108.95 89.7692 108.902C89.5281 108.781 89.4317 108.516 89.5281 108.275C89.5522 108.203 92.2762 102.128 90.6129 97.548C89.5522 94.607 85.2373 93.8838 81.7902 93.7874C77.9573 93.691 74.3414 94.3418 74.2932 94.3418C74.028 94.39 73.7869 94.2214 73.7387 93.9562C73.6905 93.691 73.8592 93.4499 74.1244 93.4017C74.727 93.2812 89.1424 90.7259 91.5048 97.2345C92.2762 99.3317 92.3003 101.887 91.6254 104.852C91.1191 107.046 90.42 108.613 90.3959 108.685C90.3236 108.854 90.1308 108.974 89.9621 108.974V108.95Z" fill="#DDEDE8"/>
<path d="M85.0204 116.013C85.0204 116.013 85.0204 116.013 84.9963 116.013C84.8517 116.013 84.7312 115.917 84.6347 115.82C81.501 111.361 79.3555 107.407 77.6199 104.225C74.703 98.8497 72.9433 95.6195 69.5685 95.6195C66.1937 95.6195 69.1346 95.4507 69.0864 95.2097C69.0382 94.9686 69.1828 94.7517 69.4238 94.6794C70.2434 94.4143 89.3354 88.2913 92.3245 96.8971C93.5539 100.417 92.7343 104.804 89.938 109.649C87.8649 113.241 85.4543 115.796 85.3579 115.893C85.2615 115.989 85.141 116.037 85.0204 116.037V116.013ZM71.6658 95.0169C74.2933 96.0534 75.9807 99.163 78.4636 103.743C80.1028 106.781 82.1518 110.541 85.0686 114.76C86.8524 112.735 93.8674 104.129 91.4327 97.2105C90.0345 93.2572 84.2973 92.992 79.7171 93.4741C76.5834 93.8116 73.546 94.5107 71.6658 95.0169Z" fill="#20564C"/>
<path d="M53.0798 151.304C53.0798 151.304 45.2935 113.723 32.9995 106.347C26.8042 102.634 13.2567 109.625 13.2567 109.625C13.2567 109.625 28.323 113.795 50.5005 151.304" fill="#1E8773"/>
<path d="M53.0799 151.786C52.8629 151.786 52.646 151.642 52.5978 151.401C52.5254 151.039 44.7151 113.94 32.7345 106.756C27.7927 103.791 17.6682 108.082 14.4621 109.577C16.0289 110.276 19.2833 112.011 23.8875 116.037C34.7352 125.559 44.5705 140.336 50.9103 151.063C51.055 151.304 50.9585 151.593 50.7416 151.714C50.5005 151.859 50.2113 151.762 50.0908 151.545C43.8232 140.915 34.0843 126.282 23.3571 116.857C16.9449 111.216 13.1844 110.107 13.1362 110.107C12.9434 110.059 12.7988 109.89 12.7988 109.697C12.7988 109.504 12.8711 109.312 13.064 109.215C13.6184 108.926 26.9248 102.128 33.2647 105.937C38.4716 109.071 43.4616 117.652 48.1382 131.441C51.5853 141.662 53.562 151.111 53.5861 151.208C53.6343 151.473 53.4656 151.714 53.2004 151.786C53.1763 151.786 53.1281 151.786 53.104 151.786H53.0799Z" fill="#20564C"/>
<path d="M32.9996 106.323C27.7927 101.212 9.76142 102.104 5.51877 103.96C1.49307 105.72 -1.78527 113.964 2.33685 120.111C11.6418 108.058 24.9964 105.407 32.9996 106.347V106.323Z" fill="#66CCB9"/>
<path d="M2.36095 120.593C2.21632 120.593 2.07166 120.497 1.97523 120.376C-0.00145752 117.411 -0.531766 113.602 0.553003 109.914C1.44492 106.877 3.30108 104.418 5.3742 103.526C7.68837 102.514 13.5461 101.887 18.9458 102.056C22.9715 102.176 30.1792 102.875 33.3611 105.985C33.5058 106.13 33.5541 106.347 33.4577 106.539C33.3612 106.732 33.1684 106.829 32.9755 106.805C24.6349 105.84 11.6899 108.805 2.74655 120.4C2.65013 120.521 2.50559 120.593 2.36095 120.593ZM16.8485 102.996C12.0515 102.996 7.64016 103.574 5.73579 104.418C3.92784 105.214 2.26446 107.48 1.44485 110.204C0.504721 113.386 0.866287 116.64 2.38496 119.291C10.9667 108.564 22.9474 105.286 31.3845 105.744C28.1302 103.767 22.2484 103.02 16.8245 103.02L16.8485 102.996Z" fill="#20564C"/>
<path d="M31.5773 106.684C31.4808 106.684 31.3845 106.66 31.2881 106.588C27.19 103.526 9.73727 103.02 4.48217 105.166C4.24111 105.262 3.95181 105.166 3.85539 104.9C3.75896 104.659 3.85541 104.37 4.12058 104.274C9.68906 101.983 27.5034 102.538 31.8666 105.816C32.0835 105.985 32.1317 106.274 31.963 106.491C31.8666 106.612 31.7219 106.684 31.5773 106.684Z" fill="#DDEDE8"/>
<path d="M2.36095 120.593C2.21632 120.593 2.07166 120.497 1.97523 120.376C-0.00145752 117.411 -0.531766 113.602 0.553003 109.914C1.44492 106.877 3.30108 104.418 5.3742 103.526C7.68837 102.514 13.5461 101.887 18.9458 102.056C22.9715 102.176 30.1792 102.875 33.3611 105.985C33.5058 106.13 33.5541 106.347 33.4577 106.539C33.3612 106.732 33.1684 106.829 32.9755 106.805C24.6349 105.84 11.6899 108.805 2.74655 120.4C2.65013 120.521 2.50559 120.593 2.36095 120.593ZM16.8485 102.996C12.0515 102.996 7.64016 103.574 5.73579 104.418C3.92784 105.214 2.26446 107.48 1.44485 110.204C0.504721 113.386 0.866287 116.64 2.38496 119.291C10.9667 108.564 22.9474 105.286 31.3845 105.744C28.1302 103.767 22.2484 103.02 16.8245 103.02L16.8485 102.996Z" fill="#20564C"/>
<path d="M78.0054 54.9048C78.0054 54.9048 78.0054 54.9048 77.9813 54.9048C77.7161 54.9048 77.5233 54.6637 77.5233 54.3985C77.6679 52.2531 78.6803 49.9388 79.6446 47.697C80.7052 45.2382 81.7177 42.9 81.3561 41.2608C80.5847 40.8268 76.8483 38.9707 71.087 41.1402C70.8459 41.2366 70.5567 41.1161 70.4603 40.8509C70.3639 40.6098 70.4843 40.3205 70.7495 40.2241C77.692 37.5966 81.8623 40.417 82.0552 40.5376C82.1516 40.6099 82.1999 40.6822 82.2481 40.8028C82.8266 42.7795 81.7177 45.3346 80.5366 48.0586C79.5964 50.2281 78.6322 52.4459 78.4875 54.4467C78.4875 54.7118 78.2465 54.9048 78.0054 54.9048Z" fill="#DDEDE8"/>
<path d="M77.716 56.0376C77.5713 56.0376 77.4268 55.9653 77.3304 55.8448C75.2814 53.1208 73.8591 49.6736 72.702 46.9014C71.4485 43.9123 70.2914 41.0678 69.1343 41.3571C68.9174 41.4053 68.6762 41.3088 68.5798 41.0919C68.4834 40.8749 68.5316 40.6339 68.7245 40.4892C71.7136 38.2233 76.8723 37.7653 80.1266 38.6331C81.597 39.0188 82.5613 39.6696 82.8987 40.4651C83.9353 42.9239 82.3685 46.0818 80.6811 49.4326C79.6445 51.5057 78.5839 53.6512 78.1741 55.6279C78.1259 55.8207 77.9812 55.9653 77.8125 55.9894C77.7884 55.9894 77.7401 55.9894 77.716 55.9894V56.0376ZM70.2672 40.658C71.4725 41.4294 72.4127 43.6953 73.5939 46.5399C74.6546 49.0951 75.8357 51.9637 77.499 54.4226C78.0294 52.6628 78.9454 50.8307 79.8374 49.0469C81.4042 45.889 82.8747 42.924 82.031 40.8749C81.8141 40.3687 81.0426 39.9108 79.9096 39.5974C77.258 38.8983 73.0877 39.1393 70.2914 40.658H70.2672Z" fill="#20564C"/>
</svg>
