<svg width="256" height="256" viewBox="0 0 256 256" fill="none" xmlns="http://www.w3.org/2000/svg">
<path opacity="0.16" d="M116.292 62.5671C125.191 64.3829 130.37 69.1129 130.37 69.1129L124.825 109.525C114.789 111.429 96.9038 99.9871 96.9038 99.9871L102 72.2174C103.22 65.5642 109.668 61.2101 116.292 62.5622V62.5671Z" fill="#DEF5FF"/>
<path d="M116.292 62.5671C125.191 64.3829 130.37 69.1129 130.37 69.1129L124.825 109.525C114.789 111.429 96.9038 99.9871 96.9038 99.9871L102 72.2174C103.22 65.5642 109.668 61.2101 116.292 62.5622V62.5671Z" stroke="#191935" stroke-width="1.95252" stroke-linecap="round" stroke-linejoin="round"/>
<path d="M162.631 79.9055C162.631 79.9055 163.519 57.4857 166.726 53.8394C167.736 52.6923 176.733 51.7746 182.444 54.7619C188.477 57.9153 191.201 65.0664 190.473 67.0189C189.238 70.3284 183.254 75.1414 183.254 75.1414" fill="#D2D2FB"/>
<path d="M162.631 79.9055C162.631 79.9055 163.519 57.4857 166.726 53.8394C167.736 52.6923 176.733 51.7746 182.444 54.7619C188.477 57.9153 191.201 65.0664 190.473 67.0189C189.238 70.3284 183.254 75.1414 183.254 75.1414" stroke="#49488A" stroke-width="1.95252" stroke-linecap="round" stroke-linejoin="round"/>
<path d="M245.92 83.1905C239.086 82.6389 224.745 81.2867 206.704 78.5386L168.337 126.253C199.987 137.89 224.096 160.51 237.724 175.833C245.124 158.021 249.322 137.744 249.322 116.222C249.322 104.8 248.136 93.7341 245.925 83.1953L245.92 83.1905Z" fill="#DDDCFC"/>
<path d="M191.674 137.378C211.932 149.283 227.679 164.542 237.724 175.833C241.434 166.9 244.339 157.352 246.311 147.331C232.399 143.157 212.39 138.34 191.669 137.373L191.674 137.378Z" fill="#8588D1"/>
<path d="M168.337 126.253C199.982 137.89 224.096 160.51 237.724 175.828" stroke="#191935" stroke-width="1.95252" stroke-linecap="round" stroke-linejoin="round"/>
<path d="M245.188 79.8714C225.189 78.1044 204.727 79.7103 204.727 79.7103L198.498 128.26C219.615 111.839 241.093 99.4015 248.004 95.5306C247.321 90.1953 246.374 84.9675 245.188 79.8714Z" fill="#8588D1"/>
<path d="M245.188 79.8714C225.189 78.1044 204.727 79.7103 204.727 79.7103L245.188 79.8714Z" fill="#8588D1"/>
<path d="M245.188 79.8714C225.189 78.1044 204.727 79.7103 204.727 79.7103" stroke="#191935" stroke-width="1.95252" stroke-linecap="round" stroke-linejoin="round"/>
<path d="M236.494 102.267C241.62 99.1524 245.652 96.8485 248 95.5305L236.494 102.267Z" fill="#8588D1"/>
<path d="M236.494 102.267C241.62 99.1524 245.652 96.8485 248 95.5305" stroke="#191935" stroke-width="1.95252" stroke-linecap="round" stroke-linejoin="round"/>
<path d="M166.443 100.51C172.466 105.157 180.491 103.365 180.491 103.365" stroke="#191935" stroke-width="1.46439" stroke-linecap="round" stroke-linejoin="round"/>
<path d="M220.093 96.8923C220.093 96.8923 207.939 75.1119 192.948 69.2788C179.12 63.8996 161.669 66.4769 143.179 72.1588C78.8675 91.928 26.8182 155.561 10.3682 189.339C1.26945 208.02 16.9384 207.088 29.8885 195.524C105.041 128.416 145.346 166.334 197.971 128.64" fill="#8588D1"/>
<path d="M39.0019 179.596L42.8435 184.697C77.0711 158.099 103.889 153.301 128.54 150.245C77.7448 149.01 52.2156 164.352 39.0019 179.596Z" fill="#49488A"/>
<path d="M20.6824 172.338C33.1834 168.696 44.3811 175.066 50.9074 178.586C50.9074 178.586 34.5257 191.311 27.7993 197.057C10.8612 211.535 5.03782 200.415 8.16185 193.196C10.6806 187.377 16.299 180.485 20.6775 172.338H20.6824Z" fill="#49488A"/>
<path d="M152.355 69.9817C71.1355 89.0627 16.9677 176.209 9.36752 192.165C9.36752 192.165 6.60471 201.04 10.4707 202.958C14.9517 186.508 61.3778 103.707 152.355 69.9817Z" fill="#DCE5EA" stroke="#DCE5EA" stroke-width="1.95252" stroke-linecap="round" stroke-linejoin="round"/>
<path d="M220.093 96.8923C220.093 96.8923 207.939 75.1119 192.948 69.2788C179.12 63.8996 161.669 66.4769 143.179 72.1588C78.8675 91.928 26.8182 155.561 10.3682 189.339C1.26945 208.02 16.9384 207.088 29.8885 195.524C105.29 128.191 145.629 166.602 198.498 128.26" stroke="#191935" stroke-width="1.95252" stroke-linecap="round" stroke-linejoin="round"/>
<path d="M188.506 98.1615C187.989 91.479 181.687 84.6744 172.666 84.9429C163.368 85.2212 158.081 91.7719 157.774 98.2005C161.205 60.0678 196.995 67.1164 188.506 98.1615Z" fill="#8588D1"/>
<path d="M23.3329 187.899C21.2486 191.512 18.437 193.074 16.3917 194.548C15.2348 195.382 16.3917 197.223 18.105 195.856C21.8051 192.903 23.3329 187.899 23.3329 187.899Z" fill="black" stroke="black" stroke-width="1.95252" stroke-linecap="round" stroke-linejoin="round"/>
<path d="M183.283 97.9273C159.648 90.3905 149.017 110.004 149.017 110.004C172.237 105.977 183.283 97.9273 183.283 97.9273Z" fill="white"/>
<path d="M174.058 96.2284C168.747 96.0136 164.324 97.2437 160.751 99.0498C160.414 99.9382 160.224 100.9 160.224 101.91C160.224 103.858 160.912 105.644 162.055 107.04C168.171 105.293 172.93 103.38 176.381 101.759C176.342 99.6063 175.463 97.6586 174.058 96.2284Z" fill="#191935"/>
<path d="M154.386 113.523C174.248 115.91 182.292 104.219 182.292 104.219" stroke="#191935" stroke-width="1.95252" stroke-linecap="round" stroke-linejoin="round"/>
<path d="M183.283 97.9271C186.471 97.2437 188.169 94.2612 188.169 94.2612" stroke="#191935" stroke-width="1.95252" stroke-linecap="round" stroke-linejoin="round"/>
<path d="M184.718 97.4342C188.121 96.9997 188.916 98.0346 188.916 98.0346" stroke="#191935" stroke-width="1.95252" stroke-linecap="round" stroke-linejoin="round"/>
<path d="M130.37 69.1129C130.37 69.1129 133.802 65.0126 135.866 64.4561C137.404 64.0461 144.858 66.394 146.166 68.1415C147.474 69.889 148.607 76.5569 148.607 76.5569" stroke="#191935" stroke-width="1.95252" stroke-linecap="round" stroke-linejoin="round"/>
<path d="M153.302 98.3958C163.826 88.0181 177.26 87.491 177.26 87.491" stroke="#191935" stroke-width="2.92878" stroke-linecap="round" stroke-linejoin="round"/>
<path d="M192.284 71.0801C192.284 71.0801 209.769 57.0171 214.626 57.0366C216.154 57.0415 222.758 63.2212 224.262 69.4888C225.848 76.1128 222.246 82.8636 220.298 83.5958C216.994 84.8405 209.432 83.4884 209.432 83.4884" fill="#D2D2FB"/>
<path d="M194.813 71.4999C205.552 63.4799 212.947 60.0532 212.947 60.0532" stroke="white" stroke-width="1.95252" stroke-linecap="round" stroke-linejoin="round"/>
<path d="M192.284 71.0801C192.284 71.0801 209.769 57.0171 214.626 57.0366C216.154 57.0415 222.758 63.2212 224.262 69.4888C225.848 76.1128 222.246 82.8636 220.298 83.5958C216.994 84.8405 209.432 83.4884 209.432 83.4884" stroke="#49488A" stroke-width="1.95252" stroke-linecap="round" stroke-linejoin="round"/>
<path d="M204.961 67.2531C211.282 61.3955 217.399 64.8369 217.399 64.8369C214.748 65.9547 212.737 67.7949 212.737 67.7949C216.286 69.6157 218.355 73.1546 218.355 73.1546C218.355 73.1546 215.514 73.3938 213.752 73.2571C213.752 73.2571 213.489 75.4146 212.874 77.3037C212.874 77.3037 204.17 75.2194 201.593 73.9649C201.593 73.9649 202.291 69.723 204.966 67.2531H204.961Z" fill="#6A6DB8"/>
<path d="M200.114 75.3805C200.114 75.3805 204.258 62.8454 217.15 58.5938" stroke="#49488A" stroke-width="1.95252" stroke-linecap="round" stroke-linejoin="round"/>
<path d="M177.894 96.6239C165.305 94.5737 157.076 100.49 152.736 105.103" stroke="#191935" stroke-width="1.95252" stroke-linecap="round" stroke-linejoin="round"/>
<path d="M158.95 107.885C167.224 105.767 173.33 103.263 177.357 101.291" stroke="#191935" stroke-width="1.95252" stroke-linecap="round" stroke-linejoin="round"/>
<path d="M173.814 99.1035C173.692 97.7563 168.356 98.0297 168.43 99.5331C168.503 101.032 173.945 100.627 173.814 99.1035Z" fill="white"/>
<path d="M224.599 160.911C229.602 170.302 233.258 174.788 233.258 174.788C233.912 171.391 233.649 168.384 233.649 168.384" fill="#8588D1"/>
<path d="M224.599 160.911C229.602 170.302 233.258 174.788 233.258 174.788C233.912 171.391 233.649 168.384 233.649 168.384" stroke="#191935" stroke-width="1.95252" stroke-linecap="round" stroke-linejoin="round"/>
<path d="M213.015 149.503C221.968 160.032 224.159 171.181 224.159 171.181C226.527 164.162 225.653 159.334 225.653 159.334" fill="#8588D1"/>
<path d="M213.015 149.503C221.968 160.032 224.159 171.181 224.159 171.181C226.527 164.162 225.653 159.334 225.653 159.334" stroke="#191935" stroke-width="1.95252" stroke-linecap="round" stroke-linejoin="round"/>
<path d="M128.54 150.245C139.815 139.609 151.765 143.733 163.807 134.61" stroke="#191935" stroke-width="1.95252" stroke-linecap="round" stroke-linejoin="round"/>
<path opacity="0.16" d="M148.607 76.5619C162.982 73.9992 180.398 79.7152 189.805 85.314C193.978 87.7986 196.238 92.5481 195.565 97.3562L192.568 119.664C191.645 126.214 185.612 130.881 179.061 129.958C166.243 128.152 154.884 124.667 148.148 120.093C144.184 117.399 142.173 110.189 143.037 105.474L148.607 76.5619Z" fill="#DEF5FF"/>
<path d="M148.607 76.5619C162.982 73.9992 180.398 79.7152 189.805 85.314C193.978 87.7986 196.238 92.5481 195.565 97.3562L192.568 119.664C191.645 126.214 185.612 130.881 179.061 129.958C166.243 128.152 154.884 124.667 148.148 120.093C144.184 117.399 142.173 112.63 143.037 107.914L148.607 76.5619Z" stroke="#191935" stroke-width="1.95252" stroke-linecap="round" stroke-linejoin="round"/>
</svg>
