<svg width="257" height="256" viewBox="0 0 257 256" fill="none" xmlns="http://www.w3.org/2000/svg">
<path d="M166.983 91.1301C178.247 108.28 194.947 119.382 204.703 113.257C214.459 107.131 220.377 116.325 218.318 121.133C216.258 125.94 199.509 156.814 163.3 156.431C123.201 156.006 149.365 64.3048 166.987 91.1336L166.983 91.1301Z" fill="#9597CF"/>
<path d="M200.18 133.879C200.18 133.879 213.897 126.942 219.555 118.922C216.933 116.3 209.23 110.41 204.699 113.257C194.947 119.386 178.243 108.28 166.979 91.1301C165.925 89.524 164.839 88.3467 163.739 87.5454C162.059 108.428 176.257 125.304 193.608 134.35C193.608 134.35 201.807 129.602 203.034 127.363C203.034 127.363 202.412 130.182 200.18 133.879Z" fill="#DDDCFC"/>
<path d="M166.983 91.1301C178.247 108.28 194.947 119.382 204.703 113.257C214.459 107.131 220.377 116.325 218.318 121.133C216.258 125.94 199.509 156.814 163.3 156.431C123.201 156.006 149.365 64.3048 166.987 91.1336L166.983 91.1301Z" stroke="#191935" stroke-width="1.40576" stroke-linecap="round" stroke-linejoin="round"/>
<path d="M166.983 91.1301C178.247 108.28 194.947 119.382 204.703 113.257" stroke="#7481BA" stroke-width="1.40576" stroke-linecap="round" stroke-linejoin="round"/>
<path d="M207.114 135.717C203.944 141.133 201.589 151.058 201.589 151.058C199.955 146.629 199.649 143.625 199.649 143.625" fill="#9597CF"/>
<path d="M207.114 135.717C203.944 141.133 201.589 151.058 201.589 151.058C199.955 146.629 199.649 143.625 199.649 143.625" stroke="#191935" stroke-width="1.40576" stroke-linecap="round" stroke-linejoin="round"/>
<path d="M201.74 140.208C198.574 151.75 190.842 155.194 190.842 155.194C190.842 155.194 193.787 150.622 194.546 146.26" fill="#9597CF"/>
<path d="M201.74 140.208C198.574 151.75 190.842 155.194 190.842 155.194C190.842 155.194 193.787 150.622 194.546 146.26" stroke="#191935" stroke-width="1.40576" stroke-linecap="round" stroke-linejoin="round"/>
<path d="M192.571 179.338C194.353 166.76 187.574 152.316 176.83 135.643H152.848C152.848 135.643 122.884 181.647 141.026 200.094C141.026 200.094 146.006 201.282 152.128 197.771C152.128 197.771 152.156 199.184 150.996 200.828C150.996 200.828 155.993 201.162 160.263 198.512C160.263 198.512 165.033 200.927 172.905 200.705C180.882 200.484 190.023 197.353 192.575 179.334L192.571 179.338Z" fill="#49488A"/>
<path d="M160.26 198.516C160.26 198.516 165.029 200.93 172.901 200.709C178.777 200.544 185.283 198.801 189.324 190.696C181.498 151.001 151.66 158.315 140.994 158.754C135.266 173.012 131.47 190.377 141.026 200.097C141.026 200.097 146.006 201.285 152.128 197.774C152.128 197.774 152.156 199.187 150.996 200.832C150.996 200.832 155.994 201.166 160.264 198.516H160.26Z" fill="#333476"/>
<path d="M192.571 179.338C194.353 166.76 187.574 152.316 176.83 135.643H152.848C152.848 135.643 122.884 181.647 141.026 200.094C141.026 200.094 146.006 201.282 152.128 197.771C152.128 197.771 152.156 199.184 150.996 200.828C150.996 200.828 155.993 201.162 160.263 198.512C160.263 198.512 165.033 200.927 172.905 200.705C180.882 200.484 190.023 197.353 192.575 179.334L192.571 179.338Z" stroke="#191935" stroke-width="1.40576" stroke-linecap="round" stroke-linejoin="round"/>
<path d="M158.236 196.984C158.236 196.984 158.854 201.735 162.291 204.1C165.728 206.465 179.08 206.297 182.404 205.959L189.205 200.094L189.489 196.959C180.686 196.864 158.232 196.984 158.232 196.984H158.236Z" fill="#333476"/>
<path d="M158.236 196.984C158.236 196.984 158.854 201.735 162.291 204.1C165.728 206.465 179.08 206.297 182.404 205.959L189.204 200.094L189.489 196.959C187.774 196.941 185.543 196.931 183.061 196.924" stroke="#191935" stroke-width="1.40576" stroke-linecap="round" stroke-linejoin="round"/>
<path d="M188.561 196.959C188.561 196.959 191.991 196.537 193.633 197.325C195.274 198.112 198.56 204.944 197.882 205.633C197.203 206.321 192.796 205.309 188.561 203.464" fill="#333476"/>
<path d="M192.027 204.782C194.947 205.738 197.393 206.132 197.885 205.633C198.31 205.2 197.179 202.354 195.868 200.097C193.77 201.152 192.522 203.612 192.027 204.786V204.782Z" fill="#232355"/>
<path d="M188.561 196.959C188.561 196.959 191.991 196.537 193.633 197.325C195.274 198.112 198.56 204.944 197.882 205.633C197.203 206.321 192.796 205.309 188.561 203.464" stroke="#0C0C1C" stroke-width="1.40576" stroke-linecap="round" stroke-linejoin="round"/>
<path d="M187.279 198.252C187.279 198.252 190.174 198.421 191.085 199.05C191.995 199.679 197.421 206.314 196.135 207.945C194.849 209.576 183.065 203.099 183.065 203.099" fill="#333476"/>
<path d="M196.135 207.941C196.985 206.863 194.894 203.591 193.12 201.32C192.107 201.83 189.841 203.313 189.697 206.388C192.621 207.685 195.53 208.704 196.135 207.938V207.941Z" fill="#232355"/>
<path d="M187.279 198.252C187.279 198.252 190.174 198.421 191.085 199.05C191.995 199.679 197.421 206.314 196.135 207.945C194.849 209.576 183.065 203.099 183.065 203.099" stroke="#0C0C1C" stroke-width="1.40576" stroke-linecap="round" stroke-linejoin="round"/>
<path d="M181.28 205.538C181.28 205.538 187.458 208.75 188.386 207.752C189.313 206.754 186.491 202.466 182.78 200.716" fill="#333476"/>
<path d="M183.508 206.603C185.377 207.432 187.827 208.353 188.386 207.752C188.98 207.112 188.038 205.13 186.312 203.324C184.576 203.995 183.82 205.587 183.508 206.603Z" fill="#232355"/>
<path d="M181.28 205.538C181.28 205.538 187.458 208.75 188.386 207.752C189.313 206.754 186.491 202.466 182.78 200.716" stroke="#0C0C1C" stroke-width="1.40576" stroke-linecap="round" stroke-linejoin="round"/>
<path d="M192.202 172.028C194.929 180.498 192.856 190.025 192.856 190.025C191.918 184.202 190.86 182.002 190.86 182.002" fill="#49488A"/>
<path d="M192.202 172.028C194.929 180.498 192.856 190.025 192.856 190.025C191.918 184.202 190.86 182.002 190.86 182.002" stroke="#191935" stroke-width="1.40576" stroke-linecap="round" stroke-linejoin="round"/>
<path d="M163.293 53.2729C152.989 57.3532 137.926 68.311 128.883 79.6871C119.841 91.0632 109.241 109.95 106.261 147.916C103.984 176.927 114.074 197.128 134.485 198.952C154.897 200.776 176.008 178.143 178.742 152.474C181.476 126.805 167.556 115.288 168.582 93.3898C169.021 83.9712 174.795 74.0993 183.3 69.2388L163.293 53.2765V53.2729Z" fill="#DDDCFC"/>
<path d="M134.485 198.948C154.897 200.772 176.008 178.139 178.742 152.47C180.714 133.956 174.022 122.805 170.526 109.812L111.336 116.377C109.041 125.132 107.238 135.513 106.265 147.916C103.987 176.927 114.077 197.128 134.489 198.952L134.485 198.948Z" fill="#5B56A4"/>
<path d="M109.08 177.148C113.371 189.835 121.995 197.834 134.485 198.948C149.738 200.312 169.745 186.145 177.052 161.393C167.507 179.77 134.865 188.999 109.08 177.148Z" fill="#333476"/>
<path d="M128.293 153.465C154.398 148.07 163.423 133.51 171.959 114.603C169.858 108.122 168.202 101.459 168.582 93.3863C168.888 86.8847 171.731 80.1687 176.261 75.0342C139.75 96.9324 142.853 126.597 128.293 153.468V153.465Z" fill="#8B8BD1"/>
<path d="M163.293 53.2729C152.989 57.3532 137.926 68.311 128.883 79.6871C119.841 91.0632 109.241 109.95 106.261 147.916C103.984 176.927 114.074 197.128 134.485 198.952C154.897 200.776 176.008 178.143 178.742 152.474C181.476 126.805 167.556 115.288 168.582 93.3898C169.021 83.9712 174.795 74.0993 183.3 69.2388" stroke="#191935" stroke-width="1.40576" stroke-linecap="round" stroke-linejoin="round"/>
<path d="M84.5002 166.008C62.8269 170.151 51.4122 152.815 32.2763 152.92C13.1404 153.026 1.83108 176.389 6.0589 191.508C10.2867 206.627 21.2833 214.141 21.2833 214.141C20.0146 211.277 21.2446 206.803 21.2446 206.803C21.2446 206.803 38.3105 212.408 61.878 209.692C70.548 210.219 73.2963 209.692 73.2963 209.692C70.9698 206.413 71.9222 199.542 71.9222 199.542C74.8813 205.675 77.6295 207.576 77.6295 207.576C76.5717 197.005 78.0513 187.913 84.6056 185.692C91.16 183.471 104.058 192.773 104.058 192.773L108.496 140.774C108.496 140.774 97.3312 163.551 84.5002 166.008Z" fill="#6D6FBF"/>
<path d="M106.261 166.988C99.1974 176.024 89.6769 179.689 89.6769 179.689C89.9229 175.788 89.3817 173.711 89.3817 173.711C81.4075 187.667 63.7231 192.925 63.7231 192.925C52.0166 194.394 46.6923 192.19 46.6923 192.19C47.9786 195.494 50.9377 197.205 50.9377 197.205C39.3964 195.304 29.6335 186.173 29.6335 186.173C29.6335 191.628 31.9178 197.205 31.9178 197.205C19.5366 193.118 8.1851 185.042 9.19374 168.77C9.18671 168.784 9.17968 168.798 9.17265 168.809C5.4263 176.115 4.15058 184.659 6.06592 191.508C10.2937 206.627 21.2903 214.141 21.2903 214.141C20.0216 211.277 21.2516 206.803 21.2516 206.803C21.2516 206.803 38.3175 212.408 61.885 209.692C70.5551 210.219 73.3033 209.692 73.3033 209.692C70.9768 206.413 71.9292 199.542 71.9292 199.542C74.8883 205.675 77.6366 207.576 77.6366 207.576C76.5787 197.005 78.0583 187.913 84.6126 185.692C91.167 183.471 104.065 192.773 104.065 192.773L106.268 166.985L106.261 166.988Z" fill="#49488A"/>
<path d="M78.343 166.644C58.6905 168.851 51.0607 155.275 31.9284 155.38C23.898 155.426 15.3826 160.241 10.6768 166.152C15.3861 158.624 22.8929 152.973 32.2798 152.92C49.5179 152.825 60.4934 166.886 78.343 166.644Z" fill="#DCE5EA" stroke="#DCE5EA" stroke-width="1.40576" stroke-linecap="round" stroke-linejoin="round"/>
<path d="M84.5002 166.008C62.8269 170.151 51.4122 152.815 32.2763 152.92C13.1404 153.026 1.83108 176.389 6.0589 191.508C10.2867 206.627 21.2833 214.141 21.2833 214.141C20.0146 211.277 21.2446 206.803 21.2446 206.803C21.2446 206.803 38.3105 212.408 61.878 209.692C70.548 210.219 73.2963 209.692 73.2963 209.692C70.9698 206.413 71.9222 199.542 71.9222 199.542C74.8813 205.675 77.6295 207.576 77.6295 207.576C76.5717 197.005 78.0513 187.913 84.6056 185.692C91.16 183.471 104.058 192.773 104.058 192.773L108.496 140.774C108.496 140.774 97.3312 163.551 84.5002 166.008Z" stroke="#191935" stroke-width="1.40576" stroke-linecap="round" stroke-linejoin="round"/>
<path d="M148.603 160.177C148.603 160.177 156.429 166.809 154.992 179.914C153.189 196.362 140.875 202.252 138.885 204.336C137.901 205.366 136.425 208.504 136.425 208.504L112.816 207.256C114.478 204.687 114.517 203.405 114.517 203.405C114.517 203.405 104.599 197.096 102.754 189.034C100.03 177.134 106.989 163.281 106.989 163.281" fill="#514F98"/>
<path d="M114.517 203.404C114.517 203.404 114.478 204.687 112.816 207.256L136.425 208.504C136.425 208.504 137.898 205.369 138.885 204.336C140.875 202.252 153.189 196.362 154.992 179.914C155.224 177.813 155.213 175.88 155.038 174.108C150.314 196.924 116.759 212.243 102.399 178.765C101.991 182.104 101.981 185.646 102.754 189.031C104.599 197.093 114.517 203.401 114.517 203.401V203.404Z" fill="#333476"/>
<path d="M148.603 160.177C148.603 160.177 156.429 166.809 154.992 179.914C153.189 196.362 140.875 202.252 138.885 204.336C137.901 205.366 136.425 208.504 136.425 208.504L112.816 207.256C114.478 204.687 114.517 203.405 114.517 203.405C114.517 203.405 104.599 197.096 102.754 189.034C100.03 177.134 106.989 163.281 106.989 163.281" stroke="#191935" stroke-width="1.40576" stroke-linecap="round" stroke-linejoin="round"/>
<path d="M112.816 207.256C112.816 207.256 116.882 203.52 125.281 203.71C133.681 203.9 136.425 208.504 136.425 208.504C136.425 208.504 133.048 214.686 126.603 214.102C125.524 214.004 125.134 208.223 125.134 208.223H123.436C123.436 208.223 123.566 213.287 121.51 213.972C119.454 214.657 113.729 210.869 112.819 207.26L112.816 207.256Z" fill="#49488A" stroke="#191935" stroke-width="1.40576" stroke-linecap="round" stroke-linejoin="round"/>
<path d="M115.775 211.459C117.803 213.217 120.294 214.376 121.51 213.969C123.57 213.283 123.436 208.219 123.436 208.219C123.436 208.219 117.936 207.797 115.771 211.459H115.775Z" fill="#232355"/>
<path d="M132.542 212.588C132.159 208.026 125.134 208.219 125.134 208.219C125.134 208.219 125.527 214 126.603 214.099C129.017 214.317 131.003 213.586 132.538 212.588H132.542Z" fill="#232355"/>
<path d="M112.816 207.256C112.816 207.256 116.882 203.52 125.281 203.71C133.681 203.9 136.425 208.504 136.425 208.504C136.425 208.504 133.048 214.686 126.603 214.102C125.524 214.004 125.134 208.223 125.134 208.223H123.436C123.436 208.223 123.566 213.287 121.51 213.972C119.454 214.657 113.729 210.869 112.819 207.26L112.816 207.256Z" stroke="#0C0C1C" stroke-width="1.40576" stroke-linecap="round" stroke-linejoin="round"/>
<path d="M129.024 206.88C129.024 206.88 126.311 214.296 124.223 214.296C122.136 214.296 119.609 207.207 119.609 207.207" fill="#49488A"/>
<path d="M120.386 209.158C121.296 211.256 122.849 214.296 124.22 214.296C125.59 214.296 127.172 211.217 128.142 209.028C126.929 208.297 123.686 206.803 120.386 209.154V209.158Z" fill="#232355"/>
<path d="M151.005 121.343L97.8795 131.189C96.5397 131.437 95.655 132.724 95.9033 134.064L101.677 165.216C101.925 166.556 103.213 167.44 104.552 167.192L157.678 157.346C159.018 157.098 159.902 155.81 159.654 154.471L153.88 123.319C153.632 121.979 152.345 121.094 151.005 121.343Z" stroke="#9A9AD8" stroke-width="1.40576" stroke-linecap="round" stroke-linejoin="round"/>
<path d="M151.144 122.011L98.7648 131.719C97.4346 131.965 96.5561 133.244 96.8027 134.574L102.583 165.76C102.829 167.09 104.107 167.969 105.438 167.722L157.817 158.014C159.147 157.768 160.025 156.49 159.779 155.159L153.999 123.973C153.752 122.643 152.474 121.764 151.144 122.011Z" fill="#9DA2E0"/>
<path d="M103.214 132.491L98.02 133.454L98.259 142.412" stroke="white" stroke-width="1.40576" stroke-linecap="round" stroke-linejoin="round"/>
<path d="M157.955 145.287L152.201 123.413L148.195 124.155" stroke="white" stroke-width="1.40576" stroke-linecap="round" stroke-linejoin="round"/>
<path d="M151.144 122.011L98.7648 131.719C97.4346 131.965 96.5561 133.244 96.8027 134.574L102.583 165.76C102.829 167.09 104.107 167.969 105.438 167.722L157.817 158.014C159.147 157.768 160.025 156.49 159.779 155.159L153.999 123.973C153.752 122.643 152.474 121.764 151.144 122.011Z" stroke="#49488A" stroke-width="1.40576" stroke-linecap="round" stroke-linejoin="round"/>
<path d="M154.992 93.6956C146.29 103.979 138.998 118.662 142.136 146.759C142.674 151.56 127.52 156.361 127.52 156.361C124.666 154.987 124.255 152.513 124.255 152.513C124.255 152.513 123.429 154.952 124.599 158.079C124.599 158.079 121.953 156.74 119.96 153.957C119.96 153.957 119.412 154.92 119.651 156.877C106.845 141.411 100.635 95.7726 140.622 67.9597L154.992 93.6956Z" fill="#DDDCFC"/>
<path d="M110.19 130.154C111.203 107.103 117.933 90.9614 129.766 77.0022" stroke="white" stroke-width="1.40576" stroke-linecap="round" stroke-linejoin="round"/>
<path d="M119.964 153.957C121.957 156.74 124.603 158.079 124.603 158.079C123.436 154.952 124.258 152.513 124.258 152.513C124.258 152.513 124.67 154.987 127.523 156.361C127.523 156.361 142.674 151.564 142.14 146.76C141.665 142.5 141.43 138.553 141.402 134.881C140.284 133.289 137.915 129.55 137.915 126.51C137.915 126.51 135.016 129.543 132.985 133.141C132.985 133.141 131.625 129.058 131.417 123.473C131.417 123.473 125.629 128.513 123.654 135.728C123.654 135.728 122.768 134.16 122.427 130.688C122.427 130.688 115.553 146.819 117.845 154.417C118.428 155.303 119.033 156.125 119.655 156.874C119.416 154.916 119.964 153.953 119.964 153.953V153.957Z" fill="#57539F"/>
<path d="M139.75 147.002C137.81 145.09 134.637 144.419 134.637 144.419C135.424 145.656 135.171 146.752 135.171 146.752C133.681 145.572 131.772 144.897 131.772 144.897C129.86 146.64 126.603 151.332 126.603 151.332C125.422 150.123 124.297 149.392 124.297 149.392C124.269 151.782 123.201 154.716 123.201 154.716C126.582 159.657 130.356 158.315 131.351 162.736C131.351 162.736 143.187 162.434 144.269 156.579C145.352 150.724 142.136 146.763 142.136 146.763C141.764 146.268 141.293 145.877 140.839 145.579C140.014 145.034 139.244 144.798 139.244 144.798C139.753 145.923 139.746 147.002 139.746 147.002H139.75Z" fill="#D8D6FB"/>
<path d="M124.125 156.333C124.223 156.881 124.374 157.464 124.603 158.079C124.603 158.079 121.957 156.74 119.964 153.957C119.964 153.957 119.416 154.92 119.655 156.877C106.848 141.411 100.638 95.7726 140.625 67.9597" stroke="#7481BA" stroke-width="1.40576" stroke-linecap="round" stroke-linejoin="round"/>
<path d="M154.992 93.6956C146.29 103.979 138.998 118.662 142.136 146.759" stroke="#7481BA" stroke-width="1.40576" stroke-linecap="round" stroke-linejoin="round"/>
<path d="M123.201 154.713C126.582 159.654 130.356 158.311 131.351 162.732C131.351 162.732 143.187 162.43 144.269 156.575C145.352 150.72 142.136 146.76 142.136 146.76" stroke="#7481BA" stroke-width="1.40576" stroke-linecap="round" stroke-linejoin="round"/>
<path d="M143.226 150.119C145.461 153.036 150.743 151.086 151.576 152.052C152.409 153.019 149.267 158.111 143.359 156.501" fill="#D8D6FB"/>
<path d="M143.226 150.119C145.461 153.036 150.743 151.086 151.576 152.052C152.409 153.019 149.267 158.111 143.359 156.501" stroke="#7481BA" stroke-width="1.40576" stroke-linecap="round" stroke-linejoin="round"/>
<path d="M139.497 159.383C139.455 161.411 138.58 163.857 138.998 164.282C140.906 166.226 144.761 162.806 145.243 159.281C145.535 157.151 145.348 155.043 143.254 152.467" fill="#D8D6FB"/>
<path d="M139.497 159.383C139.455 161.411 138.58 163.857 138.998 164.282C140.906 166.226 144.761 162.806 145.243 159.281C145.535 157.151 145.348 155.043 143.254 152.467" stroke="#7481BA" stroke-width="1.40576" stroke-linecap="round" stroke-linejoin="round"/>
<path d="M135.958 160.174C136.176 162.11 134.875 164.23 135.181 164.901C136.306 167.382 140.228 166.409 141.785 163.21C142.628 161.481 143.096 158.624 141.419 156.333" fill="#D8D6FB"/>
<path d="M135.958 160.174C136.176 162.11 134.875 164.23 135.181 164.901C136.306 167.382 140.228 166.409 141.785 163.21C142.628 161.481 143.096 158.624 141.419 156.333" stroke="#7481BA" stroke-width="1.40576" stroke-linecap="round" stroke-linejoin="round"/>
<path d="M130.62 160.922C131.621 163.063 130.156 164.184 130.244 165.045C130.549 168.021 137.522 167.143 137.701 162.261C137.757 160.775 137.269 159.271 136.355 158.083" fill="#D8D6FB"/>
<path d="M130.62 160.922C131.621 163.063 130.156 164.184 130.244 165.045C130.549 168.021 137.522 167.143 137.701 162.261C137.757 160.775 137.269 159.271 136.355 158.083" stroke="#7481BA" stroke-width="1.40576" stroke-linecap="round" stroke-linejoin="round"/>
<path d="M131.192 163.319C130.911 163.144 128.592 163.604 128.391 163.73C128.191 163.857 130.114 165.937 130.669 166.004C131.561 166.113 132.422 164.089 131.192 163.319Z" fill="#3F3E77"/>
<path d="M131.192 163.319C130.911 163.144 128.592 163.604 128.391 163.73C128.191 163.857 130.114 165.937 130.669 166.004" stroke="#191935" stroke-width="1.40576" stroke-linecap="round" stroke-linejoin="round"/>
<path d="M151.576 152.049C151.077 151.469 148.968 151.94 146.881 151.778C146.178 153.764 147.313 155.64 147.9 156.428C150.796 155.419 152.159 152.727 151.576 152.052V152.049Z" fill="#3F3E77"/>
<path d="M147.896 156.427C150.792 155.419 152.156 152.727 151.572 152.052C151.073 151.472 148.965 151.943 146.877 151.781" stroke="#191935" stroke-width="1.40576" stroke-linecap="round" stroke-linejoin="round"/>
<path d="M168.582 62.2417C158.605 65.3203 144.371 71.3264 131.811 75.0306C128.258 77.3677 122.944 82.8009 122.944 82.8009C130.219 78.914 138.573 78.6504 144.045 77.2482C150.462 75.5999 154.879 73.7795 162.295 72.0469C169.71 70.3143 180.288 71.2491 180.288 71.2491C181.248 70.5076 182.253 69.8328 183.3 69.2354L172.181 60.0522L168.582 62.2452V62.2417Z" fill="#49488A"/>
<path d="M131.811 75.0307C128.258 77.3678 122.944 82.801 122.944 82.801C130.219 78.9141 138.537 78.5029 144.045 77.2483C149.752 75.9444 154.633 74.1169 154.633 74.1169" stroke="#191935" stroke-width="1.40576" stroke-linecap="round" stroke-linejoin="round"/>
<path d="M131.811 75.0306C144.568 61.1803 163.296 53.2729 163.296 53.2729L180.229 64.0551C138.899 75.9408 131.811 75.0306 131.811 75.0306Z" fill="#8588D1"/>
<path d="M131.811 75.0306C144.568 61.1803 163.296 53.2729 163.296 53.2729" stroke="#191935" stroke-width="1.40576" stroke-linecap="round" stroke-linejoin="round"/>
<path d="M167.795 49.6779C167.795 49.6779 159.283 49.1683 157.649 50.2683C157.132 50.6163 156.289 54.2009 157.188 56.6681C158.137 59.2757 160.864 60.7553 161.687 60.5655C163.082 60.2422 164.79 57.7575 164.79 57.7575" fill="#D2D2FB"/>
<path d="M166.716 50.6654C161.736 50.458 159.75 50.9395 159.75 50.9395" stroke="white" stroke-width="1.40576" stroke-linecap="round" stroke-linejoin="round"/>
<path d="M167.795 49.6779C167.795 49.6779 159.283 49.1683 157.649 50.2683C157.132 50.6163 156.289 54.2009 157.188 56.6681C158.137 59.2757 160.864 60.7553 161.687 60.5655C163.082 60.2422 164.79 57.7575 164.79 57.7575" stroke="#49488A" stroke-width="1.40576" stroke-linecap="round" stroke-linejoin="round"/>
<path d="M161.683 51.3085C158.731 51.189 158.482 53.6174 158.482 53.6174C159.585 53.2449 160.689 53.2625 160.689 53.2625C160.102 54.7772 160.422 56.4149 160.422 56.4149C160.422 56.4149 161.349 55.719 161.845 55.2024C161.845 55.2024 162.506 55.7893 163.198 56.2005C163.198 56.2005 164.853 53.5823 165.3 52.5069C165.3 52.5069 163.156 51.3682 161.68 51.3085H161.683Z" fill="#6A6DB8"/>
<path d="M166.118 52.9005C166.118 52.9005 162.453 49.9027 157.146 51.3647" stroke="#49488A" stroke-width="1.40576" stroke-linecap="round" stroke-linejoin="round"/>
<path d="M18.7529 204.951C29.651 214.394 50.168 216.457 50.168 216.457C47.5252 214.131 44.9457 209.593 44.9457 209.593" fill="#49488A"/>
<path d="M18.7529 204.951C29.651 214.394 50.168 216.457 50.168 216.457C47.5252 214.131 44.9457 209.593 44.9457 209.593" stroke="#191935" stroke-width="1.40576" stroke-linecap="round" stroke-linejoin="round"/>
<path d="M39.544 207.516C55.7172 215.919 70.2563 213.076 70.2563 213.076C65.3924 209.692 64.3451 207.407 64.3451 207.407" fill="#49488A"/>
<path d="M39.544 207.516C55.7172 215.919 70.2563 213.076 70.2563 213.076C65.3924 209.692 64.3451 207.407 64.3451 207.407" stroke="#191935" stroke-width="1.40576" stroke-linecap="round" stroke-linejoin="round"/>
<path d="M142.14 146.763C141.665 142.503 141.43 138.557 141.402 134.884" stroke="#191935" stroke-width="1.40576" stroke-linecap="round" stroke-linejoin="round"/>
<path d="M129.024 206.88C129.024 206.88 126.311 214.296 124.223 214.296C122.136 214.296 119.609 207.207 119.609 207.207" stroke="#0C0C1C" stroke-width="1.40576" stroke-linecap="round" stroke-linejoin="round"/>
<path d="M177.312 157.292C178.06 166.549 173.92 171.954 173.92 171.954C173.92 171.954 174.55 167.375 173.573 163.744" fill="#5B56A4"/>
<path d="M177.312 157.292C178.06 166.549 173.92 171.954 173.92 171.954C173.92 171.954 174.55 167.375 173.573 163.744" stroke="#191935" stroke-width="1.40576" stroke-linecap="round" stroke-linejoin="round"/>
<path d="M178.517 147.086C181.051 157.721 178.229 165.484 178.229 165.484C178.229 165.484 177.407 160.547 176.029 156.319" fill="#5B56A4"/>
<path d="M178.517 147.086C181.051 157.721 178.229 165.484 178.229 165.484C178.229 165.484 177.407 160.547 176.029 156.319" stroke="#191935" stroke-width="1.40576" stroke-linecap="round" stroke-linejoin="round"/>
<path d="M169.099 89.2991C167.974 85.1873 168.582 81.4128 168.582 81.4128L169.099 89.2991Z" fill="#8B8BD1"/>
<path d="M169.099 89.2991C167.974 85.1873 168.582 81.4128 168.582 81.4128" stroke="#191935" stroke-width="1.40576" stroke-linecap="round" stroke-linejoin="round"/>
<path d="M118.903 96.2471C109.902 104.365 108.995 113.204 108.995 113.204C108.995 113.204 113.55 108.294 117.729 105.722" fill="#DDDCFC"/>
<path d="M118.903 96.2471C109.902 104.365 108.995 113.204 108.995 113.204C108.995 113.204 113.55 108.294 117.729 105.722" stroke="#7481BA" stroke-width="1.40576" stroke-linecap="round" stroke-linejoin="round"/>
<path opacity="0.16" d="M192.543 44.4097C193.025 44.0161 198.159 43.3589 200.148 43.8896C202.137 44.4202 202.714 53.5893 202.155 54.2535C201.565 54.9564 195.98 55.9193 195.453 55.8491C194.926 55.7788 191.109 45.58 192.543 44.4097Z" fill="#DEF5FF"/>
<path d="M192.543 44.4097C193.025 44.0161 198.159 43.3589 200.148 43.8896C202.137 44.4202 202.714 53.5893 202.155 54.2535C201.565 54.9564 195.98 55.9193 195.453 55.8491C194.926 55.7788 191.109 45.58 192.543 44.4097Z" stroke="black" stroke-width="1.40576" stroke-linecap="round" stroke-linejoin="round"/>
<path d="M188.864 68.4342C187.479 71.7624 191.598 77.2905 189.661 78.387C185.261 77.0059 181.371 71.056 182.52 63.4719L188.867 68.4378L188.864 68.4342Z" fill="#894E71"/>
<path d="M188.864 68.4341C187.479 71.7622 191.598 77.2904 189.661 78.3868" stroke="#191935" stroke-width="1.40576" stroke-linecap="round" stroke-linejoin="round"/>
<path d="M160.274 57.8136C160.274 57.8136 164.734 47.6816 171.179 45.0739C177.417 42.5506 182.387 43.1129 190.308 44.5713C217.362 49.5512 242.321 74.4191 250.007 87.6367C251.613 90.399 251.047 94.1243 243.519 89.0952C230.442 80.3584 213.97 73.0801 195.713 75.997C195.713 75.997 186.224 74.1801 182.281 65.7666C182.281 65.7666 181.845 73.8322 189.37 78.436C189.37 78.436 180.151 78.3763 167.556 68.1705C163.1 64.5612 160.27 57.8171 160.27 57.8171L160.274 57.8136Z" fill="#8588D1"/>
<path d="M244.795 79.5783C239.576 78.7067 236.058 80.9313 233.595 82.6674C233.595 82.6674 240.813 87.0147 243.801 89.0109C251.328 94.04 252.45 90.1566 250.843 87.3943C249.55 85.1662 246.953 82.6569 244.795 79.5783Z" fill="#49488A"/>
<path d="M186.794 44.0337C220.419 48.3142 246.479 80.9665 250.309 87.0393C250.309 87.0393 251.849 90.487 250.38 91.4464C247.796 85.0607 236.069 69.5095 219.639 59.0437C209.261 52.4331 198.504 47.9382 186.794 44.0337Z" fill="#DCE5EA" stroke="#DCE5EA" stroke-width="1.40576" stroke-linecap="round" stroke-linejoin="round"/>
<path d="M183.388 71.4248C179.589 70.613 176.268 66.3114 173.267 65.8194C170.265 65.3273 167.31 67.3446 167.447 67.4536C180.042 77.6594 189.373 78.429 189.373 78.429C184.537 75.9443 183.719 73.5651 183.388 71.4248Z" fill="#49488A"/>
<path d="M227.743 79.8419C211.837 65.4891 196.571 73.2946 187.113 72.0259C191.039 74.8163 195.657 75.6352 195.657 75.6352C210.403 72.416 227.743 79.8419 227.743 79.8419Z" fill="#49488A"/>
<path d="M160.562 57.7681C160.562 57.7681 164.554 48.4549 170.364 45.4642C175.723 42.7054 182.886 43.0111 190.596 44.5258C217.418 49.7974 241.516 73.1084 249.772 85.9465C254.337 93.0491 248.654 92.5535 242.887 88.4944C231.163 80.2496 214.202 72.6761 195.945 75.5931C195.945 75.5931 186.034 74.7601 182.285 65.7633C182.285 65.7633 182.032 75.0694 189.661 78.387C189.661 78.387 181.185 78.8509 167.791 67.7665" stroke="#191935" stroke-width="1.40576" stroke-linecap="round" stroke-linejoin="round"/>
<path d="M177.744 51.1891C180.345 49.7939 183.35 57.4483 179.308 58.4604C175.266 59.4726 174.978 52.6757 177.744 51.1891Z" fill="#1A1A21"/>
<path d="M175.456 54.3239C177.617 48.8801 180.847 49.2105 182.559 51.5264" stroke="#191935" stroke-width="1.05432" stroke-linecap="round" stroke-linejoin="round"/>
<path d="M182.394 56.9631C180.158 59.0964 176.837 58.7098 176.837 58.7098" stroke="#191935" stroke-width="1.05432" stroke-linecap="round" stroke-linejoin="round"/>
<path d="M175.337 44.5962C176.911 41.4402 178.145 41.1028 179.487 42.2134" stroke="#191935" stroke-width="1.40576" stroke-linecap="round" stroke-linejoin="round"/>
<path d="M198.015 41.2644C196.982 40.428 195.084 39.328 193.749 41.1062" stroke="#191935" stroke-width="1.40576" stroke-linecap="round" stroke-linejoin="round"/>
<path opacity="0.16" d="M185.405 45.1583C178.696 44.48 173.379 48.7887 171.242 50.8587C170.589 51.4913 170.29 52.3909 170.459 53.2449C170.979 55.8491 171.847 58.513 172.532 60.4038C173.144 62.0977 174.876 63.0993 176.728 62.8217C181.483 62.1047 184.98 59.7641 186.983 58.0491C188.234 56.9772 188.821 55.343 188.509 53.8037C187.159 47.1686 185.409 45.1583 185.409 45.1583H185.405Z" fill="#DEF5FF"/>
<path d="M185.444 45.1583C178.735 44.48 173.418 48.7887 171.281 50.8587C170.627 51.4913 170.329 52.3909 170.497 53.2449C171.017 55.8491 171.886 58.513 172.571 60.4038C173.182 62.0977 174.915 63.0993 176.767 62.8217C181.522 62.1047 185.019 59.7641 187.022 58.0491C188.273 56.9772 188.86 55.343 188.547 53.8037C187.198 47.1686 185.448 45.1583 185.448 45.1583H185.444Z" stroke="black" stroke-width="1.40576" stroke-linecap="round" stroke-linejoin="round"/>
<path d="M185.444 45.1584C185.444 45.1584 185.94 43.5032 186.523 43.2466C187.106 42.9901 190.283 42.5859 190.881 42.8565C191.478 43.1271 192.543 44.4064 192.543 44.4064" stroke="black" stroke-width="1.40576" stroke-linecap="round" stroke-linejoin="round"/>
<path d="M167.609 52.6441C167.609 52.6441 159.423 48.107 157.431 48.4619C156.802 48.5744 154.528 51.5792 154.359 54.2642C154.176 57.0968 156.138 59.6166 156.992 59.7783C158.439 60.0559 161.448 58.9629 161.448 58.9629" fill="#D2D2FB"/>
<path d="M166.6 52.9955C161.616 50.4651 158.334 49.583 158.334 49.583" stroke="white" stroke-width="1.40576" stroke-linecap="round" stroke-linejoin="round"/>
<path d="M167.609 52.6441C167.609 52.6441 159.423 48.107 157.431 48.4619C156.802 48.5744 154.528 51.5792 154.359 54.2642C154.176 57.0968 156.138 59.6166 156.992 59.7783C158.439 60.0559 161.448 58.9629 161.448 58.9629" stroke="#49488A" stroke-width="1.40576" stroke-linecap="round" stroke-linejoin="round"/>
<path d="M162.129 51.9727C159.114 50.0151 156.847 51.8637 156.847 51.8637C158.014 52.1343 158.974 52.7458 158.974 52.7458C157.645 53.7474 157.044 55.3465 157.044 55.3465C157.044 55.3465 158.229 55.2411 158.942 55.0618C158.942 55.0618 159.202 55.9299 159.592 56.6609C159.592 56.6609 163.022 55.1848 163.989 54.489C163.989 54.489 163.402 52.795 162.126 51.9692L162.129 51.9727Z" fill="#6A6DB8"/>
<path d="M164.699 54.9671C164.699 54.9671 162.105 50.1102 156.506 49.2808" stroke="#49488A" stroke-width="1.40576" stroke-linecap="round" stroke-linejoin="round"/>
<path d="M178.45 52.5244C179.108 52.0816 180.352 54.3659 179.638 54.8896C178.925 55.4132 177.709 53.0269 178.45 52.5244Z" fill="white"/>
<path d="M244.472 85.9851C245.484 87.3417 246.696 87.8372 247.589 88.3327C248.095 88.6139 247.716 89.4116 246.96 88.9442C245.326 87.9286 244.468 85.9851 244.468 85.9851H244.472Z" fill="black" stroke="black" stroke-width="1.40576" stroke-linecap="round" stroke-linejoin="round"/>
<path d="M207.476 113.355C207.704 116.251 209.117 119.481 209.117 119.481C209.345 117.976 210.315 117.393 210.315 117.393C210.692 119.41 211.76 121.399 211.76 121.399C215.369 120.366 218.311 121.132 218.311 121.132C224.795 117.776 225.867 114.603 227.237 109.9C227.237 109.9 216.367 98.1412 211.401 101.473C206.436 104.805 204.78 111.275 204.78 111.275C204.654 113.106 206.337 115.33 206.337 115.33C206.71 114.125 207.472 113.359 207.472 113.359L207.476 113.355Z" fill="#DDDCFC"/>
<path d="M205.494 109.31C204.83 111.64 204.643 113.397 204.643 113.397" stroke="#7481BA" stroke-width="1.40576" stroke-linecap="round" stroke-linejoin="round"/>
<path d="M218.353 121.167C224.7 118.49 226.341 112.817 227.529 110.178" stroke="#7481BA" stroke-width="1.40576" stroke-linecap="round" stroke-linejoin="round"/>
<path d="M216.525 105.033C217.956 102.365 220.145 99.3114 222.268 97.129C223.895 95.4561 226.021 94.7673 226.675 95.3191C227.36 95.8989 227.104 98.0287 226.053 100.362C225.097 102.488 223.958 104.622 222.883 106.892" fill="#DDDCFC"/>
<path d="M216.525 105.033C217.956 102.365 220.145 99.3114 222.268 97.129C223.895 95.4561 226.021 94.7673 226.675 95.3191C227.36 95.8989 227.104 98.0287 226.053 100.362C225.097 102.488 223.958 104.622 222.883 106.892" stroke="#7481BA" stroke-width="1.40576" stroke-linecap="round" stroke-linejoin="round"/>
<path d="M226.675 95.3191C227.36 95.8989 227.104 98.0287 226.053 100.362C223.403 99.5434 222.268 97.129 222.268 97.129C223.895 95.4561 226.021 94.7673 226.675 95.3191Z" fill="#3F3E77"/>
<path d="M222.268 97.129C223.895 95.4561 226.021 94.7673 226.675 95.3191C227.36 95.8989 227.104 98.0287 226.053 100.362" stroke="#191935" stroke-width="1.40576" stroke-linecap="round" stroke-linejoin="round"/>
<path d="M227.276 110.761C227.276 110.761 229.975 107.465 230.72 106.27C232.224 103.856 233.637 97.9232 227.726 102.548C226.31 103.655 224.05 105.679 222.514 107.486" fill="#DDDCFC"/>
<path d="M227.276 110.761C227.276 110.761 229.975 107.465 230.72 106.27C232.224 103.856 233.637 97.9232 227.726 102.548C226.31 103.655 224.05 105.679 222.514 107.486" stroke="#7481BA" stroke-width="1.40576" stroke-linecap="round" stroke-linejoin="round"/>
<path d="M231.592 100.907C232.161 101.532 231.996 104.221 230.72 106.266C228.337 105.177 227.726 102.545 227.726 102.545C229.462 101.188 231.047 100.309 231.592 100.903V100.907Z" fill="#3F3E77"/>
<path d="M227.729 102.548C229.465 101.191 230.91 100.482 231.595 100.907C232.418 101.42 232.611 103.536 230.724 106.266" stroke="#191935" stroke-width="1.40576" stroke-linecap="round" stroke-linejoin="round"/>
<path d="M216.525 105.033C217.091 103.118 218.061 99.3817 218.416 97.5683C219.218 93.4705 215.942 92.3951 213.872 95.674C212.487 97.867 210.839 101.413 209.683 104.407" fill="#DDDCFC"/>
<path d="M216.525 105.033C217.091 103.118 218.061 99.3817 218.416 97.5683C219.218 93.4705 215.942 92.3951 213.872 95.674C212.487 97.867 210.839 101.413 209.683 104.407" stroke="#7481BA" stroke-width="1.40576" stroke-linecap="round" stroke-linejoin="round"/>
<path d="M218.472 92.7044C219.277 93.1015 218.866 95.0485 218.413 97.5683C215.647 97.4101 213.869 95.674 213.869 95.674C215.039 93.6603 217.706 92.3248 218.472 92.7009V92.7044Z" fill="#3F3E77"/>
<path d="M213.872 95.6741C215.464 93.0559 217.748 92.2511 218.476 92.7009C219.555 93.3687 218.95 95.5933 218.416 97.5649" stroke="#191935" stroke-width="1.40576" stroke-linecap="round" stroke-linejoin="round"/>
<path d="M205.494 109.31C206.151 105.11 204.545 98.6825 205.48 97.8145C206.327 97.0273 210.857 99.6982 210.614 104.601" fill="#DDDCFC"/>
<path d="M205.494 109.31C206.151 105.11 204.545 98.6825 205.48 97.8145C206.327 97.0273 210.857 99.6982 210.614 104.601" stroke="#7481BA" stroke-width="1.40576" stroke-linecap="round" stroke-linejoin="round"/>
<path d="M205.476 97.8143C204.914 98.3344 205.466 100.425 205.378 102.517C207.388 103.146 209.222 101.94 209.985 101.329C208.871 98.4715 206.13 97.2063 205.476 97.8143Z" fill="#3F3E77"/>
<path d="M209.985 101.325C208.871 98.468 206.13 97.2029 205.476 97.8109C204.914 98.331 205.466 100.422 205.378 102.513" stroke="#191935" stroke-width="1.40576" stroke-linecap="round" stroke-linejoin="round"/>
<path d="M208.868 108.878C212.825 103.698 223.649 110.34 220.068 115.278C216.012 120.872 205.645 113.095 208.868 108.878Z" fill="#F7F5FE"/>
<path d="M239.344 104.625C238.364 114.171 231.904 120.967 231.904 120.967" stroke="#D1D6E8" stroke-width="1.40576" stroke-linecap="round" stroke-linejoin="round"/>
<path d="M243.73 101.593C243.73 109.37 241.66 113.749 241.66 113.749" stroke="#D1D6E8" stroke-width="1.40576" stroke-linecap="round" stroke-linejoin="round"/>
<path d="M208.256 89.7595C202.015 92.6378 199.597 98.3241 199.597 98.3241" stroke="#D1D6E8" stroke-width="1.40576" stroke-linecap="round" stroke-linejoin="round"/>
<path d="M198.683 91.8611C195.348 95.4563 194.237 100.162 194.237 100.162" stroke="#D1D6E8" stroke-width="1.40576" stroke-linecap="round" stroke-linejoin="round"/>
</svg>
