<svg width="256" height="256" viewBox="0 0 256 256" fill="none" xmlns="http://www.w3.org/2000/svg">
<path d="M170.292 154.979C152.41 154.338 137.609 162.423 137.228 173.033L136.943 181.03C137.323 170.42 152.124 162.339 170.006 162.976C187.889 163.616 202.075 172.737 201.694 183.347C201.742 181.974 201.932 176.719 201.979 175.35C202.36 164.74 188.171 155.619 170.292 154.979Z" fill="#FFD366"/>
<path d="M201.694 183.347C202.075 172.737 187.889 163.616 170.006 162.976C152.124 162.339 137.323 170.42 136.943 181.03L137.228 173.033C137.609 162.423 152.41 154.338 170.292 154.979C188.171 155.619 202.36 164.74 201.979 175.35C201.932 176.719 201.742 181.974 201.694 183.347ZM201.694 183.347C201.694 183.358 201.694 183.365 201.694 183.376" stroke="#996614" stroke-width="1.46397" stroke-linecap="round" stroke-linejoin="round"/>
<path opacity="0.3" d="M144.138 161.721C143.355 165.468 143.732 169.809 143.732 169.809C145.207 168.715 146.89 167.727 148.742 166.863C148.742 166.863 148.292 163.47 148.907 158.921C147.15 159.748 145.551 160.685 144.138 161.721Z" fill="#996614"/>
<path opacity="0.3" d="M152.534 157.453C152.197 159.389 151.897 162.336 152.347 165.417C157.471 163.66 163.539 162.749 170.006 162.98C175.504 163.177 180.653 164.177 185.137 165.772C185.118 163.551 184.884 160.637 184.108 157.329C179.943 155.993 175.262 155.158 170.292 154.979C163.781 154.745 157.68 155.671 152.534 157.453Z" fill="#996614"/>
<path opacity="0.5" d="M202.118 179.328C202.494 168.822 188.179 159.781 170.144 159.136C152.11 158.49 137.185 166.484 136.809 176.99C136.433 187.496 150.748 196.536 168.783 197.182C186.817 197.827 201.742 189.834 202.118 179.328Z" fill="#D4EBFF"/>
<path d="M144.566 174.823C148.307 169.399 159.071 165.747 171.624 166.197" stroke="white" stroke-width="2.92793" stroke-linecap="round" stroke-linejoin="round"/>
<path d="M165.194 177.477L159.418 172.503" stroke="#0F1421" stroke-width="3.65991" stroke-miterlimit="10" stroke-linecap="round"/>
<path d="M173.494 177.652L179.42 172.927" stroke="#0F1421" stroke-width="3.65991" stroke-miterlimit="10" stroke-linecap="round"/>
<path d="M169.359 176.635L169.446 170.849" stroke="#0F1421" stroke-width="3.65991" stroke-miterlimit="10" stroke-linecap="round"/>
<path d="M165.153 179.991L159.232 184.716" stroke="#0F1421" stroke-width="3.65991" stroke-miterlimit="10" stroke-linecap="round"/>
<path d="M173.454 180.167L179.233 185.14" stroke="#0F1421" stroke-width="3.65991" stroke-miterlimit="10" stroke-linecap="round"/>
<path d="M169.293 181.009L169.201 186.795" stroke="#0F1421" stroke-width="3.65991" stroke-miterlimit="10" stroke-linecap="round"/>
<path d="M179.331 178.355C179.405 175.255 174.988 172.635 169.466 172.503C163.943 172.371 159.406 174.777 159.332 177.877C159.258 180.976 163.675 183.596 169.197 183.728C174.72 183.86 179.257 181.455 179.331 178.355Z" fill="#0F1421"/>
<path d="M175.797 177.26C175.983 176.072 174.099 174.79 171.589 174.396C169.079 174.003 166.893 174.647 166.707 175.835C166.52 177.023 168.404 178.305 170.914 178.699C173.424 179.092 175.61 178.448 175.797 177.26Z" fill="#1B263F"/>
<path d="M165.285 70.5742C165.285 70.5742 162.178 52.271 153.207 50.5252C148.951 49.698 150.056 63.7228 150.056 63.7228L165.285 70.5742Z" fill="#4C3532" stroke="#261F1C" stroke-width="1.46397" stroke-linecap="round" stroke-linejoin="round"/>
<path d="M128.371 68.7076C105.991 76.4923 130.245 83.5888 145.401 87.2963C154.133 89.4337 145.039 74.8965 142.835 69.8641C142.092 68.1696 128.368 68.7076 128.368 68.7076H128.371Z" fill="#4C3532" stroke="#261F1C" stroke-width="1.46397" stroke-linecap="round" stroke-linejoin="round"/>
<path d="M41.7045 142.012C41.7045 142.012 67.4337 88.2041 111.843 81.7188L134.637 104.205C134.637 104.205 113.798 113.827 106.997 149.771C106.997 149.771 67.1299 153.307 41.7082 142.016L41.7045 142.012Z" fill="#DDDCFC"/>
<path d="M134.633 104.205L133.51 103.096C101.336 110.808 74.329 138.777 65.7355 148.483C86.6336 151.572 106.994 149.767 106.994 149.767C113.794 113.827 134.633 104.201 134.633 104.201V104.205Z" fill="#8B8BD1"/>
<path d="M106.997 149.767C113.798 113.827 134.637 104.201 134.637 104.201" stroke="#191935" stroke-width="1.46397" stroke-linecap="round" stroke-linejoin="round"/>
<path d="M78.9222 95.1321C18.8118 128.254 25.9486 175.46 91.3476 198.638C90.8243 194.7 89.8397 188.233 89.9861 185.51C91.527 186.268 93.3679 186.952 95.3442 187.234C95.3442 187.234 92.6249 180.284 90.9414 173.257C95.5712 178.15 102.961 180.763 102.961 180.763C102.166 176.675 102.075 172.66 102.075 172.66C110.628 176.064 121.893 176.532 121.893 176.532C87.362 156.007 83.391 143.864 105.771 113.809" fill="#DDDCFC"/>
<path d="M89.9751 186.498C48.6364 165.059 37.9714 133.404 60.1359 107.631C21.3737 139.263 33.8138 178.245 91.3476 198.638C90.8791 195.121 90.0447 189.584 89.9751 186.498Z" fill="#9597CF"/>
<path d="M121.897 176.532C107.298 169.161 99.6666 160.359 99.6666 160.359C93.1812 157.633 86.5604 152.952 86.5604 152.952C86.7617 161.827 88.222 165.813 88.222 165.813C82.637 161.058 79.1052 151.608 79.1052 151.608C72.9016 162.09 76.2944 169.816 76.2944 169.816C72.8467 168.005 70.8411 162.431 70.8411 162.431C68.7806 170.358 67.5691 182.169 74.5339 191.245C82.2893 195.901 91.3512 198.638 91.3512 198.638C90.8279 194.7 121.901 176.532 121.901 176.532H121.897Z" fill="#57539F"/>
<path d="M121.897 176.532C87.3656 156.007 83.3946 143.864 105.775 113.809" stroke="#7481BA" stroke-width="1.46397" stroke-linecap="round" stroke-linejoin="round"/>
<path d="M121.897 176.532C111.539 170.376 103.93 164.974 98.9602 159.616" stroke="#191935" stroke-width="1.46397" stroke-linecap="round" stroke-linejoin="round"/>
<path d="M78.9222 95.1321C18.8118 128.254 24.1882 174.12 91.3476 198.638" stroke="#7481BA" stroke-width="1.46397" stroke-linecap="round" stroke-linejoin="round"/>
<path d="M57.3982 109.801C21.5567 140.757 33.6527 177.575 91.3476 198.638" stroke="#191935" stroke-width="1.46397" stroke-linecap="round" stroke-linejoin="round"/>
<path d="M124.953 89.939C111.605 90.5063 92.0393 93.3171 75.2916 93.8185C70.0725 96.5269 63.0967 98.4886 63.0967 98.4886C72.9236 100.253 82.5126 100.86 89.7409 100.9C98.2173 100.948 104.249 99.7622 113.992 100.026C123.734 100.289 136.518 104.882 136.518 104.882C137.946 104.279 139.41 103.77 140.899 103.371L130.124 88.3945L124.957 89.939H124.953Z" fill="#49488A"/>
<path d="M75.2916 93.8184C69.6699 96.6658 63.0967 98.4884 63.0967 98.4884C87.7829 102.511 103.828 100.099 103.832 100.099" stroke="#191935" stroke-width="1.46397" stroke-linecap="round" stroke-linejoin="round"/>
<path d="M75.2916 93.8186C95.5821 80.8259 121.322 77.1184 121.322 77.1184L138.663 97.215C83.6545 98.496 75.2879 93.8149 75.2879 93.8149L75.2916 93.8186Z" fill="#8588D1"/>
<path d="M75.2916 93.8186C95.5822 80.8259 121.322 77.1184 121.322 77.1184" stroke="#191935" stroke-width="1.46397" stroke-linecap="round" stroke-linejoin="round"/>
<path d="M146.726 89.1411C143.015 91.0003 138.901 89.1997 138.901 89.1997" stroke="#191935" stroke-width="1.09797" stroke-linecap="round" stroke-linejoin="round"/>
<path opacity="0.16" d="M166.899 78.8346C167.675 78.5198 174.53 79.6947 176.876 81.1586C179.222 82.6226 176.36 94.6271 175.383 95.264C174.351 95.9374 166.797 94.9748 166.145 94.6784C165.494 94.3819 164.601 79.7752 166.903 78.8346H166.899Z" fill="#DEF5FF"/>
<path d="M166.899 78.8346C167.675 78.5198 174.53 79.6947 176.876 81.1586C179.222 82.6226 176.36 94.6271 175.383 95.264C174.351 95.9374 166.797 94.9748 166.145 94.6784C165.494 94.3819 164.601 79.7752 166.903 78.8346H166.899Z" stroke="black" stroke-width="1.46397" stroke-linecap="round" stroke-linejoin="round"/>
<path d="M116.169 83.4243C116.169 83.4243 124.957 73.0265 133.598 71.4711C141.569 70.0364 150.649 73.2388 159.96 78.2163C192.347 95.5313 213.574 135.062 218.855 154.88C221.776 165.842 214.731 162.859 209.003 155.312C174.303 109.582 146.609 130.044 121.524 99.1144" fill="#8588D1"/>
<path d="M205.098 144.036L203.195 148.183C189.056 132.079 176.089 126.322 163.979 122.399C180.404 125.305 195.066 131.563 205.094 144.036H205.098Z" fill="#49488A"/>
<path d="M215.108 144.691C208.791 141.434 203.378 142.832 199.513 144.036C199.513 144.036 206.957 152.567 209.958 156.348C217.519 165.875 220.55 161.369 219.631 157.175C218.892 153.793 216.601 149.515 215.108 144.691Z" fill="#49488A"/>
<path d="M155.268 76.0896C196.786 94.8064 216.689 147.154 219.093 156.494C219.093 156.494 219.646 161.538 217.373 162.16C216.692 152.878 200.479 103.663 155.268 76.0859V76.0896Z" fill="#DCE5EA" stroke="#DCE5EA" stroke-width="1.46397" stroke-linecap="round" stroke-linejoin="round"/>
<path d="M116.169 83.4243C116.169 83.4243 124.957 73.0265 133.598 71.4711C141.569 70.0364 150.649 73.2388 159.96 78.2163C192.347 95.5313 213.574 135.062 218.855 154.88C221.776 165.842 214.731 162.859 209.003 155.312C174.303 109.582 145.017 130.081 121.081 97.6175" stroke="#191935" stroke-width="1.46397" stroke-linecap="round" stroke-linejoin="round"/>
<path d="M139.285 90.1035C140.164 85.6128 144.241 82.7215 149.046 83.8121C153.998 84.9321 154.968 89.4118 154.463 92.885C154.463 92.885 145.65 97.0098 139.289 90.1035H139.285Z" fill="white"/>
<path d="M148.223 88.1052C154.668 89.5911 153.8 98.514 146.115 96.4278C138.429 94.3417 142.455 86.773 148.223 88.1052Z" fill="#1A1A21"/>
<path d="M154.463 92.885C154.463 92.885 145.65 97.0098 139.289 90.1035L137.397 100.919L155.045 105.702L154.466 92.885H154.463Z" fill="#8588D1"/>
<path d="M154.463 92.885C154.463 92.885 145.65 97.0098 139.289 90.1035" stroke="#191935" stroke-width="1.09797" stroke-linecap="round" stroke-linejoin="round"/>
<path d="M142.129 84.793C144.219 83.4132 147.077 82.8971 149.979 84.0317C151.872 84.771 153.248 85.9129 154.155 87.2268" stroke="#191935" stroke-width="1.09797" stroke-linecap="round" stroke-linejoin="round"/>
<path opacity="0.16" d="M158.448 79.486C150.097 75.9798 141.573 79.4237 138.015 81.2427C136.928 81.799 136.185 82.8384 136.072 83.9986C135.717 87.5487 135.783 91.3148 135.918 94.0122C136.039 96.4277 137.872 98.3967 140.358 98.7664C146.748 99.718 152.161 98.082 155.407 96.6656C157.435 95.7799 158.833 93.9133 159.034 91.8089C159.909 82.7543 158.448 79.4823 158.448 79.4823V79.486Z" fill="#DEF5FF"/>
<path d="M158.448 79.486C150.097 75.9798 141.573 79.4237 138.015 81.2427C136.928 81.799 136.185 82.8384 136.072 83.9986C135.717 87.5487 135.783 91.3148 135.918 94.0122C136.039 96.4277 137.872 98.3967 140.358 98.7664C146.748 99.718 152.161 98.082 155.407 96.6656C157.435 95.7799 158.833 93.9133 159.034 91.8089C159.909 82.7543 158.448 79.4823 158.448 79.4823V79.486Z" stroke="black" stroke-width="1.46397" stroke-linecap="round" stroke-linejoin="round"/>
<path d="M153.09 77.0084C153.09 77.0084 154.379 75.0759 155.224 74.9771C156.069 74.8783 160.315 75.603 160.977 76.1886C161.64 76.7741 162.504 78.8347 162.504 78.8347" stroke="black" stroke-width="1.46397" stroke-linecap="round" stroke-linejoin="round"/>
<path d="M127.54 79.3469C127.54 79.3469 118.244 70.8852 115.529 70.7315C114.672 70.6839 110.771 73.9119 109.717 77.3632C108.604 81.0122 110.386 84.91 111.451 85.3894C113.256 86.1983 117.531 85.7005 117.531 85.7005" fill="#D2D2FB"/>
<path d="M126.113 79.4933C120.382 74.644 116.363 72.4736 116.363 72.4736" stroke="white" stroke-width="1.46397" stroke-linecap="round" stroke-linejoin="round"/>
<path d="M127.54 79.3469C127.54 79.3469 118.244 70.8852 115.529 70.7315C114.672 70.6839 110.771 73.9119 109.717 77.3632C108.604 81.0122 110.386 84.91 111.451 85.3894C113.256 86.1983 117.531 85.7005 117.531 85.7005" stroke="#49488A" stroke-width="1.46397" stroke-linecap="round" stroke-linejoin="round"/>
<path d="M120.583 76.7741C117.249 73.2825 113.713 74.999 113.713 74.999C115.155 75.7164 116.22 76.8107 116.22 76.8107C114.174 77.7074 112.893 79.6142 112.893 79.6142C112.893 79.6142 114.475 79.8448 115.463 79.8301C115.463 79.8301 115.536 81.0452 115.818 82.1249C115.818 82.1249 120.755 81.2575 122.241 80.6463C122.241 80.6463 121.996 78.2527 120.587 76.7778L120.583 76.7741Z" fill="#6A6DB8"/>
<path d="M123.017 81.4845C123.017 81.4845 121.128 74.333 114.065 71.5149" stroke="#49488A" stroke-width="1.46397" stroke-linecap="round" stroke-linejoin="round"/>
<path d="M145.101 89.3827C144.987 88.6508 148.069 88.3031 148.226 89.1119C148.384 89.9208 145.229 90.2099 145.101 89.3827Z" fill="white"/>
<path d="M212.063 152.75C212.802 154.903 214.145 156.033 215.086 157.036C215.62 157.604 214.804 158.467 214.032 157.56C212.359 155.591 212.063 152.75 212.063 152.75Z" fill="black" stroke="black" stroke-width="1.46397" stroke-linecap="round" stroke-linejoin="round"/>
<path d="M139.351 106.434C147.187 112.894 151.996 114.658 157.533 120.093" stroke="#191935" stroke-width="1.46397" stroke-linecap="round" stroke-linejoin="round"/>
<path opacity="0.15" d="M162.632 69.4505C163.171 69.4505 163.609 69.013 163.609 68.4733C163.609 67.9336 163.171 67.4961 162.632 67.4961C162.092 67.4961 161.655 67.9336 161.655 68.4733C161.655 69.013 162.092 69.4505 162.632 69.4505Z" fill="#261F1C"/>
<path opacity="0.15" d="M163.287 63.4046C163.827 63.4046 164.264 62.9671 164.264 62.4274C164.264 61.8877 163.827 61.4502 163.287 61.4502C162.747 61.4502 162.31 61.8877 162.31 62.4274C162.31 62.9671 162.747 63.4046 163.287 63.4046Z" fill="#261F1C"/>
<path d="M134.791 72.9751C149.72 77.8757 161.702 87.9698 171.653 86.5936C182.256 85.126 168.147 75.4821 168.147 75.4821C158.397 78.7321 134.791 72.9751 134.791 72.9751Z" fill="#7F4932"/>
<path d="M171.668 78.2673C166.222 81.3343 157.735 81.2392 152.311 80.7671" stroke="#A86547" stroke-width="1.46397" stroke-linecap="round" stroke-linejoin="round"/>
<path d="M174.021 80.906C169.82 84.1523 163.66 84.4012 159.484 84.1011" stroke="#A86547" stroke-width="1.46397" stroke-linecap="round" stroke-linejoin="round"/>
<path opacity="0.4" d="M162.807 76.6423C169.922 80.9647 175.141 85.1846 175.141 85.1846" stroke="#47291E" stroke-width="1.46397" stroke-linecap="round" stroke-linejoin="round"/>
<path d="M134.791 72.9751C149.72 77.8757 161.702 87.9698 171.653 86.5936C182.256 85.126 168.147 75.4821 168.147 75.4821C158.397 78.7321 134.791 72.9751 134.791 72.9751Z" stroke="#261F1C" stroke-width="1.46397" stroke-linecap="round" stroke-linejoin="round"/>
<path d="M168.147 75.4857C166.833 61.212 158.276 52.8784 148.988 52.0293C141.075 51.3046 132.672 55.788 127.284 69.0881C127.284 69.0881 132.061 73.2934 147.593 76.1042C159.89 78.3294 166.237 75.8773 168.151 75.482L168.147 75.4857Z" fill="#7F4932"/>
<path d="M153.947 50.8802C151.498 48.7721 147.988 50.7558 147.988 50.7558" stroke="#261F1C" stroke-width="1.46397" stroke-linecap="round" stroke-linejoin="round"/>
<path d="M151.304 49.9398C163.583 47.6706 156.333 40.3801 151.279 48.8382" stroke="#261F1C" stroke-width="1.46397" stroke-linecap="round" stroke-linejoin="round"/>
<path d="M167.177 69.8056C158.588 74.1975 145.262 71.4014 136.174 68.5466" stroke="#A86547" stroke-width="1.46397" stroke-linecap="round" stroke-linejoin="round"/>
<path d="M166.061 66.3213C158.394 70.4461 145.331 67.8878 136.116 65.1831" stroke="#A86547" stroke-width="1.46397" stroke-linecap="round" stroke-linejoin="round"/>
<path d="M160.988 58.3794C154.104 61.3732 139.896 58.6685 139.896 58.6685" stroke="#A86547" stroke-width="1.46397" stroke-linecap="round" stroke-linejoin="round"/>
<path d="M157.947 55.8831C151.696 58.0315 141.247 55.2024 141.247 55.2024" stroke="#A86547" stroke-width="1.46397" stroke-linecap="round" stroke-linejoin="round"/>
<path opacity="0.4" d="M146.733 52.4248C159.594 57.7866 161.457 66.1531 162.807 76.6425" stroke="#47291E" stroke-width="1.46397" stroke-linecap="round" stroke-linejoin="round"/>
<path opacity="0.4" d="M145.822 53.3066C150.43 57.6876 147.589 76.1042 147.589 76.1042" stroke="#47291E" stroke-width="1.46397" stroke-linecap="round" stroke-linejoin="round"/>
<path d="M168.147 75.4857C166.833 61.212 158.276 52.8784 148.988 52.0293C141.075 51.3046 132.672 55.788 127.284 69.0881C127.284 69.0881 132.061 73.2934 147.593 76.1042C159.89 78.3294 166.237 75.8773 168.151 75.482L168.147 75.4857Z" stroke="#261F1C" stroke-width="1.46397" stroke-linecap="round" stroke-linejoin="round"/>
<path d="M151.187 49.2809C147.106 40.4568 137.492 45.3208 149.672 49.0686" stroke="#261F1C" stroke-width="1.46397" stroke-linecap="round" stroke-linejoin="round"/>
<path d="M151.26 49.321C159.298 49.5772 162.932 53.5629 162.932 53.5629" stroke="#261F1C" stroke-width="1.46397" stroke-linecap="round" stroke-linejoin="round"/>
<path d="M149.848 49.5481C145.405 47.0191 138.564 49.4164 138.564 49.4164" stroke="#261F1C" stroke-width="1.46397" stroke-linecap="round" stroke-linejoin="round"/>
<path d="M115.078 209.084C111.697 211.613 108.498 212.07 105.804 211.433C100.486 210.174 97.1303 204.655 98.1953 202.375C99.1871 200.245 104.091 199.531 108.535 200.373" fill="#DDDCFC"/>
<path d="M115.078 209.084C111.697 211.613 108.498 212.07 105.804 211.433C100.486 210.174 97.1303 204.655 98.1953 202.375C99.1871 200.245 104.091 199.531 108.535 200.373" stroke="#7481BA" stroke-width="1.46397" stroke-linecap="round" stroke-linejoin="round"/>
<path d="M98.1953 202.379C97.1339 204.659 100.486 210.174 105.801 211.433H105.804C104.282 206.375 108.531 200.373 108.531 200.373C104.088 199.531 99.1834 200.245 98.1916 202.375L98.1953 202.379Z" fill="#3F3E77"/>
<path d="M108.535 200.373C104.091 199.531 99.1871 200.245 98.1953 202.375C97.1339 204.655 100.486 210.171 105.801 211.43H105.804" stroke="#191935" stroke-width="1.46397" stroke-linecap="round" stroke-linejoin="round"/>
<path opacity="0.8" d="M168.55 189.851C152.962 189.294 140.178 182.41 137.404 173.751C137.053 174.797 136.851 175.877 136.811 176.986C136.562 183.929 142.729 190.228 152.142 193.891C157.076 195.538 162.683 196.57 168.656 196.783C175.405 197.024 181.769 196.19 187.274 194.539C196.018 191.424 201.884 185.861 202.119 179.325C202.177 177.681 201.877 176.075 201.258 174.53C198.909 183.746 185.041 190.44 168.553 189.847L168.55 189.851Z" fill="#D4EBFF"/>
<path d="M201.983 175.266C201.983 175.295 201.983 175.325 201.983 175.35C201.603 185.96 186.802 194.045 168.919 193.405C151.041 192.764 136.851 183.644 137.232 173.033C137.184 174.406 136.994 179.658 136.946 181.03C136.566 191.64 150.755 200.761 168.634 201.401C186.516 202.042 201.317 193.957 201.698 183.347C201.745 181.975 201.936 176.719 201.983 175.35C201.983 175.321 201.983 175.295 201.983 175.266Z" fill="#FFD366"/>
<path d="M201.983 175.35C201.983 175.325 201.983 175.295 201.983 175.266C201.983 175.295 201.983 175.321 201.983 175.35ZM201.983 175.35C201.603 185.96 186.802 194.045 168.919 193.405C151.041 192.764 136.851 183.644 137.232 173.033C137.184 174.406 136.994 179.658 136.946 181.03C136.566 191.64 150.755 200.761 168.634 201.401C186.516 202.042 201.317 193.957 201.698 183.347C201.745 181.975 201.936 176.719 201.983 175.35Z" stroke="#996614" stroke-width="1.46397" stroke-linecap="round" stroke-linejoin="round"/>
<path d="M137.624 184.112C130.099 188.226 121.868 190.908 113.347 192.021C114.266 194.663 115.181 197.31 116.1 199.952C123.478 195.549 131.599 192.559 140.057 191.124C141.51 190.93 142.067 189.012 141.287 186.769C140.508 184.525 138.883 183.365 137.624 184.112Z" fill="#FFD366" stroke="#996614" stroke-width="1.46397" stroke-linecap="round" stroke-linejoin="round"/>
<path d="M130.501 183.691L89.0674 197.332L92.7347 209.534L134.169 195.893C136.266 195.202 137.064 191.915 135.955 188.544C134.846 185.177 132.247 183.007 130.501 183.691Z" fill="#603526" stroke="#201C18" stroke-width="1.46397" stroke-linecap="round" stroke-linejoin="round"/>
<path d="M92.732 209.54C94.8267 208.85 95.6262 205.561 94.5176 202.194C93.4091 198.826 90.8124 196.655 88.7177 197.345C86.623 198.034 85.8236 201.323 86.9321 204.691C88.0406 208.058 90.6373 210.229 92.732 209.54Z" fill="#603526" stroke="#201C18" stroke-width="1.46397" stroke-linecap="round" stroke-linejoin="round"/>
<path d="M91.4918 206.195C92.2521 205.945 92.4627 204.509 91.9621 202.988C91.4616 201.468 90.4395 200.438 89.6791 200.688C88.9188 200.938 88.7083 202.374 89.2088 203.895C89.7093 205.415 90.7315 206.445 91.4918 206.195Z" fill="#FFD366" stroke="#996614" stroke-width="1.46397" stroke-linecap="round" stroke-linejoin="round"/>
<path d="M115.078 209.084C124.576 210.101 127.057 204.267 127.057 204.267C131.867 203.718 134.981 198.484 133.312 191.823C131.819 185.861 126.647 180.646 120.217 177.513C119.734 177.279 119.211 177.03 118.654 176.778C115.232 176.679 112.399 176.704 107.136 174.205C107.136 174.205 106.262 175.255 106.694 178.926C106.694 178.926 101.529 178.348 99.1761 178.245C99.5165 182.575 98.2319 186.828 98.2319 186.828C98.2319 186.828 94.905 185.733 91.6953 184.899C91.6953 184.899 91.1243 190.447 91.2415 193.613C96.918 200.029 106.009 200.219 106.009 200.219C106.009 200.219 105.61 203.187 107.601 205.603" fill="#DDDCFC"/>
<path d="M91.2415 193.61C96.918 200.025 106.009 200.216 106.009 200.216C106.009 200.216 105.61 203.184 107.601 205.599" stroke="#7481BA" stroke-width="1.46397" stroke-linecap="round" stroke-linejoin="round"/>
<path d="M115.078 209.084C124.576 210.101 127.057 204.267 127.057 204.267C131.866 203.718 134.981 198.485 133.312 191.823C131.819 185.861 126.647 180.646 120.217 177.513C119.734 177.279 119.211 177.03 118.654 176.778" stroke="#7481BA" stroke-width="1.46397" stroke-linecap="round" stroke-linejoin="round"/>
<path d="M114.387 194.561C118.339 198.938 119.877 205.804 115.082 209.084" stroke="#7481BA" stroke-width="1.46397" stroke-linecap="round" stroke-linejoin="round"/>
<path d="M127.057 204.267C129.714 197.475 127.131 193.621 123.943 190.396" stroke="#7481BA" stroke-width="1.46397" stroke-linecap="round" stroke-linejoin="round"/>
<path d="M87.8594 207.938C89.5777 207.372 90.4856 205.44 89.8871 203.621C89.2886 201.803 87.4104 200.788 85.692 201.354C83.9736 201.919 83.0658 203.852 83.6643 205.67C84.2628 207.488 86.141 208.503 87.8594 207.938Z" fill="#FFD366" stroke="#996614" stroke-width="1.46397" stroke-linecap="round" stroke-linejoin="round"/>
<path d="M85.3195 207.156C85.8244 206.99 85.9638 206.035 85.6307 205.023C85.2976 204.011 84.6183 203.326 84.1133 203.492C83.6084 203.658 83.469 204.613 83.8021 205.625C84.1352 206.637 84.8145 207.322 85.3195 207.156Z" fill="#FFD366" stroke="#996614" stroke-width="1.46397" stroke-linecap="round" stroke-linejoin="round"/>
<path d="M140.808 74.7612C138.63 63.7814 151.981 52.9957 147.988 50.7558C143.995 48.5159 122.31 57.34 127.281 69.0883C127.281 69.0883 127.753 72.8726 140.808 74.7612Z" fill="#7F4932"/>
<path d="M142.484 64.3891C133.565 63.4558 128.06 60.6084 128.06 60.6084" stroke="#A86547" stroke-width="1.46397" stroke-linecap="round" stroke-linejoin="round"/>
<path d="M144.087 61.2085C135.574 60.3192 130.509 57.6182 130.509 57.6182" stroke="#A86547" stroke-width="1.46397" stroke-linecap="round" stroke-linejoin="round"/>
<path opacity="0.4" d="M147.988 50.7559C133.528 56.0115 129.905 66.2739 132.741 72.924" stroke="#47291E" stroke-width="1.46397" stroke-linecap="round" stroke-linejoin="round"/>
<path d="M140.808 74.7612C138.63 63.7814 151.981 52.9957 147.988 50.7558C143.995 48.5159 122.31 57.34 127.281 69.0883C127.281 69.0883 127.753 72.8726 140.808 74.7612Z" stroke="#261F1C" stroke-width="1.46397" stroke-linecap="round" stroke-linejoin="round"/>
<path d="M38.4143 151.726C37.287 163.225 41.6167 170.38 41.6167 170.38C41.6167 170.38 42.3963 162.713 44.4531 157.457" fill="#9597CF"/>
<path d="M38.4143 151.726C37.287 163.225 41.6167 170.38 41.6167 170.38C41.6167 170.38 42.3963 162.713 44.4531 157.457" stroke="#191935" stroke-width="1.46397" stroke-linecap="round" stroke-linejoin="round"/>
<path d="M38.5643 142.217C35.0837 151.363 36.9759 158.811 36.9759 158.811C36.9759 158.811 38.2935 155.649 40.182 152.472" fill="#9597CF"/>
<path d="M38.5643 142.217C35.0837 151.363 36.9759 158.811 36.9759 158.811C36.9759 158.811 38.2935 155.649 40.182 152.472" stroke="#191935" stroke-width="1.46397" stroke-linecap="round" stroke-linejoin="round"/>
</svg>
