<svg width="256" height="256" viewBox="0 0 256 256" fill="none" xmlns="http://www.w3.org/2000/svg">
<path d="M195.614 162.005C199.46 172.005 202.098 172.958 208.728 175.705C217.519 179.735 229.498 165.742 224.113 157.61C219.278 150.32 210.889 146.401 210.889 146.401C200.816 141.529 189.497 151.565 195.614 162.005Z" fill="#DDDCFC"/>
<path d="M224.076 157.646C219.241 150.357 210.853 146.437 210.853 146.437L224.076 157.646Z" fill="#DDDCFC"/>
<path d="M224.077 158.379C223.857 158.379 223.6 158.269 223.454 158.049C218.765 151.016 210.596 147.133 210.523 147.097C210.157 146.913 210.01 146.474 210.157 146.108C210.34 145.741 210.78 145.595 211.146 145.741C211.512 145.888 219.754 149.844 224.663 157.207C224.882 157.536 224.809 158.013 224.443 158.232C224.333 158.306 224.186 158.342 224.04 158.342L224.077 158.379Z" fill="#7481BA"/>
<path d="M195.614 162.005C199.461 172.005 202.098 172.958 208.728 175.705L195.614 162.005Z" fill="#DDDCFC"/>
<path d="M208.728 176.474C208.618 176.474 208.545 176.474 208.435 176.401L208.179 176.291C201.549 173.544 198.838 172.408 194.918 162.262C194.772 161.895 194.955 161.456 195.321 161.309C195.688 161.163 196.127 161.346 196.274 161.712C199.973 171.273 202.354 172.262 208.728 174.899L208.985 175.009C209.351 175.156 209.534 175.595 209.387 175.961C209.278 176.254 208.985 176.401 208.728 176.401V176.474Z" fill="#7481BA"/>
<path d="M209.314 175.815C209.571 177.72 210.083 178.819 210.083 178.819C208.105 184.607 212.611 186.841 216.311 182.482C216.311 182.482 217.813 180.467 218.289 179.478C219.351 177.207 216.677 171.529 216.677 171.529" fill="#DDDCFC"/>
<path d="M212.354 185.486C211.768 185.486 211.182 185.339 210.669 185.046C209.277 184.24 208.215 182.226 209.314 178.819C209.131 178.379 208.801 177.354 208.618 175.925C208.545 175.522 208.838 175.156 209.241 175.083C209.644 175.009 210.01 175.302 210.083 175.705C210.34 177.464 210.779 178.489 210.779 178.489C210.853 178.672 210.853 178.855 210.779 179.039C210.01 181.273 210.266 183.141 211.402 183.764C212.354 184.314 214.076 183.984 215.725 182.006C216.128 181.456 217.263 179.918 217.629 179.149C218.289 177.72 217.007 173.91 216.018 171.822C215.834 171.456 216.018 171.016 216.347 170.833C216.714 170.65 217.153 170.833 217.336 171.163C217.629 171.786 220.157 177.207 218.948 179.735C218.435 180.797 216.933 182.775 216.897 182.848C215.505 184.497 213.856 185.376 212.391 185.376L212.354 185.486Z" fill="#7481BA"/>
<path d="M209.021 185.852C207.922 185.119 208.911 182.372 210.083 178.782C214.076 179.588 216.311 182.445 216.311 182.445C214.186 185.119 210.047 186.548 209.021 185.815V185.852Z" fill="#3F3E77"/>
<path d="M210.12 186.878C209.461 186.878 208.948 186.731 208.545 186.402C206.714 184.863 208.142 181.493 209.424 178.489C209.571 178.123 210.01 177.94 210.377 178.086C210.743 178.233 210.926 178.672 210.78 179.039C209.827 181.31 208.508 184.387 209.498 185.229C209.571 185.303 209.864 185.413 210.413 185.339C211.769 185.193 213.856 184.24 215.761 181.933C216.018 181.603 216.494 181.566 216.787 181.823C217.08 182.079 217.153 182.555 216.897 182.848C214.736 185.486 212.208 186.621 210.56 186.768C210.413 186.768 210.267 186.768 210.12 186.768V186.878Z" fill="#191935"/>
<path d="M213.6 170.101C214.186 173.727 216.604 178.416 216.604 178.416C217.703 184.68 222.941 184.46 224.113 178.636C224.113 178.636 224.479 176.035 224.406 174.899C224.26 172.299 221 167.097 221 167.097" fill="#DDDCFC"/>
<path d="M220.304 183.764C220.304 183.764 220.304 183.764 220.267 183.764C218.582 183.764 216.567 182.372 215.871 178.636C215.505 177.903 213.417 173.654 212.867 170.211C212.794 169.808 213.087 169.441 213.49 169.368C213.893 169.295 214.259 169.588 214.333 169.991C214.882 173.471 217.226 178.013 217.263 178.086C217.263 178.16 217.336 178.233 217.336 178.306C217.776 180.724 218.912 182.335 220.304 182.335C221.476 182.335 222.868 181.163 223.381 178.526C223.49 177.793 223.747 175.852 223.673 174.973C223.564 172.995 221.256 168.929 220.377 167.537C220.157 167.207 220.267 166.731 220.597 166.511C220.926 166.291 221.402 166.401 221.622 166.731C221.769 166.951 224.956 172.116 225.139 174.863C225.212 176.072 224.846 178.636 224.809 178.746C224.809 178.746 224.809 178.746 224.809 178.782C224.186 181.823 222.428 183.801 220.304 183.801V183.764Z" fill="#7481BA"/>
<path d="M219.168 185.376C217.813 185.229 217.336 182.262 216.604 178.416C220.633 177.134 224.113 178.636 224.113 178.636C223.527 182.152 220.45 185.486 219.168 185.376Z" fill="#3F3E77"/>
<path d="M219.351 186.109C219.241 186.109 219.131 186.109 219.022 186.109C216.604 185.632 216.201 181.859 215.871 178.489C215.835 178.086 216.128 177.72 216.531 177.684C216.933 177.647 217.3 177.94 217.336 178.343C217.593 180.907 217.959 184.387 219.315 184.68C219.424 184.68 219.754 184.68 220.23 184.314C221.402 183.508 222.831 181.566 223.417 178.526C223.491 178.123 223.857 177.867 224.26 177.94C224.663 178.013 224.919 178.379 224.846 178.782C224.186 182.299 222.465 184.57 221.073 185.522C220.487 185.925 219.901 186.145 219.388 186.145L219.351 186.109Z" fill="#191935"/>
<path d="M217.52 162.738C218.472 165.852 221.292 170.028 221.292 170.028C223.527 175.998 228.655 174.753 228.729 168.855C228.729 168.855 228.619 166.254 228.326 165.119C227.666 162.591 224.076 157.646 224.076 157.646" fill="#DDDCFC"/>
<path d="M225.358 174.68C223.783 174.68 221.879 173.581 220.633 170.394C220.23 169.808 217.739 165.962 216.787 162.994C216.677 162.591 216.897 162.189 217.263 162.079C217.666 161.969 218.069 162.188 218.179 162.555C219.095 165.522 221.842 169.625 221.879 169.661C221.879 169.698 221.952 169.771 221.952 169.808C222.831 172.116 224.26 173.471 225.615 173.214C226.75 173.031 227.886 171.603 227.923 168.892C227.923 168.159 227.776 166.181 227.556 165.339C226.934 162.958 223.49 158.159 223.454 158.123C223.234 157.793 223.271 157.353 223.6 157.097C223.93 156.84 224.369 156.914 224.626 157.243C224.772 157.463 228.289 162.335 228.985 164.972C229.278 166.145 229.388 168.745 229.425 168.855C229.425 168.855 229.425 168.855 229.425 168.892C229.425 172.006 227.996 174.277 225.908 174.68C225.725 174.68 225.542 174.716 225.358 174.716V174.68Z" fill="#7481BA"/>
<path d="M225.139 176.401C223.783 176.548 222.758 173.654 221.329 170.028C225.029 168.013 228.765 168.855 228.765 168.855C228.875 172.409 226.457 176.291 225.175 176.401H225.139Z" fill="#3F3E77"/>
<path d="M225.139 177.134C222.648 177.134 221.585 173.471 220.596 170.247C220.487 169.844 220.706 169.441 221.073 169.331C221.476 169.221 221.878 169.441 221.988 169.808C222.721 172.262 223.71 175.632 225.102 175.632C225.212 175.632 225.505 175.522 225.945 175.119C226.934 174.13 227.996 171.932 227.959 168.819C227.959 168.416 228.289 168.086 228.692 168.086C229.095 168.086 229.425 168.416 229.425 168.819C229.425 172.372 228.179 174.936 226.97 176.145C226.347 176.767 225.688 177.097 225.102 177.097L225.139 177.134Z" fill="#191935"/>
<path d="M214.552 160.101C219.754 167.171 207.519 174.204 202.464 167.72C196.787 160.394 210.303 154.35 214.552 160.101Z" fill="#F7F5FE"/>
<path d="M214.882 152.921C214.882 152.921 218.399 156.584 219.388 159.038C221.109 163.251 221.219 167.573 220.413 168.562C219.608 169.551 212.941 167.39 211.256 161.089C211.256 161.089 209.351 159.698 208.801 157.39" fill="#DDDCFC"/>
<path d="M219.498 169.661C219.205 169.661 218.912 169.661 218.582 169.551C216.164 169.038 212.062 166.474 210.67 161.566C210.12 161.09 208.655 159.698 208.179 157.61C208.069 157.207 208.325 156.804 208.728 156.731C209.131 156.621 209.534 156.877 209.607 157.28C210.083 159.258 211.768 160.54 211.768 160.577C211.915 160.687 211.988 160.833 212.025 160.98C213.124 165.192 216.494 167.354 218.289 167.976C219.241 168.306 219.791 168.233 219.901 168.159C220.377 167.573 220.45 163.617 218.728 159.368C217.776 157.06 214.406 153.507 214.369 153.47C214.076 153.177 214.113 152.701 214.369 152.445C214.662 152.152 215.138 152.188 215.395 152.445C215.541 152.591 219.021 156.254 220.047 158.819C221.659 162.775 222.098 167.683 221 169.075C220.67 169.478 220.157 169.698 219.461 169.698L219.498 169.661Z" fill="#7481BA"/>
<path d="M220.194 161.346C216.824 161.126 214.003 163.177 212.721 164.313C215.248 168.196 219.608 169.625 220.45 168.562C221.073 167.756 221.109 164.716 220.194 161.346Z" fill="#3F3E77"/>
<path d="M219.498 169.661C219.424 169.661 219.388 169.661 219.315 169.661C217.3 169.551 214.076 167.793 212.098 164.716C211.878 164.386 211.988 163.91 212.318 163.69C212.648 163.471 213.124 163.58 213.344 163.91C214.956 166.401 217.446 167.866 219.022 168.123C219.571 168.233 219.827 168.123 219.901 168.123C220.267 167.683 220.45 165.009 219.498 161.566C219.388 161.163 219.608 160.76 220.01 160.65C220.413 160.54 220.816 160.76 220.926 161.163C221.879 164.569 221.915 167.976 221.073 169.038C220.853 169.331 220.413 169.661 219.534 169.661H219.498Z" fill="#191935"/>
<path d="M210.853 146.437C210.853 146.437 176.346 106.693 157.335 60.1353L119.129 94.7147C119.129 94.7147 137.188 148.196 195.578 162.042" fill="#DDDCFC"/>
<path d="M195.614 162.738C195.541 162.738 195.504 162.738 195.431 162.738C182.024 159.551 169.643 154.02 158.617 146.291C149.789 140.1 141.804 132.481 134.917 123.653C123.159 108.634 118.507 95.1174 118.47 94.9709C118.36 94.6779 118.47 94.385 118.69 94.2018L156.896 59.6222C157.079 59.4757 157.335 59.4024 157.555 59.439C157.775 59.4757 157.994 59.6589 158.068 59.8787C176.823 105.777 211.109 145.595 211.439 145.961C211.695 146.254 211.659 146.73 211.366 146.987C211.073 147.243 210.596 147.207 210.34 146.914C210.01 146.511 176.017 107.096 157.115 61.3806L120.045 94.9344C120.961 97.3887 125.723 109.477 136.126 122.774C142.939 131.492 150.815 139.001 159.496 145.082C170.376 152.701 182.574 158.159 195.797 161.309C196.2 161.419 196.42 161.786 196.347 162.188C196.274 162.518 195.981 162.738 195.651 162.738H195.614Z" fill="#7481BA"/>
<path d="M164.148 240.725C164.148 240.725 219.827 206.329 191.878 167.573L140.412 182.116C140.412 182.116 114.623 219.845 132.243 240.798" fill="#333476"/>
<path d="M132.206 241.531C131.987 241.531 131.804 241.458 131.657 241.274C124.258 232.483 123.342 219.369 128.983 203.362C133.195 191.347 139.679 181.786 139.752 181.713C139.862 181.566 140.009 181.456 140.155 181.42L191.622 166.877C191.915 166.804 192.244 166.877 192.427 167.17C199.314 176.731 201.768 186.878 199.717 197.318C197.116 210.468 187.666 221.75 180.193 228.893C172.134 236.622 164.588 241.311 164.515 241.348C164.185 241.567 163.709 241.458 163.489 241.091C163.269 240.762 163.379 240.285 163.745 240.066C164.038 239.882 193.417 221.494 198.288 196.988C200.266 187.097 197.995 177.5 191.548 168.379L140.815 182.702C139.826 184.167 134.148 192.995 130.338 203.838C126.529 214.644 123.855 229.736 132.756 240.285C133.012 240.578 132.976 241.055 132.683 241.311C132.536 241.421 132.39 241.494 132.206 241.494V241.531Z" fill="#191935"/>
<path d="M41.0322 189.222C-1.53278 156.657 0.298903 86.7658 39.5305 76.326C78.7621 65.8496 91.9126 153.287 120.118 163.178L119.569 209.259C109.788 165.046 89.385 155.009 81.8391 157.463C81.8391 157.463 80.85 165.156 85.6487 182.739C85.6487 182.739 77.6997 181.237 70.3369 171.236C70.3369 171.236 68.8351 176.072 69.348 179.771C69.348 179.771 57.0033 181.53 43.633 179.478C43.633 179.478 41.5086 184.167 40.9957 189.222H41.0322Z" fill="#6D6FBF"/>
<path d="M85.6854 115.338C75.6119 103.03 66.6373 76.9122 47.1497 76.3627C38.688 76.1063 19.8964 80.4287 11.6178 107.829C19.8964 80.4653 38.5782 78.0476 47.0399 78.3041C66.5275 78.8901 75.5753 103.067 85.6854 115.375V115.338Z" fill="#DCE5EA"/>
<path d="M85.6853 116.07C85.4655 116.07 85.2457 115.997 85.1358 115.814C82.5717 112.664 80.0808 108.818 77.4434 104.715C69.8242 92.8465 61.2159 79.4398 47.0398 79.0002C37.4425 78.7072 20.1893 82.1137 12.3503 107.975C12.2405 108.378 11.8375 108.598 11.4346 108.451C11.1049 108.341 10.9218 108.048 10.9218 107.755C10.9218 107.682 10.9218 107.609 10.9218 107.536C20.3725 76.3994 42.754 75.4835 47.1863 75.5934C61.8386 76.033 70.5567 90.2824 78.2492 102.847C80.9965 107.352 83.5972 111.602 86.2713 114.862C86.3812 115.008 86.4544 115.155 86.4544 115.338C86.4544 115.521 86.3813 115.777 86.1981 115.887C86.0516 115.997 85.905 116.07 85.7218 116.07H85.6853ZM45.9774 77.4983C46.3437 77.4983 46.71 77.4983 47.0763 77.4983C51.3987 77.6082 55.2083 78.8537 58.615 80.8317C55.2083 78.5606 51.4354 77.1685 47.1496 77.022C45.7577 76.9854 42.3877 77.022 38.2484 78.3041C41.069 77.6814 43.7063 77.4616 46.014 77.4616L45.9774 77.4983Z" fill="#DCE5EA"/>
<path d="M99.6051 141.419C97.8834 147.976 92.6817 151.272 92.6817 151.272C92.9748 147.28 91.5828 143.617 91.5828 143.617C80.0807 154.24 63.3406 147.939 63.3406 147.939C66.6373 152.115 70.4469 157.646 70.4469 157.646C70.4469 157.646 57.8458 158.562 38.6879 146.254C38.6879 146.254 41.6185 158.599 52.3513 166.841C52.3513 166.841 23.4129 164.569 9.78625 129.587C11.1416 151.089 21.3249 174.167 41.0689 189.259C41.5451 184.204 43.7064 179.515 43.7064 179.515C57.1133 181.566 69.4211 179.808 69.4211 179.808C68.9083 176.145 70.4102 171.273 70.4102 171.273C77.8097 181.273 85.7219 182.775 85.7219 182.775C80.9232 165.156 81.9123 157.5 81.9123 157.5C109.056 158.892 99.0555 188.599 119.642 209.296L120.191 163.214C113.561 160.87 105.539 152.335 99.6782 141.455L99.6051 141.419Z" fill="#49488A"/>
<path d="M119.605 209.992C119.422 209.992 119.239 209.918 119.129 209.808C111.107 202.556 107.847 192.043 104.99 182.812C100.96 169.771 97.4437 158.489 82.6083 158.196C82.4984 160.357 82.535 168.123 86.4545 182.555C86.5277 182.812 86.4545 183.068 86.2713 183.251C86.0882 183.434 85.8318 183.508 85.6121 183.471C85.2824 183.398 77.9562 181.932 70.7399 172.885C70.337 174.533 69.8241 177.39 70.1538 179.698C70.227 180.101 69.9341 180.467 69.5312 180.54C69.4213 180.54 57.2964 182.262 44.1459 180.357C43.5964 181.676 42.1679 185.449 41.8016 189.368C41.8016 189.625 41.6185 189.881 41.3621 189.955C41.1057 190.065 40.8493 190.028 40.6295 189.881C28.4314 180.54 19.1638 167.646 13.8157 152.591C8.90713 138.781 7.66161 123.946 10.2624 110.795C13.8888 92.4434 24.5118 79.6593 39.4206 75.6665C49.9336 72.8459 59.5309 76.6554 68.7985 87.2784C76.8573 96.546 83.7072 109.806 90.3374 122.591C99.898 141.053 108.909 158.452 120.448 162.518C120.741 162.628 120.924 162.921 120.924 163.214L120.375 209.296C120.375 209.589 120.192 209.845 119.935 209.955C119.825 209.992 119.752 210.028 119.642 210.028L119.605 209.992ZM81.9856 156.73C98.3962 156.73 102.279 169.185 106.382 182.372C109.166 191.383 112.059 200.651 118.909 207.574L119.422 163.69C107.59 159.148 98.5427 141.712 89.0186 123.25C75.7583 97.6083 62.0218 71.1242 39.7869 77.0584C25.4642 80.868 15.2077 93.2493 11.6911 111.052C9.12698 123.946 10.3723 138.525 15.2076 152.078C20.2992 166.474 29.054 178.819 40.5195 187.903C41.1788 183.324 42.9737 179.405 43.047 179.222C43.1935 178.929 43.4866 178.746 43.8163 178.819C55.1352 180.541 65.8314 179.515 68.6154 179.185C68.3223 175.522 69.6411 171.273 69.7143 171.09C69.7876 170.833 70.0074 170.65 70.3004 170.577C70.5569 170.54 70.8499 170.65 70.9964 170.87C76.4544 178.233 82.242 180.907 84.6963 181.749C80.3006 165.082 81.1431 157.756 81.1797 157.426C81.2163 157.06 81.546 156.804 81.9123 156.804H82.0223L81.9856 156.73Z" fill="#191935"/>
<path d="M132.206 240.798C132.206 240.798 133.012 246.915 137.408 249.956C141.84 252.996 158.983 252.776 163.269 252.337L172.024 244.791L172.39 240.761C161.071 240.652 132.206 240.761 132.206 240.761V240.798Z" fill="#333476"/>
<path d="M156.09 253.326C149.35 253.326 140.265 252.813 137.005 250.579C132.39 247.392 131.511 241.201 131.474 240.908C131.437 240.505 131.694 240.139 132.097 240.102C132.499 240.066 132.866 240.322 132.902 240.725C132.902 240.835 133.745 246.549 137.811 249.37C141.767 252.081 157.738 252.154 162.94 251.641L171.292 244.461L171.548 241.531C169.57 241.531 167.079 241.531 164.075 241.531C163.672 241.531 163.343 241.201 163.343 240.798C163.343 240.395 163.672 240.066 164.075 240.066C167.482 240.066 170.266 240.066 172.354 240.102C172.574 240.102 172.757 240.176 172.903 240.359C173.05 240.542 173.123 240.725 173.086 240.908L172.72 244.938C172.72 245.121 172.61 245.304 172.464 245.414L163.709 252.96C163.599 253.07 163.453 253.106 163.306 253.143C162.134 253.253 159.387 253.399 156.017 253.399L156.09 253.326Z" fill="#191935"/>
<path d="M171.218 240.761C171.218 240.761 175.614 240.212 177.738 241.238C179.863 242.263 184.076 251.018 183.196 251.934C182.317 252.813 176.64 251.531 171.218 249.15" fill="#333476"/>
<path d="M175.65 250.835C179.387 252.081 182.537 252.557 183.196 251.934C183.746 251.385 182.281 247.721 180.596 244.828C177.885 246.183 176.31 249.333 175.65 250.835Z" fill="#232355"/>
<path d="M181.951 252.923C179.167 252.923 174.149 251.201 170.925 249.809C170.559 249.663 170.376 249.223 170.559 248.857C170.705 248.491 171.145 248.307 171.511 248.491C177.226 250.982 181.622 251.714 182.574 251.458C182.574 249.956 179.131 242.74 177.409 241.934C175.834 241.165 172.464 241.384 171.292 241.531C170.889 241.567 170.522 241.311 170.486 240.908C170.449 240.505 170.705 240.139 171.108 240.102C171.292 240.102 175.76 239.553 178.032 240.652C180.193 241.677 183.526 248.527 183.966 250.982C184.039 251.458 184.112 252.117 183.709 252.52C183.38 252.85 182.757 252.996 181.951 252.996V252.923Z" fill="#0C0C1C"/>
<path d="M169.533 242.447C169.533 242.447 173.27 242.666 174.442 243.472C175.614 244.278 182.574 252.813 180.926 254.901C179.277 256.989 164.112 248.674 164.112 248.674" fill="#333476"/>
<path d="M180.925 254.901C182.024 253.509 179.314 249.297 177.043 246.403C175.76 247.062 172.83 248.967 172.647 252.923C176.42 254.608 180.156 255.89 180.925 254.901Z" fill="#232355"/>
<path d="M179.936 255.963C178.581 255.963 176.163 255.304 171.621 253.216C167.665 251.421 163.819 249.297 163.782 249.297C163.416 249.113 163.306 248.674 163.489 248.307C163.672 247.941 164.112 247.831 164.478 248.014C164.478 248.014 168.141 250.029 171.951 251.787C179.277 255.157 180.303 254.461 180.339 254.425C180.412 254.315 180.449 254.059 180.412 253.729C179.973 250.872 174.954 244.718 174.002 244.058C173.269 243.545 170.852 243.252 169.496 243.179C169.094 243.179 168.801 242.813 168.801 242.41C168.801 242.007 169.167 241.714 169.57 241.714C169.973 241.714 173.526 241.97 174.845 242.886C175.944 243.655 181.365 250.139 181.878 253.546C181.988 254.315 181.878 254.938 181.511 255.377C181.255 255.707 180.815 256 179.936 256V255.963Z" fill="#0C0C1C"/>
<path d="M161.841 251.787C161.841 251.787 169.79 255.927 170.962 254.645C172.134 253.363 168.544 247.868 163.746 245.597" fill="#333476"/>
<path d="M164.698 253.18C167.116 254.242 170.266 255.414 170.962 254.645C171.731 253.839 170.522 251.275 168.288 248.967C166.053 249.846 165.101 251.861 164.698 253.18Z" fill="#232355"/>
<path d="M130.302 40.4277C130.302 40.4277 98.6159 92.4435 105.942 167.39C109.605 204.607 126.895 227.904 153.159 225.633C179.387 223.362 201.805 189.882 198.691 156.841C194.992 117.536 168.068 108.341 157.848 50.9042" fill="#DDDCFC"/>
<path d="M170.192 255.634C169.35 255.634 167.958 255.304 165.687 254.388C163.562 253.509 161.584 252.484 161.511 252.447C161.145 252.264 160.998 251.824 161.181 251.458C161.364 251.091 161.804 250.945 162.17 251.128C165.87 253.07 169.716 254.425 170.449 254.095C170.449 254.059 170.522 253.875 170.449 253.509C170.009 251.641 167.152 247.941 163.489 246.22C163.123 246.037 162.976 245.597 163.123 245.231C163.306 244.864 163.745 244.718 164.112 244.864C168.104 246.732 171.438 250.798 171.914 253.289C172.097 254.242 171.804 254.791 171.548 255.084C171.291 255.341 170.925 255.561 170.229 255.561L170.192 255.634Z" fill="#0C0C1C"/>
<path d="M105.869 166.548C105.869 166.841 105.905 167.097 105.942 167.39C109.605 204.607 126.895 227.904 153.159 225.633C179.387 223.362 201.805 189.882 198.691 156.841C196.787 136.474 188.655 124.202 179.826 109.147C166.42 142.078 119.092 161.639 105.869 166.548Z" fill="#5B56A4"/>
<path d="M116.089 203.764C124.367 218.856 137.078 227.025 153.159 225.633C172.757 223.911 194.882 201.493 198.581 168.526C190.632 193.947 151.401 212.959 116.125 203.764H116.089Z" fill="#333476"/>
<path d="M181.805 112.481C175.504 101.821 168.617 90.099 163.269 73.1755C132.28 103.945 116.602 133.763 105.832 166.035C105.832 166.181 105.832 166.328 105.869 166.511C136.675 159.258 173.086 137.023 181.805 112.481Z" fill="#8B8BD1"/>
<path d="M149.679 226.512C138.177 226.512 128.177 221.458 120.485 211.787C112.316 201.457 107.041 186.145 105.209 167.464C101.4 128.635 108.25 96.1068 114.624 75.6668C121.547 53.4686 129.313 40.5744 129.642 40.0616C129.862 39.7319 130.302 39.6221 130.631 39.8053C130.961 40.0251 131.071 40.4645 130.888 40.7942C130.558 41.3437 122.902 54.0547 116.016 76.0698C109.642 96.3999 102.865 128.745 106.638 167.281C108.433 185.669 113.634 200.724 121.62 210.835C129.752 221.091 140.595 225.926 153.049 224.864C163.452 223.948 173.746 217.941 182.061 207.977C193.673 194.058 199.607 174.936 197.922 156.877C196.2 138.342 189.277 126.62 181.255 113.067C172.427 98.1216 162.463 81.1981 157.079 50.9777C157.005 50.5748 157.262 50.2083 157.665 50.1351C158.068 50.0618 158.434 50.3183 158.507 50.7212C163.855 80.6852 173.746 97.4988 182.5 112.334C190.596 126.034 197.592 137.866 199.351 156.731C201.072 175.156 195.028 194.68 183.16 208.893C174.588 219.186 163.929 225.377 153.122 226.293C151.914 226.403 150.742 226.439 149.606 226.439L149.679 226.512Z" fill="#191935"/>
<path d="M141.071 178.672C140.705 178.452 137.738 179.039 137.481 179.185C137.225 179.368 139.679 182.006 140.412 182.116C141.547 182.262 142.646 179.661 141.071 178.672Z" fill="#3F3E77"/>
<path d="M140.375 182.848H140.302C139.313 182.738 136.895 180.174 136.749 179.442C136.675 179.112 136.785 178.782 137.078 178.599C137.371 178.416 140.705 177.573 141.474 178.05C141.804 178.269 141.914 178.709 141.694 179.075C141.511 179.368 141.144 179.478 140.815 179.368C140.485 179.368 139.386 179.515 138.617 179.661C139.203 180.357 140.192 181.273 140.522 181.42C140.888 181.493 141.181 181.859 141.108 182.226C141.071 182.592 140.741 182.885 140.375 182.885V182.848Z" fill="#191935"/>
<path d="M197.959 163.287C200.999 174.826 196.97 182.592 196.97 182.592C196.97 182.592 196.75 176.658 194.698 172.299" fill="#5B56A4"/>
<path d="M196.97 183.324C196.933 183.324 196.86 183.324 196.823 183.324C196.493 183.251 196.274 182.958 196.237 182.628C196.237 182.555 195.981 176.804 194.002 172.592C193.819 172.225 194.002 171.786 194.369 171.603C194.735 171.419 195.175 171.603 195.358 171.969C196.493 174.387 197.08 177.207 197.409 179.332C197.592 178.672 197.776 177.903 197.922 177.061C198.471 174.057 198.801 169.258 197.263 163.47C197.153 163.068 197.409 162.665 197.776 162.591C198.178 162.481 198.581 162.738 198.655 163.104C201.732 174.789 197.776 182.628 197.592 182.958C197.482 183.215 197.226 183.361 196.933 183.361L196.97 183.324Z" fill="#191935"/>
<path d="M197.189 150.1C202.794 162.994 200.962 173.434 200.962 173.434C200.962 173.434 198.801 167.353 196.127 162.335" fill="#5B56A4"/>
<path d="M200.962 174.167C200.669 174.167 200.376 173.984 200.267 173.691C200.267 173.617 198.105 167.61 195.468 162.701C195.285 162.335 195.395 161.895 195.761 161.712C196.127 161.529 196.567 161.639 196.75 162.005C198.252 164.789 199.571 167.94 200.486 170.174C200.596 166.181 200.157 158.782 196.494 150.393C196.347 150.027 196.494 149.587 196.86 149.441C197.226 149.294 197.666 149.441 197.812 149.807C203.453 162.738 201.732 173.141 201.622 173.581C201.549 173.91 201.292 174.167 200.962 174.167C200.962 174.167 200.926 174.167 200.889 174.167H200.962Z" fill="#191935"/>
<path d="M112.682 176.145C112.682 176.145 106.602 173.874 101.583 176.475C96.5648 179.075 89.7514 196.841 88.3228 201.164L92.0225 211.97L95.7589 214.058C98.8725 206.585 102.133 204.827 105.1 195.339" fill="#333476"/>
<path d="M95.7589 214.79C95.649 214.79 95.5025 214.791 95.3926 214.681L91.6562 212.593C91.2898 212.409 91.18 211.933 91.3632 211.604C91.5463 211.237 92.0224 211.127 92.3521 211.311L95.3559 212.996C96.5647 210.212 97.8468 208.197 99.0556 206.292C100.924 203.325 102.682 200.541 104.367 195.083C104.477 194.68 104.917 194.497 105.283 194.607C105.686 194.717 105.869 195.156 105.759 195.523C104.001 201.127 102.133 204.131 100.301 207.061C99.019 209.113 97.6636 211.237 96.3815 214.314C96.3082 214.497 96.1252 214.644 95.942 214.717C95.8688 214.717 95.7954 214.754 95.6855 214.754L95.7589 214.79Z" fill="#191935"/>
<path d="M88.3226 201.897C88.2493 201.897 88.176 201.896 88.1028 201.86C87.7365 201.75 87.5168 201.31 87.6267 200.944C89.0553 196.622 95.9419 178.599 101.253 175.852C106.492 173.105 112.682 175.376 112.939 175.486C113.305 175.632 113.525 176.035 113.378 176.438C113.232 176.804 112.829 177.024 112.426 176.878C112.353 176.878 106.565 174.753 101.913 177.171C97.4437 179.515 90.8135 195.999 89.0186 201.42C88.9087 201.713 88.6157 201.933 88.3226 201.933V201.897Z" fill="#191935"/>
<path d="M96.2717 212.922C96.2717 212.922 94.9164 217.391 93.0116 219.003C91.1435 220.615 80.8502 220.908 80.374 219.662C79.8978 218.417 83.5975 213.545 88.213 209.333" fill="#333476"/>
<path d="M84.6963 212.886C81.9124 215.963 80.0808 218.783 80.4105 219.662C80.7035 220.432 84.8429 220.615 88.3594 220.212C88.2129 217.025 85.8685 214.131 84.6963 212.886Z" fill="#232355"/>
<path d="M84.806 221.128C83.2676 221.128 81.8757 221.018 81.0698 220.835C80.5936 220.725 79.9342 220.505 79.7144 219.956C78.9085 217.904 84.22 212.043 87.7365 208.82C88.0296 208.563 88.5059 208.563 88.7623 208.856C89.0187 209.149 89.0187 209.626 88.7256 209.882C84.0002 214.204 81.2164 218.27 81.1065 219.333C82.4984 219.955 90.9967 219.809 92.5718 218.454C93.9638 217.245 95.2458 213.911 95.6121 212.739C95.722 212.336 96.125 212.153 96.5279 212.263C96.9308 212.373 97.1141 212.776 97.0042 213.179C96.931 213.362 95.539 217.868 93.5243 219.589C92.2422 220.688 88.1028 221.164 84.806 221.164V221.128Z" fill="#0C0C1C"/>
<path d="M95.3926 210.615C95.3926 210.615 93.5976 214.095 92.3155 214.864C91.0334 215.633 79.8245 218.71 78.5424 216.219C77.2237 213.728 91.766 202.739 91.766 202.739" fill="#333476"/>
<path d="M78.5056 216.219C79.3848 217.867 84.5863 217.098 88.3593 216.146C88.286 214.607 87.6999 210.981 83.9636 209.113C80.7401 212.006 77.8829 215.047 78.5056 216.219Z" fill="#232355"/>
<path d="M81.5094 217.904C80.7402 217.904 80.0077 217.831 79.4582 217.684C78.689 217.464 78.1394 217.098 77.883 216.549C77.5167 215.853 76.5277 213.948 88.7624 204.131C89.0921 203.874 89.5316 203.911 89.788 204.241C90.0444 204.571 90.0079 205.01 89.6782 205.266C80.9967 212.226 79.0186 215.267 79.2018 215.889C79.275 216.036 79.5314 216.182 79.861 216.256C82.7915 217.062 90.9235 214.864 91.9492 214.241C92.7551 213.765 94.1105 211.53 94.7699 210.248C94.953 209.882 95.3926 209.735 95.759 209.919C96.1253 210.102 96.2718 210.541 96.0886 210.908C95.9054 211.274 94.1471 214.607 92.7185 215.45C91.6928 216.073 85.5389 217.867 81.5461 217.867L81.5094 217.904Z" fill="#0C0C1C"/>
<path d="M88.3228 201.164C88.3228 201.164 80.4472 208.087 81.1066 209.955C81.7659 211.823 88.8357 210.212 93.3412 205.926" fill="#333476"/>
<path d="M85.6119 203.728C83.4141 205.889 80.7401 208.856 81.1064 209.955C81.5094 211.127 84.5863 210.908 87.8831 209.479C88.1395 206.658 86.6376 204.717 85.5753 203.728H85.6119Z" fill="#232355"/>
<path d="M82.9745 211.457C82.5716 211.457 82.2053 211.421 81.8756 211.347C80.9232 211.127 80.5935 210.615 80.447 210.212C79.751 208.197 84.7695 203.325 87.8465 200.614C88.1396 200.358 88.6157 200.358 88.8721 200.688C89.1285 201.017 89.1286 201.457 88.7989 201.713C84.8794 205.193 81.6559 208.856 81.8024 209.736C81.8024 209.736 81.9124 209.845 82.2054 209.919C84.0736 210.358 89.2751 208.82 92.8283 205.413C93.1214 205.12 93.5975 205.157 93.8539 205.413C94.147 205.706 94.1103 206.182 93.8539 206.439C90.5938 209.552 85.8317 211.421 82.9745 211.421V211.457Z" fill="#0C0C1C"/>
<path d="M99.7515 202.336C99.7515 202.336 130.155 233.033 156.639 215.01C183.892 196.475 162.207 171.2 162.207 171.2L120.851 159.844C105.979 165.742 112.682 176.145 112.682 176.145" fill="#5B56A4"/>
<path d="M112.682 176.145L99.7515 202.336C99.7515 202.336 130.155 233.032 156.639 215.01C161.218 211.896 164.442 208.38 166.639 204.68C145.687 217.977 115.466 198.636 112.682 176.145Z" fill="#333476"/>
<path d="M112.682 176.878C112.426 176.878 112.206 176.768 112.06 176.548C111.95 176.365 109.312 172.262 110.851 167.61C112.023 164.02 115.32 161.163 120.595 159.185C120.961 159.038 121.4 159.221 121.547 159.624C121.694 159.991 121.51 160.43 121.107 160.577C116.235 162.408 113.268 164.936 112.243 168.086C110.924 172.079 113.268 175.742 113.268 175.779C113.488 176.108 113.378 176.585 113.049 176.804C112.939 176.878 112.792 176.914 112.646 176.914L112.682 176.878Z" fill="#191935"/>
<path d="M138.397 221.421C131.95 221.421 125.1 219.662 117.994 216.109C107.078 210.688 99.312 202.922 99.2388 202.849C98.9457 202.556 98.9457 202.079 99.2388 201.823C99.5318 201.567 100.008 201.53 100.264 201.823C100.338 201.896 107.957 209.516 118.653 214.827C132.866 221.897 145.503 221.75 156.236 214.424C163.965 209.113 168.361 202.775 169.35 195.522C171.035 182.958 161.768 171.786 161.658 171.676C161.401 171.383 161.438 170.907 161.731 170.65C162.024 170.394 162.5 170.43 162.757 170.724C163.16 171.2 172.537 182.482 170.779 195.706C169.753 203.398 165.138 210.102 157.042 215.633C151.401 219.479 145.1 221.421 138.36 221.421H138.397Z" fill="#191935"/>
<path d="M142.39 219.149C132.573 224.058 118.36 220.944 118.36 220.944C120.741 219.736 124.038 215.889 124.038 215.889" fill="#333476"/>
<path d="M128.36 222.666C127.774 222.666 127.188 222.666 126.638 222.666C121.84 222.519 118.323 221.75 118.177 221.713C117.884 221.64 117.627 221.384 117.591 221.091C117.554 220.798 117.701 220.468 117.994 220.358C120.228 219.223 123.378 215.523 123.415 215.45C123.671 215.157 124.148 215.12 124.441 215.376C124.734 215.633 124.77 216.109 124.514 216.402C124.404 216.548 122.316 218.966 120.228 220.614C121.73 220.834 124.001 221.127 126.675 221.237C130.961 221.384 137.078 221.017 141.987 218.563C142.353 218.38 142.793 218.563 142.976 218.893C143.159 219.259 142.976 219.699 142.646 219.882C138.067 222.153 132.573 222.702 128.287 222.702L128.36 222.666Z" fill="#0C0C1C"/>
<path d="M128.836 216.732C116.419 221.201 106.272 214.387 106.272 214.387C110.411 212.849 113.635 210.944 113.635 210.944" fill="#333476"/>
<path d="M120.082 219.003C111.913 219.003 106.162 215.193 105.832 215.01C105.613 214.864 105.466 214.571 105.503 214.314C105.503 214.058 105.723 213.801 105.979 213.728C110.008 212.226 113.195 210.358 113.232 210.358C113.598 210.138 114.038 210.285 114.221 210.614C114.441 210.981 114.294 211.42 113.964 211.603C113.855 211.677 111.364 213.142 107.92 214.534C110.997 216.109 119.129 219.442 128.544 216.072C128.91 215.926 129.349 216.146 129.496 216.512C129.642 216.878 129.423 217.318 129.056 217.464C125.869 218.6 122.829 219.039 120.082 219.039V219.003Z" fill="#0C0C1C"/>
<path d="M126.785 43.9441C110.741 63.8713 103.671 95.9232 103.671 95.9232C108.799 88.0476 116.931 80.5016 121.986 76.289C127.188 71.8933 146.822 48.5963 146.822 48.5963" fill="#8588D1"/>
<path d="M146.786 48.5963L136.419 46.0686C130.338 53.2482 125.393 65.1166 106.016 87.0951C104.404 92.4432 103.671 95.9232 103.671 95.9232C108.799 88.0476 116.931 80.5016 121.986 76.289C127.188 71.8933 146.822 48.5963 146.822 48.5963H146.786Z" fill="#49488A"/>
<path d="M103.671 96.6558C103.561 96.6558 103.488 96.6559 103.378 96.5826C103.048 96.4361 102.865 96.1063 102.938 95.74C103.231 94.4213 110.264 63.2486 126.199 43.4679C126.455 43.1382 126.932 43.1015 127.225 43.3579C127.518 43.6143 127.591 44.0907 127.334 44.3837C114.587 60.2448 107.591 83.542 105.246 92.4799C109.642 86.9486 116.638 80.1719 121.95 75.0436C124.148 72.919 126.052 71.0874 127.408 69.6954C127.701 69.4024 128.14 69.4024 128.433 69.6954C128.726 69.9885 128.726 70.4282 128.433 70.7212C127.078 72.1132 125.173 73.9813 122.939 76.1058C116.638 82.1866 107.993 90.5384 104.22 96.3261C104.074 96.5459 103.854 96.6558 103.598 96.6558H103.671Z" fill="#191935"/>
<g opacity="0.2">
<path d="M151.071 7.31338C151.438 6.6174 157.299 3.50378 160.046 3.28399C162.757 3.06421 168.727 14.1267 168.434 15.2257C168.105 16.3612 161.877 20.061 161.181 20.2075C160.485 20.354 150.009 9.438 151.071 7.35005V7.31338Z" fill="#DEF5FF"/>
</g>
<path d="M161.145 20.9035C160.779 20.9035 160.119 20.5371 157.738 18.1195C155.98 16.3246 154.221 14.3099 152.939 12.6249C150.082 8.92516 150.119 7.67975 150.449 6.98376C151.035 5.84821 157.299 2.77118 160.009 2.5514C161.035 2.47813 162.17 3.24745 163.636 5.00573C166.053 7.9362 169.497 14.1268 169.167 15.4088C169.094 15.7019 168.874 16.4345 165.357 18.669C164.039 19.5115 161.914 20.7569 161.365 20.9035C161.291 20.9035 161.255 20.9035 161.181 20.9035H161.145ZM151.731 7.64304C151.474 9.2548 159.313 18.1195 161.218 19.3649C162.427 18.8154 167.116 15.9216 167.702 15.0059C167.519 13.7971 164.039 7.09369 161.291 4.63942C160.705 4.12659 160.302 3.94333 160.082 3.97996C157.701 4.19975 152.427 6.91043 151.694 7.64304H151.731Z" fill="black"/>
<path d="M126.822 48.5598C126.822 48.5598 123.452 34.6767 127.994 26.9476C132.39 19.4749 137.921 16.1416 147.188 11.4162C178.801 -4.738 223.93 1.15956 242.172 8.66888C245.982 10.244 248.326 14.6763 236.677 15.2624C172.097 18.376 181.182 57.7907 142.426 53.4683C135.064 52.6624 126.822 48.5965 126.822 48.5965V48.5598Z" fill="#8588D1"/>
<path d="M166.529 48.4864C180.779 39.2188 188.984 20.647 226.677 16.1048L225.432 12.2585C189.79 12.4783 174.149 40.8672 166.566 48.523L166.529 48.4864Z" fill="#49488A"/>
<path d="M230.524 4.52954C224.663 3.79693 220.633 8.85194 224.37 15.8484C224.37 15.8484 232.282 15.2624 236.897 14.9693C248.546 14.2001 246.641 9.36478 242.832 7.78965C239.755 6.50757 235.139 5.99478 230.487 4.52954H230.524Z" fill="#49488A"/>
<path d="M143.196 13.614C180.999 -8.40113 233.344 4.60266 242.026 7.78954C242.026 7.78954 245.982 9.76768 245.213 11.8923C237.557 7.38667 213.673 1.01298 188.618 3.1742C172.793 4.56617 158.251 8.37574 143.196 13.5773V13.614Z" fill="#DCE5EA"/>
<path d="M143.196 14.3468C142.903 14.3468 142.646 14.2002 142.536 13.9071C142.39 13.5775 142.536 13.1745 142.829 12.9547C153.965 6.47104 173.526 -0.928383 203.563 0.500219C223.124 1.41599 238.436 5.70179 242.282 7.09377C242.282 7.09377 242.319 7.09377 242.355 7.09377C242.831 7.31355 246.861 9.40154 245.908 12.0756C245.835 12.2954 245.689 12.442 245.469 12.5152C245.249 12.5885 245.029 12.5518 244.846 12.4419C236.494 7.53337 212.318 1.78233 188.691 3.83366C174.625 5.04248 160.668 8.26591 143.415 14.2001C143.342 14.2001 143.269 14.2368 143.159 14.2368L143.196 14.3468ZM198.984 2.03878C208.875 2.03878 217.483 3.2109 223.564 4.34645C231.952 5.92158 239.681 8.26599 244.297 10.6104C243.747 9.76785 242.502 8.92527 241.733 8.52233C237.886 7.09373 222.794 2.95456 203.49 2.03878C189.46 1.37943 170.083 2.36846 152.353 9.91441C165.577 5.84839 177.006 3.54061 188.545 2.55158C192.134 2.2219 195.651 2.11194 198.984 2.11194V2.03878Z" fill="#DCE5EA"/>
<path d="M148.361 54.1642C146.199 54.1642 143.855 54.0178 141.291 53.7248C140.888 53.6881 140.595 53.3217 140.668 52.9188C140.705 52.5159 141.071 52.2227 141.474 52.296C160.522 54.6404 167.958 47.644 177.336 38.8159C187.812 28.9623 200.889 16.6543 235.542 14.4565C241.952 14.0535 245.066 12.2953 245.213 11.1963C245.322 10.4637 244.114 9.21824 240.414 7.8629C232.135 4.89581 216.934 1.67237 198.984 1.52585C185.358 1.45258 165.394 3.13746 147.848 11.819C137.298 17.0572 131.034 22.2954 128.177 28.3395C124.734 35.629 127.811 48.0103 127.847 48.1568C127.957 48.5597 127.701 48.9626 127.335 49.0359C126.932 49.1458 126.529 48.8894 126.455 48.5231C126.455 48.3766 125.613 45.2629 125.283 41.1236C124.807 35.5191 125.357 31.0135 126.895 27.7534C129.899 21.4162 136.346 15.9583 147.225 10.5735C177.702 -4.51835 220.377 -0.891932 240.963 6.50749C245.103 8.00936 247.007 9.62125 246.714 11.4162C246.311 14.2734 240.524 15.6286 235.689 15.9217C220.487 16.9107 208.215 19.8777 198.215 25.0061C189.497 29.475 183.599 35.0063 178.434 39.8782C170.339 47.4974 163.196 54.2009 148.471 54.2009L148.361 54.1642Z" fill="#191935"/>
<path d="M142.866 12.1488C142.5 12.1488 142.207 11.8923 142.133 11.526C142.023 10.7201 141.804 8.81532 142.536 8.04608C143.122 7.45998 146.969 5.29869 148.214 5.40859C149.203 5.48185 151.071 6.47102 151.438 6.65418C151.804 6.83733 151.914 7.27679 151.731 7.6431C151.547 8.00941 151.108 8.11941 150.742 7.93625C149.972 7.49668 148.617 6.87396 148.104 6.83733C147.555 6.83733 144.221 8.41245 143.599 9.03518C143.452 9.25496 143.452 10.3171 143.599 11.2695C143.672 11.6725 143.379 12.0389 142.976 12.1121C142.939 12.1121 142.903 12.1121 142.866 12.1121V12.1488Z" fill="black"/>
<path d="M127.261 34.5669C127.261 34.5669 116.015 38.926 114.697 41.1971C114.294 41.9297 115.393 46.6551 117.92 49.0361C120.448 51.4171 124.697 51.7102 125.576 50.9776C127.041 49.7688 128.433 45.8858 128.433 45.8858" fill="#D2D2FB"/>
<path d="M116.565 41.9661C116.345 41.9661 116.126 41.8561 115.979 41.673C115.759 41.3433 115.832 40.8672 116.162 40.6474C116.309 40.5375 119.899 38.0467 126.529 35.1894C126.895 35.0429 127.335 35.1894 127.481 35.5558C127.628 35.9221 127.481 36.3617 127.115 36.5082C120.631 39.2921 117.078 41.783 117.041 41.8197C116.931 41.8929 116.748 41.9661 116.638 41.9661H116.565Z" fill="white"/>
<path d="M123.818 52.1129C121.913 52.1129 119.312 51.417 117.408 49.6221C115.832 48.1202 114.917 45.9589 114.514 44.7867C114.331 44.3105 113.525 41.8198 114.074 40.904C115.43 38.523 125.1 34.6768 127.005 33.9442C127.371 33.7976 127.811 33.9806 127.957 34.347C128.104 34.7133 127.921 35.1529 127.554 35.2994C123.342 36.9478 116.345 40.0614 115.393 41.5633C115.246 42.3325 116.235 46.4352 118.433 48.5598C120.924 50.9042 124.624 50.8674 125.1 50.4645C126.162 49.5854 127.371 46.7282 127.738 45.7025C127.884 45.3362 128.287 45.1165 128.69 45.263C129.056 45.4096 129.276 45.8125 129.129 46.2155C128.983 46.6184 127.628 50.3181 126.016 51.6368C125.613 51.9664 124.807 52.1496 123.818 52.1496V52.1129Z" fill="#49488A"/>
<path d="M122.06 39.4388C117.627 40.7942 117.591 44.6036 117.591 44.6036C118.836 43.6879 120.228 43.2117 120.228 43.2117C120.118 45.3729 121.217 47.2778 121.217 47.2778C121.217 47.2778 122.096 46.0322 122.499 45.1531C122.499 45.1531 123.562 45.6294 124.624 45.8492C124.624 45.8492 125.979 41.2336 126.089 39.6951C126.089 39.6951 123.928 38.8892 122.06 39.4753V39.4388Z" fill="#6A6DB8"/>
<path d="M114.77 43.5414C114.55 43.5414 114.367 43.4683 114.221 43.2851C113.964 42.9921 113.964 42.5158 114.294 42.2594C119.972 37.2043 127.041 38.5964 127.334 38.6696C127.737 38.7429 127.994 39.1458 127.921 39.5487C127.847 39.9517 127.444 40.2081 127.041 40.1348C126.968 40.1348 120.375 38.8527 115.283 43.395C115.136 43.5048 114.953 43.5781 114.807 43.5781L114.77 43.5414Z" fill="#49488A"/>
<path d="M234.003 8.11938C234.003 8.11938 237.667 8.81526 238.985 9.10831C239.718 9.29146 240.194 10.2439 239.058 10.0607C236.861 9.65781 234.003 8.11938 234.003 8.11938Z" fill="black"/>
<path d="M239.315 10.7933C239.205 10.7933 239.058 10.7932 238.912 10.7566C236.604 10.317 233.747 8.81517 233.637 8.74191C233.307 8.55876 233.161 8.19249 233.307 7.86281C233.417 7.53313 233.784 7.31342 234.15 7.38668C234.296 7.38668 237.813 8.08256 239.168 8.3756C239.901 8.55876 240.634 9.25471 240.45 9.98732C240.45 10.0606 240.267 10.7933 239.352 10.7933H239.315Z" fill="black"/>
<path d="M163.269 44.8967C156.932 44.8967 152.317 42.8821 152.024 42.7355C151.657 42.5524 151.474 42.1494 151.657 41.7831C151.84 41.4168 152.243 41.2336 152.61 41.4168C152.72 41.4534 164.112 46.3985 175.614 40.4644C175.98 40.2812 176.42 40.4277 176.603 40.794C176.786 41.1603 176.64 41.5999 176.273 41.7831C171.658 44.1641 167.152 44.9334 163.269 44.9334V44.8967Z" fill="#191935"/>
<path d="M128.287 12.5884C127.884 12.5884 127.554 12.2587 127.554 11.8924C127.554 11.4162 127.481 7.13046 129.826 5.88501C131.108 5.18903 132.793 5.59186 134.771 7.05709C135.101 7.31351 135.174 7.75319 134.917 8.08286C134.661 8.41254 134.221 8.48577 133.892 8.22935C132.866 7.4601 131.437 6.69089 130.485 7.16709C129.166 7.86308 128.946 10.8301 128.983 11.8191C128.983 12.222 128.69 12.5518 128.287 12.5884Z" fill="#191935"/>
<path d="M136.675 31.0135C136.272 31.0135 135.943 30.7203 135.943 30.3174C135.943 30.1342 135.759 25.4822 138.836 22.7349C140.668 21.0865 143.232 20.4638 146.419 20.9033C146.822 20.9766 147.115 21.3428 147.042 21.7458C146.969 22.1487 146.602 22.4418 146.199 22.3686C143.452 21.9656 141.291 22.4785 139.789 23.8338C137.261 26.1416 137.371 30.2442 137.371 30.2809C137.371 30.6838 137.078 31.0133 136.675 31.05V31.0135Z" fill="#191935"/>
<g opacity="0.2">
<path d="M142.866 11.4163C134.294 13.5775 129.899 20.5738 128.47 24.0904C128.031 25.1527 128.177 26.3981 128.873 27.3872C130.998 30.3909 133.599 33.2848 135.503 35.3361C137.225 37.1676 139.899 37.6072 141.987 36.435C147.372 33.4313 150.705 29.6583 152.17 26.6545C153.636 23.6508 152.866 22.4787 151.584 20.7205C146.126 13.1012 142.866 11.4163 142.866 11.4163Z" fill="#DEF5FF"/>
</g>
<path d="M145.687 3.61366C145.613 3.61366 145.54 3.61362 145.43 3.57699C145.064 3.43047 144.844 3.02753 144.991 2.66122C145.357 1.63556 146.749 -0.232507 149.57 0.0239083C149.972 0.0605392 150.265 0.42674 150.229 0.829679C150.192 1.23262 149.826 1.52577 149.423 1.48914C147.115 1.26936 146.419 2.95437 146.383 3.13753C146.273 3.43057 145.98 3.61366 145.687 3.61366Z" fill="#191935"/>
<path d="M139.533 37.827C137.884 37.827 136.236 37.131 134.99 35.8489C133.159 33.8709 130.485 30.9038 128.287 27.8268C127.444 26.6546 127.261 25.1528 127.811 23.8341C129.752 19.0355 134.807 12.7349 142.72 10.7202C142.903 10.6835 143.086 10.7202 143.232 10.7935C143.379 10.8668 146.749 12.6617 152.207 20.3175C153.635 22.2956 153.892 24.8598 152.83 26.9844C151.035 30.6841 147.225 34.347 142.353 37.0944C141.474 37.6072 140.485 37.827 139.496 37.827H139.533ZM142.756 12.1854C133.269 14.7496 129.569 23.3579 129.166 24.3469C128.836 25.1894 128.946 26.1785 129.496 26.9477C131.62 29.9515 134.258 32.8819 136.053 34.7867C137.555 36.3618 139.862 36.7648 141.657 35.7758C148.214 32.1127 150.742 27.9367 151.511 26.3249C152.317 24.6765 152.097 22.6986 150.998 21.1235C146.566 14.8962 143.562 12.6982 142.756 12.1854Z" fill="black"/>
<path d="M130.631 68.6333C130.631 68.6333 117.407 71.4906 100.997 76.0695C84.5862 80.6483 57.1864 91.9672 69.2013 107.938C81.6924 124.605 125.027 118.268 125.027 118.268L130.631 68.6333Z" fill="#DDDCFC"/>
<path d="M106.711 120.173C105.1 120.173 103.451 120.173 101.766 120.063C85.0991 119.404 73.9267 115.448 68.6152 108.378C65.6481 104.422 64.8055 100.466 66.1242 96.5827C67.6993 91.894 72.4614 87.4249 80.2637 83.2857C87.8097 79.2563 96.3814 76.5822 100.85 75.3734C117.114 70.8311 130.411 67.9373 130.521 67.9007C130.924 67.8275 131.29 68.0839 131.4 68.4502C131.474 68.8531 131.217 69.2194 130.851 69.3293C130.704 69.3293 117.444 72.2599 101.253 76.7654C94.2935 78.7069 71.3259 85.8865 67.553 97.0589C66.4174 100.429 67.1865 103.945 69.824 107.499C81.9121 123.616 124.514 117.609 124.953 117.535C125.356 117.499 125.723 117.755 125.796 118.158C125.869 118.561 125.576 118.927 125.173 119.001C125.063 119.001 116.931 120.173 106.784 120.173H106.711Z" fill="#7481BA"/>
<path d="M100.997 76.0695C103.378 83.9818 69.2015 107.938 69.2015 107.938C59.824 96.5828 64.8057 67.7909 57.4063 50.1715L85.6854 44.9333C85.6854 44.9333 94.1104 53.1019 100.997 76.106V76.0695Z" fill="#DDDCFC"/>
<path d="M85.6853 44.8968C85.4655 40.7208 86.9307 37.6437 86.9307 37.6437C83.5973 37.6804 81.2896 39.6584 81.2896 39.6584C80.6669 36.8012 81.8391 33.248 81.8391 33.248C78.579 34.347 76.2345 37.5706 76.2345 37.5706L56.8568 40.0981L57.4429 50.0982C58.9814 53.7247 59.8239 57.5344 59.8239 57.5344C61.4723 59.256 66.0146 66.2158 66.6006 69.9155C66.6006 69.9155 69.4944 65.6663 71.2527 60.9043C71.2527 60.9043 73.707 65.6298 75.0257 72.3699C75.0257 72.3699 81.0332 65.1169 81.9856 55.9592C81.9856 55.9592 90.1542 54.6038 93.048 56.179C88.9453 48.2301 85.6853 44.8968 85.6853 44.8968Z" fill="#57539F"/>
<path d="M102.938 84.861C102.609 84.861 102.279 84.6046 102.206 84.2749C102.206 84.2383 101.253 79.6593 100.264 76.2893C96.9309 64.7506 93.0113 56.9848 90.3006 52.4792C87.3702 47.6073 85.1723 45.4462 85.1723 45.4462C84.8793 45.1532 84.8793 44.7135 85.1723 44.4205C85.4654 44.1274 85.9051 44.1274 86.1981 44.4205C86.5644 44.7868 95.2092 53.4316 101.693 75.923C102.682 79.3663 103.634 83.9818 103.671 84.0184C103.744 84.4214 103.488 84.7876 103.085 84.8975C103.048 84.8975 102.975 84.8975 102.938 84.8975V84.861Z" fill="#7481BA"/>
<path d="M92.8283 56.1788C92.5719 56.1788 92.3154 56.0323 92.1688 55.7759C88.3226 48.5596 85.1725 45.4094 85.1358 45.4094C84.9893 45.2629 84.916 45.1164 84.916 44.9333C84.7695 42.1127 85.3555 39.8049 85.7951 38.4862C83.3775 38.8525 81.7291 40.2078 81.7291 40.2444C81.5459 40.4276 81.2529 40.4642 81.0331 40.3909C80.7767 40.3177 80.5936 40.0979 80.557 39.8415C80.154 38.0099 80.4471 35.922 80.7401 34.5666C78.4324 35.8487 76.8205 38.0099 76.7839 38.0466C76.5275 38.3763 76.088 38.4495 75.7583 38.1931C75.4286 37.9366 75.3554 37.4971 75.6118 37.1675C75.7217 37.0209 78.1393 33.7608 81.5826 32.5886C81.839 32.5154 82.1321 32.5886 82.3518 32.7718C82.5716 32.9549 82.6083 33.248 82.535 33.5044C82.535 33.5044 81.729 36.0319 81.8755 38.4129C82.9378 37.7902 84.7329 36.9843 86.9307 36.9477C87.1871 36.9477 87.4068 37.0575 87.5533 37.2773C87.6998 37.4971 87.6999 37.7536 87.59 37.9734C87.59 37.9734 86.2714 40.794 86.4179 44.567C86.8208 44.9333 87.4069 45.6659 88.3959 46.948C89.6047 48.5231 91.4729 51.2337 93.5242 55.1166C93.7074 55.4829 93.5974 55.9225 93.2311 56.1057C93.1212 56.1789 93.0113 56.1788 92.9014 56.1788H92.8283Z" fill="#191935"/>
<path d="M54.7323 24.0539C64.0731 14.5665 68.7251 19.0721 68.7251 19.0721C63.5968 35.7757 54.7323 24.0539 54.7323 24.0539Z" fill="#DDDCFC"/>
<path d="M68.5053 25.3359C68.5053 25.3359 68.7984 26.7645 69.0914 27.7169C70.227 31.5998 72.9376 34.347 74.3662 34.0173C75.8681 33.6876 77.1868 30.2077 77.4798 25.7753C77.663 22.6251 75.6484 18.1928 71.1428 17.7899C66.0511 17.3137 61.106 22.2954 61.106 22.2954" fill="#DDDCFC"/>
<path d="M74.1466 34.7865C72.1319 34.7865 69.4944 31.7095 68.3955 27.9365C68.1024 26.9474 67.8094 25.5556 67.8094 25.4823C67.7361 25.0794 67.9925 24.7131 68.3588 24.6032C68.7618 24.53 69.128 24.7864 69.2379 25.1527C69.2379 25.1527 69.531 26.5446 69.7874 27.497C70.9229 31.3799 73.4505 33.4678 74.2198 33.3213C75.0989 33.1381 76.4542 30.3907 76.7472 25.7386C76.9304 23.0646 75.2087 18.8888 71.0695 18.5225C66.3807 18.0829 61.6554 22.7715 61.6188 22.8082C61.3257 23.1012 60.8862 23.1012 60.5932 22.8082C60.3002 22.5151 60.3002 22.0756 60.5932 21.7826C60.813 21.5628 65.8314 16.5811 71.2161 17.0939C76.3444 17.5701 78.4323 22.5885 78.2491 25.8486C77.9927 29.9146 76.7473 34.2736 74.5861 34.7498C74.4762 34.7498 74.3296 34.7865 74.1831 34.7865H74.1466Z" fill="#7481BA"/>
<path d="M74.3662 34.0537C75.8681 33.724 77.1868 30.2441 77.4798 25.8118C72.7544 24.9326 69.0914 27.7167 69.0914 27.7167C70.227 31.5995 72.9376 34.3467 74.3662 34.017V34.0537Z" fill="#3F3E77"/>
<path d="M74.1465 34.7865C72.1318 34.7865 69.4943 31.7095 68.3954 27.9365C68.2855 27.5335 68.5052 27.1306 68.9082 27.0207C69.3111 26.9108 69.7141 27.1307 69.8239 27.5337C70.9595 31.4165 73.4871 33.5045 74.2563 33.3579C75.1355 33.1748 76.4908 30.4274 76.7838 25.7753C76.7838 25.3724 77.1501 25.0793 77.5531 25.0793C77.956 25.0793 78.249 25.4457 78.249 25.8486C77.9926 29.9146 76.7472 34.2736 74.586 34.7498C74.4761 34.7498 74.3295 34.7865 74.183 34.7865H74.1465Z" fill="#191935"/>
<path d="M53.7799 44.6035C55.3184 47.3874 57.4063 50.1714 57.4063 50.1714C58.725 48.9993 59.6775 46.4717 59.6775 46.4717C63.0841 50.1714 66.0145 50.9041 66.0145 50.9041C64.6958 48.5963 65.3917 46.7648 65.3917 46.7648C68.0658 49.1092 71.3626 50.0616 71.3626 50.0616C73.5239 46.3619 75.392 44.3472 75.392 44.3472C78.1393 33.7609 72.1684 28.7791 72.1684 28.7791C72.1684 28.7791 72.7546 24.8596 71.5458 23.8706C70.337 22.8816 66.0878 23.2479 60.9595 24.6032C58.2489 25.2992 60.0071 18.9986 56.3073 20.3173C51.2523 22.1122 48.2485 25.1525 47.4426 27.7533C45.6111 33.7974 53.7065 44.567 53.7065 44.567L53.7799 44.6035Z" fill="#DDDCFC"/>
<path d="M57.4062 50.9041C57.1864 50.9041 56.9666 50.7943 56.8201 50.6111C56.7468 50.5012 54.6955 47.7904 53.157 45.0065C52.5343 44.164 44.9151 33.7608 46.8199 27.5702C47.7723 24.3833 51.3621 21.3431 56.1241 19.6581C57.6993 19.1086 58.5784 19.7313 59.0179 20.3174C59.2743 20.647 59.2011 21.0865 58.8714 21.343C58.5418 21.5994 58.1023 21.5262 57.8458 21.1965C57.6993 21.0133 57.516 20.7203 56.6003 21.05C51.3987 22.9182 48.8345 25.8853 48.1752 28.0098C47.4792 30.281 48.3217 33.7975 50.5562 38.12C52.3145 41.49 54.2926 44.1641 54.3293 44.2007C54.3293 44.2007 54.3658 44.2739 54.4024 44.2739C55.9043 46.9846 57.9557 49.7319 57.9923 49.7685C58.2488 50.0982 58.1755 50.5379 57.8458 50.7943C57.6993 50.9042 57.5527 50.9408 57.4062 50.9408V50.9041Z" fill="#7481BA"/>
<path d="M75.5384 44.7866C75.4285 44.7866 75.3187 44.7867 75.2455 44.7135C74.8791 44.5303 74.7326 44.0907 74.8791 43.7244C75.0257 43.3947 78.359 35.8854 71.6922 29.2919C71.4724 29.0721 71.3992 28.7058 71.5457 28.4494C71.5457 28.3762 72.3882 26.7277 71.3259 24.8962C71.1427 24.5299 71.2527 24.0902 71.5824 23.9071C71.9487 23.7239 72.3881 23.8339 72.5713 24.1635C73.6336 26.0317 73.304 27.7534 73.0109 28.5959C79.9708 35.8488 76.1979 44.2373 76.1612 44.3472C76.0513 44.6036 75.7582 44.7866 75.5018 44.7866H75.5384Z" fill="#7481BA"/>
<path d="M56.3807 23.1744C56.1975 23.1744 56.0142 23.1013 55.8677 22.9547C55.5747 22.6617 55.5747 22.222 55.8677 21.929C56.0875 21.7092 61.1059 16.7641 66.4906 17.2403C67.0035 17.2769 67.4797 17.3867 67.9559 17.5333C68.3588 17.6432 68.5787 18.0461 68.4688 18.449C68.359 18.852 67.956 19.0717 67.5531 18.9618C67.1868 18.8519 66.7838 18.7788 66.3808 18.7422C61.6921 18.3026 56.9668 22.9913 56.9301 23.0279C56.7836 23.1744 56.6003 23.2477 56.4172 23.2477L56.3807 23.1744Z" fill="#7481BA"/>
<path d="M69.2015 108.671C68.9817 108.671 68.7986 108.598 68.652 108.415C63.3772 102.004 62.4613 90.5755 61.5455 78.4507C60.7763 68.597 59.9704 58.4136 56.7835 50.4281C56.637 50.0618 56.7836 49.6222 57.1865 49.4757C57.5894 49.3292 57.9924 49.4757 58.1389 49.8787C61.4357 58.084 62.2415 68.3771 63.0108 78.3407C63.9265 90.2091 64.8057 101.418 69.7875 107.462C70.0439 107.792 70.0073 108.232 69.6776 108.488C69.5311 108.598 69.3847 108.671 69.2015 108.671Z" fill="#7481BA"/>
<path d="M59.8969 58.7432C59.5672 58.7432 59.2742 58.5234 59.201 58.1938C58.4683 55.2999 57.6626 52.7725 56.7468 50.4281C56.6003 50.0618 56.7467 49.6222 57.1496 49.4757C57.5525 49.3292 57.9555 49.4757 58.102 49.8787C59.0544 52.2597 59.8969 54.8604 60.6295 57.8274C60.7394 58.2304 60.483 58.6333 60.0801 58.7065C60.0068 58.7065 59.9702 58.7065 59.8969 58.7065V58.7432Z" fill="#191935"/>
</svg>
