<svg width="256" height="256" viewBox="0 0 256 256" fill="none" xmlns="http://www.w3.org/2000/svg">
<path d="M126.396 214.801C126.396 214.801 141.658 213.838 156.923 207.771C156.923 207.771 137.374 187.994 126.396 214.801Z" fill="#66CCB9"/>
<path d="M143.809 200.858C137.972 200.122 131.321 202.771 126.396 214.801C126.396 214.801 136.54 214.159 148.555 210.638C147.796 208.999 145.894 204.938 143.805 200.862L143.809 200.858Z" fill="#3EBAA2"/>
<path d="M147.24 185.193C158.488 144.671 171.84 127.512 171.84 127.512L96.7571 126.616C96.4167 174.196 147.24 185.193 147.24 185.193Z" fill="#1B8C81" stroke="#20564C" stroke-width="1.56489" stroke-linecap="round" stroke-linejoin="round"/>
<path d="M145.441 129.209C130.817 82.2196 92.1289 69.9626 92.1289 69.9626C92.1289 69.9626 121.541 92.5361 133.008 132.038" fill="#3ABAA4"/>
<path d="M145.441 129.209C130.817 82.2196 92.1289 69.9626 92.1289 69.9626C92.1289 69.9626 121.541 92.5361 133.008 132.038" stroke="#20564C" stroke-width="1.56489" stroke-linecap="round" stroke-linejoin="round"/>
<path d="M137.346 129.604C115.567 85.6429 67.748 91.6168 67.748 91.6168C67.748 91.6168 108.971 95.4664 125.563 135.731" fill="#3ABAA4"/>
<path d="M137.346 129.604C115.567 85.6429 67.748 91.6168 67.748 91.6168C67.748 91.6168 108.971 95.4664 125.563 135.731" stroke="#20564C" stroke-width="1.56489" stroke-linecap="round" stroke-linejoin="round"/>
<path d="M146.004 142.687C155.972 86.0693 191.499 79.3677 191.499 79.3677C191.499 79.3677 161.309 99.9929 158.488 144.67" fill="#3ABAA4"/>
<path d="M146.004 142.687C155.972 86.0693 191.499 79.3677 191.499 79.3677C191.499 79.3677 161.309 99.9929 158.488 144.67" stroke="#20564C" stroke-width="1.56489" stroke-linecap="round" stroke-linejoin="round"/>
<path d="M162.568 134.158C164.407 73.0652 137.366 41.3801 137.366 41.3801C137.366 41.3801 154.192 93.2327 143 133.184" fill="#3ABAA4"/>
<path d="M162.568 134.158C164.407 73.0652 137.366 41.3801 137.366 41.3801C137.366 41.3801 154.192 93.2327 143 133.184" stroke="#20564C" stroke-width="1.56489" stroke-linecap="round" stroke-linejoin="round"/>
<path d="M140.241 47.8823C157.604 73.4682 160.569 112.626 160.569 112.626" stroke="#AFE2E2" stroke-width="1.56489" stroke-linecap="round" stroke-linejoin="round"/>
<path d="M148.496 143.051C153.817 77.4625 116.404 59.7715 116.404 59.7715C116.404 59.7715 143.884 91.3392 134.095 141.642" fill="#3ABAA4"/>
<path d="M148.496 143.051C153.817 77.4625 116.404 59.7715 116.404 59.7715C116.404 59.7715 143.884 91.3392 134.095 141.642" stroke="#20564C" stroke-width="1.56489" stroke-linecap="round" stroke-linejoin="round"/>
<path d="M156.923 207.771C166.516 203.385 173.394 199.594 173.429 199.684C173.476 199.747 178.257 194.16 188.217 183.871C181.598 183.354 174.904 183.081 168.144 183.049C176.985 179.736 187.736 177.799 195.064 177.052C198.162 174.051 201.644 170.788 205.521 167.353C200.83 165.456 195.58 163.782 190.893 163.242C190.885 163.234 200.967 161.61 211.448 162.236C213.791 160.268 216.221 158.289 218.826 156.239C224.832 151.513 229.777 146.947 233.853 142.401C217.347 140.343 202.72 140.966 202.743 140.946C202.696 140.809 224.804 131.361 244.107 127.801C246.431 123.29 247.988 118.815 248.817 114.484C218.846 120.458 202.508 130.273 202.563 129.949C202.372 129.499 231.236 111.241 249.252 103.166C247.769 92.5362 244.021 83.5655 244.021 83.5655C244.021 83.5655 230.496 80.0327 220.673 79.5359C206.311 98.4163 199.649 114.065 199.566 114.006C202.755 102.688 206.851 91.2999 211.91 79.9701C205.849 80.8621 199.117 83.0099 192.004 86.883C186.985 100.322 183.206 113.764 180.592 127.038C180.67 127.03 179.966 112.942 182.63 92.8883C176.613 97.3443 170.937 102.325 165.749 107.536C162.991 131.67 164.278 153.551 164.282 153.52C160.511 142.616 157.354 131.287 154.865 119.589C149.208 126.49 144.486 133.356 140.727 139.502C141.943 153.657 148.41 175.78 148.579 175.651C143.528 167.666 138.778 159.38 134.35 150.813C130.661 157.972 128.881 162.53 128.869 162.522C128.744 162.436 127.014 185.26 132.66 207.661" fill="#66CCB9"/>
<path d="M156.923 207.771C166.516 203.385 173.394 199.594 173.429 199.684C173.476 199.747 178.257 194.16 188.217 183.871C181.598 183.354 174.904 183.081 168.144 183.049C176.985 179.736 187.736 177.799 195.064 177.052C198.162 174.051 201.644 170.788 205.521 167.353C200.83 165.456 195.58 163.782 190.893 163.242C190.885 163.234 200.967 161.61 211.448 162.236C213.791 160.268 216.221 158.289 218.826 156.239C224.832 151.513 229.777 146.947 233.853 142.401C217.347 140.343 202.72 140.966 202.743 140.946C202.696 140.809 224.804 131.361 244.107 127.801C246.431 123.29 247.988 118.815 248.817 114.484C218.846 120.458 202.508 130.273 202.563 129.949C202.372 129.499 231.236 111.241 249.252 103.166C247.769 92.5362 244.021 83.5655 244.021 83.5655C244.021 83.5655 230.496 80.0327 220.673 79.5359C206.311 98.4163 199.649 114.065 199.566 114.006C202.755 102.688 206.851 91.2999 211.91 79.9701C205.849 80.8621 199.117 83.0099 192.004 86.883C186.985 100.322 183.206 113.764 180.592 127.038C180.67 127.03 179.966 112.942 182.63 92.8883C176.613 97.3443 170.937 102.325 165.749 107.536C162.991 131.67 164.278 153.551 164.282 153.52C160.511 142.616 157.354 131.287 154.865 119.589C149.208 126.49 144.486 133.356 140.727 139.502C141.943 153.657 148.41 175.78 148.579 175.651C143.528 167.666 138.778 159.38 134.35 150.813C130.661 157.972 128.881 162.53 128.869 162.522C128.744 162.436 127.014 185.26 132.66 207.661" stroke="#20564C" stroke-width="1.56489" stroke-linecap="round" stroke-linejoin="round"/>
<path opacity="0.3" d="M140.508 162.174C138.391 158.441 136.333 154.654 134.346 150.805C130.657 157.964 128.876 162.522 128.865 162.514C128.74 162.428 127.01 185.252 132.656 207.653L147.244 207.371C147.244 207.371 141.662 183.44 140.511 162.174H140.508Z" fill="#205651"/>
<g opacity="0.3">
<path d="M202.962 169.646L193.573 163.66C192.665 163.484 191.769 163.344 190.893 163.246C190.893 163.246 191.492 163.144 192.548 163.007L164.004 144.807C164.083 150.242 164.274 153.528 164.278 153.516C163.054 149.979 161.903 146.396 160.812 142.769L145.077 132.734C143.508 135.058 142.057 137.323 140.727 139.495C141.313 146.345 143.133 155.057 144.874 162.213C154.501 163.543 165.135 173.03 172.869 181.457C180.6 179.102 189.007 177.666 195.071 177.052C197.473 174.724 200.106 172.244 202.974 169.646H202.962Z" fill="#205651"/>
<path d="M188.213 183.871C183.64 183.515 179.027 183.276 174.387 183.151C177.165 186.277 179.485 189.16 181.14 191.3C183.112 189.195 185.463 186.715 188.213 183.871Z" fill="#205937"/>
</g>
<path opacity="0.3" d="M223.619 100.728C199.664 119.315 176.488 146.098 161.688 169.446C153.527 181.875 147.784 193.311 144.165 201.194" stroke="#205653" stroke-width="1.56489" stroke-linecap="round" stroke-linejoin="round"/>
<path d="M132.331 138.595L102.762 115.141C92.4066 119.218 78.796 127.973 66.942 138.415C90.1728 144.733 104.499 157.135 112.05 165.679C114.327 156.251 119.816 145.707 132.331 138.595Z" fill="#DDDCFC"/>
<path d="M106.002 159.533C108.369 161.7 110.376 163.786 112.05 165.683C113.329 160.394 115.618 154.748 119.593 149.561C114.558 152.784 110.055 156.114 106.002 159.533Z" fill="#8B8BD1"/>
<path d="M111.917 165.644C114.859 154.662 122.312 144.287 132.331 138.595" stroke="#191935" stroke-width="1.56489" stroke-linecap="round" stroke-linejoin="round"/>
<path d="M127.879 141.556C129.295 140.469 130.782 139.475 132.331 138.599L115.9 125.105L110.579 128.325C100.662 131.369 87.9038 136.353 74.9622 140.95C79.5473 142.609 83.7255 144.498 87.5165 146.517C91.6243 145.253 95.9238 143.978 101.287 142.73C112.25 140.183 127.883 141.556 127.883 141.556H127.879Z" fill="#49488A"/>
<path d="M102.762 115.141C102.762 115.141 83.1777 123.369 65.7332 138.094C71.2024 139.514 76.1944 141.267 80.7248 143.239C91.4169 140.864 106.538 137.065 127.789 130.99L102.762 115.141Z" fill="#8588D1"/>
<path d="M65.7292 138.094C83.1738 123.365 102.758 115.141 102.758 115.141" stroke="#191935" stroke-width="1.56489" stroke-linecap="round" stroke-linejoin="round"/>
<path opacity="0.16" d="M148.035 107.716C148.809 107.266 156.238 107.501 158.938 108.705C161.637 109.91 160.378 123.04 159.435 123.858C158.441 124.722 150.3 124.82 149.568 124.601C148.837 124.382 145.734 109.05 148.031 107.716H148.035Z" fill="#DEF5FF"/>
<path d="M148.035 107.716C148.809 107.266 156.238 107.501 158.938 108.705C161.637 109.91 160.378 123.04 159.435 123.858C158.441 124.722 150.3 124.82 149.568 124.601C148.837 124.382 145.734 109.05 148.031 107.716H148.035Z" stroke="black" stroke-width="1.56489" stroke-linecap="round" stroke-linejoin="round"/>
<path d="M137.37 140.95C134.651 145.359 139.044 156.794 134.807 158.254C128.923 158.265 124.154 142.652 127.503 132.155L137.37 140.95Z" fill="#894E71"/>
<path d="M137.37 145.007C135.038 147.976 139.349 158.719 133.356 157.913" stroke="#191935" stroke-width="1.56489" stroke-linecap="round" stroke-linejoin="round"/>
<path d="M99.2374 119.413C99.2374 119.413 107.856 106.057 117.59 103.819C127.006 101.652 133.927 103.577 144.83 107.442C182.067 120.634 208.956 166.618 214.335 187.908C215.462 192.356 213.204 197.278 204.801 187.353C190.208 170.119 171.926 153.226 145.374 153.226C145.374 153.226 132.327 148.501 128.646 135.672C128.646 135.672 123.728 149.682 133.356 157.917C133.356 157.917 122.769 153.07 107.222 135.747C101.722 129.616 99.2374 119.413 99.2374 119.413Z" fill="#8588D1"/>
<path d="M210.325 174.72C203.467 171.454 197.728 173.132 193.639 174.552C193.639 174.552 201.886 183.413 205.219 187.349C213.623 197.27 216.706 192.353 215.583 187.905C214.675 184.317 212.085 179.822 210.325 174.72Z" fill="#49488A"/>
<path d="M139.968 105.881C186.683 119.57 212.101 177.302 214.988 187.2C214.988 187.2 215.751 192.568 213.345 193.311C212.308 183.472 201.022 158.058 182.478 137.104C170.768 123.869 155.691 114.065 139.968 105.877V105.881Z" fill="#DCEAE8" stroke="#DCEAE8" stroke-width="1.56489" stroke-linecap="round" stroke-linejoin="round"/>
<path d="M127.327 142.174C122.124 140.164 119.992 135.089 115.849 133.712C111.804 132.367 107.054 134.522 107.226 134.714C122.773 152.037 133.36 157.917 133.36 157.917C126.169 154.021 127.308 145.285 127.327 142.174Z" fill="#49488A"/>
<path d="M186.683 168.339C170.405 142.233 147.201 149.596 134.076 145.656C139.009 150.5 145.374 152.71 145.374 152.71C167.017 151.485 186.679 168.339 186.679 168.339H186.683Z" fill="#49488A"/>
<path d="M99.6521 119.413C99.6521 119.413 107.422 107.109 116.342 104.187C124.569 101.491 134.655 103.545 145.245 107.442C182.086 120.998 208.361 164.49 214.675 185.483C218.169 197.094 210.52 194.16 204.163 186.277C191.241 170.252 172.341 152.714 145.789 152.714C145.789 152.714 131.924 149.287 128.642 135.676C128.642 135.676 123.7 151.485 133.771 157.921C133.771 157.921 124.115 153.985 107.637 135.234" stroke="#191935" stroke-width="1.56489" stroke-linecap="round" stroke-linejoin="round"/>
<path d="M125.696 113.752C130.226 112.363 133.086 123.897 126.337 124.417C119.589 124.937 120.876 115.231 125.696 113.752Z" fill="#1A1A21"/>
<path d="M121.557 117.907C125.856 110.677 130.359 111.874 132.264 115.552" stroke="#191935" stroke-width="1.17367" stroke-linecap="round" stroke-linejoin="round"/>
<path d="M130.793 123.22C127.139 125.735 122.519 124.436 122.519 124.436" stroke="#191935" stroke-width="1.17367" stroke-linecap="round" stroke-linejoin="round"/>
<path d="M123.591 104.081C126.541 99.9618 128.364 99.7661 130.019 101.644" stroke="#191935" stroke-width="1.56489" stroke-linecap="round" stroke-linejoin="round"/>
<path d="M156.505 104.496C155.233 103.072 152.788 101.084 150.491 103.303" stroke="#191935" stroke-width="1.56489" stroke-linecap="round" stroke-linejoin="round"/>
<path opacity="0.16" d="M137.796 107.172C128.434 104.691 119.917 109.593 116.42 112.046C115.352 112.798 114.718 114.006 114.769 115.251C114.914 119.061 115.544 123.036 116.087 125.876C116.573 128.415 118.802 130.23 121.49 130.254C128.399 130.317 133.888 127.789 137.116 125.81C139.134 124.573 140.335 122.39 140.241 120.133C139.831 110.419 137.804 107.168 137.804 107.168L137.796 107.172Z" fill="#DEF5FF"/>
<path d="M137.796 107.172C128.434 104.691 119.917 109.593 116.42 112.046C115.352 112.798 114.718 114.006 114.769 115.251C114.914 119.061 115.544 123.036 116.087 125.876C116.573 128.415 118.802 130.23 121.49 130.254C128.399 130.317 133.888 127.789 137.116 125.81C139.134 124.573 140.335 122.39 140.241 120.133C139.831 110.419 137.804 107.168 137.804 107.168L137.796 107.172Z" stroke="black" stroke-width="1.56489" stroke-linecap="round" stroke-linejoin="round"/>
<path d="M137.796 107.172C137.796 107.172 138.876 104.938 139.756 104.707C140.637 104.476 145.237 104.621 146.024 105.141C146.81 105.662 148.031 107.72 148.031 107.72" stroke="black" stroke-width="1.56489" stroke-linecap="round" stroke-linejoin="round"/>
<path d="M110.806 113.744C110.806 113.744 100.227 105.458 97.3204 105.509C96.405 105.525 92.5006 109.273 91.6477 113.04C90.7479 117.019 92.9583 121.033 94.1281 121.459C96.1155 122.179 100.634 121.311 100.634 121.311" fill="#D2D2FB"/>
<path d="M109.3 114.014C102.809 109.296 98.3533 107.301 98.3533 107.301" stroke="white" stroke-width="1.56489" stroke-linecap="round" stroke-linejoin="round"/>
<path d="M110.806 113.744C110.806 113.744 100.227 105.458 97.3204 105.509C96.405 105.525 92.5006 109.273 91.6477 113.04C90.7479 117.019 92.9583 121.033 94.1281 121.459C96.1155 122.179 100.634 121.311 100.634 121.311" stroke="#49488A" stroke-width="1.56489" stroke-linecap="round" stroke-linejoin="round"/>
<path d="M103.189 111.55C99.3587 108.091 95.7243 110.2 95.7243 110.2C97.3205 110.849 98.5372 111.933 98.5372 111.933C96.4285 113.052 95.2118 115.184 95.2118 115.184C95.2118 115.184 96.9136 115.305 97.9699 115.212C97.9699 115.212 98.142 116.503 98.5294 117.629C98.5294 117.629 103.725 116.315 105.258 115.544C105.258 115.544 104.808 113.009 103.189 111.55Z" fill="#6A6DB8"/>
<path d="M106.154 116.377C106.154 116.377 103.576 108.905 95.826 106.456" stroke="#49488A" stroke-width="1.56489" stroke-linecap="round" stroke-linejoin="round"/>
<path d="M126.29 115.618C127.28 114.887 129.671 117.97 128.603 118.822C127.535 119.675 125.172 116.444 126.29 115.618Z" fill="white"/>
<path d="M207.344 183.437C208.204 185.71 209.679 186.875 210.72 187.912C211.311 188.499 210.47 189.454 209.609 188.507C207.755 186.461 207.344 183.437 207.344 183.437Z" fill="black" stroke="black" stroke-width="1.56489" stroke-linecap="round" stroke-linejoin="round"/>
<path d="M130.743 215.204C123.106 215.572 110.896 211.241 98.2124 206.28C110.634 197.055 127.351 190.138 127.366 190.181C127.382 190.146 106.811 192.036 85.9398 201.3C81.2256 199.34 76.6522 197.403 72.47 195.6C89.2887 180.444 103.447 173.261 103.447 173.273C103.525 173.308 83.123 172.862 54.1882 187.208C49.9865 185.099 46.1212 183.073 42.5768 181.105C58.5699 168.625 78.2093 161.771 78.221 161.826C78.2797 161.755 54.2782 160.765 30.6054 173.836C25.7621 170.562 21.8381 167.365 18.7357 164.181C24.8349 160.108 38.5433 151.486 61.9266 143.708C62.0205 143.716 39.983 142.167 12.3549 155.828C6.35355 145.774 6.73695 138.012 6.76434 137.996C15.469 129.784 27.6751 122.042 43.3084 121.26C51.9074 123.521 57.7092 127.813 57.7014 127.805C57.7014 127.805 57.2202 125.254 55.3502 122.019C60.9094 122.934 66.8012 124.632 72.9708 127.242C78.7491 133.482 82.4697 138.305 82.4775 138.301C82.4775 138.301 82.5831 135.7 81.965 131.615C88.1698 135.023 94.5975 139.354 101.139 144.737C105.927 151.689 108.881 156.822 108.889 156.818C109.006 155.179 109.112 153.536 109.218 151.892C123.341 165.378 134.639 182.822 147.236 207.372" fill="#3EBAA2"/>
<path d="M109.221 151.889C109.12 153.532 109.01 155.175 108.893 156.814C108.885 156.818 105.931 151.685 101.143 144.733C94.6015 139.346 88.1737 135.019 81.969 131.612C82.5871 135.696 82.4776 138.297 82.4815 138.297C82.4736 138.301 78.7531 133.478 72.9748 127.238C66.8091 124.628 60.9134 122.93 55.3541 122.015C57.2242 125.254 57.7015 127.805 57.7054 127.801C57.7132 127.809 51.9075 123.517 43.3123 121.256C27.6791 122.038 15.473 129.781 6.76831 137.992C76.4019 121.502 117.245 159.126 145.636 208.134L147.244 207.372C134.647 182.822 123.348 165.378 109.225 151.892L109.221 151.889Z" fill="#75EADF"/>
<path d="M130.743 215.204C123.106 215.572 110.896 211.241 98.2124 206.28C110.634 197.055 127.351 190.138 127.366 190.181C127.382 190.146 106.811 192.036 85.9398 201.3C81.2256 199.34 76.6522 197.403 72.47 195.6C89.2887 180.444 103.447 173.261 103.447 173.273C103.525 173.308 83.123 172.862 54.1882 187.208C49.9865 185.099 46.1212 183.073 42.5768 181.105C58.5699 168.625 78.2093 161.771 78.221 161.826C78.2797 161.755 54.2782 160.765 30.6054 173.836C25.7621 170.562 21.8381 167.365 18.7357 164.181C24.8349 160.108 38.5433 151.486 61.9266 143.708C62.0205 143.716 39.983 142.167 12.3549 155.828C6.35355 145.774 6.73695 138.012 6.76434 137.996C15.469 129.784 27.6751 122.042 43.3084 121.26C51.9074 123.521 57.7092 127.813 57.7014 127.805C57.7014 127.805 57.2202 125.254 55.3502 122.019C60.9094 122.934 66.8012 124.632 72.9708 127.242C78.7491 133.482 82.4697 138.305 82.4775 138.301C82.4775 138.301 82.5831 135.7 81.965 131.615C88.1698 135.023 94.5975 139.354 101.139 144.737C105.927 151.689 108.881 156.822 108.889 156.818C109.006 155.179 109.112 153.536 109.218 151.892C123.341 165.378 134.639 182.822 147.236 207.372" stroke="#20564C" stroke-width="1.56489" stroke-linecap="round" stroke-linejoin="round"/>
<path opacity="0.3" d="M67.7049 125.227C65.4672 127.093 61.9657 132.163 62.4235 133.65C63.0611 135.723 68.9686 134.021 68.9686 134.021C68.9686 134.021 64.3991 140.633 65.5024 142.746C66.6056 144.854 75.3494 142.511 75.3494 142.511C75.3494 142.511 72.3135 148.622 75.6702 150.496C78.8548 152.276 86.0845 146.987 95.8181 140.629C86.777 133.755 77.5364 128.56 67.701 125.227H67.7049Z" fill="#205651"/>
<path d="M39.0989 134.057C83.483 134.26 113.85 159.744 136.634 193.671" stroke="#20564C" stroke-width="1.56489" stroke-linecap="round" stroke-linejoin="round"/>
<path d="M83.1934 132.413C87.489 122.367 77.7398 122.16 72.7165 125.282C69.1877 127.472 66.6447 129.8 66.9695 131.267C67.2824 132.668 70.7291 133.959 74.4848 133.442L78.2523 132.781" fill="#DDDCFC"/>
<path d="M83.1934 132.413C87.489 122.367 77.7398 122.16 72.7165 125.282C69.1877 127.472 66.6447 129.8 66.9695 131.267C67.2824 132.668 70.7291 133.959 74.4848 133.442L78.2523 132.781" stroke="#7481BA" stroke-width="1.56489" stroke-linecap="round" stroke-linejoin="round"/>
<path d="M66.9695 131.267C66.6409 129.8 69.0625 127.265 72.7165 125.281C75.369 129.092 74.4849 133.442 74.4849 133.442C70.7291 133.959 67.2825 132.668 66.9695 131.267Z" fill="#3F3E77"/>
<path d="M74.4849 133.442C70.7291 133.959 67.2825 132.668 66.9695 131.267C66.6409 129.8 69.0625 127.265 72.7165 125.281" stroke="#191935" stroke-width="1.56489" stroke-linecap="round" stroke-linejoin="round"/>
<path d="M90.118 134.018C91.3308 121.244 78.2405 125.712 73.8393 130.853C70.7447 134.467 68.7769 137.883 69.6415 139.373C70.5061 140.864 74.6765 141.009 78.5926 139.143C81.7928 137.621 84.9539 136.068 84.9539 136.068" fill="#DDDCFC"/>
<path d="M90.118 134.018C91.3308 121.244 78.2405 125.712 73.8393 130.853C70.7447 134.467 68.7769 137.883 69.6415 139.373C70.5061 140.864 74.6765 141.009 78.5926 139.143C81.7928 137.621 84.9539 136.068 84.9539 136.068" stroke="#7481BA" stroke-width="1.56489" stroke-linecap="round" stroke-linejoin="round"/>
<path d="M69.6415 139.373C68.7769 137.883 70.5413 134.284 73.8393 130.853C78.0528 134.092 78.5926 139.146 78.5926 139.146C74.6726 141.013 70.4631 140.793 69.6415 139.377V139.373Z" fill="#3F3E77"/>
<path d="M78.5926 139.143C74.6726 141.009 70.4631 140.79 69.6415 139.373C68.7769 137.883 70.5413 134.284 73.8393 130.853" stroke="#191935" stroke-width="1.56489" stroke-linecap="round" stroke-linejoin="round"/>
<path d="M93.0288 138.027C93.0288 138.027 92.0116 139.029 89.3552 141.642C86.1003 144.843 81.8438 146.075 80.5371 144.948C79.1639 143.767 79.9463 139.694 81.7773 135.035C83.5104 130.626 89.5978 126.885 93.4239 129.44C97.657 132.269 95.9278 139.573 95.9278 139.573" fill="#DDDCFC"/>
<path d="M93.0288 138.027C93.0288 138.027 92.0116 139.029 89.3552 141.642C86.1003 144.843 81.8438 146.075 80.5371 144.948C79.1639 143.767 79.9463 139.694 81.7773 135.035C83.5104 130.626 89.5978 126.885 93.4239 129.44C97.657 132.269 95.9278 139.573 95.9278 139.573" stroke="#7481BA" stroke-width="1.56489" stroke-linecap="round" stroke-linejoin="round"/>
<path d="M80.537 144.948C79.1638 143.767 79.6803 139.581 81.7772 135.035C87.0783 136.807 89.3552 141.638 89.3552 141.638C86.1002 144.839 81.8437 146.071 80.537 144.944V144.948Z" fill="#3F3E77"/>
<path d="M89.3552 141.642C86.1002 144.843 81.8437 146.075 80.537 144.948C79.1638 143.767 79.6803 139.581 81.7772 135.035" stroke="#191935" stroke-width="1.56489" stroke-linecap="round" stroke-linejoin="round"/>
<path d="M221.334 80.8936C230.261 81.6916 243.117 84.7823 243.117 84.7823C243.117 84.7823 246.38 93.796 247.769 102.309" stroke="#DDEDE8" stroke-width="1.56489" stroke-linecap="round" stroke-linejoin="round"/>
<path d="M209.785 81.6917C202.465 83.3387 192.935 87.8769 192.935 87.8769" stroke="#DDEDE8" stroke-width="1.56489" stroke-linecap="round" stroke-linejoin="round"/>
<path d="M247.002 116.068C245.977 120.172 243.199 126.506 243.199 126.506" stroke="#DDEDE8" stroke-width="1.56489" stroke-linecap="round" stroke-linejoin="round"/>
<path d="M167.028 108.42C173.91 101.765 180.928 96.0142 180.928 96.0142" stroke="#DDEDE8" stroke-width="1.56489" stroke-linecap="round" stroke-linejoin="round"/>
<path d="M120.849 64.0239C138.066 79.5672 143.445 100.501 143.445 100.501" stroke="#AFE2E2" stroke-width="1.56489" stroke-linecap="round" stroke-linejoin="round"/>
<path d="M97.5669 73.3743C111.209 79.8646 124.299 94.0777 124.299 94.0777" stroke="#AFE2E2" stroke-width="1.56489" stroke-linecap="round" stroke-linejoin="round"/>
</svg>
