<svg width="256" height="256" viewBox="0 0 256 256" fill="none" xmlns="http://www.w3.org/2000/svg">
<g clip-path="url(#clip0_884_63395)">
<path d="M160.163 110.562C163.067 124.104 149.455 133.692 145.571 148.319C145.571 148.319 156.594 151.469 164.047 152.098C164.047 152.098 181.194 140.446 160.163 110.562Z" fill="#DDDCFC"/>
<path d="M145.571 149.019C145.501 149.019 145.466 149.019 145.396 149.019C145.011 148.914 144.801 148.529 144.906 148.179C146.516 142.195 149.665 137.087 152.71 132.153C157.049 125.154 161.143 118.54 159.498 110.737C159.428 110.352 159.673 110.002 160.023 109.897C160.408 109.827 160.758 110.072 160.863 110.422C162.648 118.785 158.413 125.609 153.899 132.852C150.89 137.681 147.776 142.685 146.236 148.494C146.166 148.809 145.886 149.019 145.571 149.019Z" fill="#7481BA"/>
<path d="M238.092 117.281C245.23 126.799 250.899 137.122 255.273 152.028C220.875 156.927 189.452 155.493 164.012 152.063C164.467 148.319 168.211 105.873 145.431 85.6124L187.947 65.9114C204.569 77.7389 222.03 95.8652 238.092 117.246V117.281Z" fill="#DDDCFC"/>
<path d="M164.047 152.098C164.327 149.719 165.622 131.873 160.828 113.851C161.143 113.466 161.353 113.257 161.353 113.257C179.759 125.819 195.226 154.723 195.331 154.898C184.168 154.408 173.67 153.393 164.082 152.098H164.047Z" fill="#8B8BD1"/>
<path d="M163.837 152.798H163.767C163.382 152.763 163.103 152.413 163.138 152.028C163.592 148.179 164.467 137.856 162.788 125.644C160.478 108.708 154.389 95.4102 144.661 86.1721C144.381 85.8922 144.381 85.4723 144.661 85.1924C144.941 84.9124 145.361 84.9124 145.641 85.1924C155.579 94.6754 161.843 108.253 164.187 125.504C165.867 137.891 164.992 148.354 164.537 152.273C164.502 152.623 164.187 152.903 163.837 152.903V152.798Z" fill="#191935"/>
<path d="M255.308 152.763C254.993 152.763 254.713 152.554 254.643 152.274C249.744 135.547 238.827 117.246 223.08 99.3295C210.133 84.5976 196.24 72.7002 187.562 66.5415C187.247 66.3315 187.177 65.8765 187.387 65.5616C187.597 65.2466 188.052 65.1767 188.367 65.3866C197.115 71.6153 211.077 83.5479 224.13 98.3848C240.226 116.721 250.934 134.707 255.973 151.854C256.078 152.239 255.868 152.623 255.483 152.728C255.413 152.728 255.343 152.728 255.273 152.728L255.308 152.763Z" fill="#191935"/>
<path d="M152.325 151.364L166.987 190.8C166.987 190.8 205.269 213.476 232.353 199.864C252.929 189.541 247.19 136.422 223.43 105.593C223.43 105.593 196.975 109.967 179.339 124.839C179.339 124.839 189.032 139.326 191.552 151.749C191.552 151.749 169.401 149.684 152.36 151.364H152.325Z" fill="#DDDCFC"/>
<path d="M191.516 152.414C191.516 152.414 191.481 152.414 191.446 152.414C191.237 152.414 169.156 150.384 152.395 152.029C152.01 152.064 151.66 151.784 151.625 151.399C151.59 151.014 151.87 150.664 152.255 150.629C169.156 148.949 191.341 150.979 191.586 151.014C191.971 151.049 192.251 151.399 192.216 151.784C192.216 152.134 191.866 152.414 191.516 152.414Z" fill="#7481BA"/>
<path d="M191.516 152.414C191.202 152.414 190.887 152.169 190.817 151.854C188.367 139.746 178.814 125.364 178.709 125.189C178.499 124.874 178.569 124.419 178.919 124.209C179.234 123.999 179.689 124.069 179.899 124.419C180.004 124.559 189.697 139.186 192.216 151.574C192.286 151.959 192.041 152.309 191.656 152.414C191.621 152.414 191.551 152.414 191.516 152.414Z" fill="#7481BA"/>
<path d="M207.893 203.608C218.111 203.748 227.314 202.488 232.318 199.864C251.179 189.996 247.085 136.702 225.039 108.183C246.105 140.586 240.681 193.25 207.893 203.608Z" fill="#9597CF"/>
<path d="M212.232 204.413C203.519 204.413 195.191 202.663 188.612 200.668C175.945 196.854 166.707 191.465 166.637 191.395C166.287 191.185 166.182 190.765 166.392 190.45C166.602 190.136 167.022 189.996 167.336 190.206C167.441 190.276 176.54 195.595 189.032 199.339C200.51 202.803 217.306 205.567 232.038 199.234C236.657 197.239 240.191 192.27 242.221 184.817C247.225 166.551 242.711 133.657 224.48 108.603C224.235 108.288 224.305 107.868 224.619 107.623C224.934 107.378 225.354 107.448 225.599 107.763C244.075 133.168 248.659 166.586 243.551 185.167C241.381 193.04 237.602 198.324 232.563 200.493C225.949 203.328 218.951 204.413 212.197 204.413H212.232Z" fill="#7481BA"/>
<path d="M212.197 204.448C210.763 204.448 209.328 204.413 207.858 204.308C207.473 204.308 207.193 203.958 207.193 203.573C207.193 203.188 207.543 202.908 207.928 202.908C216.886 203.503 225.005 202.243 232.038 199.234C236.657 197.239 240.191 192.27 242.221 184.817C247.225 166.551 242.711 133.657 224.48 108.603C224.235 108.288 224.305 107.868 224.62 107.623C224.935 107.378 225.355 107.448 225.6 107.763C244.076 133.168 248.66 166.586 243.551 185.167C241.381 193.04 237.602 198.324 232.563 200.493C226.474 203.118 219.651 204.413 212.162 204.413L212.197 204.448Z" fill="#191935"/>
<path d="M241.136 187.791C240.576 202.558 233.753 209.942 233.753 209.942C233.753 209.942 234.103 200.074 232.388 192.76" fill="#9597CF"/>
<path d="M233.753 210.641C233.648 210.641 233.578 210.641 233.473 210.571C233.193 210.466 233.018 210.186 233.053 209.906C233.053 209.801 233.368 200.038 231.688 192.935C231.583 192.55 231.828 192.165 232.213 192.095C232.598 191.99 232.983 192.235 233.053 192.62C234.313 197.939 234.488 204.483 234.488 207.807C236.447 204.902 240.051 198.184 240.436 187.756C240.436 187.371 240.786 187.056 241.171 187.091C241.556 187.091 241.871 187.441 241.836 187.826C241.276 202.698 234.558 210.116 234.278 210.431C234.138 210.571 233.963 210.641 233.753 210.641Z" fill="#191935"/>
<path d="M242.606 175.894C245.475 188.561 241.731 197.204 241.731 197.204C241.731 197.204 240.576 192.795 238.722 188.141" fill="#9597CF"/>
<path d="M241.731 197.869C241.731 197.869 241.696 197.869 241.661 197.869C241.346 197.869 241.101 197.624 241.031 197.344C241.031 197.309 239.876 192.9 238.057 188.351C237.917 188.001 238.057 187.581 238.442 187.441C238.792 187.301 239.211 187.441 239.351 187.826C240.401 190.451 241.241 193.005 241.766 194.755C242.641 191.5 243.865 184.712 241.906 175.999C241.836 175.614 242.046 175.264 242.431 175.159C242.816 175.089 243.166 175.299 243.271 175.684C246.14 188.456 242.536 197.064 242.361 197.414C242.256 197.659 242.011 197.834 241.731 197.834V197.869Z" fill="#191935"/>
<path d="M133.674 156.858C141.792 153.218 146.831 151.924 152.325 151.329C167.127 149.719 172.97 156.368 172.97 156.368C166.987 157.033 164.117 158.642 164.117 158.642C175.98 162.141 184.623 170.61 184.623 170.61C178.114 169.84 172.445 172.079 172.445 172.079C176.61 176.068 177.309 182.297 177.309 182.297C177.309 182.297 170.171 184.607 166.987 190.766C166.987 190.766 154.669 187.301 147.776 190.66C147.776 190.66 148.336 186.986 149.875 184.957C149.875 184.957 147.531 186.042 146.201 187.231C146.201 187.231 144.731 184.572 147.426 180.583L133.709 156.858H133.674Z" fill="#57539F"/>
<path d="M166.987 191.5C166.917 191.5 166.847 191.5 166.812 191.5C166.707 191.5 154.669 188.141 148.091 191.36C147.846 191.465 147.566 191.466 147.356 191.291C147.146 191.151 147.041 190.871 147.076 190.626C147.076 190.521 147.391 188.631 148.126 186.742C147.601 187.056 147.041 187.441 146.621 187.791C146.446 187.931 146.236 188.001 146.026 187.966C145.816 187.931 145.641 187.791 145.536 187.616C145.501 187.546 144.416 185.552 145.606 182.472C145.746 182.122 146.166 181.912 146.516 182.052C146.866 182.192 147.041 182.577 146.936 182.962C146.411 184.327 146.411 185.412 146.551 186.112C147.881 185.167 149.49 184.432 149.56 184.362C149.84 184.222 150.19 184.292 150.4 184.572C150.61 184.817 150.61 185.167 150.4 185.447C149.525 186.601 148.965 188.386 148.686 189.576C151.555 188.561 155.369 188.281 160.023 188.806C163.977 189.261 167.022 190.101 167.162 190.136C167.547 190.241 167.757 190.626 167.652 191.011C167.582 191.325 167.267 191.535 166.987 191.535V191.5Z" fill="#191935"/>
<path d="M133.674 157.557C133.394 157.557 133.149 157.417 133.044 157.138C132.869 156.788 133.044 156.368 133.394 156.228C146.971 150.174 155.999 150.069 159.848 150.034C160.338 150.034 160.723 150.034 161.073 150.034C161.458 150.034 161.773 150.314 161.808 150.699C161.808 151.084 161.528 151.399 161.143 151.434C160.793 151.434 160.373 151.434 159.883 151.434C156.104 151.434 147.286 151.539 133.989 157.487C133.884 157.522 133.814 157.557 133.709 157.557H133.674Z" fill="#191935"/>
<path d="M178.184 80.7834C194.666 90.6863 206.284 94.4656 229.204 101.954C235.607 106.433 253.734 115.251 253.734 115.251C238.617 112.067 220.631 117.141 194.526 106.818C190.467 105.208 189.942 103.564 185.078 101.079C172.586 94.7105 153.27 91.7012 153.27 91.7012C151.87 89.9516 150.4 88.3069 148.791 86.7672L172.726 75.2546L178.184 80.7484V80.7834Z" fill="#49488A"/>
<path d="M253.769 115.951C253.734 115.951 253.664 115.951 253.629 115.951C248.8 114.866 243.096 114.726 236.482 114.551C224.62 114.271 209.888 113.886 193.966 107.343C193.616 107.203 193.441 106.783 193.581 106.433C193.721 106.083 194.141 105.908 194.491 106.048C210.168 112.487 224.795 112.872 236.517 113.152C240.891 113.256 244.916 113.362 248.555 113.746C242.361 110.947 232.248 106.048 228.784 102.479C228.504 102.199 228.504 101.744 228.784 101.499C229.064 101.219 229.519 101.219 229.764 101.499C234.558 106.433 253.874 114.551 254.084 114.621C254.434 114.761 254.574 115.146 254.469 115.496C254.364 115.776 254.084 115.986 253.804 115.986L253.769 115.951Z" fill="#191935"/>
<path d="M229.239 101.954C207.648 78.4039 187.982 65.9465 187.982 65.9465L156.594 78.8938C225.215 118.366 229.239 101.954 229.239 101.954Z" fill="#8588D1"/>
<path d="M229.239 102.654C229.064 102.654 228.854 102.584 228.714 102.444C207.123 79.2088 187.772 66.6465 187.598 66.5415C187.283 66.3316 187.178 65.9116 187.388 65.5616C187.598 65.2467 188.017 65.1417 188.367 65.3517C188.577 65.4916 208.068 78.1241 229.764 101.464C230.044 101.744 230.009 102.199 229.729 102.444C229.589 102.584 229.414 102.619 229.239 102.619V102.654Z" fill="#191935"/>
<path d="M143.751 47.2253C143.751 47.2253 153.724 35.5727 156.979 34.9779C157.994 34.8029 163.242 38.0922 165.027 42.1163C166.917 46.3505 165.377 51.3544 164.152 52.0893C162.088 53.349 156.839 53.3841 156.839 53.3841" fill="#D2D2FB"/>
<path d="M156.839 54.084C156.454 54.084 156.139 53.769 156.139 53.3841C156.139 52.9992 156.454 52.6843 156.839 52.6843C158.238 52.6843 162.228 52.4394 163.802 51.4945C164.677 50.9697 166.182 46.3156 164.397 42.3964C162.717 38.6172 157.958 35.6428 157.084 35.6428C154.914 36.0277 148.091 43.2361 144.276 47.6802C144.031 47.9601 143.576 47.9952 143.297 47.7503C143.017 47.5053 142.982 47.0505 143.227 46.7705C144.276 45.5458 153.444 34.9079 156.874 34.2781C158.413 33.9981 163.837 37.7074 165.692 41.8365C167.721 46.3856 166.112 51.7395 164.537 52.7193C162.333 54.049 157.084 54.119 156.874 54.119L156.839 54.084Z" fill="#49488A"/>
<g opacity="0.2">
<path d="M123.981 51.8095C123.001 51.2146 113.483 51.3896 109.984 52.8943C106.519 54.399 107.919 71.2305 109.109 72.3153C110.298 73.4 120.796 73.6799 121.741 73.4349C122.686 73.155 126.885 53.5591 123.981 51.8095Z" fill="#DEF5FF"/>
</g>
<g opacity="0.2">
<path d="M123.981 51.8095C123.001 51.2146 113.483 51.3896 109.984 52.8943C106.519 54.399 107.919 71.2305 109.109 72.3153C110.298 73.4 120.796 73.6799 121.741 73.4349C122.686 73.155 126.885 53.5591 123.981 51.8095Z" fill="#DEF5FF"/>
</g>
<path d="M119.432 74.2398C115.897 74.2398 109.809 73.9248 108.619 72.875C107.359 71.7552 106.589 61.8173 107.429 56.7783C107.849 54.2239 108.584 52.7892 109.704 52.2993C113.203 50.7947 123.001 50.4447 124.331 51.2496C124.856 51.5645 126.43 52.5093 125.276 61.4325C124.926 64.0919 124.366 67.1013 123.771 69.6558C122.756 73.8899 122.336 74.0298 121.951 74.1347C121.706 74.2047 120.761 74.2398 119.467 74.2398H119.432ZM109.599 71.8252C110.684 72.63 119.642 72.9801 121.356 72.8051C122.231 71.0555 125.031 58.1432 124.086 53.5591C123.946 52.8943 123.736 52.5443 123.596 52.4393C122.651 52.0544 113.623 52.0894 110.229 53.5591C109.984 53.6641 109.494 54.0839 109.074 55.5886C107.744 60.4176 108.794 70.7404 109.564 71.8252H109.599Z" fill="black"/>
<path d="M190.852 63.9172C190.852 63.9172 179.409 47.0507 166.847 44.4962C154.704 42.0117 145.886 44.671 132.029 49.9549C84.7187 67.9762 47.8015 121.34 38.3184 147.83C36.3239 153.358 38.8083 160.112 50.5659 148.319C115.582 82.9531 148.615 130.263 181.124 85.0877C187.282 76.5145 190.852 63.9172 190.852 63.9172Z" fill="#8588D1"/>
<path d="M152.815 105.838C129.405 112.032 101.865 103.004 61.0288 138.486L58.1594 133.483C92.4523 96.0053 137.488 106.573 152.815 105.838Z" fill="#49488A"/>
<path d="M45.0722 131.523C54.2403 128.199 61.3439 131.068 66.3828 133.378C66.3828 133.378 54.7652 143.665 50.0062 148.284C38.0387 159.902 34.7144 153.253 36.709 147.69C38.3187 143.21 42.1679 137.822 45.0373 131.523H45.0722Z" fill="#49488A"/>
<path d="M138.223 47.8202C78.7699 66.7862 42.4825 134.602 37.5835 146.85C37.5835 146.85 35.8689 152.903 38.8433 154.163C41.3977 141.741 57.4944 110.387 83.7739 85.9272C100.36 70.4954 118.347 58.7729 138.223 47.7852V47.8202Z" fill="#DCE5EA"/>
<path d="M38.8434 154.863C38.7384 154.863 38.6684 154.863 38.5634 154.793C35.0642 153.323 36.8138 146.919 36.8838 146.64C36.8838 146.64 36.8838 146.604 36.8838 146.57C39.0533 141.181 49.2012 120.92 66.8725 99.3644C76.5655 87.5369 86.9233 77.3191 97.6311 68.9908C110.613 58.8779 124.191 51.5295 137.978 47.1204C138.328 47.0154 138.678 47.1902 138.817 47.5052C138.957 47.8201 138.817 48.205 138.503 48.38C115.687 60.9773 98.9258 72.7 84.1939 86.4171C57.2845 111.437 41.7827 142.965 39.4732 154.268C39.4382 154.478 39.2983 154.653 39.1233 154.758C39.0183 154.828 38.9134 154.828 38.8084 154.828L38.8434 154.863ZM38.2485 147.059C37.8986 148.389 37.3737 151.504 38.4235 152.938C40.1381 145.87 45.1771 135.022 51.8257 124.174C57.9844 114.096 68.4472 99.2245 83.2841 85.4023C96.4763 73.1199 111.278 62.4121 130.559 51.2845C119.642 55.6936 108.899 61.9921 98.5409 70.0754C87.9031 78.3337 77.6153 88.5167 67.9923 100.239C50.4609 121.585 40.418 141.636 38.2485 147.025V147.059Z" fill="#DCE5EA"/>
<path d="M38.9835 155.353C38.2486 155.353 37.6187 155.178 37.0938 154.828C35.0993 153.498 35.2742 149.999 37.5487 144.435C42.3427 132.713 53.6104 113.327 70.7918 94.0456C83.8791 79.3837 104.98 59.6829 131.259 49.325C147.286 42.9913 159.148 41.3817 168.666 44.2511C180.284 47.7504 190.467 62.9022 190.887 63.5321C191.097 63.847 191.027 64.3019 190.677 64.5118C190.362 64.7218 189.907 64.6518 189.697 64.3018C189.697 64.2668 187.073 60.4177 183.153 56.1836C179.549 52.2994 174.02 47.3304 168.246 45.5807C159.043 42.8163 147.461 44.3911 131.749 50.6198C105.715 60.9077 84.7889 80.4335 71.8066 94.9905C54.7652 114.131 43.5675 133.342 38.8085 144.96C36.1141 151.574 37.2338 153.253 37.8637 153.673C39.5083 154.793 44.6873 152.658 50.9859 146.535C66.7327 131.208 81.8145 120.955 97.0363 115.181C110.334 110.142 121.951 109.198 132.204 108.358C148.441 107.028 162.473 105.873 176.75 88.7268C176.995 88.4469 177.45 88.3768 177.729 88.6217C178.009 88.8667 178.079 89.3217 177.834 89.6016C163.173 107.238 148.896 108.393 132.309 109.757C122.161 110.597 110.648 111.507 97.5262 116.476C82.4444 122.18 67.5375 132.328 51.9308 147.515C47.6267 151.714 42.3427 155.353 38.9485 155.353H38.9835Z" fill="#191935"/>
<path d="M136.018 53.9788C135.773 53.9788 135.493 53.839 135.388 53.594C134.793 52.4043 133.849 51.0045 133.359 50.8645C132.134 50.5146 126.675 50.0947 125.905 50.5496C125.45 50.8296 124.855 51.7044 124.576 52.1943C124.366 52.5443 123.946 52.6491 123.631 52.4392C123.281 52.2292 123.176 51.8094 123.386 51.4945C123.491 51.3545 124.296 49.9548 125.17 49.3949C126.535 48.4851 132.764 49.2549 133.744 49.5349C135.073 49.8848 136.298 52.2643 136.648 52.9991C136.823 53.349 136.648 53.769 136.333 53.944C136.228 53.979 136.123 54.0139 136.018 54.0139V53.9788Z" fill="black"/>
<path d="M175.14 50.6898C175.14 50.6898 191.656 45.8259 195.121 47.2606C196.206 47.7155 199.075 54.0141 198.305 58.9131C197.5 64.092 192.951 67.8013 191.377 67.7663C188.682 67.6964 183.678 64.5119 183.678 64.5119" fill="#D2D2FB"/>
<path d="M176.819 52.4394C176.505 52.4394 176.225 52.2294 176.155 51.9145C176.05 51.5295 176.295 51.1447 176.645 51.0747C186.582 48.5202 192.741 48.2402 193.021 48.2402C193.406 48.2402 193.721 48.5201 193.756 48.9051C193.756 49.29 193.476 49.6049 193.091 49.6399C193.021 49.6399 186.792 49.9549 177.029 52.4394C176.959 52.4394 176.924 52.4394 176.855 52.4394H176.819Z" fill="white"/>
<path d="M191.377 68.4661C191.377 68.4661 191.377 68.4661 191.342 68.4661C188.472 68.3961 183.503 65.2468 183.293 65.1068C182.978 64.8968 182.873 64.4768 183.083 64.1269C183.293 63.812 183.713 63.7071 184.063 63.9171C185.393 64.7569 189.312 66.9964 191.377 67.0664C192.601 67.0664 196.8 63.7071 197.57 58.8081C198.305 54.1891 195.576 48.3802 194.771 47.8903C192.426 46.9105 181.859 49.43 175.28 51.3546C174.895 51.4595 174.51 51.2496 174.405 50.8647C174.3 50.4798 174.51 50.0949 174.895 49.9899C176.61 49.5 191.761 45.091 195.331 46.5957C196.94 47.2606 199.74 54.0141 198.935 59.0181C198.095 64.442 193.406 68.4661 191.342 68.4661H191.377Z" fill="#49488A"/>
<path d="M185.253 51.6695C191.446 49.36 194.771 53.5941 194.771 53.5941C192.566 53.5941 190.607 54.3289 190.607 54.3289C192.601 56.6734 193.021 59.7877 193.021 59.7877C193.021 59.7877 190.922 59.1229 189.732 58.528C189.732 58.528 188.927 59.9977 187.912 61.1524C187.912 61.1524 182.348 57.1284 180.879 55.4837C180.879 55.4837 182.628 52.6842 185.218 51.7044L185.253 51.6695Z" fill="#6A6DB8"/>
<path d="M179.444 56.7435C179.269 56.7435 179.129 56.6735 178.989 56.5685C178.709 56.3236 178.674 55.8686 178.919 55.5886C179.199 55.2737 185.883 47.6453 196.486 48.4151C196.87 48.4151 197.15 48.7651 197.15 49.15C197.15 49.5349 196.8 49.8148 196.416 49.8148C186.513 49.08 180.074 56.4285 180.004 56.4985C179.864 56.6735 179.654 56.7435 179.479 56.7435H179.444Z" fill="#49488A"/>
<path d="M47.8016 143C46.4019 145.8 44.4073 147.094 42.9376 148.284C42.0978 148.949 43.0776 150.279 44.2673 149.194C46.8918 146.815 47.8016 143 47.8016 143Z" fill="black"/>
<path d="M43.3575 150.314C43.1825 150.314 43.0425 150.314 42.8676 150.244C42.3777 150.069 42.0277 149.649 41.9227 149.159C41.8178 148.634 42.0277 148.109 42.4476 147.759C42.6576 147.584 42.9026 147.41 43.1125 147.2C44.4772 146.15 46.0169 144.925 47.1017 142.685C47.2766 142.37 47.6266 142.231 47.9765 142.335C48.3264 142.44 48.5014 142.825 48.4314 143.14C48.3964 143.315 47.4516 147.199 44.6872 149.684C44.2673 150.069 43.7774 150.279 43.2875 150.279L43.3575 150.314ZM44.5472 147.899C44.3722 148.039 44.1973 148.179 44.0573 148.284C43.8124 148.459 43.6024 148.634 43.3924 148.809C43.3575 148.844 43.3225 148.879 43.3225 148.879C43.3574 148.879 43.5324 148.879 43.8124 148.634C44.0923 148.389 44.3372 148.144 44.5472 147.864V147.899Z" fill="black"/>
<path d="M155.439 40.0519C155.439 40.0519 155.404 40.0519 155.369 40.0519C155.089 40.0519 148.406 39.3871 144.521 34.6631C144.276 34.3481 144.311 33.9281 144.626 33.6832C144.941 33.4382 145.361 33.4733 145.606 33.7882C149.105 38.0574 155.404 38.6872 155.474 38.6872C155.859 38.6872 156.139 39.072 156.104 39.457C156.104 39.8069 155.754 40.0869 155.404 40.0869L155.439 40.0519Z" fill="#191935"/>
<path d="M138.748 68.396C150.05 52.0544 162.753 61.8873 163.487 73.4349C146.446 75.2545 138.748 68.396 138.748 68.396Z" fill="white"/>
<path d="M156.303 72.7538C156.586 69.5776 153.961 66.748 150.438 66.4336C146.915 66.1192 143.83 68.4391 143.546 71.6153C143.263 74.7914 145.889 77.6211 149.411 77.9355C152.934 78.2499 156.019 75.9299 156.303 72.7538Z" fill="#191935"/>
<path d="M138.748 68.3961C136.963 84.3527 158.134 82.3581 163.487 73.435C150.435 67.7312 138.748 68.3961 138.748 68.3961Z" fill="#8588D1"/>
<path d="M161.178 66.3314C160.933 66.3314 160.723 66.2264 160.583 65.9815C160.338 65.5965 154.844 56.9532 144.871 62.2021C144.521 62.3771 144.101 62.2372 143.926 61.9223C143.751 61.5723 143.891 61.1524 144.206 60.9774C153.129 56.2884 159.603 61.7473 161.773 65.2816C161.983 65.5965 161.878 66.0514 161.528 66.2613C161.423 66.3313 161.283 66.3664 161.178 66.3664V66.3314Z" fill="#191935"/>
<path d="M154.564 76.5842C145.641 76.5842 139.832 71.5103 139.517 71.2654C139.238 71.0204 139.203 70.5654 139.447 70.2855C139.692 70.0055 140.147 69.9707 140.427 70.2156C140.497 70.2856 148.686 77.354 160.128 74.4846C160.513 74.3796 160.898 74.6246 160.968 75.0095C161.038 75.3944 160.828 75.7793 160.443 75.8493C158.344 76.3742 156.349 76.5842 154.494 76.5842H154.564Z" fill="#191935"/>
<path d="M150.365 67.0315C150.155 66.1917 146.726 66.7515 146.936 67.6963C147.146 68.6411 150.61 68.0113 150.365 67.0315Z" fill="white"/>
<g opacity="0.2">
<path d="M136.018 53.2793C147.356 49.0802 159.078 54.2592 163.977 56.9187C165.482 57.7235 166.497 59.1932 166.672 60.7328C167.232 65.5268 167.197 70.6008 167.057 74.205C166.952 77.4593 164.467 79.9788 161.073 80.3287C152.36 81.2036 144.941 78.684 140.462 76.5845C137.663 75.2547 135.738 72.6653 135.423 69.8309C134.059 57.5835 135.983 53.2793 135.983 53.2793H136.018Z" fill="#DEF5FF"/>
</g>
<path d="M121.181 41.1367C120.866 41.1367 120.551 40.9267 120.481 40.5767C120.411 40.1918 120.656 39.8419 121.006 39.737C125.135 38.8621 127.76 36.9725 129.265 35.5028C130.874 33.9281 131.504 32.5284 131.504 32.5284C131.679 32.1785 132.064 32.0035 132.414 32.1785C132.764 32.3185 132.939 32.7384 132.764 33.0883C132.659 33.3333 129.929 39.282 121.286 41.1016C121.251 41.1016 121.181 41.1016 121.146 41.1016L121.181 41.1367Z" fill="#191935"/>
<path d="M157.504 81.2383C150.33 81.2383 144.277 79.1387 140.217 77.2141C137.208 75.7794 135.108 72.9799 134.759 69.9005C133.394 57.6181 135.283 53.1741 135.388 52.9991C135.458 52.8241 135.598 52.6841 135.773 52.6141C147.496 48.275 159.603 53.7339 164.292 56.2884C166.007 57.2332 167.162 58.8428 167.372 60.6625C167.932 65.5614 167.897 70.7754 167.757 74.2397C167.617 77.844 164.922 80.6434 161.143 81.0283C159.883 81.1682 158.659 81.2032 157.469 81.2032L157.504 81.2383ZM136.543 53.8389C136.193 54.9237 135.003 59.5427 136.123 69.7606C136.403 72.385 138.188 74.7296 140.777 75.9543C145.361 78.1239 152.57 80.5034 161.003 79.6636C164.047 79.3487 166.252 77.1091 166.357 74.2047C166.497 70.7754 166.532 65.6664 165.972 60.8374C165.832 59.5077 164.922 58.248 163.627 57.5481C159.148 55.0987 147.636 49.9197 136.578 53.8389H136.543Z" fill="black"/>
<path d="M134.233 108.883C137.733 106.643 143.297 98.3849 148.755 94.8506C154.214 91.3164 158.413 92.1561 162.578 89.1467C162.578 89.1467 162.823 91.7013 164.187 93.8009C164.187 93.8009 154.809 103.599 134.198 108.883H134.233Z" fill="white"/>
<path d="M154.063 92.5203L153.376 92.6575L154.899 100.275L155.585 100.138L154.063 92.5203Z" fill="#DBDBDB"/>
<path d="M148.437 95.6398L147.751 95.7793L149.334 103.563L150.02 103.424L148.437 95.6398Z" fill="#DBDBDB"/>
<path d="M134.234 109.583C133.954 109.583 133.709 109.408 133.604 109.163C133.464 108.848 133.604 108.463 133.884 108.288C135.388 107.343 137.383 105.104 139.483 102.759C142.212 99.7147 145.291 96.2503 148.406 94.2557C151.275 92.4011 153.865 91.7012 156.139 91.0713C158.344 90.4765 160.268 89.9517 162.193 88.552C162.403 88.412 162.648 88.3769 162.893 88.4819C163.138 88.5869 163.278 88.7969 163.313 89.0418C163.313 89.0418 163.592 91.4563 164.817 93.3809C164.992 93.6608 164.957 94.0108 164.747 94.2557C164.362 94.6406 155.264 104.124 134.444 109.548C134.374 109.548 134.339 109.548 134.269 109.548L134.234 109.583ZM162.053 90.3016C160.233 91.3864 158.379 91.9113 156.454 92.4362C154.179 93.0661 151.8 93.6958 149.106 95.4454C146.166 97.335 143.157 100.729 140.497 103.704C139.273 105.068 138.153 106.328 137.103 107.378C146.166 104.684 152.64 101.289 156.594 98.7697C160.268 96.4602 162.473 94.5006 163.313 93.6958C162.613 92.471 162.263 91.2114 162.053 90.3366V90.3016Z" fill="#191935"/>
<path d="M173.565 53.5239C174.615 54.8886 174.475 56.7433 173.215 57.7581C171.956 58.7379 170.101 58.458 169.016 57.0933C166.742 54.2588 166.007 49.5698 166.007 49.5698C166.007 49.5698 171.641 51.0045 173.53 53.5239H173.565Z" fill="#9FD6FF"/>
<path d="M171.501 59.0529C171.326 59.0529 171.116 59.053 170.941 59.018C169.961 58.8781 169.086 58.3531 168.491 57.5483C166.147 54.6089 165.377 49.9199 165.342 49.71C165.307 49.465 165.377 49.2549 165.552 49.08C165.727 48.905 165.972 48.87 166.182 48.905C166.427 48.975 172.061 50.4447 174.09 53.1041C175.385 54.7838 175.175 57.0584 173.6 58.3182C172.97 58.8081 172.236 59.0529 171.466 59.0529H171.501ZM166.952 50.5848C167.302 52.0895 168.106 54.8188 169.576 56.6735C169.996 57.1984 170.556 57.5134 171.151 57.6183C171.746 57.7233 172.341 57.5483 172.795 57.1984C173.74 56.4635 173.845 55.0289 173.04 53.9441C171.781 52.2994 168.631 51.1097 166.987 50.5848H166.952Z" fill="#5BABD3"/>
<path d="M180.564 77.3893C180.389 80.0487 178.289 82.1131 175.805 81.9732C173.32 81.8332 171.431 79.5937 171.571 76.9343C171.816 71.3004 175.77 65.0718 175.77 65.0718C175.77 65.0718 180.879 72.5252 180.564 77.4241V77.3893Z" fill="#9FD6FF"/>
<path d="M176.05 82.6729C175.98 82.6729 175.875 82.6729 175.77 82.6729C172.9 82.533 170.696 79.9435 170.871 76.8991C171.116 71.1603 175 64.9317 175.175 64.6867C175.315 64.4768 175.525 64.3718 175.77 64.3718C176.015 64.3718 176.225 64.4768 176.365 64.6867C176.575 65.0017 181.614 72.3851 181.299 77.4591C181.089 80.4334 178.849 82.708 176.085 82.708L176.05 82.6729ZM175.805 66.3665C174.72 68.2911 172.445 72.84 172.271 76.9342C172.166 79.2087 173.775 81.1334 175.84 81.2384C177.939 81.3433 179.689 79.6286 179.864 77.3191C180.109 73.7149 177.1 68.466 175.805 66.3665Z" fill="#5BABD3"/>
<path d="M99.9056 168.09C99.8357 168.09 99.7657 168.09 99.6957 168.055C99.3458 167.915 99.1358 167.53 99.2758 167.18C101.9 159.517 105.959 155.003 110.753 154.443C111.138 154.408 111.488 154.688 111.523 155.073C111.558 155.458 111.278 155.808 110.893 155.843C106.729 156.298 102.985 160.602 100.605 167.635C100.501 167.915 100.221 168.125 99.9406 168.125L99.9056 168.09Z" fill="#ACB4D1"/>
<g opacity="0.6">
<path d="M94.9717 168.09C94.9367 168.09 94.8667 168.09 94.8317 168.09C94.4468 168.02 94.2019 167.635 94.3069 167.25C94.3418 167.006 95.5666 161.582 99.0309 157.103C99.2758 156.788 99.6957 156.753 100.011 156.998C100.326 157.243 100.361 157.662 100.116 157.977C96.8263 162.212 95.6366 167.495 95.6366 167.565C95.5666 167.88 95.2866 168.125 94.9367 168.125L94.9717 168.09Z" fill="#ACB4D1"/>
</g>
<g opacity="0.4">
<path d="M97.1062 156.228C97.0012 156.228 96.9313 156.228 96.8263 156.158C96.4764 156.018 96.3014 155.598 96.4764 155.248C96.5463 155.108 96.9313 154.338 98.7509 152.448C99.0308 152.169 99.4507 152.169 99.7307 152.448C100.011 152.728 100.011 153.148 99.7307 153.428C98.086 155.108 97.7361 155.808 97.7361 155.808C97.6311 156.053 97.3512 156.228 97.1062 156.228Z" fill="#ACB4D1"/>
</g>
<path d="M30.7252 201.228C30.4452 203.293 32.2998 205.357 35.8341 206.302L103.195 223.449C105.575 224.043 108.129 223.729 110.683 222.609C118.382 219.144 137.103 210.641 145.326 206.897C147.706 205.812 149.42 205.007 150.12 200.738C150.12 200.738 52.2807 200.073 30.7252 201.228Z" fill="#A3ABC4"/>
<path d="M105.68 224.463C104.805 224.463 103.93 224.359 103.055 224.149L35.6591 207.002C31.9149 206.022 29.6754 203.713 30.0253 201.158C30.0603 200.808 30.3402 200.564 30.6902 200.564C52.0357 199.409 149.175 200.038 150.155 200.073C150.365 200.073 150.54 200.179 150.68 200.318C150.82 200.458 150.855 200.668 150.82 200.878C150.085 205.532 148.021 206.477 145.641 207.562C135.878 212.006 118.382 219.949 110.998 223.274C109.214 224.079 107.429 224.498 105.68 224.498V224.463ZM31.425 201.893C31.6 203.468 33.3496 204.938 36.0091 205.637L103.37 222.784C105.61 223.344 107.989 223.064 110.404 221.979C117.787 218.655 135.283 210.711 145.046 206.267C147.146 205.322 148.581 204.658 149.28 201.438C139.762 201.368 52.8055 200.878 31.39 201.928L31.425 201.893Z" fill="#646D8E"/>
<path d="M31.075 201.543L104.49 220.299C105.574 220.579 108.899 219.705 111.943 218.34L146.376 202.838C149.385 201.473 150.96 200.144 149.875 199.864L71.8065 179.918C70.7217 179.638 67.3974 180.513 64.353 181.877L34.5743 198.569C31.5649 199.934 29.9902 201.263 31.075 201.543Z" fill="#D3D8E2"/>
<path d="M104.98 221.034C104.735 221.034 104.49 221.034 104.315 220.964L30.9 202.208C30.1652 202.033 30.0602 201.473 30.0252 201.298C29.9552 200.353 31.3549 199.234 34.2593 197.939L64.0031 181.247C64.0031 181.247 64.0381 181.247 64.0731 181.247C66.8375 179.988 70.5467 178.868 71.9814 179.253L150.05 199.199C150.785 199.374 150.89 199.933 150.925 200.108C150.995 201.053 149.56 202.173 146.656 203.468L112.223 218.969C109.809 220.054 106.694 221.034 104.98 221.034ZM31.7398 200.983L104.665 219.634C105.469 219.844 108.549 219.11 111.663 217.71L146.096 202.208C147.846 201.438 148.755 200.808 149.21 200.423L71.6315 180.583C70.8267 180.373 67.7473 181.107 64.668 182.507L34.9242 199.199C34.9242 199.199 34.8892 199.199 34.8542 199.199C33.1046 199.968 32.1947 200.598 31.7398 200.983Z" fill="#646D8E"/>
<path d="M103.65 215.33L121.461 207.492L58.4744 191.395L40.6631 199.234L103.65 215.33Z" fill="#B4BDD1"/>
<path d="M103.195 199.549C103.125 199.549 103.09 199.549 103.02 199.549L78.1402 193.495C77.8953 193.425 77.6853 193.215 77.6153 192.97C77.5454 192.725 77.6503 192.445 77.8603 192.27C77.8953 192.235 88.2181 187.266 88.673 187.196C88.778 187.196 88.883 187.196 88.988 187.196L114.008 193.6C114.288 193.67 114.498 193.915 114.533 194.23C114.533 194.51 114.393 194.825 114.113 194.93C103.72 199.514 103.44 199.584 103.335 199.584C103.3 199.584 103.23 199.584 103.195 199.584V199.549ZM80.3798 192.55L103.16 198.079C104 197.729 107.814 196.084 111.698 194.37L88.883 188.526C87.8682 188.946 83.1092 191.221 80.4148 192.515L80.3798 192.55Z" fill="#646D8E"/>
<path d="M30.1304 201.403L101.061 219.354C103.23 219.879 104.21 219.075 103.265 217.535L80.4149 179.813C79.4701 178.273 76.9506 176.593 74.8161 176.034L3.88588 158.082C1.71634 157.557 0.736546 158.362 1.68135 159.902L24.5316 197.624C25.4764 199.164 27.9958 200.843 30.1304 201.403Z" fill="#BFC6D6"/>
<path d="M102.25 220.229C101.83 220.229 101.375 220.159 100.886 220.054L29.9554 202.103C27.6109 201.508 24.9515 199.724 23.9017 198.009L1.05146 160.287C0.316612 159.062 0.631546 158.327 0.876495 157.977C1.40138 157.242 2.52115 157.067 4.02584 157.452L74.956 175.404C77.3005 175.998 79.96 177.783 80.9748 179.498L103.825 217.22C104.56 218.445 104.245 219.179 104 219.529C103.65 220.019 103.02 220.264 102.215 220.264L102.25 220.229ZM2.66112 158.642C2.2762 158.642 2.06625 158.712 1.99627 158.782C1.99627 158.817 1.92628 159.062 2.24122 159.552L25.0914 197.274C25.9313 198.674 28.3108 200.249 30.2704 200.738L101.201 218.69C102.25 218.97 102.775 218.795 102.88 218.69C102.88 218.655 102.95 218.41 102.635 217.92L79.785 180.198C78.9452 178.798 76.5657 177.223 74.6061 176.733L3.67591 158.782C3.256 158.677 2.90607 158.642 2.66112 158.642Z" fill="#646D8E"/>
<path d="M30.1304 201.403L101.061 219.354C103.23 219.879 104.21 219.075 103.265 217.535L80.4149 179.813C79.4701 178.273 76.9506 176.593 74.8161 176.034L3.88588 158.082C1.71634 157.557 0.736546 158.362 1.68135 159.902L24.5316 197.624C25.4764 199.164 27.9958 200.843 30.1304 201.403Z" fill="#D3D8E2"/>
<path d="M102.25 220.229C101.83 220.229 101.375 220.159 100.886 220.054L29.9554 202.103C27.6109 201.508 24.9515 199.724 23.9017 198.009L1.05146 160.287C0.316612 159.062 0.631546 158.327 0.876495 157.977C1.40138 157.242 2.52115 157.067 4.02584 157.452L74.956 175.404C77.3005 175.998 79.96 177.783 80.9748 179.498L103.825 217.22C104.56 218.445 104.245 219.179 104 219.529C103.65 220.019 103.02 220.264 102.215 220.264L102.25 220.229ZM2.66112 158.642C2.2762 158.642 2.06625 158.712 1.99627 158.782C1.99627 158.817 1.92628 159.062 2.24122 159.552L25.0914 197.274C25.9313 198.674 28.3108 200.249 30.2704 200.738L101.201 218.69C102.25 218.97 102.775 218.795 102.88 218.69C102.88 218.655 102.95 218.41 102.635 217.92L79.785 180.198C78.9452 178.798 76.5657 177.223 74.6061 176.733L3.67591 158.782C3.256 158.677 2.90607 158.642 2.66112 158.642Z" fill="#646D8E"/>
<path d="M29.5005 202.348L100.431 220.299C102.6 220.824 103.58 220.019 102.635 218.48L79.785 180.758C78.8402 179.218 76.3207 177.538 74.1862 176.978L3.25601 159.027C1.08646 158.502 0.106661 159.307 1.05146 160.847L23.9017 198.569C24.8465 200.109 27.366 201.788 29.5005 202.348Z" fill="#D3D8E2"/>
<path d="M101.655 221.174C101.235 221.174 100.781 221.104 100.291 220.999L29.3605 203.048C27.0159 202.453 24.3565 200.668 23.3067 198.954L0.456487 161.231C-0.278359 160.007 0.036575 159.272 0.281524 158.922C0.806414 158.187 1.92618 158.012 3.43087 158.397L74.361 176.348C76.7056 176.943 79.365 178.728 80.3798 180.443L103.23 218.165C103.965 219.389 103.65 220.124 103.405 220.474C103.055 220.964 102.425 221.209 101.62 221.209L101.655 221.174ZM2.06615 159.587C1.68123 159.587 1.47127 159.657 1.40128 159.727C1.40128 159.762 1.3313 160.007 1.64624 160.497L24.4965 198.219C25.3363 199.619 27.7158 201.193 29.6754 201.683L100.606 219.634C101.655 219.914 102.18 219.739 102.285 219.634C102.285 219.599 102.355 219.354 102.04 218.865L79.19 181.142C78.3502 179.743 75.9707 178.168 74.0111 177.678L3.08094 159.727C2.66103 159.622 2.3111 159.587 2.06615 159.587Z" fill="#646D8E"/>
<path d="M45.5971 184.922C41.9578 184.012 40.6631 186.007 42.6927 189.366C44.7222 192.725 49.3413 196.189 52.9805 197.099C56.6198 198.009 57.9145 196.014 55.8849 192.655C53.8553 189.296 49.2363 185.832 45.5971 184.922Z" fill="#B4BDD1"/>
<path d="M108.094 167.39C105.924 174.529 122.896 181.982 126.535 173.654C130.174 165.291 109.949 161.372 108.094 167.39Z" fill="#DDDCFC"/>
<path d="M107.919 166.865C105.959 170.995 103.825 182.122 103.825 182.122C103.09 188.491 104.735 193.53 106.449 193.845C108.024 194.16 114.148 190.276 115.197 184.327C115.512 182.402 116.247 177.888 116.702 174.914" fill="#DDDCFC"/>
<path d="M106.624 194.58C106.519 194.58 106.414 194.58 106.309 194.58C103.895 194.125 102.425 188.281 103.125 182.087C103.125 182.087 103.125 182.087 103.125 182.052C103.195 181.597 105.26 170.785 107.254 166.621C107.429 166.271 107.849 166.131 108.199 166.306C108.549 166.48 108.689 166.9 108.514 167.25C106.659 171.17 104.595 181.737 104.49 182.332C103.755 188.736 105.575 193.075 106.554 193.25C106.799 193.285 107.744 193.075 109.179 192.095C110.229 191.36 113.728 188.666 114.463 184.292C114.813 182.332 115.547 177.573 115.967 174.879C116.037 174.494 116.387 174.249 116.772 174.284C117.157 174.354 117.402 174.704 117.367 175.089C116.947 177.748 116.212 182.542 115.862 184.502C115.023 189.401 111.138 192.41 109.984 193.215C109.459 193.565 107.814 194.65 106.624 194.65V194.58Z" fill="#7481BA"/>
<path d="M106.379 194.23C108.164 194.58 114.323 190.346 115.197 184.327C115.197 184.327 107.919 185.132 103.825 182.122C103.405 188.561 104.35 193.81 106.379 194.195V194.23Z" fill="#3F3E77"/>
<path d="M106.659 194.93C106.519 194.93 106.379 194.93 106.239 194.895C105.539 194.755 104.875 194.23 104.315 193.39C102.95 191.29 102.04 186.986 103.125 181.982C103.195 181.597 103.58 181.353 103.965 181.457C104.35 181.527 104.595 181.912 104.49 182.297C103.51 186.881 104.315 190.871 105.469 192.655C105.819 193.18 106.169 193.495 106.484 193.565C106.939 193.67 107.989 193.32 109.284 192.41C111.453 190.87 113.938 187.931 114.463 184.292C114.533 183.907 114.882 183.627 115.267 183.697C115.652 183.767 115.932 184.117 115.862 184.502C115.267 188.596 112.503 191.85 110.088 193.565C108.794 194.51 107.534 195 106.624 195L106.659 194.93Z" fill="#191935"/>
<path d="M124.016 176.349C128.67 178.133 131.854 181.703 131.329 183.452C130.769 185.272 126.36 186.602 120.901 186.532C109.634 186.392 111.348 175.229 112.748 169.98" fill="#DDDCFC"/>
<path d="M121.286 187.196C121.146 187.196 121.006 187.196 120.866 187.196C117.262 187.161 114.603 186.007 112.958 183.802C109.948 179.813 111.103 173.269 112.083 169.735C112.188 169.35 112.573 169.14 112.958 169.245C113.343 169.35 113.553 169.735 113.448 170.12C112.538 173.409 111.453 179.463 114.113 182.962C115.477 184.782 117.787 185.727 120.936 185.797C126.465 185.867 130.314 184.502 130.699 183.207C131.049 182.052 128.46 178.693 123.806 176.944C123.456 176.804 123.246 176.419 123.386 176.034C123.526 175.684 123.911 175.474 124.296 175.614C129.055 177.398 132.729 181.213 132.029 183.592C131.294 186.077 126.185 187.161 121.321 187.161L121.286 187.196Z" fill="#7481BA"/>
<path d="M125.45 176.699C125.45 176.699 127.165 177.189 128.355 177.643C133.009 179.428 136.193 182.997 135.668 184.747C135.108 186.567 130.139 187.826 125.24 187.826C117.157 187.826 116.877 179.113 118.067 173.444" fill="#DDDCFC"/>
<path d="M125.24 188.491H125.17C122.476 188.491 120.376 187.581 118.942 185.797C115.792 181.912 116.912 175.229 117.332 173.304C117.402 172.919 117.787 172.674 118.172 172.779C118.557 172.849 118.802 173.234 118.697 173.619C118.312 175.404 117.297 181.563 120.026 184.957C121.181 186.392 122.931 187.126 125.17 187.126H125.24C130.349 187.126 134.583 185.762 134.933 184.572C135.283 183.417 132.694 180.058 128.04 178.308C126.92 177.888 125.24 177.398 125.205 177.398C124.82 177.293 124.61 176.908 124.715 176.524C124.82 176.139 125.205 175.929 125.59 176.034C125.66 176.034 127.34 176.558 128.53 176.978C133.289 178.763 136.963 182.577 136.263 184.957C135.458 187.581 129.229 188.526 125.205 188.526L125.24 188.491Z" fill="#7481BA"/>
<path d="M135.633 184.712C135.073 186.531 130.664 187.861 125.205 187.791C124.575 181.913 128.355 177.608 128.355 177.608C133.009 179.393 136.193 182.962 135.668 184.712H135.633Z" fill="#3F3E77"/>
<path d="M125.625 188.491C125.485 188.491 125.345 188.491 125.205 188.491C124.82 188.491 124.505 188.176 124.505 187.791C124.505 187.406 124.82 187.091 125.205 187.091C130.734 187.161 134.583 185.797 134.968 184.537C135.318 183.382 132.729 180.023 128.075 178.273C127.725 178.133 127.515 177.748 127.655 177.363C127.795 177.013 128.18 176.804 128.565 176.944C133.324 178.728 136.998 182.542 136.298 184.922C135.563 187.406 130.454 188.491 125.59 188.491H125.625Z" fill="#191935"/>
<path d="M133.919 157.418C137.803 158.012 141.722 160.077 141.722 160.077C140.987 161.512 140.392 163.751 140.392 163.751C145.396 164.486 149.14 167.461 149.14 167.461C146.761 168.965 143.892 171.52 143.892 171.52C147.741 173.619 149.49 176.139 149.49 176.139C147.041 179.393 147.426 182.962 147.426 182.962C136.123 190.766 130.734 181.947 130.734 181.947C130.734 181.947 125.87 182.297 124.716 180.723C123.421 178.903 120.481 175.544 122.616 169.35L107.884 166.901C113.658 155.283 133.884 157.418 133.884 157.418H133.919Z" fill="#DDDCFC"/>
<path d="M107.919 167.565C107.814 167.565 107.709 167.565 107.604 167.496C107.254 167.321 107.114 166.901 107.289 166.551C109.598 161.932 114.917 158.642 122.651 157.103C128.425 155.948 133.498 156.158 133.708 156.158C134.093 156.158 134.408 156.508 134.373 156.893C134.338 157.278 134.023 157.557 133.638 157.557C133.428 157.557 113.658 156.858 108.514 167.18C108.409 167.425 108.129 167.565 107.884 167.565H107.919Z" fill="#7481BA"/>
<path d="M139.307 187.161C139.132 187.161 138.957 187.161 138.782 187.161C135.773 187.021 133.009 185.517 130.524 182.752C129.579 182.997 127.375 183.347 125.135 181.842C124.82 181.632 124.715 181.177 124.96 180.863C125.17 180.548 125.625 180.443 125.94 180.688C128.18 182.227 130.419 181.318 130.489 181.283C130.769 181.178 131.084 181.248 131.294 181.493C133.568 184.187 136.123 185.622 138.852 185.762C143.331 185.971 146.936 182.612 146.971 182.577C147.251 182.297 147.706 182.332 147.95 182.577C148.23 182.857 148.195 183.312 147.95 183.557C147.81 183.697 144.171 187.126 139.307 187.126V187.161Z" fill="#7481BA"/>
</g>
<defs>
<clipPath id="clip0_884_63395">
<rect width="256" height="256" fill="white"/>
</clipPath>
</defs>
</svg>
