<svg xmlns="http://www.w3.org/2000/svg" width="264" height="264" fill="none" viewBox="0 0 264 264">
  <g clip-path="url(#a)">
    <path fill="#D2CBF6" d="M0 0h264v264H0z"/>
    <path fill="#251F47" d="M128.8 24c.9-2.5 5.7-2.5 6.5.1a36.7 36.7 0 0 0 25.7 26c2.1.7 2.2 5.6 0 6.4-14.7 5.8-25 17-25 29.5v21a4 4 0 0 0 4 4h3.5c.5 0 1 0 1.5-.3a36.8 36.8 0 0 0 21.8-24.6c.9-2.6 5.7-2.6 6.5 0a36.7 36.7 0 0 0 25.7 26c2.1.7 2.2 5.6 0 6.4-14.7 5.8-25 17-25 29.5v19a4 4 0 0 0 4 4h1.5c.5 0 1 0 1.5-.3a36.8 36.8 0 0 0 21.8-24.6c.9-2.6 5.7-2.6 6.5 0a36.7 36.7 0 0 0 25.7 26c2.1.7 2.2 5.6 0 6.4-14.7 5.8-25 17-25 29.5v142a4 4 0 0 1-8 0V208c0-12-9.4-22.8-23.1-28.7l-1.4-.3c-2 0-3.5 1.6-3.5 3.5V310a4 4 0 0 1-8 0V183a4 4 0 0 0-4-4h-22a4 4 0 0 0-4 4v94a4 4 0 0 1-8 0v-94a4 4 0 0 0-4-4h-22a4 4 0 0 0-4 4v127a4 4 0 0 1-8 0V182.4a3.4 3.4 0 0 0-4.7-3.1C71.5 185.2 62 196 62 208v158a4 4 0 0 1-8 0V208c0-12.5-10.3-23.7-25-29.5-2.1-.8-2-5.7.2-6.4a37 37 0 0 0 25.6-26c.9-2.6 5.7-2.6 6.5 0a36.3 36.3 0 0 0 21.8 24.6l1.5.3H86a4 4 0 0 0 4-4v-19c0-12.5-10.3-23.7-25-29.5-2.1-.8-2-5.7.2-6.4a37 37 0 0 0 25.6-26c.9-2.6 5.7-2.6 6.5 0a36.4 36.4 0 0 0 21.8 24.6l1.5.3h3.4a4 4 0 0 0 4-4V86c0-12.5-10.3-23.7-25-29.5-2.1-.8-2-5.7.2-6.4a37 37 0 0 0 25.6-26Zm-6.1 95-1.5.3C107.4 125.3 98 136 98 148v19a4 4 0 0 0 4 4h22a4 4 0 0 0 4-4v-44a4 4 0 0 0-4-4h-1.3Zm13.3 48a4 4 0 0 0 4 4h22a4 4 0 0 0 4-4v-19c0-12-9.4-22.8-23-28.7-.5-.2-1-.3-1.6-.3H140a4 4 0 0 0-4 4v44Z"/>
  </g>
  <defs>
    <clipPath id="a">
      <path fill="#fff" d="M0 0h264v264H0z"/>
    </clipPath>
  </defs>
</svg>
