<svg xmlns="http://www.w3.org/2000/svg" width="1920" height="1080" fill="none" viewBox="0 0 1920 1080">
  <g clip-path="url(#a)">
    <path fill="#201B3E" d="M0 0h1920v1080H0z"/>
    <g filter="url(#b)">
      <ellipse cx="960.5" cy="460" fill="#201B3E" rx="646.5" ry="647"/>
    </g>
    <g filter="url(#c)">
      <ellipse cx="960.5" cy="460" fill="#201B3E" rx="422.5" ry="423"/>
    </g>
    <g filter="url(#d)">
      <circle cx="960.5" cy="460.5" r="263.5" fill="#201B3E"/>
    </g>
    <g fill="#C5BAFF">
      <path d="M952 507a4 4 0 0 1 4 4v81a132 132 0 0 1-30-4.4V511a4 4 0 0 1 4-4h22Zm38 0a4 4 0 0 1 4 4v76.6a132 132 0 0 1-30 4.3V511a4 4 0 0 1 4-4h22Zm-75.4 0c1.9 0 3.4 1.5 3.4 3.4v74.8c-10-3.3-19.3-7.8-28-13.3V536c0-12 9.5-22.8 23.3-28.7.4-.2.8-.3 1.3-.3Zm90.9 0c.5 0 1 0 1.4.3 13.7 5.9 23.1 16.7 23.1 28.7v36c-8.7 5.4-18 9.9-28 13.2v-74.7c0-2 1.6-3.5 3.5-3.5Z"/>
      <path d="M960 328a132 132 0 0 1 78 238.5V536c0-12.5 10.3-23.7 25-29.5 2.2-.8 2.2-5.7 0-6.4a36.7 36.7 0 0 1-25.7-26c-.8-2.6-5.6-2.6-6.5 0a36.7 36.7 0 0 1-21.8 24.6l-1.5.3h-1.5a4 4 0 0 1-4-4v-19c0-12.5 10.3-23.7 25-29.5 2.2-.8 2.2-5.7 0-6.4a36.7 36.7 0 0 1-25.7-26c-.8-2.6-5.6-2.6-6.5 0a36.8 36.8 0 0 1-21.8 24.6l-1.5.3H968a4 4 0 0 1-4-4v-21c0-12.5 10.3-23.7 25-29.5 2.2-.8 2.1-5.7 0-6.4a36.7 36.7 0 0 1-25.7-26c-.8-2.6-5.6-2.6-6.5 0a37 37 0 0 1-25.6 26c-2.2.7-2.3 5.6-.2 6.4 14.7 5.8 25 17 25 29.5v21a4 4 0 0 1-4 4h-3.4c-.5 0-1 0-1.5-.3a36.4 36.4 0 0 1-21.8-24.6c-.8-2.6-5.6-2.6-6.5 0a37 37 0 0 1-25.6 26c-2.2.7-2.3 5.6-.2 6.4 14.7 5.8 25 17 25 29.5v19a4 4 0 0 1-4 4h-1.4c-.5 0-1 0-1.5-.3a36.4 36.4 0 0 1-21.8-24.6c-.8-2.6-5.6-2.6-6.5 0a37 37 0 0 1-25.6 26c-2.2.7-2.3 5.6-.2 6.4 14.7 5.8 25 17 25 29.5v30.5A132 132 0 0 1 960 328Z"/>
      <path d="M952 447a4 4 0 0 1 4 4v44a4 4 0 0 1-4 4h-22a4 4 0 0 1-4-4v-19c0-12 9.4-22.8 23.2-28.7.4-.2 1-.3 1.5-.3h1.3Zm17.4 0 1.6.3c13.6 6 23 16.7 23 28.7v19a4 4 0 0 1-4 4h-22a4 4 0 0 1-4-4v-44a4 4 0 0 1 4-4h1.4Z"/>
    </g>
    <path fill="url(#e)" d="M0 592h1923v487H0z"/>
    <path fill="#ECE9EC" d="M335.5 855h14.3l39.7 105h-12.8L343 869.2h-.8L308.6 960h-12.8l39.8-105Zm-16.6 67.5h47.5l4.5 11.3h-56.5l4.5-11.3ZM401 882h9l1.5 10.5h.8a22 22 0 0 1 9.6-9.1c4-2 8.3-2.9 12.9-2.9a28.5 28.5 0 0 1 25.3 14.9 34.4 34.4 0 0 1 4 16.6v48h-11.3v-48a23 23 0 0 0-2.6-11.3 16 16 0 0 0-6.9-7.2 19.5 19.5 0 0 0-10-2.5 20.5 20.5 0 0 0-18.3 10.6 20.8 20.8 0 0 0-2.7 10.4v48H401v-78Zm106 78c-3.6 0-7-.9-10-2.5a19 19 0 0 1-9.4-17v-48h-12V882h12l1.5-21h9.7v21h20.3v10.5h-20.3v48a8.7 8.7 0 0 0 9 9h11.3V960h-12Zm49.2 1.5c-5.4 0-10.1-1-14.2-3.1s-7.3-5-9.5-8.6a23.6 23.6 0 0 1 .2-24.4c2.3-3.8 5.6-6.6 10-8.8a38 38 0 0 1 15.8-3.1H584V924h-25.6c-6 0-10.4 1.2-13.5 3.6a12 12 0 0 0-4.5 9.9c0 4.1 1.4 7.4 4.2 9.9a17 17 0 0 0 11.5 3.6c5 0 9.2-1 12.8-2.9a21 21 0 0 0 8.2-7.9c2-3.3 3-7 3-11v-21c0-5.2-1.7-9.3-5.2-12.4a18.9 18.9 0 0 0-13.5-4.8c-4.7 0-8.6 1-11.7 3-3 2-5.1 4.8-6.3 8.3h-12a27 27 0 0 1 10.6-16.1 32.3 32.3 0 0 1 19.4-5.7c6.2 0 11.5 1.1 16 3.5 4.5 2.3 8 5.5 10.4 9.7 2.4 4.2 3.6 9 3.6 14.5V960h-9l-1.5-10.5h-.8c-1.7 3-4.7 5.8-9.1 8.3a29.5 29.5 0 0 1-14.9 3.7Z"/>
    <path fill="#ADA0EE" fill-opacity=".8" d="M647.5 855h35.2c9.4 0 17.7 2 24.8 6 7 4 12.6 10 16.5 17.9 4 7.9 6 17.4 6 28.6 0 11.2-2 20.8-6 28.6a40.3 40.3 0 0 1-16.5 17.9c-7.1 4-15.4 6-24.8 6h-35.2V855Zm35.2 93.8c6.8 0 12.8-1.6 18-4.7a32 32 0 0 0 12.2-14.1 52.8 52.8 0 0 0 4.3-22.5c0-8.8-1.4-16.3-4.3-22.5a31 31 0 0 0-12.2-14 33.6 33.6 0 0 0-18-4.8h-22.5v82.5h22.5Zm97.8 12.7a37 37 0 0 1-18.8-4.6A33.4 33.4 0 0 1 749 943a49 49 0 0 1-4.5-22c0-8.5 1.5-15.8 4.5-21.9 3-6.1 7.1-10.7 12.4-13.8a35.2 35.2 0 0 1 18.3-4.8 33 33 0 0 1 31.2 19.6 39 39 0 0 1 3.3 24.6h-62.4v-10.5h51.8c-.4-4.2-1.6-8-3.5-11.5a22.4 22.4 0 0 0-20.4-11.7c-5.5 0-10 1.3-13.6 3.9a22.6 22.6 0 0 0-8 10.6 45.2 45.2 0 0 0-2.4 15.5c0 6.4 1 11.9 3 16.4 2 4.5 4.9 7.9 8.6 10.1a25 25 0 0 0 13.2 3.5 22.6 22.6 0 0 0 20.3-11.3h12a31.2 31.2 0 0 1-18.4 19.4 38.5 38.5 0 0 1-14 2.4Zm76.7 0a35 35 0 0 1-14-2.7 30.3 30.3 0 0 1-10.4-7.6 27.6 27.6 0 0 1-5.6-11.5h12c1.1 3.6 3.3 6.4 6.6 8.4s7.1 2.9 11.4 2.9c6.1 0 10.8-1.1 14-3.3 3.2-2.2 4.8-5.1 4.8-8.7 0-2.7-.9-4.9-2.6-6.5a15 15 0 0 0-6.3-3.5 95 95 0 0 0-10.2-2.9 108 108 0 0 1-14.2-4 22.8 22.8 0 0 1-9.3-6.8 20.1 20.1 0 0 1-4-13c0-3.8 1.2-7.4 3.4-10.7 2.3-3.4 5.5-6.1 9.7-8.1 4.3-2 9.2-3 14.7-3 4.6 0 8.9.8 12.8 2.3a25.2 25.2 0 0 1 15.7 17.2h-12c-1.2-2.8-3.2-5-6-6.6a20.4 20.4 0 0 0-10.5-2.4c-5.5 0-9.6 1-12.4 3a9.8 9.8 0 0 0-4.1 8.3c0 2.9.9 5.2 2.6 6.9 1.8 1.6 3.9 3 6.4 4 2.6.9 6.2 1.9 10.8 3 5.7 1.4 10.3 2.8 13.8 4.2a18.4 18.4 0 0 1 12.9 18.6c0 4-1.2 7.8-3.7 11.3a25.3 25.3 0 0 1-10.5 8.2c-4.5 2-9.8 3-15.8 3Zm46-79.5h11.3v78h-11.3v-78Zm5.6-14.3a8 8 0 0 1-5.7-2.2 7.5 7.5 0 0 1-2.3-5.5c0-2.3.8-4.1 2.3-5.6a7.8 7.8 0 0 1 5.7-2.4c2.2 0 4 .8 5.5 2.4a7.5 7.5 0 0 1 2.3 5.6 8 8 0 0 1-2.3 5.5 7.5 7.5 0 0 1-5.5 2.3ZM968 990c-5.3 0-10.3-.9-14.9-2.5a32 32 0 0 1-19.6-20.8h12a20 20 0 0 0 8.4 9.5c3.8 2.2 8.5 3.3 14 3.3a25 25 0 0 0 16.9-5.4c4.3-3.5 6.4-8.7 6.4-15.6V945h-.7c-2.7 3.4-6.1 6-10.2 7.8a36 36 0 0 1-14.6 2.7 31.2 31.2 0 0 1-29.4-17.3A44.1 44.1 0 0 1 932 918c0-7.8 1.4-14.5 4.3-20.1a30 30 0 0 1 12-12.9 34 34 0 0 1 17.4-4.5c5.5 0 10.5 1 14.9 3s8 4.8 10.6 8.3h.8l1.5-9.8h9v76.5a29 29 0 0 1-9.5 23.1 36.3 36.3 0 0 1-25 8.4Zm-.8-45a21.4 21.4 0 0 0 21-12.5c2-4 3-8.9 3-14.5s-1-10.5-3-14.5c-2-4.1-4.8-7.3-8.4-9.4a24.6 24.6 0 0 0-12.6-3.1c-4.8 0-9 1-12.6 3.1a21.2 21.2 0 0 0-8.4 9.4c-2 4-3 8.9-3 14.5s1 10.5 3 14.5c2 4.1 4.8 7.3 8.4 9.4 3.6 2 7.8 3.1 12.6 3.1Zm56.6-63h9l1.5 10.5h.7a22 22 0 0 1 9.6-9.1c4-2 8.3-2.9 13-2.9 5.4 0 10.4 1.3 14.8 3.9 4.5 2.5 8 6.1 10.5 11a34.4 34.4 0 0 1 3.9 16.6v48h-11.3v-48a23 23 0 0 0-2.5-11.3 16 16 0 0 0-7-7.2 19.5 19.5 0 0 0-10-2.5 20.5 20.5 0 0 0-18.3 10.6 20.8 20.8 0 0 0-2.7 10.4v48h-11.2v-78Zm150.5 79.5a44 44 0 0 1-18.3-3.5 35.1 35.1 0 0 1-13-9.9 38.3 38.3 0 0 1-7-15.1h12.8a25 25 0 0 0 9.3 12.9c4.4 2.9 9.8 4.4 16.2 4.4 5.6 0 10.3-.8 14.1-2.4 3.8-1.8 6.6-4 8.5-6.8 2-2.8 2.9-6 2.9-9.6 0-3.8-1.1-6.9-3.5-9.1-2.1-2.4-5-4.1-8.3-5.3-3.3-1.3-8-2.7-14-4.2a126 126 0 0 1-18.2-5.5 30 30 0 0 1-11.8-8.9c-3.3-4.1-5-9.6-5-16.5a26 26 0 0 1 4.3-14.4c2.8-4.4 6.8-7.9 12.1-10.4a44 44 0 0 1 18.9-3.7c6.3 0 11.9 1 16.8 3a30.8 30.8 0 0 1 19.2 22.5h-12.8a20.1 20.1 0 0 0-8.2-10.4 26.5 26.5 0 0 0-15-3.9c-4.9 0-9 .8-12.5 2.3a15.8 15.8 0 0 0-10 15 14 14 0 0 0 3.5 9.9c2.4 2.5 5.3 4.4 8.8 5.7a155 155 0 0 0 14.6 4.4c7.3 1.8 13.1 3.6 17.6 5.5 4.5 1.8 8.4 4.6 11.5 8.5 3.2 3.9 4.8 9 4.8 15.5a27 27 0 0 1-4.5 15c-3 4.5-7.4 8.1-13.3 11-5.8 2.6-12.6 4-20.5 4Zm75.3-1.5-32.2-78h12l25.8 62.3h.7l24.5-62.3h12l-42.8 108h-12l12-30Zm76.8 1.5a35 35 0 0 1-14-2.7 30.3 30.3 0 0 1-10.4-7.6 27.6 27.6 0 0 1-5.6-11.5h12c1.1 3.6 3.3 6.4 6.6 8.4s7.1 2.9 11.4 2.9c6.1 0 10.8-1.1 14-3.3 3.2-2.2 4.8-5.1 4.8-8.7 0-2.7-.9-4.9-2.6-6.5a15 15 0 0 0-6.3-3.5 95 95 0 0 0-10.2-2.9 108 108 0 0 1-14.2-4 22.8 22.8 0 0 1-9.3-6.8 20.1 20.1 0 0 1-4-13c0-3.8 1.2-7.4 3.4-10.7 2.3-3.4 5.5-6.1 9.7-8.1 4.3-2 9.2-3 14.7-3 4.6 0 8.9.8 12.8 2.3a25.2 25.2 0 0 1 15.7 17.2h-12c-1.2-2.8-3.2-5-6-6.6a20.4 20.4 0 0 0-10.5-2.4c-5.5 0-9.6 1-12.4 3-2.7 2-4 4.8-4 8.3 0 2.9.8 5.2 2.5 6.9 1.8 1.6 4 3 6.4 4 2.6.9 6.2 1.9 10.8 3 5.7 1.4 10.3 2.8 13.8 4.2a18.4 18.4 0 0 1 12.9 18.6c0 4-1.2 7.8-3.7 11.3a25.3 25.3 0 0 1-10.5 8.2c-4.5 2-9.8 3-15.8 3Zm70.8-1.5c-3.7 0-7-.9-10-2.5a19 19 0 0 1-9.5-17v-48h-12V882h12l1.5-21h9.8v21h20.2v10.5h-20.3v48a8.7 8.7 0 0 0 9 9h11.3V960h-12Zm59 1.5a37 37 0 0 1-18.8-4.6 33.4 33.4 0 0 1-12.8-13.9 49 49 0 0 1-4.5-22c0-8.5 1.5-15.8 4.5-21.9 3-6.1 7.2-10.7 12.5-13.8a35.2 35.2 0 0 1 18.3-4.8 33 33 0 0 1 31.2 19.6 39 39 0 0 1 3.3 24.6h-62.4v-10.5h51.7c-.4-4.2-1.5-8-3.4-11.5a22.4 22.4 0 0 0-20.4-11.7 23 23 0 0 0-13.7 3.9 22.6 22.6 0 0 0-8 10.6 45.2 45.2 0 0 0-2.3 15.5c0 6.4 1 11.9 3 16.4 2 4.5 4.8 7.9 8.5 10.1a25 25 0 0 0 13.2 3.5 22.6 22.6 0 0 0 20.3-11.3h12a31.2 31.2 0 0 1-18.4 19.4 38.5 38.5 0 0 1-13.9 2.4Zm52-79.5h9l1.4 10.5h.8a22.6 22.6 0 0 1 21-12 24 24 0 0 1 13.2 3.8c3.9 2.5 7 6 9.3 10.5h.7c2.6-4.8 6-8.4 10.2-10.7 4.3-2.4 9.2-3.6 14.6-3.6a26.1 26.1 0 0 1 23.4 14.9 36.8 36.8 0 0 1 3.6 16.6v48H1604v-48c0-4.4-.7-8.1-2.2-11.3a17 17 0 0 0-15.8-9.8c-3.5.1-6.7 1-9.6 3-2.8 1.8-5 4.3-6.7 7.5a23.5 23.5 0 0 0-2.4 10.6v48H1556v-48c0-4.4-.7-8.1-2.2-11.3a17 17 0 0 0-15.8-9.8c-3.5.1-6.7 1-9.6 3-2.8 1.8-5 4.3-6.7 7.5a23.5 23.5 0 0 0-2.4 10.6v48H1508v-78Z"/>
  </g>
  <defs>
    <filter id="b" width="1541" height="1542" x="190" y="-307" color-interpolation-filters="sRGB" filterUnits="userSpaceOnUse">
      <feFlood flood-opacity="0" result="BackgroundImageFix"/>
      <feColorMatrix in="SourceAlpha" result="hardAlpha" type="matrix" values="0 0 0 0 0 0 0 0 0 0 0 0 0 0 0 0 0 0 127 0"/>
      <feOffset dy="4"/>
      <feGaussianBlur stdDeviation="62"/>
      <feComposite in2="hardAlpha" operator="out"/>
      <feColorMatrix type="matrix" values="0 0 0 0 0.728461 0 0 0 0 0.488411 0 0 0 0 0.72046 0 0 0 0.25 0"/>
      <feBlend in2="BackgroundImageFix" mode="normal" result="effect1_dropShadow_1705_2642"/>
      <feBlend in="SourceGraphic" in2="effect1_dropShadow_1705_2642" mode="normal" result="shape"/>
    </filter>
    <filter id="c" width="1093" height="1094" x="414" y="-83" color-interpolation-filters="sRGB" filterUnits="userSpaceOnUse">
      <feFlood flood-opacity="0" result="BackgroundImageFix"/>
      <feColorMatrix in="SourceAlpha" result="hardAlpha" type="matrix" values="0 0 0 0 0 0 0 0 0 0 0 0 0 0 0 0 0 0 127 0"/>
      <feOffset dy="4"/>
      <feGaussianBlur stdDeviation="62"/>
      <feComposite in2="hardAlpha" operator="out"/>
      <feColorMatrix type="matrix" values="0 0 0 0 0.728461 0 0 0 0 0.488411 0 0 0 0 0.72046 0 0 0 0.25 0"/>
      <feBlend in2="BackgroundImageFix" mode="normal" result="effect1_dropShadow_1705_2642"/>
      <feBlend in="SourceGraphic" in2="effect1_dropShadow_1705_2642" mode="normal" result="shape"/>
    </filter>
    <filter id="d" width="775" height="775" x="573" y="77" color-interpolation-filters="sRGB" filterUnits="userSpaceOnUse">
      <feFlood flood-opacity="0" result="BackgroundImageFix"/>
      <feColorMatrix in="SourceAlpha" result="hardAlpha" type="matrix" values="0 0 0 0 0 0 0 0 0 0 0 0 0 0 0 0 0 0 127 0"/>
      <feOffset dy="4"/>
      <feGaussianBlur stdDeviation="62"/>
      <feComposite in2="hardAlpha" operator="out"/>
      <feColorMatrix type="matrix" values="0 0 0 0 0.728461 0 0 0 0 0.488411 0 0 0 0 0.72046 0 0 0 0.25 0"/>
      <feBlend in2="BackgroundImageFix" mode="normal" result="effect1_dropShadow_1705_2642"/>
      <feBlend in="SourceGraphic" in2="effect1_dropShadow_1705_2642" mode="normal" result="shape"/>
    </filter>
    <linearGradient id="e" x1="840" x2="840" y1="1079" y2="592" gradientUnits="userSpaceOnUse">
      <stop offset=".4" stop-color="#201B3E"/>
      <stop offset="1" stop-color="#201B3E" stop-opacity="0"/>
    </linearGradient>
    <clipPath id="a">
      <path fill="#fff" d="M0 0h1920v1080H0z"/>
    </clipPath>
  </defs>
</svg>
