<svg width="256" height="256" viewBox="0 0 256 256" fill="none" xmlns="http://www.w3.org/2000/svg">
<path d="M184.701 95.343C179.347 104.254 159.885 102.416 138.146 89.3488C116.407 76.2813 105.338 59.7772 110.693 50.8658C116.047 41.9544 112.891 48.2284 114.489 47.589C122.042 44.5519 142.582 45.6708 160.565 56.4604C178.228 67.0902 184.661 82.1157 185.78 90.0681C186.06 91.9063 185.7 93.6646 184.701 95.343Z" fill="#ED6B00"/>
<path d="M171.794 101.657C170.435 101.657 168.997 101.577 167.478 101.377C158.767 100.338 148.177 96.3021 137.747 90.0281C127.277 83.7142 118.685 76.2414 113.61 69.0084C108.495 61.6954 107.216 55.1018 110.014 50.4662C111.013 48.7878 112.411 47.589 114.21 46.8697C122.242 43.6328 142.942 44.9515 161.004 55.8211C168.997 60.6164 175.391 66.6906 180.066 73.8837C183.503 79.1586 185.9 85.0729 186.62 90.0281C186.899 92.0661 186.5 94.0243 185.421 95.8225C183.103 99.6988 178.348 101.737 171.834 101.737L171.794 101.657ZM124.44 46.9096C120.363 46.9096 117.007 47.4291 114.769 48.3083C113.29 48.9077 112.211 49.8668 111.372 51.2255C108.935 55.3016 110.173 61.2958 114.889 68.0493C119.844 75.1225 128.236 82.4354 138.546 88.6295C148.816 94.8235 159.166 98.7797 167.678 99.7787C175.75 100.738 181.585 99.0195 184.022 94.9034C184.901 93.4248 185.221 91.8663 184.981 90.148C183.663 80.9968 176.35 66.8504 160.125 57.0998C147.897 49.7469 134.11 46.8697 124.44 46.8697V46.9096Z" fill="#E89437"/>
<path d="M134.71 92.5857C141.463 141.219 71.4108 180.101 62.939 232.371C82.9996 234.089 104.019 235.008 125.719 235.008C147.418 235.008 166.799 234.449 182.943 233.41C211.516 160.76 188.538 108.011 174.991 75.4821L134.67 92.5857H134.71Z" fill="#DDDCFC"/>
<path d="M133.75 111.048C143.301 134.026 145.339 143.497 145.339 143.497L129.994 137.183L133.75 111.048Z" fill="#8B8BD1"/>
<path d="M195.731 147.053C195.092 140.859 194.172 134.905 192.973 129.23C184.582 115.603 176.589 101.457 169.836 91.4268L167.558 85.0729L152.013 85.2327L145.339 88.07C145.619 88.9891 145.899 89.9482 146.099 90.8673C146.099 90.8673 160.245 100.378 167.758 110.009C175.271 119.64 178.947 126.393 185.301 134.905C187.978 138.501 191.815 142.458 195.651 147.053H195.731Z" fill="#49488A"/>
<path d="M154.93 83.9939C174.951 112.447 187.938 127.672 195.012 135.744C191.655 115.683 184.542 98.6598 178.827 84.6333C178.787 84.5534 178.747 84.5134 178.747 84.5134L158.567 82.4754L154.93 84.0339V83.9939Z" fill="#8588D1"/>
<path d="M62.9388 233.17C62.8988 233.17 62.8589 233.17 62.819 233.17C62.3794 233.09 62.0996 232.691 62.1395 232.251C66.0558 207.955 83.1593 186.575 99.7034 165.875C119.125 141.538 137.507 118.561 133.91 92.6656C133.831 92.226 134.15 91.8264 134.59 91.7465C135.029 91.7065 135.429 91.9862 135.509 92.4258C139.185 119 120.643 142.218 100.982 166.834C84.598 187.374 67.6143 208.594 63.778 232.451C63.6981 232.851 63.3784 233.13 62.9788 233.13L62.9388 233.17Z" fill="#191935"/>
<path d="M182.943 234.209C182.864 234.209 182.744 234.209 182.664 234.169C182.264 234.009 182.024 233.57 182.184 233.13C189.537 213.429 193.853 193.329 195.092 173.508C196.091 157.643 195.092 141.858 192.135 126.593C187.139 100.658 178.108 85.0729 178.028 84.953C177.788 84.5534 177.948 84.0738 178.308 83.874C178.707 83.6342 179.187 83.7941 179.387 84.1538C179.467 84.3136 188.658 100.098 193.693 126.313C196.65 141.698 197.649 157.603 196.69 173.628C195.451 193.648 191.056 213.869 183.703 233.73C183.583 234.049 183.263 234.249 182.943 234.249V234.209Z" fill="#191935"/>
<path d="M136.708 137.862C136.708 137.862 170.795 125.314 187.379 104.934C197.969 136.783 204.083 179.662 182.983 233.41C166.799 234.449 142.622 235.008 125.759 235.008C108.895 235.008 83.0397 234.089 62.979 232.371C69.2929 193.249 110.134 161.599 127.437 127.792L132.432 116.043C134.35 126.913 136.748 137.862 136.748 137.862H136.708Z" fill="#EF5656"/>
<path d="M193.014 125.434C191.415 118.161 189.497 111.328 187.339 104.934C172.194 120.838 141.144 136.184 141.144 136.184C162.563 132.947 181.025 128.871 181.025 128.871V124.954C186.58 129.99 188.338 131.109 188.338 131.109C189.777 129.67 191.415 127.592 193.014 125.394V125.434Z" fill="#CC3E4F"/>
<path d="M153.252 234.609C163.882 234.329 174.511 233.929 182.983 233.37C195.891 200.522 198.648 171.709 196.37 147.013H184.342C180.745 187.694 168.157 215.547 153.252 234.609Z" fill="#CC3E4F"/>
<path d="M120.604 139.421C123.92 138.501 127.637 136.264 132.912 129.87C130.354 130.549 127.916 130.989 125.479 131.388C123.96 134.066 122.322 136.743 120.604 139.421Z" fill="white"/>
<path d="M137.467 151.129C145.499 158.442 148.337 166.914 166.359 167.913C150.934 162.398 158.607 153.807 137.467 151.129Z" fill="white"/>
<path d="M116.607 193.768C110.013 198.644 110.493 203.839 107.935 209.953C115.088 205.157 114.889 198.044 116.607 193.768Z" fill="white"/>
<path d="M85.3574 230.453C79.523 224.698 74.448 225.977 68.0142 224.419C73.8485 230.733 80.8418 229.454 85.3574 230.453Z" fill="white"/>
<path d="M85.3573 230.453C81.0015 225.258 83.0795 220.582 74.9673 218.824C80.5619 223.38 80.9615 229.454 85.3573 230.453Z" fill="white"/>
<path d="M89.1535 230.173C91.8709 223.939 96.9859 223.739 94.9479 215.707C93.3894 222.74 88.1145 225.817 89.1535 230.173Z" fill="white"/>
<path d="M129.874 218.584C135.229 218.584 134.27 214.748 139.425 214.828C142.542 214.828 143.102 211.631 146.578 209.673C141.743 209.913 138.826 208.834 135.509 209.313C130.034 210.033 132.392 214.668 129.315 216.346C130.234 211.072 127.037 212.43 128.476 207.515C129.515 203.958 127.077 202.28 123.8 198.843C124.24 203.439 121.123 205.357 121.682 208.474C122.282 211.791 125.998 213.469 127.077 216.826C123.84 213.15 123.401 215.827 120.044 213.869C115.808 211.431 112.731 216.986 108.735 217.505C113.29 220.063 116.567 218.944 119.524 220.463C122.522 221.981 123.241 217.146 126.438 218.584C121.602 220.862 124.2 222.061 119.524 224.179C116.687 225.458 115.169 228.295 115.369 233.21C119.125 228.735 124.16 231.412 126.118 228.695C128.116 225.937 126.078 222.98 128.156 220.143C129.875 225.218 130.634 221.422 132.192 226.297C133.151 229.294 135.829 230.932 141.383 232.851C139.465 227.815 141.423 224.898 138.306 222.421C135.669 220.303 132.472 221.022 129.914 218.624L129.874 218.584Z" fill="white"/>
<path d="M82.2401 194.647C80.8415 194.368 79.9223 194.368 79.203 194.527C77.6045 196.965 76.046 199.443 74.6074 201.92C77.6045 201.161 79.4428 197.844 82.6397 196.925C78.8434 200.002 81.4808 200.562 79.4428 203.838C76.8853 207.994 82.2799 211.231 82.6795 215.267C85.3969 210.792 84.398 207.515 86.0365 204.558C87.6749 201.641 82.8395 200.721 84.398 197.604C86.516 202.52 87.7947 199.962 89.7528 204.718C90.9117 207.595 93.7091 209.193 98.6243 209.193C94.2685 205.317 97.1456 200.362 94.5082 198.324C91.7908 196.246 88.7938 198.164 86.0365 196.006C91.1515 194.487 87.3951 193.568 92.3503 192.21C95.3474 191.37 97.1058 188.733 99.2237 183.258C94.1486 185.017 91.3112 182.939 88.6738 185.936C86.4759 188.493 87.0754 191.73 84.5978 194.208C84.6777 191.53 83.7585 190.411 82.8793 189.293C82.0002 190.531 81.161 191.73 80.3218 192.969C81.1211 193.289 81.8404 193.768 82.3199 194.687L82.2401 194.647Z" fill="white"/>
<path d="M182.944 234.209C182.864 234.209 182.744 234.209 182.664 234.169C182.264 234.009 182.064 233.53 182.224 233.13C199.168 190.052 200.726 148.652 187.06 106.572C182.024 112.447 172.753 120.878 156.209 129.75C145.699 135.384 137.068 138.581 136.988 138.621C136.788 138.701 136.548 138.701 136.308 138.581C136.109 138.462 135.949 138.262 135.909 138.062C135.909 137.942 133.871 128.711 132.072 118.84L128.156 128.111C128.156 128.111 128.156 128.111 128.156 128.151C121.483 141.219 111.532 153.687 100.982 166.874C84.5983 187.414 67.6146 208.634 63.7783 232.491C63.6983 232.931 63.2988 233.21 62.8592 233.17C62.4197 233.09 62.1398 232.691 62.1798 232.251C66.096 207.955 83.1996 186.575 99.7436 165.875C110.214 152.768 120.124 140.38 126.718 127.472L131.673 115.763C131.793 115.444 132.152 115.244 132.512 115.284C132.872 115.284 133.152 115.604 133.191 115.923C134.75 124.875 136.708 133.946 137.307 136.783C142.702 134.665 171.994 122.597 186.74 104.414C186.94 104.175 187.219 104.095 187.499 104.135C187.779 104.175 188.019 104.374 188.099 104.654C202.365 147.573 200.926 189.772 183.663 233.69C183.543 234.009 183.223 234.209 182.904 234.209H182.944Z" fill="#7C1200"/>
<path d="M99.0639 235.328C98.6643 235.328 98.3446 235.048 98.2647 234.649C93.3494 205.557 107.935 183.698 120.763 164.396C126.957 155.125 132.792 146.334 135.948 137.582C136.108 137.183 136.548 136.943 136.988 137.103C137.387 137.263 137.627 137.702 137.467 138.142C134.23 147.093 128.356 155.925 122.122 165.316C109.454 184.377 95.0677 205.956 99.8631 234.409C99.943 234.849 99.6235 235.248 99.2239 235.328C99.1839 235.328 99.1439 235.328 99.1039 235.328H99.0639Z" fill="#7C1200"/>
<path d="M115.698 62.9781C117.595 52.3313 111.963 42.4234 103.12 40.8481C94.2765 39.2729 85.5701 46.6268 83.6736 57.2736C81.7771 67.9204 87.4087 77.8283 96.252 79.4035C105.095 80.9788 113.802 73.6248 115.698 62.9781Z" fill="url(#paint0_linear_884_63355)"/>
<path d="M97.4654 80.1176C96.6262 80.1176 95.7471 80.0377 94.9079 79.8779C90.3923 79.0786 86.5161 76.2014 84.0385 71.8456C81.5609 67.4898 80.7216 62.1749 81.6806 56.86C83.6387 45.7907 92.7901 38.1181 102.021 39.7565C111.292 41.3949 117.206 51.745 115.248 62.8143C114.289 68.1292 111.692 72.8446 107.855 76.0815C104.738 78.719 101.102 80.1176 97.4256 80.1176H97.4654ZM99.5035 41.1152C91.9108 41.1152 84.8777 47.8287 83.2393 57.0998C82.3601 62.055 83.1194 67.0103 85.3972 71.0464C87.635 75.0026 91.1116 77.6001 95.1477 78.3194C99.1839 79.0387 103.34 77.7999 106.817 74.8427C110.333 71.8456 112.771 67.4898 113.65 62.4946C115.448 52.3044 110.093 42.7936 101.701 41.315C100.942 41.1951 100.183 41.1152 99.4635 41.1152H99.5035Z" fill="#20564C"/>
<path d="M118.006 53.3435C116.727 53.1037 115.448 53.2635 114.329 53.7031C114.689 55.3016 114.888 57.0199 114.849 58.7383C115.208 57.7792 116.207 57.1398 117.286 57.3396" fill="#66CCB9"/>
<path d="M114.849 59.5375C114.809 59.5375 114.769 59.5375 114.729 59.5375C114.329 59.4576 114.05 59.1379 114.05 58.7383C114.05 57.0998 113.89 55.4614 113.53 53.863C113.45 53.4633 113.65 53.1037 114.01 52.9438C115.329 52.4243 116.727 52.2645 118.126 52.5442C118.565 52.6241 118.845 53.0238 118.765 53.4633C118.685 53.9029 118.286 54.1826 117.846 54.1027C116.967 53.9429 116.088 53.9828 115.209 54.2226C115.368 55.0618 115.488 55.9409 115.568 56.8201C116.128 56.5404 116.767 56.4605 117.407 56.5803C117.846 56.6603 118.126 57.0599 118.046 57.4994C117.966 57.939 117.566 58.2188 117.127 58.1388C116.447 58.0189 115.808 58.3786 115.568 59.018C115.448 59.3377 115.169 59.5375 114.809 59.5375H114.849Z" fill="#20564C"/>
<path d="M178.188 84.4734C178.188 84.4734 178.268 62.6545 155.849 54.5822C145.699 50.9058 137.667 52.9838 125.159 56.4205C82.5601 68.0892 43.7974 103.815 31.2095 124.875C28.572 129.27 29.7309 135.744 41.5995 127.352C97.9852 87.3107 128.875 124.595 164.401 90.4277L178.188 84.4734Z" fill="#8588D1"/>
<path d="M39.7212 112.047C48.1131 110.768 53.7078 114.405 57.6241 117.242C57.6241 117.242 45.9552 124.075 41.1198 127.232C28.9316 135.145 27.2133 128.911 29.8508 124.475C31.9688 120.918 36.2046 116.962 39.7212 112.047Z" fill="#49488A"/>
<path d="M130.713 55.0618C78.164 67.5697 37.0035 114.245 30.7296 123.915C30.7296 123.915 27.5328 128.591 29.8505 130.149C34.1264 119.959 45.955 105.973 76.2059 83.3945C92.0306 71.5659 112.491 62.9342 130.673 55.0618H130.713Z" fill="#DCE5EA"/>
<path d="M29.8907 130.949C29.7308 130.949 29.5709 130.909 29.451 130.829C28.8516 130.429 28.452 129.83 28.2922 129.07C27.8526 126.793 29.8507 123.836 30.0905 123.476C33.647 117.961 45.7153 103.975 62.8987 89.9482C78.2439 77.3603 102.461 60.9761 130.554 54.3025C130.953 54.2226 131.353 54.4224 131.513 54.822C131.673 55.2216 131.433 55.6612 131.073 55.821L129.355 56.5803C111.852 64.133 92.0307 72.6848 76.7654 84.0738C50.3109 103.815 35.6451 118.601 30.6499 130.509C30.57 130.749 30.37 130.909 30.1303 130.949C30.0504 130.949 29.9706 130.949 29.8907 130.949ZM118.645 59.4176C96.1067 67.25 76.8453 80.5572 63.8977 91.147C46.2348 105.573 34.4062 119.719 31.4091 124.315C30.9296 124.994 29.8506 126.913 29.8107 128.271C35.4852 116.363 50.1511 101.817 75.7664 82.6752C88.3143 73.3242 103.819 65.8913 118.645 59.3776V59.4176Z" fill="#DCE5EA"/>
<path d="M67.4944 112.846C95.8271 95.4629 120.204 101.377 135.149 98.0604C153.372 93.5847 155.889 88.9891 164.841 89.8683C136.628 119.759 109.934 97.1413 67.4546 112.846H67.4944Z" fill="#49488A"/>
<path d="M31.6489 131.788C30.53 131.788 29.571 131.508 28.8916 130.869C27.2932 129.27 27.9724 126.193 30.9295 121.718C38.3224 110.528 51.7894 96.9814 66.8949 85.5124C79.8424 75.6819 100.303 62.5346 124.439 55.6212C138.106 51.705 148.896 51.2654 157.408 54.3824C165.999 57.4994 174.152 62.135 179.467 84.3536C179.586 84.7931 179.307 85.2327 178.867 85.3126C178.428 85.4325 177.988 85.1528 177.908 84.7132C173.233 65.172 166.919 59.4975 156.888 55.861C148.696 52.9039 138.226 53.3035 124.879 57.1398C100.982 64.0132 80.6818 77.0406 67.8541 86.7912C52.8685 98.1802 39.5613 111.567 32.2484 122.637C28.7717 127.872 29.6508 129.43 30.0105 129.75C31.2493 130.989 36.2444 129.79 42.1587 125.754C71.7303 105.493 93.869 105.773 113.37 106.013C131.393 106.252 146.938 106.412 163.802 89.8682C164.121 89.5486 164.641 89.5486 164.921 89.8682C165.24 90.1879 165.24 90.7074 164.921 90.9872C147.577 108.011 131.713 107.811 113.33 107.611C94.0288 107.371 72.1699 107.092 43.038 127.072C39.1617 129.71 34.686 131.828 31.6089 131.828L31.6489 131.788Z" fill="#191935"/>
<path d="M139.904 60.017C135.189 59.6973 133.59 71.486 140.304 71.5659C147.018 71.6458 144.9 60.3767 139.904 60.017Z" fill="#1A1A21"/>
<path d="M142.103 72.3252C140.424 72.3252 138.466 72.0055 136.628 70.9265C136.348 70.7667 136.228 70.407 136.428 70.1273C136.588 69.8475 136.948 69.7277 137.227 69.9275C141.223 72.2452 146.019 70.5269 146.059 70.5269C146.379 70.407 146.698 70.5668 146.818 70.8865C146.938 71.2062 146.778 71.5259 146.458 71.6458C146.339 71.6858 144.5 72.3651 142.063 72.3651L142.103 72.3252Z" fill="#191935"/>
<path d="M107.776 36.8393C107.576 36.8393 107.376 36.7594 107.216 36.6395C106.897 36.3198 106.897 35.8403 107.216 35.5206C108.575 34.0819 112.211 32.0439 116.247 34.8013C116.607 35.041 116.727 35.5605 116.447 35.9202C116.208 36.2798 115.688 36.3997 115.328 36.12C111.412 33.4426 108.455 36.4796 108.335 36.5995C108.175 36.7594 107.976 36.8393 107.736 36.8393H107.776Z" fill="#191935"/>
<path d="M161.004 63.3738C161.004 63.3738 173.353 54.9819 176.549 55.2616C177.548 55.3415 181.544 59.8572 182.184 64.1331C182.863 68.6487 180.106 72.9246 178.747 73.3242C176.509 73.9636 171.594 72.6449 171.594 72.6449" fill="#D2D2FB"/>
<path d="M162.643 64.6126C162.363 64.6126 162.123 64.4927 161.964 64.2529C161.724 63.8933 161.843 63.3738 162.203 63.134C169.716 58.4186 174.751 56.5404 174.991 56.4604C175.39 56.3006 175.87 56.5404 176.03 56.94C176.19 57.3396 175.95 57.8191 175.55 57.979C175.51 57.979 170.435 59.8971 163.082 64.4927C162.962 64.5726 162.803 64.6126 162.643 64.6126Z" fill="white"/>
<path d="M177.189 74.2833C174.791 74.2833 171.794 73.484 171.394 73.4041C170.955 73.2842 170.715 72.8447 170.835 72.4051C170.955 71.9655 171.394 71.7257 171.834 71.8456C173.153 72.2053 176.909 73.0045 178.587 72.525C179.347 72.3252 182.064 68.5288 181.425 64.213C180.865 60.2967 177.309 56.3805 176.469 56.0209C174.272 55.901 166.119 60.8162 161.484 63.9732C161.124 64.213 160.605 64.133 160.365 63.7734C160.125 63.4137 160.205 62.8942 160.565 62.6545C161.844 61.8153 172.793 54.4224 176.429 54.4224C180.066 54.4224 176.589 54.4224 176.629 54.4224C178.148 54.5423 182.344 59.5375 182.983 63.9732C183.662 68.5288 180.985 73.484 178.987 74.0435C178.467 74.2033 177.868 74.2433 177.189 74.2433V74.2833Z" fill="#49488A"/>
<path d="M169.556 61.5355C174.072 57.979 177.908 60.6164 177.908 60.6164C176.11 61.2158 174.671 62.3348 174.671 62.3348C176.909 63.7334 178.068 66.211 178.068 66.211C178.068 66.211 176.19 66.211 175.031 66.0112C175.031 66.0112 174.751 67.4498 174.232 68.6487C174.232 68.6487 168.597 66.7705 166.999 65.7715C166.999 65.7715 167.718 62.9741 169.596 61.4956L169.556 61.5355Z" fill="#6A6DB8"/>
<path d="M165.92 67.4898C165.8 67.4898 165.72 67.4898 165.6 67.4099C165.2 67.2501 165.001 66.7705 165.16 66.3709C165.32 66.0113 168.877 57.8591 177.908 55.6612C178.348 55.5414 178.787 55.8211 178.867 56.2607C178.987 56.7002 178.707 57.1398 178.268 57.2197C170.036 59.2178 166.639 66.8904 166.599 66.9703C166.479 67.29 166.159 67.4499 165.88 67.4499L165.92 67.4898Z" fill="#49488A"/>
<path d="M137.986 65.4917C136.748 65.7315 137.986 69.7276 139.345 69.5278C140.744 69.2881 139.345 65.212 137.986 65.4917Z" fill="white"/>
<path d="M40.1207 122.357C38.4822 124.515 36.5243 125.274 35.0857 126.073C34.2465 126.513 34.8459 127.792 36.0847 127.073C38.7222 125.474 40.1607 122.357 40.1607 122.357H40.1207Z" fill="black"/>
<path d="M35.3652 128.071C35.0854 128.071 34.8457 127.992 34.6059 127.872C34.1664 127.632 33.8867 127.152 33.8867 126.633C33.8867 126.113 34.2064 125.634 34.6859 125.354C34.8858 125.234 35.1254 125.114 35.3652 124.994C36.6839 124.315 38.1626 123.556 39.4813 121.837C39.7211 121.518 40.1605 121.438 40.5202 121.638C40.8798 121.837 40.9998 122.277 40.84 122.637C40.7601 122.757 39.2815 125.993 36.4842 127.672C36.1246 127.912 35.7248 127.992 35.3652 127.992V128.071Z" fill="black"/>
<path d="M200.446 152.168C198.488 151.289 196.53 152.608 194.652 152.168C194.692 153.527 194.732 154.926 194.772 156.324C196.37 157.083 197.969 157.283 199.288 160.041C200.167 161.879 201.805 162.119 203.763 162.678C202.564 158.802 201.405 155.285 200.406 152.128L200.446 152.168Z" fill="#FFC0CB"/>
<path d="M194.652 151.289C197.529 150.09 196.93 148.572 198.968 147.613C198.208 145.335 197.529 143.337 196.89 141.539C195.651 142.617 195.051 144.176 194.412 145.734C194.492 147.493 194.572 149.371 194.612 151.249L194.652 151.289Z" fill="#FFC0CB"/>
<path d="M185.7 100.138C178.188 114.724 136.708 137.862 136.708 137.862C136.708 137.862 166.559 126.553 176.07 124.475V117.322L186.54 124.035C189.457 119.64 191.814 112.447 191.814 112.447L185.7 100.138Z" fill="#EF5656"/>
<path d="M136.708 138.661C136.388 138.661 136.109 138.501 135.989 138.182C135.829 137.822 135.989 137.343 136.308 137.143C136.708 136.903 177.628 113.925 184.981 99.7388C185.101 99.459 185.381 99.2992 185.701 99.2992C186.021 99.2992 186.26 99.459 186.42 99.7388L192.534 112.047C192.614 112.247 192.654 112.447 192.574 112.646C192.494 112.926 190.176 119.999 187.179 124.435C186.94 124.795 186.46 124.915 186.1 124.675L176.869 118.76V124.435C176.869 124.795 176.59 125.154 176.23 125.234C166.919 127.272 137.307 138.461 136.988 138.581C136.908 138.581 136.788 138.621 136.708 138.621V138.661ZM185.661 101.817C181.904 107.811 172.913 115.643 158.847 125.114C153.772 128.511 148.896 131.588 145.02 133.906C154.291 130.509 168.637 125.394 175.271 123.836V117.322C175.271 117.042 175.431 116.762 175.67 116.603C175.91 116.483 176.23 116.483 176.47 116.603L186.26 122.876C188.578 119.12 190.456 113.765 190.936 112.447L185.621 101.777L185.661 101.817Z" fill="#7C1200"/>
<path d="M136.708 137.862C134.27 127.592 133.751 111.048 133.751 111.048L127.836 120.838C130.354 128.631 136.748 137.862 136.748 137.862H136.708Z" fill="#EF5656"/>
<path d="M136.708 138.661C136.468 138.661 136.188 138.541 136.068 138.302C135.789 137.902 129.595 128.911 127.077 121.078C126.997 120.838 127.037 120.599 127.157 120.399L133.071 110.608C133.271 110.289 133.631 110.169 133.95 110.249C134.31 110.329 134.55 110.648 134.55 111.008C134.55 111.168 135.109 127.592 137.507 137.662C137.587 138.022 137.387 138.421 137.067 138.581C136.947 138.621 136.868 138.661 136.748 138.661H136.708ZM128.715 120.958C130.234 125.514 133.111 130.589 135.109 133.866C133.87 126.593 133.311 117.961 133.071 113.725L128.675 120.958H128.715Z" fill="#7C1200"/>
<path d="M151.973 30.1657C156.049 29.3266 162.523 29.6063 171.274 34.8812C179.507 39.8364 183.023 45.3511 184.182 48.3083C186.18 53.3434 183.703 71.3661 183.703 71.3661L134.35 40.9154C134.35 40.9154 146.538 31.2847 151.933 30.1657H151.973Z" fill="#FCEE70"/>
<path d="M183.743 72.1253C183.583 72.1253 183.463 72.0854 183.303 72.0055L133.95 41.5548C133.711 41.4349 133.591 41.1951 133.591 40.9154C133.591 40.6357 133.671 40.3959 133.91 40.2361C134.43 39.8364 146.298 30.4854 151.853 29.3665C159.206 27.888 166.719 31.1648 171.714 34.1619C181.185 39.8764 184.262 46.1903 184.981 47.9886C187.019 53.1436 184.662 70.6867 184.542 71.446C184.542 71.7257 184.342 71.9255 184.102 72.0454C183.982 72.0854 183.862 72.1253 183.743 72.1253ZM135.789 40.7955L183.103 70.0074C183.623 65.8913 185.061 52.6241 183.463 48.588C182.783 46.9096 179.946 40.9953 170.875 35.5206C162.203 30.3256 155.929 30.1258 152.133 30.925C147.777 31.8042 138.666 38.5976 135.789 40.7955Z" fill="#E89437"/>
<g opacity="0.2">
<path d="M178.427 40.276C177.428 51.1855 174.192 59.6973 174.192 59.6973C174.192 59.6973 174.871 62.4547 175.67 66.3709L183.702 71.3261C183.702 71.3261 186.14 53.3035 184.182 48.2683C183.423 46.3902 181.704 43.433 178.427 40.2361V40.276Z" fill="#ED6B00"/>
<path d="M183.742 72.1253C183.583 72.1253 183.463 72.0854 183.303 72.0055L175.271 67.0502C175.071 66.9303 174.951 66.7305 174.911 66.5307C174.112 62.6545 173.432 59.8971 173.432 59.8971C173.432 59.7373 173.432 59.5774 173.432 59.4176C173.432 59.3377 176.629 50.8658 177.628 40.1961C177.628 39.8764 177.868 39.6366 178.148 39.5167C178.428 39.3969 178.747 39.5168 178.987 39.6766C182.743 43.3131 184.342 46.4301 184.941 47.9886C186.979 53.1436 184.622 70.6867 184.502 71.446C184.502 71.7257 184.302 71.9255 184.062 72.0454C183.942 72.0854 183.822 72.1253 183.702 72.1253H183.742ZM176.389 65.8913L183.063 70.0074C183.583 65.8914 185.021 52.6241 183.423 48.588C183.023 47.589 181.824 45.0714 179.027 42.0343C177.988 51.1455 175.51 58.3386 174.991 59.7373C175.151 60.4566 175.71 62.7743 176.35 65.8913H176.389Z" fill="#ED6B00"/>
</g>
<path d="M156.968 60.8162C172.633 71.2462 184.862 82.4354 185.861 90.6675C185.861 90.6675 185.781 81.3964 183.703 71.3661C183.703 71.3661 180.146 62.6545 161.564 51.3453C144.9 41.2351 134.31 41.0353 134.31 41.0353C134.31 41.0353 127.317 41.5148 114.489 47.6689C122.961 44.6718 143.901 52.1446 156.968 60.8162Z" fill="#FCEE70"/>
<path d="M185.861 91.4667C185.461 91.4667 185.101 91.147 185.061 90.7474C184.222 83.6343 173.792 72.9645 156.529 61.4556C143.901 53.0637 122.881 45.511 114.769 48.3882C114.369 48.5481 113.93 48.3483 113.77 47.9486C113.61 47.549 113.77 47.1094 114.17 46.9096C126.957 40.7556 133.99 40.1961 134.27 40.1961C134.27 40.1961 134.31 40.1961 134.35 40.1961C134.79 40.1961 145.379 40.5158 162.003 50.6261C180.625 61.9352 184.342 70.6468 184.502 71.0064C184.502 71.0464 184.502 71.0864 184.542 71.1663C186.62 81.1966 186.7 90.5476 186.7 90.6275C186.7 91.0671 186.38 91.3868 185.941 91.4268C185.941 91.4268 185.94 91.4268 185.901 91.4268L185.861 91.4667ZM119.644 46.1903C129.914 46.3901 146.458 52.8239 157.448 60.1369C166.119 65.8914 179.826 76.0016 184.821 85.1928C184.542 81.6362 184.022 76.681 182.983 71.5659C182.624 70.8066 178.468 62.4946 161.164 51.9848C145.38 42.394 135.029 41.7946 134.31 41.7946C133.831 41.8345 128.676 42.354 119.604 46.1903H119.644Z" fill="#E89437"/>
<g opacity="0.2">
<path d="M174.391 60.4966C174.951 62.8143 176.589 70.0074 177.508 77.1205C182.304 82.0358 185.421 86.6713 185.9 90.6675C185.9 90.6675 185.821 81.3964 183.743 71.3661C183.743 71.3661 181.984 67.0103 174.391 60.4966Z" fill="#ED6B00"/>
<path d="M185.86 91.4667C185.461 91.4667 185.101 91.147 185.061 90.7474C184.622 87.1509 181.904 82.7551 176.909 77.68C176.789 77.5601 176.709 77.4003 176.669 77.2404C175.75 70.0474 174.072 62.7344 173.592 60.6964C173.512 60.3767 173.672 60.017 173.952 59.8172C174.232 59.6574 174.631 59.6574 174.871 59.8971C182.504 66.4508 184.342 70.8865 184.422 71.0464C184.422 71.0864 184.422 71.1263 184.462 71.2062C186.54 81.2366 186.62 90.5876 186.62 90.6675C186.62 91.1071 186.3 91.4268 185.86 91.4667C185.86 91.4667 185.86 91.4667 185.82 91.4667H185.86ZM178.268 76.7609C181.225 79.798 183.383 82.6352 184.821 85.2327C184.542 81.6762 184.022 76.7209 182.983 71.6059C182.743 71.1263 181.105 67.7696 175.75 62.7744C176.47 66.0112 177.588 71.4061 178.268 76.7609Z" fill="#ED6B00"/>
</g>
<path d="M155.072 70.0354C156.969 59.3886 150.509 49.3332 140.645 47.5761C130.78 45.8189 121.246 53.0254 119.35 63.6722C117.453 74.3189 123.913 84.3743 133.777 86.1315C143.642 87.8886 153.176 80.6821 155.072 70.0354Z" fill="url(#paint1_linear_884_63355)"/>
<path d="M121.922 58.2987C121.802 58.2987 121.642 58.2987 121.522 58.1788C121.123 57.939 121.003 57.4595 121.243 57.0998C124.24 51.8649 129.435 48.5081 135.069 48.0285C135.509 47.9886 135.909 48.3083 135.949 48.7479C135.989 49.1874 135.669 49.587 135.229 49.627C130.114 50.0266 125.399 53.1436 122.641 57.899C122.481 58.1388 122.242 58.2987 121.962 58.2987H121.922Z" fill="#C7FFEB"/>
<path d="M119.684 64.4927C119.644 64.4927 119.604 64.4927 119.524 64.4927C119.085 64.4128 118.805 64.0132 118.885 63.5736C118.965 63.0141 119.124 62.4547 119.244 61.8952C119.364 61.4556 119.804 61.2159 120.204 61.3357C120.643 61.4556 120.883 61.8952 120.763 62.2948C120.643 62.8143 120.523 63.2939 120.443 63.8134C120.363 64.213 120.044 64.4927 119.644 64.4927H119.684Z" fill="#C7FFEB"/>
<path d="M135.509 86.9511C134.47 86.9511 133.431 86.8712 132.392 86.6714C127.397 85.7922 123.081 82.875 120.204 78.4393C117.367 74.0435 116.327 68.6487 117.287 63.2939C119.245 52.2245 129.235 44.7118 139.505 46.55C144.5 47.4292 148.816 50.3464 151.693 54.7821C154.531 59.1779 155.57 64.5727 154.611 69.9275C152.852 79.8779 144.62 86.9511 135.469 86.9511H135.509ZM136.428 47.8687C128.076 47.8687 120.523 54.4224 118.885 63.5736C118.006 68.5288 118.965 73.4841 121.602 77.5601C124.2 81.5963 128.156 84.2737 132.712 85.1129C142.143 86.7913 151.254 79.8379 153.092 69.6478C153.971 64.6925 153.012 59.7373 150.375 55.6612C147.777 51.6251 143.821 48.9477 139.265 48.1085C138.306 47.9487 137.387 47.8687 136.428 47.8687Z" fill="#20564C"/>
<path d="M117.286 57.3396C118.485 57.5394 119.284 58.6583 119.085 59.8172C119.724 58.0989 120.523 56.5404 121.522 55.1018C120.603 54.1827 119.404 53.5433 118.006 53.3035" fill="#66CCB9"/>
<path d="M119.085 60.6164C119.045 60.6164 118.965 60.6164 118.925 60.6164C118.485 60.5365 118.206 60.1369 118.286 59.6973C118.405 58.978 117.926 58.2587 117.167 58.1388C116.727 58.0589 116.447 57.6593 116.527 57.2197C116.607 56.7801 117.007 56.5004 117.446 56.5803C118.166 56.7002 118.765 57.0599 119.205 57.5794C119.604 56.7801 120.004 56.0209 120.483 55.3015C119.724 54.7021 118.845 54.3025 117.886 54.1427C117.446 54.0627 117.167 53.6631 117.247 53.2235C117.326 52.784 117.726 52.5042 118.166 52.5842C119.644 52.8639 121.043 53.5432 122.122 54.5822C122.402 54.862 122.442 55.3015 122.202 55.6212C121.243 57.0199 120.443 58.5384 119.844 60.1369C119.724 60.4566 119.404 60.6564 119.085 60.6564V60.6164Z" fill="#20564C"/>
<path d="M144.5 40.5957C144.181 40.5957 143.861 40.3959 143.741 40.0363C142.182 35.4806 137.107 36.4797 136.908 36.5196C136.468 36.5996 136.068 36.3198 135.948 35.9202C135.869 35.4806 136.148 35.081 136.548 34.9611C138.826 34.4816 143.621 34.8013 145.219 39.5168C145.379 39.9164 145.14 40.3959 144.74 40.5158C144.66 40.5158 144.58 40.5558 144.5 40.5558V40.5957Z" fill="#191935"/>
<path d="M110.493 169.951C103.819 168.393 102.461 163.078 103.58 160.92C104.699 158.762 113.61 159.681 117.366 161.959C123.041 165.475 124.2 170.471 124.2 170.471" fill="#DDDCFC"/>
<path d="M124.2 171.31C123.84 171.31 123.521 171.07 123.441 170.71C123.441 170.67 122.242 165.955 116.967 162.678C114.17 160.96 108.215 159.921 105.418 160.68C104.859 160.84 104.459 161.08 104.339 161.319C103.979 161.999 103.94 163.318 104.579 164.756C105.138 165.995 106.697 168.273 110.733 169.192C111.173 169.312 111.412 169.711 111.332 170.151C111.213 170.59 110.813 170.83 110.373 170.75C105.698 169.631 103.86 166.914 103.14 165.396C102.341 163.677 102.261 161.839 102.94 160.56C103.3 159.881 103.98 159.401 105.019 159.122C108.215 158.242 114.689 159.321 117.846 161.279C123.72 164.916 124.999 170.111 125.039 170.311C125.119 170.75 124.879 171.19 124.44 171.27C124.36 171.27 124.32 171.27 124.24 171.27L124.2 171.31Z" fill="#7481BA"/>
<g opacity="0.8">
<path d="M109.476 223.761C109.499 221.554 102.88 219.696 94.6928 219.61C86.5052 219.524 79.8491 221.244 79.826 223.451C79.8029 225.658 86.4215 227.516 94.6091 227.602C102.797 227.688 109.453 225.968 109.476 223.761Z" fill="#D4EBFF"/>
<path d="M93.9489 228.255C93.749 228.255 93.5892 228.255 93.3894 228.255C89.3533 228.255 85.5569 227.735 82.7196 226.936C79.4428 226.017 77.8044 224.778 77.8044 223.3C77.8044 221.781 79.4828 220.582 82.7596 219.743C85.6369 218.984 89.4331 218.624 93.4692 218.664C101.222 218.744 109.094 220.462 109.054 223.619C109.054 226.696 101.502 228.295 93.9089 228.295L93.9489 228.255ZM92.9498 220.223C89.2734 220.223 85.8367 220.582 83.1992 221.262C80.2021 222.021 79.4429 222.94 79.4429 223.3C79.4429 223.659 80.2021 224.578 83.1592 225.418C85.8766 226.177 89.5532 226.617 93.4294 226.656C102.541 226.736 107.496 224.658 107.496 223.579C107.496 222.5 102.58 220.303 93.5092 220.223C93.3094 220.223 93.1496 220.223 92.9498 220.223Z" fill="#7EBBED"/>
</g>
<g opacity="0.8">
<path d="M97.9848 202.8C97.9848 202.8 95.827 205.677 96.0268 209.113C96.3065 214.069 99.7831 222.461 99.7831 222.501C99.7831 223.42 96.9459 224.099 93.4293 224.059C89.9526 224.059 87.1152 223.26 87.1152 222.341C87.1152 221.422 90.7518 213.989 91.1514 209.034C91.3912 205.597 89.3131 202.68 89.3131 202.68" fill="#D4EBFF"/>
<path d="M93.7091 224.858C93.6292 224.858 93.5492 224.858 93.4693 224.858C91.711 224.858 90.0727 224.658 88.7939 224.299C88.1945 224.139 86.3562 223.659 86.3562 222.341C86.3562 222.181 86.3561 222.101 86.476 221.901C87.555 219.344 90.0726 212.99 90.3524 208.994C90.5921 205.917 88.7538 203.279 88.6739 203.159C88.594 203.039 88.5141 202.879 88.5141 202.68C88.5141 202.32 88.7538 202.04 89.0735 201.92C89.3932 201.8 89.7529 201.92 89.9527 202.24C90.0327 202.36 92.1905 205.477 91.9108 209.113C91.5911 213.229 89.1136 219.583 87.9947 222.301C88.5142 222.66 90.4324 223.22 93.4295 223.26C96.4266 223.26 98.3446 222.78 98.8641 222.421C97.7851 219.663 95.4275 213.269 95.1877 209.153C94.9879 205.637 97.0259 202.72 97.3056 202.36C97.3855 202.24 97.4656 202.16 97.6254 202.08C98.025 201.88 98.5045 202.08 98.7043 202.44C98.8242 202.72 98.8243 203.039 98.6245 203.279C98.5445 203.399 96.6663 206.036 96.8262 209.073C97.026 213.07 99.4235 219.463 100.463 222.021C100.542 222.261 100.583 222.341 100.583 222.501C100.583 223.779 98.7043 224.259 98.1048 224.419C96.906 224.698 95.3475 224.898 93.6691 224.898L93.7091 224.858Z" fill="#7EBBED"/>
</g>
<path d="M77.245 145.295C77.245 143.656 84.8775 142.378 94.2685 142.458C103.659 142.538 111.252 143.976 111.252 145.615C111.252 146.853 107.096 154.566 107.376 167.633C107.456 171.989 108.295 176.305 109.574 180.501C110.173 182.419 110.453 184.497 110.453 186.655C110.333 196.925 102.86 204.038 93.6691 203.958C84.5179 203.878 77.1651 196.565 77.245 186.335C77.245 184.177 77.6047 182.099 78.2441 180.181C79.6028 176.025 80.5217 171.749 80.6816 167.354C81.2011 154.286 77.2051 146.494 77.245 145.255V145.295Z" fill="#F9EF93"/>
<path d="M93.8292 204.758C93.7493 204.758 93.7093 204.758 93.6294 204.758C88.9139 204.718 84.558 202.839 81.3611 199.523C78.1242 196.126 76.366 191.45 76.4059 186.335C76.4059 184.137 76.7656 182.02 77.445 179.942C78.9236 175.426 79.6827 171.31 79.8825 167.354C80.2821 157.403 78.0443 150.65 76.9654 147.373C76.5657 146.174 76.4059 145.655 76.4059 145.295C76.4059 144.416 77.0852 143.297 82.0804 142.458C85.3572 141.898 89.673 141.658 94.2686 141.698C98.8642 141.738 103.18 142.098 106.417 142.697C111.412 143.617 112.052 144.775 112.012 145.655C112.012 146.054 111.852 146.534 111.412 147.733C110.293 150.969 107.896 157.683 108.135 167.633C108.215 171.59 108.935 175.746 110.293 180.261C110.933 182.299 111.212 184.457 111.212 186.655C111.172 191.77 109.294 196.406 105.977 199.762C102.781 202.999 98.4647 204.758 93.7892 204.758H93.8292ZM78.0444 145.335C78.0844 145.575 78.2841 146.214 78.5238 146.853C79.6427 150.21 81.9206 157.163 81.5209 167.394C81.3611 171.51 80.522 175.746 79.0434 180.421C78.444 182.299 78.1242 184.297 78.0842 186.335C78.0442 191.011 79.6428 195.327 82.6 198.404C85.4772 201.441 89.4333 203.119 93.7092 203.159C93.7492 203.159 93.829 203.159 93.869 203.159C98.1049 203.159 102.021 201.561 104.898 198.604C107.935 195.566 109.614 191.291 109.654 186.615C109.654 184.577 109.374 182.579 108.815 180.701C107.376 176.025 106.657 171.749 106.577 167.633C106.377 157.403 108.815 150.49 109.974 147.173C110.173 146.534 110.413 145.894 110.453 145.655C109.854 144.855 104.499 143.337 94.2686 143.257C84.0385 143.137 78.6438 144.576 78.0444 145.335Z" fill="#EDA548"/>
<path d="M79.7225 181.38C79.6425 181.38 79.5626 181.38 79.4826 181.38C79.0431 181.26 78.8433 180.781 78.9632 180.381C80.4418 175.865 81.2011 171.749 81.4009 167.793C81.4808 166.275 81.4808 164.756 81.4009 163.238C81.4009 162.798 81.7206 162.438 82.1601 162.398C82.5997 162.398 82.9594 162.718 82.9994 163.158C83.0793 164.676 83.0393 166.275 82.9994 167.833C82.8395 171.949 82.0003 176.185 80.5217 180.861C80.4018 181.18 80.0821 181.42 79.7625 181.42L79.7225 181.38Z" fill="#FFFFE3"/>
<path d="M83.9182 155.725C85.6176 155.725 86.9953 154.347 86.9953 152.648C86.9953 150.948 85.6176 149.571 83.9182 149.571C82.2188 149.571 80.8413 150.948 80.8413 152.648C80.8413 154.347 82.2188 155.725 83.9182 155.725Z" fill="#F9EF93"/>
<path d="M83.9183 156.564C81.7604 156.564 80.042 154.766 80.082 152.648C80.082 151.609 80.5217 150.65 81.241 149.93C81.9603 149.211 82.9193 148.812 83.9583 148.812H83.9983C85.0373 148.812 85.9963 149.251 86.7156 149.97C87.4349 150.73 87.8347 151.689 87.8347 152.728C87.8347 154.846 86.0763 156.564 83.9583 156.564H83.9183ZM83.9183 150.37C83.3189 150.37 82.7594 150.61 82.3199 151.009C81.8803 151.449 81.6406 152.008 81.6406 152.608C81.6406 153.847 82.6396 154.886 83.9183 154.926C85.1571 154.926 86.1962 153.927 86.1962 152.648C86.1962 152.048 85.9564 151.449 85.5568 151.009C85.1572 150.57 84.5577 150.33 83.9583 150.33L83.9183 150.37Z" fill="white"/>
<path d="M89.353 145.095C89.9048 145.095 90.3521 144.648 90.3521 144.096C90.3521 143.544 89.9048 143.097 89.353 143.097C88.8013 143.097 88.354 143.544 88.354 144.096C88.354 144.648 88.8013 145.095 89.353 145.095Z" fill="#F9EF93"/>
<path d="M89.3532 145.934C88.3542 145.934 87.5549 145.095 87.5549 144.096C87.5549 143.617 87.7547 143.177 88.1144 142.817C88.474 142.498 88.9137 142.298 89.3932 142.298C90.3922 142.298 91.1915 143.137 91.1915 144.136C91.1915 144.616 90.9917 145.055 90.632 145.415C90.3124 145.734 89.8327 145.934 89.3532 145.934ZM89.3532 143.896C89.2733 143.896 89.2334 143.896 89.1934 143.936C89.1934 143.936 89.1134 144.016 89.1134 144.096C89.1134 144.216 89.1933 144.296 89.3132 144.296C89.3931 144.296 89.433 144.296 89.473 144.256C89.473 144.256 89.553 144.176 89.553 144.096C89.553 143.976 89.4731 143.896 89.3532 143.896Z" fill="white"/>
<path d="M107.056 148.732C107.608 148.732 108.055 148.284 108.055 147.732C108.055 147.181 107.608 146.733 107.056 146.733C106.504 146.733 106.057 147.181 106.057 147.732C106.057 148.284 106.504 148.732 107.056 148.732Z" fill="#F9EF93"/>
<path d="M107.056 149.531C106.577 149.531 106.137 149.331 105.777 148.971C105.458 148.612 105.258 148.172 105.258 147.693C105.258 146.694 106.057 145.894 107.056 145.894C108.055 145.894 108.854 146.733 108.854 147.733C108.854 148.732 108.055 149.531 107.056 149.531ZM107.056 147.533C106.936 147.533 106.856 147.613 106.856 147.733C106.856 147.812 106.856 147.852 106.896 147.892C106.936 147.932 106.976 147.972 107.056 147.972C107.176 147.972 107.256 147.892 107.256 147.772C107.256 147.653 107.176 147.573 107.056 147.573V147.533Z" fill="white"/>
<path d="M85.197 150.25C86.8964 150.25 88.2739 148.872 88.2739 147.173C88.2739 145.474 86.8964 144.096 85.197 144.096C83.4976 144.096 82.1199 145.474 82.1199 147.173C82.1199 148.872 83.4976 150.25 85.197 150.25Z" fill="#F9EF93"/>
<path d="M85.1972 151.049C84.1582 151.049 83.199 150.61 82.4797 149.89C81.7604 149.131 81.3608 148.172 81.3608 147.133C81.3608 146.094 81.8004 145.135 82.5197 144.416C83.279 143.696 84.238 143.297 85.277 143.297C86.316 143.297 87.2752 143.736 87.9945 144.456C88.7138 145.215 89.1133 146.174 89.1133 147.213C89.1133 149.331 87.3551 151.049 85.2372 151.049H85.1972ZM85.1972 144.895C84.5978 144.895 84.0383 145.135 83.5987 145.535C83.1591 145.974 82.9193 146.534 82.9193 147.133C82.9193 147.733 83.1591 148.332 83.5587 148.772C83.9583 149.211 84.5578 149.451 85.1572 149.451C86.396 149.451 87.4351 148.452 87.4351 147.173C87.4351 146.574 87.1953 145.974 86.7956 145.535C86.3561 145.095 85.7966 144.855 85.1972 144.855V144.895Z" fill="white"/>
<path d="M101.861 145.215C102.413 145.215 102.86 144.768 102.86 144.216C102.86 143.664 102.413 143.217 101.861 143.217C101.309 143.217 100.862 143.664 100.862 144.216C100.862 144.768 101.309 145.215 101.861 145.215Z" fill="#F9EF93"/>
<path d="M101.861 146.014C100.862 146.014 100.063 145.175 100.063 144.176C100.063 143.177 100.902 142.378 101.901 142.378C102.9 142.378 103.699 143.217 103.699 144.216C103.699 145.215 102.9 146.014 101.901 146.014H101.861ZM101.861 144.016C101.741 144.016 101.661 144.096 101.661 144.216C101.661 144.336 101.741 144.416 101.861 144.416C101.981 144.416 102.061 144.336 102.061 144.216C102.061 144.096 101.981 144.016 101.861 144.016Z" fill="white"/>
<path d="M88.9138 153.247C90.0174 153.247 90.9119 152.353 90.9119 151.249C90.9119 150.146 90.0174 149.251 88.9138 149.251C87.8103 149.251 86.9158 150.146 86.9158 151.249C86.9158 152.353 87.8103 153.247 88.9138 153.247Z" fill="#F9EF93"/>
<path d="M88.9136 154.046C87.395 154.046 86.1562 152.768 86.1562 151.249C86.1562 149.731 87.435 148.492 88.9536 148.492C90.4721 148.492 91.7109 149.771 91.7109 151.289C91.7109 152.808 90.4321 154.046 88.9136 154.046ZM88.9136 150.05C88.5939 150.05 88.3141 150.17 88.0743 150.37C87.8346 150.61 87.7147 150.89 87.7147 151.209C87.7147 151.849 88.2342 152.408 88.8736 152.408C89.5129 152.408 90.0724 151.889 90.0724 151.249C90.0724 150.61 89.5529 150.05 88.9136 150.05Z" fill="white"/>
<path d="M93.789 157.323C95.4884 157.323 96.8659 155.946 96.8659 154.246C96.8659 152.547 95.4884 151.169 93.789 151.169C92.0896 151.169 90.7119 152.547 90.7119 154.246C90.7119 155.946 92.0896 157.323 93.789 157.323Z" fill="#F9EF93"/>
<path d="M93.7892 158.123C92.7502 158.123 91.791 157.683 91.0717 156.964C90.3524 156.204 89.9529 155.245 89.9529 154.206C89.9529 153.167 90.3924 152.208 91.1117 151.489C91.871 150.77 92.83 150.37 93.869 150.37C94.908 150.37 95.8672 150.81 96.5865 151.529C97.3058 152.288 97.7054 153.247 97.7054 154.286C97.7054 155.325 97.2658 156.284 96.5465 157.004C95.8272 157.723 94.8682 158.123 93.8292 158.123H93.7892ZM93.7892 151.968C93.1898 151.968 92.6303 152.208 92.1908 152.608C91.7512 153.047 91.5113 153.607 91.5113 154.206C91.5113 154.806 91.7511 155.405 92.1508 155.845C92.5903 156.284 93.1498 156.524 93.7492 156.524C94.3486 156.524 94.9081 156.284 95.3477 155.885C95.7873 155.445 96.0271 154.886 96.0271 154.286C96.0271 153.687 95.7873 153.087 95.3877 152.648C94.9881 152.208 94.3886 151.968 93.7892 151.968Z" fill="white"/>
<path d="M98.6642 154.686C99.4808 154.686 100.143 154.024 100.143 153.207C100.143 152.391 99.4808 151.729 98.6642 151.729C97.8477 151.729 97.1858 152.391 97.1858 153.207C97.1858 154.024 97.8477 154.686 98.6642 154.686Z" fill="#F9EF93"/>
<path d="M98.6644 155.525C97.6254 155.525 96.6665 154.806 96.4267 153.767C96.2669 153.167 96.3866 152.568 96.7063 152.048C97.026 151.529 97.5456 151.169 98.145 151.009C98.7444 150.85 99.3438 150.969 99.8633 151.289C100.383 151.609 100.742 152.128 100.902 152.728C101.182 153.967 100.423 155.205 99.184 155.485C99.0242 155.525 98.8243 155.565 98.6644 155.565V155.525ZM98.6644 152.528C98.6244 152.528 98.5446 152.528 98.5046 152.528C98.3048 152.568 98.1849 152.688 98.065 152.848C97.9851 153.007 97.9452 153.207 97.9852 153.367C98.0651 153.727 98.4648 153.967 98.8244 153.887C99.1841 153.807 99.4238 153.407 99.3438 153.047C99.3039 152.848 99.1841 152.728 99.0242 152.608C98.9043 152.528 98.7843 152.488 98.6644 152.488V152.528Z" fill="white"/>
<path d="M86.8757 160.64C87.6923 160.64 88.3543 159.978 88.3543 159.161C88.3543 158.345 87.6923 157.683 86.8757 157.683C86.0591 157.683 85.3972 158.345 85.3972 159.161C85.3972 159.978 86.0591 160.64 86.8757 160.64Z" fill="#F9EF93"/>
<path d="M86.8755 161.439C86.4758 161.439 86.0363 161.319 85.6766 161.08C85.1571 160.76 84.7976 160.24 84.6378 159.641C84.358 158.402 85.1172 157.163 86.356 156.884C86.9555 156.724 87.5548 156.844 88.0743 157.163C88.5938 157.483 88.9535 158.003 89.1133 158.602C89.3931 159.841 88.6339 161.08 87.3951 161.359C87.2352 161.399 87.0353 161.439 86.8755 161.439ZM86.8755 158.442C86.8355 158.442 86.7556 158.442 86.7156 158.442C86.356 158.522 86.1163 158.922 86.1962 159.281C86.2362 159.481 86.356 159.601 86.5158 159.721C86.6757 159.801 86.8756 159.841 87.0355 159.801C87.3951 159.721 87.6348 159.321 87.5549 158.962C87.5149 158.762 87.3951 158.642 87.2353 158.522C87.1154 158.442 86.9953 158.402 86.8755 158.402V158.442Z" fill="white"/>
<path d="M97.7452 148.971C99.2018 148.971 100.383 147.791 100.383 146.334C100.383 144.877 99.2018 143.696 97.7452 143.696C96.2885 143.696 95.1077 144.877 95.1077 146.334C95.1077 147.791 96.2885 148.971 97.7452 148.971Z" fill="#F9EF93"/>
<path d="M97.7452 149.771C96.1867 149.771 94.7882 148.692 94.4285 147.133C93.9889 145.295 95.1078 143.457 96.946 143.017C98.7842 142.578 100.622 143.696 101.062 145.535C101.502 147.373 100.383 149.211 98.5445 149.651C98.2647 149.731 98.025 149.731 97.7452 149.731V149.771ZM95.947 146.773C96.1867 147.773 97.1858 148.372 98.1448 148.132C99.1439 147.892 99.7433 146.893 99.5035 145.934C99.2637 144.935 98.2647 144.336 97.3056 144.576C96.3066 144.815 95.7072 145.814 95.947 146.773Z" fill="white"/>
<path d="M123.546 96.5596L120.495 95.2583L97.4009 149.402L100.452 150.703L123.546 96.5596Z" fill="#60E2C9"/>
<path d="M100.263 151.889C100.143 151.889 100.063 151.889 99.9429 151.809L96.9058 150.53C96.706 150.45 96.5461 150.29 96.4662 150.09C96.3863 149.89 96.3863 149.691 96.4662 149.491L119.564 95.343C119.644 95.1432 119.804 94.9834 120.004 94.9034C120.203 94.8235 120.403 94.8235 120.603 94.9034L123.64 96.1822C124.04 96.3421 124.239 96.8216 124.08 97.2212L100.982 151.369C100.862 151.689 100.542 151.849 100.263 151.849V151.889ZM98.2645 149.371L99.8231 150.05L122.281 97.3811L120.723 96.7017L98.2645 149.371Z" fill="#1F897F"/>
<path d="M92.9095 145.854C93.6378 145.854 94.2283 145.264 94.2283 144.536C94.2283 143.807 93.6378 143.217 92.9095 143.217C92.1812 143.217 91.5908 143.807 91.5908 144.536C91.5908 145.264 92.1812 145.854 92.9095 145.854Z" fill="#F9EF93"/>
<path d="M92.9096 146.654C91.9505 146.654 91.0713 146.014 90.8715 145.015C90.5918 143.896 91.3113 142.737 92.4302 142.458C93.5491 142.178 94.7079 142.897 94.9877 144.016C95.1076 144.576 95.0276 145.135 94.7479 145.615C94.4681 146.094 93.9887 146.414 93.4292 146.574C93.2694 146.574 93.1095 146.614 92.9496 146.614L92.9096 146.654ZM92.4302 144.655C92.5101 144.935 92.7897 145.095 93.0694 145.055C93.1893 145.055 93.3093 144.935 93.3892 144.815C93.4691 144.695 93.469 144.576 93.469 144.416C93.3891 144.136 93.1095 143.976 92.8298 144.016C92.5501 144.096 92.3902 144.376 92.4302 144.655Z" fill="white"/>
<path d="M105.138 146.933C105.866 146.933 106.457 146.343 106.457 145.615C106.457 144.886 105.866 144.296 105.138 144.296C104.41 144.296 103.819 144.886 103.819 145.615C103.819 146.343 104.41 146.933 105.138 146.933Z" fill="#F9EF93"/>
<path d="M105.138 147.733C104.179 147.733 103.3 147.093 103.1 146.094C102.98 145.535 103.06 144.975 103.34 144.496C103.62 144.016 104.099 143.696 104.659 143.537C105.218 143.417 105.777 143.497 106.257 143.776C106.737 144.056 107.056 144.536 107.216 145.095C107.496 146.214 106.777 147.373 105.658 147.653C105.498 147.653 105.338 147.693 105.178 147.693L105.138 147.733ZM104.619 145.734C104.699 146.014 104.978 146.174 105.258 146.134C105.538 146.054 105.698 145.774 105.658 145.495C105.658 145.375 105.538 145.255 105.418 145.175C105.298 145.095 105.178 145.095 105.018 145.095C104.898 145.095 104.778 145.215 104.699 145.335C104.619 145.455 104.619 145.575 104.619 145.734Z" fill="white"/>
<path d="M80.4419 148.252C81.3468 148.252 82.0802 147.518 82.0802 146.614C82.0802 145.709 81.3468 144.975 80.4419 144.975C79.5371 144.975 78.8035 145.709 78.8035 146.614C78.8035 147.518 79.5371 148.252 80.4419 148.252Z" fill="#F9EF93"/>
<path d="M80.4418 149.051C79.3628 149.051 78.3636 148.292 78.0839 147.173C77.9241 146.534 78.044 145.894 78.3637 145.335C78.6834 144.775 79.2428 144.416 79.8822 144.256C80.5216 144.096 81.161 144.216 81.7204 144.536C82.2799 144.855 82.6396 145.415 82.7995 146.054C83.1192 147.373 82.3199 148.652 81.0012 148.971C80.8014 149.011 80.6416 149.051 80.4418 149.051ZM80.4418 145.814C80.3619 145.814 80.3219 145.814 80.242 145.814C80.0422 145.854 79.8423 146.014 79.7224 146.174C79.6025 146.374 79.5626 146.574 79.6426 146.813C79.7624 147.253 80.202 147.533 80.6416 147.413C81.0812 147.293 81.3609 146.853 81.241 146.414C81.1611 146.054 80.8014 145.774 80.4418 145.774V145.814Z" fill="white"/>
<path d="M104.059 158.442C105.758 158.442 107.136 157.065 107.136 155.365C107.136 153.666 105.758 152.288 104.059 152.288C102.36 152.288 100.982 153.666 100.982 155.365C100.982 157.065 102.36 158.442 104.059 158.442Z" fill="#F9EF93"/>
<path d="M104.059 159.241C103.02 159.241 102.061 158.802 101.342 158.083C100.622 157.323 100.223 156.364 100.223 155.325C100.223 154.286 100.662 153.327 101.382 152.608C102.141 151.889 103.1 151.489 104.139 151.489C105.178 151.489 106.137 151.929 106.856 152.648C107.576 153.407 107.975 154.366 107.975 155.405C107.975 156.444 107.536 157.403 106.817 158.123C106.097 158.842 105.138 159.241 104.099 159.241H104.059ZM104.059 153.087C103.46 153.087 102.9 153.327 102.461 153.727C102.021 154.166 101.781 154.726 101.781 155.325C101.781 155.925 102.021 156.524 102.421 156.964C102.82 157.403 103.42 157.643 104.019 157.643C104.659 157.643 105.218 157.403 105.658 157.004C106.097 156.564 106.337 156.005 106.337 155.405C106.337 154.806 106.097 154.206 105.698 153.767C105.258 153.327 104.698 153.087 104.099 153.087H104.059Z" fill="white"/>
<path d="M106.736 152.168C107.42 152.168 107.975 151.614 107.975 150.929C107.975 150.245 107.42 149.691 106.736 149.691C106.052 149.691 105.497 150.245 105.497 150.929C105.497 151.614 106.052 152.168 106.736 152.168Z" fill="#F9EF93"/>
<path d="M106.736 152.967C105.617 152.967 104.698 152.048 104.698 150.889C104.698 149.771 105.617 148.851 106.736 148.851C107.855 148.851 108.774 149.771 108.774 150.929C108.774 152.048 107.855 152.967 106.736 152.967ZM106.736 150.49C106.497 150.49 106.297 150.69 106.297 150.929C106.297 151.169 106.497 151.369 106.736 151.369C106.976 151.369 107.176 151.169 107.176 150.929C107.176 150.69 106.976 150.49 106.736 150.49Z" fill="white"/>
<path d="M101.821 153.927C103.874 153.927 105.538 152.263 105.538 150.21C105.538 148.158 103.874 146.494 101.821 146.494C99.7688 146.494 98.1047 148.158 98.1047 150.21C98.1047 152.263 99.7688 153.927 101.821 153.927Z" fill="#F9EF93"/>
<path d="M101.821 154.726H101.781C100.582 154.726 99.4236 154.246 98.5844 153.367C97.7452 152.488 97.2656 151.369 97.3055 150.13C97.3055 148.931 97.785 147.773 98.6642 146.933C99.5433 146.094 100.662 145.615 101.901 145.655C103.1 145.655 104.259 146.134 105.098 147.013C105.937 147.892 106.417 149.011 106.377 150.25C106.377 151.449 105.897 152.608 105.018 153.447C104.179 154.286 103.02 154.726 101.861 154.726H101.821ZM101.821 147.253C101.062 147.253 100.303 147.533 99.7832 148.092C99.2238 148.652 98.904 149.371 98.904 150.17C98.904 150.969 99.1838 151.689 99.7432 152.248C100.303 152.808 101.022 153.127 101.821 153.127C102.621 153.127 103.34 152.848 103.899 152.288C104.459 151.729 104.778 151.009 104.778 150.21C104.778 149.411 104.499 148.692 103.939 148.132C103.38 147.573 102.66 147.253 101.861 147.253H101.821Z" fill="white"/>
<path d="M95.1874 141.339C96.3863 143.816 95.5072 146.454 93.0296 147.653C90.552 148.851 87.9144 147.972 86.7155 145.495C85.5167 143.017 86.5158 140.619 88.9534 139.42C91.431 138.222 93.9486 138.861 95.1474 141.339H95.1874Z" fill="#E83D4D"/>
<path d="M90.8318 148.971C90.2724 148.971 89.7128 148.891 89.1534 148.692C87.7947 148.252 86.6758 147.213 85.9965 145.854C84.6378 143.097 85.7167 140.14 88.594 138.701C89.9926 138.022 91.4312 137.862 92.7499 138.222C94.1086 138.621 95.1875 139.58 95.8668 140.979C96.5462 142.378 96.6662 143.856 96.2266 145.215C95.7871 146.574 94.748 147.693 93.3893 148.372C92.5501 148.771 91.671 148.971 90.8318 148.971ZM91.3513 139.62C90.7119 139.62 90.0325 139.78 89.3532 140.14C87.2352 141.179 86.4759 143.177 87.4749 145.135C87.9545 146.134 88.7537 146.853 89.7128 147.173C90.6719 147.493 91.7109 147.413 92.7099 146.893C94.7879 145.854 95.5072 143.736 94.5082 141.658C94.0286 140.659 93.2694 140.02 92.3503 139.74C92.0306 139.66 91.711 139.62 91.3913 139.62H91.3513Z" fill="#7A001D"/>
<path d="M87.9544 144.616C87.5548 144.616 87.2351 144.336 87.1552 143.936C87.0353 143.137 87.1552 142.338 87.5548 141.698C87.7946 141.299 88.2742 141.179 88.6338 141.419C89.0335 141.658 89.1532 142.138 88.9135 142.498C88.7137 142.817 88.6337 143.217 88.7137 143.656C88.7936 144.096 88.5138 144.496 88.0742 144.576C88.0343 144.576 87.9944 144.576 87.9544 144.576V144.616Z" fill="#FFD4DB"/>
<path d="M89.6329 141.499C89.3132 141.499 89.0333 141.299 88.8735 141.019C86.3958 134.945 84.318 132.907 83.4388 132.068C83.3589 131.988 83.279 131.908 83.239 131.868C82.9193 131.548 82.9193 131.029 83.239 130.749C83.5587 130.429 84.0782 130.429 84.3579 130.749C84.3978 130.789 84.4778 130.869 84.5577 130.949C85.5168 131.868 87.7146 134.066 90.3521 140.46C90.512 140.859 90.3521 141.339 89.9125 141.499C89.8326 141.538 89.7128 141.538 89.5929 141.538L89.6329 141.499Z" fill="#7A001D"/>
<path d="M83.8386 132.667C83.4789 132.667 83.1193 132.547 82.8395 132.267C82.4799 131.908 81.6806 131.508 81.2011 131.308C80.4818 131.029 80.1221 130.229 80.4018 129.51C80.6816 128.791 81.4808 128.431 82.2001 128.671C82.3599 128.751 83.9583 129.35 84.8774 130.269C85.4369 130.829 85.3969 131.708 84.8774 132.267C84.5977 132.547 84.238 132.667 83.8784 132.667H83.8386Z" fill="#7A001D"/>
<path d="M95.6272 152.488C97.3266 152.488 98.7041 151.11 98.7041 149.411C98.7041 147.711 97.3266 146.334 95.6272 146.334C93.9278 146.334 92.55 147.711 92.55 149.411C92.55 151.11 93.9278 152.488 95.6272 152.488Z" fill="#F9EF93"/>
<path d="M95.6273 153.287C93.4694 153.287 91.751 151.489 91.791 149.371C91.791 147.213 93.5492 145.535 95.7071 145.535C97.865 145.535 99.5834 147.333 99.5435 149.451C99.5435 151.569 97.7851 153.287 95.6671 153.287H95.6273ZM95.6273 147.133C94.3885 147.133 93.3494 148.132 93.3494 149.411C93.3494 150.65 94.3485 151.689 95.6273 151.729C96.8661 151.729 97.905 150.73 97.905 149.451C97.905 148.212 96.9061 147.173 95.6273 147.133Z" fill="white"/>
<path d="M90.6717 149.251C91.7531 149.251 92.63 148.374 92.63 147.293C92.63 146.211 91.7531 145.335 90.6717 145.335C89.5903 145.335 88.7136 146.211 88.7136 147.293C88.7136 148.374 89.5903 149.251 90.6717 149.251Z" fill="#F9EF93"/>
<path d="M90.6719 150.05C89.9525 150.05 89.2333 149.731 88.7138 149.211C88.1943 148.692 87.9146 147.972 87.9146 147.253C87.9146 146.534 88.2343 145.814 88.7538 145.295C89.2733 144.775 89.9526 144.496 90.7119 144.496C92.2304 144.496 93.4692 145.774 93.4692 147.293C93.4692 148.811 92.2304 150.05 90.7119 150.05H90.6719ZM90.6719 146.134C90.3522 146.134 90.0724 146.254 89.8726 146.454C89.6329 146.654 89.513 146.973 89.513 147.293C89.513 147.613 89.633 147.892 89.8328 148.132C90.0326 148.372 90.3522 148.492 90.6719 148.492C91.3112 148.492 91.8309 147.972 91.8309 147.333C91.8309 146.693 91.3112 146.174 90.6719 146.134Z" fill="white"/>
<path d="M104.099 142.617C103.819 140.699 103.659 139.181 103.58 138.421C103.22 134.625 113.81 134.026 112.85 138.821V138.861C113.85 135.185 123.72 138.262 121.163 142.418C121.163 142.418 121.163 142.418 121.163 142.458C123.36 139.381 131.153 146.054 127.317 149.051C126.837 149.411 126.198 149.93 125.399 150.49L104.139 142.577L104.099 142.617Z" fill="#4BC665"/>
<path d="M125.399 151.289C125.319 151.289 125.199 151.289 125.119 151.249L103.859 143.337C103.58 143.217 103.38 142.977 103.34 142.697C103.06 140.619 102.86 139.181 102.82 138.461C102.701 137.263 103.34 136.224 104.619 135.504C106.617 134.345 110.333 134.106 112.411 135.584C112.931 135.944 113.29 136.383 113.53 136.903C113.93 136.703 114.369 136.543 114.849 136.463C117.047 136.104 120.483 137.143 121.882 139.181C122.242 139.7 122.441 140.26 122.441 140.859C122.801 140.819 123.201 140.859 123.6 140.899C125.958 141.379 128.516 143.776 129.075 146.014C129.435 147.453 128.995 148.732 127.836 149.651C127.397 150.01 126.717 150.49 125.918 151.089C125.798 151.209 125.598 151.249 125.438 151.249L125.399 151.289ZM104.858 142.018L125.279 149.611C125.918 149.131 126.438 148.732 126.797 148.452C127.437 147.932 127.676 147.293 127.477 146.454C127.077 144.775 124.999 142.857 123.241 142.498C122.242 142.298 121.882 142.777 121.802 142.897C121.562 143.257 121.083 143.337 120.723 143.097C120.363 142.857 120.244 142.378 120.483 142.018C120.923 141.339 120.883 140.739 120.483 140.1C119.564 138.741 116.927 137.782 115.048 138.062C114.249 138.182 113.77 138.541 113.61 139.061C113.49 139.46 113.09 139.74 112.651 139.62C112.251 139.54 111.971 139.101 112.051 138.701V138.621C112.211 137.862 112.012 137.303 111.412 136.903C110.053 135.944 107.056 135.904 105.378 136.903C104.659 137.303 104.339 137.782 104.379 138.342C104.459 139.021 104.579 140.26 104.858 142.058V142.018Z" fill="#286641"/>
<path d="M106.817 135.864C107.616 134.265 109.294 133.386 109.294 133.386C108.814 134.865 109.414 135.704 109.414 135.704C109.534 136.104 106.537 136.463 106.817 135.904V135.864Z" fill="#725141"/>
<path d="M107.616 136.983C107.096 136.983 106.617 136.903 106.337 136.663C106.017 136.383 105.937 135.944 106.137 135.544C107.056 133.786 108.855 132.747 108.935 132.707C109.214 132.547 109.574 132.587 109.814 132.787C110.054 132.987 110.173 133.346 110.053 133.666C109.734 134.705 110.053 135.265 110.053 135.265C110.093 135.344 110.133 135.384 110.133 135.464C110.253 135.784 110.173 136.224 109.734 136.543C109.374 136.783 108.415 137.023 107.576 137.023L107.616 136.983ZM108.375 135.145C108.295 135.225 108.255 135.265 108.175 135.344C108.255 135.344 108.335 135.344 108.415 135.344C108.415 135.304 108.415 135.225 108.415 135.185L108.375 135.145Z" fill="#443530"/>
<path d="M116.527 137.582C117.926 136.463 119.804 136.304 119.804 136.304C118.765 137.462 118.965 138.462 118.965 138.462C118.965 138.861 116.008 137.982 116.527 137.582Z" fill="#725141"/>
<path d="M118.765 139.381C117.926 139.381 116.128 138.861 115.768 138.102C115.608 137.702 115.688 137.263 116.048 136.983C117.606 135.744 119.644 135.544 119.764 135.544C120.084 135.544 120.404 135.704 120.563 135.984C120.723 136.264 120.643 136.623 120.443 136.863C119.724 137.662 119.804 138.302 119.804 138.342C119.804 138.422 119.804 138.462 119.804 138.541C119.804 138.861 119.564 139.261 119.005 139.341C118.965 139.341 118.885 139.341 118.805 139.341L118.765 139.381ZM118.006 137.622C118.086 137.622 118.166 137.662 118.206 137.702C118.206 137.662 118.206 137.582 118.206 137.542C118.126 137.542 118.046 137.622 117.966 137.662L118.006 137.622Z" fill="#443530"/>
<path d="M124.719 142.378C126.437 141.978 128.196 142.657 128.196 142.657C126.757 143.217 126.517 144.216 126.517 144.216C126.317 144.576 124.08 142.498 124.719 142.338V142.378Z" fill="#725141"/>
<path d="M126.477 145.095C126.397 145.095 126.278 145.095 126.158 145.055C125.518 144.855 123.8 143.457 123.84 142.498C123.84 142.058 124.16 141.698 124.559 141.618C126.517 141.179 128.435 141.938 128.515 141.938C128.835 142.058 129.035 142.338 129.035 142.697C129.035 143.057 128.835 143.337 128.515 143.457C127.516 143.856 127.317 144.456 127.317 144.496C127.317 144.576 127.276 144.616 127.237 144.695C127.117 144.895 126.837 145.135 126.477 145.135V145.095ZM126.038 143.057C126.078 143.097 126.158 143.177 126.198 143.217C126.198 143.177 126.278 143.137 126.317 143.097C126.238 143.097 126.118 143.097 126.038 143.097V143.057Z" fill="#443530"/>
<path d="M120.204 143.816C120.204 143.816 120.204 143.816 120.204 143.776C122.602 139.86 113.33 136.983 112.371 140.42C112.371 140.42 112.371 140.42 112.371 140.38C113.29 135.864 103.46 136.543 103.78 140.14C104.099 143.736 107.096 163.357 107.096 163.357C107.096 163.357 122.362 152.927 125.958 150.05C129.555 147.213 122.242 140.939 120.164 143.816H120.204Z" fill="#FCEE70"/>
<path d="M107.136 164.117C107.016 164.117 106.937 164.117 106.817 164.037C106.577 163.917 106.377 163.677 106.337 163.437C106.217 162.638 103.34 143.736 103.02 140.18C102.9 139.021 103.54 137.982 104.779 137.302C106.657 136.224 110.094 135.984 111.972 137.302C112.451 137.622 112.771 138.022 112.971 138.501C113.33 138.302 113.73 138.182 114.21 138.102C116.328 137.742 119.564 138.741 120.843 140.699C121.163 141.179 121.363 141.698 121.403 142.258C121.722 142.258 122.082 142.258 122.482 142.298C124.719 142.737 127.157 145.015 127.677 147.173C127.996 148.532 127.597 149.77 126.478 150.61C122.881 153.447 108.175 163.517 107.576 163.957C107.456 164.037 107.296 164.117 107.136 164.117ZM108.495 137.982C107.456 137.982 106.337 138.222 105.538 138.661C104.859 139.061 104.539 139.5 104.579 140.02C104.859 143.017 107.016 157.523 107.696 161.919C111.212 159.521 122.482 151.729 125.479 149.371C126.078 148.891 126.278 148.292 126.078 147.533C125.718 146.014 123.76 144.176 122.122 143.856C121.203 143.656 120.883 144.096 120.803 144.216C120.563 144.575 120.084 144.655 119.724 144.416C119.365 144.176 119.245 143.696 119.484 143.337C119.884 142.697 119.884 142.138 119.484 141.578C118.645 140.3 116.168 139.42 114.409 139.7C113.69 139.82 113.21 140.14 113.091 140.619C112.971 141.019 112.571 141.299 112.132 141.179C111.692 141.059 111.452 140.659 111.532 140.22C111.652 139.5 111.492 138.981 110.973 138.621C110.373 138.182 109.454 137.982 108.455 137.982H108.495Z" fill="#E89437"/>
<path d="M108.335 139.381C107.496 140.619 105.378 141.618 105.378 141.618C108.015 140.899 111.132 141.658 111.132 141.658C111.132 141.658 109.414 140.699 108.295 139.381H108.335Z" fill="#725141"/>
<path d="M116.887 141.059C115.648 141.858 113.29 141.978 113.29 141.978C115.968 142.378 118.565 144.296 118.565 144.296C118.565 144.296 117.366 142.737 116.887 141.059Z" fill="#725141"/>
<path d="M124.2 145.854C122.721 146.014 120.563 145.095 120.563 145.095C122.801 146.614 124.28 149.491 124.28 149.491C124.28 149.491 123.88 147.573 124.2 145.854Z" fill="#725141"/>
<path d="M110.893 158.123C110.773 158.123 110.613 158.122 110.493 158.003C110.133 157.763 109.974 157.283 110.213 156.924C111.093 155.485 112.611 153.447 114.09 151.489C115.488 149.651 116.927 147.772 117.686 146.494C117.926 146.094 118.405 145.974 118.765 146.214C119.165 146.454 119.285 146.933 119.045 147.293C118.246 148.612 116.847 150.49 115.368 152.408C113.89 154.326 112.411 156.284 111.572 157.683C111.412 157.923 111.172 158.083 110.893 158.083V158.123Z" fill="#E89437"/>
<path d="M94.868 149.251C94.5483 149.251 94.3486 149.251 94.1887 149.251C92.3505 149.251 76.4059 148.971 76.4459 145.295C76.4459 144.855 76.8055 144.496 77.2451 144.496C77.6447 144.496 78.0044 144.815 78.0443 145.255C78.5638 146.054 83.9187 147.573 94.2287 147.693C104.539 147.772 109.894 146.374 110.453 145.575C110.453 145.175 110.853 144.855 111.252 144.855C111.692 144.855 112.051 145.215 112.051 145.654C112.051 149.051 98.4646 149.291 94.908 149.291L94.868 149.251Z" fill="#EDA548"/>
<path d="M93.8292 204.758C93.7493 204.758 93.7093 204.758 93.6294 204.758C88.9139 204.718 84.558 202.839 81.3611 199.523C78.1242 196.126 76.366 191.45 76.4059 186.335C76.4059 184.137 76.7656 182.019 77.445 179.941C78.9236 175.426 79.6827 171.31 79.8825 167.354C80.2821 157.403 78.0443 150.65 76.9654 147.373C76.5657 146.174 76.4059 145.654 76.4059 145.295C76.4059 144.855 76.7656 144.496 77.2052 144.496C77.6447 144.496 78.0044 144.855 78.0044 145.295C78.0044 145.495 78.2441 146.174 78.4838 146.893C79.6027 150.25 81.8805 157.203 81.4809 167.434C81.3211 171.55 80.482 175.785 79.0034 180.461C78.404 182.339 78.0844 184.337 78.0444 186.375C78.0044 191.051 79.6028 195.367 82.56 198.444C85.4372 201.481 89.3933 203.159 93.6692 203.199C93.7092 203.199 93.7892 203.199 93.8292 203.199C98.0651 203.199 101.981 201.601 104.858 198.643C107.895 195.606 109.574 191.33 109.614 186.655C109.614 184.617 109.334 182.619 108.775 180.741C107.336 176.065 106.617 171.789 106.537 167.673C106.337 157.443 108.775 150.53 109.934 147.213C110.173 146.534 110.413 145.814 110.453 145.654C110.453 145.215 110.813 144.855 111.252 144.855C111.692 144.855 112.051 145.215 112.051 145.654C112.051 146.054 111.892 146.534 111.452 147.732C110.333 150.969 107.936 157.683 108.175 167.633C108.255 171.59 108.975 175.745 110.333 180.261C110.973 182.299 111.252 184.457 111.252 186.655C111.212 191.77 109.334 196.406 106.017 199.762C102.821 202.999 98.5047 204.758 93.8292 204.758Z" fill="#EDA548"/>
<path d="M129.994 208.274C171.155 232.011 204.642 230.773 214.713 212.51C223.224 197.045 213.794 169.512 192.134 132.148L153.252 152.008C160.804 168.672 165.36 181.34 165.36 181.34C154.171 184.217 143.341 170.471 126.478 169.711L130.034 208.274H129.994Z" fill="#DDDCFC"/>
<path d="M146.658 205.597L129.954 207.635V208.274C171.155 232.011 204.682 230.773 214.713 212.51C221.946 199.363 216.231 177.544 201.086 148.332C201.805 150.37 199.407 149.771 200.047 151.769C213.114 193.209 206.281 225.897 146.658 205.597Z" fill="#9597CF"/>
<path d="M185.541 226.976C169.636 226.976 150.015 220.742 129.595 208.954C129.355 208.834 129.235 208.594 129.195 208.354L125.638 169.791C125.638 169.552 125.678 169.352 125.838 169.152C125.998 168.992 126.238 168.912 126.438 168.912C134.87 169.312 141.783 172.828 147.897 175.985C153.851 179.022 159.046 181.7 164.201 180.781C163.002 177.544 158.407 165.436 151.653 150.61C151.454 150.21 151.653 149.731 152.053 149.531C152.453 149.331 152.932 149.531 153.132 149.93C161.044 167.274 166 180.941 166.04 181.1C166.119 181.3 166.079 181.54 166 181.74C165.92 181.94 165.72 182.099 165.48 182.139C159.486 183.698 153.771 180.781 147.178 177.424C141.423 174.467 134.949 171.19 127.277 170.591L130.674 207.795C156.609 222.66 181.145 228.495 198.049 223.779C205.362 221.741 210.837 217.705 213.914 212.111C221.746 197.884 214.593 172.589 191.375 132.507C191.135 132.108 191.295 131.628 191.655 131.428C192.055 131.189 192.534 131.348 192.734 131.708C216.271 172.309 223.424 198.124 215.312 212.87C212.035 218.824 206.201 223.14 198.488 225.298C194.532 226.417 190.136 226.936 185.461 226.936L185.541 226.976Z" fill="#7481BA"/>
<path d="M185.541 226.976C169.636 226.976 150.015 220.742 129.595 208.954C129.195 208.714 129.075 208.234 129.315 207.875C129.555 207.475 130.035 207.355 130.394 207.595C156.449 222.62 181.145 228.535 198.129 223.779C205.442 221.741 210.917 217.705 213.994 212.111C220.667 199.962 216.231 179.222 200.367 148.692C200.167 148.292 200.327 147.813 200.726 147.613C201.126 147.413 201.605 147.573 201.805 147.972C209.718 163.238 214.713 175.746 217.071 186.255C219.588 197.525 219.069 206.236 215.392 212.87C212.115 218.824 206.281 223.14 198.568 225.298C194.612 226.417 190.217 226.936 185.541 226.936V226.976Z" fill="#191935"/>
<path d="M128.236 203.239C125.079 202.48 121.203 203.958 121.203 203.958C121.802 200.442 123.6 199.203 123.6 199.203C123.6 199.203 123.64 198.004 119.404 197.964C119.404 197.964 119.284 172.629 126.437 169.671C135.948 169.631 148.177 177.104 153.332 179.262C153.332 179.262 160.964 190.491 166.119 193.648C166.119 193.648 161.484 196.246 156.409 196.566C156.409 196.566 162.962 198.923 171.274 202.32C171.274 202.32 150.814 210.033 138.666 208.034C138.666 208.034 138.186 209.513 141.223 214.189C141.223 214.189 135.109 212.23 129.994 208.234C128.116 207.635 125.239 209.753 125.239 209.753C125.159 205.437 128.236 203.199 128.236 203.199V203.239Z" fill="#57539F"/>
<path d="M141.223 215.028C141.143 215.028 141.024 215.028 140.944 214.988C140.664 214.868 134.31 212.47 129.635 208.994C128.396 208.714 126.358 209.953 125.718 210.432C125.479 210.632 125.159 210.632 124.879 210.512C124.599 210.392 124.44 210.112 124.44 209.793C124.4 206.995 125.559 204.997 126.518 203.799C124 203.719 121.482 204.678 121.482 204.678C121.203 204.798 120.923 204.718 120.683 204.558C120.443 204.358 120.364 204.078 120.404 203.799C121.043 200.002 123.081 198.604 123.161 198.524C123.521 198.284 124.04 198.364 124.28 198.723C124.52 199.083 124.44 199.603 124.08 199.842C124.04 199.842 122.961 200.642 122.322 202.76C123.8 202.36 126.278 201.92 128.476 202.44C128.795 202.52 128.995 202.76 129.075 203.079C129.155 203.399 128.995 203.679 128.756 203.878C128.676 203.958 126.718 205.437 126.198 208.274C127.317 207.675 128.915 207.075 130.274 207.515C130.354 207.515 130.434 207.595 130.514 207.635C135.029 211.032 141.463 213.469 141.543 213.509C141.943 213.669 142.182 214.109 142.023 214.548C141.903 214.868 141.583 215.068 141.263 215.068L141.223 215.028Z" fill="#191935"/>
<path d="M117.166 198.484C123.041 198.044 123.041 202.2 132.631 201.521C132.631 201.521 134.19 196.965 138.466 194.328C138.466 194.328 134.709 191.53 132.032 191.251C132.032 191.251 133.63 185.576 137.067 181.9C137.067 181.9 133.71 177.943 130.753 177.224C130.753 177.224 131.872 175.825 134.23 175.546C134.23 175.546 130.194 172.229 125.878 171.709C125.878 171.709 127.237 170.63 129.155 170.151C129.155 170.151 116.607 165.316 106.457 170.551C106.457 170.551 104.658 189.852 117.166 198.444V198.484Z" fill="#DDDCFC"/>
<path d="M127.756 170.471C127.676 170.471 127.596 170.471 127.516 170.471C126.078 170.031 123.081 169.232 119.404 169.072C118.965 169.072 118.605 168.672 118.645 168.233C118.645 167.793 119.045 167.474 119.484 167.474C123.161 167.633 126.158 168.353 127.996 168.952C128.436 169.072 128.635 169.552 128.515 169.951C128.396 170.311 128.076 170.511 127.756 170.511V170.471Z" fill="#7481BA"/>
<path d="M130.594 202.4C126.478 202.4 124.399 201.401 122.521 200.482C120.923 199.723 119.644 199.083 117.246 199.283C116.807 199.283 116.407 199.003 116.407 198.564C116.407 198.124 116.687 197.724 117.126 197.724C119.924 197.525 121.522 198.284 123.201 199.083C125.199 200.042 127.437 201.121 132.592 200.762C133.031 200.762 133.431 201.081 133.431 201.521C133.431 201.96 133.111 202.36 132.671 202.36C131.912 202.4 131.193 202.44 130.554 202.44L130.594 202.4Z" fill="#7481BA"/>
<path d="M215.552 184.617C222.305 202.879 217.03 216.107 217.03 216.107C217.03 216.107 215.992 212.31 214.273 207.835" fill="#9597CF"/>
<path d="M217.03 216.946C217.03 216.946 217.03 216.946 216.99 216.946C216.631 216.946 216.351 216.706 216.271 216.346C216.271 216.346 215.232 212.55 213.554 208.114C213.394 207.715 213.594 207.235 214.033 207.075C214.433 206.916 214.912 207.115 215.072 207.555C215.912 209.753 216.591 211.791 217.07 213.309C218.189 208.674 219.708 198.084 214.833 184.897C214.673 184.497 214.873 184.018 215.312 183.858C215.712 183.698 216.191 183.898 216.351 184.337C223.144 202.68 218.029 215.867 217.83 216.426C217.71 216.746 217.43 216.946 217.07 216.946H217.03Z" fill="#191935"/>
<path d="M109.054 181.1C100.502 181.94 92.3104 185.496 91.1116 183.618C89.9926 181.86 94.828 172.908 106.497 170.591C106.497 170.591 111.212 168.553 113.53 168.433" fill="#DDDCFC"/>
<path d="M92.6304 184.937C91.5514 184.937 90.8321 184.657 90.3925 184.018C89.833 183.138 90.1927 181.78 90.6323 180.821C91.991 177.624 96.8263 171.709 106.217 169.791C106.857 169.512 111.133 167.713 113.41 167.593C113.85 167.593 114.209 167.913 114.249 168.353C114.249 168.792 113.93 169.152 113.49 169.192C111.692 169.272 108.015 170.75 106.737 171.31C106.697 171.31 106.617 171.35 106.577 171.35C98.0651 173.068 93.5095 178.343 92.1908 181.22C91.5913 182.459 91.6712 183.099 91.7112 183.178C92.1108 183.778 95.9871 182.859 98.5846 182.219C101.542 181.5 105.218 180.661 108.935 180.261C109.374 180.221 109.774 180.541 109.814 180.981C109.854 181.42 109.534 181.82 109.094 181.86C105.498 182.219 101.901 183.059 98.9842 183.778C96.2269 184.417 94.109 184.937 92.6304 184.937Z" fill="#7481BA"/>
<path d="M91.0716 183.618C91.8309 184.777 95.2277 183.858 99.7833 182.779C96.2267 180.501 95.5074 175.826 95.5074 175.826C91.8709 179.022 90.4322 182.539 91.1116 183.578L91.0716 183.618Z" fill="#3F3E77"/>
<path d="M92.6304 184.937C91.5515 184.937 90.8321 184.657 90.3925 184.018C89.3136 182.339 91.4315 178.303 94.9481 175.226C95.2678 174.946 95.7872 174.986 96.067 175.306C96.3467 175.626 96.3068 176.145 95.9872 176.425C92.3107 179.662 91.4715 182.699 91.7512 183.178C92.1508 183.778 96.0272 182.859 98.6247 182.219L99.5837 181.98C100.023 181.86 100.463 182.139 100.543 182.579C100.663 183.019 100.383 183.458 99.9433 183.538L98.9843 183.778C96.2269 184.417 94.109 184.937 92.6304 184.937Z" fill="#191935"/>
<path d="M111.252 190.132C99.903 191.49 91.0317 191.011 90.5921 188.094C89.9927 183.978 102.94 179.502 110.493 177.983" fill="#DDDCFC"/>
<path d="M100.543 191.65C95.1878 191.65 90.1927 190.891 89.793 188.174C89.4734 185.936 91.9509 183.618 97.1459 181.3C101.622 179.302 106.896 177.863 110.293 177.184C110.733 177.104 111.132 177.384 111.252 177.824C111.332 178.263 111.053 178.663 110.613 178.783C101.382 180.661 90.9519 185.097 91.3515 187.974C91.4714 188.693 92.9499 189.572 96.8661 189.932C100.463 190.252 105.418 190.052 111.132 189.372C111.572 189.332 111.972 189.612 112.012 190.052C112.052 190.491 111.772 190.891 111.332 190.931C108.655 191.251 104.499 191.65 100.543 191.65Z" fill="#7481BA"/>
<path d="M90.5923 188.054C90.912 190.212 95.8272 191.051 102.94 190.771C99.0641 187.774 98.7444 181.5 98.7444 181.5C94.0289 183.418 90.3126 185.776 90.6323 188.054H90.5923Z" fill="#3F3E77"/>
<path d="M100.462 191.65C93.7089 191.65 90.1125 190.491 89.7928 188.174C89.4332 185.736 92.3504 183.258 98.3845 180.781C98.7842 180.621 99.2637 180.781 99.4236 181.22C99.5834 181.66 99.4235 182.099 98.984 182.259C93.9888 184.297 91.1115 186.455 91.3513 187.974C91.4712 188.893 94.0686 190.332 102.86 190.012C103.3 190.012 103.659 190.332 103.699 190.771C103.739 191.211 103.38 191.57 102.94 191.61C102.061 191.61 101.262 191.65 100.462 191.65Z" fill="#191935"/>
<path d="M112.172 187.894C106.058 188.493 96.7864 188.214 96.107 191.41C95.4277 194.527 102.221 198.284 117.167 198.484" fill="#DDDCFC"/>
<path d="M117.167 199.283C106.497 199.163 98.6244 197.165 96.0669 193.928C95.1877 192.849 95.1878 191.85 95.3077 191.211C95.987 188.094 101.741 187.734 107.856 187.374C109.334 187.294 110.773 187.175 112.051 187.055C112.491 187.015 112.891 187.334 112.931 187.774C112.971 188.214 112.651 188.613 112.211 188.653C110.893 188.773 109.454 188.893 107.936 188.973C103.42 189.253 97.2659 189.652 96.8263 191.57C96.7464 192.01 96.8661 192.45 97.2657 192.929C98.9441 195.007 105.138 197.525 117.127 197.684C117.566 197.684 117.926 198.044 117.926 198.484C117.926 198.923 117.566 199.283 117.127 199.283H117.167Z" fill="#7481BA"/>
<path d="M96.107 191.41C95.6674 193.488 99.3838 196.446 106.457 197.644C101.702 193.369 102.661 188.613 102.661 188.613C99.2639 189.013 96.5067 189.732 96.147 191.41H96.107Z" fill="#3F3E77"/>
<path d="M106.457 198.444C106.417 198.444 106.377 198.444 106.337 198.444C101.302 197.605 97.3857 195.766 95.9071 193.568C95.3876 192.809 95.1878 191.97 95.3477 191.251C95.8672 188.893 99.2639 188.214 102.581 187.814C103.02 187.774 103.42 188.094 103.46 188.533C103.5 188.973 103.18 189.372 102.741 189.412C99.1041 189.852 97.1059 190.571 96.9061 191.57C96.8262 191.97 97.0261 192.37 97.2259 192.649C98.1451 194.008 101.182 195.926 106.617 196.845C107.056 196.925 107.336 197.325 107.256 197.764C107.176 198.164 106.857 198.444 106.457 198.444Z" fill="#191935"/>
<path d="M153.332 180.101C153.212 180.101 153.132 180.101 153.012 180.021C151.813 179.542 150.295 178.743 148.496 177.864C142.942 175.106 134.59 170.95 127.676 170.511C127.237 170.511 126.917 170.111 126.917 169.671C126.917 169.232 127.317 168.912 127.756 168.912C135.029 169.352 143.541 173.628 149.216 176.425C150.974 177.304 152.493 178.063 153.611 178.543C154.011 178.703 154.211 179.182 154.051 179.582C153.931 179.902 153.612 180.061 153.332 180.061V180.101Z" fill="#191935"/>
<path d="M114.649 98.8196C124.959 101.577 128.596 91.3069 128.596 91.3069C113.97 87.1109 114.649 98.8196 114.649 98.8196Z" fill="#8588D1"/>
<path d="M148.377 148.532L158.327 171.43C187.819 169.951 212.715 161.839 212.715 161.839C200.007 139.86 192.214 128.271 192.214 128.271" fill="#EF5656"/>
<path d="M202.205 164.756C208.758 163.118 212.675 161.839 212.675 161.839C201.885 143.137 194.612 131.988 192.694 129.07C192.694 129.07 199.048 150.849 202.205 164.756Z" fill="#CC3E4F"/>
<path d="M203.484 146.254C200.926 145.774 199.128 148.372 196.61 147.373C200.406 145.215 199.048 143.736 201.006 142.178C199.767 140.14 198.648 138.342 197.649 136.743C195.771 139.301 196.65 143.097 194.852 145.934C195.651 141.099 193.293 142.458 192.654 138.621C191.855 133.986 186.1 134.865 183.023 132.507L182.744 132.627C183.783 137.422 186.54 139.261 187.219 142.418C187.938 145.694 192.134 143.177 193.054 146.534C188.218 144.256 188.938 147.013 184.342 144.735C181.545 143.337 178.388 144.016 174.751 147.253C180.586 147.253 181.704 152.888 185.061 152.648C188.458 152.408 189.457 148.971 192.934 148.771C190.096 153.327 191.895 150.849 188.298 154.526C186.1 156.764 185.94 159.921 186.859 165.715C190.376 161.639 193.893 161.999 194.612 158.083C195.251 154.766 195.012 152.648 195.211 149.131C198.648 153.247 200.966 150.09 204.163 154.086C205.442 155.685 207.08 155.525 209.118 155.645C207.08 152.128 205.162 148.971 203.444 146.134L203.484 146.254Z" fill="white"/>
<path d="M158.287 172.229C157.967 172.229 157.688 172.029 157.568 171.749L147.617 148.851C147.457 148.452 147.617 147.972 148.017 147.812C148.416 147.653 148.896 147.812 149.056 148.212L158.767 170.59C184.422 169.232 206.68 162.798 211.436 161.359C199.208 140.22 191.535 128.831 191.455 128.711C191.215 128.351 191.295 127.832 191.655 127.592C192.014 127.352 192.534 127.432 192.774 127.792C192.854 127.912 200.766 139.62 213.314 161.399C213.434 161.599 213.474 161.879 213.354 162.079C213.234 162.278 213.074 162.478 212.874 162.558C212.635 162.638 187.579 170.71 158.287 172.189C158.287 172.189 158.287 172.189 158.247 172.189L158.287 172.229Z" fill="#7C1200"/>
<path d="M170.115 132.028C164.92 141.578 157.368 146.374 160.685 164.077C162.363 147.812 172.553 153.207 170.115 132.028Z" fill="white"/>
<path d="M154.411 140.38C153.292 148.492 157.328 151.809 159.925 157.923C161.484 149.491 156.289 144.616 154.411 140.38Z" fill="white"/>
<path d="M117.007 100.458C116.008 100.458 115.408 100.338 115.368 100.338C114.929 100.258 114.649 99.8587 114.729 99.4191C114.809 98.9795 115.208 98.6998 115.648 98.7797C115.928 98.8197 122.801 99.9386 126.877 93.5447C127.117 93.1851 127.597 93.0652 127.996 93.305C128.356 93.5447 128.476 94.0243 128.236 94.4239C124.839 99.7388 119.644 100.498 117.007 100.498V100.458Z" fill="#191935"/>
<path d="M84.1183 57.6993C84.0783 57.6993 84.0384 57.6993 83.9584 57.6993C83.5189 57.6193 83.2391 57.2197 83.319 56.7801C85.1173 46.59 93.2696 39.7965 101.821 41.315C102.261 41.395 102.54 41.7946 102.461 42.2341C102.381 42.6737 101.981 42.9535 101.542 42.8735C93.8689 41.5148 86.5559 47.7488 84.9175 57.0199C84.8376 57.4195 84.5179 57.6993 84.1183 57.6993Z" fill="#EBFFF7"/>
<defs>
<linearGradient id="paint0_linear_884_63355" x1="97.7019" y1="72.5053" x2="101.618" y2="46.6502" gradientUnits="userSpaceOnUse">
<stop stop-color="#36D8C5" stop-opacity="0.3"/>
<stop offset="1" stop-color="#36D8C5"/>
</linearGradient>
<linearGradient id="paint1_linear_884_63355" x1="135.352" y1="78.1835" x2="139.269" y2="52.2885" gradientUnits="userSpaceOnUse">
<stop stop-color="#36D8C5" stop-opacity="0.3"/>
<stop offset="1" stop-color="#36D8C5"/>
</linearGradient>
</defs>
</svg>
