<svg width="256" height="256" viewBox="0 0 256 256" fill="none" xmlns="http://www.w3.org/2000/svg">
<path d="M171.384 133.438C173.03 135.495 175.947 136.018 177.892 134.485C179.837 132.951 180.099 130.034 178.491 127.939C175.087 123.488 168.28 120.608 168.28 120.608C168.28 120.608 168.354 129.622 171.421 133.475L171.384 133.438Z" fill="#9FD6FF"/>
<path d="M175.237 136.131C173.591 136.131 171.945 135.382 170.786 133.924C167.606 129.922 167.494 120.982 167.494 120.608C167.494 120.346 167.606 120.122 167.831 119.972C168.055 119.823 168.317 119.823 168.541 119.898C168.841 120.01 175.573 122.89 179.052 127.453C180.922 129.884 180.623 133.288 178.341 135.046C177.406 135.757 176.321 136.093 175.237 136.093V136.131ZM169.028 121.768C169.177 124.311 169.701 130.183 171.945 132.951C173.366 134.747 175.76 135.121 177.406 133.849C179.052 132.577 179.239 130.109 177.855 128.351C175.386 125.134 171.047 122.74 169.028 121.768Z" fill="#5BABD3"/>
<path d="M158.629 106.956C158.555 106.956 158.48 106.956 158.405 106.956C157.994 106.844 157.769 106.432 157.919 106.021C158.255 104.861 158.405 103.552 158.255 103.253C157.732 102.617 152.682 100.373 151.411 100.336C150.588 100.336 148.83 101.42 147.82 102.168C147.483 102.43 147.035 102.356 146.773 102.019C146.511 101.682 146.586 101.233 146.922 100.972C147.221 100.747 149.728 98.8396 151.411 98.8396C153.094 98.8396 151.448 98.8396 151.486 98.8396C153.094 98.877 158.854 101.346 159.564 102.468C160.2 103.515 159.602 105.759 159.415 106.432C159.303 106.769 159.003 106.956 158.704 106.956H158.629Z" fill="#191935"/>
<path d="M23.9034 223.617C13.8046 198.033 73.5748 137.103 96.5777 150.493C107.125 156.628 99.5326 171.215 99.5326 171.215" fill="#DDDCFC"/>
<path d="M40.099 190.627C40.099 190.627 38.0419 191.188 34.7504 193.919C34.7504 193.919 43.5776 175.554 63.0273 159.395C39.9869 175.853 17.3954 207.122 23.9035 223.617L32.0199 209.815C31.1596 205.925 31.0849 200.314 40.099 190.627Z" fill="#8B8BD1"/>
<path d="M23.9034 224.365C23.6042 224.365 23.305 224.178 23.1928 223.879C21.2478 218.941 20.7241 209.965 29.252 195.19C35.1991 184.83 44.5126 173.833 54.7611 165.006C71.9665 150.194 87.7506 144.509 96.9518 149.858C107.986 156.254 100.281 171.439 100.206 171.589C100.019 171.963 99.57 172.113 99.196 171.926C98.822 171.739 98.6724 171.29 98.8594 170.916C99.1586 170.355 105.966 156.852 96.1663 151.167C91.7901 148.623 85.5439 148.848 78.1006 151.803C71.181 154.533 63.4386 159.508 55.6961 166.165C35.9847 183.146 18.9287 209.179 24.5392 223.392C24.6888 223.766 24.5393 224.215 24.1279 224.365C24.0531 224.365 23.9408 224.402 23.866 224.402L23.9034 224.365Z" fill="#7481BA"/>
<path d="M23.9032 224.365C23.604 224.365 23.3048 224.178 23.1926 223.879C17.1332 208.543 35.2363 181.276 56.1821 163.772C56.4813 163.51 56.9676 163.547 57.2295 163.884C57.4913 164.183 57.4538 164.669 57.1171 164.931C46.6817 173.646 37.1438 184.643 30.9349 195.19C24.1649 206.673 21.9207 216.66 24.5389 223.355C24.6885 223.729 24.5391 224.178 24.1276 224.327C24.0528 224.327 23.9406 224.365 23.8657 224.365H23.9032Z" fill="#191935"/>
<path d="M123.845 231.771C123.845 231.771 137.759 159.807 173.741 144.883C226.442 123.077 258.571 166.951 243.61 213.667C239.907 207.72 235.456 203.756 235.456 203.756C236.129 209.74 236.503 213.106 236.503 213.106C223.936 208.955 219.447 206.636 219.447 206.636C218.064 211.91 217.166 215.949 217.166 215.949C211.406 217.109 201.643 213.78 201.643 213.78C197.342 223.392 191.096 235.81 191.096 235.81C182.942 215.687 165.736 215.276 150.962 239.551L123.92 231.696L123.845 231.771Z" fill="#6D6FBF"/>
<path d="M233.324 183.82C233.698 190.44 231.005 198.183 231.005 198.183C231.005 198.183 226.965 198.257 220.27 196.574C220.27 196.574 215.071 199.267 211.218 206.748C211.218 206.748 203.7 204.204 199.474 185.652C199.474 185.652 195.023 192.834 188.328 208.132C188.328 208.132 160.537 181.089 142.172 237.119L150.85 239.625C165.661 215.351 182.829 215.762 190.983 235.885C190.983 235.885 197.23 223.467 201.531 213.854C201.531 213.854 211.293 217.183 217.053 216.024C217.053 216.024 217.951 211.984 219.335 206.71C219.335 206.71 223.823 209.029 236.391 213.181C236.391 213.181 236.017 209.815 235.344 203.83C235.344 203.83 239.795 207.795 243.498 213.742C245.293 208.094 246.415 202.484 246.901 197.023C245.742 191.749 243.385 181.725 237.7 173.683C237.7 173.683 241.328 188.869 240.617 193.956C240.617 193.956 238.111 187.336 233.174 183.857L233.324 183.82Z" fill="#49488A"/>
<path d="M168.467 147.576C190.871 136.654 219.634 136.991 236.765 156.964C236.765 156.964 212.976 129.548 168.467 147.576Z" fill="#DCE5EA"/>
<path d="M236.802 157.712C236.578 157.712 236.391 157.637 236.241 157.45C236.166 157.376 230.219 150.643 218.999 146.155C208.638 142.04 191.507 139.048 168.766 148.249C168.392 148.399 167.98 148.249 167.793 147.875C167.644 147.501 167.793 147.09 168.167 146.903C189.599 136.467 219.298 135.383 237.363 156.478C237.625 156.777 237.588 157.263 237.289 157.525C237.139 157.637 236.989 157.712 236.802 157.712Z" fill="#DCE5EA"/>
<path d="M150.887 240.373C150.813 240.373 150.738 240.373 150.663 240.373L123.621 232.519C123.246 232.406 123.022 232.032 123.097 231.658C123.097 231.471 126.688 213.368 134.58 193.657C139.218 182.062 144.454 172.225 150.139 164.333C157.246 154.421 165.101 147.688 173.441 144.21C185.298 139.31 196.519 137.477 206.88 138.786C216.343 139.983 224.908 143.91 231.678 150.157C239.234 157.114 244.433 166.652 246.714 177.798C249.033 189.168 248.21 201.661 244.283 213.892C244.208 214.154 243.947 214.378 243.647 214.415C243.348 214.453 243.086 214.303 242.937 214.079C240.618 210.376 238 207.421 236.391 205.775L237.214 213.069C237.214 213.331 237.139 213.555 236.952 213.742C236.765 213.892 236.503 213.967 236.241 213.854C226.591 210.675 221.692 208.581 219.896 207.72C218.662 212.471 217.839 216.099 217.839 216.136C217.764 216.435 217.54 216.66 217.241 216.697C212.154 217.744 204.262 215.463 201.98 214.715C197.716 224.14 191.732 236.035 191.694 236.184C191.582 236.446 191.32 236.596 191.021 236.596C190.722 236.596 190.46 236.409 190.348 236.147C186.832 227.432 181.483 222.345 175.312 221.859C167.494 221.223 159.079 227.656 151.523 239.999C151.374 240.224 151.149 240.373 150.887 240.373ZM124.705 231.247L150.551 238.728C158.293 226.197 167.12 219.689 175.424 220.363C181.82 220.886 187.356 225.749 191.096 234.09C192.854 230.536 197.529 221.111 200.895 213.518C201.045 213.181 201.456 212.994 201.83 213.106C201.905 213.106 210.957 216.174 216.493 215.313C216.792 214.079 217.577 210.638 218.662 206.449C218.737 206.224 218.886 206.037 219.073 205.962C219.298 205.888 219.522 205.888 219.709 205.962C219.747 205.962 224.048 208.169 235.568 212.022L234.633 203.83C234.633 203.531 234.745 203.232 235.045 203.082C235.306 202.933 235.643 202.97 235.867 203.195C236.054 203.344 239.795 206.71 243.311 211.909C246.752 200.389 247.388 188.757 245.218 178.097C243.011 167.25 237.962 157.974 230.631 151.242C224.085 145.22 215.782 141.404 206.656 140.245C196.594 138.973 185.598 140.731 174.003 145.556C163.866 149.745 149.055 161.565 135.964 194.143C128.969 211.573 125.378 227.768 124.668 231.21L124.705 231.247Z" fill="#191935"/>
<path d="M152.869 152.812C152.869 152.812 158.031 197.397 150.887 240.747C150.887 240.747 93.9595 254.026 42.4553 240.747C50.8336 179.481 83.4118 177.424 99.0463 153.448C99.0463 153.448 107.574 145.968 123.508 145.968C139.442 145.968 152.869 152.85 152.869 152.85V152.812Z" fill="#DDDCFC"/>
<path d="M105.106 187.747C69.0864 191.375 50.5718 221.373 42.6423 239.289C42.5675 239.775 42.4927 240.261 42.4553 240.747C73.9488 248.864 107.462 247.069 128.744 244.413C128.333 229.414 124.069 206.636 105.106 187.747Z" fill="#8588D1"/>
<path d="M150.887 241.495C150.85 241.495 150.812 241.495 150.775 241.495C150.363 241.421 150.102 241.047 150.176 240.635C157.246 197.883 152.196 153.373 152.159 152.925C152.121 152.513 152.42 152.139 152.832 152.102C153.243 152.064 153.617 152.364 153.655 152.775C153.692 153.224 158.742 197.958 151.672 240.897C151.598 241.271 151.298 241.533 150.924 241.533L150.887 241.495Z" fill="#7481BA"/>
<path d="M42.8294 241.495C42.8294 241.495 42.7545 241.495 42.7171 241.495C42.3056 241.458 42.0065 241.047 42.0813 240.635C47.8788 198.183 65.2713 183.932 80.6066 171.364C87.4888 165.717 93.9594 160.405 98.7844 153.037C99.0088 152.7 99.4578 152.588 99.8318 152.812C100.168 153.037 100.281 153.486 100.056 153.86C95.1191 161.453 88.536 166.839 81.579 172.524C66.4681 184.942 49.3001 199.005 43.5775 240.86C43.54 241.234 43.2034 241.495 42.8294 241.495Z" fill="#7481BA"/>
<path d="M83.1124 199.043C85.7307 199.305 94.3334 200.763 96.0165 200.576C100.617 200.127 105.592 196.911 105.629 194.891C105.704 192.46 102.226 191.3 97.5875 190.515C97.5875 190.515 93.0618 189.542 86.404 189.056" fill="#DDDCFC"/>
<path d="M95.7177 201.324C94.3711 201.324 91.4163 200.913 87.489 200.352C85.6936 200.09 83.9729 199.865 83.0753 199.753C82.6638 199.716 82.3647 199.342 82.4021 198.93C82.4395 198.519 82.8136 198.22 83.225 198.257C84.1601 198.332 85.8058 198.594 87.7134 198.856C90.7805 199.304 94.9695 199.903 95.9794 199.791C100.617 199.342 104.881 196.125 104.919 194.816C104.956 193.208 102.675 192.086 97.5129 191.188C97.4381 191.188 92.9125 190.215 86.4043 189.767C85.9929 189.767 85.6935 189.393 85.7309 188.981C85.7309 188.57 86.105 188.271 86.5164 188.308C93.1368 188.794 97.7375 189.767 97.8123 189.767C102.338 190.552 106.527 191.749 106.452 194.928C106.377 197.547 100.991 200.875 96.1664 201.362C96.0542 201.362 95.942 201.362 95.7924 201.362L95.7177 201.324Z" fill="#7481BA"/>
<path d="M97.6252 190.477C101.403 191.487 105.742 192.422 105.667 194.854C105.629 196.873 100.655 200.127 96.0542 200.539C99.2709 195.938 97.6252 190.44 97.6252 190.44V190.477Z" fill="#3F3E77"/>
<path d="M96.0165 201.324C95.6424 201.324 95.3058 201.025 95.2684 200.651C95.231 200.24 95.5303 199.866 95.9418 199.828C100.542 199.379 104.694 196.2 104.881 194.779C105.18 192.497 99.7942 191.525 97.4752 191.225C97.0637 191.188 96.7646 190.777 96.8394 190.403C96.8768 189.991 97.2882 189.692 97.6622 189.767C103.759 190.59 106.676 192.348 106.34 195.003C106.003 197.659 100.729 200.913 96.0539 201.362C96.0539 201.362 96.0164 201.362 95.979 201.362L96.0165 201.324Z" fill="#191935"/>
<path d="M40.2859 195.976C52.8908 189.729 72.1161 185.316 81.6539 188.271L64.2614 222.42C46.8689 225.15 31.9451 237.157 23.866 223.617" fill="#DDDCFC"/>
<path d="M57.3792 214.864C42.3805 220.101 33.8899 216.622 32.0572 209.815L23.9408 223.617C31.7955 236.82 45.8965 225.936 63.0271 222.644L57.3792 214.902V214.864Z" fill="#8B8BD1"/>
<path d="M64.2988 223.13C64.1866 223.13 64.0744 223.13 63.9622 223.056C63.5882 222.869 63.4384 222.42 63.6255 222.046L80.5692 188.719C73.4626 187.036 58.576 188.682 43.6148 195.228C43.2407 195.377 42.792 195.228 42.6424 194.854C42.4928 194.48 42.6424 194.031 43.0164 193.881C54.9107 188.682 72.5649 184.68 81.8783 187.56C82.1028 187.635 82.2523 187.784 82.3645 187.971C82.4393 188.158 82.4393 188.42 82.3645 188.607L64.972 222.756C64.8224 223.018 64.5607 223.168 64.2988 223.168V223.13Z" fill="#7481BA"/>
<path d="M67.7399 218.418C70.9191 218.866 73.9488 221.634 73.9488 221.634C74.6969 218.193 73.4627 216.398 73.4627 216.398C73.4627 216.398 73.8367 215.276 77.764 216.809C77.764 216.809 87.1522 193.582 81.6539 188.233C70.1337 185.316 60.3341 189.019 60.3341 189.019C60.3341 189.019 52.0681 198.108 48.0659 203.232C48.0659 203.232 52.5542 201.885 54.8358 203.569C54.8358 203.569 49.9359 206.224 46.233 211.274C46.233 211.274 51.9932 213.892 56.3693 219.053C56.3693 219.053 56.0701 221.859 52.8535 225.599C52.8535 225.599 58.8006 222.906 64.2614 222.42C66.2064 222.532 68.0766 225.562 68.0766 225.562C69.7224 221.634 67.7399 218.455 67.7399 218.455V218.418Z" fill="#57539F"/>
<path d="M68.114 226.272C67.8522 226.272 67.5904 226.123 67.4782 225.898C67.0668 225.188 65.6454 223.28 64.2241 223.13C63.8126 223.093 63.5135 222.719 63.5509 222.308C63.5883 221.896 63.9622 221.597 64.3737 221.634C65.8324 221.784 67.0294 222.943 67.8148 223.878C68.4133 221.036 67.1416 218.904 67.1042 218.829C66.9546 218.567 66.9546 218.268 67.1042 218.044C67.2538 217.819 67.553 217.67 67.8523 217.707C70.0965 218.044 72.191 219.353 73.4253 220.288C73.6123 218.044 72.8643 216.884 72.8643 216.884C72.7146 216.697 72.7146 216.435 72.7894 216.211C72.8268 216.061 73.0139 215.725 73.5002 215.5C74.2857 215.126 75.5947 215.276 77.3901 215.912C80.0083 209.179 85.1325 193.17 81.3174 188.981C70.2835 186.251 60.7456 189.767 60.6708 189.804C60.2967 189.954 59.8479 189.767 59.6983 189.355C59.5486 188.981 59.7357 188.532 60.1472 188.383C60.5586 188.233 70.3209 184.605 81.9159 187.56C82.0281 187.56 82.1403 187.672 82.2525 187.747C84.7585 190.178 84.8333 195.901 82.5891 204.765C80.9433 211.199 78.587 217.071 78.5496 217.146C78.4 217.52 77.9511 217.707 77.5771 217.557C75.894 216.884 74.9962 216.809 74.5474 216.809C74.884 217.707 75.2955 219.428 74.7719 221.859C74.7345 222.121 74.5099 222.345 74.2855 222.42C74.0237 222.495 73.7619 222.42 73.5374 222.27C73.5374 222.27 71.4803 220.4 69.1239 219.577C69.5728 220.998 69.9467 223.28 68.862 225.898C68.7498 226.16 68.4881 226.347 68.2263 226.347C68.2263 226.347 68.2263 226.347 68.1889 226.347L68.114 226.272Z" fill="#191935"/>
<path d="M72.9762 217.333C69.8343 214.864 66.3558 215.201 62.6903 213.256C62.6903 213.256 62.84 209.478 61.4935 207.234C61.4935 207.234 64.8224 204.429 68.3757 204.354C68.3757 204.354 66.7674 201.736 61.8676 199.903C61.8676 199.903 67.5901 195.078 72.4152 194.18C72.4152 194.18 72.7893 192.497 71.0688 190.926C71.0688 190.926 78.1754 188.832 81.9157 191.001C81.9157 191.001 81.5041 189.318 80.2698 187.822C80.2698 187.822 82.9255 187.822 86.4414 189.729C89.9573 191.637 95.3809 196.2 97.9991 201.586C97.9991 201.586 87.9749 217.931 72.9762 217.333Z" fill="#DDDCFC"/>
<path d="M86.4414 189.767C86.3666 189.767 86.3292 189.767 86.2543 189.767C85.1697 189.505 83.898 189.28 82.5515 189.019C81.766 188.869 80.9431 188.719 80.1203 188.57C79.7088 188.495 79.447 188.084 79.5218 187.672C79.5966 187.261 80.0082 186.999 80.4196 187.074C81.2425 187.223 82.0279 187.373 82.8508 187.523C84.2347 187.784 85.5063 188.009 86.6284 188.271C87.0398 188.383 87.2642 188.757 87.1894 189.168C87.1146 189.505 86.8154 189.729 86.4788 189.729L86.4414 189.767Z" fill="#7481BA"/>
<path d="M72.9763 218.081C72.7893 218.081 72.6397 218.006 72.4901 217.894C70.6948 216.323 69.3482 216.061 67.5903 215.725C66.1316 215.425 64.4484 215.089 62.3538 213.929C61.9798 213.742 61.8677 213.256 62.0547 212.919C62.2417 212.545 62.7278 212.433 63.0645 212.62C64.972 213.705 66.4683 213.967 67.8896 214.266C69.685 214.64 71.4055 214.977 73.4627 216.772C73.7619 217.034 73.7992 217.52 73.5373 217.819C73.3877 218.006 73.2007 218.081 72.9763 218.081Z" fill="#7481BA"/>
<path d="M89.7334 208.394C96.0171 214.154 100.393 221.821 102.45 221.036C104.395 220.288 105.854 210.339 97.9995 201.624C97.9995 201.624 95.4934 197.21 93.7354 195.751" fill="#DDDCFC"/>
<path d="M102.113 221.821C100.58 221.821 98.8217 219.689 96.0913 216.435C94.1837 214.154 91.8273 211.348 89.2091 208.917C88.9099 208.655 88.8724 208.169 89.1717 207.87C89.4335 207.571 89.9197 207.533 90.2189 207.832C92.9119 210.301 95.3058 213.181 97.2508 215.5C99.0461 217.632 101.477 220.587 102.188 220.325C102.263 220.325 102.674 219.914 102.973 218.642C103.684 215.575 103.348 208.655 97.4378 202.072C97.4378 202.035 97.3629 201.998 97.3629 201.96C97.3629 201.923 94.8944 197.659 93.286 196.275C92.9868 196.013 92.9119 195.527 93.1737 195.228C93.4355 194.928 93.9219 194.854 94.2211 195.115C95.979 196.574 98.2606 200.539 98.6346 201.137C104.918 208.206 105.218 215.725 104.432 219.053C104.17 220.063 103.684 221.335 102.749 221.709C102.562 221.784 102.375 221.821 102.15 221.821H102.113Z" fill="#7481BA"/>
<path d="M102.45 221.036C101.178 221.522 99.0091 218.754 96.0542 215.238C100.206 215.538 103.572 212.284 103.572 212.284C104.582 216.996 103.572 220.624 102.45 221.036Z" fill="#3F3E77"/>
<path d="M102.113 221.821C100.58 221.821 98.8218 219.689 96.0914 216.435L95.4555 215.687C95.1936 215.388 95.2312 214.902 95.5678 214.64C95.867 214.378 96.3532 214.415 96.615 214.752L97.2509 215.5C99.0463 217.632 101.477 220.587 102.188 220.325C102.749 220.101 103.834 217.034 102.861 212.433C102.787 212.022 103.048 211.648 103.422 211.535C103.834 211.461 104.208 211.722 104.32 212.096C105.293 216.622 104.544 221.036 102.749 221.709C102.562 221.784 102.375 221.821 102.151 221.821H102.113Z" fill="#191935"/>
<path d="M90.4437 205.065C95.4931 210.713 103.123 221.934 100.206 224.851C98.1488 226.908 90.8178 222.046 82.6265 214.228" fill="#DDDCFC"/>
<path d="M98.8968 226.048C94.4833 226.048 85.9554 218.455 82.1028 214.752C81.8036 214.453 81.8036 214.004 82.1028 213.705C82.4021 213.406 82.8508 213.406 83.1501 213.705C93.3237 223.43 98.5976 225.412 99.6823 224.327C101.777 222.27 96.129 212.545 89.9201 205.551C89.6582 205.252 89.6581 204.765 89.9948 204.504C90.294 204.242 90.7803 204.242 91.0422 204.579C94.0718 207.982 104.657 221.522 100.767 225.412C100.281 225.898 99.6823 226.085 98.9343 226.085L98.8968 226.048Z" fill="#7481BA"/>
<path d="M100.206 224.851C98.6722 226.385 94.2961 224.14 88.8352 219.689C93.6976 219.577 97.6622 214.827 97.6622 214.827C100.243 219.128 101.814 223.243 100.206 224.851Z" fill="#3F3E77"/>
<path d="M98.8595 226.085C96.6153 226.085 93.0993 224.14 88.3117 220.288C87.9751 220.026 87.9377 219.54 88.1996 219.24C88.4614 218.904 88.9476 218.866 89.2468 219.128C97.6251 225.898 99.458 224.514 99.645 224.327C100.73 223.243 99.7571 219.839 96.9893 215.238C96.7649 214.902 96.8772 214.415 97.2512 214.228C97.5878 214.004 98.074 214.116 98.261 214.49C101.59 220.026 102.413 223.691 100.692 225.412C100.243 225.861 99.6075 226.085 98.8595 226.085Z" fill="#191935"/>
<path d="M83.2248 211.909C87.7132 216.024 95.1938 221.298 93.8473 224.215C92.5008 227.133 84.9078 226.048 72.9762 217.333" fill="#DDDCFC"/>
<path d="M90.8177 226.384C88.1247 226.384 82.4395 225.187 72.5276 217.931C72.191 217.669 72.1162 217.221 72.378 216.884C72.6399 216.547 73.0886 216.473 73.4253 216.734C79.4098 221.111 87.9004 225.823 92.0147 224.776C92.6132 224.626 93.0245 224.327 93.2115 223.916C94.0344 222.12 89.359 218.156 85.9553 215.238C84.7958 214.266 83.7485 213.331 82.7761 212.47C82.4768 212.209 82.4394 211.722 82.7386 211.423C83.0004 211.124 83.4868 211.086 83.786 211.386C84.7211 212.246 85.8057 213.181 86.9278 214.116C91.5284 218.043 95.8672 221.709 94.5581 224.552C94.2962 225.113 93.6979 225.861 92.3887 226.235C92.0895 226.31 91.5658 226.422 90.8552 226.422L90.8177 226.384Z" fill="#7481BA"/>
<path d="M93.8475 224.215C92.9498 226.16 88.2369 226.272 81.9531 223.018C88.2743 222.457 90.3316 218.118 90.3316 218.118C92.8002 220.437 94.5581 222.644 93.8475 224.215Z" fill="#3F3E77"/>
<path d="M90.5557 226.347C88.1245 226.347 84.9826 225.412 81.6163 223.691C81.2423 223.504 81.0927 223.056 81.2797 222.681C81.4668 222.307 81.9157 222.158 82.2897 222.345C87.1521 224.851 90.6679 225.113 92.2388 224.589C92.5754 224.477 92.9869 224.252 93.1739 223.878C93.6227 222.906 92.5007 221.148 89.845 218.642C89.5458 218.343 89.5458 217.894 89.845 217.595C90.1443 217.295 90.5932 217.295 90.8924 217.595C93.2488 219.839 95.5304 222.42 94.5579 224.552C94.2586 225.225 93.6229 225.749 92.7626 226.048C92.1267 226.272 91.416 226.384 90.5931 226.384L90.5557 226.347Z" fill="#191935"/>
<path d="M33.3662 230.461C28.5038 230.461 24.7261 228.591 22.9308 223.018C22.8185 222.607 23.0055 222.195 23.4169 222.083C23.8284 221.971 24.2398 222.158 24.352 222.569C27.4565 232.145 37.0318 229.227 49.1504 225.524C54.0503 224.028 59.137 222.457 64.1864 221.672C64.5979 221.597 64.972 221.896 65.0468 222.307C65.1216 222.719 64.8223 223.093 64.4109 223.168C59.4736 223.953 54.4243 225.487 49.5619 226.983C43.727 228.778 38.0042 230.499 33.3288 230.499L33.3662 230.461Z" fill="#191935"/>
<path opacity="0.2" d="M126.313 95.2864C121.076 96.3711 112.399 104.824 112.287 106.769C112.175 108.714 132.073 113.838 134.542 113.539C137.01 113.24 147.184 104.525 147.334 101.533C147.483 98.5404 128.707 94.8001 126.35 95.2864H126.313Z" fill="#DEF5FF"/>
<path d="M134.318 114.287C130.951 114.287 114.344 109.948 112.025 107.742C111.689 107.405 111.502 107.068 111.539 106.694C111.689 104.188 120.815 95.6229 126.164 94.5382C128.632 94.0146 143.855 97.119 147.184 99.9617C147.783 100.485 148.082 101.009 148.045 101.57C147.895 105.011 137.31 113.95 134.617 114.25C134.542 114.25 134.43 114.25 134.318 114.25V114.287ZM113.073 106.694C114.681 108.415 132.148 113.053 134.467 112.791C136.749 112.529 146.474 104.001 146.586 101.495C146.586 101.495 146.548 101.308 146.025 100.934C142.472 98.3533 128.221 95.6603 126.5 96.0343C121.563 97.0442 113.596 104.936 113.073 106.694Z" fill="#191935"/>
<path d="M152.869 152.812C167.344 55.7885 137.572 4.5461 130.278 6.15444C120.965 8.21162 138.694 86.2347 100.842 150.419L95.7549 157.301C95.7549 157.301 106.677 158.834 117.075 151.952C134.205 168.335 154.702 170.953 154.702 170.953C152.757 162.425 152.907 152.775 152.907 152.775L152.869 152.812Z" fill="#8588D1"/>
<path d="M130.278 6.1919C126.164 7.08958 127.323 22.8737 126.65 45.7645C136.263 45.5401 141.686 31.3269 141.462 19.0212C136.861 10.0819 132.485 5.70566 130.278 6.1919Z" fill="#49488A"/>
<path d="M154.515 141.105C154.515 141.105 154.515 141.105 154.478 141.105C154.067 141.105 153.767 140.731 153.767 140.32C156.011 96.7451 151.673 65.4386 147.633 46.8866C142.808 24.7439 136.412 11.2414 132.223 7.72551C131.55 7.16446 130.951 6.86521 130.503 6.90261C130.503 6.90261 130.465 6.90261 130.428 6.90261C130.016 6.97742 129.642 6.753 129.53 6.34157C129.53 6.30416 129.53 6.22935 129.53 6.19194C129.53 5.85532 129.754 5.55609 130.129 5.44388C130.316 5.40648 130.503 5.36908 130.727 5.40649C131.587 5.40649 132.56 5.93015 133.607 6.82783C138.432 11.0918 145.576 25.2302 150.551 47.2981C154.777 66.0371 159.041 97.3809 155.301 140.432C155.301 140.806 154.927 141.105 154.553 141.105H154.515Z" fill="#DCE5EA"/>
<path d="M96.1661 158.086C96.0165 158.086 95.9044 158.049 95.7548 157.974C95.4181 157.75 95.3059 157.301 95.5303 156.927C125.977 109.013 126.238 56.574 126.388 28.4094C126.463 12.9993 126.65 6.19192 130.091 5.40645C131.25 5.14463 132.634 5.78048 134.243 7.27661C145.538 17.8243 166.11 69.1041 153.617 152.887C153.543 153.299 153.169 153.56 152.757 153.523C152.346 153.448 152.084 153.074 152.121 152.663C159.041 106.245 155.45 72.3207 151.224 52.0108C146.399 28.933 138.731 13.4481 133.233 8.36131C131.587 6.82778 130.727 6.79038 130.427 6.86518C128.034 7.38883 127.959 16.6648 127.922 28.4094C127.772 56.7236 127.51 109.462 96.802 157.712C96.6524 157.937 96.4279 158.049 96.1661 158.049V158.086Z" fill="#191935"/>
<path d="M152.458 141.965C152.458 141.965 164.502 153.673 164.951 157.301C165.4 160.929 161.098 163.921 156.535 165.604C151.748 167.4 146.399 165.305 145.688 163.921C144.454 161.565 144.79 155.842 144.79 155.842" fill="#D2D2FB"/>
<path d="M162.52 157.076C162.258 157.076 162.033 156.964 161.884 156.74C161.884 156.702 158.63 151.541 151.822 144.434C151.523 144.135 151.56 143.649 151.822 143.387C152.122 143.088 152.608 143.125 152.87 143.387C159.789 150.606 163.006 155.73 163.118 155.954C163.342 156.291 163.23 156.777 162.894 157.002C162.781 157.076 162.632 157.114 162.482 157.114L162.52 157.076Z" fill="white"/>
<path d="M152.533 167.026C148.904 167.026 145.688 165.567 145.015 164.258C143.705 161.752 144.005 156.029 144.042 155.767C144.042 155.356 144.416 155.057 144.828 155.057C145.239 155.057 145.538 155.431 145.538 155.842C145.463 157.376 145.426 161.752 146.361 163.547C146.885 164.52 151.859 166.502 156.31 164.856C160.5 163.285 164.165 158.236 164.24 157.338C164.09 156.029 160.687 150.942 151.972 142.489C151.672 142.19 151.672 141.741 151.972 141.442C152.271 141.143 152.72 141.143 153.019 141.442C154.29 142.676 165.287 153.448 165.736 157.226C165.923 158.909 161.509 164.557 156.871 166.315C155.45 166.839 153.991 167.063 152.607 167.063L152.533 167.026Z" fill="#49488A"/>
<path d="M156.46 151.054C161.398 155.206 159.378 160.069 159.378 160.069C158.293 158.198 156.759 156.889 156.759 156.889C155.712 159.695 153.281 161.565 153.281 161.565C153.281 161.565 152.832 159.47 152.795 158.161C152.795 158.161 151.149 158.161 149.69 157.862C149.69 157.862 150.438 151.204 151.149 149.184C151.149 149.184 154.366 149.334 156.46 151.092V151.054Z" fill="#6A6DB8"/>
<path d="M163.978 160.069C163.679 160.069 163.417 159.919 163.305 159.657C159.191 150.942 149.877 148.96 149.803 148.923C149.391 148.848 149.129 148.436 149.204 148.025C149.279 147.613 149.69 147.352 150.102 147.426C150.513 147.501 160.238 149.558 164.689 158.984C164.876 159.358 164.689 159.807 164.315 159.994C164.203 160.031 164.09 160.069 163.978 160.069Z" fill="#49488A"/>
<path d="M117.225 115.521C118.721 122.89 134.841 124.049 141.836 119.898C135.477 123.077 123.022 150.568 114.457 148.287C107.911 146.566 117.262 128.426 117.187 115.521H117.225Z" fill="#894E71"/>
<path d="M115.541 149.184C115.13 149.184 114.718 149.147 114.307 149.035C109.706 147.838 111.502 140.619 113.596 132.278C114.943 126.855 116.514 120.72 116.476 115.559C116.476 115.185 116.776 114.848 117.15 114.811C117.524 114.773 117.898 115.035 117.973 115.409C118.459 117.728 120.591 119.15 122.349 119.935C127.697 122.329 136.337 122.104 141.125 119.524C141.275 119.449 141.424 119.337 141.537 119.299C141.911 119.112 142.322 119.262 142.546 119.598C142.733 119.935 142.621 120.384 142.285 120.608C142.172 120.683 142.023 120.758 141.873 120.833C139.554 122.291 136.3 127.042 132.859 132.054C127.024 140.507 121.002 149.259 115.579 149.259L115.541 149.184ZM117.86 118.476C117.449 123.077 116.214 128.126 115.055 132.652C113.222 139.908 111.502 146.753 114.681 147.576C119.394 148.81 126.164 139.011 131.587 131.119C133.981 127.64 136.188 124.423 138.17 122.179C133.009 123.526 126.276 123.264 121.75 121.282C120.067 120.533 118.795 119.598 117.898 118.514L117.86 118.476Z" fill="#191935"/>
<path d="M114.494 148.287C118.197 149.259 122.648 144.659 127.024 138.824C121.75 135.383 116.738 136.355 112.811 138.861C111.801 143.836 111.689 147.539 114.494 148.287Z" fill="#B2727E"/>
<path d="M115.541 149.184C115.13 149.184 114.718 149.147 114.307 149.035C110.679 148.1 111.165 143.312 112.1 138.749C112.137 138.562 112.25 138.375 112.437 138.263C117.337 135.121 122.685 135.083 127.473 138.263C127.66 138.375 127.772 138.562 127.809 138.749C127.809 138.936 127.809 139.16 127.66 139.31C122.573 146.08 118.795 149.184 115.579 149.184H115.541ZM113.484 139.347C112.437 144.621 112.811 147.09 114.681 147.576C118.122 148.474 122.648 143.35 125.939 139.048C120.927 136.131 116.476 137.515 113.484 139.347Z" fill="#613A52"/>
<path d="M115.541 149.184C115.13 149.184 114.718 149.147 114.307 149.035C109.706 147.838 111.502 140.619 113.596 132.278C114.943 126.855 116.514 120.72 116.476 115.559C116.476 115.185 116.776 114.848 117.15 114.811C117.524 114.773 117.898 115.035 117.973 115.409C118.459 117.728 120.591 119.15 122.349 119.935C127.697 122.329 136.337 122.104 141.125 119.524C141.275 119.449 141.424 119.337 141.537 119.299C141.911 119.112 142.322 119.262 142.546 119.598C142.733 119.935 142.621 120.384 142.285 120.608C142.172 120.683 142.023 120.758 141.873 120.833C139.554 122.291 136.3 127.042 132.859 132.054C127.024 140.507 121.002 149.259 115.579 149.259L115.541 149.184ZM117.86 118.476C117.449 123.077 116.214 128.126 115.055 132.652C113.222 139.908 111.502 146.753 114.681 147.576C119.394 148.81 126.164 139.011 131.587 131.119C133.981 127.64 136.188 124.423 138.17 122.179C133.009 123.526 126.276 123.264 121.75 121.282C120.067 120.533 118.795 119.598 117.898 118.514L117.86 118.476Z" fill="#191935"/>
<path opacity="0.2" d="M158.63 106.208C153.356 105.385 144.716 115.746 144.604 117.691C144.491 119.636 161.398 131.941 163.866 131.642C166.335 131.343 176.509 122.628 176.658 119.636C176.808 116.644 160.687 106.507 158.63 106.171V106.208Z" fill="#DEF5FF"/>
<path d="M163.829 132.39C161.098 132.39 149.915 124.349 145.838 120.496C144.155 118.888 143.818 118.177 143.855 117.653C143.967 116.008 147.67 111.407 151.224 108.565C154.179 106.208 156.685 105.161 158.742 105.497C160.088 105.722 165.026 108.714 168.878 111.332C177.518 117.28 177.406 119.112 177.406 119.711C177.256 123.152 166.671 132.091 163.978 132.39C163.941 132.39 163.903 132.39 163.829 132.39ZM145.351 117.691C145.613 118.402 148.418 121.095 153.992 125.097C159.639 129.174 163.118 130.969 163.791 130.894C164.652 130.782 167.457 128.987 170.636 126.107C174.189 122.89 175.872 120.496 175.91 119.636C175.91 119.075 174.339 116.905 168.055 112.567C163.417 109.387 159.265 107.068 158.555 106.956C157.021 106.694 154.777 107.667 152.308 109.649C148.493 112.679 145.576 116.756 145.389 117.691H145.351Z" fill="#191935"/>
<path d="M163.38 118.177C163.23 118.177 163.118 118.177 163.006 118.065C162.968 118.065 158.854 115.671 151.86 116.868C151.448 116.943 151.074 116.681 150.999 116.27C150.925 115.858 151.186 115.484 151.598 115.409C159.191 114.1 163.604 116.681 163.791 116.793C164.128 117.018 164.278 117.466 164.053 117.803C163.903 118.027 163.679 118.177 163.417 118.177H163.38Z" fill="#191935"/>
<path d="M138.544 25.3424C137.572 20.5548 135.701 17.974 134.392 15.6924C133.644 14.4207 134.841 12.5879 135.926 14.6451C138.245 19.0961 138.544 25.3424 138.544 25.3424Z" fill="black"/>
<path d="M138.544 26.0904C138.208 26.0904 137.871 25.8286 137.796 25.492C137.011 21.5272 135.589 19.1708 134.355 17.1136C134.131 16.7396 133.943 16.403 133.756 16.0663C133.345 15.3183 133.308 14.3832 133.756 13.6725C134.056 13.1863 134.505 12.9245 134.991 12.9619C135.44 12.9619 136.076 13.2237 136.637 14.3084C138.993 18.8716 139.33 25.0431 139.33 25.305C139.33 25.679 139.068 26.053 138.694 26.0904C138.694 26.0904 138.619 26.0904 138.582 26.0904H138.544ZM134.953 14.5328C134.879 14.7198 134.879 15.019 135.028 15.3183C135.215 15.6549 135.402 15.9916 135.627 16.3282C135.814 16.6648 136.038 17.0388 136.263 17.4128C135.963 16.59 135.627 15.7671 135.253 14.9816C135.14 14.7572 135.028 14.6076 134.953 14.5328Z" fill="black"/>
<path d="M118.16 170.916C116.14 169.232 114.083 168.185 112.587 167.362C108.51 165.118 105.031 161.378 105.779 159.47C106.677 157.189 111.24 157.114 115.093 157.45C120.89 157.937 123.995 160.368 126.501 163.846" fill="#DDDCFC"/>
<path d="M118.16 171.664C118.01 171.664 117.823 171.626 117.673 171.477C115.841 169.981 114.045 169.008 112.587 168.185L112.213 167.998C108.023 165.679 104.096 161.677 105.069 159.171C105.929 157.002 109.22 156.179 115.167 156.665C121.863 157.226 124.967 160.368 127.136 163.36C127.361 163.697 127.286 164.146 126.987 164.408C126.65 164.632 126.201 164.557 125.94 164.258C123.882 161.415 121.114 158.685 115.055 158.199C108.36 157.638 106.826 158.947 106.49 159.77C106.041 160.892 108.547 164.295 112.961 166.726L113.297 166.914C114.719 167.699 116.701 168.746 118.608 170.355C118.945 170.616 118.983 171.103 118.721 171.402C118.571 171.589 118.347 171.664 118.16 171.664Z" fill="#7481BA"/>
<path d="M115.13 157.45C111.277 156.889 106.714 157.189 105.816 159.47C105.068 161.34 108.547 165.118 112.624 167.362C111.502 161.864 115.167 157.45 115.167 157.45H115.13Z" fill="#3F3E77"/>
<path d="M112.587 168.11C112.474 168.11 112.325 168.11 112.213 168.035C108.023 165.716 104.096 161.714 105.068 159.208C106.191 156.403 111.24 156.141 115.205 156.74C115.616 156.815 115.878 157.189 115.841 157.6C115.766 158.011 115.392 158.311 114.98 158.236C110.08 157.488 106.976 158.46 106.452 159.807C105.966 161.079 108.846 164.52 112.923 166.764C113.297 166.951 113.409 167.4 113.222 167.774C113.073 168.036 112.848 168.148 112.549 168.148L112.587 168.11Z" fill="#191935"/>
<path d="M135.215 169.158C138.656 159.134 145.875 150.643 158.48 153.373C182.829 158.685 174.638 240.635 151.56 242.879C131.063 244.899 117.112 217.258 109.744 202.072L128.857 168.896C142.06 179.144 143.893 192.946 149.354 202.147C146.324 195.976 144.753 189.617 136.262 175.441" fill="#DDDCFC"/>
<path d="M122.311 205.102L111.801 206.187C119.581 221.746 132.821 244.712 151.598 242.879C156.273 242.431 160.313 238.728 163.604 233.042C150.438 241.57 137.983 225.898 122.348 205.102H122.311Z" fill="#8B8BD1"/>
<path d="M149.465 243.74C129.193 243.74 115.69 215.986 109.107 202.409C108.995 202.185 108.995 201.923 109.107 201.698L128.22 168.522C128.333 168.335 128.52 168.185 128.707 168.148C128.931 168.11 129.155 168.148 129.305 168.297C138.693 175.591 142.434 184.605 145.688 192.535C147.072 195.863 148.343 199.005 149.952 201.736C150.176 202.11 150.026 202.559 149.69 202.746C149.353 202.933 148.867 202.821 148.68 202.484C147.034 199.679 145.688 196.499 144.304 193.096C141.162 185.503 137.646 176.938 129.043 169.981L110.566 202.072C117.336 215.986 131.213 244.114 151.448 242.131C162.818 241.009 170.636 219.839 172.506 199.492C174.339 179.481 170.636 157.675 158.218 154.084C153.767 152.812 149.316 153.411 145.351 155.805C140.638 158.647 137.01 163.809 135.926 169.27C135.851 169.681 135.439 169.943 135.028 169.868C134.616 169.794 134.355 169.382 134.429 168.971C135.626 163.136 139.516 157.6 144.566 154.533C148.904 151.915 153.767 151.242 158.629 152.663C164.763 154.421 169.401 160.33 172.02 169.756C174.301 177.91 175.012 188.532 173.964 199.641C172.955 210.713 170.336 221.185 166.671 229.115C162.519 238.054 157.283 243.066 151.56 243.627C150.812 243.702 150.101 243.74 149.353 243.74H149.465Z" fill="#7481BA"/>
<path d="M111.203 196.986C109.071 194.554 105.106 193.545 105.106 193.545C107.612 191.039 109.744 191.076 109.744 191.076C109.744 191.076 110.455 190.141 107.051 187.71C107.051 187.71 121.376 167.138 128.857 168.858C136.562 174.245 142.21 185.578 144.566 191.787C144.566 191.787 144.903 205.327 147.259 210.862C147.259 210.862 142.023 210.301 137.759 207.683C137.759 207.683 141.724 213.331 146.474 220.811C146.474 220.811 125.565 215.388 116.851 206.86C116.851 206.86 115.616 207.758 115.392 213.293C115.392 213.293 111.577 208.244 109.706 202.072C108.547 200.502 104.994 200.614 104.994 200.614C107.387 197.098 111.128 197.023 111.128 197.023L111.203 196.986Z" fill="#57539F"/>
<path d="M115.429 214.041C115.204 214.041 114.943 213.929 114.793 213.705C114.643 213.48 110.866 207.907 109.07 202.409C108.247 201.437 105.854 201.287 105.068 201.324C104.769 201.324 104.507 201.175 104.395 200.95C104.245 200.689 104.283 200.389 104.432 200.165C106.003 197.846 108.135 196.873 109.594 196.499C107.612 194.966 104.956 194.293 104.919 194.255C104.657 194.18 104.47 193.993 104.395 193.732C104.32 193.47 104.395 193.208 104.582 193.021C107.275 190.328 109.669 190.365 109.781 190.328C110.193 190.328 110.529 190.665 110.529 191.076C110.529 191.487 110.193 191.824 109.781 191.824C109.706 191.824 108.397 191.824 106.602 193.208C108.023 193.732 110.305 194.779 111.801 196.462C111.988 196.686 112.025 196.986 111.913 197.247C111.801 197.509 111.539 197.696 111.24 197.696C111.128 197.696 108.659 197.809 106.602 199.866C107.874 200.015 109.557 200.427 110.379 201.549C110.417 201.624 110.454 201.698 110.492 201.773C112.212 207.085 116.027 212.732 116.065 212.807C116.289 213.144 116.214 213.63 115.878 213.854C115.766 213.929 115.616 213.967 115.466 213.967L115.429 214.041Z" fill="#191935"/>
<path d="M109.257 191.637C114.793 193.432 113.26 197.247 122.311 200.165C122.311 200.165 126.463 198.183 133.083 198.968C133.083 198.968 127.922 191.824 125.565 190.552C125.565 190.552 128.969 188.57 133.495 186.475C133.495 186.475 131.924 181.576 129.455 179.855C129.455 179.855 131.026 178.995 133.233 179.63C133.233 179.63 130.802 175.105 127.024 173.01C127.024 173.01 128.146 169.981 130.091 170.242C130.091 170.242 127.697 165.904 126.052 164.22C126.052 164.22 115.766 161.527 109.856 162.088C109.856 162.088 101.029 179.107 109.295 191.674L109.257 191.637Z" fill="#DDDCFC"/>
<path d="M129.941 170.317C129.642 170.317 129.38 170.167 129.268 169.868C127.697 166.39 126.014 164.295 125.977 164.295C125.715 163.958 125.752 163.51 126.089 163.248C126.425 162.986 126.874 163.023 127.136 163.36C127.211 163.435 128.969 165.642 130.615 169.27C130.802 169.644 130.615 170.093 130.241 170.242C130.128 170.28 130.016 170.317 129.941 170.317Z" fill="#7481BA"/>
<path d="M122.311 200.913C122.236 200.913 122.162 200.913 122.087 200.913C116.85 199.192 115.017 197.21 113.409 195.452C112.212 194.143 111.277 193.096 109.033 192.385C108.622 192.273 108.434 191.824 108.547 191.45C108.659 191.039 109.108 190.851 109.482 190.964C112.1 191.824 113.297 193.096 114.531 194.442C115.99 196.051 117.673 197.883 122.535 199.492C122.947 199.604 123.134 200.053 123.022 200.427C122.91 200.726 122.61 200.95 122.311 200.95V200.913Z" fill="#7481BA"/>
<path d="M108.285 172.674C100.131 170.242 91.3038 170.467 90.8923 168.297C90.5183 166.24 98.298 159.882 109.818 162.088C109.818 162.088 114.868 161.976 117.037 162.724" fill="#DDDCFC"/>
<path d="M108.285 173.422C108.21 173.422 108.135 173.422 108.06 173.422C104.619 172.412 100.991 171.851 98.0738 171.402C93.3235 170.654 90.481 170.242 90.1444 168.447C89.9574 167.437 90.8175 166.352 91.5282 165.642C93.9594 163.211 100.58 159.62 109.856 161.378C110.529 161.378 115.13 161.303 117.262 162.051C117.636 162.201 117.86 162.612 117.71 162.986C117.561 163.36 117.149 163.585 116.775 163.435C114.756 162.724 109.856 162.837 109.818 162.837C109.781 162.837 109.706 162.837 109.669 162.837C101.029 161.191 94.8945 164.445 92.6503 166.652C91.7526 167.549 91.6031 168.073 91.6405 168.185C91.7527 168.896 95.5678 169.494 98.3356 169.906C101.29 170.355 104.993 170.953 108.509 171.963C108.921 172.075 109.145 172.487 108.996 172.898C108.883 173.235 108.584 173.422 108.285 173.422Z" fill="#7481BA"/>
<path d="M90.8925 168.26C91.1543 169.607 94.6327 170.055 99.1585 170.766C96.7647 167.362 97.8121 162.799 97.8121 162.799C93.2863 164.37 90.6681 167.063 90.8925 168.26Z" fill="#3F3E77"/>
<path d="M99.1959 171.514C99.1585 171.514 99.1211 171.514 99.0837 171.514L98.1112 171.365C93.361 170.616 90.5183 170.205 90.1817 168.41C89.845 166.502 93.2488 163.585 97.5876 162.088C97.9616 161.939 98.4105 162.163 98.5227 162.537C98.6349 162.911 98.4478 163.36 98.0738 163.472C93.6228 165.006 91.5283 167.512 91.6405 168.11C91.7528 168.821 95.5678 169.419 98.3357 169.831L99.3082 169.981C99.7196 170.055 99.9813 170.429 99.9439 170.841C99.8691 171.215 99.5699 171.477 99.1959 171.477V171.514Z" fill="#191935"/>
<path d="M106.939 181.763C96.0168 178.77 88.0874 175.03 88.798 172.187C89.7705 168.185 103.31 168.933 110.791 170.355" fill="#DDDCFC"/>
<path d="M106.939 182.511C106.864 182.511 106.789 182.511 106.752 182.511C100.767 180.865 86.9279 176.564 88.05 172.038C89.3591 166.689 106.415 168.784 110.903 169.644C111.315 169.719 111.576 170.13 111.502 170.504C111.427 170.916 111.053 171.178 110.641 171.103C101.44 169.345 90.2193 169.532 89.5087 172.412C89.1346 173.871 93.5482 177.386 107.126 181.089C107.537 181.202 107.761 181.613 107.649 182.024C107.574 182.361 107.275 182.586 106.939 182.586V182.511Z" fill="#7481BA"/>
<path d="M88.7979 172.187C88.2743 174.282 92.4635 176.863 99.0838 179.294C96.69 175.105 98.6723 169.233 98.6723 169.233C93.6603 169.233 89.3216 170.018 88.7979 172.225V172.187Z" fill="#3F3E77"/>
<path d="M99.0461 180.042C98.9713 180.042 98.859 180.042 98.7842 180.004C91.0417 177.162 87.4137 174.506 88.0496 172.038C88.6106 169.681 92.2013 168.522 98.672 168.484C99.0835 168.484 99.4201 168.821 99.4201 169.232C99.4201 169.644 99.0835 169.981 98.672 169.981C93.3234 169.981 89.8823 170.878 89.5083 172.374C89.4335 172.636 89.2091 174.88 99.308 178.583C99.682 178.733 99.9063 179.144 99.7567 179.556C99.6445 179.855 99.3453 180.042 99.0461 180.042Z" fill="#191935"/>
<path d="M108.621 180.042C102.787 178.321 94.4082 174.619 92.5755 177.274C90.8175 179.855 95.605 185.877 109.257 191.6" fill="#DDDCFC"/>
<path d="M109.257 192.385C109.145 192.385 109.07 192.385 108.958 192.31C94.5953 186.251 92.0893 181.052 91.6405 179.593C91.2664 178.284 91.603 177.386 91.9396 176.863C93.6976 174.282 99.121 176.115 104.844 178.022C106.265 178.508 107.574 178.957 108.809 179.294C109.22 179.406 109.444 179.817 109.332 180.229C109.22 180.64 108.808 180.865 108.397 180.753C107.125 180.379 105.779 179.93 104.358 179.443C100.094 178.022 94.296 176.077 93.1739 177.685C92.912 178.06 92.8747 178.546 93.0617 179.144C94.2586 183.221 102.674 188.046 109.519 190.926C109.893 191.076 110.08 191.525 109.931 191.899C109.818 192.198 109.519 192.348 109.257 192.348V192.385Z" fill="#7481BA"/>
<path d="M92.5754 177.312C91.3785 179.069 93.6974 183.184 99.7193 186.887C96.9515 181.202 99.6072 177.162 99.6072 177.162C96.3157 176.264 93.5479 175.89 92.5754 177.312Z" fill="#3F3E77"/>
<path d="M99.7565 187.635C99.6069 187.635 99.4947 187.635 99.3825 187.523C95.0811 184.867 92.2012 181.763 91.6402 179.182C91.4531 178.284 91.5653 177.499 91.9768 176.863C93.2859 174.918 96.6896 175.554 99.8314 176.414C100.243 176.526 100.467 176.938 100.355 177.349C100.243 177.76 99.8314 177.985 99.42 177.873C95.9041 176.9 93.8094 176.825 93.211 177.723C92.9866 178.06 93.024 178.546 93.0989 178.882C93.4355 180.491 95.4926 183.371 100.131 186.251C100.467 186.475 100.579 186.924 100.392 187.298C100.243 187.523 100.018 187.672 99.7565 187.672V187.635Z" fill="#191935"/>
<path d="M144.566 192.535C144.267 192.535 143.967 192.348 143.855 192.049C138.806 178.621 131.587 172.038 130.203 170.841C129.904 170.579 129.867 170.093 130.128 169.794C130.39 169.494 130.876 169.457 131.176 169.719C139.404 176.713 144.342 189.131 145.277 191.562C145.426 191.936 145.239 192.385 144.828 192.535C144.753 192.535 144.641 192.572 144.566 192.572V192.535Z" fill="#191935"/>
<path d="M149.428 243.74C137.272 243.74 125.939 233.865 114.83 213.63C114.643 213.256 114.756 212.807 115.13 212.62C115.504 212.433 115.953 212.545 116.14 212.919C127.622 233.79 139.18 243.366 151.486 242.169C155.637 241.757 159.639 238.541 163.118 232.818C163.342 232.481 163.791 232.332 164.128 232.556C164.464 232.78 164.614 233.229 164.39 233.566C160.687 239.7 156.273 243.179 151.635 243.665C150.887 243.74 150.139 243.777 149.428 243.777V243.74Z" fill="#191935"/>
<path d="M99.5701 97.0069C97.2137 97.3062 95.4558 99.2511 95.7176 101.495C95.942 103.702 98.0741 105.31 100.43 105.049C105.442 104.562 110.828 100.71 110.828 100.71C110.828 100.71 103.909 96.5207 99.5326 97.0443L99.5701 97.0069Z" fill="#9FD6FF"/>
<path d="M99.9067 105.797C98.7846 105.797 97.7 105.46 96.8023 104.787C95.7551 104.001 95.0818 102.842 94.9322 101.57C94.633 98.9518 96.6154 96.6329 99.458 96.2588C104.021 95.6978 110.941 99.8495 111.203 100.037C111.427 100.149 111.539 100.411 111.577 100.635C111.614 100.859 111.464 101.121 111.277 101.271C111.053 101.42 105.667 105.236 100.505 105.759C100.318 105.759 100.131 105.759 99.9067 105.759V105.797ZM99.645 97.7549C97.6627 98.0168 96.2413 99.5877 96.4283 101.42C96.5405 102.281 96.9893 103.066 97.7 103.59C98.4481 104.151 99.3831 104.413 100.318 104.301C103.834 103.964 107.612 101.832 109.37 100.747C107.313 99.6251 102.712 97.3809 99.6076 97.7923L99.645 97.7549Z" fill="#5BABD3"/>
<path d="M137.46 237.755C125.865 234.351 119.918 226.946 119.918 226.946C119.918 226.946 124.032 227.993 128.558 228.517" fill="#8B8BD1"/>
<path d="M137.459 238.503C137.385 238.503 137.31 238.503 137.235 238.503C125.528 235.062 119.581 227.731 119.319 227.432C119.132 227.17 119.094 226.833 119.282 226.572C119.469 226.31 119.805 226.16 120.104 226.272C120.142 226.272 124.219 227.32 128.632 227.843C129.044 227.881 129.343 228.255 129.305 228.666C129.268 229.078 128.894 229.377 128.483 229.339C126.089 229.078 123.807 228.629 122.199 228.292C124.667 230.649 129.904 234.838 137.684 237.119C138.095 237.232 138.32 237.643 138.208 238.054C138.095 238.391 137.796 238.578 137.497 238.578L137.459 238.503Z" fill="#191935"/>
<path d="M143.107 240.897C128.857 240.373 120.815 233.865 120.815 233.865C120.815 233.865 127.211 234.09 133.27 233.229" fill="#8B8BD1"/>
<path d="M143.145 241.645C128.782 241.121 120.74 234.726 120.404 234.464C120.142 234.277 120.067 233.94 120.179 233.603C120.291 233.267 120.591 233.117 120.89 233.117C120.965 233.117 127.323 233.304 133.233 232.519C133.644 232.481 134.019 232.743 134.093 233.155C134.168 233.566 133.869 233.94 133.457 234.015C129.754 234.539 125.865 234.651 123.396 234.651C126.613 236.558 133.457 239.775 143.22 240.149C143.631 240.149 143.968 240.523 143.93 240.934C143.93 241.346 143.594 241.645 143.182 241.645H143.145Z" fill="#191935"/>
</svg>
