<svg width="256" height="256" viewBox="0 0 256 256" fill="none" xmlns="http://www.w3.org/2000/svg">
<path d="M14.1095 157.61C-8.1673 134.94 -1.20575 94.0489 22.7055 91.2037C46.6168 88.3283 47.8275 134.94 63.5665 143.112L55.1824 176.83C53.1242 150.074 45.3758 141.569 40.7448 142.386C40.7448 142.386 39.5342 146.805 40.866 157.55C40.866 157.55 36.3258 156.006 32.8148 149.499C32.8148 149.499 31.5133 152.223 31.5133 154.432C31.5133 154.432 24.128 154.432 16.4401 152.102C16.4401 152.102 14.8057 154.674 14.0793 157.61H14.1095Z" fill="#6D6FBF"/>
<path d="M47.7669 116.81C42.8635 108.698 39.2618 93.958 27.1548 91.8393C22.2212 90.9918 10.8104 91.9604 3.66727 107.336C10.8104 91.9604 21.9791 92.1117 26.9429 92.9592C39.0499 95.0476 42.8938 108.698 47.7972 116.81H47.7669Z" fill="#DCE5EA"/>
<path d="M47.7668 117.415C47.555 117.415 47.3734 117.324 47.2523 117.113C46.193 115.357 45.1941 113.359 44.1348 111.241C40.3513 103.704 36.0534 95.1385 26.8521 93.5645C21.2829 92.596 10.9617 93.1408 4.24236 107.578C4.09103 107.881 3.72776 108.002 3.42508 107.881C3.21321 107.79 3.06189 107.548 3.06189 107.336C3.06189 107.245 3.06187 107.155 3.12241 107.094C11.3249 89.5087 24.6729 90.8405 27.2456 91.2945C36.8101 92.9592 41.1383 102.009 44.9217 110C46.0416 112.391 47.1313 114.631 48.2511 116.507C48.3117 116.598 48.342 116.719 48.342 116.81C48.342 117.022 48.2512 117.203 48.0393 117.324C47.9485 117.385 47.8274 117.415 47.7366 117.415H47.7668Z" fill="#DCE5EA"/>
<path d="M54.3652 132.095C51.7016 139.268 47.6155 139.662 47.6155 139.662C48.1301 137.331 47.6155 135.061 47.6155 135.061C39.9579 140.328 30.6658 135.243 30.6658 135.243C32.2397 137.967 34.0255 141.538 34.0255 141.538C34.0255 141.538 26.5495 141.024 16.3493 132.186C16.3493 132.186 17.0152 139.662 22.6449 145.413C22.6449 145.413 5.84654 141.659 0.761619 119.958C-0.237205 132.7 3.78832 147.108 14.1095 157.61C14.8057 154.674 16.4704 152.102 16.4704 152.102C24.1583 154.432 31.5436 154.432 31.5436 154.432C31.5436 152.223 32.8451 149.499 32.8451 149.499C36.3561 155.976 40.8962 157.55 40.8962 157.55C39.5341 146.805 40.7751 142.386 40.7751 142.386C45.406 141.569 53.1545 150.044 55.2127 176.83L63.5967 143.112C59.9041 141.175 56.9984 137.15 54.4257 132.095H54.3652Z" fill="#49488A"/>
<path d="M55.1823 177.436C55.1823 177.436 55.1521 177.436 55.1218 177.436C54.8192 177.436 54.577 177.163 54.577 176.891C52.761 153.131 46.768 146.079 44.2861 144.141C43.2267 143.324 42.1976 142.931 41.2593 142.961C41.0172 144.262 40.3816 148.772 41.5015 157.489C41.5015 157.701 41.441 157.913 41.2896 158.034C41.1383 158.155 40.8962 158.216 40.7146 158.125C40.533 158.064 36.4166 156.612 32.9661 150.891C32.6029 151.829 32.1791 153.252 32.1791 154.432C32.1791 155.613 31.9067 155.038 31.5738 155.038C31.483 155.038 24.2794 155.038 16.773 152.828C16.319 153.645 15.2596 155.613 14.7148 157.762C14.6543 157.974 14.503 158.155 14.2911 158.216C14.0792 158.276 13.8371 158.216 13.6858 158.064C7.26908 151.557 2.91053 143.173 1.00368 133.85C-0.721558 125.315 -0.206953 116.447 2.42631 108.91C6.11893 98.3771 13.4739 91.7182 22.6147 90.6286C29.1222 89.8417 34.6005 92.5657 39.292 98.8916C43.3781 104.4 46.4654 111.967 49.4013 119.292C53.5782 129.583 57.5129 139.329 63.8086 142.598C64.0507 142.719 64.1718 143.022 64.1112 143.294L55.7272 177.012C55.6666 177.284 55.4245 177.466 55.1521 177.466L55.1823 177.436ZM41.3805 141.72C42.5609 141.72 43.8321 142.204 45.0428 143.173C50.1882 147.168 53.9111 158.004 55.485 173.198L62.8703 143.445C56.4234 139.783 52.4886 130.037 48.3117 119.746C42.4398 105.218 36.3561 90.2049 22.766 91.809C14.1095 92.8381 7.1177 99.2246 3.57641 109.304C1.00368 116.628 0.519405 125.255 2.21438 133.578C3.96989 142.325 7.9955 150.195 13.8371 156.43C14.6241 153.918 15.9255 151.89 15.9861 151.799C16.1374 151.557 16.4098 151.466 16.6822 151.557C22.9778 153.464 29.1524 153.797 31.029 153.827C31.2106 151.678 32.3002 149.378 32.3607 149.257C32.4515 149.045 32.6634 148.924 32.9056 148.924C33.1477 148.924 33.3596 149.045 33.4504 149.226C35.8415 153.676 38.7472 155.734 40.2303 156.521C39.0801 146.563 40.2303 142.386 40.2303 142.204C40.2908 141.992 40.4724 141.811 40.7146 141.781C40.9567 141.75 41.1988 141.72 41.441 141.72H41.3805Z" fill="#191935"/>
<path d="M126.371 103.22C129.701 103.644 131.305 101.767 131.305 100.647C131.305 99.5273 126.492 97.7415 124.495 98.5284C122.497 99.3154 121.74 100.556 121.498 104.915" fill="#DDDCFC"/>
<path d="M121.498 105.55C121.498 105.55 121.498 105.55 121.468 105.55C121.135 105.55 120.893 105.248 120.893 104.915C121.135 100.92 122.134 98.8311 124.283 98.0139C125.978 97.348 129.307 98.1349 130.911 99.2246C131.577 99.6786 131.91 100.163 131.91 100.677C131.91 101.374 131.517 102.13 130.851 102.705C130.215 103.25 128.793 104.158 126.311 103.825C125.978 103.795 125.736 103.492 125.796 103.159C125.827 102.826 126.129 102.584 126.462 102.645C128.46 102.917 129.58 102.221 130.064 101.797C130.548 101.374 130.73 100.92 130.73 100.677C130.73 100.617 130.518 100.344 129.882 99.9812C128.43 99.1943 125.948 98.6495 124.767 99.1035C123.617 99.5575 122.406 100.617 122.164 104.945C122.164 105.278 121.892 105.52 121.559 105.52L121.498 105.55Z" fill="#7481BA"/>
<path d="M159.787 117.476C135.724 141.417 98.1015 153.464 78.0342 100.92L98.9793 90.2957C102.127 96.6215 122.255 112.905 132.395 112.905C142.534 112.905 150.767 103.371 158.667 100.95L159.756 117.506L159.787 117.476Z" fill="#DDDCFC"/>
<path d="M159.454 112.633C140.446 128.765 125.917 132.186 125.917 132.186C131.608 130.218 133.757 126.828 133.757 126.828C110.178 131.853 92.2297 124.679 84.9655 97.4084L78.0342 100.919C98.1015 153.464 135.724 141.448 159.787 117.476L159.454 112.633Z" fill="#9597CF"/>
<path d="M118.774 138.512C116.292 138.512 113.871 138.27 111.51 137.755C97.012 134.637 85.5709 122.319 77.4592 101.131C77.3381 100.829 77.4592 100.526 77.7619 100.375L98.7069 89.7509C98.8583 89.6904 99.0096 89.6601 99.1609 89.7206C99.3123 89.7812 99.4333 89.872 99.5241 90.0233C101.037 93.0803 106.879 98.7403 113.417 103.492C121.135 109.092 128.066 112.3 132.395 112.3C139.719 112.3 144.774 108.759 149.677 105.339C152.643 103.28 155.428 101.313 158.515 100.375C158.697 100.314 158.879 100.375 159.03 100.466C159.181 100.556 159.272 100.738 159.302 100.92L160.392 117.476C160.392 117.657 160.331 117.809 160.21 117.93C152.976 125.133 144.986 130.793 137.116 134.305C130.79 137.119 124.646 138.542 118.805 138.542L118.774 138.512ZM78.7909 101.192C86.721 121.683 97.8291 133.578 111.782 136.575C119.501 138.239 127.854 137.089 136.632 133.185C144.32 129.764 152.099 124.256 159.181 117.234L158.152 101.737C155.519 102.705 153.037 104.461 150.404 106.307C145.591 109.667 140.143 113.481 132.455 113.481C124.767 113.481 124.011 112.603 112.751 104.431C106.334 99.7694 100.705 94.3818 98.7674 91.0827L78.8212 101.192H78.7909Z" fill="#7481BA"/>
<path d="M118.774 138.512C116.292 138.512 113.871 138.27 111.51 137.755C97.012 134.637 85.5709 122.319 77.4593 101.131C77.3382 100.829 77.4895 100.466 77.8225 100.345C78.1251 100.223 78.4884 100.375 78.6094 100.708C86.5395 121.501 97.7081 133.578 111.782 136.575C119.501 138.239 127.854 137.089 136.632 133.185C144.381 129.734 152.25 124.165 159.393 117.052C159.635 116.81 159.998 116.81 160.241 117.052C160.483 117.294 160.483 117.657 160.241 117.9C153.007 125.103 145.016 130.763 137.147 134.274C130.821 137.089 124.676 138.512 118.835 138.512H118.774Z" fill="#191935"/>
<path d="M139.296 131.55C135.119 135.001 130.306 142.325 130.306 142.325C130.306 138.27 130.942 135.727 130.942 135.727" fill="#9597CF"/>
<path d="M130.306 142.931C130.246 142.931 130.185 142.931 130.125 142.931C129.882 142.84 129.701 142.628 129.701 142.356C129.701 138.27 130.306 135.727 130.336 135.606C130.427 135.273 130.76 135.091 131.063 135.182C131.396 135.273 131.577 135.606 131.517 135.909C131.517 135.909 131.093 137.573 130.972 140.328C132.667 137.937 135.936 133.578 138.932 131.096C139.205 130.884 139.568 130.915 139.78 131.187C139.992 131.459 139.961 131.823 139.689 132.034C135.633 135.394 130.851 142.598 130.821 142.689C130.7 142.87 130.518 142.961 130.306 142.961V142.931Z" fill="#191935"/>
<path d="M133.605 133.608C127.643 142.023 120.378 142.507 120.378 142.507C120.378 142.507 124.101 139.692 126.008 136.363" fill="#9597CF"/>
<path d="M120.378 143.112C120.136 143.112 119.894 142.961 119.803 142.719C119.712 142.477 119.803 142.174 120.015 142.023C120.045 142.023 123.678 139.238 125.494 136.06C125.675 135.757 126.038 135.667 126.311 135.848C126.613 136.03 126.704 136.393 126.523 136.665C125.463 138.512 123.859 140.207 122.588 141.387C123.163 141.205 123.829 140.963 124.525 140.63C126.795 139.571 130.094 137.452 133.091 133.245C133.272 132.973 133.666 132.912 133.938 133.094C134.211 133.275 134.271 133.669 134.09 133.941C128.036 142.477 120.711 143.082 120.409 143.112C120.409 143.112 120.409 143.112 120.378 143.112Z" fill="#191935"/>
<path d="M125.07 168.507C126.462 158.64 121.135 147.289 112.69 134.183H93.8642C93.8642 134.183 70.3161 170.323 84.5721 184.821C84.5721 184.821 88.4766 185.759 93.2891 183.005C93.2891 183.005 93.2891 184.125 92.4113 185.396C92.4113 185.396 96.3461 185.668 99.7058 183.58C99.7058 183.58 103.459 185.487 109.634 185.305C115.899 185.124 123.072 182.672 125.1 168.507H125.07Z" fill="#49488A"/>
<path d="M99.6755 183.58C99.6755 183.58 103.429 185.487 109.603 185.305C114.234 185.184 119.319 183.822 122.497 177.436C116.353 146.26 92.8956 152.011 84.5418 152.344C80.0319 163.543 77.0657 177.193 84.5418 184.821C84.5418 184.821 88.4463 185.759 93.2588 183.005C93.2588 183.005 93.2588 184.125 92.3811 185.396C92.3811 185.396 96.3158 185.668 99.6755 183.58Z" fill="#333476"/>
<path d="M92.8653 186.001C92.5626 186.001 92.381 186.001 92.3507 186.001C92.1389 186.001 91.927 185.85 91.8362 185.668C91.7454 185.456 91.7757 185.245 91.8967 185.063C92.1389 184.73 92.2902 184.427 92.4113 184.155C87.9922 186.243 84.6023 185.456 84.4207 185.426C84.2996 185.426 84.2088 185.335 84.118 185.275C80.7583 181.855 79.1541 176.982 79.3963 170.807C79.5779 165.934 80.8794 160.244 83.3008 153.888C87.3869 143.112 93.289 133.972 93.3496 133.881C93.4707 133.699 93.6522 133.608 93.8641 133.608H112.69C112.902 133.608 113.084 133.699 113.205 133.881C123.193 149.378 126.916 159.759 125.675 168.628C124.041 180.19 118.956 185.668 109.633 185.941C106.365 186.032 103.792 185.547 102.188 185.124C101.855 185.033 100.523 184.67 99.736 184.276C97.012 185.85 94.0457 186.032 92.8653 186.032V186.001ZM93.2891 182.399C93.3799 182.399 93.5009 182.399 93.5917 182.49C93.7733 182.581 93.8944 182.793 93.8944 183.005C93.8944 183.035 93.8944 183.792 93.4404 184.821C94.7722 184.76 97.1936 184.427 99.3425 183.096C99.5242 182.975 99.7663 182.975 99.9479 183.096C100.099 183.156 103.731 184.912 109.573 184.76C114.991 184.609 122.437 182.763 124.434 168.507C125.645 160.032 122.013 149.953 112.327 134.88H94.1366C92.0178 138.239 71.9808 170.928 84.8142 184.337C85.5709 184.458 88.9306 184.821 92.9259 182.551C93.0167 182.49 93.1377 182.46 93.2285 182.46L93.2891 182.399Z" fill="#191935"/>
<path d="M98.1016 182.369C98.1016 182.369 98.5859 186.092 101.28 187.969C103.973 189.815 114.476 189.694 117.079 189.421L122.406 184.821L122.618 182.369C115.717 182.309 98.0714 182.369 98.0714 182.369H98.1016Z" fill="#333476"/>
<path d="M112.721 190.178C108.574 190.178 102.944 189.845 100.947 188.453C98.0713 186.455 97.5265 182.611 97.4962 182.43C97.4659 182.097 97.6778 181.794 98.0107 181.764C98.3437 181.734 98.6464 181.945 98.6767 182.278C98.6767 182.339 99.1912 185.789 101.613 187.454C104.004 189.088 113.598 189.119 116.807 188.816L121.831 184.488L121.983 182.914C120.832 182.914 119.349 182.914 117.594 182.914C117.261 182.914 116.988 182.642 116.988 182.309C116.988 181.976 117.261 181.703 117.594 181.703C119.682 181.703 121.407 181.703 122.648 181.703C122.83 181.703 122.981 181.764 123.102 181.915C123.224 182.036 123.284 182.218 123.254 182.369L123.042 184.821C123.042 184.972 122.951 185.123 122.83 185.214L117.503 189.815C117.412 189.906 117.291 189.936 117.17 189.966C116.474 190.027 114.779 190.118 112.751 190.118L112.721 190.178Z" fill="#191935"/>
<path d="M121.922 182.369C121.922 182.369 124.616 182.036 125.917 182.642C127.219 183.247 129.792 188.635 129.247 189.179C128.702 189.724 125.251 188.937 121.922 187.484" fill="#333476"/>
<path d="M124.646 188.513C126.946 189.27 128.853 189.573 129.247 189.179C129.58 188.846 128.702 186.607 127.673 184.821C126.038 185.638 125.04 187.575 124.646 188.513Z" fill="#232355"/>
<path d="M128.52 189.936C128.066 189.936 127.4 189.845 126.492 189.633C125.04 189.3 123.284 188.695 121.68 187.999C121.377 187.878 121.226 187.515 121.377 187.212C121.498 186.909 121.862 186.758 122.164 186.909C125.342 188.302 127.915 188.786 128.702 188.725C128.551 187.545 126.492 183.58 125.645 183.186C124.707 182.732 122.709 182.884 121.983 182.944C121.65 182.974 121.347 182.763 121.317 182.43C121.286 182.097 121.498 181.794 121.831 181.764C122.134 181.734 124.737 181.431 126.159 182.097C127.552 182.763 129.61 186.97 129.882 188.513C129.943 188.816 129.973 189.3 129.671 189.603C129.489 189.785 129.186 189.966 128.52 189.966V189.936Z" fill="#0C0C1C"/>
<path d="M120.923 183.368C120.923 183.368 123.193 183.489 123.92 184.004C124.646 184.518 128.884 189.724 127.885 190.995C126.886 192.267 117.624 187.182 117.624 187.182" fill="#333476"/>
<path d="M127.885 190.995C128.551 190.148 126.916 187.575 125.524 185.789C124.737 186.183 122.951 187.363 122.83 189.785C125.13 190.814 127.4 191.601 127.885 190.995Z" fill="#232355"/>
<path d="M81.6059 68.7756C69.4081 84.3331 59.6015 113.995 57.2709 143.839C55.4852 166.63 63.4152 182.49 79.457 183.943C95.4987 185.366 112.812 167.659 114.234 147.441C116.171 119.746 94.4998 99.7695 101.038 74.708" fill="#DDDCFC"/>
<path d="M127.279 191.782C126.402 191.782 124.888 191.359 122.104 190.087C119.682 188.968 117.321 187.696 117.321 187.696C117.019 187.545 116.928 187.182 117.079 186.879C117.231 186.576 117.594 186.486 117.896 186.637C122.285 189.028 126.583 190.814 127.4 190.572C127.4 190.541 127.4 190.451 127.4 190.299C127.158 188.635 124.101 184.881 123.556 184.488C123.163 184.216 121.74 184.034 120.863 183.973C120.53 183.973 120.288 183.671 120.288 183.338C120.288 183.005 120.59 182.763 120.923 182.763C121.317 182.763 123.405 182.944 124.222 183.489C124.919 183.973 128.278 187.999 128.581 190.118C128.672 190.632 128.581 191.056 128.308 191.359C128.127 191.601 127.824 191.782 127.249 191.782H127.279Z" fill="#0C0C1C"/>
<path d="M116.202 189.089C116.202 189.089 121.044 191.601 121.771 190.814C122.497 190.027 120.288 186.667 117.352 185.275" fill="#333476"/>
<path d="M117.957 189.936C119.44 190.602 121.347 191.298 121.801 190.844C122.255 190.329 121.529 188.786 120.167 187.363C118.805 187.878 118.199 189.149 117.957 189.936Z" fill="#232355"/>
<path d="M121.256 191.57C120.167 191.57 118.381 190.935 115.899 189.633C115.596 189.482 115.475 189.119 115.626 188.816C115.778 188.513 116.141 188.392 116.444 188.544C118.502 189.603 120.681 190.42 121.286 190.36C121.286 189.664 119.622 187.03 117.079 185.82C116.777 185.668 116.655 185.305 116.777 185.002C116.898 184.7 117.291 184.579 117.594 184.7C120.076 185.88 122.134 188.423 122.437 189.966C122.558 190.602 122.376 190.995 122.164 191.177C121.952 191.389 121.65 191.51 121.196 191.51L121.256 191.57Z" fill="#0C0C1C"/>
<path d="M124.767 162.756C126.916 169.415 125.282 176.891 125.282 176.891C124.555 172.32 123.708 170.595 123.708 170.595" fill="#49488A"/>
<path d="M125.282 177.526C124.979 177.526 124.737 177.315 124.707 177.012C124.01 172.623 123.193 170.898 123.193 170.868C123.042 170.565 123.193 170.202 123.466 170.05C123.768 169.899 124.132 170.05 124.283 170.323C124.283 170.383 124.707 171.201 125.191 173.168C125.403 170.444 125.372 166.539 124.222 162.907C124.132 162.574 124.283 162.241 124.616 162.151C124.949 162.06 125.282 162.211 125.373 162.544C127.552 169.263 125.978 176.679 125.887 177.012C125.827 177.284 125.584 177.496 125.282 177.496V177.526Z" fill="#191935"/>
<path d="M57.3011 155.946C58.7842 172.078 66.4419 182.763 79.4569 183.913C95.4986 185.335 112.055 167.568 114.234 147.41C115.566 134.97 110.844 123.711 107.03 113.965L83.997 115.72C76.0669 138.209 60.237 141.296 57.3011 155.976V155.946Z" fill="#5B56A4"/>
<path d="M59.4804 166.781C62.8401 176.739 69.62 183.035 79.4266 183.913C91.4125 184.972 107.121 173.864 112.872 154.402C105.366 168.84 79.7293 176.074 59.4804 166.781Z" fill="#333476"/>
<path d="M57.8459 155.885C78.3672 151.648 103.035 143.657 108.877 117.718C104.882 107.76 99.8269 97.2269 99.6453 84.2725C78.1554 110.121 57.8157 140.267 57.8157 155.885H57.8459Z" fill="#8B8BD1"/>
<path d="M81.273 184.609C80.6373 184.609 80.0017 184.609 79.3963 184.518C71.4057 183.792 65.1102 179.524 61.1451 172.169C57.3314 165.056 55.7878 155.25 56.6655 143.778C57.8157 129.189 60.7516 114.298 65.1706 100.768C69.5594 87.3295 75.0681 76.1305 81.1216 68.4123C81.3335 68.1399 81.6966 68.1097 81.9691 68.3215C82.2415 68.5334 82.2717 68.8966 82.0599 69.169C76.0972 76.7964 70.6188 87.844 66.2906 101.162C61.9018 114.631 58.9961 129.401 57.8459 143.899C56.9682 155.128 58.4513 164.723 62.1742 171.624C65.9274 178.616 71.9203 182.672 79.4569 183.338C85.8736 183.913 92.8048 181.34 98.9794 176.104C107.363 168.961 112.812 158.216 113.568 147.41C114.476 134.577 110.239 123.378 106.122 112.542C101.37 99.951 96.8607 88.0862 100.402 74.5566C100.493 74.2237 100.826 74.0421 101.128 74.1329C101.461 74.2237 101.643 74.5566 101.552 74.8593C98.1319 87.9954 102.551 99.7088 107.242 112.088C111.389 123.045 115.687 134.395 114.749 147.471C113.962 158.609 108.362 169.657 99.7361 177.012C93.9247 181.976 87.4172 184.639 81.2124 184.639L81.273 184.609Z" fill="#191935"/>
<path d="M90.5347 153.464C90.5347 153.464 96.679 158.67 95.5591 168.961C94.1366 181.885 84.4812 186.516 82.9073 188.15C82.1204 188.968 80.9702 191.419 80.9702 191.419L62.4163 190.451C63.7178 188.423 63.748 187.424 63.748 187.424C63.748 187.424 55.9693 182.46 54.5165 176.134C52.3675 166.782 57.8459 155.916 57.8459 155.916" fill="#5B56A4"/>
<path d="M63.7481 187.424C63.7481 187.424 63.7482 188.423 62.4164 190.451L80.9703 191.419C80.9703 191.419 82.1205 188.968 82.9074 188.15C84.4813 186.516 94.1366 181.885 95.5592 168.961C95.7408 167.296 95.7408 165.783 95.5894 164.39C91.8665 182.309 65.5339 194.355 54.2442 168.053C53.9112 170.686 53.9112 173.471 54.5166 176.104C55.9694 182.43 63.7481 187.394 63.7481 187.394V187.424Z" fill="#333476"/>
<path d="M80.9703 192.025C80.9703 192.025 80.9702 192.025 80.94 192.025L62.386 191.056C62.1741 191.056 61.9623 190.905 61.8715 190.723C61.7807 190.541 61.7807 190.299 61.9018 190.118C62.6887 188.907 62.9611 188.12 63.0822 187.696C61.5083 186.637 55.2429 182.067 53.9111 176.255C51.7622 166.812 57.0589 156.067 57.3011 155.613C57.4524 155.31 57.8157 155.189 58.1184 155.34C58.421 155.492 58.5421 155.855 58.3907 156.158C58.3302 156.279 53.0334 166.963 55.1218 175.983C56.4839 182.006 64.0204 186.849 64.1112 186.909C64.2929 187.03 64.3837 187.212 64.3837 187.424C64.3837 187.515 64.3232 188.362 63.4757 189.876L80.607 190.784C80.9702 190.027 81.8177 188.392 82.4836 187.727C82.7863 187.424 83.3008 187.03 83.9667 186.546C87.175 184.216 93.8036 179.373 94.9538 168.9C96.0434 159.033 90.2018 153.978 90.1412 153.918C89.8991 153.706 89.8688 153.313 90.0807 153.07C90.2926 152.828 90.6861 152.798 90.9282 153.01C91.2006 153.222 97.3146 158.549 96.1645 169.052C94.9538 180.039 88.0225 185.124 84.6931 187.545C84.0877 187.999 83.5732 188.362 83.3613 188.604C82.7863 189.21 81.848 191.056 81.5453 191.722C81.4545 191.934 81.2426 192.055 81.0005 192.055L80.9703 192.025Z" fill="#191935"/>
<path d="M88.416 73.3157C82.3928 78.8849 74.3417 87.9652 66.684 94.8359C64.9588 97.7113 63.0217 103.341 63.0217 103.341C66.8657 98.135 72.677 95.1083 76.0972 92.2631C80.0925 88.9337 82.6047 86.1189 87.2659 82.396C91.927 78.6428 99.7361 75.7371 99.7361 75.7371C100.16 74.8896 100.644 74.0724 101.189 73.2855L90.2018 70.5614L88.3858 73.346L88.416 73.3157Z" fill="#49488A"/>
<path d="M63.0217 103.977C62.9309 103.977 62.8401 103.977 62.7493 103.916C62.4769 103.765 62.3558 103.462 62.4466 103.19C62.5374 102.948 64.414 97.4389 66.1393 94.5635C66.3209 94.2911 66.6841 94.2002 66.9565 94.3516C67.2289 94.5332 67.3197 94.8964 67.1683 95.1688C66.3208 96.5611 65.4431 98.6193 64.7469 100.375C67.2591 97.8021 70.1346 95.7742 72.5559 94.0792C73.7061 93.2922 74.7655 92.5355 75.6735 91.8091C79.2148 89.0245 82.0296 86.0886 82.0599 86.0583C82.302 85.8162 82.6652 85.8162 82.9074 86.0583C83.1495 86.3005 83.1495 86.6637 82.9074 86.9058C82.9074 86.9058 80.0017 89.9325 76.3999 92.7777C75.4616 93.5041 74.372 94.291 73.2218 95.078C69.9227 97.3783 66.1998 99.9813 63.4454 103.734C63.3244 103.886 63.1428 103.977 62.9612 103.977H63.0217Z" fill="#191935"/>
<path d="M66.684 94.8661C71.0425 80.7313 81.6059 68.7756 81.6059 68.7756L97.2541 70.6825C72.0111 93.1106 66.6538 94.8661 66.6538 94.8661H66.684Z" fill="#8588D1"/>
<path d="M66.684 95.4715C66.6235 95.4715 66.563 95.4715 66.5025 95.4715C66.1695 95.3807 66.0182 95.0477 66.109 94.7148C70.4372 80.6102 81.0611 68.5032 81.1822 68.3822C81.394 68.14 81.7875 68.1097 82.0297 68.3216C82.2718 68.5335 82.3021 68.927 82.0902 69.1691C81.9994 69.2902 71.5268 81.1853 67.2894 95.0477C67.1986 95.3202 66.9565 95.4715 66.7143 95.4715H66.684Z" fill="#191935"/>
<path d="M113.084 151.194C113.659 158.458 110.42 162.726 110.42 162.726C110.42 162.726 110.905 159.124 110.148 156.279" fill="#5B56A4"/>
<path d="M110.42 163.301C110.33 163.301 110.269 163.301 110.178 163.24C109.936 163.149 109.785 162.877 109.815 162.605C109.815 162.574 110.269 159.094 109.543 156.4C109.452 156.067 109.634 155.734 109.966 155.643C110.299 155.552 110.632 155.734 110.723 156.067C111.056 157.368 111.177 158.761 111.177 159.971C111.964 158.064 112.781 155.068 112.479 151.194C112.479 150.861 112.691 150.558 113.023 150.528C113.356 150.528 113.659 150.74 113.689 151.073C114.295 158.488 111.056 162.816 110.905 162.998C110.784 163.149 110.602 163.24 110.42 163.24V163.301Z" fill="#191935"/>
<path d="M114.022 143.173C116.02 151.527 113.81 157.641 113.81 157.641C113.81 157.641 113.175 153.766 112.085 150.437" fill="#5B56A4"/>
<path d="M113.81 158.246C113.81 158.246 113.78 158.246 113.75 158.246C113.477 158.246 113.266 158.004 113.205 157.731C113.205 157.701 112.539 153.857 111.51 150.619C111.419 150.316 111.571 149.953 111.904 149.862C112.237 149.771 112.569 149.922 112.66 150.255C113.175 151.799 113.568 153.464 113.871 154.826C114.295 152.314 114.597 148.197 113.447 143.354C113.356 143.021 113.568 142.689 113.901 142.628C114.234 142.537 114.567 142.749 114.628 143.082C116.625 151.527 114.476 157.641 114.385 157.883C114.295 158.125 114.083 158.276 113.81 158.276V158.246Z" fill="#191935"/>
<path opacity="0.2" d="M97.9201 49.0715C98.2227 48.678 102.006 47.1949 103.61 47.2252C105.214 47.2555 107.424 54.1262 107.121 54.7315C106.819 55.3369 102.733 57.1832 102.309 57.2134C101.885 57.2437 97.0423 50.2217 97.9201 49.0412V49.0715Z" fill="#DEF5FF"/>
<path d="M102.279 57.8188C101.976 57.8188 101.673 57.6069 100.674 56.2146C100.008 55.3066 99.2821 54.1867 98.707 53.1879C96.9212 50.0703 97.0726 49.1321 97.4358 48.678C98.0108 47.9214 102.188 46.5896 103.61 46.5896C105.033 46.5896 103.61 46.5896 103.641 46.5896C104.276 46.5896 104.882 47.1041 105.517 48.1332C106.577 49.8585 108.12 54.0959 107.696 54.9737C107.242 55.9422 102.884 57.7583 102.43 57.8188C102.4 57.8188 102.369 57.8188 102.309 57.8188H102.279ZM98.4346 49.4347C98.4346 49.7071 98.6767 50.7968 100.13 53.2182C101.128 54.8829 102.097 56.1541 102.49 56.5778C103.368 56.2752 106.062 55.0039 106.577 54.4894C106.546 53.6722 105.336 49.7374 104.125 48.224C103.822 47.8306 103.641 47.8003 103.641 47.8003C103.641 47.8003 103.641 47.8003 103.61 47.8003C102.188 47.8003 99.0399 49.011 98.4648 49.4045L98.4346 49.4347Z" fill="black"/>
<path d="M101.371 67.8979C101.703 70.7127 106.637 72.9223 105.699 74.4356C102.157 75.1621 97.1936 72.5591 95.1052 66.9293L101.371 67.9281V67.8979Z" fill="#894E71"/>
<path d="M105.729 75.0409C105.608 75.0409 105.517 75.0409 105.426 74.9501C105.154 74.7685 105.063 74.4053 105.214 74.1026C105.396 73.8 104.367 72.8011 103.671 72.1353C102.4 70.9548 100.977 69.5928 100.795 67.9584C100.765 67.6254 101.007 67.3227 101.34 67.2925C101.673 67.2622 101.976 67.5043 102.006 67.8373C102.157 69.048 103.398 70.2284 104.518 71.2878C105.789 72.4682 106.97 73.6184 106.274 74.7685C106.153 74.9501 105.971 75.0712 105.759 75.0712L105.729 75.0409Z" fill="#191935"/>
<path d="M77.7014 71.5299C77.7014 71.5299 76.8842 62.8735 80.3347 58.636C83.6641 54.5197 87.2962 53.0063 93.2891 50.9784C113.78 44.0774 139.265 47.9819 150.131 53.0971C152.401 54.1565 153.703 56.82 146.59 56.9411C134.241 57.1529 126.795 56.8805 108.786 70.3193C108.786 70.3193 101.643 70.6825 95.4987 69.502C95.4987 69.502 100.614 73.8908 105.578 74.587C105.578 74.587 99.2215 78.0677 86.6908 75.8582C74.1601 73.6487 77.7316 71.5299 77.7316 71.5299H77.7014Z" fill="#8588D1"/>
<path d="M143.14 50.1914C139.386 51.9469 138.115 54.9737 137.298 57.1832C137.298 57.1832 143.896 56.7594 146.741 56.7292C153.854 56.6081 152.855 53.6116 150.555 52.522C148.709 51.6745 145.924 51.1902 143.14 50.1611V50.1914Z" fill="#49488A"/>
<path d="M90.6559 51.947C115.596 42.8062 144.865 50.3428 150.041 52.5523C150.041 52.5523 152.311 54.0052 151.796 55.2764C147.286 52.3102 138.932 49.4348 120.5 48.5268C102.067 47.6188 100.19 50.1309 90.6559 51.9167V51.947Z" fill="#DCE5EA"/>
<path d="M151.796 55.8817C151.675 55.8817 151.554 55.8515 151.463 55.7909C149.375 54.4289 143.018 50.252 120.469 49.1321C111.207 48.6781 100.826 50.6152 91.6849 52.3404L90.7769 52.522C90.4742 52.5826 90.1716 52.401 90.0808 52.0983C89.9899 51.7956 90.1715 51.4627 90.4439 51.3719C103.822 46.4686 118.139 46.4988 127.794 47.4068C138.63 48.4057 147.316 50.7665 150.252 52.0075C150.283 52.0075 150.313 52.0075 150.343 52.068C150.616 52.2496 153.037 53.8538 152.341 55.5488C152.28 55.7304 152.129 55.8515 151.947 55.912C151.887 55.912 151.826 55.912 151.766 55.912L151.796 55.8817ZM146.287 51.947C147.952 52.5523 149.465 53.2182 150.767 53.9446C150.464 53.6117 150.071 53.2787 149.768 53.0971C149.102 52.8247 147.922 52.401 146.287 51.947Z" fill="#DCE5EA"/>
<path d="M99.0399 71.8629C96.1342 72.7406 91.927 71.2575 89.657 72.0445C87.3869 72.8314 86.1459 75.3739 86.2973 75.3739C98.828 77.5834 105.547 74.5567 105.547 74.5567C103.792 74.2843 100.099 73.1946 99.0399 71.8629Z" fill="#49488A"/>
<path d="M132.243 58.0004C115.566 55.8514 108.937 67.4741 101.976 70.1982C105.699 70.41 108.786 70.2587 108.786 70.2587C117.685 62.4194 132.243 58.0004 132.243 58.0004Z" fill="#49488A"/>
<path d="M95.5894 76.9781C93.1075 76.9781 90.0808 76.7359 86.5395 76.07C86.2065 76.0095 85.9946 75.7068 86.0552 75.3739C86.1157 75.041 86.4184 74.8291 86.7513 74.8896C93.5312 76.1609 98.253 75.8279 101.007 75.3134C101.915 75.162 102.672 74.9502 103.277 74.7686C99.9177 73.7092 95.6802 70.41 95.1052 69.956C94.8933 69.7744 94.8025 69.4718 94.9235 69.2296C95.0446 68.9875 95.317 68.8361 95.5894 68.8967C101.673 69.9863 107.696 69.6231 108.756 69.5323C126.038 57.0318 135.088 56.1238 145.894 56.2146C149.465 56.2449 151.554 55.3369 151.705 54.7013C151.766 54.3986 151.251 53.6116 148.981 52.6733C138.236 48.1938 113.931 44.8643 93.6523 51.4324C86.8724 53.6419 82.6652 56.2146 80.4255 59.544C77.7317 63.5696 78.4883 71.2575 78.4883 71.3483C78.5186 71.6813 78.2765 71.9839 77.9435 72.0142C77.6106 72.0445 77.3079 71.8023 77.2776 71.4694C77.2473 71.1365 76.4907 63.2972 79.4266 58.8782C81.8177 55.3066 86.2065 52.5523 93.2891 50.2822C105.003 46.4988 116.958 46.2264 124.888 46.6804C134.18 47.1949 143.382 49.0412 149.465 51.5534C152.008 52.6128 153.158 53.763 152.916 54.9434C152.522 56.82 148.921 57.4556 145.924 57.4253C135.3 57.3345 126.432 58.2425 109.361 70.6219C109.27 70.6824 109.179 70.7127 109.058 70.743C108.998 70.743 103.762 71.197 97.8292 70.4706C100.311 72.1958 103.883 74.2843 105.608 73.8605C105.911 73.8 106.183 73.9211 106.304 74.2237C106.425 74.4961 106.304 74.8291 106.062 74.9804C106.001 75.0107 104.518 75.949 101.34 76.5241C99.9176 76.7965 98.0108 77.0083 95.6197 77.0083L95.5894 76.9781Z" fill="#191935"/>
<path d="M89.9597 57.4253C91.9877 56.3054 95.1052 61.239 92.1693 62.6313C89.2031 64.0236 87.8107 58.6057 89.9597 57.4253Z" fill="#1A1A21"/>
<path d="M89.4149 64.1144C89.1727 64.1144 88.9911 63.9328 88.9609 63.6907C88.9609 63.4485 89.1122 63.2366 89.3846 63.2064C89.3846 63.2064 91.806 62.9945 93.0773 61.2087C93.2286 60.9969 93.501 60.9666 93.7128 61.0877C93.9247 61.239 93.955 61.5114 93.834 61.7233C92.3206 63.842 89.5965 64.0841 89.4754 64.1144C89.4754 64.1144 89.4755 64.1144 89.4452 64.1144H89.4149Z" fill="#191935"/>
<path d="M84.3602 54.1867C84.0273 54.1867 83.7851 53.9445 83.7549 53.6116C83.6641 51.7956 83.9365 50.7059 84.6024 50.1309C85.0564 49.7374 85.6617 49.6163 86.4184 49.7676C86.7514 49.8282 86.9632 50.1309 86.9027 50.4638C86.8421 50.7967 86.5394 51.0086 86.2065 50.9481C85.692 50.8573 85.5104 50.9481 85.3893 51.0389C85.1472 51.2507 84.8748 51.8561 84.9656 53.5511C84.9656 53.884 84.7234 54.1564 84.3905 54.1867H84.3602Z" fill="#191935"/>
<path d="M97.3449 47.0436C97.2239 47.0436 97.0725 47.0133 96.9514 46.9225C96.2856 46.4079 95.6802 46.1355 95.2262 46.1961C94.9538 46.2263 94.6814 46.4079 94.4695 46.7106C94.2577 46.983 93.8944 47.0436 93.622 46.8317C93.3496 46.6198 93.2891 46.2566 93.501 45.9842C93.9247 45.4091 94.4695 45.0762 95.0749 45.0156C96.0737 44.8946 97.0725 45.4999 97.7081 46.0145C97.9805 46.2263 98.0108 46.6198 97.7989 46.862C97.6779 47.0133 97.4963 47.0738 97.3147 47.0738L97.3449 47.0436Z" fill="#191935"/>
<path opacity="0.2" d="M92.7443 51.5837C87.5081 52.3404 84.2694 56.6384 83.0285 58.636C82.6652 59.2414 82.6047 59.9981 82.8771 60.6034C83.7851 62.48 84.9354 64.3566 85.8131 65.6581C86.6001 66.8385 88.1134 67.2623 89.4754 66.6872C92.9562 65.2343 95.1657 62.7827 96.3764 61.0877C97.1331 60.0283 97.2542 58.6663 96.7396 57.5464C94.4393 52.7339 92.714 51.5535 92.714 51.5535L92.7443 51.5837Z" fill="#DEF5FF"/>
<path d="M88.2647 67.5347C87.1145 67.5347 85.9946 66.9898 85.3288 65.991C84.4813 64.7198 83.2706 62.8129 82.3323 60.8456C81.9388 60.0283 82.0296 59.0901 82.5139 58.3031C83.7246 56.366 87.1145 51.7956 92.6535 50.9784C92.8048 50.9784 92.9562 50.9784 93.0772 51.0692C93.1378 51.1297 94.9538 52.401 97.2844 57.3043C97.92 58.6058 97.7687 60.21 96.8909 61.4509C95.5894 63.267 93.3194 65.7489 89.7175 67.2623C89.2333 67.4741 88.749 67.5649 88.2647 67.5649V67.5347ZM92.5626 52.2194C87.6896 53.0668 84.6326 57.1832 83.543 58.9387C83.2706 59.3625 83.2403 59.9073 83.4219 60.331C84.2997 62.2076 85.4801 64.0842 86.3276 65.3251C86.9632 66.2634 88.1739 66.5964 89.2635 66.1424C92.5627 64.7501 94.7116 62.4497 95.8921 60.7548C96.5277 59.877 96.6185 58.7571 96.1947 57.8491C94.4392 54.1565 93.0167 52.6734 92.5626 52.2194Z" fill="black"/>
<path d="M92.7443 52.189C92.4114 52.189 92.1389 51.9166 92.1389 51.5837C92.1389 50.6454 92.26 49.465 92.7746 49.0715C93.1075 48.7991 95.65 47.4976 96.4672 47.6186C97.0725 47.7397 98.0108 48.3753 98.2832 48.5872C98.5557 48.7991 98.6162 49.1623 98.4043 49.4347C98.1924 49.7071 97.8292 49.7676 97.5568 49.5558C97.1028 49.2228 96.4975 48.8596 96.2553 48.7991C95.8013 48.7991 93.955 49.6768 93.5313 49.9795C93.4102 50.1914 93.3193 50.9178 93.3193 51.5837C93.3193 51.9166 93.0469 52.189 92.714 52.189H92.7443Z" fill="black"/>
<path d="M80.7584 65.1738C80.7584 65.1738 73.4034 65.1738 72.1625 66.1727C71.769 66.4753 71.3453 69.4113 72.2533 71.3181C73.2218 73.346 75.5221 74.3146 76.1578 74.1027C77.2474 73.7395 78.9121 71.8327 78.9121 71.8327" fill="#D2D2FB"/>
<path d="M73.2219 67.2017C72.9495 67.2017 72.7074 67.0201 72.6469 66.7477C72.556 66.4148 72.7679 66.0819 73.1009 66.0213C73.2219 66.0213 75.7947 65.3554 80.2137 65.2041C80.5466 65.2041 80.819 65.4462 80.8493 65.7792C80.8493 66.1121 80.6072 66.3845 80.2742 66.4148C76.0065 66.5661 73.4338 67.2017 73.4338 67.2017C73.3732 67.2017 73.343 67.2017 73.2824 67.2017H73.2219Z" fill="white"/>
<path d="M75.9762 74.7383C74.7655 74.7383 72.6468 73.5276 71.7388 71.5905C71.1637 70.3496 71.1031 68.8967 71.1334 68.14C71.1334 67.565 71.2545 66.1424 71.7993 65.7186C73.131 64.629 79.4872 64.5685 80.7584 64.5685C81.0913 64.5685 81.3637 64.8409 81.3637 65.1738C81.3637 65.5068 81.0913 65.7792 80.7584 65.7792C77.3079 65.7792 73.3731 66.1121 72.5862 66.6267C72.3743 67.0807 72.0414 69.4415 72.7981 71.076C73.6456 72.8618 75.5827 73.6184 75.9762 73.5276C76.6421 73.3158 77.8528 72.1353 78.4581 71.4392C78.67 71.197 79.0635 71.1668 79.3056 71.3786C79.5477 71.5905 79.578 71.984 79.3661 72.2261C79.1845 72.438 77.5803 74.2541 76.3394 74.6778C76.2183 74.7081 76.0972 74.7383 75.9459 74.7383H75.9762Z" fill="#49488A"/>
<path d="M76.7329 66.8082C73.918 66.6266 73.0705 68.7453 73.0705 68.7453C73.9785 68.4729 74.8563 68.5335 74.8563 68.5335C74.3115 69.7139 74.5234 71.0457 74.5234 71.0457C74.5234 71.0457 75.3103 70.5311 75.7038 70.1376C75.7038 70.1376 76.2183 70.6219 76.7631 70.9851C76.7631 70.9851 78.5489 68.6545 78.9424 67.807C78.9424 67.807 77.883 66.8688 76.7026 66.778L76.7329 66.8082Z" fill="#6A6DB8"/>
<path d="M79.6386 68.4729C79.5175 68.4729 79.4267 68.4427 79.3057 68.3821C79.2451 68.3519 75.8552 66.2331 72.0415 67.6557C71.7388 67.7768 71.3756 67.6255 71.2545 67.2925C71.1334 66.9596 71.2848 66.6266 71.6177 66.5056C76.0065 64.8408 79.7899 67.232 79.9413 67.353C80.2137 67.5346 80.3045 67.8979 80.1229 68.2005C80.0018 68.3821 79.8202 68.4729 79.6084 68.4729H79.6386Z" fill="#49488A"/>
<path d="M91.9271 59.4835C92.5324 59.3322 92.8048 61.3601 92.1389 61.5417C91.473 61.7233 91.2309 59.6349 91.9271 59.4835Z" fill="white"/>
<path d="M145.803 54.4894C147.074 54.9131 148.073 54.7013 148.86 54.6105C149.647 54.5197 149.435 55.2461 148.739 55.2763C147.226 55.3369 145.803 54.4894 145.803 54.4894Z" fill="black"/>
<path d="M148.557 55.8817C146.953 55.8817 145.561 55.0342 145.5 54.9737C145.228 54.8223 145.137 54.4894 145.258 54.1867C145.379 53.884 145.712 53.763 145.985 53.884C146.923 54.1867 147.71 54.0959 148.406 54.0354C148.527 54.0354 148.648 54.0051 148.769 54.0051C149.133 53.9748 149.435 54.1262 149.647 54.3986C149.829 54.671 149.859 55.0342 149.708 55.3066C149.526 55.6395 149.193 55.8514 148.739 55.8817C148.679 55.8817 148.588 55.8817 148.527 55.8817H148.557Z" fill="black"/>
<path d="M62.4163 190.451C62.4163 190.451 65.6246 187.515 72.2229 187.666C78.8212 187.817 80.9703 191.419 80.9703 191.419C80.9703 191.419 78.3067 196.262 73.2521 195.808C72.4046 195.717 72.1019 191.177 72.1019 191.177H70.7701C70.7701 191.177 70.8609 195.142 69.2567 195.687C67.6525 196.232 63.1427 193.235 62.4163 190.42V190.451Z" fill="#49488A"/>
<path d="M73.9482 196.444C73.706 196.444 73.4639 196.444 73.2218 196.413C72.8586 196.383 71.9506 196.292 71.5571 191.782H71.4057C71.3452 195.445 69.8016 196.171 69.4687 196.262C68.4698 196.595 67.1077 195.959 66.3813 195.566C64.5047 194.537 62.3861 192.6 61.8715 190.572C61.811 190.36 61.8715 190.118 62.0531 189.966C62.2045 189.845 65.5036 186.879 72.2835 187.03C79.1239 187.182 81.4545 190.935 81.5453 191.086C81.6664 191.268 81.6664 191.51 81.5453 191.692C81.4243 191.903 78.8818 196.444 73.9785 196.444H73.9482ZM73.4336 195.233C77.2473 195.505 79.5779 192.479 80.2438 191.449C79.5779 190.632 77.2777 188.362 72.1927 188.271C67.017 188.15 64.0205 189.997 63.1125 190.662C63.6876 192.146 65.3825 193.719 66.9262 194.537C68.0158 195.142 68.7725 195.233 69.0752 195.142C69.8924 194.87 70.2253 192.63 70.1648 191.207C70.1648 191.056 70.2253 190.874 70.3464 190.784C70.4675 190.662 70.6188 190.602 70.7701 190.602H72.1019C72.4349 190.602 72.677 190.844 72.7073 191.177C72.8283 192.993 73.1612 194.809 73.4336 195.233Z" fill="#191935"/>
<path d="M64.7469 193.75C66.3511 195.142 68.2881 196.05 69.2567 195.717C70.8609 195.172 70.7701 191.207 70.7701 191.207C70.7701 191.207 66.4419 190.874 64.7469 193.75Z" fill="#232355"/>
<path d="M77.9133 194.627C77.6106 191.056 72.1019 191.207 72.1019 191.207C72.1019 191.207 72.4046 195.747 73.2521 195.838C75.159 196.02 76.7026 195.445 77.9133 194.658V194.627Z" fill="#232355"/>
<path d="M73.9482 196.444C73.706 196.444 73.4639 196.444 73.2218 196.413C72.8586 196.383 71.9506 196.292 71.5571 191.782H71.4057C71.3452 195.445 69.8016 196.171 69.4687 196.262C68.4698 196.595 67.1077 195.959 66.3813 195.566C64.5047 194.537 62.3861 192.6 61.8715 190.572C61.811 190.36 61.8715 190.118 62.0531 189.966C62.2045 189.845 65.5036 186.879 72.2835 187.03C79.1239 187.182 81.4545 190.935 81.5453 191.086C81.6664 191.268 81.6664 191.51 81.5453 191.692C81.4243 191.903 78.8818 196.444 73.9785 196.444H73.9482ZM73.4336 195.233C77.2473 195.505 79.5779 192.479 80.2438 191.449C79.5779 190.632 77.2777 188.362 72.1927 188.271C67.017 188.15 64.0205 189.997 63.1125 190.662C63.6876 192.146 65.3825 193.719 66.9262 194.537C68.0158 195.142 68.7725 195.233 69.0752 195.142C69.8924 194.87 70.2253 192.63 70.1648 191.207C70.1648 191.056 70.2253 190.874 70.3464 190.784C70.4675 190.662 70.6188 190.602 70.7701 190.602H72.1019C72.4349 190.602 72.677 190.844 72.7073 191.177C72.8283 192.993 73.1612 194.809 73.4336 195.233Z" fill="#0C0C1C"/>
<path d="M75.1589 190.148C75.1589 190.148 73.0401 195.959 71.3754 195.959C69.7107 195.959 67.7433 190.39 67.7433 190.39" fill="#49488A"/>
<path d="M68.379 191.934C69.1054 193.568 70.3161 195.959 71.4057 195.959C72.4954 195.959 73.7363 193.538 74.493 191.813C73.5547 191.238 70.982 190.057 68.4093 191.903L68.379 191.934Z" fill="#232355"/>
<path d="M71.3755 196.565C69.4686 196.565 67.6829 191.994 67.1683 190.602C67.0473 190.299 67.2288 189.936 67.5315 189.815C67.8342 189.694 68.1974 189.876 68.3185 190.178C69.2871 192.933 70.7399 195.354 71.3755 195.354C72.0111 195.354 73.5547 192.781 74.5838 189.936C74.7049 189.633 75.0379 189.452 75.3708 189.573C75.6735 189.694 75.8551 190.027 75.734 190.36C75.1892 191.813 73.3126 196.595 71.4058 196.595L71.3755 196.565Z" fill="#0C0C1C"/>
<path d="M226.072 191.752C220.382 191.056 202.887 193.175 195.23 191.661C187.572 190.148 186.603 181.189 176.222 183.126C176.222 183.126 172.257 178.313 171.439 172.351C171.016 169.445 171.107 164.632 171.349 161.787L165.931 160.91C165.931 160.91 167.323 160.758 171.53 160.153C172.226 154.069 173.588 147.895 172.801 140.994C172.105 134.819 167.807 129.552 165.325 123.166C161.724 123.317 158.818 122.773 158.818 122.773C158.818 122.773 161.996 121.986 164.66 121.289C164.115 119.564 163.752 117.778 163.63 115.872C162.965 105.823 168.655 82.184 177.493 80.4285L133.787 84.908C129.005 88.4493 126.19 110.393 126.583 119.958C126.886 127.494 132.455 134.274 134.998 141.629H142.443C142.443 141.629 138.69 142.507 135.482 143.203C135.906 144.686 136.178 146.2 136.238 147.743C136.329 149.741 136.178 151.95 135.966 154.281C136.238 154.281 136.541 154.281 136.874 154.311L135.845 155.522C134.846 164.39 132.697 176.618 135.27 183.459C138.66 192.448 150.192 191.026 161.875 193.477C165.023 194.143 167.807 195.081 170.41 196.201C177.13 195.989 178.946 195.445 178.946 195.445L175.253 196.928L177.584 197.079C177.584 197.079 175.889 197.957 175.011 198.32C179.945 200.862 184.212 203.617 188.904 205.13C197.197 207.824 202.1 205.766 208.487 210.578L250.407 198.865C239.027 198.865 234.971 192.811 226.072 191.722V191.752Z" fill="#F4D7A0"/>
<path d="M208.487 211.214C208.366 211.214 208.214 211.184 208.124 211.093C204.371 208.278 201.102 207.885 197.348 207.431C194.867 207.128 192.052 206.795 188.722 205.736C185.302 204.616 182.124 202.89 178.734 201.044C177.432 200.348 176.101 199.622 174.739 198.895C174.527 198.774 174.406 198.562 174.406 198.32C174.406 198.078 174.557 197.866 174.769 197.775C174.92 197.715 175.132 197.624 175.314 197.533H175.193C174.92 197.533 174.678 197.291 174.648 197.019C174.648 196.867 174.648 196.686 174.769 196.565C173.619 196.655 172.196 196.716 170.441 196.776C170.35 196.776 170.259 196.776 170.199 196.716C167.353 195.505 164.599 194.627 161.784 194.052C158.879 193.447 155.973 193.084 153.158 192.721C144.683 191.661 137.389 190.723 134.725 183.64C132.485 177.678 133.696 168.113 134.725 159.638C134.907 158.155 135.088 156.763 135.24 155.401C135.24 155.28 135.3 155.159 135.391 155.068L135.694 154.735C135.633 154.705 135.603 154.674 135.542 154.614C135.421 154.493 135.391 154.311 135.391 154.16C135.663 151.527 135.754 149.468 135.663 147.713C135.603 146.29 135.361 144.868 134.937 143.324C134.907 143.173 134.937 142.991 134.998 142.84C135.088 142.689 135.209 142.598 135.391 142.568C135.966 142.446 136.541 142.295 137.116 142.174H135.028C134.755 142.174 134.544 142.023 134.453 141.781C133.514 139.087 132.152 136.423 130.821 133.851C128.551 129.401 126.19 124.801 125.978 119.927C125.615 111.271 128.127 88.3283 133.424 84.3936C133.514 84.333 133.605 84.3028 133.726 84.2725L177.432 79.7929C177.765 79.7626 178.038 79.9745 178.098 80.3075C178.159 80.6404 177.947 80.9128 177.614 81.0036C173.982 81.73 170.35 86.9058 167.596 95.199C165.295 102.161 163.903 110.635 164.266 115.811C164.387 117.567 164.72 119.292 165.295 121.108C165.356 121.259 165.325 121.441 165.235 121.592C165.144 121.744 165.023 121.834 164.841 121.895C163.994 122.107 163.116 122.349 162.268 122.53C163.176 122.591 164.206 122.591 165.326 122.53C165.568 122.53 165.81 122.682 165.931 122.924C166.839 125.255 168.019 127.464 169.139 129.613C171.107 133.366 172.983 136.908 173.437 140.903C174.043 146.321 173.346 151.315 172.681 156.127C172.499 157.459 172.317 158.851 172.136 160.213C172.105 160.486 171.894 160.698 171.621 160.758C171.046 160.849 170.531 160.91 170.077 160.97L171.47 161.212C171.772 161.273 172.015 161.545 171.984 161.878C171.712 164.814 171.651 169.506 172.045 172.29C172.741 177.224 175.677 181.401 176.494 182.49C182.669 181.461 185.635 184.215 188.48 186.879C190.478 188.756 192.354 190.511 195.351 191.086C199.74 191.934 207.458 191.601 214.298 191.298C219.353 191.056 223.711 190.874 226.163 191.177C230.098 191.661 233.185 193.114 236.181 194.537C240.086 196.383 244.142 198.32 250.437 198.32C256.733 198.32 250.982 198.532 251.043 198.835C251.103 199.137 250.891 199.41 250.619 199.501L208.699 211.214C208.638 211.214 208.578 211.214 208.547 211.214H208.487ZM176.403 198.381C177.402 198.895 178.371 199.44 179.339 199.955C182.669 201.771 185.817 203.496 189.116 204.555C192.324 205.584 194.957 205.917 197.5 206.22C201.374 206.674 204.734 207.067 208.638 209.943L246.775 199.289C242.174 198.714 238.875 197.14 235.637 195.626C232.61 194.204 229.765 192.842 226.012 192.357C223.681 192.055 219.141 192.267 214.359 192.478C207.458 192.781 199.649 193.144 195.139 192.236C191.84 191.601 189.721 189.633 187.693 187.727C184.878 185.093 182.215 182.611 176.373 183.701C176.161 183.731 175.919 183.671 175.798 183.489C175.647 183.277 171.742 178.465 170.864 172.411C170.471 169.717 170.501 165.298 170.743 162.272L165.87 161.485C165.568 161.424 165.356 161.182 165.356 160.879C165.356 160.577 165.598 160.334 165.901 160.304C166.203 160.274 167.232 160.153 171.016 159.608C171.167 158.397 171.318 157.156 171.5 155.976C172.166 151.224 172.832 146.321 172.257 141.054C171.833 137.271 170.017 133.851 168.08 130.188C166.99 128.13 165.87 126.011 164.962 123.771C161.512 123.862 158.879 123.378 158.758 123.378C158.485 123.317 158.273 123.075 158.273 122.803C158.273 122.53 158.455 122.258 158.727 122.198C158.727 122.198 161.421 121.501 163.963 120.866C163.479 119.171 163.176 117.536 163.086 115.902C162.511 107.276 166.688 87.2387 174.254 81.3668L134.09 85.4832C129.701 89.1153 126.856 110.393 127.249 119.897C127.431 124.498 129.64 128.766 131.971 133.306C133.242 135.788 134.574 138.36 135.512 140.994H142.534C142.837 140.994 143.109 141.236 143.139 141.538C143.17 141.841 142.988 142.114 142.685 142.204C142.685 142.204 139.386 142.961 136.36 143.657C136.723 145.049 136.904 146.381 136.965 147.713C137.026 149.408 136.965 151.315 136.723 153.706C136.814 153.706 136.904 153.706 136.995 153.706C137.237 153.706 137.419 153.857 137.51 154.069C137.601 154.281 137.57 154.523 137.419 154.705L136.511 155.794C136.36 157.096 136.208 158.428 136.027 159.85C134.998 168.174 133.817 177.617 135.936 183.277C138.357 189.664 145.319 190.541 153.4 191.57C156.215 191.934 159.151 192.297 162.117 192.932C165.083 193.568 167.747 194.416 170.653 195.626C177.039 195.414 178.885 194.9 178.916 194.9C179.218 194.809 179.551 194.991 179.642 195.293C179.733 195.596 179.581 195.929 179.309 196.05L177.977 196.595C178.159 196.686 178.28 196.837 178.31 197.019C178.371 197.291 178.25 197.563 178.008 197.684C177.977 197.684 177.251 198.078 176.524 198.441L176.403 198.381Z" fill="#A8772F"/>
<path opacity="0.3" d="M172.378 84.1212L171.53 81.0037L133.847 84.8476C131.789 86.361 129.761 91.567 128.43 99.4668L166.96 95.3202C168.382 90.9314 170.229 86.9058 172.408 84.1212H172.378Z" fill="#A8772F"/>
<path d="M152.462 188.392C152.189 188.392 151.917 188.181 151.857 187.908C151.796 187.575 152.008 187.273 152.341 187.182C152.492 187.182 167.172 184.155 176.131 182.521C176.464 182.46 176.767 182.672 176.827 183.005C176.888 183.338 176.676 183.64 176.343 183.701C167.384 185.305 152.734 188.332 152.583 188.362C152.553 188.362 152.492 188.362 152.462 188.362V188.392Z" fill="#A8772F"/>
<path d="M164.962 107.7C162.632 108.638 160.301 109.637 160.422 110.817C160.543 111.998 162.723 112.663 166.173 112.119C167.838 111.876 168.806 110.605 168.504 109.152C168.201 107.7 165.114 106.913 165.114 106.913" fill="#DDDCFC"/>
<path d="M164.085 112.906C162.541 112.906 161.27 112.603 160.513 112.028C159.998 111.634 159.847 111.18 159.817 110.878C159.666 109.334 161.754 108.335 164.569 107.185C164.539 107.094 164.508 107.003 164.508 106.882C164.508 106.549 164.811 106.307 165.144 106.338C165.295 106.338 168.564 106.61 169.079 109.062C169.26 109.879 169.079 110.696 168.625 111.362C168.11 112.088 167.263 112.603 166.264 112.754C165.507 112.875 164.75 112.936 164.085 112.936V112.906ZM165.537 107.609C165.568 107.881 165.416 108.154 165.174 108.275C163.903 108.789 160.937 109.97 161.028 110.757C161.028 110.847 161.118 110.968 161.27 111.059C161.875 111.513 163.509 111.937 166.112 111.513C166.809 111.392 167.353 111.09 167.686 110.635C167.959 110.242 168.05 109.788 167.928 109.273C167.686 108.154 166.294 107.73 165.568 107.578L165.537 107.609Z" fill="#7481BA"/>
<path d="M160.422 110.847C160.543 111.876 162.723 112.694 166.173 112.149C165.114 109.455 163.025 108.547 163.025 108.547C161.512 109.243 160.331 110 160.422 110.847Z" fill="#3F3E77"/>
<path d="M164.085 112.906C162.541 112.906 161.27 112.603 160.513 112.028C159.998 111.634 159.847 111.18 159.817 110.878C159.666 109.576 161.239 108.668 162.783 107.972C163.086 107.821 163.449 107.972 163.6 108.275C163.752 108.577 163.6 108.941 163.298 109.092C161.209 110.06 161.028 110.605 161.028 110.787C161.028 110.878 161.118 110.999 161.27 111.09C161.875 111.544 163.509 111.967 166.112 111.544C166.445 111.483 166.748 111.725 166.809 112.058C166.869 112.391 166.627 112.694 166.294 112.754C165.537 112.875 164.781 112.936 164.115 112.936L164.085 112.906Z" fill="#191935"/>
<path d="M165.749 103.069C163.388 102.342 161.209 102.07 160.634 103.069C160.089 103.977 161.724 105.793 164.448 107.911C165.749 108.91 168.867 109.576 169.987 107.215C171.137 104.794 167.565 102.917 167.565 102.917" fill="#DDDCFC"/>
<path d="M167.293 109.425C166.082 109.425 164.841 108.971 164.115 108.396C160.634 105.702 159.423 103.946 160.15 102.766C160.846 101.616 162.723 101.555 165.961 102.524C166.294 102.615 166.476 102.948 166.355 103.281C166.234 103.613 165.931 103.795 165.598 103.674C162.541 102.736 161.391 103.038 161.179 103.371C161.179 103.371 160.816 104.279 164.872 107.427C165.568 107.972 166.96 108.396 168.05 108.123C168.715 107.972 169.2 107.578 169.502 106.943C170.38 105.066 167.384 103.462 167.353 103.432C167.051 103.281 166.96 102.917 167.111 102.615C167.263 102.312 167.626 102.191 167.929 102.372C169.321 103.099 171.712 105.127 170.592 107.457C170.138 108.396 169.351 109.031 168.322 109.273C167.989 109.364 167.656 109.395 167.323 109.395L167.293 109.425Z" fill="#7481BA"/>
<path d="M160.664 103.069C160.119 103.977 161.724 105.823 164.478 107.911C165.901 105.732 165.749 103.099 165.749 103.099C163.388 102.373 161.209 102.1 160.634 103.099L160.664 103.069Z" fill="#3F3E77"/>
<path d="M164.478 108.517C164.357 108.517 164.236 108.486 164.115 108.396C160.695 105.823 159.393 103.977 160.12 102.766C160.816 101.616 162.692 101.555 165.931 102.524C166.264 102.615 166.445 102.948 166.324 103.281C166.203 103.613 165.901 103.795 165.568 103.674C162.511 102.736 161.361 103.038 161.149 103.371C160.997 103.613 161.391 104.824 164.811 107.427C165.083 107.639 165.144 108.002 164.932 108.275C164.811 108.426 164.629 108.517 164.448 108.517H164.478Z" fill="#191935"/>
<path d="M166.294 98.2258C169.623 99.1944 170.531 101.01 170.047 102.372C169.563 103.734 167.565 104.794 165.416 103.825C163.267 102.857 161.814 102.07 161.875 101.404C161.936 100.738 163.57 99.8905 165.961 99.83" fill="#DDDCFC"/>
<path d="M167.172 104.854C166.506 104.854 165.84 104.703 165.174 104.4C162.45 103.159 161.179 102.403 161.3 101.343C161.421 100.254 163.509 99.3155 165.961 99.2246C166.294 99.2246 166.566 99.4668 166.597 99.7997C166.597 100.133 166.355 100.405 166.022 100.435C164.024 100.496 162.783 101.162 162.541 101.495C162.692 101.737 163.388 102.251 165.689 103.311C166.597 103.734 167.535 103.765 168.322 103.432C168.897 103.19 169.321 102.736 169.502 102.221C169.654 101.797 169.593 101.343 169.381 100.92C168.927 100.072 167.777 99.3154 166.143 98.8614C165.81 98.7706 165.628 98.4377 165.719 98.1048C165.81 97.7718 166.143 97.5902 166.476 97.681C168.988 98.4074 170.017 99.5273 170.441 100.345C170.834 101.071 170.895 101.858 170.653 102.615C170.38 103.462 169.714 104.158 168.806 104.552C168.292 104.764 167.747 104.885 167.202 104.885L167.172 104.854Z" fill="#7481BA"/>
<path d="M161.905 101.404C161.814 102.07 163.298 102.857 165.295 103.765C166.234 102.191 166.082 100.556 165.931 99.83C163.57 99.9208 161.966 100.829 161.875 101.404H161.905Z" fill="#3F3E77"/>
<path d="M165.295 104.37C165.204 104.37 165.114 104.37 165.053 104.31C162.48 103.129 161.179 102.342 161.3 101.313C161.421 100.223 163.51 99.2851 165.931 99.1943C166.264 99.1943 166.536 99.4365 166.566 99.7694C166.566 100.102 166.324 100.375 165.991 100.405C163.994 100.466 162.783 101.131 162.541 101.464C162.692 101.707 163.358 102.191 165.568 103.22C165.87 103.371 165.991 103.704 165.87 104.037C165.78 104.249 165.537 104.4 165.326 104.4L165.295 104.37Z" fill="#191935"/>
<path d="M122.164 122.894C98.3135 152.253 74.6141 149.287 66.5024 101.767L89.5662 94.9569C89.5662 102.009 94.8327 116.447 99.9782 116.447C105.124 116.447 111.238 106.64 119.107 104.219L122.164 122.924V122.894Z" fill="#DDDCFC"/>
<path d="M68.1974 110.091C77.5803 149.529 99.7965 150.437 122.164 122.863L116.201 123.469C88.9003 140.086 82.3928 135.999 68.1974 110.06V110.091Z" fill="#9597CF"/>
<path d="M122.376 120.291C123.799 119.534 125.796 119.776 125.796 119.776C125.07 118.172 124.071 117.839 124.071 117.839C124.071 117.839 123.889 117.264 125.917 116.749C125.917 116.749 122.86 104.733 119.107 104.219C114.597 105.369 109.724 110.423 107.545 112.058C107.545 112.058 105.305 118.293 103.247 120.442C103.247 120.442 105.759 121.108 108.211 120.624C108.211 120.624 105.396 122.53 101.885 125.164C101.885 125.164 112.509 126.314 118.018 123.862C118.018 123.862 118.865 125.285 118.018 127.888C118.018 127.888 120.409 125.436 122.164 122.894C122.981 122.379 124.586 123.045 124.586 123.045C124.101 120.987 122.376 120.321 122.376 120.321V120.291Z" fill="#57539F"/>
<path d="M118.048 128.493C117.896 128.493 117.745 128.433 117.624 128.311C117.382 128.069 117.382 127.706 117.624 127.464C117.624 127.464 120.015 125.012 121.68 122.53C121.74 122.47 121.771 122.409 121.861 122.349C122.376 122.016 123.012 122.016 123.587 122.107C123.012 121.199 122.194 120.866 122.164 120.835C121.952 120.745 121.801 120.533 121.801 120.291C121.801 120.048 121.922 119.837 122.104 119.716C122.951 119.262 123.98 119.11 124.737 119.08C124.495 118.777 124.283 118.596 124.101 118.475C123.829 118.293 123.768 117.899 123.95 117.627C124.132 117.355 124.525 117.294 124.797 117.476C125.221 117.778 125.857 118.384 126.341 119.473C126.432 119.685 126.402 119.897 126.281 120.079C126.159 120.26 125.948 120.351 125.736 120.321C125.736 120.321 124.737 120.23 123.738 120.412C124.313 120.896 124.918 121.683 125.191 122.833C125.251 123.045 125.191 123.287 125.009 123.438C124.828 123.59 124.586 123.62 124.374 123.529C123.889 123.317 123.012 123.136 122.588 123.287C120.832 125.799 118.562 128.13 118.472 128.251C118.35 128.372 118.199 128.433 118.048 128.433V128.493Z" fill="#191935"/>
<path d="M127.037 116.689C124.192 117.203 124.707 119.171 120.076 120.018C120.076 120.018 118.774 118.051 116.444 117.324C116.444 117.324 117.866 115.539 119.107 115.085C119.107 115.085 117.654 112.603 115.566 111.271C115.566 111.271 116.655 108.971 117.987 108.275C117.987 108.275 117.291 107.73 116.141 107.911C116.141 107.911 117.624 105.853 119.622 105.066C119.622 105.066 118.835 104.703 117.866 104.733C117.866 104.733 122.134 101.495 127.703 102.039C127.703 102.039 131.88 111.059 127.007 116.659L127.037 116.689Z" fill="#DDDCFC"/>
<path d="M118.502 104.945C118.29 104.945 118.108 104.854 117.987 104.673C117.806 104.4 117.897 104.007 118.169 103.825C119.137 103.22 121.135 102.16 123.708 101.646C124.041 101.585 124.344 101.797 124.404 102.13C124.465 102.463 124.253 102.766 123.92 102.826C121.529 103.28 119.682 104.279 118.774 104.824C118.683 104.885 118.562 104.915 118.441 104.915L118.502 104.945Z" fill="#7481BA"/>
<path d="M120.076 120.593C119.803 120.593 119.531 120.382 119.47 120.109C119.41 119.776 119.622 119.473 119.955 119.413C122.376 118.959 123.254 118.233 124.101 117.506C124.797 116.931 125.494 116.326 126.916 116.084C127.249 116.023 127.552 116.235 127.612 116.568C127.673 116.901 127.461 117.203 127.128 117.264C126.038 117.446 125.524 117.9 124.888 118.444C124.01 119.171 122.921 120.109 120.166 120.593C120.136 120.593 120.106 120.593 120.045 120.593H120.076Z" fill="#7481BA"/>
<path d="M93.6523 142.416C92.1995 142.416 90.7466 142.235 89.3543 141.902C79.7898 139.51 72.4046 129.189 68.0158 111.997C67.925 111.664 68.1368 111.331 68.4395 111.271C68.7725 111.18 69.1055 111.392 69.166 111.695C73.4337 128.433 80.486 138.481 89.5965 140.721C97.9806 142.81 107.908 138.088 117.564 127.464C117.775 127.222 118.169 127.192 118.411 127.434C118.653 127.646 118.683 128.039 118.441 128.281C110.057 137.513 101.401 142.416 93.5918 142.416H93.6523Z" fill="#191935"/>
<path d="M68.5909 112.451C68.3185 112.451 68.0763 112.27 68.0158 111.997C67.2289 108.85 66.5024 105.429 65.8971 101.858C65.8366 101.525 66.0787 101.222 66.3813 101.162C66.7143 101.101 67.017 101.343 67.0775 101.646C67.6828 105.187 68.379 108.577 69.166 111.695C69.2568 112.028 69.0449 112.361 68.7422 112.421C68.6817 112.421 68.6514 112.421 68.5909 112.421V112.451Z" fill="#7481BA"/>
<path d="M99.9782 117.022C96.4671 117.022 93.6523 111.816 92.2903 108.698C90.2623 104.128 88.9608 98.71 88.9608 94.9266C88.9608 91.1432 89.2333 94.3212 89.5662 94.3212C89.8991 94.3212 90.1715 94.5937 90.1715 94.9266C90.1715 102.191 95.3775 115.811 99.9782 115.811C104.579 115.811 105.487 113.269 108.514 110.575C111.54 107.881 114.961 104.824 118.956 103.613C119.289 103.523 119.622 103.704 119.713 104.007C119.803 104.34 119.622 104.673 119.319 104.764C115.596 105.914 112.418 108.759 109.331 111.483C106.122 114.328 103.096 117.022 99.9782 117.022Z" fill="#7481BA"/>
<path d="M81.9691 135.727C87.962 143.112 94.863 144.202 94.863 144.202C94.863 144.202 91.2007 140.418 89.3543 137.059" fill="#9597CF"/>
<path d="M94.863 144.777C94.8327 144.777 94.8024 144.777 94.7722 144.777C94.4695 144.747 87.5685 143.597 81.4848 136.09C81.2729 135.818 81.3032 135.455 81.5756 135.243C81.848 135.031 82.2112 135.061 82.423 135.334C86.2973 140.086 90.565 142.174 92.9864 143.022C91.7455 141.599 89.9597 139.389 88.8095 137.301C88.6582 136.998 88.749 136.635 89.0517 136.484C89.3543 136.332 89.7175 136.423 89.8689 136.726C91.6546 139.995 95.2564 143.718 95.2867 143.748C95.4683 143.93 95.4986 144.202 95.3775 144.444C95.2867 144.656 95.0748 144.777 94.8327 144.777H94.863Z" fill="#191935"/>
<path d="M128.46 107.306C132.516 106.156 136.874 106.277 137.086 105.217C137.268 104.219 133.454 101.01 127.764 102.07" fill="#DDDCFC"/>
<path d="M128.46 107.911C128.187 107.911 127.945 107.73 127.885 107.457C127.794 107.124 127.976 106.791 128.309 106.701C130.064 106.186 131.91 105.944 133.393 105.732C134.604 105.55 136.118 105.339 136.481 105.066C136.42 104.915 136.148 104.521 135.482 104.037C134.755 103.523 132.062 101.858 127.855 102.615C127.522 102.675 127.219 102.463 127.158 102.13C127.098 101.797 127.31 101.495 127.643 101.434C132.364 100.587 135.694 102.463 136.935 103.704C137.51 104.279 137.782 104.854 137.691 105.308C137.48 106.337 136.027 106.549 133.575 106.913C132.062 107.124 130.336 107.367 128.641 107.851C128.581 107.851 128.52 107.851 128.46 107.851V107.911Z" fill="#7481BA"/>
<path d="M137.086 105.217C136.965 105.883 135.24 106.065 132.97 106.398C134.18 104.733 133.666 102.463 133.666 102.463C135.906 103.25 137.177 104.612 137.056 105.217H137.086Z" fill="#3F3E77"/>
<path d="M132.97 107.003C132.667 107.003 132.425 106.791 132.364 106.489C132.304 106.156 132.546 105.853 132.879 105.793L133.363 105.732C134.574 105.551 136.087 105.339 136.45 105.066C136.299 104.673 135.331 103.704 133.454 103.038C133.151 102.917 132.97 102.584 133.091 102.251C133.212 101.949 133.545 101.767 133.878 101.888C136.178 102.705 137.873 104.249 137.661 105.308C137.449 106.337 135.966 106.549 133.514 106.913L133.03 106.973C133.03 106.973 132.97 106.973 132.939 106.973L132.97 107.003Z" fill="#191935"/>
<path d="M128.248 110.938C131.154 110.121 135.3 108.335 136.178 109.667C137.025 110.968 134.09 114.752 127.007 116.689" fill="#DDDCFC"/>
<path d="M127.037 117.294C126.765 117.294 126.523 117.113 126.462 116.84C126.371 116.507 126.553 116.174 126.886 116.084C132.364 114.6 135.149 111.997 135.663 110.605C135.754 110.333 135.785 110.121 135.724 110C135.27 109.334 132.274 110.302 130.457 110.908C129.761 111.15 129.095 111.362 128.46 111.543C128.127 111.634 127.794 111.453 127.703 111.12C127.612 110.787 127.794 110.454 128.127 110.363C128.732 110.181 129.398 109.97 130.094 109.758C133.03 108.789 135.784 107.911 136.753 109.334C136.965 109.637 137.147 110.212 136.844 111.029C136.087 113.027 132.849 115.751 127.249 117.264C127.189 117.264 127.128 117.264 127.098 117.264L127.037 117.294Z" fill="#7481BA"/>
<path d="M136.208 109.667C136.783 110.545 135.633 112.542 132.637 114.358C134.029 111.543 132.758 109.546 132.758 109.546C134.392 109.122 135.754 108.94 136.239 109.637L136.208 109.667Z" fill="#3F3E77"/>
<path d="M132.606 114.964C132.395 114.964 132.213 114.873 132.092 114.661C131.91 114.389 132.001 113.995 132.304 113.844C134.544 112.482 135.542 111.12 135.724 110.393C135.754 110.212 135.754 110.091 135.724 110C135.633 109.848 135.149 109.546 132.909 110.151C132.576 110.242 132.243 110.06 132.152 109.727C132.062 109.394 132.243 109.062 132.576 108.971C134.211 108.517 135.996 108.214 136.723 109.334C136.904 109.576 137.056 110.03 136.904 110.666C136.602 111.997 135.119 113.571 132.939 114.903C132.849 114.964 132.728 114.994 132.637 114.994L132.606 114.964Z" fill="#191935"/>
<path d="M127.764 112.118C133.847 110.666 138.448 108.668 138.115 107.155C137.782 105.641 130.942 105.46 127.249 106.126" fill="#DDDCFC"/>
<path d="M127.764 112.724C127.491 112.724 127.249 112.542 127.189 112.27C127.098 111.937 127.31 111.604 127.643 111.543C136.178 109.485 137.601 107.578 137.54 107.306C137.268 106.156 132.152 105.883 127.37 106.731C127.037 106.791 126.735 106.58 126.674 106.247C126.613 105.914 126.825 105.611 127.158 105.55C128.853 105.248 131.517 104.945 133.938 105.066C136.874 105.187 138.448 105.823 138.72 107.034C138.993 108.123 137.933 110.333 127.945 112.754C127.885 112.754 127.854 112.754 127.794 112.754L127.764 112.724Z" fill="#7481BA"/>
<path d="M138.115 107.155C138.357 108.184 136.269 109.455 133 110.605C134.211 108.547 133.242 105.611 133.242 105.611C135.724 105.641 137.873 106.035 138.115 107.124V107.155Z" fill="#3F3E77"/>
<path d="M133 111.21C132.758 111.21 132.516 111.059 132.425 110.817C132.304 110.514 132.485 110.151 132.788 110.03C136.844 108.607 137.57 107.548 137.51 107.276C137.419 106.912 136.42 106.247 133.212 106.216C132.879 106.216 132.606 105.944 132.606 105.611C132.606 105.278 132.879 105.006 133.212 105.006C136.571 105.036 138.357 105.702 138.66 107.003C138.993 108.396 137.177 109.758 133.151 111.18C133.091 111.18 133.03 111.21 132.939 111.21H133Z" fill="#191935"/>
<path d="M145.743 88.8428C146.227 92.6868 136.571 93.5948 136.571 93.5948C136.329 93.6554 136.057 93.6856 135.815 93.6554C133.726 93.5646 132.092 91.355 132.152 88.6915C132.213 86.028 133.969 83.9395 136.057 84.0303C136.057 84.0303 145.077 83.3947 145.743 88.8428Z" fill="#D6AD6B"/>
<path d="M135.906 94.291C135.875 94.291 135.815 94.291 135.785 94.291C133.363 94.2002 131.487 91.688 131.547 88.7218C131.577 87.0874 132.213 85.5437 133.272 84.5449C134.059 83.8185 135.028 83.425 136.027 83.4553C136.329 83.4553 138.478 83.3342 140.779 83.8487C144.108 84.6054 146.045 86.3004 146.348 88.8126C146.439 89.5693 146.227 90.2957 145.712 90.9616C143.684 93.5041 137.268 94.2002 136.662 94.2607C136.42 94.3213 136.178 94.3515 135.906 94.3515V94.291ZM135.936 84.6357C135.27 84.6357 134.665 84.9081 134.12 85.4226C133.303 86.2096 132.788 87.39 132.758 88.7218C132.697 91.0524 134.09 92.9895 135.815 93.05C136.027 93.05 136.239 93.05 136.42 92.9895H136.481C138.266 92.8079 143.261 91.9907 144.744 90.1444C145.046 89.7509 145.198 89.3574 145.137 88.9034C144.562 84.1212 136.178 84.6357 136.087 84.6357C136.087 84.6357 136.057 84.6357 136.027 84.6357C136.027 84.6357 135.966 84.6357 135.936 84.6357Z" fill="#A8772F"/>
<path d="M178.31 80.3983C178.038 80.3983 140.325 83.6672 136.057 84.0607C137.116 84.0909 138.085 84.6963 138.72 85.6346C139.507 85.7254 141.142 85.9373 142.08 85.9675C142.08 85.9675 140.779 86.3913 139.296 86.7545C139.507 87.3296 139.659 87.9652 139.659 88.6311C143.382 88.7219 147.044 88.3889 147.044 88.3889C147.044 88.3889 142.413 89.9931 139.447 90.5076C138.993 92.1421 137.873 93.3528 136.511 93.6252L178.189 90.0536C178.31 90.0536 178.431 90.0536 178.552 90.0536C180.399 89.7812 181.852 87.8441 181.912 85.4227C181.973 82.7592 180.338 80.5497 178.25 80.4589L178.31 80.3983Z" fill="#F4D7A0"/>
<path d="M136.541 94.2305C136.239 94.2305 135.996 94.0187 135.936 93.716C135.875 93.4133 136.087 93.1106 136.42 93.0198C137.54 92.7777 138.478 91.7486 138.902 90.326C138.963 90.1142 139.144 89.9326 139.386 89.9023C140.234 89.751 141.263 89.5088 142.262 89.2364C141.445 89.2364 140.567 89.2364 139.719 89.2364C139.386 89.2364 139.144 88.964 139.114 88.6613C139.114 88.056 138.993 87.5112 138.781 86.9966C138.721 86.8453 138.721 86.6637 138.781 86.5123C138.811 86.4215 138.872 86.361 138.932 86.3307C138.842 86.3307 138.721 86.3307 138.63 86.3005C138.448 86.3005 138.327 86.1794 138.206 86.0583C137.631 85.2411 136.844 84.7568 135.996 84.7266C135.663 84.7266 135.421 84.4542 135.421 84.1212C135.421 83.7883 135.663 83.5461 135.966 83.5159C151.614 82.1538 177.887 79.8535 178.28 79.8535C180.701 79.9443 182.578 82.4565 182.517 85.4227C182.457 88.1468 180.822 90.326 178.643 90.659C178.643 90.659 178.643 90.659 178.613 90.659C178.492 90.659 178.34 90.659 178.219 90.6892L136.572 94.2608C136.572 94.2608 136.541 94.2608 136.511 94.2608L136.541 94.2305ZM139.931 91.0222C139.689 91.7183 139.356 92.3237 138.932 92.808L178.159 89.418C178.159 89.418 178.159 89.418 178.189 89.418C178.28 89.418 178.401 89.418 178.492 89.418C178.492 89.418 178.492 89.418 178.522 89.418C180.066 89.2061 181.276 87.4506 181.337 85.3622C181.398 83.0619 180.036 81.1247 178.28 81.0339C177.342 81.0945 153.097 83.2132 138.448 84.4844C138.66 84.666 138.842 84.8779 139.023 85.0898C139.81 85.1806 141.233 85.3622 142.08 85.3924C142.383 85.3924 142.625 85.6346 142.655 85.907C142.685 86.2097 142.534 86.4821 142.231 86.5729C142.171 86.5729 141.233 86.9058 140.052 87.2085C140.113 87.4809 140.173 87.7533 140.204 88.056C143.654 88.0863 146.923 87.7836 146.983 87.7836C147.286 87.7836 147.559 87.9652 147.619 88.2679C147.68 88.5705 147.528 88.8732 147.226 88.964C147.044 89.0245 142.867 90.4774 139.901 91.0525L139.931 91.0222Z" fill="#A8772F"/>
<path d="M254.221 196.171L254.1 195.324C254.1 195.324 251.981 195.899 249.106 196.171C249.106 196.171 252.314 194.839 254.524 193.75C253.676 192.388 252.314 191.57 250.892 191.782C250.619 191.813 209.365 201.649 209.365 201.649L211.514 210.972L252.465 201.256C252.587 201.256 252.708 201.195 252.829 201.165C254.554 200.59 255.644 198.502 255.341 196.141H254.191L254.221 196.171Z" fill="#F4D7A0"/>
<path d="M211.514 211.577C211.392 211.577 211.302 211.547 211.181 211.486C211.029 211.396 210.938 211.275 210.908 211.123L208.759 201.801C208.699 201.589 208.759 201.377 208.91 201.226C209.062 201.074 209.032 201.105 215.66 199.531C219.534 198.623 224.71 197.382 229.886 196.141C250.619 191.207 250.74 191.177 250.801 191.177C252.375 190.965 254.009 191.813 255.008 193.447C255.099 193.598 255.129 193.78 255.068 193.931C255.008 194.083 254.917 194.234 254.766 194.294C254.463 194.446 254.16 194.597 253.827 194.749C253.888 194.749 253.918 194.749 253.918 194.749C254.1 194.688 254.281 194.749 254.403 194.839C254.554 194.93 254.645 195.081 254.675 195.263V195.596H255.341C255.643 195.596 255.916 195.838 255.946 196.141C256.279 198.744 255.038 201.135 253.01 201.801C252.859 201.861 252.708 201.892 252.586 201.922L211.665 211.638C211.604 211.638 211.574 211.638 211.514 211.638V211.577ZM210.091 202.104L211.968 210.245L252.314 200.681C252.435 200.681 252.526 200.62 252.617 200.59C253.949 200.166 254.826 198.562 254.766 196.746H254.16C253.858 196.746 253.585 196.534 253.555 196.232V196.05C252.677 196.232 251.073 196.565 249.136 196.776C248.833 196.807 248.561 196.625 248.5 196.322C248.44 196.02 248.591 195.717 248.863 195.626C248.863 195.626 251.497 194.537 253.585 193.538C252.859 192.69 251.89 192.267 250.952 192.388C250.286 192.509 215.055 200.923 210.061 202.104H210.091Z" fill="#A8772F"/>
<path d="M210.902 210.05C212.962 209.702 214.273 207.295 213.83 204.674C213.387 202.054 211.357 200.212 209.297 200.56C207.237 200.909 205.926 203.316 206.369 205.936C206.812 208.557 208.842 210.399 210.902 210.05Z" fill="#D6AD6B"/>
<path d="M210.394 211.819C208.184 211.819 206.156 209.791 205.733 207.037C205.49 205.403 205.854 203.799 206.731 202.648C207.397 201.771 208.305 201.226 209.304 201.074C211.695 200.741 213.996 202.89 214.45 205.826C214.692 207.461 214.328 209.065 213.451 210.215C212.785 211.093 211.877 211.638 210.878 211.789C210.727 211.789 210.545 211.819 210.394 211.819ZM209.789 202.225C209.667 202.225 209.577 202.225 209.456 202.225C208.759 202.315 208.154 202.709 207.7 203.314C207.034 204.222 206.731 205.493 206.943 206.795C207.276 209.095 208.971 210.76 210.727 210.548C211.423 210.457 212.028 210.064 212.482 209.459C213.148 208.55 213.451 207.279 213.239 205.978C212.906 203.829 211.423 202.225 209.789 202.225Z" fill="#A8772F"/>
</svg>
