<svg width="256" height="256" viewBox="0 0 256 256" fill="none" xmlns="http://www.w3.org/2000/svg">
<path d="M202.438 148.082C160.945 158.599 123.786 146.142 135.788 76.2187L165.37 78.1585C165.128 120.015 199.134 130.745 209.258 133.17L202.438 148.051V148.082Z" fill="#DDDCFC"/>
<path d="M167.643 140.959C175.039 142.05 179.585 140.171 179.585 140.171C150.761 130.442 135.91 111.105 145.578 76.8552L135.819 76.2188C124.18 143.899 158.642 157.75 198.528 149.021C198.528 149.021 177.948 149.052 167.674 140.959H167.643Z" fill="#9597CF"/>
<path d="M178.555 151.991C162.582 151.991 152.792 146.687 146.942 141.292C133.788 129.138 129.848 107.225 135.182 76.1278C135.243 75.8247 135.516 75.6125 135.819 75.6125L165.4 77.5523C165.703 77.5523 165.946 77.8251 165.976 78.0979C167.431 97.2835 173.826 111.802 184.98 121.228C194.043 128.896 203.863 131.26 209.136 132.533L209.409 132.594C209.743 132.685 209.924 132.988 209.864 133.321C209.773 133.654 209.47 133.836 209.136 133.776L208.864 133.715C203.499 132.412 193.467 130.017 184.192 122.167C172.887 112.62 166.37 98.0109 164.825 78.7343L136.334 76.8552C131.212 107.225 135.061 128.593 147.821 140.383C155.914 147.869 171.947 155.174 202.347 147.475C202.681 147.385 203.014 147.597 203.075 147.9C203.166 148.233 202.953 148.567 202.65 148.627C193.406 150.961 185.435 151.931 178.615 151.931L178.555 151.991Z" fill="#7481BA"/>
<path d="M178.555 151.992C162.582 151.992 152.792 146.688 146.942 141.293C133.788 129.139 129.848 107.225 135.182 76.1279C135.243 75.7945 135.546 75.5824 135.879 75.643C136.213 75.7036 136.425 76.0067 136.364 76.3401C131.09 107.013 134.94 128.563 147.76 140.414C155.853 147.9 171.887 155.204 202.287 147.506C202.62 147.415 202.953 147.627 203.014 147.93C203.105 148.264 202.893 148.597 202.59 148.658C193.345 150.991 185.374 151.961 178.555 151.961V151.992Z" fill="#191935"/>
<path d="M169.674 150.385C162.915 149.476 152.004 151.294 152.004 151.294C155.762 147.809 158.642 146.233 158.642 146.233" fill="#9597CF"/>
<path d="M151.973 151.931C151.731 151.931 151.519 151.81 151.428 151.598C151.307 151.355 151.367 151.082 151.549 150.9C155.307 147.385 158.187 145.809 158.308 145.748C158.611 145.596 158.975 145.687 159.126 145.99C159.278 146.293 159.187 146.657 158.884 146.809C158.884 146.809 156.762 147.991 153.883 150.446C157.368 149.961 164.643 149.143 169.735 149.84C170.068 149.87 170.31 150.203 170.25 150.506C170.219 150.84 169.916 151.082 169.583 151.022C163.006 150.143 152.186 151.931 152.064 151.931C152.034 151.931 152.004 151.931 151.973 151.931Z" fill="#191935"/>
<path d="M162.915 146.9C150.034 148.597 143.335 142.293 143.335 142.293C143.335 142.293 149.155 143.323 153.853 142.232" fill="#9597CF"/>
<path d="M158.581 147.809C148.458 147.809 143.184 142.959 142.911 142.747C142.73 142.565 142.669 142.262 142.79 142.02C142.911 141.777 143.184 141.656 143.427 141.686C143.487 141.686 149.185 142.687 153.701 141.656C154.035 141.596 154.338 141.777 154.429 142.111C154.489 142.444 154.308 142.747 153.974 142.838C151.065 143.505 147.791 143.384 145.639 143.202C148.428 144.899 154.247 147.445 162.855 146.324C163.188 146.263 163.491 146.506 163.522 146.839C163.552 147.172 163.34 147.476 163.006 147.506C161.43 147.718 159.975 147.809 158.581 147.809Z" fill="#191935"/>
<path d="M200.438 147.87C205.863 153.659 207.924 153.598 213.258 153.628C220.411 153.962 224.746 141.02 218.775 136.928C213.41 133.261 206.56 132.927 206.56 132.927C198.316 132.382 193.315 142.444 200.438 147.87Z" fill="#DDDCFC"/>
<path d="M218.775 136.928C213.41 133.26 206.56 132.927 206.56 132.927L218.775 136.928Z" fill="#DDDCFC"/>
<path d="M218.775 137.534C218.654 137.534 218.532 137.504 218.441 137.443C213.289 133.927 206.621 133.533 206.56 133.533C206.227 133.533 205.954 133.23 205.984 132.897C205.984 132.563 206.287 132.291 206.621 132.321C206.894 132.321 213.683 132.715 219.138 136.443C219.411 136.625 219.472 137.019 219.29 137.292C219.169 137.473 218.987 137.564 218.775 137.564V137.534Z" fill="#7481BA"/>
<path d="M200.438 147.87C205.863 153.659 207.924 153.598 213.258 153.628L200.438 147.87Z" fill="#DDDCFC"/>
<path d="M213.259 154.234H213.046C207.894 154.204 205.53 154.174 199.983 148.264C199.741 148.021 199.771 147.627 199.983 147.415C200.226 147.172 200.62 147.203 200.832 147.415C206.015 152.931 207.924 152.961 213.016 152.992H213.228C213.562 152.992 213.834 153.265 213.834 153.598C213.834 153.931 213.562 154.204 213.228 154.204L213.259 154.234Z" fill="#7481BA"/>
<path d="M213.683 153.507C214.38 154.75 215.016 155.356 215.016 155.356C215.259 159.872 218.987 160.145 220.29 156.144C220.29 156.144 220.775 154.356 220.805 153.537C220.896 151.688 217.471 148.536 217.471 148.536" fill="#DDDCFC"/>
<path d="M217.502 159.569C217.38 159.569 217.29 159.569 217.168 159.569C215.986 159.417 214.653 158.296 214.44 155.629C214.198 155.356 213.683 154.75 213.168 153.84C212.986 153.537 213.107 153.174 213.38 153.022C213.683 152.871 214.046 152.961 214.198 153.234C214.835 154.356 215.441 154.932 215.441 154.932C215.562 155.053 215.623 155.174 215.623 155.326C215.713 157.053 216.38 158.235 217.32 158.356C218.108 158.447 219.138 157.75 219.745 155.992C219.866 155.507 220.199 154.143 220.26 153.507C220.32 152.355 218.381 150.143 217.138 148.991C216.896 148.779 216.865 148.385 217.108 148.142C217.32 147.9 217.714 147.87 217.956 148.112C218.32 148.445 221.593 151.507 221.472 153.598C221.412 154.477 220.957 156.265 220.927 156.326C220.927 156.326 220.927 156.326 220.927 156.356C220.26 158.356 218.957 159.599 217.532 159.599L217.502 159.569Z" fill="#7481BA"/>
<path d="M216.259 160.478C215.319 160.266 215.228 158.114 215.016 155.325C217.956 154.75 220.29 156.114 220.29 156.114C219.593 158.538 217.138 160.66 216.228 160.478H216.259Z" fill="#3F3E77"/>
<path d="M216.501 161.115C216.35 161.115 216.198 161.115 216.077 161.054C214.319 160.508 214.38 157.75 214.44 155.326C214.44 154.992 214.713 154.719 215.047 154.719C215.38 154.719 215.653 154.992 215.653 155.326C215.653 157.023 215.592 159.599 216.471 159.872C216.532 159.872 216.714 159.872 217.077 159.69C217.926 159.266 219.108 157.993 219.775 155.901C219.866 155.568 220.199 155.416 220.532 155.507C220.866 155.598 221.017 155.932 220.926 156.265C220.169 158.72 218.744 160.205 217.653 160.751C217.259 160.963 216.865 161.054 216.532 161.054L216.501 161.115Z" fill="#191935"/>
<path d="M215.047 148.385C216.441 150.719 219.411 153.265 219.411 153.265C221.896 157.265 225.443 155.629 224.624 151.325C224.624 151.325 224.17 149.446 223.806 148.688C222.957 146.93 219.29 144.293 219.29 144.293" fill="#DDDCFC"/>
<path d="M222.533 156.144C221.442 156.144 220.108 155.477 218.957 153.659C218.472 153.234 215.865 150.931 214.532 148.688C214.35 148.415 214.441 148.021 214.744 147.87C215.016 147.688 215.41 147.779 215.562 148.082C216.896 150.294 219.775 152.78 219.805 152.81C219.866 152.84 219.896 152.901 219.927 152.961C220.866 154.477 222.079 155.235 223.018 154.871C223.776 154.568 224.412 153.416 224.049 151.476C223.927 150.961 223.533 149.536 223.261 148.961C222.624 147.657 219.927 145.505 218.957 144.778C218.684 144.596 218.623 144.202 218.835 143.929C219.048 143.657 219.411 143.596 219.684 143.808C219.836 143.929 223.503 146.566 224.382 148.445C224.776 149.264 225.231 151.143 225.261 151.204C225.261 151.204 225.261 151.203 225.261 151.234C225.685 153.537 224.988 155.416 223.503 156.023C223.23 156.144 222.927 156.205 222.594 156.205L222.533 156.144Z" fill="#7481BA"/>
<path d="M223.109 157.326C222.139 157.629 220.987 155.689 219.411 153.265C221.836 151.264 224.624 151.325 224.624 151.325C225.2 153.901 224.018 157.053 223.109 157.326Z" fill="#3F3E77"/>
<path d="M222.866 157.962C221.199 157.962 219.957 155.629 218.866 153.537C218.714 153.234 218.835 152.87 219.108 152.719C219.411 152.567 219.775 152.689 219.926 152.961C220.805 154.628 222.018 156.902 222.988 156.72C223.048 156.72 223.23 156.598 223.473 156.235C224.018 155.416 224.503 153.659 224.018 151.416C223.958 151.082 224.17 150.779 224.503 150.688C224.837 150.628 225.14 150.84 225.23 151.173C225.776 153.78 225.231 155.841 224.503 156.902C224.139 157.447 223.685 157.811 223.23 157.902C223.109 157.902 222.988 157.932 222.866 157.932V157.962Z" fill="#191935"/>
<path d="M215.683 142.262C217.199 144.142 220.32 146.203 220.32 146.203C223.533 149.658 226.685 147.415 225.079 143.323C225.079 143.323 224.261 141.565 223.776 140.868C222.624 139.322 218.805 136.928 218.805 136.928" fill="#DDDCFC"/>
<path d="M223.382 148.506C222.381 148.506 221.169 148.021 219.896 146.657C219.441 146.354 216.653 144.414 215.198 142.626C214.986 142.353 215.016 141.99 215.289 141.777C215.562 141.565 215.925 141.596 216.138 141.868C217.592 143.657 220.593 145.687 220.623 145.687C220.654 145.687 220.684 145.748 220.745 145.778C221.957 147.112 223.291 147.627 224.139 147.081C224.836 146.657 225.23 145.384 224.503 143.535C224.291 143.05 223.654 141.717 223.26 141.202C222.199 139.747 218.471 137.443 218.441 137.413C218.168 137.231 218.077 136.867 218.259 136.564C218.441 136.291 218.805 136.2 219.108 136.382C219.259 136.473 223.048 138.837 224.26 140.474C224.806 141.201 225.594 142.959 225.624 143.02C226.473 145.202 226.17 147.172 224.776 148.051C224.382 148.294 223.927 148.445 223.382 148.445V148.506Z" fill="#7481BA"/>
<path d="M224.715 149.506C223.806 149.961 222.321 148.294 220.32 146.203C222.321 143.778 225.079 143.323 225.079 143.323C226.14 145.748 225.564 149.052 224.715 149.506Z" fill="#3F3E77"/>
<path d="M224.261 150.203C222.745 150.203 221.199 148.294 219.836 146.596C219.623 146.324 219.684 145.96 219.926 145.748C220.199 145.536 220.563 145.596 220.775 145.839C221.957 147.324 223.564 149.324 224.473 148.961C224.533 148.961 224.685 148.809 224.867 148.415C225.261 147.506 225.382 145.687 224.503 143.596C224.382 143.293 224.503 142.929 224.837 142.808C225.14 142.687 225.503 142.808 225.625 143.141C226.655 145.596 226.473 147.718 225.988 148.9C225.715 149.506 225.352 149.93 224.927 150.112C224.715 150.203 224.473 150.234 224.261 150.234V150.203Z" fill="#191935"/>
<path d="M212.773 141.353C218.805 145.051 211.773 154.053 206.045 150.719C199.559 146.96 207.863 138.322 212.773 141.353Z" fill="#F7F5FE"/>
<path d="M211.137 136.261C211.137 136.261 214.562 137.807 215.956 139.201C218.29 141.626 219.593 144.566 219.32 145.445C219.048 146.324 213.834 146.718 210.955 142.869C210.955 142.869 209.258 142.444 208.258 141.02" fill="#DDDCFC"/>
<path d="M217.35 146.778C215.411 146.778 212.592 145.93 210.591 143.414C210.076 143.232 208.682 142.687 207.773 141.383C207.591 141.111 207.651 140.747 207.924 140.535C208.197 140.353 208.561 140.414 208.773 140.686C209.652 141.899 211.107 142.323 211.137 142.323C211.258 142.353 211.379 142.444 211.47 142.535C213.168 144.808 215.744 145.596 217.411 145.566C218.229 145.566 218.654 145.354 218.745 145.263C218.866 144.687 217.835 142.02 215.532 139.626C214.259 138.322 210.955 136.807 210.925 136.807C210.622 136.655 210.47 136.322 210.622 136.019C210.773 135.716 211.107 135.564 211.41 135.716C211.561 135.776 214.956 137.322 216.411 138.807C218.684 141.141 220.321 144.323 219.927 145.657C219.775 146.203 219.199 146.566 218.351 146.718C218.078 146.778 217.744 146.809 217.381 146.809L217.35 146.778Z" fill="#7481BA"/>
<path d="M217.108 140.565C214.744 141.353 213.38 143.566 212.804 144.687C215.623 146.657 219.017 146.415 219.29 145.475C219.502 144.748 218.684 142.656 217.108 140.595V140.565Z" fill="#3F3E77"/>
<path d="M217.35 146.778C215.895 146.778 214.047 146.293 212.471 145.172C212.198 144.99 212.137 144.596 212.319 144.323C212.501 144.051 212.895 143.99 213.168 144.172C215.744 145.96 218.441 145.627 218.745 145.263C218.835 144.899 218.32 143.111 216.653 140.929C216.441 140.656 216.502 140.292 216.774 140.08C217.047 139.868 217.411 139.929 217.623 140.201C219.017 142.02 220.26 144.475 219.927 145.627C219.836 145.93 219.593 146.324 218.896 146.566C218.502 146.718 217.987 146.778 217.411 146.778H217.35Z" fill="#191935"/>
<path d="M160.672 137.473C144.73 132.018 140.941 143.869 140.941 143.869C137.425 180.391 157.702 193.333 181.404 196.394C196.043 198.273 202.742 151.84 160.672 137.473Z" fill="#5B56A4"/>
<path d="M182.252 197.061C181.949 197.061 181.646 197.061 181.313 197C167.825 195.243 157.459 190.575 150.519 183.089C142.123 174.056 138.698 160.842 140.335 143.808C140.335 143.778 140.335 143.717 140.335 143.687C140.395 143.505 141.82 139.201 146.457 136.867C150.306 134.927 155.126 134.958 160.854 136.867C176.948 142.353 184.829 152.143 188.587 159.357C192.861 167.57 194.285 177.33 192.406 185.453C190.739 192.606 186.799 197 182.222 197L182.252 197.061ZM141.517 144.02C139.941 160.63 143.244 173.511 151.398 182.27C158.126 189.544 168.25 194.091 181.464 195.788C185.768 196.334 189.617 192.181 191.224 185.21C193.042 177.36 191.648 167.934 187.496 159.963C183.828 152.931 176.16 143.414 160.46 138.049C155.095 136.2 150.579 136.17 147.033 137.958C143.123 139.928 141.699 143.535 141.517 144.02Z" fill="#191935"/>
<path d="M166.855 206.063L169.25 214.277C169.644 215.61 170.705 216.398 172.038 216.792C176.069 218.005 184.98 218.035 185.041 216.489V211.973C189.648 214.216 192.618 218.975 202.893 220.217C211.198 221.187 217.472 218.187 217.835 215.58C218.199 212.973 217.835 212.913 217.835 212.913L166.886 206.033L166.855 206.063Z" fill="#232020"/>
<path d="M206.015 221.036C204.984 221.036 203.893 220.975 202.802 220.854C195.406 219.975 191.769 217.338 188.557 215.004C187.556 214.277 186.617 213.61 185.647 213.034V216.55C185.647 216.823 185.526 217.156 185.101 217.459C183.313 218.732 175.554 218.52 171.856 217.429C170.22 216.944 169.068 215.883 168.674 214.489L166.279 206.275C166.219 206.063 166.279 205.851 166.401 205.699C166.522 205.548 166.734 205.457 166.946 205.487L217.896 212.367C218.169 212.398 218.381 212.61 218.411 212.883C218.411 212.943 218.623 214.186 218.411 215.732C218.047 218.49 212.804 221.066 206.015 221.066V221.036ZM185.01 211.397C185.101 211.397 185.192 211.397 185.283 211.458C186.708 212.155 187.95 213.064 189.254 214.004C192.345 216.247 195.861 218.793 202.923 219.611C211.288 220.611 216.926 217.52 217.199 215.519C217.32 214.671 217.29 213.913 217.259 213.458L167.704 206.79L169.856 214.125C170.22 215.398 171.341 215.974 172.22 216.247C176.281 217.459 183.647 217.277 184.435 216.459V212.034C184.435 211.822 184.556 211.64 184.707 211.519C184.798 211.458 184.92 211.428 185.041 211.428L185.01 211.397Z" fill="black"/>
<path d="M187.011 156.204C189.466 162.054 188.405 168.116 190.86 175.36C190.86 175.36 184.435 162.509 172.16 159.114C159.884 155.719 150.276 159.478 137.789 157.932C136.546 178.3 151.064 188.666 155.793 193.333C157.884 195.424 167.462 200.425 177.524 201.123C190.466 202.002 204.287 198.243 204.287 198.243C200.438 192.181 195.285 168.237 187.011 156.204Z" fill="#EAD8C5"/>
<path d="M181.586 201.88C180.222 201.88 178.858 201.85 177.494 201.759C166.856 201.032 157.369 195.758 155.368 193.788C154.823 193.242 154.156 192.636 153.368 191.939C147.337 186.453 136.062 176.209 137.213 157.932C137.213 157.781 137.304 157.599 137.425 157.508C137.547 157.387 137.728 157.356 137.88 157.387C143.154 158.023 147.973 157.72 152.641 157.387C159.127 156.962 165.219 156.568 172.342 158.538C180.707 160.842 186.344 167.328 189.224 171.48C188.799 169.419 188.587 167.449 188.375 165.54C188.011 162.357 187.678 159.357 186.466 156.447C186.344 156.174 186.466 155.841 186.738 155.689C187.011 155.538 187.345 155.629 187.526 155.871C192.588 163.236 196.468 174.936 199.589 184.331C201.59 190.393 203.348 195.606 204.833 197.94C204.924 198.092 204.954 198.304 204.894 198.486C204.833 198.668 204.681 198.789 204.5 198.849C204.378 198.88 193.225 201.88 181.616 201.88H181.586ZM138.365 158.629C137.577 175.936 148.337 185.726 154.186 191.03C154.974 191.757 155.672 192.363 156.217 192.939C158.066 194.758 167.401 199.85 177.585 200.547C188.557 201.305 200.317 198.637 203.378 197.88C201.923 195.182 200.287 190.302 198.438 184.725C195.861 176.936 192.74 167.57 188.89 160.478C189.193 162.084 189.375 163.721 189.557 165.418C189.89 168.51 190.254 171.692 191.436 175.178C191.527 175.481 191.376 175.814 191.103 175.936C190.8 176.057 190.466 175.936 190.315 175.633C190.254 175.511 183.859 162.994 172.008 159.72C165.067 157.811 159.066 158.205 152.701 158.599C148.185 158.902 143.487 159.205 138.365 158.629Z" fill="#BF916F"/>
<path d="M181.95 186.665C181.859 186.665 181.768 186.665 181.677 186.604C181.555 186.544 178.403 185.028 174.766 182.482C169.826 179.027 166.461 175.511 164.764 172.026C163.703 169.813 163.643 167.692 164.552 166.237C165.31 165.024 166.674 164.358 168.371 164.358C172.008 164.358 176.827 166.934 178.131 170.753C178.585 172.086 178.555 173.329 178.009 174.39C177.1 176.208 175.039 176.845 174.948 176.875C174.615 176.966 174.281 176.784 174.19 176.481C174.099 176.178 174.281 175.814 174.584 175.723C174.584 175.723 176.251 175.208 176.918 173.844C177.312 173.087 177.312 172.177 176.948 171.147C175.797 167.843 171.493 165.57 168.341 165.57C165.189 165.57 166.098 166.025 165.552 166.873C164.855 167.995 164.946 169.692 165.825 171.511C169.614 179.421 182.04 185.453 182.162 185.513C182.465 185.665 182.586 186.029 182.434 186.332C182.343 186.544 182.101 186.665 181.889 186.665H181.95Z" fill="white"/>
<path d="M157.581 186.665C157.399 186.665 157.248 186.605 157.126 186.453C156.914 186.211 156.914 185.816 157.187 185.604C157.46 185.362 163.643 179.694 159.945 172.026C158.248 168.48 154.186 165.57 150.913 165.57C147.64 165.57 148.034 166.146 147.488 167.116C146.973 168.025 147.155 169.298 147.973 170.662C150.307 174.451 155.429 175.724 155.49 175.724C155.823 175.814 156.005 176.118 155.944 176.451C155.853 176.784 155.55 176.966 155.217 176.906C154.974 176.845 149.549 175.511 146.942 171.298C145.882 169.541 145.7 167.873 146.427 166.54C147.185 165.176 148.822 164.388 150.913 164.388C154.611 164.388 159.157 167.601 161.036 171.541C165.128 180.058 158.066 186.483 157.975 186.544C157.854 186.635 157.702 186.695 157.581 186.695V186.665Z" fill="#A36134"/>
<path d="M166.856 206.063C189.8 206.063 189.77 215.823 202.772 217.186C215.775 218.55 218.048 215.58 217.805 212.943C217.714 211.882 214.229 210.609 214.229 210.609C211.471 208.548 207.834 204.608 204.288 198.243C200.741 191.878 203.348 196.546 202.863 195.364C199.741 193.333 194.073 185.877 194.073 185.877C193.164 193.515 189.072 197.91 181.95 198.455C168.887 199.486 156.914 194.849 146.458 184.028C150.095 189.969 154.247 193.03 157.339 196.576C159.551 199.122 159.188 202.396 166.856 206.063Z" fill="#C48357"/>
<path d="M205.803 217.944C204.772 217.944 203.742 217.884 202.711 217.793C197.286 217.217 194.043 215.216 190.618 213.095C185.768 210.094 180.282 206.699 166.856 206.699C153.429 206.699 166.674 206.699 166.583 206.639C160.854 203.881 159.399 201.274 158.248 199.152C157.823 198.395 157.429 197.637 156.854 197.001C155.884 195.879 154.823 194.818 153.701 193.697C151.246 191.242 148.458 188.484 145.942 184.362C145.791 184.089 145.851 183.755 146.094 183.574C146.336 183.392 146.7 183.422 146.912 183.634C157.035 194.091 168.826 198.88 181.919 197.88C188.708 197.334 192.588 193.303 193.497 185.847C193.497 185.604 193.709 185.392 193.952 185.332C194.194 185.271 194.437 185.332 194.588 185.544C194.649 185.604 200.226 192.969 203.226 194.909C203.317 194.97 203.408 195.061 203.469 195.182C203.924 196.273 204.409 197.182 204.863 198.001C208.894 205.214 212.653 208.67 214.562 210.124C215.774 210.579 218.351 211.67 218.442 212.943C218.472 213.428 218.351 214.125 217.563 214.913C215.623 216.792 210.834 218.005 205.803 218.005V217.944ZM166.977 205.457C180.646 205.457 186.253 208.973 191.224 212.064C194.679 214.216 197.65 216.035 202.802 216.58C209.076 217.247 214.865 215.732 216.684 213.974C217.047 213.61 217.199 213.277 217.199 212.973C217.108 212.61 215.593 211.731 214.016 211.155C213.956 211.155 213.895 211.094 213.865 211.064C211.895 209.609 207.955 206.033 203.772 198.516C203.317 197.698 202.832 196.819 202.378 195.728C199.923 194.03 196.164 189.454 194.467 187.332C193.194 194.455 188.89 198.486 182.01 199.031C170.523 199.941 160.036 196.485 150.731 188.817C152.034 190.302 153.338 191.606 154.55 192.818C155.702 193.97 156.793 195.03 157.763 196.182C158.399 196.94 158.824 197.728 159.278 198.546C160.4 200.607 161.673 202.911 166.946 205.457H166.977Z" fill="#A36134"/>
<path d="M85.3845 214.125C84.7177 215.822 83.4447 219.005 85.8998 220.581C88.082 221.975 92.9618 221.854 102.994 221.884C111.359 221.884 119.664 222.43 121.331 220.793C122.998 219.156 123.119 216.368 121.786 213.61L85.4148 214.125H85.3845Z" fill="#232020"/>
<path d="M112.36 222.581C110.965 222.581 109.42 222.581 107.753 222.551C106.207 222.551 104.57 222.521 102.964 222.49C102.085 222.49 101.236 222.49 100.418 222.49C91.9616 222.49 87.6881 222.49 85.5361 221.096C82.6264 219.247 84.1419 215.519 84.7784 213.913C84.8693 213.701 85.0815 213.549 85.324 213.519L121.695 213.004C121.937 213.004 122.15 213.125 122.24 213.337C123.695 216.307 123.483 219.49 121.665 221.218C120.543 222.309 117.33 222.551 112.299 222.551L112.36 222.581ZM85.7786 214.731C84.9603 216.883 84.5056 218.975 86.2029 220.066C88.0518 221.248 92.4466 221.248 100.418 221.278C101.236 221.278 102.085 221.278 102.964 221.278C104.57 221.278 106.207 221.278 107.753 221.339C113.633 221.43 119.725 221.521 120.877 220.369C122.24 219.066 122.422 216.611 121.361 214.246L85.7786 214.731Z" fill="black"/>
<path d="M26.0087 162.509C-5.8159 131.503 8.1263 88.5848 34.3437 86.9178C64.3194 85.0083 72.1089 141.353 99.5689 142.535L94.2951 186.029C87.5968 152.84 65.3196 141.959 59.47 143.05C59.47 143.05 57.9848 148.627 59.7731 162.175C59.7731 162.175 54.0446 160.266 49.5589 152.113C49.5589 152.113 47.9525 155.568 47.9828 158.326C47.9828 158.326 38.6779 158.387 28.9487 155.538C28.9487 155.538 26.8876 158.781 26.039 162.478L26.0087 162.509Z" fill="#8B8BD1"/>
<path d="M68.1081 113.893C60.5005 104.527 52.802 87.918 36.7987 87.2209C30.252 86.9481 16.1582 89.585 9.27808 109.983C16.1582 89.6154 30.1308 88.3727 36.6775 88.6455C52.6807 89.3426 60.5005 104.527 68.1081 113.893Z" fill="#DCE5EA"/>
<path d="M68.1083 114.499C67.9265 114.499 67.7446 114.408 67.6234 114.287C66.2595 112.62 64.9259 110.801 63.5013 108.862C56.9546 99.9507 49.4985 89.8275 36.6474 89.2819C23.9479 88.7364 14.6733 95.95 9.85418 110.165C9.73295 110.468 9.39955 110.65 9.09645 110.559C8.85398 110.468 8.67212 110.226 8.67212 109.983C8.67212 109.922 8.67211 109.862 8.70242 109.801C16.2494 87.524 32.1314 86.4632 36.799 86.6451C49.8319 87.1906 57.591 98.2534 63.8347 107.134C65.4714 109.468 67.0172 111.65 68.5326 113.529C68.6236 113.65 68.6539 113.772 68.6539 113.923C68.6539 114.105 68.5629 114.287 68.4417 114.408C68.3205 114.499 68.1992 114.529 68.0477 114.529L68.1083 114.499ZM35.3138 88.0393C35.7685 88.0393 36.2534 88.0393 36.7081 88.0393C39.8905 88.1605 42.7396 88.8576 45.3159 89.9487C42.7699 88.7364 39.9208 87.9786 36.7687 87.8271C35.5866 87.7665 33.6772 87.8271 31.3737 88.2817C32.6466 88.0999 33.9499 88.0393 35.2835 88.0393H35.3138Z" fill="#DCE5EA"/>
<path d="M81.1717 132.169C79.8381 138.716 79.5047 143.414 79.5047 143.414C75.0795 139.444 61.9254 133.139 61.9254 133.139C60.0765 142.141 46.7102 134.139 46.7102 134.139C48.7409 137.564 50.9838 142.05 50.9838 142.05C50.9838 142.05 41.5576 141.474 28.5853 130.411C28.5853 130.411 29.5249 139.838 36.6475 147.051C36.6475 147.051 15.1281 141.868 8.551 114.56C4.70174 132.048 12.9458 149.355 26.0394 162.539C26.9183 158.841 28.9491 155.598 28.9491 155.598C38.6783 158.447 47.9832 158.387 47.9832 158.387C47.9832 155.598 49.5593 152.173 49.5593 152.173C54.045 160.327 59.7734 162.236 59.7734 162.236C57.9852 148.718 59.4703 143.111 59.4703 143.111C65.32 142.05 87.5972 152.901 94.2955 186.089L99.5693 142.596C95.3867 143.596 85.1725 138.11 81.1717 132.2V132.169Z" fill="#49488A"/>
<path d="M94.2651 186.665C93.9923 186.665 93.7195 186.453 93.6589 186.18C90.0824 168.358 82.1414 157.841 76.1099 152.143C69.3813 145.778 62.8042 143.384 59.9248 143.596C59.6521 145.081 58.8337 150.809 60.3189 162.084C60.3189 162.297 60.2582 162.509 60.1067 162.63C59.9551 162.751 59.7127 162.812 59.5308 162.751C59.2883 162.66 54.0146 160.842 49.6197 153.477C49.1651 154.689 48.5286 156.659 48.5589 158.326C48.5589 158.659 48.2861 158.932 47.9527 158.932C47.8618 158.932 38.7388 158.963 29.1914 156.265C28.6458 157.235 27.2516 159.811 26.5848 162.63C26.5242 162.842 26.3726 163.024 26.1605 163.085C25.9483 163.145 25.7361 163.085 25.5543 162.933C16.9162 154.507 10.9756 144.505 8.42964 133.988C6.15645 124.683 6.61108 114.984 9.6723 106.74C11.7939 100.981 15.1583 96.0408 19.3409 92.4946C23.6751 88.7969 28.858 86.6753 34.2833 86.3116C50.2259 85.3114 59.9855 100.345 69.4722 114.893C78.3225 128.502 86.6878 141.383 99.5692 141.959C99.9026 141.959 100.175 142.262 100.145 142.596C100.115 142.929 99.8419 143.172 99.5085 143.172C86.021 142.596 77.0798 128.835 68.4417 115.56C59.1671 101.315 49.5894 86.554 34.3439 87.5239C23.9176 88.1907 15.0977 95.5255 10.7938 107.164C7.82347 115.196 7.39914 124.622 9.5814 133.715C12.0061 143.717 17.5527 153.234 25.6149 161.357C26.5848 158.053 28.2518 155.386 28.3428 155.235C28.4943 154.992 28.7671 154.901 29.0398 154.962C37.193 157.356 45.134 157.69 47.3163 157.72C47.4981 154.992 48.8923 151.991 48.953 151.84C49.0439 151.628 49.256 151.506 49.4682 151.476C49.7107 151.476 49.9228 151.597 50.0138 151.779C53.2568 157.659 57.197 160.236 58.955 161.145C57.3789 148.415 58.7428 143.081 58.8034 142.868C58.864 142.656 59.0459 142.474 59.2884 142.444C62.6527 141.838 69.9572 144.687 76.8979 151.234C83.0507 157.023 91.1432 167.752 94.8106 185.907C94.8712 186.241 94.6591 186.544 94.3257 186.635C94.2954 186.635 94.2348 186.635 94.2044 186.635L94.2651 186.665Z" fill="#191935"/>
<path d="M156.217 62.822C128.545 77.0067 98.569 114.257 94.7803 147.172C91.507 175.481 103.782 195.94 123.726 199.759C143.669 203.578 169.917 183.755 174.221 158.569C180.161 124.077 156.429 102.891 180.919 78.3706" fill="#DDDCFC"/>
<path d="M94.2954 158.265C94.9925 180.725 106.51 196.425 123.726 199.728C124.332 199.85 124.938 199.94 125.544 200.001C128.12 200.213 130.697 200.153 133.303 199.88C151.246 197.334 170.583 179.846 174.251 158.538C177.1 142.05 173.129 128.593 170.917 116.378C162.036 119.773 105.51 141.838 94.2954 158.265Z" fill="#5B56A4"/>
<path d="M98.3264 178.118C103.206 189.757 112.178 197.546 123.725 199.759C139.304 202.729 158.732 191.302 168.553 174.147C151.943 184.756 123.028 187.362 98.3568 178.148L98.3264 178.118Z" fill="#333476"/>
<path d="M94.2649 157.114C122.968 154.719 160.005 152.537 172.068 122.198C165.309 95.6165 176.372 83.3414 176.403 83.1898C147.609 109.347 120.088 116.015 94.2952 157.114H94.2649Z" fill="#8B8BD1"/>
<path d="M128.787 200.819C126.999 200.819 125.271 200.668 123.604 200.334C102.782 196.334 90.9309 174.935 94.174 147.112C95.9622 131.593 103.752 114.014 116.057 97.6169C127.635 82.2198 142.153 69.3385 155.944 62.2765C156.247 62.1249 156.611 62.2462 156.762 62.5492C156.914 62.8523 156.793 63.216 156.49 63.3676C142.881 70.3387 128.484 83.0988 117.027 98.3443C104.843 114.56 97.1443 131.927 95.3561 147.263C92.2039 174.451 103.661 195.303 123.816 199.183C132.273 200.789 142.365 198.092 151.579 191.727C163.188 183.695 171.432 171.268 173.614 158.478C175.948 144.869 173.614 133.139 171.523 122.773C168.31 106.77 165.522 92.919 180.494 77.9463C180.737 77.7038 181.101 77.7038 181.343 77.9463C181.586 78.1887 181.586 78.5525 181.343 78.7949C174.705 85.4629 171.22 92.2219 170.401 100.133C169.644 107.255 171.159 114.681 172.735 122.531C174.827 132.988 177.221 144.838 174.857 158.659C172.614 171.753 164.188 184.483 152.307 192.697C144.669 198.001 136.364 200.819 128.817 200.819H128.787Z" fill="#191935"/>
<path d="M141.244 160.508C141.244 160.508 145.154 190.272 117.179 205.608L97.3264 203.517C81.1716 185.301 96.1746 159.478 96.1746 159.478" fill="#5B56A4"/>
<path d="M117.209 206.245C117.209 206.245 117.179 206.245 117.148 206.245L97.2958 204.153C97.1443 204.153 96.9927 204.063 96.9018 203.941C84.0204 189.454 90.5672 170.238 93.9618 162.63C95.6288 158.902 95.841 158.902 96.2047 158.902C96.5684 158.902 96.629 159.023 96.72 159.205C96.8412 159.387 96.8412 159.629 96.72 159.811C96.6896 159.872 92.9616 166.328 91.2946 174.875C89.082 186.15 91.2037 195.606 97.6595 202.971L117.088 205.002C131.181 197.213 136.849 185.604 139.122 177.239C141.608 168.086 140.668 160.66 140.668 160.599L141.274 160.508L141.85 160.357C141.911 160.63 145.79 190.636 117.512 206.154C117.421 206.215 117.33 206.214 117.209 206.214V206.245Z" fill="#191935"/>
<path d="M174.069 153.962C176.736 163.539 173.493 170.056 173.493 170.056C173.493 170.056 173.22 165.115 171.462 161.509" fill="#5B56A4"/>
<path d="M173.493 170.662C173.463 170.662 173.402 170.662 173.372 170.662C173.099 170.601 172.917 170.389 172.887 170.116C172.887 170.056 172.614 165.267 170.917 161.781C170.765 161.478 170.917 161.114 171.19 160.963C171.493 160.811 171.857 160.963 172.008 161.236C172.978 163.236 173.524 165.57 173.796 167.358C173.948 166.813 174.069 166.176 174.19 165.449C174.615 162.933 174.827 158.932 173.493 154.113C173.402 153.78 173.584 153.446 173.918 153.355C174.251 153.264 174.584 153.446 174.675 153.78C177.373 163.479 174.19 170.056 174.039 170.328C173.948 170.541 173.736 170.662 173.493 170.662Z" fill="#191935"/>
<path d="M139.517 107.649C124.302 106.164 114.33 108.225 114.33 108.225C114.33 108.225 115.33 116.136 128.757 124.835L96.508 145.323C71.3514 104.497 99.933 83.0686 131.273 82.4321" fill="#DDDCFC"/>
<path d="M95.1443 95.9196C85.0513 106.407 82.6872 122.955 96.4779 145.354L99.1148 143.687L101.509 135.897C94.2956 121.561 90.1433 107.407 95.1443 95.9499V95.9196Z" fill="#9597CF"/>
<path d="M128.727 124.865C119.937 121.501 111.238 115.196 111.238 115.196C111.481 119.743 113.39 124.865 113.39 124.865C105.177 123.38 98.8722 115.954 98.8722 115.954C98.8722 115.954 99.3874 127.562 101.509 135.897C101.509 135.897 97.9629 131.866 96.4475 128.714C96.4475 128.714 95.4473 137.807 96.4475 145.384C96.4475 145.384 102.267 155.113 110.753 161.084L124.211 150.203L128.696 124.895L128.727 124.865Z" fill="#57539F"/>
<path d="M96.4775 145.93C96.2654 145.93 96.0835 145.839 95.9623 145.627C88.7487 133.897 81.8079 116.803 89.8702 102.042C93.2648 95.8287 99.0841 90.6762 106.692 87.13C113.814 83.8263 122.301 81.9774 131.242 81.7956C131.576 81.7956 131.848 82.0684 131.848 82.4018C131.848 82.7352 131.576 83.008 131.242 83.008C122.452 83.1898 114.148 84.978 107.177 88.2211C99.7812 91.646 94.174 96.6167 90.9006 102.618C84.7479 113.893 86.8392 128.532 96.9625 144.96C97.1443 145.233 97.0534 145.627 96.7503 145.808C96.6594 145.869 96.5381 145.899 96.4472 145.899L96.4775 145.93Z" fill="#7481BA"/>
<path d="M96.4777 145.93C96.2656 145.93 96.0837 145.839 95.9625 145.627C89.3854 134.927 86.112 125.016 86.2636 116.136C86.3848 108.134 89.2339 101.163 94.7198 95.465C94.9623 95.2225 95.326 95.2225 95.5685 95.465C95.8109 95.7075 95.8109 96.0712 95.5685 96.3136C90.2947 101.8 87.5669 108.468 87.4456 116.166C87.3244 124.804 90.5068 134.533 96.9627 145.02C97.1445 145.293 97.0536 145.687 96.7505 145.869C96.6596 145.93 96.5384 145.96 96.4474 145.96L96.4777 145.93Z" fill="#191935"/>
<path d="M162.794 71.3086C152.792 73.9455 138.456 77.6735 125.483 78.1281C121.513 79.4921 115.057 83.4019 115.057 83.4019C122.998 81.4622 131.091 83.2807 136.668 83.2807C143.245 83.2807 148.731 82.1593 156.156 80.7651C163.582 79.3708 174.008 80.7651 174.008 80.7651C174.978 80.068 176.009 79.4617 177.07 78.8859L166.461 69.3385L162.794 71.3692V71.3086Z" fill="#49488A"/>
<path d="M115.057 84.0081C114.815 84.0081 114.602 83.8566 114.511 83.6444C114.39 83.3717 114.511 83.0383 114.754 82.8867C115.027 82.7352 121.301 78.9465 125.301 77.5523C125.605 77.4311 125.968 77.6129 126.059 77.916C126.18 78.2191 125.999 78.5828 125.696 78.6737C123.544 79.4012 120.604 80.9469 118.421 82.1593C123.21 81.5531 127.908 81.9774 131.818 82.3108C133.576 82.4624 135.243 82.6139 136.698 82.6442C142.396 82.7958 147.488 82.2502 147.548 82.2502C147.882 82.2199 148.185 82.4624 148.215 82.7958C148.246 83.1292 148.003 83.4323 147.67 83.4626C147.609 83.4626 142.426 84.0081 136.667 83.8566C135.182 83.8263 133.485 83.6747 131.727 83.5232C126.938 83.0989 120.967 82.5836 115.209 83.9778C115.148 83.9778 115.118 83.9778 115.057 83.9778V84.0081Z" fill="#191935"/>
<path d="M125.483 78.1282C141.123 67.9746 157.944 62.2159 157.944 62.2159L174.251 73.6121C132.848 83.6142 125.483 78.1282 125.483 78.1282Z" fill="#8588D1"/>
<path d="M125.483 78.7343C125.271 78.7343 125.089 78.6434 124.968 78.4616C124.786 78.1888 124.877 77.7948 125.15 77.6129C140.698 67.5503 157.581 61.7006 157.732 61.64C158.035 61.5188 158.399 61.7006 158.49 62.0037C158.611 62.3068 158.429 62.6705 158.126 62.7615C157.944 62.8221 141.214 68.6111 125.786 78.6131C125.695 78.6738 125.574 78.704 125.453 78.704L125.483 78.7343Z" fill="#191935"/>
<path opacity="0.2" d="M200.438 49.1829C197.043 49.4557 194.891 50.9711 194.891 50.9711L195.073 66.2772C198.71 67.4593 205.924 64.0344 205.924 64.0344L205.318 53.4565C205.166 50.9105 202.984 49.001 200.438 49.1829Z" fill="#DEF5FF"/>
<path opacity="0.2" d="M200.438 49.1829C197.043 49.4557 194.891 50.9711 194.891 50.9711L195.073 66.2772C198.71 67.4593 205.924 64.0344 205.924 64.0344L205.318 53.4565C205.166 50.9105 202.984 49.001 200.438 49.1829Z" fill="#DEF5FF"/>
<path d="M196.861 67.126C196.134 67.126 195.467 67.0351 194.891 66.8532C194.649 66.7623 194.467 66.5501 194.467 66.2773L194.285 50.9712C194.285 50.759 194.376 50.5772 194.528 50.456C194.619 50.3954 196.861 48.8496 200.377 48.5768C201.771 48.4555 203.105 48.9102 204.166 49.8195C205.227 50.7288 205.833 52.0017 205.924 53.3959L206.53 63.9738C206.53 64.2163 206.409 64.4588 206.197 64.5497C205.954 64.6709 200.802 67.0957 196.892 67.0957L196.861 67.126ZM195.679 65.8227C198.68 66.4592 203.863 64.2769 205.287 63.6707L204.711 53.5172C204.651 52.4564 204.166 51.4865 203.378 50.7894C202.59 50.0923 201.559 49.7589 200.499 49.8195C197.983 50.0013 196.164 50.9409 195.528 51.3349L195.71 65.853L195.679 65.8227Z" fill="#191935"/>
<path d="M174.251 65.3074C173.766 65.3074 173.432 65.2771 173.402 65.2771C173.159 65.2468 172.978 65.0043 173.008 64.7618C173.038 64.5194 173.281 64.3375 173.523 64.3679C173.553 64.3679 176.766 64.7619 178.948 62.7615C179.13 62.5796 179.433 62.6099 179.585 62.7615C179.767 62.9433 179.737 63.2464 179.585 63.3979C177.827 65.0346 175.524 65.2771 174.281 65.2771L174.251 65.3074Z" fill="#191935"/>
<path d="M156.641 63.5797C156.641 63.5797 160.915 54.0021 166.976 51.0015C172.584 48.2433 179.979 48.6677 187.95 50.365C215.623 56.2753 241.204 93.7373 244.992 109.104C247.084 117.591 240.719 115.833 236.415 109.922C211.41 75.7034 190.527 89.9184 167.067 76.0671" fill="#8588D1"/>
<path d="M234.081 102.557L232.05 104.315C220.805 88.706 200.286 84.0687 189.83 83.705C211.076 81.3106 226.291 88.7666 234.081 102.557Z" fill="#49488A"/>
<path d="M242.265 101.193C237.445 98.5868 232.263 100.224 229.292 101.102C229.292 101.102 234.899 107.77 237.173 110.741C242.871 118.197 246.235 114.135 245.599 110.892C245.083 108.286 243.386 104.952 242.295 101.224L242.265 101.193Z" fill="#49488A"/>
<path opacity="0.5" d="M217.865 68.1565C208.955 59.579 198.589 52.6078 187.95 50.365C179.979 48.6677 172.584 48.2433 166.976 51.0015C163.885 52.5169 161.248 55.76 159.429 58.5787C177.645 58.5181 195.558 66.6713 217.865 68.1565Z" fill="#49488A"/>
<path d="M219.351 69.7931C234.566 85.1902 244.174 104.558 245.144 110.347C245.144 110.347 245.508 114.226 243.75 114.681C243.598 99.7689 219.351 69.7931 219.351 69.7931Z" fill="#DCE5EA"/>
<path d="M243.75 115.287C243.629 115.287 243.477 115.257 243.386 115.166C243.235 115.045 243.144 114.863 243.144 114.681C243.022 100.163 219.108 70.4599 218.896 70.1568C218.684 69.9144 218.714 69.5506 218.957 69.3385C219.199 69.1263 219.563 69.1263 219.806 69.3385C234.869 84.5537 244.72 104.042 245.78 110.225C245.78 110.225 245.78 110.256 245.78 110.286C245.811 110.741 246.114 114.711 243.932 115.257C243.871 115.257 243.841 115.257 243.78 115.257L243.75 115.287Z" fill="#DCE5EA"/>
<path d="M243.295 115.499C241.173 115.499 238.294 113.499 235.93 110.256C228.898 100.618 221.533 94.0101 213.44 90.07C206.227 86.5541 199.044 85.4327 192.103 84.3415C183.859 83.0382 175.342 81.7046 166.522 76.4309C166.249 76.249 166.128 75.8853 166.31 75.6125C166.492 75.3094 166.855 75.2185 167.128 75.4003C175.736 80.5529 184.132 81.8865 192.254 83.1595C206.348 85.3721 220.897 87.6756 236.869 109.559C239.537 113.196 242.568 114.772 243.871 114.166C244.841 113.711 245.023 111.923 244.356 109.225C241.961 99.5567 232.596 85.5236 224.928 76.5824C217.987 68.4899 203.893 54.3961 187.769 50.9712C178.524 49.0011 172.008 49.183 167.189 51.5774C161.4 54.4567 157.156 63.7616 157.126 63.8526C156.975 64.1557 156.641 64.3072 156.338 64.1557C156.035 64.0041 155.883 63.6707 156.035 63.3676C156.217 62.9736 160.49 53.5475 166.673 50.4863C171.735 48.0009 178.524 47.7584 188.041 49.7891C216.229 55.7903 241.81 93.8283 245.568 108.953C246.629 113.256 245.538 114.772 244.416 115.287C244.083 115.439 243.689 115.53 243.265 115.53L243.295 115.499Z" fill="#191935"/>
<path d="M239.779 107.346C240.325 109.013 241.325 109.892 242.052 110.68C242.446 111.135 241.81 111.771 241.234 111.074C239.961 109.528 239.779 107.346 239.779 107.346Z" fill="black"/>
<path d="M241.779 112.014C241.416 112.014 241.052 111.832 240.779 111.468C239.415 109.801 239.203 107.498 239.203 107.407C239.203 107.104 239.385 106.831 239.688 106.77C239.991 106.71 240.294 106.892 240.385 107.164C240.809 108.468 241.537 109.225 242.204 109.922C242.325 110.044 242.446 110.165 242.537 110.286C242.81 110.589 242.901 110.953 242.78 111.317C242.658 111.65 242.355 111.923 241.992 111.983C241.931 111.983 241.87 111.983 241.81 111.983L241.779 112.014Z" fill="black"/>
<path d="M171.008 63.1251C180.525 57.5482 187.435 64.3678 187.435 64.3678C176.766 65.2165 171.008 63.1251 171.008 63.1251Z" fill="white"/>
<path d="M175.796 61.0642C177.979 60.3974 179.949 60.8217 181.646 61.1854C181.888 61.5188 182.07 61.8825 182.192 62.3068C182.404 63.0949 182.313 63.9132 181.979 64.58C181.979 64.58 178.524 64.8225 175.463 64.3375C175.251 63.4586 175.402 61.8219 175.827 61.0642H175.796Z" fill="#191935"/>
<path d="M187.768 53.5171C187.708 53.5171 187.647 53.5171 187.587 53.5171C187.253 53.4262 187.071 53.0928 187.192 52.7594C187.314 52.3351 188.011 50.1528 188.647 49.486C189.375 48.7283 192.527 48.1221 193.315 48.4555C194.194 48.8192 195.224 50.365 195.437 50.6681C195.618 50.9409 195.528 51.3349 195.255 51.5167C194.982 51.6986 194.588 51.6077 194.406 51.3349C193.921 50.6075 193.194 49.7285 192.86 49.577C192.254 49.4254 189.829 50.0013 189.526 50.3347C189.254 50.6378 188.708 52.0017 188.375 53.1231C188.284 53.3959 188.041 53.5474 187.799 53.5474L187.768 53.5171Z" fill="#191935"/>
<path d="M183.344 59.094C183.162 59.094 182.98 59.0334 182.828 58.9425C178.797 56.154 174.615 58.0635 174.433 58.1544C173.978 58.3666 173.433 58.1544 173.22 57.7301C173.008 57.2755 173.22 56.7299 173.645 56.5177C173.857 56.4268 178.949 54.0324 183.859 57.4573C184.283 57.7301 184.374 58.306 184.101 58.7303C183.92 58.9728 183.647 59.1243 183.344 59.1243V59.094Z" fill="#191935"/>
<path d="M164.188 54.0627C164.188 54.0627 154.762 54.2749 153.186 55.6085C152.701 56.0328 152.246 59.7911 153.459 62.2159C154.732 64.7618 157.732 65.9742 158.551 65.6711C159.945 65.1862 162.006 62.7008 162.006 62.7008" fill="#D2D2FB"/>
<path d="M154.55 56.7299C154.277 56.7299 154.035 56.548 153.974 56.2753C153.883 55.9419 154.065 55.6085 154.398 55.5175C154.55 55.4872 157.823 54.6083 163.461 54.2749C163.794 54.2749 164.067 54.5174 164.097 54.8508C164.128 55.1842 163.855 55.4569 163.521 55.4872C158.035 55.8206 154.732 56.6996 154.701 56.6996C154.641 56.6996 154.58 56.6996 154.55 56.6996V56.7299Z" fill="white"/>
<path d="M158.278 66.3379C156.793 66.3379 154.095 64.8225 152.943 62.4887C151.701 60.0336 151.943 55.8813 152.822 55.1539C154.459 53.7597 162.582 53.5172 164.188 53.4566C164.521 53.4566 164.794 53.699 164.794 54.0628C164.794 54.4265 164.552 54.6689 164.188 54.6689C157.581 54.8205 154.216 55.5782 153.61 56.0328C153.307 56.5784 152.943 59.8215 154.004 61.9431C155.186 64.3375 157.884 65.2468 158.369 65.0952C159.399 64.7315 161.036 62.9433 161.581 62.3068C161.794 62.0643 162.188 62.0037 162.43 62.2159C162.673 62.428 162.733 62.8221 162.521 63.0645C162.309 63.3373 160.308 65.7015 158.793 66.2167C158.641 66.2773 158.49 66.2773 158.278 66.2773V66.3379Z" fill="#49488A"/>
<path d="M159.066 56.2752C155.459 56.0934 154.398 58.8818 154.398 58.8818C155.55 58.5181 156.702 58.5787 156.702 58.5787C156.065 60.1245 156.338 61.8218 156.338 61.8218C156.338 61.8218 157.308 61.1247 157.853 60.6095C157.853 60.6095 158.52 61.246 159.248 61.6703C159.248 61.6703 161.491 58.6394 161.975 57.5483C161.975 57.5483 160.612 56.3662 159.066 56.3055V56.2752Z" fill="#6A6DB8"/>
<path d="M162.824 58.1848C162.703 58.1848 162.612 58.1847 162.521 58.0938C162.491 58.0938 157.975 55.366 153.034 57.3664C152.731 57.4876 152.368 57.3664 152.246 57.033C152.125 56.7299 152.246 56.3662 152.58 56.245C158.096 54.0324 162.946 56.9421 163.158 57.0633C163.43 57.2452 163.521 57.6089 163.37 57.912C163.249 58.0938 163.067 58.2151 162.855 58.2151L162.824 58.1848Z" fill="#49488A"/>
<path d="M185.223 63.0039C185.132 63.0039 185.01 63.0039 184.92 62.913C182.404 61.4581 178.373 60.1548 173.432 62.1856C173.129 62.3068 172.766 62.1856 172.644 61.8522C172.523 61.5491 172.644 61.1854 172.978 61.0641C178.373 58.8516 182.798 60.2761 185.526 61.8522C185.829 62.034 185.92 62.3977 185.738 62.6705C185.617 62.8524 185.435 62.9736 185.223 62.9736V63.0039Z" fill="#191935"/>
<path d="M182.495 65.5802C178.615 65.5802 175.675 65.1862 173.887 64.8528C173.554 64.7922 173.342 64.4891 173.402 64.1557C173.463 63.8223 173.796 63.6101 174.099 63.6708C175.888 64.0042 178.858 64.3982 182.828 64.3679C183.162 64.3679 183.435 64.6407 183.435 64.9741C183.435 65.3075 183.162 65.5802 182.828 65.5802C182.707 65.5802 182.616 65.5802 182.495 65.5802Z" fill="#191935"/>
<path d="M176.221 62.6099C176.13 62.034 178.373 61.5794 178.494 62.2159C178.615 62.8524 176.312 63.2464 176.221 62.6099Z" fill="white"/>
<path d="M192.618 84.4325C192.588 84.4325 192.527 84.4325 192.497 84.4325C192.406 84.4325 184.071 82.4927 176.827 77.8251C176.554 77.6433 176.463 77.2796 176.645 76.9765C176.827 76.7037 177.191 76.6128 177.494 76.7946C184.556 81.341 192.679 83.2201 192.77 83.2504C193.103 83.3111 193.315 83.6445 193.224 83.9779C193.164 84.2507 192.921 84.4628 192.648 84.4628L192.618 84.4325Z" fill="#191935"/>
<path opacity="0.2" d="M187.769 52.9109C182.525 51.2742 175.797 52.6079 172.038 54.2445C170.371 54.972 169.31 56.639 169.341 58.4575L169.432 66.9137C169.462 69.3991 171.493 71.3995 173.978 71.3692C178.827 71.3086 183.222 70.5205 185.95 69.1263C187.557 68.308 188.526 66.6107 188.405 64.8224L187.799 52.8806L187.769 52.9109Z" fill="#DEF5FF"/>
<path d="M173.857 71.9754C172.523 71.9754 171.28 71.4602 170.311 70.5206C169.341 69.5507 168.795 68.2777 168.765 66.9138L168.674 58.4576C168.644 56.3966 169.856 54.5174 171.735 53.6687C175.857 51.8805 182.646 50.6681 187.89 52.3048C188.132 52.3654 188.314 52.6079 188.314 52.8504L188.92 64.7921C189.042 66.8229 187.95 68.7324 186.132 69.6719C183.374 71.0662 179.04 71.8845 173.887 71.9754C173.887 71.9754 173.826 71.9754 173.796 71.9754H173.857ZM182.404 52.7897C178.767 52.7897 174.948 53.6384 172.281 54.8205C170.826 55.457 169.917 56.8815 169.947 58.4576L170.038 66.9138C170.038 67.9443 170.462 68.9445 171.22 69.6719C171.978 70.3994 172.917 70.7934 173.978 70.7934C178.858 70.7024 183.131 69.9144 185.677 68.6111C187.071 67.914 187.92 66.4289 187.829 64.8831L187.223 53.3656C185.738 52.9716 184.101 52.7897 182.434 52.7897H182.404Z" fill="#191935"/>
<path d="M192.042 56.2752C207.257 61.7915 224.352 60.1245 225.231 48.3343C225.716 41.9087 218.169 36.3622 208.227 37.7261C195.74 39.4234 188.799 48.9708 177.13 50.9105L192.042 56.2752Z" fill="#EAD8C5"/>
<path d="M208.227 59.9426C203.166 59.9426 197.498 58.9121 191.83 56.8511L176.918 51.4864C176.645 51.3955 176.494 51.1227 176.524 50.8499C176.524 50.5771 176.766 50.365 177.039 50.3043C182.586 49.3951 186.95 46.7582 191.618 44C196.528 41.06 201.62 38.0291 208.167 37.1502C213.895 36.3621 219.351 37.817 222.745 40.9994C224.958 43.0908 226.049 45.6973 225.867 48.3949C225.594 52.032 223.897 54.881 220.775 56.8814C217.653 58.9121 213.258 59.9123 208.257 59.9123L208.227 59.9426ZM179.373 51.0924L192.254 55.7297C203.014 59.6396 214.228 59.7002 220.108 55.8812C222.867 54.093 224.412 51.547 224.655 48.304C224.837 45.9701 223.867 43.6969 221.927 41.8784C218.805 38.9384 213.713 37.6048 208.348 38.3322C202.014 39.1809 197.043 42.1512 192.254 45.0306C188.284 47.3947 184.192 49.8497 179.373 51.0621V51.0924Z" fill="#BF916F"/>
<path d="M199.892 47.4856C199.892 47.4856 198.619 47.3644 196.952 44.576C196.952 44.576 195.103 48.6374 192.345 49.486C190.405 49.4557 188.102 49.2133 185.465 48.7586C181.919 48.0615 181.858 45.4246 181.858 45.4246C181.858 45.4246 179.464 47.3644 176.069 46.6673C172.886 45.8186 169.401 44.7578 165.673 43.4545C165.43 44.7881 165.188 46.2126 165.006 47.819C186.889 55.3963 199.922 55.6085 199.922 50.9712C199.922 46.3339 199.922 47.4553 199.922 47.4553L199.892 47.4856Z" fill="#C48357"/>
<path d="M192.982 54.7295C186.617 54.7295 176.645 52.5472 164.794 48.4252C164.521 48.3342 164.339 48.0615 164.4 47.7887C164.612 46.2126 164.824 44.7578 165.097 43.3939C165.128 43.212 165.249 43.0605 165.4 42.9695C165.552 42.8786 165.734 42.8483 165.916 42.9089C169.522 44.1516 173.008 45.2124 176.251 46.0914C179.312 46.6976 181.494 44.97 181.525 44.97C181.707 44.8184 181.949 44.7881 182.161 44.879C182.373 44.9699 182.495 45.1821 182.525 45.4246C182.525 45.5155 182.646 47.6068 185.647 48.1827C188.162 48.607 190.405 48.8495 192.315 48.8798C194.709 48.0311 196.437 44.3638 196.437 44.3031C196.528 44.091 196.74 43.9697 196.952 43.9394C197.164 43.9394 197.376 44.0304 197.498 44.2425C198.922 46.637 200.013 46.8491 200.013 46.8491C200.316 46.8794 200.529 47.1522 200.529 47.4553V50.9711C200.529 51.941 200.074 52.7594 199.225 53.3656C197.983 54.2445 195.861 54.6992 193.012 54.6992L192.982 54.7295ZM165.643 47.425C174.038 50.3044 181.616 52.2744 187.526 53.0625C194.83 54.0627 197.528 53.0625 198.468 52.3957C199.013 52.032 199.256 51.547 199.256 51.0014V47.9099C198.74 47.6675 197.922 47.1219 196.982 45.758C196.225 47.0916 194.649 49.3951 192.527 50.0619C192.466 50.0619 192.406 50.0619 192.315 50.0619C190.314 50.0316 187.981 49.7588 185.344 49.3344C182.919 48.8495 181.828 47.4856 181.404 46.3642C180.373 46.94 178.373 47.7281 175.887 47.2128C175.887 47.2128 175.887 47.2128 175.857 47.2128C172.765 46.3945 169.492 45.3943 166.097 44.2425C165.916 45.2427 165.764 46.2732 165.612 47.3947L165.643 47.425Z" fill="#A36134"/>
<path d="M201.377 48.6677C201.044 48.6677 200.771 48.3949 200.771 48.0615C200.771 46.5461 198.468 46.2733 198.437 46.2733C198.104 46.243 197.861 45.9399 197.892 45.6065C197.922 45.2731 198.225 45.0306 198.559 45.0609C199.741 45.1821 201.983 45.9702 201.983 48.0615C201.983 50.1528 201.711 48.6677 201.377 48.6677Z" fill="#844A23"/>
<path d="M164.976 47.8494C167.249 30.5126 171.856 28.8759 178.827 31.3612C180.131 29.5427 194.8 30.361 197.68 34.9983C200.559 39.6356 199.892 46.6067 199.892 51.0015C199.892 55.3963 186.89 55.4267 164.976 47.8494Z" fill="#EAD8C5"/>
<path d="M192.982 54.7295C186.617 54.7295 176.645 52.5473 164.794 48.4252C164.521 48.3343 164.339 48.0615 164.4 47.7887C165.673 38.0292 167.704 32.7857 170.977 30.7853C173.463 29.2699 176.372 29.876 178.706 30.6944C179.858 29.876 182.616 29.8457 184.283 29.876C187.011 29.967 189.92 30.4216 192.285 31.1187C195.285 31.9977 197.255 33.2101 198.195 34.6952C200.498 38.4535 200.498 45.9399 200.498 50.4256V51.0318C200.498 52.0017 200.044 52.82 199.195 53.4262C197.952 54.3052 195.831 54.7598 192.982 54.7598V54.7295ZM165.643 47.425C174.038 50.3044 181.616 52.2745 187.526 53.0625C194.83 54.0627 197.528 53.0625 198.468 52.3957C199.013 52.032 199.256 51.5471 199.256 51.0015V50.3953C199.256 46.0308 199.256 38.7566 197.134 35.3014C195.558 32.7251 189.435 31.24 184.222 31.0581C180.919 30.9672 179.464 31.4521 179.282 31.6946C179.13 31.9068 178.827 31.9977 178.585 31.9067C175.402 30.7853 173.25 30.7247 171.553 31.7855C168.704 33.5132 166.825 38.4838 165.612 47.425H165.643Z" fill="#BF916F"/>
<path d="M194.194 51.9108C187.556 51.9108 177.16 49.6376 164.794 45.3337C164.491 45.2125 164.309 44.8791 164.431 44.576C164.552 44.2729 164.885 44.0911 165.188 44.2123C174.16 47.3039 182.222 49.4255 188.526 50.2741C194.194 51.0319 198.256 50.7894 199.953 49.577C200.529 49.183 200.771 48.6981 200.771 48.0919C200.771 47.4857 201.044 47.4857 201.377 47.4857C201.711 47.4857 201.984 47.7585 201.984 48.0919C201.984 49.0921 201.529 49.9407 200.65 50.5469C199.347 51.4865 197.134 51.9108 194.194 51.9108Z" fill="#844A23"/>
<path d="M178.827 31.3612C182.859 33.6647 188.981 35.0589 191.345 35.1498L178.827 31.3612Z" fill="#EAD8C5"/>
<path d="M191.345 35.7863C189.011 35.6651 182.737 34.3011 178.554 31.9067C178.251 31.7552 178.16 31.3612 178.342 31.0884C178.494 30.7853 178.888 30.6944 179.161 30.8762C183.161 33.1494 189.163 34.483 191.406 34.6042C191.739 34.6042 192.012 34.9073 191.981 35.2407C191.981 35.5741 191.709 35.8166 191.375 35.8166L191.345 35.7863Z" fill="#BF916F"/>
<path d="M192.042 56.2754C165.946 48.2738 147.336 60.549 140.88 51.6684C136.697 45.94 140.941 33.8163 156.095 34.665C171.644 35.544 172.038 49.9408 192.072 56.3057L192.042 56.2754Z" fill="#D3AB88"/>
<path d="M192.042 56.8815C191.982 56.8815 191.921 56.8815 191.86 56.8815C178.524 52.7897 167.34 54.0324 158.338 55.0023C149.852 55.9419 143.729 56.6087 140.365 52.032C138.243 49.1526 138.183 44.9397 140.153 41.3026C141.456 38.9384 145.578 33.4525 156.096 34.0587C164.249 34.5133 168.34 38.5747 173.038 43.2424C177.494 47.6372 182.525 52.6382 192.194 55.6994C192.497 55.7903 192.679 56.154 192.588 56.4571C192.497 56.7299 192.254 56.8815 192.012 56.8815H192.042ZM154.61 35.2104C148.367 35.2104 143.548 37.6049 141.214 41.8784C139.486 45.0609 139.547 48.8495 141.335 51.3046C144.275 55.3357 150.094 54.6689 158.187 53.7899C165.522 52.9716 174.342 52.0017 184.616 53.8505C179.1 50.9409 175.493 47.3644 172.19 44.091C167.643 39.575 163.703 35.6954 156.005 35.2407C155.52 35.2407 155.035 35.2104 154.58 35.2104H154.61Z" fill="#AA7550"/>
<path d="M110.086 178.664C125.059 168.146 134.334 170.116 142.426 164.812C141.668 189.302 119.997 206.305 120.21 208.397C120.573 211.882 122.422 212.579 121.664 214.822C121.179 216.277 117.755 218.065 113.602 217.975C109.723 217.884 105.51 215.974 103.358 215.974C98.387 215.974 95.932 217.914 91.5372 217.914C87.9001 217.914 85.2935 216.853 85.2935 214.61C85.2935 211.731 90.3854 207.094 90.7188 201.335C91.0825 195.576 86.1118 179.27 92.9314 163.782C97.993 169.328 105.873 170.298 110.056 178.633L110.086 178.664Z" fill="#EAD8C5"/>
<path d="M113.875 218.611C113.784 218.611 113.693 218.611 113.602 218.611C111.329 218.581 108.995 217.944 106.965 217.368C105.51 216.974 104.237 216.611 103.388 216.611C100.903 216.611 99.054 217.096 97.2657 217.611C95.5684 218.065 93.8105 218.55 91.6282 218.55H91.5676C87.2031 218.55 84.7178 217.126 84.7178 214.641C84.7178 213.246 85.6876 211.64 86.8091 209.73C88.2942 207.275 89.9612 204.487 90.1431 201.305C90.234 199.88 89.9915 197.758 89.6581 195.061C88.7186 187.15 87.294 175.208 92.386 163.57C92.4769 163.388 92.6284 163.236 92.8406 163.206C93.0528 163.176 93.2346 163.236 93.3862 163.388C95.326 165.54 97.6901 166.964 100.175 168.48C103.873 170.723 107.662 173.026 110.268 177.785C118.937 171.844 125.817 169.965 131.394 168.449C135.395 167.358 138.82 166.419 142.063 164.327C142.244 164.206 142.487 164.206 142.699 164.327C142.881 164.449 143.002 164.661 143.002 164.873C142.426 183.725 129.757 198.031 123.665 204.881C122.331 206.396 120.937 207.973 120.786 208.427C120.937 209.912 121.392 210.822 121.756 211.64C122.24 212.64 122.695 213.61 122.21 215.065C121.634 216.792 118.088 218.641 113.845 218.641L113.875 218.611ZM103.328 215.398H103.388C104.388 215.398 105.722 215.762 107.298 216.186C109.268 216.732 111.511 217.338 113.633 217.399C117.543 217.49 120.725 215.792 121.119 214.641C121.452 213.671 121.18 213.095 120.725 212.125C120.331 211.246 119.816 210.185 119.634 208.488C119.543 207.76 120.331 206.851 122.816 204.063C128.696 197.425 140.79 183.816 141.82 165.934C138.729 167.722 135.486 168.601 131.788 169.601C125.908 171.208 119.24 172.996 110.481 179.149C110.329 179.239 110.147 179.27 109.996 179.24C109.814 179.209 109.692 179.088 109.602 178.936C107.147 174.057 103.328 171.753 99.6298 169.51C97.4173 168.177 95.1441 166.782 93.2043 164.873C88.658 175.936 89.9915 187.302 90.9008 194.909C91.2342 197.667 91.4767 199.85 91.3858 201.395C91.1736 204.851 89.355 207.912 87.8699 210.367C86.8394 212.095 85.9301 213.58 85.9301 214.641C85.9301 217.035 89.8703 217.308 91.5676 217.338H91.5979C93.6286 217.338 95.235 216.914 96.9323 216.429C98.7812 215.914 100.691 215.398 103.328 215.398Z" fill="#BF916F"/>
<path d="M107.601 190.787C102.994 199.819 93.3864 206.881 90.4161 196.182C90.6586 198.334 90.8405 200.122 90.7798 201.365C90.4161 207.124 85.3545 211.761 85.3545 214.641C85.3545 216.883 87.9308 217.914 91.5982 217.944C95.993 217.944 98.448 216.004 103.419 216.004C105.54 216.004 109.753 217.914 113.663 218.005C117.816 218.096 121.24 216.277 121.725 214.853C122.483 212.64 120.634 211.943 120.271 208.427C120.18 207.669 122.907 205.032 126.454 200.82C118.149 206.609 106.813 204.305 107.662 190.787H107.601Z" fill="#C48357"/>
<path d="M113.845 218.611C113.754 218.611 113.693 218.611 113.602 218.611C111.329 218.581 108.995 217.944 106.965 217.368C105.51 216.974 104.237 216.611 103.388 216.611H103.328C100.873 216.611 99.0237 217.126 97.2657 217.611C95.5684 218.065 93.8105 218.55 91.6282 218.55H91.5676C87.2031 218.55 84.7178 217.126 84.7178 214.64C84.7178 213.246 85.6876 211.64 86.8091 209.73C88.2942 207.275 89.9612 204.487 90.1431 201.304C90.234 200.031 90.0219 198.183 89.7794 196.213C89.7491 195.909 89.9612 195.606 90.2643 195.546C90.5674 195.485 90.8705 195.667 90.9614 195.97C91.8101 199.031 93.2346 200.698 95.2047 200.88C98.7509 201.244 103.843 196.758 107.025 190.454C107.147 190.211 107.45 190.06 107.722 190.151C107.995 190.211 108.177 190.484 108.177 190.787C107.844 196.152 109.511 200.122 112.845 202.002C116.451 204.032 121.634 203.365 126.029 200.304C126.272 200.122 126.605 200.183 126.817 200.395C127.029 200.607 127.029 200.971 126.817 201.183C125.635 202.577 124.574 203.759 123.635 204.82C122.301 206.336 120.907 207.912 120.755 208.366C120.907 209.852 121.361 210.761 121.725 211.579C122.21 212.579 122.665 213.549 122.18 215.004C121.452 217.156 117.239 218.581 113.784 218.581L113.845 218.611ZM103.328 215.398H103.388C104.388 215.398 105.722 215.762 107.298 216.186C109.268 216.732 111.511 217.338 113.633 217.399C117.543 217.459 120.725 215.792 121.119 214.64C121.452 213.671 121.18 213.095 120.725 212.125C120.331 211.246 119.816 210.185 119.634 208.488C119.543 207.76 120.331 206.851 122.816 204.063C123.089 203.729 123.392 203.396 123.695 203.062C119.694 204.82 115.482 204.881 112.299 203.062C109.086 201.244 107.237 197.758 106.995 193.121C103.176 199.425 98.2962 202.426 95.1138 202.123C93.962 202.002 92.5678 201.456 91.3858 199.789C91.4161 200.395 91.4161 200.941 91.3858 201.395C91.1736 204.851 89.355 207.912 87.8699 210.367C86.8394 212.094 85.9301 213.58 85.9301 214.64C85.9301 215.429 86.4757 217.308 91.5676 217.338H91.5979C93.6286 217.338 95.235 216.914 96.9323 216.429C98.7812 215.913 100.691 215.398 103.328 215.398Z" fill="#A36134"/>
<path d="M118.846 194.818C118.603 194.818 118.361 194.667 118.27 194.424C118.149 194.121 118.3 193.757 118.634 193.636C118.725 193.606 127.514 190.181 130.545 183.058C131.364 181.149 131.485 179.209 130.848 177.845C130.515 177.087 129.939 176.572 129.242 176.36C127.151 175.724 124.301 177.057 123.332 180.058C122.271 183.392 124.605 185.301 124.696 185.392C124.968 185.604 124.999 185.968 124.786 186.241C124.574 186.514 124.211 186.544 123.938 186.332C123.817 186.241 120.846 183.846 122.15 179.694C123.332 175.996 126.938 174.39 129.575 175.208C130.606 175.542 131.424 176.269 131.909 177.33C132.697 178.997 132.576 181.331 131.636 183.543C128.393 191.151 119.422 194.636 119.028 194.788C118.967 194.788 118.876 194.818 118.816 194.818H118.846Z" fill="white"/>
<path d="M96.7506 194.091C96.5688 194.091 96.3869 194 96.2657 193.848C96.0535 193.606 91.4465 187.483 91.9012 179.603C92.0224 177.784 92.4771 176.087 93.2045 174.845C94.0228 173.45 95.0836 172.723 96.1747 172.814C97.0234 172.874 97.8114 173.329 98.4479 174.087C99.5088 175.36 99.9331 177.3 99.6603 179.391C99.1147 183.513 96.3263 184.695 96.2354 184.756C95.9323 184.877 95.5686 184.756 95.4473 184.422C95.3261 184.119 95.4474 183.755 95.7808 183.634C95.8717 183.604 98.0236 182.634 98.4782 179.239C98.7207 177.512 98.357 175.875 97.5387 174.875C97.1143 174.36 96.6294 174.087 96.1141 174.056C95.508 174.026 94.8108 174.541 94.235 175.511C93.5985 176.602 93.1742 178.118 93.0832 179.724C92.6286 187.15 97.1447 193.091 97.175 193.151C97.3871 193.424 97.3265 193.788 97.0537 194C96.9325 194.091 96.8113 194.121 96.69 194.121L96.7506 194.091Z" fill="white"/>
<path d="M128.727 125.471C128.605 125.471 128.484 125.441 128.393 125.38C114.906 116.621 113.754 108.68 113.723 108.346C113.693 108.043 113.875 107.74 114.178 107.679C114.542 107.589 123.15 105.74 139.547 107.134C139.88 107.134 140.123 107.467 140.092 107.801C140.092 108.134 139.759 108.377 139.426 108.346C125.605 107.164 117.239 108.346 114.996 108.771C115.512 110.68 118.058 117.287 128.999 124.38C129.272 124.562 129.363 124.925 129.181 125.228C129.06 125.41 128.878 125.501 128.666 125.501L128.727 125.471Z" fill="#7481BA"/>
<path d="M110.783 161.66C110.662 161.66 110.541 161.63 110.45 161.539C101.933 155.568 96.0228 145.748 95.9622 145.627C95.7804 145.354 95.8713 144.96 96.1744 144.808C96.4471 144.626 96.8412 144.717 96.9927 145.02C97.0533 145.111 102.842 154.719 111.147 160.539C111.42 160.721 111.48 161.115 111.299 161.387C111.177 161.569 110.996 161.63 110.814 161.63L110.783 161.66Z" fill="#191935"/>
<path d="M128.726 124.865L120.664 129.441C120.664 129.441 121.058 134.564 121.634 142.232C121.634 142.232 115.572 142.99 111.026 143.141C111.026 143.141 112.754 150.415 114.724 153.931C114.724 153.931 111.268 153.992 108.298 154.113L110.814 161.054C110.814 161.054 119.634 167.995 127.029 168.722C135.728 169.571 138.001 164.054 138.001 164.054C146.306 163.418 146.518 153.477 146.518 153.477C146.518 153.477 153.065 141.323 146.488 132.624C141.214 125.623 130.606 124.046 128.757 124.865H128.726Z" fill="#DDDCFC"/>
<path d="M128.817 169.419C128.241 169.419 127.605 169.419 126.938 169.328C119.482 168.601 110.783 161.812 110.42 161.509C110.147 161.296 110.117 160.933 110.329 160.66C110.541 160.387 110.905 160.357 111.177 160.569C111.268 160.63 119.967 167.419 127.059 168.116C135.182 168.904 137.334 164.024 137.395 163.812C137.486 163.63 137.668 163.479 137.849 163.448C141.668 162.842 144.184 160.781 145.305 157.326C146.154 154.659 145.881 152.143 145.851 152.113C145.821 151.779 146.033 151.476 146.366 151.446C146.7 151.416 147.003 151.628 147.033 151.961C147.033 152.082 148.276 162.812 138.334 164.6C137.728 165.722 135.273 169.419 128.757 169.419H128.817Z" fill="#7481BA"/>
<path d="M144.396 131.472C156.55 120.834 153.701 107.316 150.155 106.801C146.609 106.285 136.879 117.894 128.969 124.713" fill="#DDDCFC"/>
<path d="M144.396 132.078C144.215 132.078 144.063 132.018 143.942 131.866C143.73 131.624 143.76 131.23 144.002 131.018C152.944 123.198 153.307 114.287 152.125 110.256C151.64 108.649 150.852 107.528 150.094 107.437C148.033 107.134 142.487 112.59 137.607 117.409C134.849 120.106 132.03 122.925 129.393 125.198C129.151 125.41 128.757 125.38 128.545 125.138C128.333 124.895 128.363 124.501 128.605 124.289C131.212 122.046 134.031 119.258 136.758 116.56C143.517 109.892 147.791 105.891 150.246 106.225C151.519 106.407 152.64 107.74 153.277 109.922C154.55 114.226 154.217 123.713 144.79 131.957C144.669 132.048 144.548 132.109 144.396 132.109V132.078Z" fill="#7481BA"/>
<path d="M128.181 160.266C128.181 160.266 134.091 164.267 137.971 164.055L128.181 160.266Z" fill="#DDDCFC"/>
<path d="M137.637 164.661C133.637 164.661 128.09 160.933 127.848 160.751C127.575 160.569 127.484 160.175 127.696 159.902C127.878 159.629 128.272 159.538 128.545 159.751C128.605 159.781 134.334 163.63 137.941 163.418C138.274 163.418 138.547 163.66 138.577 163.994C138.607 164.327 138.335 164.6 138.001 164.63C137.88 164.63 137.759 164.63 137.637 164.63V164.661Z" fill="#7481BA"/>
<path d="M146.7 165.964C158.157 168.783 155.186 183.392 155.186 183.392C162.733 158.387 191.133 165.903 191.133 165.903C176.554 145.02 196.619 139.201 196.619 139.201C182.677 138.11 179.07 134.048 182.04 118.682C176.281 129.047 163.673 123.774 157.702 120.5C157.702 120.5 157.459 123.834 153.55 127.926C153.55 127.926 163.339 142.171 152.064 150.415C152.064 150.415 154.52 159.751 146.639 165.964H146.7Z" fill="url(#paint0_radial_884_63361)"/>
<path d="M155.186 183.998C155.126 183.998 155.096 183.998 155.035 183.998C154.732 183.907 154.52 183.604 154.58 183.301C154.58 183.27 155.277 179.724 154.611 175.875C153.762 170.874 151.064 167.752 146.67 166.6C146.336 166.51 146.154 166.176 146.245 165.873C146.336 165.54 146.67 165.358 146.973 165.449C154.641 167.419 156.035 174.541 156.096 179.239C160.703 169.146 169.189 165.752 175.888 164.721C181.858 163.782 187.253 164.539 189.769 165.024C185.526 158.508 184.223 152.779 185.92 147.991C187.557 143.384 191.497 140.838 194.073 139.595C188.011 138.868 184.586 137.443 182.586 134.776C180.495 132.018 179.979 127.896 180.979 121.319C174.342 129.047 162.521 123.865 157.429 121.046C157.126 120.894 157.035 120.531 157.187 120.227C157.338 119.924 157.702 119.833 158.005 119.985C161.006 121.622 165.522 123.683 170.008 124.107C175.251 124.592 179.131 122.682 181.525 118.379C181.677 118.106 181.98 118.015 182.253 118.106C182.525 118.197 182.707 118.5 182.646 118.803C181.131 126.653 181.404 131.199 183.556 134.018C185.586 136.655 189.496 138.049 196.68 138.595C196.983 138.595 197.195 138.837 197.225 139.14C197.225 139.443 197.074 139.716 196.801 139.777C196.74 139.777 189.315 142.02 187.072 148.354C185.405 153.052 186.95 158.841 191.618 165.54C191.77 165.752 191.77 166.025 191.618 166.237C191.466 166.449 191.224 166.54 190.951 166.479C190.891 166.479 183.829 164.63 176.009 165.873C165.613 167.51 158.763 173.45 155.732 183.574C155.641 183.846 155.399 183.998 155.156 183.998H155.186Z" fill="#FFA41F"/>
<path d="M144.396 131.472C144.396 131.472 152.155 131.199 160.642 133.776C168.704 136.231 174.008 143.687 173.372 147.748C172.553 153.052 163.521 157.993 155.459 156.386C149.155 155.113 137.819 150.991 137.819 150.991" fill="#DDDCFC"/>
<path d="M158.672 157.326C157.55 157.326 156.429 157.235 155.368 156.992C149.064 155.75 137.759 151.597 137.637 151.567C137.334 151.446 137.152 151.112 137.274 150.779C137.395 150.476 137.728 150.294 138.062 150.415C138.183 150.446 149.397 154.568 155.611 155.81C160.005 156.689 165.097 155.598 168.886 152.961C171.129 151.385 172.523 149.506 172.826 147.657C173.402 143.96 168.492 136.746 160.521 134.352C152.216 131.836 144.548 132.078 144.457 132.078C144.123 132.078 143.851 131.836 143.82 131.503C143.82 131.169 144.063 130.896 144.396 130.866C144.487 130.866 152.337 130.624 160.854 133.2C164.643 134.352 168.159 136.685 170.765 139.777C173.129 142.596 174.342 145.627 174.008 147.869C173.675 150.052 172.099 152.204 169.583 153.962C166.461 156.144 162.521 157.326 158.702 157.326H158.672Z" fill="#7481BA"/>
<path d="M173.372 147.779C174.008 143.717 168.704 136.231 160.642 133.806C150.034 134.927 148.185 153.204 155.459 156.447C163.521 158.053 172.553 153.113 173.372 147.809V147.779Z" fill="#3F3E77"/>
<path d="M158.672 157.326C157.55 157.326 156.429 157.235 155.368 156.992C155.035 156.932 154.823 156.598 154.883 156.265C154.944 155.932 155.277 155.719 155.611 155.78C160.005 156.659 165.097 155.568 168.886 152.931C171.129 151.355 172.523 149.476 172.826 147.627C173.402 143.929 168.492 136.716 160.521 134.321C160.187 134.23 160.005 133.897 160.127 133.564C160.218 133.23 160.551 133.048 160.884 133.17C164.673 134.321 168.189 136.655 170.795 139.747C173.16 142.565 174.372 145.596 174.038 147.839C173.705 150.021 172.129 152.173 169.613 153.931C166.491 156.114 162.551 157.296 158.732 157.296L158.672 157.326Z" fill="#191935"/>
<path d="M151.095 122.864C155.004 114.681 152.792 107.195 150.155 106.831C147.76 106.497 142.517 111.68 136.94 117.197C140.668 121.41 148.033 122.561 151.064 122.864H151.095Z" fill="#3F3E77"/>
<path d="M151.094 123.471C151.004 123.471 150.913 123.471 150.822 123.41C150.519 123.258 150.397 122.895 150.549 122.592C153.277 116.924 152.974 111.498 151.549 108.831C151.125 108.013 150.579 107.498 150.094 107.437C148.033 107.134 142.487 112.59 137.607 117.409L137.395 117.621C137.152 117.863 136.758 117.863 136.546 117.621C136.304 117.378 136.304 116.984 136.546 116.772L136.758 116.56C142.578 110.801 147.609 105.861 150.246 106.225C151.155 106.346 151.973 107.073 152.61 108.255C154.216 111.286 154.55 117.045 151.64 123.137C151.549 123.349 151.307 123.471 151.094 123.471Z" fill="#191935"/>
<path d="M88.7489 108.831C83.081 114.59 82.2627 126.865 82.2627 126.865C85.6876 121.834 89.2641 118.742 89.2641 118.742" fill="#9597CF"/>
<path d="M82.2626 127.502C82.202 127.502 82.1414 127.502 82.0504 127.471C81.7777 127.381 81.6261 127.138 81.6564 126.865C81.6564 126.744 81.8686 123.683 82.7779 119.894C84.0205 114.742 85.8694 110.892 88.2941 108.437C88.5366 108.195 88.9003 108.195 89.1428 108.437C89.3853 108.68 89.3853 109.043 89.1428 109.286C85.142 113.347 83.6265 120.894 83.081 124.683C86.0209 120.773 88.7185 118.439 88.8397 118.318C89.0822 118.106 89.4762 118.136 89.6883 118.379C89.9005 118.621 89.8702 119.015 89.6277 119.227C89.5974 119.258 86.0815 122.349 82.7172 127.229C82.596 127.411 82.4142 127.502 82.202 127.502H82.2626Z" fill="#191935"/>
<path d="M90.4157 109.68C85.051 112.468 81.717 116.318 81.717 116.318C85.6572 106.194 91.3857 101.587 91.3857 101.587" fill="#9597CF"/>
<path d="M81.7477 116.924C81.6264 116.924 81.5355 116.924 81.4446 116.833C81.2021 116.681 81.0809 116.378 81.2021 116.105C85.1726 105.922 90.8101 101.315 91.0526 101.133C91.3253 100.921 91.6891 100.951 91.9012 101.224C92.1134 101.496 92.0831 101.86 91.8103 102.072C91.8103 102.072 90.3858 103.224 88.5066 105.588C87.1124 107.346 85.2332 110.074 83.5056 113.772C85.0514 112.408 87.3246 110.65 90.1736 109.165C90.4767 109.013 90.8404 109.134 90.992 109.407C91.1435 109.71 91.0223 110.074 90.7495 110.225C85.5666 112.923 82.2629 116.681 82.2326 116.712C82.1114 116.833 81.9598 116.924 81.778 116.924H81.7477Z" fill="#191935"/>
<defs>
<radialGradient id="paint0_radial_884_63361" cx="0" cy="0" r="1" gradientUnits="userSpaceOnUse" gradientTransform="translate(148.168 168.863) rotate(19.6) scale(35.4617 28.3693)">
<stop offset="0.4" stop-color="#FCEE70" stop-opacity="0"/>
<stop offset="0.8" stop-color="#FCEE70"/>
</radialGradient>
</defs>
</svg>
