<svg width="256" height="256" viewBox="0 0 256 256" fill="none" xmlns="http://www.w3.org/2000/svg">
<path d="M135.016 88.5905C132.913 89.9333 129.462 94.9081 131.29 94.8803C133.119 94.8526 138.906 91.1319 140.066 89.4367C141.226 87.7415 136.956 87.353 135.016 88.5905Z" fill="#FFBBC6" stroke="#703A47" stroke-width="1.10981" stroke-miterlimit="10"/>
<path d="M135.197 88.6597C134.35 89.0953 131.948 93.0407 132.783 93.1406C133.621 93.2404 137.78 90.8766 138.659 89.3644C139.539 87.8523 136.451 88.0132 135.197 88.6597Z" fill="#C16F93"/>
<path d="M135.202 88.3101C138.967 86.06 149.213 81.4293 149.533 84.0707C149.632 84.8975 146.75 85.9185 144.294 87.2114C142.993 87.8967 141.503 89.0565 140.23 89.5337C138.956 90.0109 134.001 89.0287 135.202 88.3101Z" fill="#FFBBC6" stroke="#703A47" stroke-width="1.10981" stroke-miterlimit="10"/>
<path d="M147.679 83.3049C148.747 83.205 149.452 83.4103 149.533 84.0734C149.632 84.9002 146.75 85.9213 144.294 87.2142C142.993 87.8995 141.503 89.0592 140.23 89.5365" stroke="#281A1E" stroke-width="1.10981" stroke-linecap="round" stroke-linejoin="round"/>
<path d="M135.679 88.5709C135.763 88.1076 146.137 84.4203 145.82 85.0917C145.507 85.7631 143.739 86.4151 142.646 87.1337C141.553 87.8523 141.037 88.3656 139.766 88.8872C138.496 89.4088 135.621 88.8928 135.679 88.5682V88.5709Z" fill="#C16F93"/>
<path d="M134.323 86.5232C133.216 87.7801 123.444 89.9831 121.701 87.0393C119.959 84.0955 123.877 77.9694 127.12 77.5782C130.366 77.187 135.929 84.7032 134.323 86.5232Z" fill="#FFBBC6" stroke="#703A47" stroke-width="1.10981" stroke-miterlimit="10"/>
<path d="M134.411 86.4014C133.945 87.1255 124.684 88.3824 123.63 86.862C122.575 85.3415 126.521 79.9978 128.807 79.1127C131.093 78.2277 135.308 85.0141 134.411 86.4042V86.4014Z" fill="#C16F93"/>
<path d="M134.864 86.4678C136.97 83.1578 137.516 67.6538 131.909 67.3153C130.031 67.2016 129.617 69.8207 128.699 72.6702C128.213 74.1823 126.682 75.5806 126.704 77.2259C126.726 78.8684 134.067 87.7164 134.861 86.4678H134.864Z" fill="#FFBBC6" stroke="#703A47" stroke-width="1.10981" stroke-miterlimit="10"/>
<path d="M134.858 69.621C134.165 68.2726 133.199 67.393 131.912 67.3153C130.033 67.2016 129.62 69.8207 128.702 72.6702C128.216 74.1823 126.684 75.5806 126.707 77.2259" stroke="#281A1E" stroke-width="1.10981" stroke-linecap="round" stroke-linejoin="round"/>
<path d="M134.536 85.9074C135.743 84.7532 134.867 72.1847 133.404 72.1015C131.942 72.0182 131.953 74.1823 131.154 75.3532C130.355 76.5213 128.724 77.3314 128.624 78.9739C128.524 80.6164 133.945 86.4734 134.536 85.9102V85.9074Z" fill="#C16F93"/>
<path d="M102.305 144.727C109.691 160.891 113.161 184.228 115.134 200.434C115.134 200.434 133.945 202.418 148.331 193.786C144.636 172.844 126.46 167.054 115.867 141.894C115.867 141.894 109.266 135.813 102.302 144.73L102.305 144.727Z" fill="#9597CF"/>
<path d="M148.334 193.783C144.638 172.841 126.462 167.051 115.869 141.892" stroke="#191935" stroke-width="1.10981" stroke-linecap="round" stroke-linejoin="round"/>
<path d="M113.014 134.017C111.247 129.661 108.12 128.543 104.993 128.893C104.993 128.893 106.974 132.83 103.662 134.766C103.206 135.033 101.389 127.736 100.981 127.869C97.4965 129.023 96.8778 133.038 96.8778 133.038C97.0165 136.309 101.009 139.983 102.16 143.123C104.832 142.699 107.715 143.456 107.715 143.456C109.291 141.331 110.809 139.619 110.809 139.619C110.717 141.325 111.316 142.03 111.316 142.03C111.949 140.471 113.697 140.943 113.697 140.943C114.507 142.008 115.869 141.889 115.869 141.889C115.869 141.889 114.318 137.227 113.014 134.015V134.017Z" fill="#DDDCFC"/>
<path d="M96.8778 133.044C97.0748 137.316 101.009 139.988 102.16 143.129" stroke="#7481BA" stroke-width="1.10981" stroke-linecap="round" stroke-linejoin="round"/>
<path d="M115.869 141.892C115.869 141.892 114.318 137.231 113.014 134.018C111.247 129.662 108.12 128.544 104.993 128.893C104.993 128.893 106.974 132.83 103.661 134.767" stroke="#7481BA" stroke-width="1.10981" stroke-linecap="round" stroke-linejoin="round"/>
<path d="M98.1514 103.87C104.927 123.724 108.595 145.951 108.595 145.951" stroke="#3A241C" stroke-width="4.43923" stroke-miterlimit="10"/>
<path d="M47.7383 104.494C64.3327 103.065 76.4296 77.309 92.1084 76.6792" stroke="#CECECE" stroke-width="0.554903" stroke-miterlimit="10"/>
<path d="M47.7383 104.494C72.2428 111.358 78.3356 93.0602 98.326 96.2148" stroke="#CECECE" stroke-width="0.554903" stroke-miterlimit="10"/>
<path d="M75.0701 65.8449C76.4129 65.3649 80.5553 73.497 84.3203 84.0124C88.0853 94.5279 90.0497 103.44 88.7068 103.922" stroke="#CECECE" stroke-width="0.554903" stroke-miterlimit="10"/>
<path d="M66.5856 74.5651C67.762 74.0157 71.9349 80.4748 75.9052 88.9926C79.8756 97.5103 82.1423 104.857 80.966 105.407" stroke="#CECECE" stroke-width="0.554903" stroke-miterlimit="10"/>
<path d="M60.8756 86.3872C61.9077 85.7102 65.8115 89.8332 69.5931 95.5958C73.3748 101.361 75.6027 106.583 74.5678 107.26" stroke="#CECECE" stroke-width="0.554903" stroke-miterlimit="10"/>
<path d="M57.2827 94.5473C57.9042 94.2032 60.2126 97.1886 62.435 101.212C64.6602 105.235 65.9586 108.775 65.3399 109.119" stroke="#CECECE" stroke-width="0.554903" stroke-miterlimit="10"/>
<path d="M54.3389 99.6691C55.0297 99.5026 56.048 101.264 56.6167 103.606C57.1855 105.948 57.0856 107.982 56.3948 108.148" stroke="#CECECE" stroke-width="0.554903" stroke-miterlimit="10"/>
<path d="M83.7043 62.7542C58.5395 66.9326 63.2256 98.8062 47.7383 104.494C68.8107 116.516 74.0241 102.269 98.4287 103.87" stroke="#3F3F3F" stroke-width="0.554903" stroke-miterlimit="10"/>
<path d="M88.7069 103.922C87.364 104.402 83.2217 96.2703 79.4567 85.7549C75.6917 75.2395 73.7273 66.3277 75.0702 65.845" stroke="#3F3F3F" stroke-width="0.554903" stroke-miterlimit="10"/>
<path d="M80.966 105.407C79.7896 105.956 75.6167 99.4972 71.6464 90.9795C67.676 82.4617 65.4092 75.1148 66.5856 74.5654" stroke="#3F3F3F" stroke-width="0.554903" stroke-miterlimit="10"/>
<path d="M74.568 107.263C73.5359 107.94 69.6322 103.817 65.8505 98.0544C62.0688 92.289 59.8409 87.0674 60.8758 86.3904" stroke="#3F3F3F" stroke-width="0.554903" stroke-miterlimit="10"/>
<path d="M65.3371 109.122C64.7156 109.466 62.4072 106.48 60.1849 102.457C57.9597 98.4344 56.6612 94.8941 57.2799 94.55" stroke="#3F3F3F" stroke-width="0.554903" stroke-miterlimit="10"/>
<path d="M56.3949 108.148C55.704 108.315 54.6858 106.553 54.117 104.211C53.5482 101.87 53.6481 99.8359 54.339 99.6694" stroke="#3F3F3F" stroke-width="0.554903" stroke-miterlimit="10"/>
<path d="M47.7383 104.494C70.9832 98.315 61.3584 79.6591 83.6877 69.8318" stroke="#3F3F3F" stroke-width="0.554903" stroke-miterlimit="10"/>
<path d="M47.7383 104.494C72.2983 106.944 66.4801 92.8162 90.0358 89.9751" stroke="#3F3F3F" stroke-width="0.554903" stroke-miterlimit="10"/>
<path d="M98.1524 103.864C99.8892 103.241 98.0001 93.5337 93.933 82.1808C89.8659 70.828 85.1608 62.1291 83.424 62.7513C81.6871 63.3735 83.5762 73.0812 87.6434 84.4341C91.7105 95.7869 96.4156 104.486 98.1524 103.864Z" stroke="#3A241C" stroke-width="3.88432" stroke-linecap="round" stroke-linejoin="round"/>
<path d="M98.1524 103.864C99.8892 103.241 98.0001 93.5337 93.933 82.1808C89.8659 70.828 85.1608 62.1291 83.424 62.7513C81.6871 63.3735 83.5762 73.0812 87.6434 84.4341C91.7105 95.7869 96.4156 104.486 98.1524 103.864Z" stroke="#845D4B" stroke-width="1.66471" stroke-linecap="round" stroke-linejoin="round"/>
<path d="M98.1514 103.87C104.927 123.724 108.595 145.951 108.595 145.951" stroke="#845D4B" stroke-width="2.21961" stroke-miterlimit="10"/>
<path d="M126.995 176.476C120.223 184.225 114.84 199.488 114.84 199.488C114.84 199.488 133.094 203.086 144.397 195.847C144.397 195.847 142.999 188.703 144.219 182.372" fill="#8588D1"/>
<path d="M144.397 195.848C144.397 195.848 142.999 188.703 144.219 182.372" stroke="#191935" stroke-width="1.10981" stroke-linecap="round" stroke-linejoin="round"/>
<path d="M126.995 176.476C120.223 184.225 114.84 199.488 114.84 199.488" stroke="#191935" stroke-width="1.10981" stroke-linecap="round" stroke-linejoin="round"/>
<path opacity="0.16" d="M131.557 158.001C131.409 157.804 131.981 156.33 132.677 155.9C133.374 155.47 139.026 156.974 139.325 157.243C139.639 157.526 139.167 159.171 139.026 159.299C138.884 159.427 131.995 158.589 131.557 158.001Z" fill="#DEF5FF"/>
<path d="M131.557 158.001C131.409 157.804 131.981 156.33 132.677 155.9C133.374 155.47 139.026 156.974 139.325 157.243C139.639 157.526 139.167 159.171 139.026 159.299C138.884 159.427 131.995 158.589 131.557 158.001Z" stroke="black" stroke-width="1.10981" stroke-linecap="round" stroke-linejoin="round"/>
<path d="M148.817 168.33C149.577 172.484 153.375 172.583 153.375 172.583C146.789 178.28 140.979 171.199 140.979 171.199L148.817 168.327V168.33Z" fill="#894E71"/>
<path d="M129.243 189.325C129.243 189.325 124.479 184.741 125.458 179.603C126.715 172.997 129.659 166.501 132.98 161.172C147.097 138.512 165.325 127.778 176.906 124.97C178.795 124.512 179.567 126.945 177.636 128.049C167.781 133.687 159.973 152.105 155.537 166.235C155.537 166.235 151.328 171.21 144.511 171.97C144.511 171.97 148.082 176.551 153.911 172.75C153.911 172.75 150.432 182.219 138.953 187.704C134.891 189.647 129.248 189.325 129.248 189.325H129.243Z" fill="#8588D1"/>
<path d="M131.981 167.137C131.992 165.048 137.244 165.378 136.573 168.283C135.901 171.188 131.967 169.359 131.981 167.137Z" fill="#1A1A21"/>
<path d="M134.536 171.92C132.111 168.946 132.836 165.791 135.732 165.797C134.842 164.296 132.383 164.124 131.282 166.227C130.272 168.155 130.941 171.829 134.534 171.92H134.536Z" fill="#8588D1"/>
<path d="M134.536 171.92C132.111 168.946 132.555 165.905 135.066 166.038" stroke="#191935" stroke-width="0.832355" stroke-linecap="round" stroke-linejoin="round"/>
<path d="M137.952 168.188C138.534 170.059 137.375 171.829 137.375 171.829" stroke="#191935" stroke-width="0.832355" stroke-linecap="round" stroke-linejoin="round"/>
<path d="M177.63 128.052C179.561 126.948 178.79 124.515 176.9 124.972C175.363 125.344 173.718 125.866 171.987 126.532C170.53 129.223 171.038 132.061 171.374 133.285C173.399 131.071 175.497 129.273 177.627 128.052H177.63Z" fill="#49488A"/>
<path d="M125.333 181.323C126.59 174.717 130.68 166.538 134.001 161.208C148.118 138.548 167.803 127.761 178.085 125.103" stroke="#DCE5EA" stroke-width="1.10981" stroke-linecap="round" stroke-linejoin="round"/>
<path d="M146.977 173.796C144.289 176.551 140.166 180.205 139.123 181.742C137.791 183.704 138.154 184.345 138.043 187.716C138.168 187.66 138.293 187.602 138.418 187.541C149.896 182.056 153.375 172.586 153.375 172.586C150.74 174.304 148.567 174.306 146.977 173.796Z" fill="#49488A"/>
<path d="M162.87 147.255C155.603 154.208 153.883 163.513 150.071 169.867C153.209 168.183 155.001 166.069 155.001 166.069C156.882 160.081 159.604 153.397 162.87 147.255Z" fill="#49488A"/>
<path d="M129.243 189.325C129.243 189.325 124.479 184.741 125.458 179.603C126.715 172.997 129.659 166.501 132.98 161.172C147.097 138.512 165.325 127.778 176.906 124.97C178.795 124.512 179.567 126.945 177.636 128.049C167.781 133.687 159.707 152.021 155.27 166.152C155.27 166.152 151.061 171.127 144.244 171.887C144.244 171.887 147.815 176.468 153.644 172.666C153.644 172.666 150.165 182.136 138.687 187.621" stroke="#191935" stroke-width="1.10981" stroke-linecap="round" stroke-linejoin="round"/>
<path d="M126.299 170.444C124.659 168.277 124.851 167.317 126.077 166.776" stroke="#191935" stroke-width="1.10981" stroke-linecap="round" stroke-linejoin="round"/>
<path d="M130.225 156.072C129.065 156.377 128.679 156.73 128.907 157.523" stroke="#191935" stroke-width="1.10981" stroke-linecap="round" stroke-linejoin="round"/>
<path opacity="0.16" d="M129.72 162.892C127.459 167.553 129.262 172.342 130.239 174.342C130.538 174.953 131.126 175.372 131.803 175.444C133.873 175.66 136.079 175.638 137.66 175.571C139.078 175.513 140.277 174.498 140.554 173.105C141.27 169.529 140.449 166.491 139.7 164.668C139.231 163.527 138.174 162.739 136.947 162.614C131.67 162.085 129.717 162.889 129.717 162.889L129.72 162.892Z" fill="#DEF5FF"/>
<path d="M129.72 162.892C127.459 167.553 129.262 172.342 130.239 174.342C130.538 174.953 131.126 175.372 131.803 175.444C133.873 175.66 136.079 175.638 137.66 175.571C139.078 175.513 140.277 174.498 140.554 173.105C141.27 169.529 140.449 166.491 139.7 164.668C139.231 163.527 138.174 162.739 136.947 162.614C131.67 162.085 129.717 162.889 129.717 162.889L129.72 162.892Z" stroke="black" stroke-width="1.10981" stroke-linecap="round" stroke-linejoin="round"/>
<path d="M129.759 162.753C129.759 162.753 129.398 162.129 129.415 161.66C129.431 161.191 130.244 158.861 130.652 158.5C131.06 158.139 131.557 158.003 131.557 158.003" stroke="black" stroke-width="1.10981" stroke-linecap="round" stroke-linejoin="round"/>
<path d="M133.865 167.425C133.687 166.912 135.305 166.318 135.524 166.879C135.743 167.439 134.065 168.005 133.865 167.425Z" fill="white"/>
<path d="M127.597 185.085C127.597 185.085 125.2 191.378 125.644 192.868C125.783 193.337 128.285 194.821 130.355 194.73C132.541 194.633 134.303 192.926 134.353 192.263C134.442 191.137 132.972 189.261 132.972 189.261" fill="#D2D2FB"/>
<path d="M128.086 186.131C126.751 189.832 126.646 191.444 126.646 191.444" stroke="white" stroke-width="1.10981" stroke-linecap="round" stroke-linejoin="round"/>
<path d="M127.597 185.085C127.597 185.085 125.2 191.378 125.644 192.868C125.783 193.337 128.285 194.821 130.355 194.73C132.541 194.633 134.303 192.926 134.353 192.263C134.442 191.137 132.972 189.261 132.972 189.261" stroke="#49488A" stroke-width="1.10981" stroke-linecap="round" stroke-linejoin="round"/>
<path d="M127.381 190.074C126.593 192.269 128.363 193.034 128.363 193.034C128.344 192.113 128.618 191.286 128.618 191.286C129.62 192.088 130.929 192.232 130.929 192.232C130.929 192.232 130.624 191.37 130.355 190.873C130.355 190.873 130.954 190.515 131.426 190.091C131.426 190.091 129.847 188.223 129.14 187.632C129.14 187.632 127.775 188.978 127.381 190.074Z" fill="#6A6DB8"/>
<path d="M129.631 187.111C129.631 187.111 126.504 189.164 126.352 193.503" stroke="#49488A" stroke-width="1.10981" stroke-linecap="round" stroke-linejoin="round"/>
<path d="M176.06 127.092C176.745 126.887 177.197 126.693 177.589 126.521C177.81 126.424 177.761 126.707 177.602 126.782C176.875 127.123 176.06 127.092 176.06 127.092Z" stroke="black" stroke-width="1.10981" stroke-linecap="round" stroke-linejoin="round"/>
<path d="M100.665 139.938C104.008 157.393 103.695 181.492 101.769 197.701C101.769 197.701 119.573 204.088 135.596 199.111C136.97 177.888 118.083 152.981 115.037 141.969" fill="#DDDCFC"/>
<path d="M135.596 199.111C136.553 184.342 127.697 167.786 121.194 155.373C129.054 171.393 125.558 188.914 121.116 200.997C125.744 201.08 130.752 200.614 135.596 199.111Z" fill="#9597CF"/>
<path d="M115.037 141.969L110.712 141.356C108.672 142.019 105.54 142.127 100.99 140.146C100.904 140.221 100.826 140.296 100.743 140.371C101.636 145.149 102.263 150.409 102.657 155.861C103.101 156.805 103.423 157.798 103.448 158.719C103.448 158.719 105.853 156.255 107.507 153.367C107.507 153.367 108.742 156.558 109.025 160.958C109.025 160.958 112.723 156.755 114.26 151.014C114.26 151.014 115.043 152.229 115.398 154.96C115.398 154.96 116.613 152.124 117.687 148.498C117.687 148.498 115.969 144.952 115.034 141.967L115.037 141.969Z" fill="#57539F"/>
<path d="M135.596 199.11C136.97 177.888 118.083 152.981 115.037 141.969" stroke="#191935" stroke-width="1.10981" stroke-linecap="round" stroke-linejoin="round"/>
<path d="M100.665 139.938C104.008 157.393 103.695 181.492 101.769 197.701" stroke="#7481BA" stroke-width="1.10981" stroke-linecap="round" stroke-linejoin="round"/>
<path d="M100.773 140.535C101.619 145.105 102.222 150.104 102.616 155.293" stroke="#191935" stroke-width="1.10981" stroke-linecap="round" stroke-linejoin="round"/>
<path d="M114.823 136.29C114.024 131.657 111.169 129.556 108.04 129.232C108.09 131.204 107.249 133.005 105.845 133.33C104.566 133.627 103.29 132.059 102.832 129.615C101.231 129.892 99.4304 130.55 98.3594 132.134C96.9111 134.276 100.715 139.472 101.17 142.788C101.733 143.695 104.535 144.517 104.535 144.517C103.711 142.76 103.986 141.861 103.986 141.861C105.415 143.088 108.928 145.144 108.928 145.144C109.077 143.906 109.979 142.527 109.979 142.527C111.563 143.107 114.884 143.648 114.884 143.648C114.884 143.648 115.412 139.703 114.823 136.287V136.29Z" fill="#DDDCFC"/>
<path d="M114.884 143.651C114.884 143.651 115.412 139.705 114.823 136.29C114.024 131.657 111.169 129.556 108.04 129.232C107.937 131.199 107.249 133.005 105.845 133.33C104.566 133.627 102.985 132.342 102.527 129.9C100.926 130.178 100.263 130.55 99.1918 132.137C97.7435 134.279 100.715 139.475 101.17 142.791" stroke="#7481BA" stroke-width="1.10981" stroke-linecap="round" stroke-linejoin="round"/>
<path d="M115.672 134.295C115.154 135.824 113.217 137.366 112.376 137.18C111.536 136.994 111.572 134.425 111.821 133.105C112.41 130.014 116.888 130.705 115.67 134.295H115.672Z" fill="#DDDCFC" stroke="#7481BA" stroke-width="1.10981" stroke-linecap="round" stroke-linejoin="round"/>
<path d="M111.824 133.105C111.572 134.425 111.538 136.995 112.379 137.18C113.217 137.366 115.156 135.824 115.675 134.295C115.675 134.295 114.33 132.772 111.827 133.105H111.824Z" fill="#3F3E77"/>
<path d="M111.824 133.105C111.572 134.425 111.538 136.995 112.379 137.181C113.217 137.366 115.156 135.824 115.675 134.295" stroke="#191935" stroke-width="1.10981" stroke-linecap="round" stroke-linejoin="round"/>
<path d="M113.028 127.658C114.518 128.444 115.026 130.98 113.009 133.141C111.907 134.32 109.774 135.374 109.022 134.955C108.27 134.537 108.997 132.062 109.666 130.894C109.666 130.894 110.917 126.543 113.028 127.658Z" fill="#DDDCFC" stroke="#7481BA" stroke-width="1.10981" stroke-linecap="round" stroke-linejoin="round"/>
<path d="M109.666 130.893C109 132.059 108.273 134.536 109.022 134.955C109.771 135.374 111.905 134.32 113.009 133.141C113.009 133.141 112.157 131.293 109.666 130.893Z" fill="#3F3E77"/>
<path d="M109.666 130.893C109 132.059 108.273 134.536 109.022 134.955C109.771 135.374 111.905 134.32 113.009 133.141" stroke="#191935" stroke-width="1.10981" stroke-linecap="round" stroke-linejoin="round"/>
<path d="M107.224 125.419C107.224 125.419 108.5 124.318 109.946 124.523C111.613 124.762 112.917 126.701 111.744 129.415C111.103 130.896 109.449 132.608 108.603 132.467C107.757 132.325 107.635 130.025 107.87 128.701L107.227 125.416L107.224 125.419Z" fill="#DDDCFC" stroke="#7481BA" stroke-width="1.10981" stroke-linecap="round" stroke-linejoin="round"/>
<path d="M107.868 128.702C107.632 130.025 107.754 132.325 108.6 132.467C109.446 132.608 111.1 130.896 111.741 129.415C111.741 129.415 110.348 128.238 107.865 128.702H107.868Z" fill="#3F3E77"/>
<path d="M107.868 128.702C107.632 130.025 107.754 132.325 108.6 132.467C109.446 132.608 111.1 130.896 111.741 129.415" stroke="#191935" stroke-width="1.10981" stroke-linecap="round" stroke-linejoin="round"/>
<path d="M96.8778 133.044C96.8778 133.044 96.6004 128.255 100.271 125.763C101.522 124.914 105.49 125.874 105.598 127.511C105.704 129.076 100.598 130.644 100.598 130.644C100.598 130.644 99.6135 130.813 98.8672 131.437" fill="#DDDCFC"/>
<path d="M96.8778 133.044C96.8778 133.044 96.6004 128.255 100.271 125.763C101.522 124.914 105.49 125.874 105.598 127.511C105.704 129.076 100.598 130.644 100.598 130.644C100.598 130.644 99.6135 130.813 98.8672 131.437" stroke="#7481BA" stroke-width="1.10981" stroke-linecap="round" stroke-linejoin="round"/>
<path d="M105.598 127.511C105.49 125.872 101.553 124.964 100.271 125.763C99.6218 128.327 100.598 130.644 100.598 130.644C100.598 130.644 105.704 129.079 105.598 127.511Z" fill="#3F3E77"/>
<path d="M100.598 130.644C100.598 130.644 105.703 129.079 105.598 127.511C105.49 125.872 101.553 124.964 100.271 125.763" stroke="#191935" stroke-width="1.10981" stroke-linecap="round" stroke-linejoin="round"/>
<path d="M117.179 149.111C117.545 145.812 116.999 143.326 116.999 143.326C116.999 143.326 116.23 144.73 115.392 145.912" fill="#57539F"/>
<path d="M117.179 149.111C117.545 145.812 116.999 143.326 116.999 143.326C116.999 143.326 116.23 144.73 115.392 145.912" stroke="#191935" stroke-width="1.10981" stroke-linecap="round" stroke-linejoin="round"/>
<path d="M111.316 146.95C113.261 143.604 114.507 141.09 114.507 141.09C114.507 141.09 115.614 144.278 115.52 146.975" fill="#57539F"/>
<path d="M112.962 144.028C113.936 142.244 114.507 141.09 114.507 141.09C114.507 141.09 115.614 144.278 115.52 146.975" stroke="#191935" stroke-width="1.10981" stroke-linecap="round" stroke-linejoin="round"/>
<path d="M136.653 85.2668C138.39 83.7241 138.751 80.145 138.751 80.145" stroke="#261F1C" stroke-width="0.554903" stroke-linecap="round" stroke-linejoin="round"/>
<path d="M136.831 85.6909C139.062 84.7309 140.887 81.9675 140.887 81.9675" stroke="#261F1C" stroke-width="0.554903" stroke-linecap="round" stroke-linejoin="round"/>
<path d="M136.534 86.7648C135.704 87.1893 135.377 86.7482 133.046 88.8429C131.901 89.875 131.412 89.2702 132.733 88.5017C135.36 86.9729 134.953 86.5678 135.327 86.0018C136.251 84.5979 137.855 86.085 136.534 86.762V86.7648Z" fill="black" stroke="black" stroke-width="1.10981" stroke-miterlimit="10"/>
<path d="M131.498 69.5681C131.842 69.7041 131.495 70.9498 130.966 70.7806C130.436 70.6114 131.043 69.3906 131.498 69.5681Z" fill="black"/>
<path d="M130.746 72.5371C131.207 72.7202 130.741 74.3988 130.031 74.1685C129.32 73.9382 130.136 72.2985 130.746 72.5371Z" fill="black"/>
<path d="M129.137 75.1726C129.459 75.353 128.948 76.5432 128.446 76.3019C127.944 76.0605 128.71 74.934 129.137 75.1726Z" fill="black"/>
<path d="M125.713 79.9256C126.035 80.1059 125.525 81.2962 125.023 81.0548C124.52 80.8134 125.286 79.6869 125.713 79.9256Z" fill="#C16F93"/>
<path d="M124.429 81.643C124.814 81.8595 124.201 83.2856 123.602 82.997C123.003 82.7085 123.918 81.36 124.429 81.643Z" fill="#C16F93"/>
</svg>
