<svg width="256" height="256" viewBox="0 0 256 256" fill="none" xmlns="http://www.w3.org/2000/svg">
<g clip-path="url(#clip0_884_63356)">
<path d="M208.832 100.175C195.585 114.263 204.932 133.362 204.932 133.362C222.215 115.07 208.832 100.175 208.832 100.175Z" fill="#47B585"/>
<path d="M204.932 134.034C204.932 134.034 204.865 134.034 204.831 134.034C204.629 134.034 204.428 133.866 204.327 133.664C204.226 133.462 201.94 128.721 201.233 122.131C200.595 116.012 201.301 107.168 208.328 99.7375C208.463 99.603 208.631 99.5021 208.833 99.5357C209.034 99.5357 209.202 99.603 209.337 99.7711C209.471 99.9392 212.834 103.705 214.044 109.825C216.062 120.046 210.48 128.553 205.436 133.866C205.302 134 205.134 134.068 204.932 134.068V134.034ZM208.799 101.217C203.823 106.798 201.738 113.792 202.578 121.963C203.083 126.67 204.461 130.504 205.134 132.185C211.623 124.989 214.179 117.558 212.699 110.06C211.825 105.622 209.74 102.461 208.799 101.217Z" fill="#2B5B4C"/>
<path d="M202.478 142.205C202.41 142.205 202.343 142.205 202.309 142.205C201.94 142.104 201.738 141.734 201.839 141.364C206.244 125.561 207.992 110.665 208.026 110.497C208.059 110.127 208.395 109.858 208.765 109.892C209.135 109.926 209.404 110.262 209.371 110.632C209.371 110.766 207.588 125.796 203.15 141.7C203.083 142.003 202.78 142.205 202.511 142.205H202.478Z" fill="#261F1C"/>
<path d="M131.968 120.046C131.968 120.046 138.76 111.069 150.562 109.186C171.005 105.924 179.445 128.621 174.603 134.337C169.829 139.952 165.088 141.801 165.121 141.801C164.314 146.408 160.952 149.669 160.952 149.669C160.515 147.854 159.472 147.013 159.472 147.013C158.127 153.435 154.16 156.192 154.16 156.192L131.968 120.08V120.046Z" fill="#5B56A4"/>
<path d="M174.738 123.577C170.064 138.741 151.201 121.223 141.483 122.03L153.689 150.207C153.689 150.207 169.829 139.918 174.603 134.303C177.394 131.008 175.04 124.35 174.738 123.577Z" fill="#333476"/>
<path d="M154.126 156.831C154.092 156.831 154.025 156.831 153.992 156.831C153.823 156.798 153.655 156.697 153.554 156.529L131.363 120.416C131.228 120.181 131.228 119.878 131.396 119.643C131.665 119.273 138.491 110.43 150.427 108.513C160.145 106.967 168.853 111.17 173.695 119.811C176.957 125.594 177.528 131.882 175.074 134.74C172.552 137.699 170.03 139.616 168.383 140.692C168.147 140.826 166.668 141.801 165.659 142.205C164.751 146.778 161.49 149.972 161.355 150.106C161.221 150.241 160.918 150.342 160.716 150.275C160.481 150.207 160.313 150.006 160.246 149.804C160.111 149.266 159.943 148.862 159.741 148.492C158.127 154.108 154.664 156.562 154.496 156.697C154.395 156.764 154.261 156.831 154.126 156.831ZM132.775 120.08L154.294 155.116C155.404 154.108 157.825 151.485 158.8 146.811C158.833 146.576 159.002 146.408 159.237 146.307C159.472 146.24 159.708 146.307 159.876 146.441C159.909 146.441 160.649 147.08 161.187 148.324C162.196 147.114 163.911 144.659 164.415 141.633C164.449 141.398 164.617 141.196 164.852 141.129C165.02 141.062 169.526 139.179 174.065 133.866C176.083 131.479 175.41 125.594 172.552 120.45C167.979 112.347 159.809 108.345 150.663 109.825C140.609 111.439 134.187 118.432 132.808 120.08H132.775Z" fill="#191935"/>
<path d="M153.017 108.95C158.363 106.866 163.373 107.404 163.373 107.404C163.373 107.404 160.784 108.177 157.354 110.363" fill="#5B56A4"/>
<path d="M157.32 111.069C157.085 111.069 156.883 110.968 156.749 110.766C156.547 110.464 156.648 110.026 156.951 109.825C158.06 109.119 159.102 108.547 159.977 108.11C158.127 108.244 155.706 108.614 153.218 109.589C152.882 109.724 152.479 109.556 152.344 109.219C152.21 108.883 152.378 108.48 152.714 108.345C158.127 106.227 163.171 106.765 163.373 106.765C163.675 106.799 163.944 107.068 163.978 107.37C163.978 107.673 163.81 107.975 163.507 108.076C163.507 108.076 160.952 108.85 157.657 110.968C157.556 111.035 157.421 111.069 157.287 111.069H157.32Z" fill="#191935"/>
<path d="M145.485 112.246C152.479 104.781 157.354 103.94 157.354 103.94C157.354 103.94 154.765 107.673 153.79 111.506" fill="#5B56A4"/>
<path d="M145.485 112.918C145.317 112.918 145.148 112.851 145.014 112.75C144.745 112.481 144.745 112.077 145.014 111.808C152.075 104.243 157.051 103.335 157.253 103.302C157.522 103.268 157.791 103.369 157.926 103.604C158.06 103.84 158.06 104.109 157.926 104.344C157.926 104.378 155.404 108.043 154.462 111.708C154.361 112.077 153.992 112.279 153.655 112.178C153.286 112.077 153.084 111.708 153.185 111.371C153.79 108.984 154.967 106.698 155.807 105.218C153.857 106.059 150.36 108.076 146.023 112.716C145.888 112.851 145.72 112.918 145.518 112.918H145.485Z" fill="#191935"/>
<path d="M157.791 136.892C157.791 136.892 158.867 141.431 162.398 142.373C168.786 144.02 174.939 141.196 181.631 139.145L184.859 134.673L184.623 131.949C183.144 132.218 175.78 132.42 173.628 132.824" fill="#333476"/>
<path d="M166.399 143.55C165.02 143.55 163.642 143.382 162.229 143.045C158.363 142.037 157.186 137.296 157.152 137.094C157.051 136.724 157.287 136.354 157.657 136.287C158.026 136.186 158.396 136.421 158.464 136.791C158.464 136.825 159.506 140.961 162.599 141.768C167.677 143.079 172.687 141.431 177.999 139.683C179.042 139.347 180.151 138.977 181.227 138.641L184.186 134.538L184.018 132.756C183.11 132.857 181.731 132.924 180.185 133.025C177.697 133.16 174.906 133.328 173.763 133.563C173.393 133.631 173.056 133.395 172.989 133.025C172.922 132.655 173.157 132.319 173.527 132.252C174.738 132.017 177.596 131.848 180.117 131.714C182.068 131.613 183.917 131.479 184.522 131.378C184.69 131.378 184.892 131.378 185.06 131.512C185.195 131.613 185.296 131.781 185.329 131.983L185.565 134.707C185.565 134.875 185.565 135.043 185.43 135.177L182.202 139.649C182.101 139.784 182 139.851 181.866 139.885C180.723 140.221 179.546 140.624 178.436 140.994C174.334 142.339 170.434 143.651 166.466 143.651L166.399 143.55Z" fill="#191935"/>
<path d="M184.724 133.362L184.589 131.916C183.177 132.151 176.385 132.387 173.931 132.723C177.461 134.639 183.244 133.664 184.724 133.362Z" fill="#5B56A4"/>
<path d="M166.399 143.55C165.02 143.55 163.642 143.382 162.229 143.045C158.363 142.037 157.186 137.296 157.152 137.094C157.051 136.724 157.287 136.354 157.657 136.287C158.026 136.186 158.396 136.421 158.464 136.791C158.464 136.825 159.506 140.961 162.599 141.768C167.677 143.079 172.687 141.431 177.999 139.683C179.042 139.347 180.151 138.977 181.227 138.641L184.186 134.538L184.018 132.756C183.11 132.857 181.731 132.924 180.185 133.025C177.697 133.16 174.906 133.328 173.763 133.563C173.393 133.631 173.056 133.395 172.989 133.025C172.922 132.655 173.157 132.319 173.527 132.252C174.738 132.017 177.596 131.848 180.117 131.714C182.068 131.613 183.917 131.479 184.522 131.378C184.69 131.378 184.892 131.378 185.06 131.512C185.195 131.613 185.296 131.781 185.329 131.983L185.565 134.707C185.565 134.875 185.565 135.043 185.43 135.177L182.202 139.649C182.101 139.784 182 139.851 181.866 139.885C180.723 140.221 179.546 140.624 178.436 140.994C174.334 142.339 170.434 143.651 166.466 143.651L166.399 143.55Z" fill="#0C0C1C"/>
<path d="M182 132.319C182 132.319 184.758 131.109 186.338 131.378C187.918 131.647 192.357 136.522 191.953 137.296C191.55 138.069 187.616 138.271 183.614 137.8" fill="#5B56A4"/>
<path d="M191.953 137.262C192.222 136.791 190.474 134.606 188.793 133.025C187.952 133.832 186.607 135.514 186.876 138.002C189.532 138.069 191.651 137.8 191.953 137.262Z" fill="#232355"/>
<path d="M187.717 138.708C186.405 138.708 184.926 138.607 183.547 138.439C183.177 138.405 182.908 138.069 182.976 137.699C183.009 137.329 183.345 137.06 183.715 137.127C187.548 137.598 190.44 137.329 191.247 136.993C190.709 135.782 187.279 132.218 186.237 132.05C185.128 131.882 183.009 132.655 182.27 132.958C181.933 133.093 181.53 132.958 181.395 132.622C181.261 132.286 181.395 131.882 181.732 131.748C182.034 131.613 184.724 130.47 186.439 130.739C188.12 131.008 191.651 134.841 192.424 136.421C192.592 136.758 192.76 137.228 192.558 137.632C192.323 138.035 191.751 138.54 189.196 138.708C188.725 138.708 188.255 138.741 187.717 138.741V138.708Z" fill="#0C0C1C"/>
<path d="M36.9798 11.8441C34.6261 72.0649 30.6248 94.3913 28.91 144.525C27.0943 198.256 27.4978 251.214 27.4978 251.214C80.9937 261.1 158.396 251.214 158.396 251.214C141.551 209.184 135.129 184.537 125.647 155.184C116.165 125.83 100.092 106.429 94.7123 9.08691C94.7123 9.08691 66.7035 6.02712 37.0134 11.8441H36.9798Z" fill="#7F4941"/>
<path d="M68.3511 80.1682C37.3161 89.852 43.4356 113.019 66.9725 124.317C66.9725 124.317 61.1892 148.526 80.4558 168.801C99.6888 189.077 111.793 193.112 111.793 193.112L126.891 153.402L68.3511 80.1682Z" fill="#72403D"/>
<path d="M99.5206 184.706C83.7845 203.804 97.6376 242.27 114.954 243.918C132.27 245.565 124.268 206.326 124.268 206.326L99.5206 184.706Z" fill="#72403D"/>
<path d="M56.9187 9.08691C50.5638 9.6249 43.8053 10.4991 36.946 11.8441C34.5923 72.0649 30.591 94.3913 28.8762 144.525C27.0605 198.256 27.464 251.214 27.464 251.214C40.4765 253.635 54.9349 254.846 69.326 255.35C61.5252 212.277 46.5961 110.598 56.9187 9.08691Z" fill="#72403D"/>
<path d="M133.279 254.341C133.044 254.341 132.808 254.207 132.674 254.005C129.513 248.221 123.091 244.556 115.694 240.32C103.824 233.528 90.3748 225.794 86.1045 206.595C84.3225 198.525 83.7509 185.748 91.249 170.55C95.721 161.471 101.067 155.755 101.135 155.688C101.404 155.419 101.807 155.419 102.076 155.688C102.345 155.957 102.345 156.36 102.076 156.629C102.009 156.697 96.797 162.278 92.4259 171.189C88.391 179.359 84.2216 192.103 87.3823 206.292C91.518 224.92 104.699 232.452 116.333 239.143C123.595 243.312 130.455 247.246 133.817 253.366C133.985 253.702 133.884 254.106 133.548 254.274C133.447 254.341 133.346 254.341 133.212 254.341H133.279Z" fill="#683934"/>
<path d="M63.61 255.787C63.2401 255.787 62.9375 255.484 62.9375 255.148C62.4668 239.715 59.2389 225.458 56.1118 211.706C53.3883 199.702 50.8328 188.404 50.4966 177.678C50.0258 163.153 51.001 153.771 52.1106 142.944C53.0857 133.362 54.2289 122.501 54.4642 106.059C54.7332 89.6502 59.5415 80.3027 63.072 73.4434C65.224 69.2404 66.9388 65.9452 66.6698 62.6165C66.4344 59.8593 65.1567 56.5305 63.5091 52.3275C60.0459 43.4507 54.7669 30.0011 55.6411 9.28862C55.6411 8.91875 55.9773 8.61615 56.3472 8.64977C56.7171 8.64977 57.0197 8.98601 56.9861 9.35587C56.1455 29.7657 61.1218 42.5429 64.7532 51.8231C66.4344 56.127 67.7458 59.523 67.9811 62.482C68.2837 66.1806 66.5017 69.6439 64.2489 74.015C60.7856 80.7399 56.0446 89.9529 55.8092 106.025C55.5402 122.535 54.4306 133.429 53.4219 143.045C52.3123 153.839 51.3372 163.153 51.8079 177.611C52.1442 188.202 54.6996 199.467 57.3895 211.37C60.5166 225.189 63.7445 239.513 64.2489 255.081C64.2489 255.451 63.9799 255.753 63.61 255.787Z" fill="#683934"/>
<path d="M28.6746 152.864C28.5064 152.864 28.3383 152.796 28.2038 152.662C27.9348 152.393 27.9348 151.989 28.2038 151.72C28.2711 151.653 33.3483 146.273 38.4592 137.127C43.1665 128.688 48.849 115.272 49.2189 99.1659C49.4206 90.8943 49.3534 85.0101 49.2861 80.2691C49.2189 72.502 49.1516 68.5679 50.4293 64.2641C51.0682 62.1121 52.3123 60.0274 53.4891 58.01C56.1118 53.5716 58.8354 48.9987 55.9101 42.8455C55.5066 42.0049 54.7668 41.0298 53.8254 39.7857C50.3285 35.1456 44.4443 27.3448 43.8726 10.5327C43.8726 10.1629 44.1416 9.86025 44.5115 9.82663C44.8814 9.82663 45.184 10.0956 45.2176 10.4655C45.7892 26.8404 51.5053 34.4395 54.9014 38.9451C55.8765 40.2564 56.6498 41.2988 57.1205 42.2403C60.3485 49.0323 57.3223 54.1432 54.6324 58.6488C53.4219 60.6663 52.2787 62.5829 51.7071 64.6003C50.4966 68.7024 50.5302 72.5356 50.5975 80.2019C50.6647 84.9429 50.6984 90.8607 50.5302 99.1322C50.1604 115.541 44.3434 129.192 39.5687 137.766C34.3906 147.047 29.2125 152.527 29.1453 152.595C29.0108 152.729 28.8427 152.796 28.6746 152.796V152.864Z" fill="#683934"/>
<path d="M38.829 253.669C38.4592 253.669 38.1565 253.366 38.1565 252.996C38.0557 235.377 37.2151 223.508 36.4417 213.051C35.6684 202.325 35.0631 193.65 35.5338 182.587C33.55 187.362 30.0195 196.777 28.2374 207.839C28.1702 208.209 27.8339 208.444 27.4641 208.411C27.0942 208.343 26.8588 208.007 26.8925 207.637C29.4815 191.565 35.7356 178.821 35.7692 178.72C35.9037 178.418 36.24 178.283 36.5426 178.384C36.8452 178.452 37.0469 178.754 37.0469 179.09C36.24 191.868 36.9125 201.215 37.7531 213.017C38.4928 223.508 39.367 235.377 39.4679 253.063C39.4679 253.433 39.1653 253.736 38.7954 253.736L38.829 253.669Z" fill="#683934"/>
<path d="M151.571 234.402C151.335 234.402 151.134 234.301 150.999 234.099C149.083 231.04 146.023 228.518 143.064 226.063C139.432 223.071 136.305 220.482 135.868 217.388C135.095 212.008 140.441 204.51 140.676 204.174C140.878 203.871 141.315 203.804 141.618 204.006C141.921 204.208 141.988 204.645 141.786 204.947C141.719 205.015 136.507 212.311 137.213 217.186C137.583 219.742 140.677 222.297 143.938 224.987C146.83 227.375 150.125 230.098 152.142 233.36C152.344 233.662 152.243 234.099 151.941 234.301C151.84 234.368 151.705 234.402 151.571 234.402Z" fill="#683934"/>
<path d="M90.6102 256.291C90.2739 256.291 90.0049 256.056 89.9377 255.72C89.9377 255.585 87.7858 241.362 84.2216 236.285C80.523 231.006 69.2589 202.325 69.1244 183.428C68.9563 157.739 79.1443 135.043 79.2452 134.841C82.4059 127.645 86.7434 109.522 89.6015 63.9614C89.6687 63.0536 89.7023 62.4147 89.736 62.0449C89.8368 60.868 88.4246 60.0274 85.9364 58.6152C81.229 55.9589 74.1344 51.9576 74.5042 39.7521C74.9413 25.7308 93.6364 11.8441 94.4433 11.2388C94.746 11.0035 95.1494 11.0707 95.3848 11.3733C95.6202 11.6759 95.5529 12.0794 95.2503 12.3148C95.2167 12.3484 90.4085 15.879 85.6675 21.0571C81.3299 25.7644 76.0846 32.8591 75.8828 39.7857C75.5129 51.1506 81.9351 54.782 86.6425 57.4384C89.2316 58.8842 91.2827 60.061 91.1145 62.1457C91.1145 62.5156 91.0473 63.1544 90.98 64.0623C88.122 109.825 83.7172 128.116 80.4893 135.413C80.3885 135.648 70.3348 158.075 70.503 183.462C70.6374 202.089 81.6998 230.333 85.3648 235.545C89.0971 240.858 91.2154 254.946 91.3163 255.552C91.3835 255.921 91.1146 256.258 90.7447 256.325C90.7447 256.325 90.6774 256.325 90.6438 256.325L90.6102 256.291Z" fill="#683934"/>
<path d="M68.1156 24.5203C68.1156 24.5203 68.082 24.5203 68.0484 24.5203C67.7458 24.5203 67.5104 24.285 67.4432 23.9824C67.3759 23.6125 65.6947 14.7357 65.9973 8.44803C65.9973 8.07816 66.3336 7.77556 66.7034 7.80918C67.0733 7.80918 67.3759 8.14541 67.3423 8.51528C67.1406 12.7519 67.8803 18.3671 68.351 21.4606C69.7632 18.2326 72.823 12.1131 76.8579 7.8428C77.1269 7.5738 77.5304 7.5738 77.7994 7.8428C78.0684 8.11179 78.0684 8.51527 77.7994 8.78427C72.3859 14.5004 68.7209 24.016 68.6873 24.1169C68.5864 24.3859 68.351 24.554 68.0484 24.554L68.1156 24.5203Z" fill="#683934"/>
<path d="M27.4978 251.887C27.1279 251.887 26.8253 251.584 26.8253 251.214C26.8253 250.676 26.4554 197.651 28.2375 144.491C29.0781 119.811 30.4903 101.856 31.9697 82.8245C33.5165 62.9527 35.1304 42.3747 36.3073 11.7768C36.3073 11.4069 36.6435 11.1043 37.0134 11.1379C37.3832 11.1379 37.6859 11.4742 37.6522 11.8441C36.4754 42.442 34.8614 63.0199 33.3147 82.9254C31.8353 101.923 30.423 119.878 29.5824 144.525C27.7667 197.617 28.1702 250.642 28.1702 251.18C28.1702 251.55 27.8676 251.853 27.4978 251.853V251.887Z" fill="#261F1C"/>
<path d="M158.363 251.887C158.094 251.887 157.858 251.718 157.724 251.449C144.98 219.607 138.155 197.584 131.531 176.3C129.446 169.541 127.261 162.514 124.94 155.385C123.024 149.468 120.838 143.953 118.552 138.136C109.507 115.305 98.2765 86.8931 93.9727 9.12053C93.9727 8.75066 94.2417 8.44805 94.6115 8.41443C94.9814 8.41443 95.284 8.68341 95.3176 9.05327C99.5879 86.6241 110.785 114.936 119.796 137.665C122.116 143.516 124.302 149.03 126.218 154.982C128.538 162.144 130.69 169.138 132.808 175.93C139.399 197.214 146.225 219.204 158.968 250.979C159.103 251.315 158.968 251.718 158.598 251.853C158.531 251.853 158.43 251.887 158.363 251.887Z" fill="#261F1C"/>
<path d="M89.097 154.948C86.1717 174.316 62.803 160.194 45.9237 173.173C33.3146 182.856 26.489 214.766 53.052 232.149C53.052 232.149 54.9686 231.174 54.5987 224.113C54.5987 224.113 58.9026 232.721 66.2326 236.655C66.2326 236.655 65.2239 229.258 66.5017 223.743C66.5017 223.743 63.9462 241.329 90.711 244.792C90.711 244.792 87.9874 243.077 86.2054 237.395C86.2054 237.395 91.1145 241.934 105.438 240.925C101.572 209.856 69.7968 194.557 84.4906 177.745C92.0896 169.07 102.715 172.063 102.715 172.063L89.0298 154.915L89.097 154.948Z" fill="#6D6FBF"/>
<path d="M77.7322 165.977C68.8554 167.625 56.6499 166.044 46.3945 173.912C36.2737 181.679 29.6161 203.266 41.0483 220.482C30.8938 201.45 38.2575 182.89 48.3447 175.123C58.3311 167.456 69.4606 167.759 77.7322 165.943V165.977Z" fill="#DCE5EA"/>
<path d="M41.0482 221.154C40.8465 221.154 40.6111 221.053 40.4766 220.851C28.6746 203.098 35.702 181.242 45.9573 173.374C53.6236 167.49 62.265 166.784 69.8977 166.179C72.6549 165.943 75.2439 165.742 77.564 165.304C77.9338 165.237 78.2701 165.473 78.3374 165.842C78.4046 166.212 78.1692 166.549 77.833 166.649C75.8492 167.087 73.6972 167.389 71.4444 167.725C64.2825 168.768 56.2127 169.945 48.7145 175.694C43.4355 179.763 39.4343 186.32 37.7194 193.75C36.3072 199.87 35.8365 209.419 41.5862 220.179C41.7543 220.482 41.6535 220.885 41.3508 221.087C41.25 221.154 41.1155 221.188 41.0146 221.188L41.0482 221.154ZM58.4655 169.07C54.4643 170.012 50.4966 171.592 46.8316 174.45C41.7543 178.351 37.7531 185.748 36.3408 193.784C36.2063 194.524 36.1055 195.297 36.0046 196.037C36.1391 195.129 36.3072 194.255 36.509 193.448C38.291 185.714 42.4604 178.855 47.9748 174.618C51.4044 171.962 54.9686 170.281 58.4655 169.104V169.07Z" fill="#DCE5EA"/>
<path d="M51.4381 207.805C55.6075 215.842 62.2987 221.659 62.2987 221.659C65.762 218.7 67.3423 211.639 67.3423 211.639C72.8567 216.077 74.3025 215.236 74.3025 215.236C75.0422 210.932 71.7135 201.013 71.7135 201.013C74.4706 203.905 77.3287 208.982 77.3287 208.982C76.8579 205.048 70.3349 187.765 79.5142 176.77C84.7932 170.483 90.8456 168.398 97.0324 164.901L102.782 172.097C102.782 172.097 92.1569 169.104 84.5579 177.779C69.8641 194.591 101.639 209.89 105.506 240.959C91.1482 241.967 86.2727 237.428 86.2727 237.428C88.0548 243.077 90.7783 244.826 90.7783 244.826C64.0135 241.362 66.569 223.777 66.569 223.777C65.2576 229.291 66.3 236.688 66.3 236.688C59.0035 232.754 54.666 224.147 54.666 224.147C55.0023 231.208 53.1193 232.183 53.1193 232.183C51.9425 231.409 50.8329 230.636 49.7905 229.796C52.7831 219.977 51.4717 207.805 51.4717 207.805H51.4381Z" fill="#49488A"/>
<path d="M90.7783 245.498C90.7783 245.498 90.7111 245.498 90.6775 245.498C80.6238 244.187 73.4619 240.791 69.3934 235.411C67.9476 233.528 67.107 231.645 66.569 229.93C66.5354 233.494 66.9388 236.554 66.9388 236.588C66.9725 236.823 66.8716 237.092 66.6699 237.226C66.4681 237.361 66.1991 237.395 65.9637 237.26C60.8192 234.503 57.1542 229.56 55.3385 226.668C55.1704 231.544 53.7246 232.586 53.3884 232.754C53.1866 232.855 52.9176 232.855 52.7159 232.721C41.2501 225.189 34.6597 213.992 34.189 201.114C33.7518 189.615 38.3247 178.182 45.5539 172.635C53.1866 166.75 62.0297 166.313 69.8305 165.943C79.3798 165.473 86.9116 165.103 88.4583 154.847C88.4919 154.578 88.6936 154.377 88.9626 154.309C89.2316 154.242 89.5006 154.309 89.6687 154.545L103.354 171.693C103.522 171.928 103.556 172.231 103.387 172.5C103.219 172.735 102.917 172.87 102.648 172.769C102.547 172.769 92.325 170.012 85.1295 178.25C77.3623 187.127 83.0112 195.364 90.7783 206.729C97.2005 216.144 104.497 226.769 106.245 240.891C106.245 241.06 106.245 241.261 106.111 241.396C106.01 241.53 105.808 241.631 105.64 241.631C95.6874 242.337 90.2067 240.421 87.6513 239.076C89.2316 242.943 91.1818 244.254 91.2155 244.254C91.4845 244.422 91.5853 244.758 91.4844 245.061C91.3836 245.33 91.1482 245.498 90.8456 245.498H90.7783ZM66.5354 223.104C66.569 223.104 66.6362 223.104 66.6699 223.104C67.0397 223.172 67.2751 223.508 67.2079 223.878C67.2079 223.945 66.4681 229.392 70.4694 234.604C74.0672 239.311 80.2204 242.438 88.7945 243.85C87.8194 242.674 86.5753 240.69 85.6002 237.63C85.4994 237.327 85.6002 237.025 85.8692 236.857C86.1382 236.688 86.4745 236.722 86.6762 236.924C86.6762 236.924 87.8867 238 90.7783 238.975C93.3674 239.815 97.873 240.723 104.699 240.32C102.816 226.904 95.7883 216.581 89.5679 207.469C81.7335 196.037 75.5803 186.992 84.0199 177.342C89.9041 170.617 97.6376 170.651 101.101 171.121L89.467 156.529C87.2814 166.414 79.178 166.818 69.8305 167.288C62.2315 167.658 53.6237 168.095 46.2936 173.711C39.5016 178.922 35.0632 190.186 35.4667 201.081C35.9374 213.32 42.1243 224.012 52.9176 231.275C53.3547 230.636 54.1281 228.82 53.8927 224.147C53.8927 223.844 54.0945 223.541 54.3971 223.474C54.6997 223.407 55.0359 223.541 55.1704 223.81C55.204 223.878 59.0372 231.376 65.3921 235.411C65.1568 232.99 64.8542 227.812 65.8293 223.609C65.8965 223.306 66.1655 223.104 66.4681 223.104H66.5354Z" fill="#191935"/>
<path d="M91.7535 26.874C82.4732 35.818 88.6265 51.386 91.7535 47.4184C94.8805 43.4507 131.094 8.71701 131.094 8.71701C123.36 7.97728 113.475 7.47293 113.475 7.47293C113.475 7.47293 98.6801 20.1492 91.7199 26.874H91.7535Z" fill="#7F4941"/>
<path d="M91.7534 47.4184C94.8805 43.4507 131.094 8.71702 131.094 8.71702C129.379 8.5489 127.597 8.4144 125.815 8.27991C107.59 24.1505 94.3089 34.5403 86.8779 40.1219C87.2478 45.6699 89.9713 49.6712 91.7534 47.4184Z" fill="#72403D"/>
<path d="M90.6102 48.7297C90.4757 48.7297 90.3749 48.7297 90.274 48.7297C88.929 48.4607 87.685 46.7459 86.878 44.1232C85.4321 39.315 85.7348 31.7832 91.2491 26.4369C98.1421 19.7794 112.869 7.13671 113.038 7.00222C113.306 6.76685 113.744 6.80047 113.979 7.06947C114.214 7.33846 114.181 7.77557 113.912 8.01094C113.777 8.14543 99.0499 20.7545 92.1906 27.3784C87.0797 32.2875 86.8443 39.2477 88.1557 43.7197C88.8618 46.0734 89.8705 47.2503 90.5094 47.3848C90.6102 47.3848 90.8456 47.452 91.1818 47.0149C94.2753 43.0473 129.11 9.65852 130.589 8.24631C130.858 7.97732 131.295 8.01094 131.531 8.24631C131.8 8.5153 131.766 8.95241 131.531 9.18778C131.161 9.52402 95.284 43.9215 92.2242 47.8219C91.6526 48.5616 91.0137 48.7297 90.5766 48.7297H90.6102Z" fill="#261F1C"/>
<path d="M124.638 21.2588C124.638 21.2588 117.543 20.9226 114.988 20.9226C112.432 20.9226 112.735 17.4593 115.189 17.4593C117.644 17.4593 124.537 19.1069 124.537 19.1069C125.915 19.5104 125.378 21.2588 124.638 21.2588Z" fill="#7F4941"/>
<path d="M124.638 21.9313C124.571 21.9313 117.543 21.5951 114.988 21.5951C112.432 21.5951 113.475 21.2252 113.172 20.9226C112.768 20.5191 112.533 19.9475 112.533 19.3422C112.533 18.0982 113.542 16.7868 115.223 16.7868C117.745 16.7868 124.436 18.3671 124.705 18.4344C124.705 18.4344 124.705 18.4344 124.739 18.4344C125.68 18.7034 126.218 19.5104 126.05 20.4518C125.915 21.2924 125.344 21.8977 124.638 21.8977V21.9313ZM115.189 18.1318C114.214 18.1318 113.844 18.8379 113.844 19.3422C113.844 19.8466 113.945 19.813 114.08 19.9811C114.214 20.1492 114.584 20.2837 114.954 20.2837C117.409 20.2837 123.73 20.5863 124.571 20.62C124.638 20.5527 124.739 20.351 124.705 20.1492C124.705 20.0147 124.638 19.8802 124.335 19.7794C123.932 19.6785 117.476 18.1654 115.156 18.1654L115.189 18.1318Z" fill="#261F1C"/>
<path d="M123.932 19.1069C123.932 7.10308 135.902 0.680878 135.902 0.680878C137.482 14.3323 123.932 19.1069 123.932 19.1069Z" fill="#47B585"/>
<path d="M123.932 19.7794C123.797 19.7794 123.663 19.7457 123.528 19.6449C123.36 19.5104 123.259 19.3086 123.259 19.1069C123.259 6.83409 135.061 0.344647 135.566 0.0756542C135.767 -0.0252181 136.003 -0.0252181 136.205 0.0756542C136.406 0.176527 136.541 0.378271 136.574 0.580016C138.188 14.6013 124.302 19.6785 124.167 19.7458C124.1 19.7458 124.033 19.7794 123.932 19.7794ZM135.297 1.79048C132.674 3.5053 125.142 9.12054 124.604 18.0645C127.462 16.7532 135.868 12.0794 135.297 1.79048Z" fill="#2B5B4C"/>
<path d="M125.613 17.9973C137.583 15.1729 143.467 24.6212 143.467 24.6212C129.143 27.1767 125.613 17.9973 125.613 17.9973Z" fill="#47B585"/>
<path d="M138.726 25.7308C135.398 25.7308 131.8 25.0247 128.774 22.8055C125.983 20.7545 125.041 18.3335 125.008 18.2327C124.94 18.0646 124.94 17.8628 125.008 17.6611C125.109 17.4929 125.243 17.3584 125.445 17.3248C137.718 14.3995 143.972 24.1505 144.005 24.2514C144.14 24.4531 144.14 24.6885 144.039 24.8902C143.938 25.092 143.77 25.2265 143.535 25.2937C142.089 25.5627 140.408 25.7308 138.693 25.7308H138.726ZM126.622 18.468C127.731 20.4519 131.733 25.63 142.29 24.1169C140.609 21.9986 135.431 16.7532 126.622 18.468Z" fill="#2B5B4C"/>
<path d="M127.294 19.1069C141.584 23.9487 140.508 35.7844 140.508 35.7844C140.508 35.7844 130.959 33.4644 127.294 19.1069Z" fill="#47B585"/>
<path d="M140.508 36.4569C140.441 36.4569 140.407 36.4569 140.34 36.4569C139.937 36.356 130.354 33.8679 126.622 19.3086C126.554 19.0732 126.622 18.8043 126.823 18.6361C126.991 18.468 127.26 18.4008 127.496 18.5017C142.122 23.4444 141.181 35.7508 141.181 35.8517C141.181 36.0534 141.046 36.2216 140.912 36.3224C140.811 36.3897 140.643 36.4569 140.508 36.4569ZM128.269 20.1829C130.186 26.6051 133.279 30.2701 135.633 32.2539C137.381 33.6997 138.928 34.4731 139.836 34.843C139.769 32.1867 138.659 24.2514 128.269 20.1829Z" fill="#2B5B4C"/>
<path d="M123.461 20.3846C123.326 20.3846 123.192 20.351 123.057 20.2501C122.755 20.0148 122.688 19.6113 122.923 19.3086C122.957 19.2414 128 12.5166 131.766 6.43062C131.968 6.128 132.371 6.02713 132.707 6.19525C133.01 6.39699 133.111 6.8005 132.943 7.13674C129.143 13.2899 124.1 20.0484 124.032 20.1156C123.898 20.2838 123.696 20.3846 123.495 20.3846H123.461Z" fill="#261F1C"/>
<path d="M138.121 23.0409C138.054 23.0409 137.953 23.0409 137.886 23.0073C137.314 22.8055 136.608 22.5029 135.868 22.2339C132.27 20.7881 126.218 18.4008 123.864 20.2501C123.562 20.4855 123.158 20.4182 122.923 20.1492C122.688 19.8466 122.755 19.4431 123.024 19.2078C125.983 16.8877 131.968 19.275 136.339 21.0235C137.079 21.3261 137.751 21.5951 138.323 21.7968C138.659 21.9313 138.861 22.3012 138.726 22.671C138.625 22.94 138.356 23.1082 138.087 23.1082L138.121 23.0409Z" fill="#261F1C"/>
<path d="M137.718 31.6823C137.583 31.6823 137.449 31.6487 137.348 31.5814C137.213 31.5142 137.213 31.4805 136.843 30.9762C131.161 22.7383 127.731 20.2165 125.848 19.544C125.512 19.4095 125.31 19.0396 125.445 18.6698C125.579 18.3335 125.949 18.1318 126.319 18.2663C129.345 19.3423 133.246 23.3435 137.953 30.2028C138.087 30.4046 138.155 30.5054 138.222 30.5727C138.424 30.8081 138.457 31.1443 138.289 31.3797C138.155 31.5814 137.953 31.6823 137.718 31.6823Z" fill="#261F1C"/>
<path d="M113.979 67.9291C113.979 67.9291 144.51 76.6714 145.754 87.9018C146.83 97.3502 131.699 108.312 118.115 112.044C118.115 112.044 107.49 104.613 106.582 91.8022C105.674 78.9914 113.979 67.9627 113.979 67.9627V67.9291Z" fill="#DDDCFC"/>
<path d="M143.434 95.6689C131.228 103.873 115.29 102.663 109.507 101.889C112.937 108.412 118.115 112.044 118.115 112.044C128.034 109.32 138.76 102.73 143.434 95.6689Z" fill="#9597CF"/>
<path d="M118.115 112.716C117.98 112.716 117.846 112.683 117.745 112.582C117.308 112.279 106.817 104.815 105.909 91.8358C105.001 78.9242 113.071 67.9963 113.441 67.5256C113.609 67.2902 113.912 67.223 114.147 67.2902C115.425 67.6601 145.115 76.2678 146.426 87.8345C146.931 92.4074 143.904 97.6864 137.852 102.629C132.506 107.034 125.176 110.8 118.316 112.683C118.249 112.683 118.182 112.683 118.148 112.683L118.115 112.716ZM114.248 68.736C112.836 70.7535 106.481 80.639 107.254 91.7685C108.061 103.033 116.669 110.127 118.249 111.338C131.8 107.505 146.056 96.7786 145.081 88.0027C144.577 83.6652 139.063 78.9578 129.11 74.3513C122.519 71.3251 115.996 69.274 114.214 68.736H114.248Z" fill="#7481BA"/>
<path d="M118.115 112.716C117.812 112.716 117.543 112.515 117.476 112.212C117.375 111.842 117.577 111.472 117.947 111.371C128.236 108.513 138.491 101.923 142.862 95.2991C143.064 94.9965 143.467 94.8956 143.804 95.0974C144.106 95.2991 144.207 95.7026 144.005 96.0389C139.466 102.898 128.908 109.758 118.316 112.683C118.249 112.683 118.182 112.683 118.148 112.683L118.115 112.716Z" fill="#191935"/>
<path d="M64.2489 76.3015C73.9326 69.9129 87.5168 65.9789 98.68 65.5418L99.218 77.0412C85.3313 83.9006 82.2042 89.0787 73.0248 91.8359" fill="#DDDCFC"/>
<path d="M73.0584 92.5083C72.7558 92.5083 72.4868 92.3066 72.4195 92.0376C72.3186 91.6677 72.5204 91.2979 72.8566 91.197C77.6649 89.7511 80.7919 87.5992 84.7595 84.8756C88.0883 82.5892 92.2577 79.7648 98.5118 76.6377L98.0075 66.2479C86.5753 66.8195 73.5291 70.9553 64.5851 76.8731C64.2825 77.0749 63.8454 77.0076 63.6436 76.6713C63.4419 76.3687 63.5091 75.9316 63.8454 75.7299C73.1256 69.5767 86.777 65.3064 98.6127 64.8693C98.9826 64.8693 99.2851 65.1383 99.3188 65.5082L99.8568 77.0076C99.8568 77.2766 99.7222 77.512 99.4869 77.6465C93.0647 80.8071 89.0298 83.5643 85.4993 85.9852C81.4308 88.776 78.2365 90.9616 73.2265 92.4747C73.1593 92.4747 73.092 92.4747 73.0247 92.4747L73.0584 92.5083Z" fill="#7481BA"/>
<path d="M100.428 69.0387C82.6748 81.984 47.6722 138.203 94.8804 162.917C107.792 169.676 123.326 169.978 135.868 164.935C142.425 162.312 149.351 159.219 152.176 152.662C159.607 135.312 148.813 120.08 133.279 113.12C105.136 100.544 114.786 81.0761 118.148 75.4273" fill="#DDDCFC"/>
<path d="M133.279 113.153C129.042 111.271 125.714 109.354 123.091 107.404C118.552 116.852 102.345 132.723 82.7421 154.276C94.9812 167.288 118.821 171.962 135.902 164.935C142.29 162.312 149.419 159.218 152.209 152.662C159.64 135.312 148.847 120.08 133.313 113.12L133.279 113.153Z" fill="#5B56A4"/>
<path d="M82.4396 90.4572C83.1121 90.3227 83.7509 90.1546 84.3226 89.9865C89.9042 88.4398 96.0574 86.187 102.58 84.8756C102.58 84.8756 110.079 84.3376 115.391 82.3202L117.577 74.553C112.399 76.2679 93.7373 80.8407 87.0125 83.4634C85.4322 85.649 83.919 88.0027 82.4396 90.4572Z" fill="#49488A"/>
<path d="M84.995 86.3887C91.2155 84.9429 99.9577 82.5556 108.801 80.6054L100.462 69.0387C95.8892 72.3675 90.1731 78.5879 84.995 86.3887Z" fill="#8588D1"/>
<path d="M135.397 114.162C134.691 113.792 108.196 104.008 114.248 87.1957C88.9962 109.051 92.9302 137.733 82.7085 154.276C82.7085 154.276 132.001 157.268 135.397 114.162Z" fill="#8B8BD1"/>
<path d="M117.509 168.936C109.406 168.936 101.404 167.12 94.5779 163.556C79.7833 155.822 71.7471 144.458 70.6711 129.797C68.8218 104.647 88.4919 76.9403 100.059 68.5343C100.361 68.3325 100.765 68.3662 101 68.6688C101.235 68.9714 101.168 69.3749 100.866 69.6102C89.5342 77.8818 70.2004 105.016 72.0497 129.697C73.0921 143.886 80.8929 154.881 95.2503 162.379C107.052 168.566 122.553 169.306 135.7 164.363C142.526 161.774 148.847 158.95 151.638 152.46C155 144.558 154.731 136.589 150.831 129.394C147.3 122.904 141.013 117.356 133.077 113.826C106.75 102.058 113.071 85.4472 115.761 78.3525C115.996 77.7137 116.232 77.142 116.366 76.6713C116.467 76.3351 116.871 76.1333 117.207 76.2342C117.543 76.3351 117.745 76.7386 117.644 77.0748C117.476 77.5792 117.274 78.1508 117.005 78.8233C115.727 82.2193 113.542 87.9354 114.853 94.0886C116.434 101.52 122.755 107.74 133.615 112.615C141.82 116.281 148.343 122.03 152.008 128.789C156.11 136.354 156.413 144.76 152.882 153.032C149.889 160.026 143.299 162.984 136.205 165.674C130.287 167.894 123.898 169.003 117.577 169.003L117.509 168.936Z" fill="#191935"/>
<path d="M211.859 173.845C168.887 180.872 126.924 226.669 120.771 229.089C105.741 234.974 91.1818 201.484 98.6127 186.521C120.603 142.138 185.598 141.465 212.262 134.841C220.971 132.824 220.937 167.658 211.859 173.879V173.845Z" fill="#7F4941"/>
<path d="M187.616 139.246C180.05 140.456 174.469 141.431 165.962 143.348C165.962 143.348 178.1 144.895 182.74 143.045C182.74 143.045 188.019 146.172 191.113 143.953C191.113 143.953 189.835 140.893 187.582 139.246H187.616Z" fill="#72403D"/>
<path d="M217.272 160.631C182.001 163.691 118.855 196.642 100.933 214.9C105.506 224.786 113.071 232.116 120.771 229.089C126.924 226.668 168.887 180.872 211.859 173.845C215.86 171.121 217.272 160.631 217.272 160.631Z" fill="#72403D"/>
<path d="M124.302 227.307C124.066 227.307 123.831 227.173 123.696 226.937C117.577 215.304 116.534 206.729 120.502 200.778C126.084 192.406 141.618 189.413 168.047 191.699C168.416 191.699 168.685 192.069 168.652 192.439C168.652 192.809 168.282 193.078 167.912 193.044C142.021 190.825 126.891 193.616 121.612 201.551C117.947 207.066 119.023 215.203 124.873 226.366C125.041 226.702 124.907 227.106 124.604 227.274C124.503 227.341 124.402 227.341 124.302 227.341V227.307Z" fill="#683934"/>
<path d="M100.126 185.378C99.924 185.378 99.7223 185.378 99.5542 185.378C99.1843 185.378 98.8817 185.075 98.8817 184.706C98.8817 184.336 99.1843 184.033 99.5542 184.033C107.624 184.134 115.458 182.184 124.57 179.931C141.652 175.694 162.868 170.415 194.004 178.25C194.374 178.351 194.576 178.721 194.509 179.057C194.441 179.393 194.038 179.628 193.702 179.561C162.902 171.794 142.694 176.804 124.907 181.242C116.299 183.394 108.162 185.412 100.126 185.412V185.378Z" fill="#683934"/>
<path d="M177.528 158.176C167.139 158.176 154.361 156.629 141.214 151.283C140.878 151.149 140.71 150.745 140.845 150.409C140.979 150.073 141.383 149.905 141.719 150.039C159.607 157.302 176.755 157.47 188.019 156.293C200.258 155.049 208.328 152.023 208.429 151.989C208.765 151.855 209.169 152.023 209.303 152.393C209.438 152.729 209.27 153.133 208.9 153.267C208.833 153.267 200.595 156.36 188.221 157.638C185.06 157.974 181.462 158.176 177.528 158.176Z" fill="#683934"/>
<path d="M117.24 230.434C113.643 230.434 109.944 228.518 106.514 224.786C102.311 220.179 98.8817 213.32 97.1332 205.922C95.2839 198.088 95.5865 191.094 98.0075 186.185C105.909 170.214 119.863 158.445 140.609 150.241C158.195 143.281 177.461 140.187 192.962 137.665C200.46 136.455 206.95 135.413 212.094 134.135C213.607 133.799 215.725 134.135 217.339 137.867C221.105 146.475 219.693 169.272 212.229 174.383C212.161 174.45 212.06 174.484 211.96 174.484C179.378 179.796 146.83 208.041 131.161 221.591C125.983 226.097 122.553 229.056 120.973 229.661C119.729 230.132 118.485 230.401 117.207 230.401L117.24 230.434ZM212.935 135.413C212.767 135.413 212.565 135.413 212.397 135.48C207.219 136.758 200.729 137.834 193.164 139.044C177.73 141.532 158.564 144.626 141.114 151.519C120.67 159.622 106.985 171.155 99.218 186.824C96.9652 191.363 96.6962 198.223 98.4446 205.653C100.126 212.715 103.522 219.574 107.523 223.911C110.482 227.139 115.156 230.569 120.536 228.484C121.881 227.946 125.411 224.886 130.32 220.65C146.023 207.032 178.705 178.687 211.623 173.24C218.415 168.331 219.66 146.475 216.129 138.439C215.255 136.421 214.179 135.413 212.968 135.413H212.935Z" fill="#261F1C"/>
<path d="M228.133 137.397C229.444 135.715 232.067 129.663 232.067 129.663C232.067 129.663 223.762 132.622 214.885 134.236C214.448 134.303 214.044 134.707 213.607 134.807C197.972 138.439 195.484 178.956 211.825 173.845C224.367 169.911 228.805 152.359 225.308 141.969C226.855 140.759 229.074 139.044 230.823 137.665L228.099 137.397H228.133Z" fill="#F2BD91"/>
<path d="M209.169 174.955C207.252 174.955 205.537 174.282 204.125 172.904C201.973 170.819 200.595 167.288 200.191 162.682C199.788 158.412 200.258 153.57 201.469 149.131C203.755 140.86 208.126 135.413 213.506 134.169C213.607 134.169 213.775 134.034 213.943 133.967C214.212 133.799 214.481 133.631 214.851 133.597C223.56 132.017 231.831 129.091 231.899 129.058C232.134 128.957 232.437 129.058 232.605 129.226C232.773 129.428 232.84 129.697 232.739 129.966C232.638 130.167 230.756 134.538 229.343 136.858L230.957 137.027C231.226 137.027 231.462 137.228 231.529 137.497C231.596 137.766 231.529 138.035 231.293 138.203C229.646 139.481 227.629 141.061 226.149 142.238C228.133 148.661 227.225 157.336 223.829 163.96C221.072 169.339 217.003 173.004 212.094 174.517C211.085 174.82 210.11 174.988 209.202 174.988L209.169 174.955ZM230.856 130.806C228.066 131.714 221.677 133.698 215.019 134.908C215.019 134.908 215.019 134.908 214.986 134.908C214.885 134.908 214.717 135.009 214.582 135.11C214.347 135.245 214.078 135.413 213.775 135.48C208.9 136.623 204.899 141.734 202.747 149.501C200.225 158.613 201.2 168.263 205.033 171.962C206.748 173.643 208.967 174.047 211.657 173.24C217.44 171.424 220.803 166.851 222.585 163.354C225.914 156.865 226.754 148.392 224.703 142.238C224.602 141.969 224.703 141.667 224.939 141.499C226.115 140.591 227.662 139.347 229.142 138.203L228.099 138.103C227.864 138.103 227.628 137.934 227.561 137.699C227.494 137.464 227.494 137.228 227.662 137.027C228.536 135.917 230.049 132.723 230.89 130.84L230.856 130.806Z" fill="#261F1C"/>
<path d="M95.6538 86.7249C78.5055 91.5668 64.2488 76.3015 64.2488 76.3015C53.5564 84.1695 50.194 92.6764 51.8415 99.8383C54.9686 113.523 75.5129 122.77 91.9551 116.852" fill="#DDDCFC"/>
<path d="M137.314 142.037L125.68 151.619L131.06 157.537C137.045 156.73 140.004 148.829 145.922 147.719L137.314 142.037Z" fill="#5B56A4"/>
<path d="M131.06 158.21C130.724 158.21 130.455 157.974 130.387 157.638C130.354 157.268 130.589 156.932 130.959 156.865C133.783 156.495 135.902 154.377 138.155 152.124C140.374 149.905 142.694 147.618 145.787 147.047C146.157 146.979 146.493 147.215 146.561 147.585C146.628 147.954 146.393 148.291 146.023 148.358C143.333 148.862 141.282 150.913 139.096 153.065C136.776 155.352 134.389 157.739 131.127 158.176C131.127 158.176 131.06 158.176 131.026 158.176L131.06 158.21Z" fill="#191935"/>
<path d="M133.716 204.577C135.465 208.209 136.373 210.125 137.213 210.058C138.054 209.991 139.5 204.275 139.231 202.728C139.029 201.551 137.112 199.029 135.599 197.18C132.909 193.885 128.168 197.516 130.892 200.912L133.716 204.611V204.577Z" fill="#333476"/>
<path d="M139.063 205.082C137.886 204.678 136.036 204.409 134.12 205.418C135.599 208.511 136.44 210.125 137.213 210.058C137.785 210.025 138.659 207.267 139.063 205.082Z" fill="#232355"/>
<path d="M127.126 140.019C127.126 140.019 136.204 149.064 138.625 160.295C142.19 176.77 132.775 187.396 132.775 187.396L112.869 184.706C112.869 184.706 96.0572 178.821 95.7882 161.068C95.7882 161.068 104.968 159.656 113.037 154.78C121.612 149.636 127.126 139.986 127.126 139.986V140.019Z" fill="#5B56A4"/>
<path d="M138.087 177.006C129.076 187.127 106.582 180.435 95.7882 160.631C95.99 164.901 96.7634 169.508 99.7895 174.551C103.488 180.738 112.836 184.672 112.836 184.672L132.741 187.362C132.741 187.362 136.104 183.562 138.054 177.006H138.087Z" fill="#333476"/>
<path d="M112.836 185.378C112.735 185.378 112.668 185.378 112.567 185.311C112.163 185.143 102.95 181.209 99.1842 174.887C96.9314 171.121 95.5528 166.481 95.0485 161.102C95.0485 160.732 95.2838 160.395 95.6537 160.362C96.0236 160.362 96.3598 160.597 96.3934 160.967C96.8642 166.145 98.1755 170.583 100.327 174.181C103.858 180.099 112.97 184 113.071 184.033C113.407 184.168 113.575 184.571 113.441 184.907C113.34 185.176 113.071 185.311 112.836 185.311V185.378Z" fill="#191935"/>
<path d="M132.741 188.068C132.573 188.068 132.439 188.001 132.304 187.9C132.035 187.665 132.002 187.227 132.237 186.958C132.338 186.858 141.416 176.367 137.953 160.429C135.599 149.501 126.723 140.591 126.622 140.49C126.353 140.221 126.353 139.817 126.622 139.548C126.891 139.279 127.294 139.279 127.563 139.548C127.933 139.918 136.81 148.862 139.264 160.16C142.862 176.77 133.346 187.732 133.246 187.866C133.111 188.001 132.943 188.102 132.741 188.102V188.068Z" fill="#191935"/>
<path d="M114.752 180.872C114.752 180.872 111.827 183.865 112.062 187.496C112.298 191.128 121.712 201.719 123.73 203.804L136.272 197.92C134.994 195.196 134.153 191.128 132.775 187.362L114.752 180.839V180.872Z" fill="#333476"/>
<path d="M123.73 204.477C123.562 204.477 123.394 204.409 123.259 204.275C123.158 204.14 111.693 191.901 111.39 187.53C111.121 183.63 114.147 180.536 114.248 180.402C114.517 180.133 114.921 180.133 115.19 180.402C115.458 180.671 115.458 181.074 115.19 181.343C115.19 181.343 112.466 184.168 112.701 187.463C112.903 190.489 121.006 200.038 124.201 203.333C124.47 203.602 124.436 204.039 124.201 204.275C124.066 204.409 123.898 204.477 123.73 204.477Z" fill="#191935"/>
<path d="M136.272 198.592C136.037 198.592 135.767 198.458 135.667 198.222C134.893 196.609 134.322 194.591 133.683 192.439C133.212 190.859 132.741 189.211 132.136 187.597C132.002 187.261 132.17 186.858 132.54 186.723C132.876 186.589 133.279 186.757 133.414 187.127C134.019 188.774 134.49 190.422 134.994 192.036C135.599 194.12 136.205 196.104 136.911 197.617C137.079 197.954 136.911 198.357 136.574 198.525C136.474 198.559 136.373 198.592 136.272 198.592Z" fill="#191935"/>
<path d="M137.18 210.731C135.935 210.731 135.095 208.982 133.145 204.947L130.589 201.787C130.354 201.484 130.387 201.081 130.69 200.845C130.993 200.61 131.396 200.643 131.632 200.946L134.221 204.174C134.221 204.208 134.288 204.241 134.288 204.308C135.431 206.662 136.473 208.881 137.045 209.352C137.684 208.377 138.76 204.14 138.524 202.863C138.323 201.652 136.406 199.231 135.7 198.391C135.465 198.122 135.498 197.685 135.767 197.449C136.036 197.214 136.473 197.247 136.709 197.516C137.011 197.853 139.533 200.845 139.836 202.627C140.105 204.208 138.962 209.049 138.02 210.26C137.785 210.563 137.516 210.731 137.247 210.731C137.213 210.731 137.179 210.731 137.146 210.731H137.18Z" fill="#0C0C1C"/>
<path d="M127.866 202.358C129.076 205.855 131.228 211.437 132.472 211.269C134.254 211.067 134.994 203.602 134.826 202.661C134.725 202.123 133.75 200.778 132.909 199.635C132.136 198.626 130.556 198.223 129.379 198.66C128.202 199.097 126.958 199.635 127.899 202.358H127.866Z" fill="#333476"/>
<path d="M132.506 211.269C133.683 211.134 134.422 207.805 134.725 205.317C133.784 205.015 131.464 204.544 129.48 206.36C130.488 208.949 131.665 211.37 132.506 211.269Z" fill="#232355"/>
<path d="M132.371 211.975C131.632 211.975 130.253 211.235 127.429 202.594C127.328 202.257 127.496 201.854 127.866 201.753C128.202 201.652 128.605 201.82 128.706 202.19C130.724 208.31 132.001 210.361 132.472 210.63C132.506 210.63 132.607 210.529 132.674 210.394C133.784 208.881 134.322 203.535 134.187 202.795C134.086 202.291 133.111 200.98 132.472 200.274C132.237 200.005 132.237 199.567 132.539 199.332C132.808 199.097 133.246 199.097 133.481 199.399C133.784 199.736 135.297 201.484 135.498 202.56C135.667 203.468 135.162 209.285 133.75 211.201C133.414 211.672 133.01 211.941 132.573 211.975C132.506 211.975 132.439 211.975 132.371 211.975Z" fill="#0C0C1C"/>
<path d="M123.73 203.804C123.73 203.804 125.075 210.932 126.521 211.067C127.933 211.168 129.547 206.124 128.673 201.921C127.798 197.752 122.284 199.937 123.764 203.804H123.73Z" fill="#333476"/>
<path d="M124.302 206.326C124.839 208.411 125.647 211 126.521 211.067C127.429 211.134 128.437 209.083 128.807 206.494C127.126 205.519 125.344 205.922 124.302 206.326Z" fill="#232355"/>
<path d="M126.554 211.739C126.521 211.739 126.487 211.739 126.454 211.739C124.873 211.605 123.764 207.57 123.091 204.107L122.587 203.501C122.351 203.232 122.385 202.795 122.688 202.56C122.99 202.325 123.394 202.358 123.629 202.661L124.234 203.401C124.302 203.501 124.369 203.602 124.369 203.703C124.974 206.897 125.983 209.991 126.554 210.394C126.622 210.361 126.79 210.226 126.991 209.89C127.967 208.343 128.605 204.947 127.967 202.089C127.899 201.719 128.101 201.35 128.471 201.282C128.841 201.181 129.211 201.417 129.278 201.787C130.085 205.317 129.143 209.487 127.798 211.067C127.328 211.638 126.857 211.773 126.521 211.773L126.554 211.739Z" fill="#0C0C1C"/>
<path d="M90.1058 115.003C90.1058 115.003 88.5254 116.785 84.356 118.567C69.7632 119.912 54.5315 111.506 51.8752 99.872C50.5302 94.0214 51.9088 85.4809 64.2824 76.3351C56.8179 90.1882 65.0222 107.337 81.1954 109.724C81.1954 109.724 80.0858 110.8 78.2364 111.136C78.2364 111.136 83.9189 114.667 90.1394 115.07L90.1058 115.003Z" fill="#9597CF"/>
<path d="M57.8603 64.5667C60.2476 67.4583 59.0035 73.8806 56.549 72.3339C54.0944 70.7872 45.722 59.4558 45.722 59.4558C45.6548 58.1445 47.4705 56.2279 48.2438 56.3288C49.0172 56.396 55.1368 61.2715 57.8603 64.6003V64.5667Z" fill="#7F4941"/>
<path d="M57.2886 73.2417C56.9188 73.2417 56.5489 73.1408 56.2127 72.9054C53.6908 71.2915 45.5538 60.33 45.184 59.8593C45.1167 59.7584 45.0495 59.6239 45.0495 59.4894C44.9822 58.4134 45.7892 57.2366 46.5289 56.5305C46.966 56.0934 47.6385 55.589 48.311 55.6563C49.5551 55.7572 55.9437 61.1706 58.3982 64.1632C60.3148 66.5169 60.2139 70.888 58.7008 72.5692C58.2974 73.0399 57.793 73.2417 57.2886 73.2417ZM46.3944 59.2541C48.8154 62.5156 55.0358 70.5854 56.9188 71.7622C57.255 71.964 57.4568 71.9304 57.6921 71.6614C58.7008 70.5518 58.9026 66.8867 57.3559 65.0038C54.7668 61.8431 49.1852 57.4047 48.1765 57.0012C47.773 57.1021 46.5289 58.3462 46.428 59.2541H46.3944Z" fill="#261F1C"/>
<path d="M51.3709 62.0112C48.7818 42.3075 63.5764 30.9762 63.5764 30.9762C72.0497 51.9913 51.3709 62.0112 51.3709 62.0112Z" fill="#47B585"/>
<path d="M51.3709 62.6837C51.27 62.6837 51.1355 62.6838 51.0682 62.6165C50.8665 62.5156 50.7656 62.3139 50.732 62.1121C49.3534 51.7223 52.8167 43.6861 55.9774 38.7434C59.3734 33.3972 63.0384 30.5727 63.2065 30.4382C63.3747 30.3037 63.5764 30.2701 63.7781 30.3374C63.9799 30.4046 64.148 30.5391 64.2153 30.7408C68.7209 41.904 65.0559 49.9738 61.1891 54.8157C57.0197 59.9938 51.9088 62.5156 51.6735 62.6501C51.5726 62.6837 51.4717 62.7174 51.3709 62.7174V62.6837ZM63.3074 32.0858C60.5166 34.574 50.2949 44.863 51.9425 60.9353C53.5564 59.9938 57.1878 57.6738 60.1804 53.9079C65.2576 47.5529 66.3 40.1892 63.3074 32.0858Z" fill="#2B5B4C"/>
<path d="M51.6063 59.0523C41.9561 44.0896 48.8491 34.6748 48.8491 34.6748C57.6922 48.1917 51.6063 59.0523 51.6063 59.0523Z" fill="#47B585"/>
<path d="M51.6062 59.7248C51.3709 59.7248 51.1691 59.6239 51.0347 59.4222C41.25 44.2241 48.0084 34.6748 48.3111 34.2713C48.4456 34.1032 48.6473 34.0023 48.8827 34.0023C49.1181 34.0023 49.3198 34.1369 49.4207 34.305C54.0944 41.4669 54.5988 47.8891 54.2289 51.9912C53.7918 56.4969 52.2787 59.2541 52.2115 59.3885C52.1106 59.5903 51.8752 59.7248 51.6399 59.7248H51.6062ZM48.8827 35.9862C47.5714 38.5416 44.7469 46.4096 51.5054 57.6401C52.6822 54.6812 55.0695 46.1407 48.8827 35.9862Z" fill="#2B5B4C"/>
<path d="M50.463 63.4571C50.3621 63.4571 50.2949 63.4571 50.194 63.3898C49.925 63.2553 49.7569 62.9863 49.7905 62.6837C51.3372 52.5292 48.7482 41.1307 48.7482 40.9962C48.6809 40.6263 48.8827 40.2564 49.2525 40.1892C49.6224 40.1219 49.9586 40.3237 50.0595 40.6936C50.0595 40.7944 52.3123 50.6127 51.4381 60.2628C60.3485 47.5529 61.4917 39.1132 61.5253 39.046C61.5589 38.6761 61.8952 38.4071 62.265 38.4744C62.6349 38.508 62.9039 38.8442 62.8367 39.2141C62.803 39.6176 61.5253 49.0323 51.001 63.1881C50.8665 63.3562 50.6647 63.4571 50.463 63.4571Z" fill="#261F1C"/>
<path d="M49.3534 65.5417C27.8676 63.0536 23.6646 79.832 23.6646 79.832C41.7879 75.0574 49.3534 65.5417 49.3534 65.5417Z" fill="#47B585"/>
<path d="M23.6646 80.5045C23.4965 80.5045 23.3284 80.4373 23.1939 80.3028C23.0258 80.1347 22.9585 79.8993 23.0258 79.6639C23.0594 79.4958 24.169 75.2591 27.9685 71.2915C34.3235 64.6676 43.1666 64.1296 49.4207 64.8693C49.6561 64.8693 49.8578 65.0711 49.9587 65.2728C50.0595 65.5082 50.0259 65.7436 49.8578 65.9453C49.5552 66.3488 41.9225 75.6963 23.7991 80.4709C23.7319 80.4709 23.6983 80.4709 23.631 80.4709L23.6646 80.5045ZM45.0832 65.9453C38.3584 65.9453 32.9113 68.03 28.91 72.1994C26.4891 74.7212 25.245 77.3775 24.6734 78.8233C38.1903 74.9902 45.5539 68.4671 47.9412 66.0462C46.9661 65.9789 46.0246 65.9116 45.0832 65.9116V65.9453Z" fill="#2B5B4C"/>
<path d="M31.7681 74.0151C31.5663 74.0151 31.331 73.9142 31.1965 73.7124C30.9948 73.4098 31.062 72.9727 31.3646 72.7709C42.0235 65.609 51.0683 64.6339 51.4382 64.6003C51.8081 64.5667 52.1443 64.8357 52.1779 65.2055C52.2115 65.5754 51.9426 65.9117 51.5727 65.9453C51.4718 65.9453 42.4942 66.9204 32.1043 73.9142C32.0035 73.9814 31.869 74.0151 31.7345 74.0151H31.7681Z" fill="#261F1C"/>
<path d="M81.1619 119.374C67.1406 119.374 53.7246 111.035 51.2028 100.006C50.0932 95.2319 50.2949 85.7499 63.8455 75.7635C64.1481 75.5281 64.5515 75.5954 64.7869 75.898C65.0223 76.2006 64.9551 76.6041 64.6524 76.8395C51.7072 86.3551 51.4718 95.2655 52.5141 99.7039C53.7582 105.185 58.1293 110.295 64.4507 113.759C70.772 117.222 78.4383 118.668 85.4657 117.76C85.8356 117.726 86.1719 117.962 86.2055 118.332C86.2391 118.701 86.0037 119.038 85.6339 119.071C84.1544 119.273 82.675 119.34 81.1955 119.34L81.1619 119.374Z" fill="#191935"/>
<path d="M88.828 88.3389C86.8106 88.3389 84.7931 88.1036 82.7085 87.6328C82.3386 87.5656 82.1032 87.1957 82.2041 86.8259C82.2713 86.456 82.6412 86.2206 83.0111 86.3215C87.2813 87.2966 91.4843 87.1957 95.4856 86.0525C95.8555 85.9516 96.2253 86.1534 96.3262 86.5232C96.4271 86.8931 96.2254 87.263 95.8555 87.3638C93.5691 88.0027 91.2153 88.3389 88.828 88.3389Z" fill="#191935"/>
<path d="M53.1529 98.5607C50.2949 94.055 50.3285 90.0201 50.3285 90.0201C50.3285 90.0201 52.0097 92.6764 53.8927 94.4585" fill="#9597CF"/>
<path d="M53.1529 99.2331C52.9176 99.2331 52.7158 99.1323 52.5813 98.9305C49.6224 94.324 49.656 90.1882 49.656 90.0201C49.656 89.7175 49.8578 89.4485 50.1604 89.3813C50.463 89.314 50.7656 89.4149 50.9001 89.6839C50.9001 89.6839 52.5477 92.2729 54.3298 93.9877C54.5988 94.2567 54.5988 94.6602 54.3298 94.9292C54.0608 95.1982 53.6573 95.1982 53.3883 94.9292C52.6486 94.2231 51.9088 93.3825 51.3372 92.6092C51.6735 94.0886 52.346 96.1061 53.6909 98.1908C53.8927 98.4934 53.7918 98.9305 53.4892 99.1322C53.3883 99.1995 53.2538 99.2331 53.1193 99.2331H53.1529Z" fill="#191935"/>
<path d="M55.7084 105.588C49.3534 99.334 47.7731 92.8446 47.7731 92.8446C47.7731 92.8446 51.8416 96.6777 55.9101 98.8969" fill="#9597CF"/>
<path d="M55.7083 106.261C55.5402 106.261 55.3721 106.193 55.2376 106.059C48.8154 99.7374 47.1678 93.2816 47.1006 93.0126C47.0333 92.71 47.1678 92.4074 47.4032 92.2729C47.6722 92.1384 47.9748 92.172 48.2102 92.3738C48.2438 92.4074 52.2787 96.1733 56.2127 98.3252C56.5489 98.4934 56.6498 98.8969 56.4817 99.2331C56.3136 99.5693 55.9101 99.6702 55.5739 99.5021C53.1866 98.2244 50.8328 96.4087 49.2525 95.0637C50.2612 97.451 52.3459 101.351 56.1791 105.117C56.4481 105.386 56.4481 105.79 56.1791 106.059C56.0446 106.193 55.8764 106.261 55.7083 106.261Z" fill="#191935"/>
<path d="M182.135 133.765C182.135 133.765 186.977 133.496 187.784 134.101C188.591 134.707 192.458 140.019 191.146 141.364C190.339 142.171 186.809 140.86 183.614 139.145H180.454" fill="#333476"/>
<path d="M190.978 141.331C191.819 140.456 190.877 138.271 189.364 136.152C188.389 136.522 186.203 137.665 185.867 140.355C188.523 141.667 190.373 141.936 190.978 141.331Z" fill="#232355"/>
<path d="M190.306 142.272C188.322 142.272 185.128 140.692 183.446 139.817H180.454C180.084 139.817 179.781 139.515 179.781 139.145C179.781 138.775 180.084 138.472 180.454 138.472H183.614C183.715 138.472 183.85 138.472 183.951 138.54C187.952 140.725 190.306 141.129 190.676 140.893C190.709 140.826 190.743 140.692 190.743 140.456C190.608 138.641 187.918 135.043 187.38 134.639C187.01 134.404 184.926 134.269 182.807 134.404C182.438 134.404 182.135 134.135 182.101 133.765C182.101 133.395 182.37 133.093 182.74 133.059C184.085 132.992 187.279 132.891 188.187 133.563C188.893 134.101 191.886 138.035 192.088 140.355C192.121 140.994 191.987 141.465 191.651 141.835C191.348 142.138 190.877 142.272 190.306 142.272Z" fill="#0C0C1C"/>
<path opacity="0.2" d="M115.559 43.9215C113.306 45.1656 112.466 46.9813 112.466 46.9813L119.09 58.9851C122.116 58.8169 125.646 53.9415 125.646 53.9415L120.737 45.8044C119.561 43.8542 117.207 43.0136 115.559 43.9215Z" fill="#DEF5FF"/>
<path d="M119.123 59.6575C118.888 59.6575 118.653 59.5231 118.552 59.3213L111.928 47.3175C111.827 47.1158 111.827 46.914 111.928 46.7123C111.961 46.645 112.903 44.6612 115.29 43.3162C117.274 42.2403 119.998 43.1817 121.376 45.4346L126.285 53.5716C126.42 53.807 126.42 54.1096 126.285 54.3113C126.151 54.5131 122.553 59.4222 119.224 59.6239C119.224 59.6239 119.224 59.6239 119.191 59.6239L119.123 59.6575ZM113.239 46.9813L119.46 58.2454C121.41 57.8082 123.763 55.2528 124.839 53.9078L120.166 46.1407C119.191 44.5267 117.207 43.7534 115.895 44.4931C114.382 45.3001 113.575 46.4433 113.273 46.9813H113.239Z" fill="#191935"/>
<path d="M106.178 69.8793C106.01 69.8793 105.876 69.8121 105.775 69.6776C105.607 69.4422 105.674 69.1396 105.876 68.9715C105.876 68.9715 108.162 67.2566 108.33 64.6676C108.33 64.3986 108.599 64.1632 108.868 64.1968C109.137 64.1968 109.372 64.4658 109.339 64.7348C109.171 67.7946 106.582 69.7112 106.481 69.7784C106.38 69.8457 106.279 69.8793 106.178 69.8793Z" fill="#191935"/>
<path d="M94.5779 78.9578C94.5779 78.9578 91.4172 70.1483 93.4683 64.4658C95.3512 59.2205 100.395 54.9166 106.582 51.117C128.067 37.8019 158.901 38.8106 172.519 42.4756C180.05 44.5267 175.915 48.7297 169.459 49.5367C131.934 54.2105 132.708 74.9902 109.036 80.5718" fill="#8588D1"/>
<path d="M162.667 48.1581L163.171 50.5118C147.2 53.6389 139.231 60.0274 132.27 66.2479C144.476 51.5878 155.101 48.1581 162.667 48.1581Z" fill="#49488A"/>
<path d="M165.155 41.1979C161.053 43.8206 160.078 48.5616 159.472 51.2851C159.472 51.2851 167.105 49.8057 170.4 49.3013C178.672 48.0908 176.957 43.6861 174.166 42.7782C171.913 42.0385 168.551 41.9376 165.188 41.1643L165.155 41.1979Z" fill="#49488A"/>
<path d="M103.69 53.1681C129.143 34.9102 167.172 41.0971 173.561 42.8791C173.561 42.8791 176.755 44.2913 176.352 45.8717C170.602 43.0809 135.7 35.7508 103.724 53.1681H103.69Z" fill="#DCE5EA"/>
<path d="M103.69 53.8406C103.455 53.8406 103.253 53.7397 103.118 53.538C102.917 53.2354 103.017 52.8319 103.286 52.6301C110.785 47.2503 124.234 40.6599 145.72 39.853C159.674 39.315 170.871 41.4669 173.695 42.2739C173.695 42.2739 173.763 42.2739 173.796 42.2739C174.166 42.442 177.495 43.9887 176.957 46.0398C176.89 46.2415 176.755 46.4097 176.587 46.4769C176.419 46.5778 176.184 46.5442 176.015 46.4769C173.426 45.2328 163.608 42.6102 149.822 42.6102C138.256 42.6102 120.939 44.5603 103.993 53.7397C103.892 53.807 103.791 53.807 103.656 53.807L103.69 53.8406ZM150.159 41.0971C148.746 41.0971 147.267 41.097 145.787 41.1643C138.962 41.4333 130.387 42.4084 121.78 45.0983C132.439 42.0722 142.324 41.2652 149.822 41.2652C161.893 41.2652 171.039 43.249 175.074 44.6612C174.603 44.2241 173.897 43.8206 173.292 43.518C170.736 42.8119 161.759 41.0971 150.125 41.0971H150.159Z" fill="#DCE5EA"/>
<path d="M108.767 81.2779C108.465 81.2779 108.196 81.0761 108.128 80.7399C108.061 80.37 108.263 80.0338 108.633 79.9329C118.619 77.6465 124.268 72.5356 130.253 67.1557C138.356 59.8593 147.502 51.5878 169.358 48.8642C173.157 48.3935 175.78 46.7459 175.881 45.5018C175.948 44.6276 174.603 43.7534 172.35 43.1145C157.421 39.0796 127.294 39.046 106.952 51.655C99.8232 56.0934 95.7547 60.2292 94.1407 64.6675C92.1905 70.0474 95.2167 78.6216 95.2503 78.7224C95.3848 79.0587 95.1831 79.4622 94.8469 79.5967C94.5106 79.7311 94.1071 79.5294 93.9726 79.1931C93.8381 78.8233 90.7447 70.081 92.863 64.2304C94.5778 59.4558 98.8481 55.1183 106.245 50.5118C126.924 37.701 157.556 37.701 172.72 41.8032C176.621 42.8455 177.327 44.4258 177.259 45.5691C177.125 47.6874 173.863 49.6376 169.56 50.1756C148.141 52.8655 139.533 60.6327 131.194 68.1308C125.075 73.6452 119.325 78.8569 108.969 81.2442C108.902 81.2442 108.868 81.2442 108.834 81.2442L108.767 81.2779Z" fill="#191935"/>
<path d="M168.887 45.8044C170.434 46.107 171.543 45.7035 172.485 45.4682C173.426 45.2328 173.225 46.1406 172.418 46.2751C170.669 46.5778 168.887 45.8044 168.887 45.8044Z" fill="black"/>
<path d="M171.577 47.0149C170.03 47.0149 168.685 46.4433 168.618 46.4097C168.315 46.2752 168.147 45.9053 168.248 45.6027C168.349 45.2664 168.685 45.0647 169.022 45.132C170.198 45.3673 171.106 45.1319 171.913 44.9302C172.048 44.8966 172.216 44.863 172.35 44.8293C172.754 44.7285 173.124 44.8293 173.393 45.132C173.628 45.4009 173.729 45.8044 173.594 46.1407C173.46 46.5442 173.09 46.8468 172.586 46.9476C172.25 47.0149 171.913 47.0485 171.611 47.0485L171.577 47.0149Z" fill="black"/>
<path d="M108.364 51.3188C108.061 51.3188 107.792 51.117 107.725 50.8144C107.59 50.2764 107.187 48.4607 107.321 47.721C107.523 46.7795 109.541 45.3001 110.381 45.3001C111.155 45.3001 112.466 46.1743 112.869 46.4433C113.172 46.645 113.239 47.0821 113.037 47.3848C112.836 47.6874 112.399 47.7546 112.096 47.5529C111.457 47.1158 110.65 46.7123 110.381 46.645C109.978 46.7795 108.767 47.6874 108.633 48.0572C108.566 48.2926 108.767 49.4358 109.036 50.5118C109.137 50.8817 108.902 51.2515 108.532 51.3188C108.465 51.3188 108.431 51.3188 108.364 51.3188Z" fill="#191935"/>
<path d="M96.6289 54.3113C96.1245 54.3113 95.6874 53.9078 95.6202 53.4035C95.6202 53.2017 95.1495 48.259 98.5119 46.0398C98.9826 45.7372 99.5878 45.8717 99.9241 46.3088C100.227 46.7795 100.092 47.3848 99.6551 47.721C97.3014 49.2677 97.6377 53.1681 97.6713 53.2354C97.7385 53.7733 97.3014 54.2777 96.7634 54.3449C96.7634 54.3449 96.6962 54.3449 96.6626 54.3449L96.6289 54.3113Z" fill="#191935"/>
<path d="M94.1408 64.7348C94.1408 64.7348 85.8357 66.2142 84.6588 67.5928C83.482 68.9714 84.3898 71.426 85.802 73.3762C87.2815 75.4609 90.0723 76.0997 90.7784 75.7299C91.9552 75.091 93.4347 72.6364 93.4347 72.6364" fill="#D2D2FB"/>
<path d="M85.9364 68.5343C85.6674 68.5343 85.4321 68.3998 85.3312 68.1308C85.1967 67.7946 85.3312 67.3911 85.6674 67.2566C85.7683 67.1893 88.5927 65.9789 93.5018 64.9029C93.8717 64.8356 94.2079 65.071 94.3088 65.4073C94.3761 65.7771 94.1407 66.1134 93.8045 66.2142C89.0298 67.2566 86.239 68.4671 86.2054 68.4671C86.1045 68.5007 86.0373 68.5343 85.9364 68.5343Z" fill="white"/>
<path d="M90.2067 76.5032C88.7945 76.5032 86.5417 75.5618 85.264 73.746C84.3561 72.4683 84.0199 70.8208 83.919 69.9802C83.8181 69.3077 83.6836 67.6937 84.188 67.1221C85.4657 65.6427 92.6277 64.2977 94.0735 64.0623C94.4434 63.995 94.7796 64.2304 94.8469 64.6003C94.9141 64.9702 94.6787 65.3064 94.3089 65.3736C91.0137 65.9452 86.1046 67.1221 85.264 67.9627C85.0958 68.5007 85.2303 71.2915 86.4072 72.9727C87.7185 74.7884 90.1058 75.2928 90.5093 75.1246C91.2154 74.7548 92.3587 73.1744 92.8967 72.2666C93.0984 71.964 93.5019 71.8295 93.8045 72.0312C94.1071 72.233 94.2416 72.6364 94.0398 72.9391C93.8717 73.2081 92.4259 75.5954 91.1146 76.3015C90.8792 76.436 90.5766 76.4696 90.2403 76.4696L90.2067 76.5032Z" fill="#49488A"/>
<path d="M89.9378 67.3911C86.7098 67.7273 86.1719 70.3164 86.1719 70.3164C87.147 69.8457 88.1557 69.7112 88.1557 69.7112C87.7858 71.157 88.2902 72.6365 88.2902 72.6365C88.2902 72.6365 89.0635 71.8967 89.467 71.3588C89.467 71.3588 90.1395 71.8295 90.8456 72.0985C90.8456 72.0985 92.3923 69.1059 92.6949 68.0972C92.6949 68.0972 91.3163 67.2566 89.9714 67.3911H89.9378Z" fill="#6A6DB8"/>
<path d="M84.457 69.3413C84.2216 69.3413 84.0199 69.2068 83.8854 69.0051C83.6836 68.6688 83.8181 68.2653 84.1207 68.0972C88.7608 65.3736 93.4682 67.2902 93.67 67.3911C94.0062 67.5256 94.1743 67.9291 94.0398 68.2653C93.9053 68.6016 93.5018 68.7697 93.1656 68.6352C93.132 68.6352 88.8281 66.8867 84.8269 69.274C84.726 69.3413 84.5915 69.3749 84.4906 69.3749L84.457 69.3413Z" fill="#49488A"/>
<path d="M101.269 63.5243C100.966 63.5243 100.664 63.5243 100.361 63.4907C99.9913 63.4571 99.7223 63.1208 99.7559 62.751C99.7895 62.3811 100.126 62.1121 100.496 62.1457C105.068 62.6165 107.96 58.6488 107.994 58.6152C108.196 58.3126 108.633 58.2453 108.935 58.4471C109.238 58.6488 109.305 59.0859 109.103 59.3885C108.969 59.5567 106.077 63.5243 101.269 63.5243Z" fill="#191935"/>
<path opacity="0.2" d="M108.364 50.6463C103.387 51.117 98.4782 54.4122 96.1245 56.9676C95.0822 58.1108 94.9477 59.7584 95.7883 61.1706L99.5878 67.761C100.697 69.6775 103.253 70.5854 105.27 69.7448C109.204 68.0636 112.432 66.0125 114.013 63.9951C114.954 62.8182 114.988 61.1706 114.113 59.7921L108.364 50.6463Z" fill="#DEF5FF"/>
<path d="M125.075 69.0387C123.057 69.0387 120.771 68.5679 118.451 67.1557C118.148 66.954 118.048 66.5505 118.216 66.2478C118.417 65.9452 118.821 65.8444 119.123 66.0125C125.647 69.9801 131.598 65.878 131.867 65.7099C132.17 65.5081 132.573 65.5754 132.808 65.878C133.044 66.1806 132.943 66.5841 132.64 66.8195C132.607 66.8195 129.412 69.0723 125.041 69.0723L125.075 69.0387Z" fill="#191935"/>
<path d="M103.623 70.7199C101.807 70.7199 99.9576 69.7448 98.9825 68.0972L95.1831 61.5069C94.208 59.8257 94.376 57.8755 95.6201 56.4969C98.2092 53.7061 103.253 50.4446 108.263 49.9738C108.498 49.9738 108.767 50.0747 108.902 50.2764L114.651 59.4222C115.694 61.0362 115.626 62.9863 114.483 64.3985C112.836 66.4496 109.641 68.568 105.472 70.35C104.867 70.619 104.228 70.7199 103.589 70.7199H103.623ZM108.027 51.3524C103.69 51.924 99.0498 54.7821 96.6288 57.4048C95.7882 58.3126 95.6874 59.6576 96.3599 60.8008L100.159 67.3911C101.134 69.0387 103.286 69.812 104.968 69.0723C108.902 67.3911 111.995 65.3737 113.475 63.5243C114.248 62.5829 114.248 61.2379 113.542 60.1283L107.994 51.3524H108.027Z" fill="#191935"/>
<path d="M113.643 42.6774C113.508 42.6774 113.374 42.6774 113.273 42.6101C113.273 42.6101 111.827 42.0385 110.785 42.6101C110.28 42.8455 109.675 42.6437 109.44 42.173C109.204 41.7023 109.406 41.0634 109.877 40.828C111.76 39.8866 113.945 40.7608 114.046 40.828C114.551 41.0298 114.82 41.635 114.584 42.1394C114.416 42.5429 114.046 42.7783 113.643 42.7783V42.6774Z" fill="#191935"/>
<path d="M194.004 74.284C194.441 75.2591 193.534 76.6041 188.12 78.9578C182.707 81.3115 179.311 81.8831 178.873 80.908C178.436 79.9329 181.16 77.8146 186.573 75.4273C191.987 73.0736 193.567 73.3089 194.004 74.284Z" fill="#3EBAA2"/>
<path opacity="0.4" d="M180.454 79.5966C180.454 79.5966 175.982 73.1408 174.637 68.4671C173.998 66.2815 174.906 64.9029 176.284 64.3313C177.663 63.7597 179.949 64.4658 180.925 67.7609C183.043 74.8892 180.487 79.5966 180.487 79.5966H180.454Z" fill="#76ECFF"/>
<path opacity="0.4" d="M180.319 79.6639C180.319 79.6639 172.888 74.1495 169.391 69.6103C167.744 67.492 168.013 65.7772 169.156 64.8021C170.266 63.827 172.888 63.9278 175.377 67.1221C180.723 74.0151 180.319 79.6639 180.319 79.6639Z" fill="#76ECFF"/>
<path opacity="0.4" d="M180.05 79.5294C180.05 79.5294 187.179 76.2006 192.021 75.6626C194.273 75.3936 195.517 76.5032 195.82 77.9827C196.123 79.4285 195.08 81.5805 191.651 81.984C184.287 82.8582 180.084 79.563 180.084 79.563L180.05 79.5294Z" fill="#76ECFF"/>
<path opacity="0.4" d="M180.017 79.4286C180.017 79.4286 189.263 79.4958 194.778 81.0761C197.333 81.8159 198.14 83.3626 197.804 84.8084C197.468 86.2543 195.316 87.7337 191.415 86.6241C183.009 84.2368 180.017 79.4286 180.017 79.4286Z" fill="#76ECFF"/>
<path d="M180.756 80.0674C181.294 81.2779 181.16 82.4884 178.84 83.4971C176.52 84.5058 174.771 84.1023 174.267 82.9255C173.763 81.7486 174.637 80.1683 176.957 79.1596C179.277 78.1508 180.252 78.8906 180.756 80.0674Z" fill="#25A088"/>
<path d="M175.357 82.2634C175.478 80.7269 174.525 79.3985 173.229 79.2965C171.934 79.1946 170.785 80.3575 170.664 81.8941C170.543 83.4307 171.496 84.759 172.791 84.861C174.087 84.963 175.236 83.8 175.357 82.2634Z" fill="#3EBAA2"/>
<path d="M171.745 82.4547C172.115 82.7909 172.754 82.6228 173.157 82.0176C173.561 81.4123 173.628 80.6726 173.258 80.3364C172.888 80.0001 172.25 80.1683 171.846 80.7735C171.443 81.3451 171.375 82.1185 171.745 82.4547Z" fill="#DDEDE8"/>
<path d="M178.631 83.9521C178.752 82.4155 177.799 81.0872 176.504 80.9852C175.208 80.8832 174.059 82.0462 173.938 83.5827C173.817 85.1193 174.77 86.4475 176.066 86.5495C177.362 86.6515 178.51 85.4886 178.631 83.9521Z" fill="#3EBAA2"/>
<path d="M175.108 83.9678C175.477 84.304 176.116 84.1359 176.52 83.5307C176.923 82.9591 176.991 82.1857 176.621 81.8495C176.251 81.5132 175.612 81.6814 175.208 82.2866C174.805 82.8582 174.738 83.6316 175.108 83.9678Z" fill="#DDEDE8"/>
<path d="M225.342 141.969C224.569 139.515 222.349 137.699 222.349 137.699L225.342 141.969Z" fill="#F2BD91"/>
<path d="M225.342 142.642C225.073 142.642 224.804 142.474 224.703 142.171C223.997 139.952 221.946 138.237 221.946 138.203C221.677 137.968 221.61 137.531 221.845 137.262C222.08 136.993 222.518 136.926 222.787 137.161C222.887 137.228 225.14 139.145 225.981 141.768C226.082 142.137 225.88 142.507 225.544 142.608C225.476 142.608 225.409 142.608 225.342 142.608V142.642Z" fill="#261F1C"/>
<path d="M212.464 168.499C212.296 168.499 212.128 168.499 211.96 168.499C209.37 168.196 207.454 166.75 206.412 164.262C205.302 161.606 205.201 157.874 206.143 153.704C207.017 149.837 208.664 146.105 210.682 143.482C212.767 140.793 214.986 139.548 217.138 139.851C218.516 140.053 220.332 141.061 221.24 144.693C221.845 147.114 221.912 150.308 221.475 153.704C220.5 161.202 217.138 168.532 212.464 168.532V168.499ZM216.499 141.095C214.986 141.095 213.305 142.205 211.724 144.256C207.185 150.174 205.806 159.387 207.622 163.691C208.463 165.708 209.976 166.851 212.094 167.12C214.381 167.389 216.129 165.17 217.171 163.287C218.583 160.765 219.659 157.201 220.13 153.502C221.173 145.466 219.189 141.465 216.936 141.162C216.801 141.162 216.667 141.162 216.499 141.162V141.095Z" fill="#CC9369"/>
<path d="M212.43 162.312C211.657 162.312 211.018 161.942 210.615 161.202C209.135 158.58 210.917 151.62 212.867 148.492C213.742 147.08 214.65 146.374 215.557 146.408C216.398 146.441 217.776 147.08 217.676 150.88C217.608 154.78 215.658 162.346 212.43 162.346V162.312ZM215.49 147.719C215.187 147.719 214.649 148.089 214.011 149.165C211.993 152.427 210.783 158.714 211.791 160.53C211.993 160.9 212.229 160.967 212.43 160.967C214.078 160.967 216.23 155.385 216.331 150.813C216.364 148.694 215.927 147.719 215.49 147.719Z" fill="#CC9369"/>
<path d="M202.982 136.724C209.808 135.547 223.392 132.286 223.392 132.286C219.727 133.16 210.749 138.741 210.749 138.741H214.582L209.841 140.961L211.489 143.449L209.169 144.155L208.564 148.257L200.057 150.947" fill="#7F4941"/>
<path d="M200.057 151.586C199.754 151.586 199.519 151.418 199.418 151.115C199.317 150.745 199.519 150.375 199.855 150.274L207.992 147.719L208.53 144.02C208.563 143.751 208.765 143.55 209.001 143.482L210.446 143.045L209.303 141.297C209.202 141.129 209.169 140.927 209.202 140.759C209.236 140.591 209.404 140.423 209.572 140.322L211.556 139.414H210.783C210.48 139.414 210.211 139.212 210.144 138.91C210.077 138.607 210.177 138.304 210.446 138.17C210.648 138.035 213.574 136.253 216.734 134.538C212.329 135.547 206.748 136.758 203.15 137.396C202.78 137.464 202.444 137.228 202.377 136.858C202.309 136.489 202.545 136.152 202.915 136.085C209.639 134.908 223.156 131.68 223.291 131.647C223.661 131.546 224.031 131.781 224.098 132.151C224.199 132.521 223.963 132.891 223.593 132.958C221.139 133.563 216.095 136.388 213.237 138.069H214.649C214.952 138.069 215.255 138.304 215.322 138.607C215.389 138.91 215.221 139.246 214.952 139.347L210.917 141.23L212.128 143.079C212.229 143.247 212.262 143.482 212.195 143.684C212.128 143.886 211.96 144.054 211.758 144.088L209.841 144.659L209.303 148.324C209.27 148.593 209.102 148.795 208.833 148.862L200.326 151.552C200.258 151.552 200.191 151.552 200.124 151.552L200.057 151.586Z" fill="#261F1C"/>
</g>
<defs>
<clipPath id="clip0_884_63356">
<rect width="256" height="256" fill="white"/>
</clipPath>
</defs>
</svg>
