<svg width="256" height="256" viewBox="0 0 256 256" fill="none" xmlns="http://www.w3.org/2000/svg">
<path d="M106.378 143.868C109.715 179.468 137.816 217.958 137.816 217.958C130.559 219.299 124.505 219.437 124.505 219.437C91.1405 191.679 106.378 143.868 106.378 143.868Z" fill="#DDDCFC"/>
<path d="M137.816 218.646C137.61 218.646 137.403 218.543 137.266 218.371C137.197 218.267 130.111 208.533 122.751 194.603C115.94 181.704 107.444 162.442 105.69 143.972C105.656 143.593 105.931 143.249 106.309 143.215C106.688 143.18 107.032 143.456 107.066 143.834C108.786 162.098 117.213 181.154 123.955 193.949C131.281 207.811 138.298 217.476 138.367 217.58C138.607 217.889 138.539 218.302 138.229 218.543C138.091 218.646 137.954 218.68 137.816 218.68V218.646Z" fill="#7481BA"/>
<path d="M80.6154 221.535C56.2972 221.535 33.2861 219.678 12.9236 216.376C20.4907 120.754 104.349 95.5072 104.349 95.5072L131.453 116.523C87.4945 135.923 114.53 199.865 124.471 219.403C110.574 220.744 95.8529 221.501 80.6154 221.501V221.535Z" fill="#DDDCFC"/>
<path d="M12.9235 217.064C12.9235 217.064 12.8891 217.064 12.8547 217.064C12.4764 217.064 12.2012 216.685 12.2356 216.307C13.9554 194.396 19.8715 174.378 29.812 156.801C37.7575 142.733 48.2484 130.213 61.0438 119.55C82.8166 101.423 103.936 94.9225 104.142 94.8537C104.521 94.7505 104.899 94.957 105.002 95.3009C105.105 95.6793 104.899 96.0576 104.555 96.1608C104.349 96.2296 83.4358 102.662 61.8694 120.651C49.2116 131.21 38.8239 143.593 30.9815 157.524C21.1786 174.928 15.3313 194.74 13.6114 216.444C13.6114 216.788 13.2675 217.064 12.9235 217.064Z" fill="#7481BA"/>
<path d="M124.505 219.437C121.168 212.867 115.906 201.344 112.053 188.171C103.626 197.974 100.221 211.147 99.1893 221.157C107.857 220.813 116.319 220.228 124.471 219.437H124.505Z" fill="#57539F"/>
<path d="M55.5749 220.847C63.7268 221.294 72.085 221.535 80.6497 221.535C89.2143 221.535 96.7816 221.329 104.589 220.916C107.169 203.615 112.432 189.409 112.432 189.409C106.928 171.144 103.936 149.509 112.501 133.584C100.084 140.876 69.5053 163.99 55.5404 220.847H55.5749Z" fill="#8B8BD1"/>
<path d="M124.505 220.125C124.264 220.125 124.023 219.987 123.886 219.746C121.203 214.449 114.496 200.381 110.23 184.146C105.449 165.916 105.174 150.713 109.405 138.881C113.154 128.39 120.481 120.651 131.212 115.904C131.556 115.767 131.969 115.904 132.107 116.248C132.244 116.592 132.107 117.005 131.763 117.143C121.409 121.717 114.324 129.181 110.712 139.328C106.585 150.885 106.894 165.848 111.572 183.802C115.768 199.9 122.441 213.865 125.124 219.127C125.296 219.471 125.159 219.884 124.815 220.056C124.711 220.09 124.608 220.125 124.505 220.125Z" fill="#191935"/>
<path d="M34.8339 132.586C55.5748 125.776 86.6347 123.231 86.6347 123.231C108.407 117.968 126.156 119.688 126.156 119.688C127.876 118.518 129.63 117.486 131.487 116.558L103.73 93.4434C103.73 93.4434 66.6848 99.4973 34.8339 132.586Z" fill="#49488A"/>
<path d="M103.695 93.4434C103.695 93.4434 80.7873 98.0869 58.1201 113.256C63.4516 116.489 87.4945 115.56 121.409 108.2L103.661 93.4434H103.695Z" fill="#8588D1"/>
<path d="M34.834 133.274C34.5932 133.274 34.3868 133.171 34.2493 132.965C34.0773 132.69 34.1117 132.38 34.318 132.139C34.3868 132.07 40.8877 124.744 52.6168 116.248C63.4516 108.44 81.0625 98.0181 103.558 92.7899C103.936 92.6867 104.314 92.9275 104.383 93.3058C104.486 93.6842 104.246 94.0625 103.867 94.1313C81.6128 99.3251 64.1739 109.61 53.4767 117.349C45.3248 123.23 39.7182 128.562 37.0697 131.211C44.0178 129.25 64.7931 123.884 86.9442 122.508C87.3226 122.508 87.6666 122.783 87.6666 123.162C87.6666 123.54 87.3914 123.884 87.013 123.884C60.1152 125.569 35.2811 133.171 35.006 133.24C34.9372 133.24 34.8683 133.24 34.7995 133.24L34.834 133.274Z" fill="#191935"/>
<g opacity="0.2">
<path d="M154.154 92.7213C155.049 92.1709 163.889 92.3084 167.122 93.6499C170.355 95.0257 169.151 110.642 168.051 111.639C166.881 112.671 157.216 112.981 156.356 112.74C155.496 112.499 151.472 94.3723 154.189 92.7213H154.154Z" fill="#DEF5FF"/>
</g>
<path d="M158.144 113.497C157.113 113.497 156.356 113.497 156.149 113.393C155.771 113.29 155.393 113.187 154.395 109.232C153.811 106.858 153.295 104.072 152.951 101.596C151.815 93.306 153.295 92.4117 153.776 92.1021C155.014 91.3454 164.095 91.6206 167.363 92.9965C168.395 93.4436 169.117 94.8195 169.495 97.1584C170.286 101.94 169.667 111.02 168.463 112.121C167.363 113.118 161.343 113.462 158.11 113.462L158.144 113.497ZM156.7 112.086C158.316 112.258 166.537 111.846 167.535 111.123C168.223 110.023 169.117 100.46 167.844 96.0577C167.569 95.0946 167.191 94.4412 166.812 94.2692C163.682 92.9277 155.358 92.9276 154.464 93.2716C154.395 93.306 154.189 93.5124 154.051 94.2348C153.191 98.4311 155.84 110.367 156.665 112.052L156.7 112.086Z" fill="black"/>
<path d="M97.6415 94.4754C97.6415 94.4754 111.985 82.196 123.817 82.9871C135.271 83.7438 142.494 88.2841 153.57 96.3672C191.44 124.056 211.39 180.741 213.385 206.745C213.798 212.179 209.945 217.614 202.344 204.165C160.208 129.869 119.174 164.059 101.15 115.767C97.7447 106.617 97.6415 94.4754 97.6415 94.4754Z" fill="#8588D1"/>
<path d="M119.896 140.291C139.02 152.33 165.78 150.128 193.71 190.303L201.896 191.679C178.404 145.932 145.383 151.229 119.896 140.291Z" fill="#49488A"/>
<path d="M211.39 190.51C204.029 185.316 196.978 186.107 191.887 186.967C191.887 186.967 199.764 199.006 202.86 204.268C210.702 217.58 215.311 212.42 214.864 206.985C214.52 202.617 212.387 196.839 211.355 190.51H211.39Z" fill="#49488A"/>
<path d="M148.582 92.9276C197.081 124.4 212.938 193.881 214.313 206.022C214.313 206.022 214.348 211.629 211.39 212.007C212.147 200.278 205.439 168.531 187.932 140.291C176.89 122.44 163.682 107.581 148.582 92.8933V92.9276Z" fill="#DCE5EA"/>
<path d="M211.39 212.73C211.218 212.73 211.046 212.661 210.908 212.558C210.771 212.42 210.667 212.214 210.702 212.007C211.046 206.951 209.911 196.563 205.852 182.599C202.825 172.245 197.15 156.561 187.347 140.704C177.544 124.847 165.436 110.263 148.101 93.4434C147.86 93.2026 147.826 92.79 148.032 92.5148C148.238 92.2397 148.651 92.1709 148.961 92.3773C160.208 99.6693 170.527 109.575 179.676 121.786C187.209 131.864 193.951 143.524 199.764 156.457C210.289 180.019 214.417 200.622 215.036 205.988C215.036 205.988 215.036 206.022 215.036 206.057C215.036 206.298 215.036 212.282 211.493 212.73C211.493 212.73 211.424 212.73 211.39 212.73ZM155.014 98.3278C169.323 112.809 179.814 125.879 188.516 139.947C198.422 155.941 204.132 171.729 207.159 182.186C210.427 193.399 212.284 204.268 212.112 210.975C213.522 209.84 213.626 206.435 213.626 206.057C213.006 200.691 208.913 180.328 198.491 156.973C192.747 144.109 186.04 132.552 178.576 122.543C171.421 112.946 163.51 104.829 155.014 98.2933V98.3278Z" fill="#DCE5EA"/>
<path d="M211.975 213.452C209.636 213.452 205.749 210.838 201.243 203.133C191.027 185.763 180.192 173.036 168.119 164.265C157.628 156.629 147.585 152.983 138.711 149.75C124.023 144.419 111.366 139.81 102.56 119.722C102.423 119.378 102.56 118.965 102.904 118.828C103.248 118.69 103.661 118.828 103.798 119.172C112.363 138.743 124.195 143.043 139.158 148.477C157.009 154.944 179.229 163.027 202.412 202.445C206.54 209.462 210.599 212.626 212.353 212.007C213.006 211.801 214.417 210.563 213.591 204.062C212.181 192.539 206.884 172.624 196.324 151.332C188.276 135.166 174.345 112.602 153.604 97.055C141.084 87.6648 131.143 83.4341 122.269 83.6405C111.503 83.9156 98.6733 94.9914 98.5357 95.1289C98.2606 95.3697 97.8134 95.3352 97.5726 95.0601C97.3319 94.7849 97.3663 94.3378 97.6415 94.0971C98.1918 93.6155 110.987 82.5742 122.235 82.299C131.453 82.0583 141.669 86.3923 154.43 95.9888C175.411 111.708 189.445 134.444 197.563 150.748C208.191 172.176 213.522 192.264 214.933 203.89C215.621 209.428 214.898 212.592 212.766 213.314C212.525 213.383 212.25 213.452 211.94 213.452H211.975Z" fill="#191935"/>
<path d="M154.154 93.4092C153.914 93.4092 153.707 93.3059 153.57 93.0995C153.019 92.2052 151.953 90.6919 151.334 90.3136C150.646 89.9008 145.418 89.7287 144.455 90.0039C144.008 90.1415 143.148 91.4829 142.632 92.5836C142.46 92.9276 142.081 93.0651 141.703 92.9276C141.359 92.7556 141.221 92.3429 141.359 91.999C141.669 91.311 142.838 89.0064 144.076 88.6625C145.108 88.3873 150.852 88.353 152.091 89.1097C153.123 89.7632 154.567 92.1021 154.739 92.3429C154.946 92.6525 154.842 93.0996 154.498 93.3059C154.395 93.3747 154.258 93.4092 154.154 93.4092Z" fill="black"/>
<path d="M112.741 91.9645C112.741 91.9645 103.523 78.9283 100.187 77.9996C99.1549 77.6901 93.4107 80.6482 91.175 84.6382C88.8016 88.8689 89.9367 94.1659 91.1405 95.0602C93.1699 96.5736 98.6045 97.124 98.6045 97.124" fill="#D2D2FB"/>
<path d="M110.918 92.446C110.712 92.446 110.506 92.3428 110.368 92.1709C104.693 84.7413 100.324 80.9576 100.29 80.9232C100.015 80.6824 99.9805 80.2354 100.221 79.9602C100.462 79.685 100.909 79.6506 101.184 79.8913C101.356 80.0633 105.69 83.8126 111.469 91.3454C111.71 91.6549 111.641 92.0676 111.331 92.3084C111.194 92.4116 111.056 92.446 110.918 92.446Z" fill="white"/>
<path d="M98.6045 97.7774C98.6045 97.7774 98.5702 97.7774 98.5358 97.7774C98.295 97.7774 92.8948 97.1927 90.7278 95.6105C89.18 94.4754 88.045 88.7657 90.5903 84.2942C92.8948 80.201 98.8454 76.8989 100.393 77.3461C103.867 78.3092 112.363 90.2102 113.292 91.5861C113.498 91.8956 113.429 92.3429 113.12 92.5493C112.81 92.7556 112.397 92.6869 112.157 92.3773C108.511 87.2179 102.251 79.3066 99.9804 78.6875C99.1549 78.6187 93.8579 81.2673 91.7597 84.9821C89.4896 88.9721 90.6591 93.8562 91.519 94.5098C93.0324 95.6448 97.1599 96.264 98.639 96.436C99.0173 96.4704 99.2925 96.8144 99.2581 97.1928C99.2237 97.5367 98.9142 97.8118 98.5702 97.8118L98.6045 97.7774Z" fill="#49488A"/>
<path d="M104.83 86.874C101.631 81.6458 96.7816 82.7807 96.7816 82.7807C98.3638 84.0534 99.3956 85.7044 99.3956 85.7044C96.6095 86.2548 94.5114 88.2841 94.5114 88.2841C94.5114 88.2841 96.4032 89.0066 97.6415 89.2473C97.6415 89.2473 97.4007 90.7608 97.4695 92.171C97.4695 92.171 103.833 92.4461 105.828 92.1022C105.828 92.1022 106.172 89.0753 104.83 86.8396V86.874Z" fill="#6A6DB8"/>
<path d="M106.55 94.0627C106.172 94.0627 105.862 93.7875 105.862 93.4092C105.862 93.306 105.381 84.2942 97.779 79.1348C97.4695 78.9284 97.3663 78.4811 97.6071 78.1716C97.8134 77.862 98.2606 77.7588 98.5702 77.9996C106.756 83.5718 107.238 92.962 107.238 93.3403C107.238 93.7187 106.963 94.0283 106.585 94.0627H106.55Z" fill="#49488A"/>
<path d="M206.127 200.106C206.677 202.927 208.156 204.612 209.188 206.022C209.773 206.814 208.569 207.777 207.778 206.504C206.024 203.718 206.127 200.106 206.127 200.106Z" fill="black"/>
<path d="M208.672 207.811C208.122 207.811 207.572 207.467 207.194 206.848C205.336 203.924 205.439 200.209 205.439 200.072C205.439 199.728 205.714 199.453 206.058 199.418C206.402 199.418 206.712 199.625 206.781 199.969C207.228 202.239 208.294 203.683 209.257 204.956C209.429 205.197 209.601 205.403 209.739 205.61C210.048 206.057 210.117 206.573 209.876 207.02C209.67 207.467 209.223 207.742 208.741 207.777H208.672V207.811ZM208.088 205.713C208.157 205.85 208.26 205.988 208.329 206.126C208.432 206.298 208.535 206.366 208.604 206.401C208.466 206.194 208.294 205.988 208.157 205.782C208.157 205.782 208.122 205.713 208.088 205.678V205.713Z" fill="black"/>
<path d="M134.067 147.996C133.964 147.996 133.861 147.996 133.758 147.927C129.389 145.863 127.085 142.63 125.055 139.741C122.992 136.817 121.203 134.306 117.694 133.412C117.316 133.309 117.11 132.93 117.213 132.586C117.316 132.208 117.694 132.002 118.038 132.105C122.028 133.137 124.023 135.992 126.156 138.984C128.185 141.839 130.249 144.797 134.308 146.723C134.652 146.895 134.789 147.308 134.652 147.652C134.549 147.893 134.273 148.03 134.033 148.03L134.067 147.996Z" fill="#191935"/>
<path d="M129.733 87.3554C129.389 87.3554 129.08 87.1145 129.045 86.7706C129.011 86.3922 129.252 86.0484 129.63 86.014C135.615 85.2229 137.438 81.2672 137.507 81.0952C137.644 80.7512 138.057 80.5793 138.401 80.7512C138.745 80.8888 138.917 81.3016 138.745 81.6456C138.676 81.852 136.578 86.4955 129.802 87.3898C129.802 87.3898 129.733 87.3898 129.699 87.3898L129.733 87.3554Z" fill="#191935"/>
<path d="M157.25 88.972C157.147 88.972 157.009 88.972 156.906 88.8688C151.368 85.7388 148.204 79.8226 148.101 79.5819C147.929 79.2379 148.066 78.8251 148.376 78.6531C148.72 78.4811 149.133 78.6188 149.305 78.9284C149.305 78.9971 152.4 84.7413 157.594 87.665C157.938 87.8369 158.041 88.2842 157.869 88.5937C157.732 88.8345 157.525 88.9377 157.285 88.9377L157.25 88.972Z" fill="#191935"/>
<path d="M141.256 103.969C136.544 89.6942 123.92 102.077 119.036 105.688C135.546 114.012 141.256 103.969 141.256 103.969Z" fill="white"/>
<path d="M136.594 111.551C137.426 108.945 135.606 106.036 132.529 105.054C129.453 104.072 126.284 105.389 125.453 107.995C124.621 110.601 126.441 113.51 129.517 114.491C132.594 115.473 135.762 114.157 136.594 111.551Z" fill="#191935"/>
<path d="M141.256 103.969C138.883 126.808 117.591 116.248 119.036 105.689C136.096 114.769 141.256 103.969 141.256 103.969Z" fill="#8588D1"/>
<path d="M121.478 102.111C121.478 102.111 130.662 101.699 135.89 96.9176C135.89 96.9176 124.402 91.7582 121.478 102.111Z" fill="#8588D1"/>
<path d="M121.478 102.799C121.1 102.799 120.824 102.524 120.79 102.146C120.79 101.767 121.065 101.458 121.444 101.423C121.547 101.423 130.283 100.942 135.443 96.4015C135.718 96.1607 136.165 96.1608 136.406 96.4703C136.647 96.7455 136.647 97.1926 136.337 97.4333C130.834 102.283 121.891 102.765 121.512 102.799C121.512 102.799 121.512 102.799 121.478 102.799Z" fill="#191935"/>
<path d="M127.566 106.239C127.394 105.31 131.35 104.485 131.591 105.517C131.831 106.548 127.773 107.305 127.566 106.239Z" fill="white"/>
<path d="M130.352 113.669C128.22 113.669 125.812 113.187 123.198 111.88C122.854 111.708 122.716 111.295 122.888 110.951C123.06 110.607 123.473 110.47 123.817 110.642C132.106 114.838 138.229 109.782 138.47 109.575C138.745 109.335 139.192 109.369 139.433 109.644C139.674 109.919 139.639 110.367 139.364 110.607C139.33 110.642 135.718 113.634 130.352 113.634V113.669Z" fill="#191935"/>
<path d="M124.23 119.963C123.989 122.887 121.65 125.122 118.898 124.95C116.147 124.778 114.117 122.233 114.289 119.31C114.668 113.118 119.139 106.273 119.139 106.273C119.139 106.273 124.677 114.597 124.23 119.997V119.963Z" fill="#9FD6FF"/>
<path d="M119.242 125.638C119.105 125.638 119.002 125.638 118.864 125.638C117.351 125.535 115.975 124.813 114.977 123.575C114.014 122.371 113.533 120.823 113.636 119.241C114.014 112.946 118.382 106.136 118.589 105.861C118.726 105.654 118.933 105.551 119.174 105.551C119.414 105.551 119.621 105.654 119.758 105.861C119.999 106.205 125.399 114.425 124.952 120.032C124.677 123.265 122.235 125.638 119.277 125.638H119.242ZM119.174 107.546C117.97 109.61 115.287 114.7 115.012 119.31C114.943 120.548 115.287 121.752 116.044 122.68C116.8 123.609 117.832 124.159 118.967 124.228C121.341 124.366 123.335 122.474 123.542 119.894C123.886 115.801 120.549 109.816 119.139 107.546H119.174Z" fill="#5BABD3"/>
<g opacity="0.2">
<path d="M141.978 92.2741C130.799 89.5224 120.79 95.5418 116.697 98.4999C115.459 99.4286 114.736 100.873 114.805 102.352C115.046 106.858 115.871 111.57 116.594 114.941C117.213 117.934 119.896 120.066 123.095 120.032C131.281 119.963 137.747 116.833 141.565 114.425C143.939 112.912 145.315 110.298 145.143 107.615C144.455 96.0921 141.978 92.2741 141.978 92.2741Z" fill="#DEF5FF"/>
</g>
<path d="M123.026 120.72C119.517 120.72 116.594 118.415 115.906 115.079C115.218 111.846 114.358 107.03 114.117 102.387C114.014 100.667 114.84 99.0158 116.284 97.9495C120.205 95.0946 130.593 88.7657 142.116 91.5862C142.288 91.6206 142.425 91.7238 142.529 91.8957C142.632 92.0677 145.108 95.9889 145.796 107.58C145.968 110.504 144.489 113.359 141.875 115.01C137.851 117.59 131.315 120.651 123.06 120.72C123.06 120.72 123.026 120.72 122.991 120.72H123.026ZM136.165 92.2741C127.532 92.2741 120.205 96.8145 117.11 99.0847C116.043 99.8758 115.424 101.08 115.493 102.318C115.734 106.858 116.594 111.605 117.282 114.804C117.832 117.487 120.24 119.378 123.095 119.344C131.04 119.275 137.3 116.317 141.187 113.841C143.354 112.465 144.592 110.091 144.455 107.649C143.87 98.0184 142.013 93.822 141.531 92.8589C139.708 92.4462 137.919 92.2397 136.165 92.2397V92.2741Z" fill="black"/>
<path d="M28.3331 218.543C28.3331 218.543 26.6133 190.131 38.1016 156.251L88.8705 144.969C83.883 170.354 92.9636 221.535 92.9636 221.535C56.7788 223.289 28.3331 218.543 28.3331 218.543Z" fill="#DDDCFC"/>
<path d="M28.3331 218.543C28.3331 218.543 33.183 219.334 41.3693 220.159C39.6495 214.862 35.4875 197.114 38.1016 156.251C26.6133 190.097 28.3331 218.543 28.3331 218.543Z" fill="#9597CF"/>
<path d="M28.3331 219.23C27.9892 219.23 27.6796 218.955 27.6452 218.577C27.6452 218.302 26.063 189.615 37.4481 156.044C37.5857 155.701 37.9641 155.494 38.308 155.597C38.652 155.735 38.8583 156.113 38.7551 156.457C27.4387 189.787 28.9866 218.198 29.021 218.474C29.021 218.852 28.7458 219.162 28.3675 219.196C28.3675 219.196 28.3675 219.196 28.3331 219.196V219.23Z" fill="#191935"/>
<path d="M92.9635 222.223C92.654 222.223 92.3444 221.982 92.2756 221.673C92.1724 221.191 83.2294 174.378 88.4576 144.109C88.5264 143.731 88.8704 143.49 89.2487 143.559C89.6271 143.628 89.8679 143.971 89.7991 144.35C84.6397 174.378 93.5482 220.95 93.617 221.397C93.6858 221.776 93.4451 222.12 93.0667 222.189C93.0323 222.189 92.9635 222.189 92.9291 222.189L92.9635 222.223Z" fill="#191935"/>
<path d="M32.7014 182.22C26.9572 195.669 24.7903 211.01 24.7903 211.01C24.7903 211.01 27.6451 205.954 32.0135 201.551" fill="#9597CF"/>
<path d="M24.8246 211.698C24.7558 211.698 24.6871 211.698 24.6183 211.663C24.3087 211.56 24.1023 211.251 24.1711 210.907C24.1711 210.769 26.4069 195.291 32.1167 181.945C32.2542 181.601 32.6669 181.429 33.0109 181.567C33.3549 181.704 33.5269 182.117 33.3893 182.461C29.3305 191.954 27.0604 202.514 26.0973 207.777C27.37 205.919 29.2617 203.408 31.5663 201.069C31.8415 200.794 32.2542 200.794 32.5294 201.069C32.8046 201.345 32.8046 201.757 32.5294 202.032C28.2987 206.332 25.4437 211.319 25.4437 211.354C25.3062 211.56 25.0998 211.698 24.859 211.698H24.8246Z" fill="#191935"/>
</svg>
